<svg width="52" height="52" viewBox="0 0 52 52" fill="none" xmlns="http://www.w3.org/2000/svg">
<path d="M51 26C51 20.0878 48.9478 14.655 45.5168 10.375M51 26H1M51 26C51 31.9122 48.9478 37.345 45.5168 41.625M26 51C18.105 51 11.0648 47.3404 6.48322 41.625M26 51C33.8949 51 40.9352 47.3404 45.5168 41.625M26 51C26 51 36 48.9198 36 26C36 3.08022 26 1 26 1M26 51C26 51 16 48.7332 16 26C16 3.26684 26 1 26 1M1 26C1 20.0878 3.05224 14.655 6.48322 10.375M1 26C1 31.9122 3.05224 37.345 6.48322 41.625M26 1C18.105 1 11.0648 4.65961 6.48322 10.375M26 1C33.895 1 40.9352 4.65961 45.5168 10.375M6.48322 10.375C6.48322 10.375 18.3782 13.7083 26 13.7083C33.6218 13.7083 45.5168 10.375 45.5168 10.375M6.48322 41.625C6.48322 41.625 18.2065 37.875 26 37.875C33.7935 37.875 45.5168 41.625 45.5168 41.625" stroke="black" stroke-width="1.5"/>
</svg>
