<svg width="50" height="50" viewBox="0 0 50 50" fill="none" xmlns="http://www.w3.org/2000/svg">
<g style="mix-blend-mode:luminosity">
<path d="M3.125 18.9583C3.125 13.4161 3.125 10.6451 4.20358 8.52822C5.15233 6.6662 6.6662 5.15233 8.52822 4.20358C10.6451 3.125 13.4161 3.125 18.9583 3.125H31.0417C36.5839 3.125 39.3549 3.125 41.4718 4.20358C43.3338 5.15233 44.8477 6.6662 45.7964 8.52822C46.875 10.6451 46.875 13.4161 46.875 18.9583V31.0417C46.875 36.5839 46.875 39.3549 45.7964 41.4718C44.8477 43.3338 43.3338 44.8477 41.4718 45.7964C39.3549 46.875 36.5839 46.875 31.0417 46.875H18.9583C13.4161 46.875 10.6451 46.875 8.52822 45.7964C6.6662 44.8477 5.15233 43.3338 4.20358 41.4718C3.125 39.3549 3.125 36.5839 3.125 31.0417V18.9583Z" fill="#00005B"/>
<path d="M21.5458 30.5685H14.7662L13.3869 34.9717C13.3486 35.135 13.1982 35.2507 13.0347 35.2427H9.60085C9.40503 35.2427 9.33655 35.1323 9.3954 34.9115L15.2651 17.6447C15.3239 17.4642 15.3825 17.2876 15.4413 17.0566C15.5181 16.655 15.5574 16.2468 15.5587 15.8376C15.5419 15.7166 15.6462 15.6096 15.7641 15.6268H20.4305C20.5673 15.6268 20.6455 15.677 20.6654 15.7774L27.3276 34.9416C27.3863 35.1425 27.3276 35.2428 27.1515 35.2427H23.3361C23.2023 35.2579 23.0745 35.1661 23.0426 35.032L21.5458 30.5685ZM15.8228 26.8558H20.4599C19.6981 24.2524 18.8383 21.6832 18.1414 19.0595C17.3517 21.7811 16.6225 24.3052 15.8228 26.8558Z" fill="white"/>
<path d="M32.2825 28.8683C32.5523 31.1041 34.4298 32.17 36.5088 32.1246C37.6811 32.1015 38.9339 31.9196 40.0293 31.4763C40.127 31.3963 40.1761 31.4462 40.1761 31.6268V34.4864C40.1853 34.6352 40.1232 34.7681 39.9999 34.8476C38.6385 35.4662 37.0756 35.6526 35.5989 35.629C31.1961 35.629 28.1724 32.5267 28.1737 28.0133C28.1622 23.7361 30.937 20.1276 35.2467 20.1276C38.9 20.0329 41.4292 22.9579 41.4394 26.5985C41.4394 27.2616 41.4024 27.927 41.322 28.5852C41.3064 28.7208 41.1909 28.8261 41.0578 28.826C38.1401 28.826 35.2082 28.8683 32.2825 28.8683ZM32.2825 26.1261C33.9086 26.1261 35.544 26.1836 37.1691 26.111C37.4133 26.086 37.5947 26.0398 37.5947 25.7857C37.5608 24.436 36.4218 23.326 35.1001 23.3776C33.5031 23.2786 32.481 24.6267 32.2825 26.1261Z" fill="white"/>
</g>
</svg>
