<svg width="50" height="50" viewBox="0 0 50 50" fill="none" xmlns="http://www.w3.org/2000/svg">
<path d="M3.125 18.9583C3.125 13.4161 3.125 10.6451 4.20358 8.52822C5.15233 6.6662 6.6662 5.15233 8.52822 4.20358C10.6451 3.125 13.4161 3.125 18.9583 3.125H31.0417C36.5839 3.125 39.3549 3.125 41.4718 4.20358C43.3338 5.15233 44.8477 6.6662 45.7964 8.52822C46.875 10.6451 46.875 13.4161 46.875 18.9583V31.0417C46.875 36.5839 46.875 39.3549 45.7964 41.4718C44.8477 43.3338 43.3338 44.8477 41.4718 45.7964C39.3549 46.875 36.5839 46.875 31.0417 46.875H18.9583C13.4161 46.875 10.6451 46.875 8.52822 45.7964C6.6662 44.8477 5.15233 43.3338 4.20358 41.4718C3.125 39.3549 3.125 36.5839 3.125 31.0417V18.9583Z" fill="black"/>
<path d="M12.5 34.0557V14.3874C12.5 14.2536 12.5549 14.1772 12.6828 14.1772C14.5723 14.1772 16.4608 14.0625 18.3507 14.0625C21.4174 14.0625 24.738 15.1313 25.9019 18.4014C26.1761 19.2042 26.3224 20.0261 26.3224 20.8862C26.3224 22.53 25.9567 23.8871 25.2254 24.9575C23.1824 27.9475 19.6416 27.901 16.4675 27.901V34.0366C16.4924 34.2183 16.3405 34.3042 16.1933 34.3042H12.7194C12.5731 34.3042 12.5 34.2278 12.5 34.0557ZM16.4858 17.8662V24.2885C17.7443 24.3825 19.0613 24.3927 20.2705 23.9827C21.6055 23.5902 22.3366 22.4123 22.3366 21.0009C22.3737 19.7982 21.7307 18.6443 20.6362 18.2102C19.4415 17.7039 17.7754 17.6736 16.4858 17.8662Z" fill="white"/>
<path d="M28.8008 19.0811H32.0095C32.1864 19.0827 32.3452 19.2105 32.3921 19.3889C32.6273 19.9347 32.6562 20.5929 32.6571 21.1822C33.2073 20.5124 33.8709 19.9543 34.6145 19.5358C35.4121 19.064 36.3164 18.8249 37.2327 18.8434C37.3848 18.8207 37.5194 18.9614 37.4977 19.1204V22.844C37.4977 22.9878 37.3992 23.0594 37.2033 23.0594C35.8452 22.9614 33.7308 23.2969 32.744 24.4134V34.0954C32.744 34.28 32.6655 34.3723 32.5085 34.3723H29.0658C28.8967 34.3977 28.7475 34.2386 28.7714 34.0646V23.5518C28.7714 22.1431 28.8006 20.692 28.5948 19.2966C28.5631 19.1682 28.6807 19.0488 28.8008 19.0811Z" fill="white"/>
</svg>
