<svg width="50" height="50" viewBox="0 0 50 50" fill="none" xmlns="http://www.w3.org/2000/svg">
<g style="mix-blend-mode:luminosity">
<path d="M3.125 18.9583C3.125 13.4161 3.125 10.6451 4.20358 8.52822C5.15233 6.6662 6.6662 5.15233 8.52822 4.20358C10.6451 3.125 13.4161 3.125 18.9583 3.125H31.0417C36.5839 3.125 39.3549 3.125 41.4718 4.20358C43.3338 5.15233 44.8477 6.6662 45.7964 8.52822C46.875 10.6451 46.875 13.4161 46.875 18.9583V31.0417C46.875 36.5839 46.875 39.3549 45.7964 41.4718C44.8477 43.3338 43.3338 44.8477 41.4718 45.7964C39.3549 46.875 36.5839 46.875 31.0417 46.875H18.9583C13.4161 46.875 10.6451 46.875 8.52822 45.7964C6.6662 44.8477 5.15233 43.3338 4.20358 41.4718C3.125 39.3549 3.125 36.5839 3.125 31.0417V18.9583Z" fill="#330000"/>
<path d="M24.3256 30.6192H17.546L16.1667 35.014C16.1284 35.1773 15.978 35.2929 15.8144 35.2849H12.3806C12.1848 35.2849 12.1163 35.1745 12.1752 34.9538L18.0449 17.6153C18.1037 17.4347 18.1624 17.229 18.2211 16.9982C18.2979 16.5966 18.3372 16.1884 18.3385 15.7792C18.3217 15.6583 18.4279 15.5515 18.5439 15.5684H23.2103C23.3471 15.5684 23.4253 15.6186 23.4452 15.719L30.1074 34.9839C30.1661 35.1847 30.1074 35.2851 29.9313 35.2849H26.1159C25.9821 35.3001 25.8543 35.2084 25.8224 35.0742L24.3256 30.6192ZM18.6026 26.8264H23.2397C22.4779 24.223 21.6181 21.6538 20.9212 19.0301C20.1693 21.6582 19.349 24.2757 18.6026 26.8264Z" fill="white"/>
<path d="M34.0692 18.7591C33.7698 18.7714 33.4713 18.7188 33.1931 18.6047C32.915 18.4906 32.6634 18.3175 32.455 18.0969C32.2471 17.8666 32.0856 17.5965 31.9798 17.3021C31.874 17.0076 31.826 16.6946 31.8386 16.3811C31.8279 16.0706 31.8812 15.7614 31.995 15.4735C32.1088 15.1856 32.2805 14.9256 32.4989 14.7104C32.7153 14.4975 32.9706 14.3306 33.2502 14.2196C33.5298 14.1085 33.8281 14.0554 34.1278 14.0633C34.8322 14.0633 35.385 14.279 35.7861 14.7104C35.9885 14.9347 36.1459 15.1976 36.2491 15.4843C36.3523 15.771 36.3994 16.0757 36.3877 16.3811C36.3999 16.6958 36.3504 17.0099 36.242 17.3047C36.1336 17.5994 35.9686 17.8688 35.7567 18.0969C35.5352 18.3208 35.271 18.4952 34.9805 18.6092C34.6901 18.7232 34.3798 18.7742 34.0692 18.7591ZM32.044 34.9838V20.5953C32.044 20.4147 32.122 20.3243 32.2788 20.3243H35.8888C36.0452 20.3243 36.1234 20.4146 36.1236 20.5953V34.9838C36.1236 35.1846 36.0453 35.285 35.8888 35.2848H32.3082C32.1321 35.2848 32.0441 35.1845 32.044 34.9838Z" fill="white"/>
</g>
</svg>
