<svg width="50" height="50" viewBox="0 0 50 50" fill="none" xmlns="http://www.w3.org/2000/svg">
<g style="mix-blend-mode:luminosity">
<path d="M3.125 18.9583C3.125 13.4161 3.125 10.6451 4.20358 8.52822C5.15233 6.6662 6.6662 5.15233 8.52822 4.20358C10.6451 3.125 13.4161 3.125 18.9583 3.125H31.0417C36.5839 3.125 39.3549 3.125 41.4718 4.20358C43.3338 5.15233 44.8477 6.6662 45.7964 8.52822C46.875 10.6451 46.875 13.4161 46.875 18.9583V31.0417C46.875 36.5839 46.875 39.3549 45.7964 41.4718C44.8477 43.3338 43.3338 44.8477 41.4718 45.7964C39.3549 46.875 36.5839 46.875 31.0417 46.875H18.9583C13.4161 46.875 10.6451 46.875 8.52822 45.7964C6.6662 44.8477 5.15233 43.3338 4.20358 41.4718C3.125 39.3549 3.125 36.5839 3.125 31.0417V18.9583Z" fill="#E6001F"/>
<path d="M10.9375 35.9375C10.9375 35.9375 20.6573 12.5061 20.6342 12.5C20.6342 12.5 20.6342 12.5 20.6342 12.5H20.6342H28.0158L39.0625 35.9375L30.719 35.9375C30.7251 35.9499 24.4629 21.5567 24.3844 21.412C24.3707 21.5375 20.2319 31.1705 20.1819 31.1823H24.6422C24.6219 31.2068 26.5816 35.8928 26.5816 35.9375L10.9375 35.9375Z" fill="white"/>
</g>
</svg>
