<svg width="50" height="50" viewBox="0 0 50 50" fill="none" xmlns="http://www.w3.org/2000/svg">
<g style="mix-blend-mode:luminosity">
<path d="M3.125 18.9583C3.125 13.4161 3.125 10.6451 4.20358 8.52822C5.15233 6.6662 6.6662 5.15233 8.52822 4.20358C10.6451 3.125 13.4161 3.125 18.9583 3.125H31.0417C36.5839 3.125 39.3549 3.125 41.4718 4.20358C43.3338 5.15233 44.8477 6.6662 45.7964 8.52822C46.875 10.6451 46.875 13.4161 46.875 18.9583V31.0417C46.875 36.5839 46.875 39.3549 45.7964 41.4718C44.8477 43.3338 43.3338 44.8477 41.4718 45.7964C39.3549 46.875 36.5839 46.875 31.0417 46.875H18.9583C13.4161 46.875 10.6451 46.875 8.52822 45.7964C6.6662 44.8477 5.15233 43.3338 4.20358 41.4718C3.125 39.3549 3.125 36.5839 3.125 31.0417V18.9583Z" fill="#001E36"/>
<path d="M12.5 35.1816V15.9428C12.5 15.812 12.5547 15.7372 12.6823 15.7372C14.5661 15.7372 16.449 15.625 18.3333 15.625C21.3909 15.625 24.7015 16.6705 25.862 19.8691C26.1354 20.6544 26.2813 21.4583 26.2813 22.2997C26.2813 23.9076 25.9167 25.235 25.1875 26.2821C23.1506 29.2068 19.6203 29.1613 16.4557 29.1613V35.1629C16.4805 35.3406 16.3291 35.4247 16.1823 35.4247H12.7188C12.5729 35.4247 12.5 35.3499 12.5 35.1816ZM16.474 19.3456V25.6277C17.7287 25.7196 19.0418 25.7296 20.2474 25.3285C21.5784 24.9446 22.3073 23.7924 22.3073 22.4119C22.3443 21.2355 21.7033 20.1067 20.612 19.6822C19.4209 19.1869 17.7597 19.1572 16.474 19.3456Z" fill="white"/>
<path d="M37.651 24.3865C37.0995 24.0958 36.512 23.8832 35.9048 23.7544C35.1244 23.5707 32.0465 22.9277 32.0454 24.537C32.0727 25.4355 33.4989 25.8757 34.1291 26.1324C36.3414 26.8919 38.8448 28.2496 38.7956 30.9787C38.8633 34.3763 35.5714 35.7345 32.7497 35.7348C31.2807 35.75 29.7504 35.5225 28.4061 34.8919C28.2777 34.824 28.1951 34.6787 28.2006 34.5307V31.2797C28.1862 31.1494 28.326 31.0355 28.4354 31.1292C29.7526 31.9259 31.314 32.3126 32.8378 32.3333C33.5104 32.3333 34.8436 32.2681 34.8335 31.2797C34.8335 30.3313 33.2387 29.8952 32.603 29.6542C31.6814 29.3253 30.8077 28.8696 30.0056 28.2997C28.8847 27.5002 28.1815 26.2182 28.2006 24.8079C28.1941 21.6089 31.2242 20.173 33.9531 20.1723C35.2288 20.1618 36.5987 20.2563 37.7862 20.7743C37.957 20.8246 37.9924 21.0045 37.9917 21.1656V24.2059C38.0025 24.3946 37.7929 24.4589 37.651 24.3865Z" fill="white"/>
</g>
</svg>
