<svg width="50" height="50" viewBox="0 0 50 50" fill="none" xmlns="http://www.w3.org/2000/svg">
<g style="mix-blend-mode:luminosity">
<path fill-rule="evenodd" clip-rule="evenodd" d="M25 25C25 21.5482 27.7982 18.75 31.25 18.75C34.7018 18.75 37.5 21.5482 37.5 25C37.5 28.4518 34.7018 31.25 31.25 31.25C27.7982 31.25 25 28.4518 25 25Z" fill="#1ABCFE"/>
<path fill-rule="evenodd" clip-rule="evenodd" d="M12.5 37.5C12.5 34.0482 15.2982 31.25 18.75 31.25H25V37.5C25 40.9518 22.2018 43.75 18.75 43.75C15.2982 43.75 12.5 40.9518 12.5 37.5Z" fill="#0ACF83"/>
<path fill-rule="evenodd" clip-rule="evenodd" d="M25 6.25V18.75H31.25C34.7018 18.75 37.5 15.9518 37.5 12.5C37.5 9.04822 34.7018 6.25 31.25 6.25H25Z" fill="#FF7262"/>
<path fill-rule="evenodd" clip-rule="evenodd" d="M12.5 12.5C12.5 15.9518 15.2982 18.75 18.75 18.75H25V6.25H18.75C15.2982 6.25 12.5 9.04822 12.5 12.5Z" fill="#F24E1E"/>
<path fill-rule="evenodd" clip-rule="evenodd" d="M12.5 25C12.5 28.4518 15.2982 31.25 18.75 31.25H25V18.75H18.75C15.2982 18.75 12.5 21.5482 12.5 25Z" fill="#A259FF"/>
</g>
</svg>
