<svg width="32" height="32" viewBox="0 0 32 32" fill="none" xmlns="http://www.w3.org/2000/svg">
<path d="M2.58536 17.4132C1.80488 16.6327 1.80488 15.3673 2.58536 14.5868L14.5868 2.58536C15.3673 1.80488 16.6327 1.80488 17.4132 2.58536L29.4146 14.5868C30.1951 15.3673 30.1951 16.6327 29.4146 17.4132L17.4132 29.4146C16.6327 30.1951 15.3673 30.1951 14.5868 29.4146L2.58536 17.4132Z" fill="#EE513B"/>
<path d="M12.1494 5.0625L10.9341 6.27784L14.073 9.41674C13.946 9.68917 13.8751 9.99298 13.8751 10.3134C13.8751 11.223 14.4466 11.9991 15.2501 12.3022V19.9807C14.4466 20.2839 13.8751 21.06 13.8751 21.9696C13.8751 23.1432 14.8265 24.0946 16.0001 24.0946C17.1737 24.0946 18.1251 23.1432 18.1251 21.9696C18.1251 21.145 17.6554 20.43 16.9689 20.0778V12.3126L19.9694 15.3132C19.8486 15.5801 19.7814 15.8764 19.7814 16.1884C19.7814 17.362 20.7328 18.3134 21.9064 18.3134C23.08 18.3134 24.0314 17.362 24.0314 16.1884C24.0314 15.0148 23.08 14.0634 21.9064 14.0634C21.6783 14.0634 21.4586 14.0993 21.2527 14.1658L18.0302 10.9433C18.0919 10.7442 18.1251 10.5327 18.1251 10.3134C18.1251 9.13975 17.1737 8.18836 16.0001 8.18836C15.7808 8.18836 15.5692 8.22158 15.3702 8.28328L12.1494 5.0625Z" fill="white"/>
</svg>
