<svg width="40" height="50" viewBox="0 0 40 50" fill="none" xmlns="http://www.w3.org/2000/svg">
<g clip-path="url(#clip0_386_22029)">
<path d="M39.4788 11.8402V47.3665C39.4788 48.8204 38.3012 49.998 36.8472 49.998H2.63671C1.18276 49.998 0.00512695 48.8204 0.00512695 47.3665V2.62963C0.00512695 1.17699 1.18276 -0.00195312 2.63671 -0.00195312H27.6393L30.267 9.20857L39.4788 11.8402Z" fill="#020202"/>
<path fill-rule="evenodd" clip-rule="evenodd" d="M27.634 9.20857L27.638 -0.00195312L39.4788 11.8388L30.2669 11.8402L27.634 9.20857Z" fill="#CE97E6"/>
<path fill-rule="evenodd" clip-rule="evenodd" d="M15.7908 22.3652V24.9981H28.95V22.3652H15.7908Z" fill="white"/>
<path fill-rule="evenodd" clip-rule="evenodd" d="M11.8447 21.7871C12.8907 21.7871 13.7394 22.6384 13.7394 23.6832C13.7394 24.7292 12.8907 25.5792 11.8447 25.5792C10.7986 25.5792 9.94995 24.7279 9.94995 23.6832C9.94995 22.6384 10.7986 21.7871 11.8447 21.7871Z" fill="white"/>
<path fill-rule="evenodd" clip-rule="evenodd" d="M15.7908 28.9453V31.5782H28.95V28.9453H15.7908Z" fill="white"/>
<path fill-rule="evenodd" clip-rule="evenodd" d="M11.8447 28.3672C12.8907 28.3672 13.7394 29.2185 13.7394 30.2632C13.7394 31.3093 12.8907 32.1593 11.8447 32.1593C10.7986 32.1593 9.94995 31.308 9.94995 30.2632C9.94995 29.2185 10.7986 28.3672 11.8447 28.3672Z" fill="white"/>
<path fill-rule="evenodd" clip-rule="evenodd" d="M15.7908 35.5234V38.1563H28.95V35.5234H15.7908Z" fill="white"/>
<path fill-rule="evenodd" clip-rule="evenodd" d="M11.8447 34.9453C12.8907 34.9453 13.7394 35.7966 13.7394 36.8414C13.7394 37.8874 12.8907 38.7374 11.8447 38.7374C10.7986 38.7374 9.94995 37.8861 9.94995 36.8414C9.94995 35.7966 10.7986 34.9453 11.8447 34.9453Z" fill="white"/>
<path fill-rule="evenodd" clip-rule="evenodd" d="M30.2657 6.57617C31.7183 6.57617 32.8986 7.75643 32.8986 9.20907C32.8986 10.6617 31.7183 11.842 30.2657 11.842C28.8131 11.842 27.6328 10.6617 27.6328 9.20907C27.6328 7.75643 28.8131 6.57617 30.2657 6.57617Z" fill="#CE97E6"/>
</g>
<defs>
<clipPath id="clip0_386_22029">
<rect width="39.4737" height="50" fill="white"/>
</clipPath>
</defs>
</svg>
