<svg width="60" height="22" viewBox="0 0 60 22" fill="none" xmlns="http://www.w3.org/2000/svg">
<g clip-path="url(#clip0_397_22039)">
<path d="M30.4354 6.32927C30.432 6.43331 30.3882 6.53195 30.3134 6.60432C30.2386 6.6767 30.1385 6.71713 30.0344 6.71707H25.9032C25.6325 6.71707 25.4064 6.49756 25.4064 6.23049C25.4064 5.02537 24.9893 4.43854 24.1361 4.43854C23.2829 4.43854 22.7327 4.96244 22.7166 5.87781C22.6983 6.89854 23.2756 7.82634 24.919 9.42C27.0827 11.4498 27.9498 13.2476 27.9081 15.6241C27.84 19.4671 25.2271 21.9512 21.251 21.9512C19.2205 21.9512 17.6693 21.4083 16.6376 20.3371C15.5905 19.249 15.1105 17.6524 15.2108 15.592C15.2142 15.4878 15.258 15.389 15.333 15.3166C15.408 15.2442 15.5082 15.2039 15.6125 15.2041H19.8856C19.9451 15.2051 20.0037 15.2192 20.0571 15.2456C20.1105 15.2719 20.1574 15.3097 20.1944 15.3563C20.2267 15.3949 20.2503 15.4399 20.2637 15.4884C20.2771 15.5369 20.2799 15.5877 20.272 15.6373C20.2244 16.3807 20.3539 16.9361 20.6466 17.2434C20.8339 17.4424 21.0951 17.5434 21.4208 17.5434C22.2103 17.5434 22.6727 16.9859 22.6903 16.0141C22.7049 15.1741 22.4393 14.438 20.992 12.949C19.1225 11.1227 17.4461 9.23561 17.4981 6.26854C17.5288 4.54756 18.2122 2.97366 19.4232 1.83659C20.7037 0.635122 22.4547 0 24.4873 0C26.5237 0.0146341 28.0668 0.59561 29.0744 1.72683C30.0286 2.79878 30.4873 4.34707 30.4368 6.32927H30.4354Z" fill="black"/>
<path d="M43.2403 21.2292L43.2673 0.790402C43.2681 0.739218 43.2587 0.688393 43.2395 0.640915C43.2204 0.593437 43.1919 0.550263 43.1559 0.51393C43.1198 0.477596 43.0769 0.448837 43.0295 0.429341C42.9822 0.409845 42.9314 0.400006 42.8803 0.400402H36.4866C36.2715 0.400402 36.1771 0.585524 36.1156 0.707719L26.8581 21.1041V21.1077L26.8544 21.1128C26.752 21.3638 26.9466 21.6324 27.2181 21.6324H31.6873C31.9288 21.6324 32.089 21.5592 32.1673 21.407L33.0549 19.2741C33.1639 18.9894 33.1844 18.9631 33.4947 18.9631H37.7649C38.062 18.9631 38.0678 18.9689 38.0634 19.2594L37.9676 21.2424C37.9668 21.2935 37.9762 21.3442 37.9953 21.3917C38.0144 21.4391 38.0428 21.4822 38.0788 21.5186C38.1148 21.5549 38.1576 21.5837 38.2049 21.6032C38.2521 21.6227 38.3028 21.6327 38.3539 21.6324H42.8693C42.9252 21.633 42.9805 21.6215 43.0315 21.5985C43.0824 21.5755 43.1277 21.5416 43.1642 21.4992C43.1956 21.4623 43.2187 21.4191 43.2318 21.3725C43.245 21.3259 43.2478 21.277 43.2403 21.2292ZM35.3305 14.4053C35.2968 14.4055 35.2631 14.4042 35.2295 14.4016C35.2139 14.4003 35.1987 14.3956 35.185 14.3878C35.1714 14.38 35.1596 14.3693 35.1506 14.3565C35.1415 14.3437 35.1353 14.329 35.1326 14.3135C35.1298 14.2981 35.1304 14.2822 35.1344 14.267C35.1432 14.2377 35.1556 14.1975 35.1739 14.1485L38.3759 6.22552C38.4047 6.14735 38.4379 6.07088 38.4754 5.9965C38.5273 5.88967 38.5903 5.88235 38.61 5.96138C38.6268 6.02723 38.2427 14.0965 38.2427 14.0965C38.2127 14.3987 38.1988 14.4111 37.901 14.436L35.3334 14.4067H35.3276L35.3305 14.4053Z" fill="black"/>
<path d="M52.3484 0.39868H48.9541C48.7748 0.39868 48.5736 0.493801 48.5267 0.70746L43.8028 21.2172C43.7925 21.2635 43.793 21.3115 43.8041 21.3575C43.8153 21.4036 43.8369 21.4464 43.8672 21.4828C43.9066 21.5292 43.9556 21.5664 44.0108 21.5919C44.066 21.6175 44.1261 21.6307 44.187 21.6306H48.4294C48.6577 21.6306 48.8136 21.5187 48.856 21.3248L49.3711 19.0001C49.4077 18.8187 49.3448 18.6782 49.1823 18.5933C49.1061 18.5541 49.03 18.5145 48.9541 18.4748L48.2187 18.0921L47.487 17.7101L47.2038 17.5631C47.1808 17.5516 47.1615 17.5338 47.1481 17.5118C47.1348 17.4898 47.128 17.4644 47.1284 17.4387C47.1294 17.4006 47.1453 17.3644 47.1726 17.3378C47.2 17.3113 47.2367 17.2965 47.2748 17.2967L49.5994 17.307C50.2945 17.3106 50.9904 17.2616 51.6745 17.1358C56.4892 16.2467 59.6867 12.3906 59.7789 7.14356C59.858 2.66551 57.3584 0.396484 52.3521 0.396484L52.3484 0.39868ZM51.1931 12.6036H51.1023C50.8982 12.6036 50.8623 12.5816 50.8565 12.5743C50.8528 12.5692 52.197 6.66722 52.1977 6.65917C52.2321 6.48868 52.2306 6.39063 52.1253 6.33283C51.9906 6.25819 50.0282 5.22356 50.0282 5.22356C50.0054 5.21156 49.9864 5.19341 49.9733 5.17117C49.9602 5.14893 49.9537 5.12349 49.9543 5.0977C49.9553 5.06011 49.9709 5.02438 49.9978 4.99813C50.0247 4.97189 50.0608 4.9572 50.0984 4.95722H53.2016C54.1675 4.98648 54.706 5.85063 54.6804 7.32648C54.6358 9.88087 53.4211 12.5136 51.1931 12.6036Z" fill="black"/>
<path d="M17.422 10.2519V10.2614L16.6354 13.6755C16.5929 13.8687 16.3998 14.0099 16.1773 14.0099H15.2268C15.1926 14.0101 15.1593 14.0213 15.1319 14.0418C15.1045 14.0624 15.0844 14.0912 15.0746 14.1241C14.1981 17.0977 13.0112 19.1414 11.4439 20.3684C10.1107 21.4133 8.46733 21.9006 6.27148 21.9006C4.29879 21.9006 2.96855 21.2663 1.84026 20.0136C0.349037 18.3584 -0.267061 15.6482 0.10611 12.3833C0.77928 6.25381 3.95855 0.0686886 10.08 0.0686886C11.9422 0.052591 13.4042 0.626981 14.4212 1.77357C15.4968 2.98674 16.0427 4.81308 16.0456 7.2043C16.043 7.30912 15.9995 7.40876 15.9245 7.48201C15.8494 7.55526 15.7488 7.59634 15.6439 7.59649H11.1585C11.08 7.59408 11.0053 7.56163 10.9499 7.50583C10.8945 7.45002 10.8626 7.3751 10.8607 7.29649C10.8242 5.64283 10.3339 4.83796 9.35928 4.83796C7.63977 4.83796 6.62562 7.1721 6.08782 8.46576C5.33635 10.2731 4.95367 12.2363 5.02904 14.1914C5.06489 15.1016 5.21123 16.3814 6.07538 16.9119C6.84148 17.3816 7.93465 17.0699 8.59684 16.5497C9.2583 16.0287 9.79099 15.128 10.0149 14.3063C10.0464 14.1921 10.0485 14.1036 10.0185 14.0641C9.98708 14.0231 9.90001 14.0136 9.83343 14.0136H8.68172C8.62076 14.0138 8.56049 14.0006 8.50513 13.9751C8.44978 13.9496 8.40066 13.9123 8.36123 13.8658C8.33097 13.8295 8.30949 13.7867 8.29845 13.7408C8.28741 13.6948 8.28711 13.647 8.29757 13.6009L9.08489 10.1809C9.12367 10.006 9.28245 9.87357 9.47782 9.85015V9.84137H17.0364C17.0539 9.84137 17.0722 9.84137 17.089 9.84503C17.2851 9.87064 17.4234 10.0528 17.4198 10.2519H17.422Z" fill="black"/>
</g>
<defs>
<clipPath id="clip0_397_22039">
<rect width="60" height="21.9512" fill="white"/>
</clipPath>
</defs>
</svg>
