<svg width="32" height="32" viewBox="0 0 32 32" fill="none" xmlns="http://www.w3.org/2000/svg">
<rect x="2" y="2" width="28" height="28" fill="#FFCA28"/>
<path d="M19 25.2869L21.0615 23.9228C21.2231 24.4303 22.2462 25.6358 23.5385 25.6358C24.8308 25.6358 25.4308 24.93 25.4308 24.4621C25.4308 23.1869 24.1112 22.7373 23.4774 22.5213C23.374 22.4861 23.289 22.4571 23.2308 22.4318C23.2009 22.4188 23.1558 22.4015 23.0979 22.3794C22.393 22.1101 19.7923 21.1165 19.7923 18.2364C19.7923 15.064 22.8538 14.6992 23.5462 14.6992C23.9991 14.6992 26.1769 14.7547 27.2615 16.793L25.2615 18.1888C24.8231 17.3005 24.0946 17.0071 23.6462 17.0071C22.5385 17.0071 22.3077 17.8192 22.3077 18.1888C22.3077 19.226 23.5112 19.6909 24.5273 20.0834C24.7932 20.1861 25.0462 20.2839 25.2615 20.3856C26.3692 20.9091 28 21.7656 28 24.4621C28 25.8127 26.8672 27.9992 24.0154 27.9992C20.1846 27.9992 19.1692 25.6993 19 25.2869Z" fill="#3E3E3E"/>
<path d="M9 25.5578L11.1487 24.1943C11.317 24.7017 11.9713 25.637 12.9205 25.637C13.8698 25.637 14.3557 24.662 14.3557 24.1943V14.9992H16.9982V24.1943C17.041 25.4626 16.3376 27.9992 13.2332 27.9992C10.379 27.9992 9.19242 26.3029 9 25.5578Z" fill="#3E3E3E"/>
</svg>
