<svg width="50" height="50" viewBox="0 0 50 50" fill="none" xmlns="http://www.w3.org/2000/svg">
<path fill-rule="evenodd" clip-rule="evenodd" d="M12.6521 0H37.3479C44.3355 0 50 5.66458 50 12.6521V37.3479C50 44.3355 44.3355 50.0001 37.3479 50.0001H12.6521C5.66454 50.0001 0 44.3355 0 37.3479V12.6521C0 5.66458 5.66454 0 12.6521 0ZM23.6557 22.2597C26.219 17.3255 29.4014 11.1997 38.007 11.1997C38.3317 11.1994 38.6533 11.2631 38.9533 11.3872C39.2533 11.5113 39.5258 11.6933 39.7555 11.9229C39.985 12.1525 40.1671 12.4251 40.2912 12.7251C40.4152 13.0251 40.479 13.3467 40.4786 13.6713C40.479 13.996 40.4152 14.3175 40.2912 14.6176C40.1671 14.9176 39.985 15.1902 39.7555 15.4198C39.5258 15.6493 39.2533 15.8314 38.9533 15.9555C38.6533 16.0796 38.3317 16.1433 38.007 16.1429C32.7799 16.1429 30.7518 19.3243 28.0343 24.5616L26.3588 27.7177L26.3519 27.7309C23.7902 32.6668 20.6067 38.8006 11.9956 38.8006C11.34 38.8006 10.7113 38.5402 10.2478 38.0767C9.78431 37.6132 9.52392 36.9845 9.52392 36.329C9.52392 35.6735 9.78431 35.0448 10.2478 34.5813C10.7113 34.1178 11.34 33.8574 11.9956 33.8574C17.2227 33.8574 19.2507 30.676 21.9707 25.4387L23.6438 22.2827L23.6557 22.2597Z" fill="black"/>
</svg>
