<svg width="50" height="50" viewBox="0 0 50 50" fill="none" xmlns="http://www.w3.org/2000/svg">
<path d="M0 12.5C0 5.59644 5.59644 0 12.5 0H37.5C44.4036 0 50 5.59644 50 12.5V37.5C50 44.4036 44.4036 50 37.5 50H12.5C5.59644 50 0 44.4036 0 37.5V12.5Z" fill="#FFCA28"/>
<path fill-rule="evenodd" clip-rule="evenodd" d="M33.2413 9.53125H28.7023L32.4847 16.1769L24.1634 9.53125H19.6247L23.7853 17.6539L15.0857 9.53125H10.5469L15.0857 19.8705L10.5469 40.5469H15.0857L23.7853 18.3934L19.6247 40.5469H24.1634L32.4847 16.9164L28.7023 40.5469H33.2413L41.5625 14.6999L33.2413 9.53125Z" fill="black"/>
</svg>
