<svg width="50" height="31" viewBox="0 0 50 31" fill="none" xmlns="http://www.w3.org/2000/svg">
<path d="M34.8213 0H15.1788C6.80866 0 0 6.79861 0 15.1564C0 23.5141 6.80866 30.3127 15.1788 30.3127H34.8213C43.1914 30.3127 50 23.513 50 15.1564C50 6.79973 43.1914 0 34.8213 0Z" fill="#FFD600"/>
<path d="M15.6448 21.1822C12.1062 21.1822 9.43799 18.6014 9.43799 15.1726C9.43799 11.7672 12.1797 9.09961 15.6794 9.09961C19.218 9.09961 21.8862 11.6804 21.8862 15.1036C21.8862 18.5146 19.1445 21.1822 15.6448 21.1822ZM15.6448 11.0204C13.3902 11.0204 11.6894 12.7777 11.6894 15.1092C11.6894 17.4407 13.4425 19.2669 15.6794 19.2669C17.934 19.2669 19.6349 17.5097 19.6349 15.1782C19.6349 12.8467 17.8817 11.0182 15.6448 11.0182V11.0204Z" fill="black"/>
<path d="M35.6571 21.0852C35.1466 21.0852 34.7532 20.7636 34.5503 20.1794L31.8755 12.4381L29.2095 20.1794C29.0045 20.7636 28.6088 21.0852 28.095 21.0852H27.8175C27.3092 21.0852 26.898 20.7514 26.6884 20.176L23.2858 10.6196C23.2371 10.4881 23.2074 10.3501 23.1978 10.2101C23.1978 9.63584 23.6781 9.18736 24.2911 9.18736C24.523 9.1843 24.7495 9.25671 24.9366 9.39371C25.1235 9.53064 25.2609 9.72465 25.3276 9.94632L28.0125 18.224L30.7208 10.0154C30.9047 9.45892 31.3015 9.14844 31.8097 9.14844H32.0204C32.5397 9.14844 32.9276 9.4567 33.1104 10.0154L35.8176 18.2206L38.5002 9.94854C38.5661 9.72909 38.7008 9.53654 38.8847 9.39946C39.0686 9.26238 39.2917 9.18805 39.5212 9.18736C39.6557 9.18353 39.7897 9.20652 39.9152 9.25502C40.0408 9.30352 40.1555 9.37655 40.2524 9.4698C40.3493 9.56305 40.4266 9.67469 40.4798 9.79821C40.533 9.92173 40.561 10.0545 40.5621 10.189C40.5528 10.3366 40.5232 10.4823 40.4741 10.6218L37.0636 20.1748C36.854 20.7524 36.444 21.0841 35.9357 21.0841L35.6571 21.0852Z" fill="black"/>
<path d="M34.8212 1.78125H15.1787C11.6266 1.78125 8.21991 3.19024 5.70821 5.69826C3.19648 8.20629 1.7854 11.6079 1.7854 15.1548C1.7854 18.7017 3.19648 22.1033 5.70821 24.6113C8.21991 27.1193 11.6266 28.5283 15.1787 28.5283H34.8212C38.3733 28.5283 41.7799 27.1193 44.2917 24.6113C46.8034 22.1033 48.2144 18.7017 48.2144 15.1548C48.2144 11.6079 46.8034 8.20629 44.2917 5.69826C41.7799 3.19024 38.3733 1.78125 34.8212 1.78125ZM34.8212 26.7444H15.1787C13.6448 26.7594 12.1232 26.4707 10.7018 25.8949C9.28031 25.3192 7.98728 24.4679 6.8973 23.3902C5.80734 22.3124 4.94212 21.0297 4.35164 19.616C3.76116 18.2024 3.45713 16.6859 3.45713 15.1542C3.45713 13.6225 3.76116 12.1061 4.35164 10.6924C4.94212 9.27879 5.80734 7.99603 6.8973 6.91831C7.98728 5.84058 9.28031 4.98925 10.7018 4.41352C12.1232 3.83779 13.6448 3.54909 15.1787 3.56409H34.8212C36.355 3.54909 37.8766 3.83779 39.2981 4.41352C40.7195 4.98925 42.0126 5.84058 43.1026 6.91831C44.1925 7.99603 45.0578 9.27879 45.6482 10.6924C46.2387 12.1061 46.5427 13.6225 46.5427 15.1542C46.5427 16.6859 46.2387 18.2024 45.6482 19.616C45.0578 21.0297 44.1925 22.3124 43.1026 23.3902C42.0126 24.4679 40.7195 25.3192 39.2981 25.8949C37.8766 26.4707 36.355 26.7594 34.8212 26.7444Z" fill="black"/>
</svg>
