<svg width="32" height="32" viewBox="0 0 32 32" fill="none" xmlns="http://www.w3.org/2000/svg">
<path fill-rule="evenodd" clip-rule="evenodd" d="M13.0164 2C10.8193 2 9.03825 3.72453 9.03825 5.85185V8.51852H15.9235V9.25926H5.97814C3.78107 9.25926 2 10.9838 2 13.1111L2 18.8889C2 21.0162 3.78107 22.7407 5.97814 22.7407H8.27322V19.4815C8.27322 17.3542 10.0543 15.6296 12.2514 15.6296H19.5956C21.4547 15.6296 22.9617 14.1704 22.9617 12.3704V5.85185C22.9617 3.72453 21.1807 2 18.9836 2H13.0164ZM12.0984 6.74074C12.8589 6.74074 13.4754 6.14378 13.4754 5.40741C13.4754 4.67103 12.8589 4.07407 12.0984 4.07407C11.3378 4.07407 10.7213 4.67103 10.7213 5.40741C10.7213 6.14378 11.3378 6.74074 12.0984 6.74074Z" fill="url(#paint0_linear_386_22022)"/>
<path fill-rule="evenodd" clip-rule="evenodd" d="M18.9837 30.0005C21.1807 30.0005 22.9618 28.276 22.9618 26.1486V23.482L16.0766 23.482L16.0766 22.7412L26.0219 22.7412C28.219 22.7412 30.0001 21.0167 30.0001 18.8894V13.1116C30.0001 10.9843 28.219 9.25977 26.0219 9.25977L23.7268 9.25977V12.519C23.7268 14.6463 21.9458 16.3709 19.7487 16.3709L12.4044 16.3709C10.5454 16.3709 9.03833 17.8301 9.03833 19.6301L9.03833 26.1486C9.03833 28.276 10.8194 30.0005 13.0165 30.0005H18.9837ZM19.9017 25.2598C19.1412 25.2598 18.5247 25.8567 18.5247 26.5931C18.5247 27.3295 19.1412 27.9264 19.9017 27.9264C20.6622 27.9264 21.2788 27.3295 21.2788 26.5931C21.2788 25.8567 20.6622 25.2598 19.9017 25.2598Z" fill="url(#paint1_linear_386_22022)"/>
<defs>
<linearGradient id="paint0_linear_386_22022" x1="12.4809" y1="2" x2="12.4809" y2="22.7407" gradientUnits="userSpaceOnUse">
<stop stop-color="#327EBD"/>
<stop offset="1" stop-color="#1565A7"/>
</linearGradient>
<linearGradient id="paint1_linear_386_22022" x1="19.5192" y1="9.25977" x2="19.5192" y2="30.0005" gradientUnits="userSpaceOnUse">
<stop stop-color="#FFDA4B"/>
<stop offset="1" stop-color="#F9C600"/>
</linearGradient>
</defs>
</svg>
