<svg width="47" height="48" viewBox="0 0 47 48" fill="none" xmlns="http://www.w3.org/2000/svg">
<path d="M13.6816 4.67466L23.5472 7.4676L15.895 14.755L13.6816 4.67466ZM16.1458 15.897L24.2335 8.19494L26.6694 18.9596L26.6491 18.9791L16.2211 16.2402L16.1458 15.897ZM18.9981 27.7198L26.9271 20.0989L29.2579 30.3991L18.9981 27.7198ZM18.9669 28.7452L28.9392 31.3494L21.1832 38.8393L18.9669 28.7452ZM17.941 28.7359L20.2234 39.1306L9.92433 36.4411L17.941 28.7359ZM17.0178 28.2362L9.2128 35.7379L6.7076 25.5438L17.0178 28.2362ZM17.64 27.3652L7.01657 24.5909L15.0286 16.9609L15.3755 17.0521L17.64 27.3652ZM15.0482 15.5613L14.743 15.852L4.18543 13.0791L12.7163 4.94114L15.0482 15.5613ZM35.1952 10.7651L27.5115 18.1502L25.2001 7.93553L35.1952 10.7651ZM27.7824 19.2768L35.8631 11.5102L38.0133 21.964L27.7824 19.2768ZM38.9719 21.661L36.8257 11.2267L46.0043 13.8252C46.3754 13.9302 46.4929 14.398 46.2155 14.6659L38.9719 21.661ZM37.6785 22.91L30.2186 30.1139L28.0141 20.3716L37.6785 22.91ZM19.899 40.0794L12.7501 46.9831C12.4727 47.251 12.0092 47.1172 11.9172 46.7427L9.62005 37.3951L19.899 40.0794ZM13.892 16.6624L6.30145 23.891L3.87872 14.0324L13.892 16.6624ZM12.0354 4.20863L3.47204 12.3776L0.879195 1.82675C0.787697 1.45443 1.13204 1.1219 1.50095 1.22633L12.0354 4.20863ZM18.5349 26.778L16.462 17.3374L25.8042 19.7912L18.5349 26.778Z" stroke="black"/>
</svg>
