<svg width="50" height="34" viewBox="0 0 50 34" fill="none" xmlns="http://www.w3.org/2000/svg">
<path fill-rule="evenodd" clip-rule="evenodd" d="M0 8.09091C0 2.75758 2.10606 0 5.63636 0C9.18182 0 11.2879 2.75758 11.2879 8.09091V24.2424C11.2879 29.5758 9.16667 32.3333 5.63636 32.3333C2.10606 32.3333 0 29.5758 0 24.2424V8.09091ZM38 0H26.3333C15.8788 0 15.0606 4.51515 15.0606 10.5455L15.0455 21.7879C15.0455 28.0606 15.8333 32.3333 26.3788 32.3333H38C48.4849 32.3333 49.2576 27.8333 49.2576 21.8182V10.5606C49.2576 4.51515 48.4545 0 38 0Z" fill="black"/>
</svg>
