<svg width="50" height="50" viewBox="0 0 50 50" fill="none" xmlns="http://www.w3.org/2000/svg">
<g style="mix-blend-mode:luminosity">
<path fill-rule="evenodd" clip-rule="evenodd" d="M9.86839 31.5137L7.57967 32.3355L7.45679 39.0282L15.3796 36.1832C12.6621 35.286 10.6777 33.7074 9.86839 31.5137Z" fill="#FDBD39"/>
<path fill-rule="evenodd" clip-rule="evenodd" d="M11.0661 24.4355L3.125 27.2871L7.57963 32.336L9.86834 31.5142C9.06139 29.3269 9.55903 26.8543 11.0661 24.4355Z" fill="#F69833"/>
<path fill-rule="evenodd" clip-rule="evenodd" d="M24.4295 14.7771C14.3173 18.4082 7.79803 25.901 9.86836 31.5128L46.488 18.3633C44.4177 12.7515 34.5418 11.1459 24.4295 14.7771Z" fill="#FECF33"/>
<path fill-rule="evenodd" clip-rule="evenodd" d="M31.9268 35.099C42.0391 31.4679 48.5706 24.0083 46.4881 18.3633L9.86841 31.5128C11.951 37.1578 21.8146 38.7302 31.9268 35.099Z" fill="#EE6723"/>
<path fill-rule="evenodd" clip-rule="evenodd" d="M46.4881 18.3633L9.86841 31.5128C10.5855 33.4564 13.3199 34.414 17.1567 34.414C20.8972 34.414 25.6854 33.5046 30.6773 31.712C40.7896 28.0809 47.9042 22.2019 46.4881 18.3633Z" fill="#F69833"/>
<path fill-rule="evenodd" clip-rule="evenodd" d="M39.1997 15.4629C35.4592 15.4629 30.671 16.3724 25.6791 18.1649C15.5668 21.796 8.45218 27.675 9.86834 31.5137L46.488 18.3642C45.7709 16.4205 43.0365 15.4629 39.1997 15.4629Z" fill="#FDBD39"/>
<path fill-rule="evenodd" clip-rule="evenodd" d="M37.1775 39.3817H37.1772C36.0998 39.3817 34.5103 38.4251 32.4528 36.5385C30.0186 34.3064 27.2303 31.0372 24.6013 27.3331C21.9725 23.6291 19.8123 19.926 18.5188 16.9059C17.1094 13.6147 16.9085 11.591 17.9215 10.8911C18.1436 10.7378 18.4114 10.6602 18.7173 10.6602C19.5413 10.6602 21.1469 11.2632 24.1158 14.1362L24.1808 14.199L24.172 14.2883C24.1517 14.4947 24.133 14.7029 24.1163 14.9073L24.0832 15.3132L23.7919 15.0247C20.593 11.8569 19.1848 11.5149 18.7278 11.5149C18.5975 11.5149 18.4937 11.5409 18.4193 11.5923C17.9799 11.8958 17.9516 13.3822 19.3179 16.5727C20.5884 19.539 22.7171 23.1861 25.3121 26.8421C27.9071 30.4984 30.6527 33.7193 33.0433 35.9115C35.6213 38.2753 36.783 38.5305 37.1628 38.5305C37.2939 38.5305 37.4005 38.5028 37.4795 38.4482C37.9431 38.128 37.9436 36.5357 36.4199 33.1017L36.3499 32.944L36.5031 32.8616C36.6562 32.7792 36.8043 32.6981 36.9432 32.6205L37.1267 32.518L37.2112 32.7084C38.2916 35.1417 39.3016 38.2343 37.9773 39.1494C37.754 39.3035 37.4849 39.3817 37.1775 39.3817ZM37.1772 39.0064H37.1775L37.1773 39.194L37.1772 39.0064Z" fill="#EE6723"/>
<path fill-rule="evenodd" clip-rule="evenodd" d="M32.1723 34.9968L32.1569 35.1839C31.9012 38.2933 31.2281 42.0315 29.473 42.1828C29.4377 42.1859 29.401 42.1875 29.3644 42.1875C28.1721 42.1875 27.0441 40.5083 26.0118 37.1966C25.0351 34.0635 24.2771 29.8568 23.8776 25.3515C23.4781 20.8471 23.4841 16.5745 23.8945 13.3209C24.3418 9.77536 25.1935 7.92378 26.4256 7.8175C26.462 7.8142 26.4998 7.8125 26.537 7.8125C27.402 7.8125 28.7055 8.77518 30.04 13.2592L29.1687 13.4245C28.7231 11.9261 28.2375 10.7073 27.7555 9.86991C27.3096 9.09532 26.876 8.66875 26.5346 8.66875C26.5234 8.66875 26.5121 8.6692 26.5009 8.67014C25.9669 8.71625 25.1891 9.98962 24.7555 13.4266C24.3524 16.6219 24.3475 20.8305 24.7418 25.277C25.1363 29.7242 25.8818 33.8681 26.841 36.945C27.2706 38.3231 27.7418 39.4588 28.2036 40.2295C28.6295 40.9402 29.0417 41.3316 29.3642 41.3316C29.3753 41.3316 29.3863 41.3311 29.3973 41.3302C29.9083 41.2862 30.8713 39.9611 31.2766 35.2989L32.1723 34.9968Z" fill="#EE6723"/>
</g>
</svg>
