<svg width="30" height="31" viewBox="0 0 30 31" fill="none" xmlns="http://www.w3.org/2000/svg">
<path d="M1.875 11.875C1.875 8.54969 1.875 6.88703 2.52215 5.61693C3.0914 4.49972 3.99972 3.5914 5.11693 3.02215C6.38703 2.375 8.04969 2.375 11.375 2.375H18.625C21.9503 2.375 23.613 2.375 24.8831 3.02215C26.0003 3.5914 26.9086 4.49972 27.4779 5.61693C28.125 6.88703 28.125 8.54969 28.125 11.875V19.125C28.125 22.4503 28.125 24.113 27.4779 25.3831C26.9086 26.5003 26.0003 27.4086 24.8831 27.9779C23.613 28.625 21.9503 28.625 18.625 28.625H11.375C8.04969 28.625 6.38703 28.625 5.11693 27.9779C3.99972 27.4086 3.0914 26.5003 2.52215 25.3831C1.875 24.113 1.875 22.4503 1.875 19.125V11.875Z" fill="#330000"/>
<path d="M14.5954 18.8715H10.5276L9.69997 21.5084C9.67699 21.6064 9.58678 21.6758 9.48864 21.6709H7.42836C7.31086 21.6709 7.26977 21.6047 7.30509 21.4723L10.8269 11.0692C10.8622 10.9608 10.8974 10.8374 10.9326 10.6989C10.9787 10.458 11.0023 10.2131 11.0031 9.9675C10.993 9.89495 11.0567 9.83088 11.1263 9.84105H13.9262C14.0082 9.84105 14.0552 9.87116 14.0671 9.93137L18.0644 21.4903C18.0996 21.6108 18.0644 21.671 17.9587 21.6709H15.6695C15.5892 21.6801 15.5126 21.625 15.4934 21.5445L14.5954 18.8715ZM11.1615 16.5958H13.9438C13.4867 15.0338 12.9708 13.4923 12.5527 11.9181C12.1016 13.4949 11.6094 15.0654 11.1615 16.5958Z" fill="#FF9A00"/>
<path d="M20.4415 11.7555C20.2619 11.7629 20.0828 11.7313 19.9159 11.6628C19.749 11.5943 19.598 11.4905 19.473 11.3581C19.3482 11.22 19.2513 11.0579 19.1879 10.8812C19.1244 10.7046 19.0956 10.5168 19.1031 10.3286C19.0967 10.1424 19.1287 9.95683 19.197 9.78411C19.2652 9.61138 19.3683 9.45537 19.4993 9.32626C19.6291 9.19849 19.7823 9.09839 19.9501 9.03173C20.1178 8.96508 20.2968 8.93321 20.4767 8.93796C20.8993 8.93796 21.231 9.0674 21.4716 9.32626C21.5931 9.46079 21.6875 9.61858 21.7494 9.79058C21.8114 9.96259 21.8396 10.1454 21.8326 10.3286C21.8399 10.5175 21.8102 10.706 21.7452 10.8828C21.6802 11.0597 21.5811 11.2213 21.454 11.3581C21.3211 11.4925 21.1625 11.5971 20.9883 11.6655C20.814 11.7339 20.6278 11.7645 20.4415 11.7555ZM19.2264 21.4903V12.8572C19.2264 12.7488 19.2732 12.6946 19.3673 12.6946H21.5332C21.6271 12.6946 21.674 12.7488 21.6741 12.8572V21.4903C21.6741 21.6108 21.6272 21.671 21.5332 21.6709H19.3849C19.2793 21.6709 19.2264 21.6107 19.2264 21.4903Z" fill="#FF9A00"/>
</svg>
