<svg width="30" height="31" viewBox="0 0 30 31" fill="none" xmlns="http://www.w3.org/2000/svg">
<path d="M1.875 11.875C1.875 8.54969 1.875 6.88703 2.52215 5.61693C3.0914 4.49972 3.99972 3.5914 5.11693 3.02215C6.38703 2.375 8.04969 2.375 11.375 2.375H18.625C21.9503 2.375 23.613 2.375 24.8831 3.02215C26.0003 3.5914 26.9086 4.49972 27.4779 5.61693C28.125 6.88703 28.125 8.54969 28.125 11.875V19.125C28.125 22.4503 28.125 24.113 27.4779 25.3831C26.9086 26.5003 26.0003 27.4086 24.8831 27.9779C23.613 28.625 21.9503 28.625 18.625 28.625H11.375C8.04969 28.625 6.38703 28.625 5.11693 27.9779C3.99972 27.4086 3.0914 26.5003 2.52215 25.3831C1.875 24.113 1.875 22.4503 1.875 19.125V11.875Z" fill="#001E36"/>
<path d="M7.5 21.609V10.0657C7.5 9.98718 7.53281 9.94231 7.60938 9.94231C8.73965 9.94231 9.86941 9.875 11 9.875C12.8345 9.875 14.8209 10.5023 15.5172 12.4215C15.6813 12.8926 15.7688 13.375 15.7688 13.8798C15.7688 14.8446 15.55 15.641 15.1125 16.2692C13.8904 18.0241 11.7722 17.9968 9.87344 17.9968V21.5978C9.88829 21.7044 9.79744 21.7548 9.70937 21.7548H7.63125C7.54375 21.7548 7.5 21.7099 7.5 21.609ZM9.88438 12.1074V15.8766C10.6372 15.9318 11.4251 15.9377 12.1484 15.6971C12.947 15.4668 13.3844 14.7755 13.3844 13.9471C13.4066 13.2413 13.022 12.564 12.3672 12.3093C11.6525 12.0121 10.6558 11.9943 9.88438 12.1074Z" fill="#31A8FF"/>
<path d="M22.5906 15.1319C22.2597 14.9575 21.9072 14.8299 21.5428 14.7526C21.0746 14.6424 19.2279 14.2566 19.2272 15.2222C19.2436 15.7613 20.0993 16.0254 20.4775 16.1794C21.8048 16.6351 23.3069 17.4497 23.2774 19.0873C23.318 21.1258 21.3429 21.9407 19.6498 21.9409C18.7684 21.95 17.8503 21.8135 17.0436 21.4352C16.9666 21.3944 16.9171 21.3072 16.9204 21.2184V19.2678C16.9117 19.1896 16.9956 19.1213 17.0613 19.1775C17.8516 19.6555 18.7884 19.8876 19.7027 19.9C20.1063 19.9 20.9062 19.8608 20.9001 19.2678C20.9001 18.6988 19.9432 18.4371 19.5618 18.2925C19.0088 18.0952 18.4846 17.8218 18.0033 17.4798C17.3308 17.0001 16.9089 16.2309 16.9204 15.3848C16.9164 13.4653 18.7345 12.6038 20.3718 12.6034C21.1373 12.5971 21.9592 12.6538 22.6717 12.9646C22.7742 12.9948 22.7954 13.1027 22.795 13.1994V15.0235C22.8015 15.1368 22.6757 15.1753 22.5906 15.1319Z" fill="#31A8FF"/>
</svg>
