<svg width="34" height="30" viewBox="0 0 34 30" fill="none" xmlns="http://www.w3.org/2000/svg">
<path d="M21.5809 13.2676C20.2102 13.2676 19.7183 14.8636 19.7183 16.7254C19.7183 18.6838 20.2544 20.5588 21.4537 20.5588C21.9677 20.5588 22.6323 20.3188 22.9964 18.9754C23.0606 18.8026 23.08 18.4504 23.08 18.4504V15.7126C23.08 15.5212 23.1014 15.286 23.08 15.0754C22.9944 14.1154 22.3733 13.2676 21.5809 13.2676ZM29.4474 2.40039H4.01529C3.27709 2.40039 2.67676 2.93859 2.67676 3.60039V26.4004C2.67676 27.0622 3.27709 27.6004 4.01529 27.6004H29.4474C30.1856 27.6004 30.786 27.0622 30.786 26.4004V3.60039C30.786 2.93859 30.1856 2.40039 29.4474 2.40039ZM17.7353 21.6004H16.0621L13.2224 16.7242L10.3733 21.6004H8.72425L12.3932 15.3004L8.72425 9.00039H10.3733L13.2224 13.8766L16.0621 9.00039H17.7353L14.0543 15.3004L17.7353 21.6004ZM24.7626 19.5754C24.7626 20.209 24.7412 21.0628 24.7626 21.6004H23.0894V20.6254C22.7682 21.2782 22.1605 21.7876 21.0689 21.7876C19.3127 21.7876 18.0699 19.798 18.0699 16.7254C18.0699 13.4236 19.6112 12.0004 21.2175 12.0004C21.967 12.0004 22.6832 12.3388 23.0894 13.1254V13.1212V8.40039H24.7626V19.5754Z" fill="black"/>
</svg>
