<svg width="30" height="31" viewBox="0 0 30 31" fill="none" xmlns="http://www.w3.org/2000/svg">
<path d="M1.875 11.875C1.875 8.54969 1.875 6.88703 2.52215 5.61693C3.0914 4.49972 3.99972 3.5914 5.11693 3.02215C6.38703 2.375 8.04969 2.375 11.375 2.375H18.625C21.9503 2.375 23.613 2.375 24.8831 3.02215C26.0003 3.5914 26.9086 4.49972 27.4779 5.61693C28.125 6.88703 28.125 8.54969 28.125 11.875V19.125C28.125 22.4503 28.125 24.113 27.4779 25.3831C26.9086 26.5003 26.0003 27.4086 24.8831 27.9779C23.613 28.625 21.9503 28.625 18.625 28.625H11.375C8.04969 28.625 6.38703 28.625 5.11693 27.9779C3.99972 27.4086 3.0914 26.5003 2.52215 25.3831C1.875 24.113 1.875 22.4503 1.875 19.125V11.875Z" fill="#470137"/>
<path d="M15.6061 10.0942L12.3307 15.6389L15.835 21.5268C15.9078 21.6603 15.835 21.6897 15.7293 21.6897H13.2288C13.0527 21.6897 12.9294 21.6834 12.859 21.5629C12.624 21.0933 12.3892 20.6267 12.1546 20.1632C11.9196 19.6998 11.6702 19.2272 11.4063 18.7454C11.1421 18.2639 10.8809 17.7763 10.6226 17.2824C10.3876 17.7641 10.1264 18.2458 9.8742 18.7273C9.62164 19.209 9.37219 19.6877 9.12582 20.1632C8.8793 20.6389 8.62691 21.1115 8.36864 21.5809C8.32159 21.6893 8.23929 21.7005 8.12206 21.7005H5.70962C5.61483 21.7005 5.60339 21.6292 5.6568 21.5448L9.05538 15.8195L5.74481 10.0761C5.68468 9.99418 5.73643 9.90684 5.83288 9.91357H8.31577C8.42328 9.90749 8.51829 9.94807 8.57991 10.04C8.79124 10.5217 9.02603 11.0033 9.28428 11.4849C9.54239 11.9666 9.8036 12.4422 10.0679 12.9117C10.332 13.3813 10.5933 13.8569 10.8163 14.3385C11.051 13.8449 11.2887 13.3633 11.5295 12.8936C11.77 12.4241 12.0165 11.9515 12.2691 11.4758C12.5214 11.0003 12.765 10.5278 12.9999 10.0581C13.0311 9.95505 13.1057 9.90284 13.2112 9.91357H15.518C15.6061 9.91357 15.6425 10.0338 15.6061 10.0942Z" fill="#FF61F6"/>
<path d="M20.6598 21.9242C19.1068 21.9485 17.4802 21.3091 16.6625 19.8924C16.2632 19.2123 16.0637 18.3604 16.0638 17.3368C16.0571 16.5078 16.2637 15.6918 16.6625 14.9708C17.6916 13.1312 19.7647 12.442 21.734 12.6229V9.06487C21.734 8.98077 21.7692 8.93845 21.8397 8.93845H24.0584C24.119 8.92956 24.1727 8.98459 24.1641 9.04679V19.7208C24.1641 20.1612 24.2077 20.6 24.2345 21.0392C24.2389 21.1143 24.1954 21.1885 24.1288 21.2198C23.0326 21.6888 21.8464 21.9188 20.6598 21.9242ZM21.734 19.6847V14.7541C20.1256 14.3072 18.5641 15.5323 18.5643 17.2284C18.5261 18.982 20.0377 20.1935 21.734 19.6847Z" fill="#FF61F6"/>
</svg>
