<svg width="34" height="30" viewBox="0 0 34 30" fill="none" xmlns="http://www.w3.org/2000/svg">
<path d="M21.0314 12.6441C19.3908 12.827 19.3908 14.5129 19.3908 14.5129H22.6502C22.6721 14.5129 22.8252 12.6441 21.0314 12.6441ZM10.3564 14.8176H13.1564L11.7564 9.86133L10.3564 14.8176Z" fill="black"/>
<path d="M2 2V28H30V2H2ZM14.5781 19.9969L13.5938 16.7266H9.91875L8.95625 19.9969H6.9L10.4 8.84531V8.07344H13.0687L16.8531 19.9969H14.5781ZM24.6406 16.0156H19.3906C19.8062 19.9156 24.0281 18.0469 24.0281 18.0469V19.6719C24.0281 19.6719 23.7438 20.2 20.7906 20.2C17.8375 20.2 17.225 16.4828 17.225 16.4828V15.5281C17.225 15.5281 17.5094 11.0594 21.0094 11.0594C24.5094 11.0594 24.6188 14.025 24.6188 14.025V16.0156H24.6406Z" fill="black"/>
</svg>
