<svg width="89" height="17" viewBox="0 0 89 17" fill="none" xmlns="http://www.w3.org/2000/svg">
<path d="M7.68126 2.46174C7.80659 1.95519 8.52666 1.95519 8.65199 2.46174L9.54201 6.05899C9.60045 6.29519 9.82045 6.45503 10.0632 6.43762L13.7594 6.17246C14.2799 6.13513 14.5024 6.81996 14.0593 7.09568L10.9132 9.05375C10.7066 9.18232 10.6226 9.44095 10.7141 9.66639L12.1085 13.0998C12.3048 13.5832 11.7223 14.0065 11.3232 13.6703L8.48871 11.2832C8.30259 11.1265 8.03066 11.1265 7.84454 11.2832L5.01009 13.6703C4.61096 14.0065 4.02841 13.5832 4.22476 13.0998L5.61913 9.66639C5.71068 9.44095 5.62665 9.18232 5.42007 9.05375L2.27391 7.09568C1.83088 6.81996 2.05339 6.13513 2.57388 6.17246L6.2701 6.43762C6.5128 6.45503 6.7328 6.29519 6.79124 6.05899L7.68126 2.46174Z" fill="black"/>
<path d="M25.6813 2.46174C25.8066 1.95519 26.5267 1.95519 26.652 2.46174L27.542 6.05899C27.6004 6.29519 27.8204 6.45503 28.0632 6.43762L31.7594 6.17246C32.2799 6.13513 32.5024 6.81996 32.0593 7.09568L28.9132 9.05375C28.7066 9.18232 28.6226 9.44095 28.7141 9.66639L30.1085 13.0998C30.3048 13.5832 29.7223 14.0065 29.3232 13.6703L26.4887 11.2832C26.3026 11.1265 26.0307 11.1265 25.8445 11.2832L23.0101 13.6703C22.611 14.0065 22.0284 13.5832 22.2248 13.0998L23.6191 9.66639C23.7107 9.44095 23.6267 9.18232 23.4201 9.05375L20.2739 7.09568C19.8309 6.81996 20.0534 6.13513 20.5739 6.17246L24.2701 6.43762C24.5128 6.45503 24.7328 6.29519 24.7912 6.05899L25.6813 2.46174Z" fill="black"/>
<path d="M43.6813 2.46174C43.8066 1.95519 44.5267 1.95519 44.652 2.46174L45.542 6.05899C45.6004 6.29519 45.8204 6.45503 46.0632 6.43762L49.7594 6.17246C50.2799 6.13513 50.5024 6.81996 50.0593 7.09568L46.9132 9.05375C46.7066 9.18232 46.6226 9.44095 46.7141 9.66639L48.1085 13.0998C48.3048 13.5832 47.7223 14.0065 47.3232 13.6703L44.4887 11.2832C44.3026 11.1265 44.0307 11.1265 43.8445 11.2832L41.0101 13.6703C40.611 14.0065 40.0284 13.5832 40.2248 13.0998L41.6191 9.66639C41.7107 9.44095 41.6267 9.18232 41.4201 9.05375L38.2739 7.09568C37.8309 6.81996 38.0534 6.13513 38.5739 6.17246L42.2701 6.43762C42.5128 6.45503 42.7328 6.29519 42.7912 6.05899L43.6813 2.46174Z" fill="black"/>
<path d="M61.6813 2.46174C61.8066 1.95519 62.5267 1.95519 62.652 2.46174L63.542 6.05899C63.6004 6.29519 63.8204 6.45503 64.0632 6.43762L67.7594 6.17246C68.2799 6.13513 68.5024 6.81996 68.0593 7.09568L64.9132 9.05375C64.7066 9.18232 64.6226 9.44095 64.7141 9.66639L66.1085 13.0998C66.3048 13.5832 65.7223 14.0065 65.3232 13.6703L62.4887 11.2832C62.3026 11.1265 62.0307 11.1265 61.8445 11.2832L59.0101 13.6703C58.611 14.0065 58.0284 13.5832 58.2248 13.0998L59.6191 9.66639C59.7107 9.44095 59.6267 9.18232 59.4201 9.05375L56.2739 7.09568C55.8309 6.81996 56.0534 6.13513 56.5739 6.17246L60.2701 6.43762C60.5128 6.45503 60.7328 6.29519 60.7912 6.05899L61.6813 2.46174Z" fill="black"/>
<path d="M79.6813 2.46174C79.8066 1.95519 80.5267 1.95519 80.652 2.46174L81.542 6.05899C81.6004 6.29519 81.8204 6.45503 82.0632 6.43762L85.7594 6.17246C86.2799 6.13513 86.5024 6.81996 86.0593 7.09568L82.9132 9.05375C82.7066 9.18232 82.6226 9.44095 82.7141 9.66639L84.1085 13.0998C84.3048 13.5832 83.7223 14.0065 83.3232 13.6703L80.4887 11.2832C80.3026 11.1265 80.0307 11.1265 79.8445 11.2832L77.0101 13.6703C76.611 14.0065 76.0284 13.5832 76.2248 13.0998L77.6191 9.66639C77.7107 9.44095 77.6267 9.18232 77.4201 9.05375L74.2739 7.09568C73.8309 6.81996 74.0534 6.13513 74.5739 6.17246L78.2701 6.43762C78.5128 6.45503 78.7328 6.29519 78.7912 6.05899L79.6813 2.46174Z" fill="#E3E3E3"/>
</svg>
