<svg width="31" height="29" viewBox="0 0 31 29" fill="none" xmlns="http://www.w3.org/2000/svg">
<path d="M18.3351 7.27692C17.585 7.33644 16.7185 7.39596 15.852 7.51237C14.5251 7.68304 13.1982 7.91586 12.1024 8.43402C9.96765 9.30403 8.52434 11.1517 8.52434 13.8685C8.52434 17.2803 10.7177 19.0107 13.4862 19.0107C14.4113 19.0107 15.1606 18.8978 15.852 18.7236C16.9505 18.377 17.8739 17.7407 18.9697 16.5871C19.606 17.4536 19.7776 17.8588 20.8751 18.7831C21.1631 18.8995 21.4511 18.8995 21.6821 18.7253C22.3745 18.1485 23.585 17.1079 24.2213 16.5302C24.5084 16.2965 24.4515 15.9525 24.279 15.6619C23.6427 14.8532 23.0099 14.1582 23.0099 12.6003V7.39858C23.0099 5.19905 23.1806 3.17807 21.5684 1.677C20.2397 0.459512 18.1627 0 16.5487 0C16.3177 0 16.0875 0 15.8555 0C12.9129 0.172426 9.79784 1.44156 9.10376 5.08614C8.98998 5.54565 9.33746 5.72158 9.56765 5.78022L12.7982 6.18635C13.1448 6.12508 13.3173 5.83799 13.3742 5.54741C13.6656 4.27915 14.7028 3.64284 15.8564 3.52643C15.915 3.52643 15.9728 3.52643 16.0883 3.52643C16.7798 3.52643 17.529 3.81701 17.9343 4.39031C18.392 5.08614 18.3378 6.01217 18.3378 6.81916L18.3351 7.27692ZM17.7006 14.1547C17.2971 14.9643 16.6039 15.4842 15.8538 15.6584C15.7391 15.6584 15.5676 15.7179 15.3934 15.7179C14.1243 15.7179 13.3715 14.735 13.3715 13.2891C13.3715 11.4423 14.4691 10.5723 15.8538 10.1688C16.6039 9.99636 17.4704 9.93684 18.336 9.93684V10.6309C18.3351 11.9613 18.3894 13.0003 17.7006 14.1547ZM31.0002 22.18V22.3682C30.9695 23.4981 30.3735 25.6662 28.9626 26.8591C28.6807 27.078 28.398 26.9528 28.5223 26.6368C28.9328 25.6346 29.8711 23.3082 29.4326 22.7752C29.1219 22.3682 27.8344 22.3988 26.7376 22.4933C26.237 22.5564 25.7967 22.5852 25.4519 22.6535C25.1394 22.6824 25.0747 22.4023 25.3897 22.1835C25.7976 21.9008 26.2379 21.682 26.7385 21.5218C28.5232 20.9896 30.5949 21.303 30.8776 21.6496C30.9389 21.7389 31.0002 21.927 31.0002 22.18ZM28.0225 24.3769C27.6147 24.6894 27.1779 24.9738 26.7376 25.2285C23.4458 27.2075 19.1833 28.2403 15.4853 28.2403C9.52739 28.2403 4.1988 26.0416 0.155967 22.3682C-0.190636 22.0846 0.0920732 21.6776 0.499945 21.8964C4.857 24.4399 10.2486 25.9804 15.8284 25.9804C19.3408 25.9804 23.1298 25.3204 26.7368 23.9051C26.9862 23.8141 27.2689 23.6846 27.5201 23.5935C28.0847 23.3388 28.5871 23.9717 28.0225 24.3769Z" fill="black"/>
</svg>
