<svg width="68" height="68" viewBox="0 0 68 68" fill="none" xmlns="http://www.w3.org/2000/svg">
<path d="M30.221 64.3402C30.4235 64.3588 30.62 64.4185 30.7986 64.5156C30.9772 64.6128 31.1342 64.7453 31.2598 64.9052C31.3854 65.065 31.4771 65.2488 31.5293 65.4453C31.5815 65.6418 31.593 65.8469 31.5632 66.0481C31.5413 66.2499 31.4785 66.4452 31.3787 66.622C31.2789 66.7988 31.1441 66.9534 30.9826 67.0764C30.821 67.1994 30.6361 67.2882 30.4392 67.3374C30.2422 67.3865 30.0372 67.3951 29.8368 67.3625C29.5802 67.3324 29.3361 67.2353 29.1289 67.0809C28.9218 66.9265 28.7589 66.7204 28.6566 66.4831L28.9343 66.3674C29.0084 66.5525 29.1241 66.7145 29.2907 66.8441C29.4573 66.9737 29.6517 67.0524 29.8692 67.0755C30.0316 67.103 30.1979 67.0968 30.3579 67.0574C30.5178 67.018 30.6679 66.9461 30.7989 66.8463C30.9299 66.7466 31.0391 66.6209 31.1196 66.4772C31.2001 66.3336 31.2503 66.1749 31.267 66.011C31.2916 65.8481 31.2828 65.6818 31.2411 65.5224C31.1993 65.363 31.1255 65.2137 31.0242 65.0838C30.9228 64.9539 30.796 64.8459 30.6516 64.7666C30.5071 64.6873 30.348 64.6383 30.184 64.6225C29.9664 64.5948 29.7582 64.6225 29.5638 64.7058C29.3694 64.7892 29.2167 64.9095 29.1009 65.0761L28.8603 64.9002C29.017 64.6957 29.2249 64.5362 29.463 64.4379C29.7011 64.3395 29.961 64.3058 30.2164 64.3402H30.221ZM24.4588 63.4886C24.8244 63.2896 25.2132 63.2526 25.6205 63.3729C26.0324 63.4979 26.3332 63.7432 26.5323 64.1088C26.7313 64.4791 26.7637 64.8632 26.648 65.2705C26.5945 65.4636 26.502 65.6438 26.3762 65.7998C26.2505 65.9558 26.0941 66.0844 25.9167 66.1776C25.5464 66.3813 25.1577 66.4183 24.7504 66.298C24.5556 66.244 24.374 66.1504 24.2171 66.0229C24.0602 65.8955 23.9314 65.737 23.8386 65.5575C23.7415 65.3827 23.6811 65.1898 23.6612 64.9909C23.6413 64.7919 23.6623 64.591 23.7229 64.4004C23.7771 64.2063 23.8703 64.0254 23.9968 63.8686C24.1234 63.7119 24.2806 63.5826 24.4588 63.4886ZM26.2777 64.243C26.2022 64.0977 26.0974 63.9697 25.97 63.8669C25.8425 63.7642 25.6952 63.6889 25.5372 63.646C25.3819 63.5972 25.2185 63.5802 25.0565 63.5959C24.8946 63.6117 24.7374 63.6598 24.5945 63.7376C24.4515 63.8153 24.3257 63.921 24.2245 64.0484C24.1232 64.1758 24.0487 64.3223 24.0052 64.4791C23.9559 64.6345 23.9386 64.7984 23.9545 64.9607C23.9704 65.123 24.0192 65.2803 24.0978 65.4232C24.2505 65.7241 24.4958 65.9231 24.8337 66.0249C25.1669 66.1175 25.4816 66.0897 25.7732 65.9277C25.9171 65.8511 26.0439 65.7459 26.1458 65.6185C26.2476 65.4912 26.3224 65.3444 26.3656 65.1872C26.4628 64.854 26.4351 64.5392 26.2731 64.243H26.2777ZM18.9419 63.9376L18.6781 63.808L19.974 61.1606L20.2054 61.2717L20.6219 64.1505L21.6772 61.9983L21.941 62.1279L20.6405 64.7753L20.4137 64.6642L19.9971 61.7808L18.9419 63.9376ZM14.3923 61.1513L14.5497 60.9199L15.2994 61.429L16.8036 59.226L17.0489 59.3926L15.5401 61.6003L16.2899 62.1094L16.1325 62.3408L14.3923 61.1513ZM13.1427 56.2546L12.8557 56.9766L13.8832 57.9254L14.5774 57.5783L14.8042 57.7912L11.9717 59.1889L11.7495 58.9807L12.9159 56.0463L13.1473 56.2546H13.1427ZM13.6147 58.0596L12.7446 57.2497L12.1059 58.814L13.6147 58.0596ZM10.0695 52.7742C10.1997 52.9302 10.2968 53.1112 10.3547 53.306C10.4127 53.5009 10.4303 53.7055 10.4064 53.9073C10.3826 54.1092 10.3179 54.3041 10.2162 54.4801C10.1145 54.6561 9.97794 54.8095 9.81493 54.9309C9.65781 55.0599 9.47597 55.1553 9.2806 55.2113C9.08523 55.2674 8.88046 55.2829 8.67889 55.2569C8.47731 55.2309 8.28318 55.1639 8.10844 55.0601C7.9337 54.9563 7.78204 54.8178 7.66278 54.6532C7.50314 54.4508 7.39945 54.2101 7.36209 53.955C7.32473 53.7 7.355 53.4396 7.44988 53.2L7.72758 53.311C7.6489 53.4962 7.6165 53.6905 7.64427 53.8988C7.67667 54.1117 7.75535 54.3015 7.88957 54.4774C7.98603 54.6112 8.10896 54.7237 8.25074 54.808C8.39252 54.8923 8.55012 54.9466 8.71375 54.9674C8.87738 54.9882 9.04354 54.9752 9.20192 54.9291C9.3603 54.883 9.50752 54.8049 9.63443 54.6995C9.76679 54.6011 9.87769 54.4768 9.96036 54.3341C10.043 54.1914 10.0957 54.0334 10.1152 53.8696C10.1347 53.7059 10.1206 53.5398 10.0737 53.3817C10.0269 53.2236 9.94827 53.0767 9.8427 52.95C9.70385 52.7788 9.54186 52.6538 9.34748 52.5751C9.16046 52.4965 8.95464 52.474 8.75506 52.5103L8.70877 52.2141C8.96436 52.1793 9.2246 52.2123 9.46342 52.3098C9.70223 52.4073 9.91124 52.5658 10.0695 52.7695V52.7742ZM4.64978 49.9463L4.89045 49.8074L5.34402 50.5942L7.65353 49.252L7.80163 49.5112L5.4875 50.8488L5.94107 51.6356L5.70503 51.7744L4.64978 49.9509V49.9463ZM3.22427 41.0924L2.96046 41.1479L2.66888 39.6576L2.93269 39.6067L3.22427 41.0924ZM4.03885 29.318C4.01481 29.5196 3.94997 29.7142 3.84827 29.8899C3.74656 30.0657 3.61013 30.2188 3.4473 30.3401C3.28446 30.4613 3.09864 30.5482 2.90115 30.5952C2.70366 30.6423 2.49865 30.6487 2.29862 30.614C2.0972 30.5873 1.90334 30.5198 1.72887 30.4157C1.55439 30.3116 1.40298 30.173 1.28386 30.0084C1.16475 29.8438 1.08043 29.6567 1.03607 29.4584C0.991708 29.2601 0.988228 29.0549 1.02584 28.8552C1.06231 28.5991 1.16585 28.3572 1.32598 28.154C1.4861 27.9507 1.69711 27.7935 1.93761 27.6981L2.04869 27.9805C1.8543 28.0453 1.69231 28.1563 1.55809 28.323C1.4285 28.485 1.34519 28.6747 1.30817 28.8922C1.27571 29.0546 1.2771 29.2218 1.31224 29.3836C1.34738 29.5454 1.41551 29.6981 1.51239 29.8324C1.60926 29.9666 1.73278 30.0794 1.87523 30.1637C2.01768 30.248 2.17599 30.302 2.34027 30.3224C2.50248 30.3513 2.66888 30.3468 2.82931 30.3093C2.98973 30.2717 3.14083 30.2019 3.27336 30.104C3.4059 30.0061 3.51709 29.8822 3.60017 29.7399C3.68324 29.5977 3.73644 29.4399 3.75652 29.2764C3.78892 29.0589 3.77041 28.8552 3.69173 28.6562C3.61957 28.4672 3.49417 28.3033 3.33072 28.1841L3.51585 27.9527C3.71629 28.1155 3.8702 28.3284 3.96203 28.5697C4.05386 28.8111 4.08036 29.0724 4.03885 29.3273V29.318ZM5.04318 23.5744C5.22831 23.9446 5.25608 24.3334 5.12649 24.7407C5.06735 24.9328 4.9695 25.1107 4.83895 25.2636C4.70841 25.4164 4.54795 25.5409 4.36745 25.6293C3.99719 25.8191 3.60379 25.8468 3.20113 25.7126C3.01017 25.6537 2.83326 25.5564 2.68125 25.4267C2.52924 25.2969 2.40533 25.1375 2.31713 24.9582C2.22187 24.7799 2.16448 24.5839 2.14855 24.3824C2.13262 24.1809 2.1585 23.9783 2.22456 23.7873C2.36341 23.3846 2.61334 23.0884 2.98823 22.8986C3.35849 22.7135 3.74727 22.6811 4.14993 22.8153C4.34263 22.8744 4.52125 22.9722 4.67484 23.1027C4.82844 23.2332 4.95378 23.3937 5.04318 23.5744ZM4.24249 25.3701C4.38813 25.2989 4.51755 25.1985 4.62266 25.075C4.72777 24.9516 4.80632 24.8079 4.85342 24.6527C4.90646 24.4985 4.92783 24.3351 4.91627 24.1725C4.9047 24.0098 4.86043 23.8511 4.78611 23.7059C4.71179 23.5607 4.60894 23.432 4.48373 23.3275C4.35851 23.223 4.21349 23.1448 4.05736 23.0976C3.9048 23.0437 3.74291 23.0213 3.58144 23.0316C3.41997 23.042 3.26226 23.0849 3.11782 23.1578C2.81235 23.3059 2.60871 23.5466 2.49763 23.8798C2.39118 24.2084 2.41432 24.5278 2.57168 24.824C2.64453 24.9693 2.74606 25.0984 2.87015 25.2034C2.99424 25.3084 3.13832 25.3871 3.2937 25.4349C3.61767 25.5414 3.94165 25.5229 4.24249 25.3701ZM4.73772 18.0389L4.87656 17.7751L7.48228 19.1497L7.36658 19.3765L4.4739 19.7097L6.60291 20.8298L6.46406 21.089L3.85372 19.7144L3.97405 19.4922L6.86209 19.159L4.73309 18.0389H4.73772ZM7.63502 13.5588L7.8618 13.7254L7.32955 14.4566L9.49558 16.0256L9.31971 16.2617L7.1583 14.6973L6.62605 15.4286L6.40389 15.2666L7.63502 13.5588ZM12.5595 12.4387L11.8467 12.1286L10.8748 13.133L11.1988 13.8318L10.9859 14.0586L9.6622 11.1891L9.8751 10.9669L12.777 12.2166L12.5595 12.4387ZM10.7498 12.8599L11.5783 12.0083L10.0325 11.3326L10.7498 12.8599ZM16.114 9.44885C15.955 9.57536 15.7717 9.66801 15.5756 9.72109C15.3794 9.77418 15.1744 9.78658 14.9733 9.75753C14.7722 9.72849 14.5791 9.65861 14.4059 9.5522C14.2328 9.44579 14.0833 9.30509 13.9665 9.13876C13.842 8.97772 13.7517 8.79296 13.7012 8.5958C13.6506 8.39864 13.6409 8.19323 13.6725 7.99217C13.7041 7.7911 13.7765 7.59861 13.8851 7.4265C13.9938 7.25439 14.1364 7.10627 14.3044 6.99124C14.5109 6.83717 14.7544 6.74024 15.0104 6.71017C15.2663 6.68011 15.5256 6.71799 15.7623 6.81999L15.6419 7.09769C15.4614 7.00512 15.267 6.97272 15.0541 6.99587C14.8459 7.01901 14.6515 7.09306 14.4756 7.22728C14.3393 7.31979 14.2235 7.43928 14.1353 7.57837C14.0471 7.71745 13.9883 7.87317 13.9627 8.03587C13.9371 8.19857 13.9452 8.3648 13.9865 8.52425C14.0277 8.68371 14.1013 8.833 14.2025 8.96288C14.2969 9.09857 14.4182 9.21344 14.5587 9.30039C14.6993 9.38734 14.8562 9.44451 15.0198 9.46838C15.1833 9.49224 15.3501 9.48228 15.5096 9.43911C15.6692 9.39595 15.8182 9.3205 15.9474 9.21744C16.1233 9.08785 16.2529 8.92586 16.3362 8.73147C16.4195 8.53708 16.4426 8.33807 16.4102 8.13905L16.7111 8.10202C16.7388 8.35806 16.6987 8.61689 16.5947 8.85249C16.4907 9.0881 16.3265 9.29218 16.1186 9.44422L16.114 9.44885ZM19.0807 4.09856L19.215 4.34386L18.4189 4.77892L19.6917 7.12546L19.4325 7.26431L18.1597 4.91777L17.3636 5.35283L17.2294 5.10753L19.0807 4.09856ZM27.9578 2.9091L27.9115 2.64529L29.4064 2.39073L29.4527 2.65454L27.9578 2.9091ZM39.6997 4.03377C39.4984 4.00448 39.3053 3.93443 39.132 3.82791C38.9588 3.72139 38.8091 3.58064 38.6921 3.41427C38.5751 3.24791 38.4933 3.05942 38.4517 2.86035C38.4101 2.66128 38.4095 2.45581 38.4501 2.25651C38.4825 2.05581 38.5555 1.86383 38.6647 1.69231C38.7738 1.52079 38.9168 1.37334 39.0849 1.25897C39.253 1.1446 39.4426 1.06572 39.6422 1.02715C39.8419 0.988579 40.0472 0.99113 40.2458 1.03464C40.4997 1.07934 40.7373 1.19015 40.9348 1.3559C41.1322 1.52165 41.2825 1.7365 41.3705 1.97881L41.0835 2.08064C41.0255 1.88782 40.913 1.71586 40.7596 1.58541C40.5976 1.44656 40.4078 1.354 40.1949 1.31697C40.0337 1.28081 39.8667 1.27824 39.7045 1.30943C39.5422 1.34062 39.3881 1.4049 39.2517 1.49825C39.1154 1.59161 38.9997 1.71204 38.912 1.85205C38.8242 1.99206 38.7662 2.14865 38.7416 2.31205C38.7084 2.47354 38.7084 2.64012 38.7417 2.8016C38.775 2.96308 38.8409 3.11608 38.9353 3.25123C39.0297 3.38639 39.1507 3.50087 39.2909 3.58767C39.4311 3.67447 39.5875 3.73177 39.7506 3.75607C39.9635 3.7931 40.1718 3.77921 40.3708 3.70979C40.5698 3.63111 40.7318 3.5154 40.8521 3.35804L41.0835 3.5478C40.9154 3.74386 40.6984 3.89205 40.4546 3.97738C40.2108 4.06271 39.9488 4.08216 39.6951 4.03377H39.6997ZM45.4017 5.19084C45.0315 5.37597 44.6381 5.38985 44.2354 5.24638C44.0442 5.18189 43.8682 5.07877 43.7186 4.94341C43.5689 4.80806 43.4486 4.64336 43.3653 4.45957C43.279 4.27844 43.2304 4.08165 43.2224 3.88116C43.2144 3.68067 43.2473 3.48065 43.319 3.29324C43.4578 2.89521 43.717 2.60826 44.0919 2.42776C44.4714 2.24725 44.8602 2.22874 45.2629 2.37222C45.6655 2.51569 45.9571 2.77951 46.133 3.15902C46.3089 3.53391 46.3274 3.92269 46.1885 4.32535C46.1236 4.51632 46.0202 4.69201 45.8849 4.84163C45.7496 4.99125 45.5852 5.11166 45.4017 5.19547V5.19084ZM43.6291 4.34386C43.7679 4.6447 44.004 4.8576 44.3326 4.97331C44.4849 5.03019 44.6472 5.05585 44.8097 5.04876C44.9721 5.04166 45.1315 5.00195 45.2783 4.932C45.4252 4.86205 45.5564 4.76328 45.6643 4.64156C45.7721 4.51985 45.8544 4.37769 45.9062 4.22353C45.9641 4.07179 45.9906 3.90992 45.9842 3.74766C45.9779 3.58539 45.9387 3.4261 45.8692 3.27936C45.8028 3.1298 45.706 2.99575 45.5848 2.88576C45.4637 2.77578 45.3209 2.6923 45.1657 2.64066C45.0137 2.58261 44.8513 2.55675 44.6887 2.56472C44.5262 2.57268 44.3671 2.6143 44.2215 2.68694C43.916 2.83504 43.7124 3.07109 43.5921 3.39507C43.4764 3.71905 43.4902 4.03377 43.6291 4.34386ZM50.9325 5.04273L51.1917 5.18158L49.7523 7.75953L49.5301 7.63457L49.271 4.73264L48.1 6.82925L47.8408 6.68577L49.2802 4.11245L49.5024 4.23741L49.7616 7.13471L50.9325 5.04273ZM55.3294 8.06037L55.1581 8.28253L54.4407 7.73176L52.8208 9.85614L52.5894 9.67564L54.2093 7.55589L53.4873 7.00049L53.6539 6.78296L55.3294 8.06037ZM56.3152 13.0173L56.6438 12.3138L55.6719 11.314L54.9591 11.6241L54.7416 11.3974L57.6435 10.1524L57.8564 10.3699L56.5327 13.2394L56.3152 13.0173ZM55.9449 11.1937L56.7688 12.0453L57.4861 10.518L55.9403 11.1937H55.9449ZM59.2032 16.6597C59.0811 16.4968 58.9935 16.3106 58.9459 16.1127C58.8982 15.9147 58.8916 15.7091 58.9262 15.5084C58.9609 15.3078 59.0362 15.1163 59.1475 14.9458C59.2588 14.7753 59.4038 14.6293 59.5735 14.5168C59.7379 14.3975 59.9248 14.3129 60.1229 14.2682C60.3211 14.2236 60.5262 14.2197 60.7259 14.257C60.9256 14.2942 61.1156 14.3718 61.2843 14.4849C61.453 14.598 61.5968 14.7443 61.7071 14.9148C61.854 15.1254 61.9433 15.3708 61.966 15.6265C61.9887 15.8823 61.9442 16.1396 61.8367 16.3728L61.5637 16.2478C61.6562 16.0673 61.7025 15.8729 61.6794 15.66C61.6622 15.45 61.5886 15.2485 61.4665 15.0768C61.3776 14.9383 61.2613 14.8195 61.1248 14.7278C60.9882 14.636 60.8343 14.5732 60.6725 14.5433C60.5107 14.5133 60.3444 14.5169 60.1841 14.5537C60.0237 14.5906 59.8726 14.6599 59.7401 14.7575C59.6033 14.8491 59.4865 14.9676 59.3968 15.1057C59.3071 15.2438 59.2463 15.3986 59.2182 15.5609C59.1901 15.7232 59.1952 15.8894 59.2332 16.0497C59.2712 16.2099 59.3413 16.3607 59.4393 16.4931C59.5642 16.6782 59.7216 16.8078 59.9114 16.8958C60.1057 16.9883 60.3001 17.0161 60.5038 16.9883L60.5315 17.2892C60.2743 17.3103 60.0161 17.2633 59.7829 17.1528C59.5497 17.0423 59.3497 16.8722 59.2032 16.6597ZM64.4656 19.7699L64.2203 19.8949L63.8037 19.0896L61.4294 20.3022L61.2906 20.043L63.6741 18.8257L63.2622 18.0204L63.5122 17.8908L64.4656 19.7699ZM65.4144 28.6886L65.6828 28.6516L65.8911 30.1511L65.6273 30.1882L65.4144 28.6886ZM63.975 40.4028C64.01 40.2027 64.0854 40.0118 64.1967 39.8418C64.3079 39.6719 64.4526 39.5263 64.622 39.4142C64.7913 39.302 64.9818 39.2255 65.1817 39.1894C65.3816 39.1532 65.5867 39.1582 65.7846 39.204C66.2012 39.2966 66.5252 39.5095 66.7566 39.8566C66.9834 40.2037 67.0528 40.5972 66.9602 41.0322C66.9098 41.2852 66.7933 41.5204 66.6226 41.7139C66.4519 41.9073 66.233 42.0522 65.9883 42.1337L65.8957 41.8468C66.0901 41.7912 66.2567 41.6894 66.4002 41.5321C66.539 41.3747 66.6316 41.1896 66.6779 40.9767C66.7186 40.8165 66.7259 40.6497 66.6994 40.4866C66.6728 40.3235 66.613 40.1676 66.5235 40.0287C66.4341 39.8897 66.3169 39.7707 66.1795 39.679C66.042 39.5873 65.8871 39.5248 65.7245 39.4956C65.564 39.4586 65.3977 39.4546 65.2357 39.4839C65.0736 39.5133 64.9193 39.5753 64.782 39.6662C64.6447 39.7572 64.5274 39.8751 64.4372 40.0129C64.347 40.1507 64.2858 40.3054 64.2573 40.4676C64.211 40.6805 64.2203 40.8841 64.2897 41.0878C64.3545 41.2868 64.4656 41.4534 64.6229 41.5783L64.4286 41.8051C64.2342 41.6385 64.0953 41.4349 64.012 41.1803C63.9333 40.9304 63.9194 40.6712 63.975 40.4028ZM62.6652 46.0863C62.5824 45.9027 62.538 45.7041 62.5349 45.5027C62.5317 45.3014 62.5697 45.1015 62.6467 44.9153C62.7994 44.5173 63.0678 44.235 63.452 44.0684C63.6347 43.9857 63.8323 43.9411 64.0328 43.9371C64.2333 43.9331 64.4325 43.9699 64.6183 44.0452C65.0163 44.2026 65.2987 44.4664 65.4653 44.8505C65.6365 45.2347 65.6412 45.6235 65.4884 46.0215C65.4194 46.2103 65.3123 46.3829 65.1737 46.5286C65.0352 46.6743 64.8682 46.79 64.6831 46.8685C64.299 47.0351 63.9102 47.0443 63.5168 46.8916C63.3275 46.8224 63.1544 46.7152 63.0079 46.5768C62.8615 46.4383 62.7449 46.2714 62.6652 46.0863ZM63.5631 44.3322C63.2576 44.471 63.0401 44.6978 62.9151 45.0218C62.7901 45.3458 62.7948 45.6605 62.929 45.966C63.0678 46.2761 63.2993 46.4889 63.6232 46.6139C63.9472 46.7389 64.2619 46.7389 64.5674 46.6047C64.7177 46.5419 64.8533 46.4486 64.9656 46.3307C65.078 46.2128 65.1646 46.0728 65.22 45.9197C65.3496 45.5957 65.3403 45.2763 65.2015 44.9709C65.1363 44.8219 65.0416 44.6876 64.923 44.5763C64.8045 44.4649 64.6646 44.3787 64.5119 44.3229C64.3612 44.2606 64.1995 44.2293 64.0365 44.2309C63.8735 44.2325 63.7125 44.2669 63.5631 44.3322ZM62.6791 51.631L62.531 51.8855L59.9947 50.3721L60.1243 50.1545L63.0262 49.974L60.9666 48.7429L61.1193 48.493L63.651 50.0018L63.5214 50.2193L60.6195 50.4045L62.6791 51.631ZM59.5411 55.9491L59.3236 55.7733L59.8928 55.0698L57.8194 53.3897L58.0045 53.1583L60.078 54.8384L60.6473 54.1349L60.8648 54.3107L59.5411 55.9491ZM54.5703 56.8054L55.2646 57.1525L56.292 56.2037L56.0005 55.4863L56.2319 55.2734L57.3936 58.2124L57.1714 58.416L54.3435 57.0183L54.575 56.8054H54.5703ZM56.4031 56.4814L55.5284 57.2867L57.0372 58.0458L56.4031 56.4814ZM50.8631 59.6009C51.0285 59.4827 51.2163 59.3996 51.415 59.3568C51.6138 59.3139 51.8191 59.3121 52.0186 59.3516C52.218 59.391 52.4072 59.4709 52.5746 59.5862C52.7421 59.7015 52.8841 59.8498 52.9921 60.022C53.2235 60.383 53.2976 60.7626 53.2189 61.1698C53.179 61.3714 53.098 61.5625 52.9809 61.7313C52.8639 61.9001 52.7133 62.043 52.5385 62.151C52.3237 62.2942 52.075 62.3781 51.8174 62.3943C51.5598 62.4106 51.3024 62.3586 51.0714 62.2436L51.2102 61.9752C51.3815 62.077 51.5805 62.1186 51.7887 62.1094C51.997 62.0955 52.196 62.0307 52.3812 61.9104C52.5218 61.8245 52.6433 61.7107 52.7383 61.576C52.8333 61.4414 52.8998 61.2888 52.9336 61.1275C52.9674 60.9662 52.9678 60.7997 52.9349 60.6383C52.902 60.4768 52.8364 60.3238 52.7422 60.1886C52.6546 60.0497 52.5398 59.9299 52.4046 59.8366C52.2694 59.7434 52.1167 59.6786 51.9557 59.6461C51.7947 59.6136 51.6288 59.6142 51.468 59.6478C51.3072 59.6814 51.155 59.7473 51.0204 59.8415C50.8353 59.9619 50.6965 60.1192 50.6039 60.3044C50.5113 60.4941 50.4743 60.6885 50.4928 60.8922L50.1966 60.9107C50.1827 60.653 50.237 60.3963 50.354 60.1663C50.471 59.9363 50.6466 59.7413 50.8631 59.6009ZM47.614 64.7845L47.4937 64.53L48.3083 64.1412L47.1605 61.7345L47.4289 61.6049L48.5767 64.0116L49.3913 63.6228L49.5116 63.8774L47.614 64.7845ZM38.6907 65.4973L38.7185 65.7657L37.2097 65.937L37.1819 65.6732L38.6861 65.4973H38.6907Z" fill="black" stroke="black" stroke-width="0.2"/>
</svg>
