<svg width="100" height="102" viewBox="0 0 100 102" fill="none" xmlns="http://www.w3.org/2000/svg">
<path d="M43.5897 95.5751C43.8907 95.6082 44.1818 95.7027 44.4452 95.8527C44.7087 96.0028 44.9389 96.2053 45.1218 96.4479C45.3047 96.6904 45.4365 96.968 45.509 97.2635C45.5816 97.559 45.5934 97.8663 45.5438 98.1666C45.506 98.4681 45.4075 98.7588 45.2542 99.0208C45.101 99.2828 44.8963 99.5108 44.6526 99.6906C44.4088 99.8705 44.1312 99.9986 43.8366 100.067C43.542 100.136 43.2367 100.143 42.9391 100.089C42.5578 100.037 42.1968 99.8855 41.8924 99.649C41.5879 99.4125 41.3507 99.0997 41.2046 98.7418L41.6211 98.5759C41.7266 98.8549 41.8947 99.1004 42.1394 99.2988C42.3841 99.4971 42.6715 99.62 42.9948 99.6603C43.2359 99.7056 43.4837 99.7007 43.7229 99.6459C43.962 99.5911 44.1874 99.4875 44.3851 99.3415C44.5828 99.1956 44.7486 99.0104 44.8722 98.7974C44.9958 98.5844 45.0746 98.3482 45.1037 98.1034C45.1447 97.8601 45.1359 97.611 45.0779 97.3713C45.0198 97.1316 44.9138 96.9063 44.7663 96.7091C44.6187 96.512 44.4328 96.3471 44.2197 96.2246C44.0067 96.1021 43.7711 96.0246 43.5272 95.9967C43.204 95.9495 42.8932 95.9856 42.6016 96.1052C42.31 96.2248 42.0794 96.401 41.9028 96.6474L41.549 96.3778C41.7876 96.0758 42.1014 95.8425 42.4585 95.7015C42.8156 95.5605 43.2035 95.5169 43.5828 95.575L43.5897 95.5751ZM35.0318 94.1498C35.5814 93.8615 36.1613 93.8162 36.7646 94.007C37.3747 94.2048 37.8163 94.5798 38.1031 95.1323C38.3898 95.6918 38.4281 96.2676 38.2452 96.8742C38.1606 97.1619 38.0182 97.4292 37.8269 97.6594C37.6355 97.8897 37.3993 98.0781 37.1328 98.213C36.5762 98.5082 35.9963 98.5534 35.393 98.3627C35.1043 98.2768 34.8365 98.1319 34.6062 97.937C34.3758 97.7422 34.1881 97.5016 34.0546 97.2304C33.9145 96.9662 33.8297 96.676 33.8052 96.3776C33.7807 96.0793 33.8172 95.7791 33.9124 95.4954C33.9981 95.2063 34.1416 94.9379 34.3341 94.7066C34.5266 94.4752 34.764 94.2858 35.0318 94.1498ZM37.7206 95.3266C37.612 95.1071 37.4593 94.9127 37.2722 94.7556C37.0851 94.5984 36.8676 94.482 36.6335 94.4135C36.4036 94.3365 36.1606 94.3067 35.9191 94.3261C35.6775 94.3454 35.4423 94.4134 35.2274 94.526C35.0126 94.6386 34.8224 94.7936 34.6684 94.9816C34.5143 95.1697 34.3995 95.3869 34.3307 95.6205C34.2532 95.8519 34.2233 96.0967 34.2427 96.3401C34.2622 96.5834 34.3307 96.8203 34.444 97.0362C34.6636 97.4905 35.0237 97.7948 35.5241 97.9561C36.0179 98.1034 36.4873 98.07 36.9256 97.8351C37.1419 97.7242 37.3334 97.57 37.4884 97.3821C37.6434 97.1941 37.7586 96.9764 37.827 96.7422C37.9804 96.2459 37.9472 95.7741 37.7137 95.3265L37.7206 95.3266ZM26.8054 94.6777L26.416 94.4768L28.4144 90.5479L28.7561 90.7202L29.3015 95.0402L30.9288 91.8464L31.3182 92.0472L29.3129 95.976L28.9781 95.8038L28.4328 91.4768L26.8054 94.6777ZM20.1035 90.3882L20.3438 90.0459L21.447 90.8276L23.744 87.5692L24.1049 87.825L21.8009 91.0902L22.9041 91.8719L22.6638 92.2141L20.1035 90.3882ZM18.37 83.0258L17.924 84.0991L19.4292 85.5462L20.472 85.0447L20.8042 85.3693L16.5502 87.3875L16.2248 87.07L18.0378 82.7082L18.3769 83.026L18.37 83.0258ZM19.026 85.7401L17.7515 84.5049L16.7598 86.8299L19.026 85.7401ZM13.8845 77.7358C14.0744 77.9728 14.2142 78.2462 14.2954 78.5393C14.3766 78.8325 14.3975 79.1392 14.3568 79.4408C14.3161 79.7423 14.2146 80.0324 14.0586 80.2931C13.9026 80.5539 13.6953 80.78 13.4494 80.9575C13.2121 81.1464 12.9389 81.2845 12.6465 81.3633C12.3541 81.4421 12.0488 81.4599 11.7493 81.4157C11.4499 81.3715 11.1626 81.2662 10.9051 81.1062C10.6476 80.9463 10.4253 80.7351 10.2521 80.4856C10.0196 80.1785 9.87147 79.8154 9.82246 79.4327C9.77346 79.0499 9.8253 78.661 9.97281 78.3047L10.3834 78.4782C10.2615 78.7533 10.2082 79.0434 10.2441 79.3559C10.2868 79.6754 10.399 79.9615 10.5943 80.2283C10.7345 80.4311 10.9146 80.6028 11.1235 80.7327C11.3324 80.8625 11.5657 80.9479 11.8088 80.9833C12.0519 81.0188 12.2996 81.0036 12.5367 80.9388C12.7737 80.8739 12.9949 80.7608 13.1866 80.6064C13.3863 80.4626 13.5547 80.2794 13.6815 80.068C13.8083 79.8565 13.8908 79.6213 13.9241 79.3767C13.9574 79.1321 13.9407 78.8832 13.875 78.6453C13.8094 78.4074 13.6961 78.1855 13.5422 77.9931C13.3399 77.7331 13.102 77.5419 12.8146 77.419C12.5382 77.2965 12.2323 77.2574 11.9342 77.3065L11.8729 76.8619C12.2544 76.8166 12.6411 76.8727 12.9941 77.0249C13.3472 77.177 13.6543 77.4198 13.8846 77.7288L13.8845 77.7358ZM5.88799 73.3612L6.24996 73.1597L6.90488 74.3493L10.3787 72.4005L10.5924 72.7923L7.11191 74.734L7.76683 75.9236L7.41175 76.1253L5.88787 73.3681L5.88799 73.3612ZM3.99552 60.0709L3.60126 60.1471L3.20582 57.9087L3.59996 57.8394L3.99552 60.0709ZM5.51445 42.4676C5.47343 42.7688 5.37181 43.0583 5.21581 43.3187C5.05981 43.5791 4.85268 43.8048 4.60707 43.982C4.36145 44.1593 4.0825 44.2844 3.78721 44.3497C3.49192 44.415 3.18649 44.4192 2.88955 44.362C2.59033 44.3168 2.30342 44.2107 2.04634 44.0503C1.78925 43.8899 1.5674 43.6785 1.39431 43.429C1.22122 43.1795 1.10054 42.8972 1.03964 42.5992C0.978737 42.3013 0.978889 41.994 1.04009 41.6961C1.10104 41.3137 1.26151 40.9542 1.50522 40.6543C1.74893 40.3543 2.06721 40.1244 2.42779 39.988L2.58585 40.4135C2.29472 40.5054 2.05063 40.6674 1.84645 40.9133C1.64927 41.1524 1.52029 41.4343 1.45951 41.7589C1.40697 42.001 1.40469 42.2515 1.4528 42.4945C1.50092 42.7376 1.59841 42.968 1.73916 43.1715C1.87991 43.3749 2.0609 43.547 2.27082 43.6769C2.48074 43.8069 2.71507 43.8919 2.95915 43.9266C3.19993 43.9741 3.44782 43.9718 3.68767 43.9198C3.92753 43.8677 4.15432 43.7671 4.35421 43.6241C4.5541 43.481 4.72289 43.2985 4.85029 43.0877C4.97768 42.8769 5.06099 42.6422 5.09515 42.3979C5.14905 42.0731 5.12677 41.7678 5.01479 41.4679C4.91225 41.1831 4.7298 40.9344 4.48952 40.7518L4.7712 40.4102C5.06541 40.6592 5.28905 40.9818 5.41952 41.3455C5.54998 41.7092 5.58265 42.101 5.51421 42.4815L5.51445 42.4676ZM7.1592 33.8963C7.42524 34.4554 7.45648 35.0381 7.25294 35.6444C7.15989 35.9304 7.00955 36.1942 6.8112 36.4195C6.61285 36.6449 6.37068 36.827 6.09963 36.9547C5.54337 37.229 4.95687 37.2603 4.36079 37.0489C4.07798 36.9557 3.81709 36.8055 3.59412 36.6073C3.37114 36.4091 3.19079 36.1673 3.06411 35.8966C2.92691 35.6272 2.84655 35.3323 2.82806 35.0303C2.80958 34.7282 2.85338 34.4256 2.95672 34.1414C3.17393 33.5423 3.55377 33.1054 4.11692 32.8312C4.67305 32.5637 5.25279 32.5254 5.84886 32.7368C6.13427 32.8303 6.39769 32.9813 6.623 33.1807C6.84831 33.3801 7.03077 33.6236 7.1592 33.8963ZM5.92029 36.5635C6.13901 36.4607 6.33431 36.3137 6.49403 36.1317C6.65375 35.9497 6.77445 35.7366 6.84862 35.5056C6.9316 35.2761 6.96767 35.0321 6.95468 34.7883C6.94168 34.5445 6.87989 34.3058 6.773 34.0865C6.66611 33.8673 6.51632 33.6719 6.33258 33.5122C6.14885 33.3525 5.93495 33.2317 5.70369 33.157C5.47793 33.0724 5.23745 33.0345 4.99675 33.0458C4.75605 33.057 4.52011 33.1172 4.30314 33.2225C3.84445 33.4362 3.53497 33.7912 3.36091 34.2871C3.19387 34.7762 3.22002 35.2548 3.44664 35.7023C3.55133 35.9217 3.69915 36.1176 3.8812 36.278C4.06324 36.4384 4.27573 36.5601 4.50584 36.6357C4.98548 36.8035 5.46837 36.7842 5.92029 36.5635ZM6.84823 25.6026L7.06183 25.2113L10.906 27.337L10.7279 27.6735L6.41199 28.0967L9.55299 29.8289L9.3395 30.2132L5.4884 28.0874L5.67335 27.758L9.98234 27.3347L6.84134 25.6025L6.84823 25.6026ZM11.2788 18.9721L11.6121 19.2274L10.8006 20.3081L13.9851 22.7133L13.7171 23.062L10.5394 20.6639L9.72783 21.7446L9.40124 21.4963L11.2788 18.9721ZM18.6405 17.4242L17.5873 16.9414L16.1139 18.4194L16.5782 19.474L16.2553 19.8079L14.3589 15.478L14.6817 15.151L18.9702 17.0974L18.6405 17.4242ZM15.935 18.0074L17.1907 16.7543L14.9065 15.7024L15.935 18.0074ZM24.0109 13.0417C23.7708 13.2269 23.4956 13.3608 23.2021 13.4351C22.9086 13.5094 22.6031 13.5226 22.3043 13.4739C22.0056 13.4252 21.7199 13.3155 21.4649 13.1517C21.2098 12.9879 20.9908 12.7734 20.8213 12.5214C20.6401 12.2771 20.5105 11.9982 20.4404 11.7017C20.3702 11.4053 20.361 11.0976 20.4133 10.7974C20.4657 10.4973 20.5784 10.211 20.7447 9.95625C20.9109 9.70146 21.1272 9.48348 21.3802 9.31567C21.6918 9.09046 22.0569 8.95172 22.4387 8.91341C22.8206 8.87509 23.2058 8.93857 23.5555 9.09743L23.3691 9.50996C23.1027 9.36669 22.8141 9.31312 22.4965 9.34219C22.1858 9.37139 21.8944 9.47716 21.629 9.67347C21.4237 9.80838 21.2482 9.98422 21.1132 10.1901C20.9782 10.396 20.8867 10.6275 20.8444 10.8704C20.802 11.1133 20.8097 11.3623 20.867 11.6021C20.9243 11.8418 21.0299 12.0672 21.1773 12.2643C21.3144 12.4699 21.4919 12.645 21.6989 12.7788C21.906 12.9126 22.1382 13.0023 22.3811 13.0423C22.624 13.0823 22.8725 13.0717 23.1112 13.0113C23.3499 12.9509 23.5737 12.8418 23.7688 12.6909C24.0341 12.5015 24.2313 12.2624 24.3604 11.9736C24.4895 11.6849 24.5291 11.3876 24.486 11.0888L24.9349 11.0413C24.9696 11.4252 24.9031 11.8116 24.7421 12.1616C24.5811 12.5115 24.3314 12.8127 24.0179 13.0349L24.0109 13.0417ZM28.5675 5.11054L28.7609 5.48122L27.5643 6.11164L29.3985 9.65734L29.0089 9.85841L27.1747 6.31271L25.9781 6.94313L25.7846 6.57245L28.5675 5.11054ZM41.8164 3.562L41.7543 3.1659L43.9869 2.82393L44.0489 3.22003L41.8164 3.562ZM59.271 5.55227C58.9721 5.50317 58.6863 5.39327 58.4311 5.2293C58.1759 5.06533 57.9566 4.85073 57.7868 4.59865C57.6169 4.34656 57.5 4.06229 57.4432 3.76322C57.3864 3.46415 57.3909 3.15657 57.4565 2.85931C57.5099 2.55973 57.6237 2.27427 57.7907 2.02039C57.9576 1.7665 58.1744 1.54952 58.4277 1.38272C58.6809 1.21592 58.9653 1.1028 59.2636 1.05028C59.5618 0.997759 59.8676 1.00694 60.1621 1.07727C60.539 1.15081 60.89 1.32287 61.1796 1.57614C61.4693 1.82941 61.6875 2.15494 61.8122 2.51994L61.3823 2.66486C61.3009 2.37472 61.1378 2.11438 60.9128 1.91511C60.6752 1.70304 60.395 1.55952 60.079 1.49854C59.8398 1.4402 59.5913 1.432 59.3489 1.47444C59.1064 1.51689 58.8753 1.60907 58.6699 1.74525C58.4644 1.88143 58.2891 2.05868 58.1548 2.26597C58.0205 2.47325 57.93 2.70612 57.8892 2.95007C57.8354 3.19092 57.8311 3.44027 57.8765 3.68285C57.9219 3.92544 58.016 4.15618 58.1531 4.36096C58.2902 4.56573 58.4674 4.74025 58.6739 4.87385C58.8804 5.00744 59.1118 5.0973 59.354 5.13793C59.67 5.19892 59.9805 5.18357 60.2787 5.08486C60.5771 4.97228 60.8213 4.80332 61.0045 4.57091L61.3442 4.861C61.0887 5.15008 60.7618 5.36623 60.3965 5.48759C60.0313 5.60895 59.6406 5.63122 59.2641 5.55215L59.271 5.55227ZM67.7313 7.43323C67.1752 7.70067 66.589 7.71118 65.9932 7.48589C65.7101 7.38437 65.4508 7.22541 65.2315 7.01889C65.0121 6.81237 64.8373 6.56271 64.718 6.28541C64.5942 6.01203 64.5269 5.7162 64.5203 5.41588C64.5137 5.11556 64.5678 4.81702 64.6794 4.53838C64.8965 3.9462 65.2899 3.52345 65.8528 3.26305C66.4226 3.00278 67.002 2.98523 67.5978 3.21051C68.1936 3.4358 68.6209 3.83831 68.873 4.41099C69.1251 4.97674 69.1426 5.55917 68.9253 6.15827C68.8236 6.44243 68.6652 6.70271 68.4599 6.92314C68.2545 7.14357 68.0066 7.31951 67.7312 7.44016L67.7313 7.43323ZM65.1138 6.11911C65.3128 6.57305 65.6587 6.8979 66.145 7.07968C66.3704 7.16882 66.6113 7.21146 66.8534 7.20508C67.0955 7.19871 67.3339 7.14344 67.5543 7.04256C67.7747 6.94169 67.9727 6.79727 68.1365 6.6179C68.3003 6.43854 68.4265 6.22788 68.5076 5.99848C68.5977 5.77287 68.6414 5.53126 68.6362 5.28821C68.6309 5.04515 68.5768 4.80568 68.477 4.58422C68.3821 4.35862 68.2414 4.15543 68.0639 3.98764C67.8863 3.81984 67.6759 3.69115 67.4461 3.60979C67.2213 3.51893 66.9801 3.47598 66.7379 3.48366C66.4957 3.49134 66.2577 3.54948 66.039 3.6544C65.5803 3.86811 65.271 4.21612 65.0834 4.69792C64.9027 5.17985 64.9152 5.65131 65.1138 6.11911ZM75.9705 7.35604L76.3529 7.57065L74.1426 11.3919L73.815 11.199L73.5045 6.84846L71.7065 9.9562L71.3243 9.73467L73.5344 5.92037L73.862 6.11322L74.1726 10.4569L75.9705 7.35604ZM82.4391 11.9879L82.1783 12.316L81.1244 11.4728L78.6572 14.6104L78.3173 14.3342L80.7844 11.2035L79.7238 10.3533L79.9775 10.032L82.4391 11.9879ZM83.7781 19.4334L84.2857 18.389L82.8645 16.8672L81.7951 17.3127L81.4771 16.9676L85.8305 15.1798L86.1418 15.511L84.0963 19.7717L83.7781 19.4334ZM83.2742 16.6942L84.4788 17.9904L85.5867 15.723L83.2673 16.6941L83.2742 16.6942ZM87.9838 24.9612C87.8061 24.7141 87.6806 24.4332 87.6148 24.1356C87.549 23.838 87.5444 23.53 87.6013 23.2306C87.6581 22.9311 87.7752 22.6465 87.9453 22.3942C88.1155 22.1419 88.3352 21.9272 88.5908 21.7632C88.8387 21.5889 89.1192 21.4672 89.4154 21.4055C89.7116 21.3438 90.0172 21.3434 90.3135 21.4044C90.6099 21.4654 90.8907 21.5864 91.139 21.7601C91.3873 21.9338 91.5977 22.1566 91.7575 22.4148C91.9707 22.7338 92.0972 23.1034 92.1244 23.4868C92.1516 23.8703 92.0786 24.2542 91.9125 24.6004L91.5092 24.4062C91.6517 24.1385 91.7257 23.8487 91.6968 23.5294C91.6766 23.2146 91.5723 22.9111 91.3949 22.651C91.2662 22.4413 91.0961 22.2604 90.8952 22.1195C90.6942 21.9785 90.4666 21.8805 90.2265 21.8315C89.9864 21.7825 89.7388 21.7835 89.499 21.8344C89.2593 21.8854 89.0325 21.9853 88.8327 22.1278C88.6266 22.2614 88.4496 22.4357 88.3124 22.6401C88.1752 22.8444 88.0808 23.0746 88.0347 23.3168C87.9886 23.5589 87.9918 23.8079 88.0442 24.0488C88.0967 24.2896 88.1971 24.5173 88.3396 24.7179C88.5209 24.9983 88.7518 25.1964 89.0321 25.333C89.3191 25.4766 89.6078 25.5233 89.9118 25.487L89.9453 25.9381C89.5618 25.963 89.1785 25.8859 88.8341 25.7144C88.4897 25.5428 88.1964 25.283 87.9838 24.9612ZM95.7387 29.7542L95.3702 29.9348L94.7708 28.7185L91.204 30.4716L91.004 30.08L94.5847 28.3202L93.9923 27.104L94.3678 26.9166L95.7387 29.7542ZM96.9196 43.129L97.3203 43.0806L97.5914 45.3307L97.1976 45.3792L96.9196 43.129ZM94.4719 60.6259C94.5292 60.3273 94.6465 60.0436 94.8166 59.7921C94.9866 59.5406 95.2059 59.3265 95.461 59.163C95.716 58.9995 96.0016 58.89 96.3002 58.8412C96.5988 58.7923 96.9041 58.8052 97.1976 58.8789C97.8155 59.0283 98.2923 59.3555 98.6279 59.8811C98.9566 60.4066 99.0497 60.9973 98.9006 61.6461C98.8189 62.0235 98.6393 62.3725 98.3801 62.6576C98.1209 62.9428 97.7913 63.1539 97.4247 63.2696L97.2943 62.8376C97.5852 62.7596 97.836 62.6115 98.0537 62.3797C98.2645 62.1478 98.4072 61.8731 98.4816 61.5556C98.5465 61.317 98.5617 61.0674 98.5264 60.8226C98.4911 60.5778 98.406 60.3429 98.2764 60.1325C98.1468 59.9222 97.9755 59.741 97.7732 59.6001C97.5709 59.4592 97.3419 59.3618 97.1005 59.3138C96.8625 59.2541 96.615 59.2438 96.3729 59.2835C96.1309 59.3232 95.8994 59.412 95.6926 59.5445C95.4859 59.6771 95.3081 59.8506 95.1702 60.0544C95.0323 60.2583 94.9372 60.4883 94.8906 60.7303C94.8161 61.0478 94.8246 61.3528 94.9227 61.6595C95.014 61.9591 95.1751 62.2114 95.4061 62.4025L95.1108 62.7369C94.8257 62.4825 94.6242 62.174 94.5068 61.7908C94.3961 61.4146 94.3822 61.0263 94.4719 60.6259ZM92.3739 69.0992C92.2554 68.8222 92.1945 68.5238 92.195 68.2222C92.1955 67.9207 92.2573 67.6225 92.3767 67.3459C92.6145 66.7541 93.0215 66.3385 93.5979 66.0992C93.8721 65.9803 94.1674 65.9186 94.4661 65.9179C94.7647 65.9172 95.0604 65.9774 95.3351 66.095C95.9237 66.3409 96.3372 66.7432 96.5754 67.3226C96.8204 67.9021 96.8171 68.4841 96.5794 69.0759C96.4717 69.3568 96.3077 69.6124 96.0976 69.8268C95.8876 70.0413 95.6359 70.2101 95.3582 70.3227C94.7819 70.5621 94.2028 70.5658 93.621 70.3269C93.3409 70.2183 93.0859 70.0534 92.8715 69.8423C92.657 69.6312 92.4877 69.3783 92.3739 69.0992ZM93.7564 66.497C93.298 66.6968 92.9682 67.0306 92.7737 67.5123C92.5792 67.994 92.5779 68.4652 92.7698 68.9259C92.9685 69.3937 93.3075 69.7185 93.7867 69.914C94.2659 70.1095 94.7345 70.1177 95.1928 69.9248C95.4182 69.8348 95.6226 69.6987 95.7929 69.5251C95.9632 69.3516 96.0959 69.1443 96.1823 68.9165C96.3837 68.4349 96.3782 67.9567 96.1794 67.4958C96.0862 67.2711 95.9487 67.0677 95.7751 66.8979C95.6015 66.7281 95.3954 66.5954 95.1694 66.5079C94.9467 66.4107 94.7068 66.3596 94.464 66.3577C94.2212 66.3558 93.9806 66.4032 93.7564 66.497ZM92.2504 77.3991L92.0233 77.7763L88.286 75.4446L88.4847 75.1224L92.8104 74.928L89.7756 73.0314L90.0095 72.6613L93.74 74.9859L93.5414 75.3081L89.2156 75.5094L92.2504 77.3991ZM87.4657 83.7809L87.1464 83.5119L88.0123 82.4738L84.9686 79.9048L85.2503 79.5632L88.294 82.1322L89.16 81.0941L89.4793 81.363L87.4657 83.7809ZM80.0419 84.9327L81.0667 85.4704L82.6212 84.077L82.2057 82.9956L82.5558 82.683L84.2092 87.1125L83.8731 87.4115L79.6987 85.2454L80.0488 84.9328L80.0419 84.9327ZM82.7794 84.4956L81.456 85.6782L83.6829 86.8538L82.7794 84.4956ZM74.4492 89.0203C74.6985 88.8477 74.9804 88.7283 75.2774 88.6693C75.5744 88.6103 75.8802 88.613 76.1762 88.6773C76.4721 88.7416 76.7518 88.866 76.9981 89.043C77.2444 89.2199 77.452 89.4457 77.6083 89.7063C77.9435 90.2527 78.0439 90.8228 77.9162 91.4304C77.8515 91.731 77.7259 92.015 77.5472 92.2646C77.3686 92.5142 77.1406 92.7242 76.8776 92.8813C76.5541 93.0899 76.1815 93.209 75.7975 93.2266C75.4135 93.2442 75.0317 93.1597 74.6906 92.9815L74.9043 92.5833C75.1567 92.7402 75.4519 92.8078 75.7623 92.7994C76.0727 92.784 76.3708 92.6922 76.6496 92.5169C76.8612 92.392 77.0451 92.2249 77.19 92.0258C77.335 91.8268 77.4379 91.6 77.4925 91.3595C77.547 91.119 77.552 90.8698 77.5072 90.6273C77.4624 90.3847 77.3687 90.154 77.2318 89.9492C77.1052 89.7389 76.9373 89.5566 76.7384 89.4135C76.5395 89.2703 76.3138 89.1693 76.0749 89.1165C75.836 89.0637 75.5889 89.0603 75.3487 89.1064C75.1084 89.1524 74.88 89.2471 74.6772 89.3846C74.3984 89.5599 74.1876 89.7918 74.0449 90.0665C73.9022 90.3482 73.842 90.6382 73.8643 90.9435L73.4227 90.9634C73.4087 90.5774 73.4963 90.1945 73.6765 89.8533C73.8567 89.5122 74.1232 89.2248 74.4492 89.0203ZM69.4766 96.6946L69.304 96.3104L70.527 95.7498L68.8805 92.1173L69.2835 91.9303L70.9301 95.5628L72.1531 95.0021L72.3257 95.3863L69.4766 96.6946ZM56.1711 97.5284L56.2055 97.9309L53.9544 98.1478L53.9199 97.7522L56.1642 97.5282L56.1711 97.5284Z" fill="black" stroke="white" stroke-width="0.5"/>
<path d="M44.3764 95.6778C44.6779 95.7056 44.9706 95.7949 45.2366 95.9403C45.5026 96.0858 45.7363 96.2842 45.9234 96.5235C46.1105 96.7628 46.247 97.038 46.3247 97.3322C46.4024 97.6264 46.4196 97.9334 46.3752 98.2345C46.3426 98.5367 46.2492 98.8291 46.1005 99.0937C45.9518 99.3584 45.7511 99.5899 45.5105 99.774C45.27 99.9582 44.9946 100.091 44.7013 100.165C44.4079 100.238 44.1027 100.251 43.8043 100.202C43.4221 100.157 43.0585 100.012 42.75 99.7808C42.4415 99.5497 42.1989 99.2411 42.0467 98.8859L42.4602 98.7126C42.5705 98.9898 42.7428 99.2323 42.9909 99.4263C43.2391 99.6203 43.5286 99.7381 43.8525 99.7728C44.0944 99.8139 44.342 99.8046 44.5802 99.7456C44.8183 99.6866 45.0419 99.579 45.237 99.4296C45.4322 99.2803 45.5947 99.0922 45.7146 98.8771C45.8345 98.662 45.9092 98.4244 45.9341 98.1791C45.9708 97.9352 45.9577 97.6863 45.8955 97.4476C45.8333 97.2089 45.7234 96.9855 45.5725 96.791C45.4215 96.5964 45.2327 96.4349 45.0176 96.3161C44.8025 96.1974 44.5655 96.124 44.3212 96.1004C43.9973 96.0588 43.6871 96.1004 43.3976 96.2251C43.1081 96.3499 42.8807 96.53 42.7084 96.7795L42.3499 96.5162C42.5833 96.21 42.8929 95.9712 43.2476 95.824C43.6022 95.6767 43.9892 95.6263 44.3695 95.6778H44.3764ZM35.7951 94.4028C36.3396 94.1049 36.9186 94.0495 37.5251 94.2296C38.1386 94.4167 38.5866 94.7839 38.883 95.3313C39.1793 95.8856 39.2276 96.4607 39.0553 97.0705C38.9756 97.3596 38.8379 97.6293 38.6506 97.8629C38.4633 98.0964 38.2304 98.2889 37.9662 98.4286C37.4148 98.7334 36.8359 98.7888 36.2293 98.6087C35.9392 98.5279 35.6689 98.3877 35.4352 98.1969C35.2015 98.0062 35.0096 97.7689 34.8715 97.5001C34.7268 97.2384 34.6369 96.9497 34.6073 96.6518C34.5777 96.354 34.6089 96.0531 34.6992 95.7678C34.7799 95.4773 34.9187 95.2065 35.1071 94.9717C35.2956 94.737 35.5297 94.5435 35.7951 94.4028ZM38.5039 95.5322C38.3915 95.3147 38.2354 95.123 38.0456 94.9692C37.8558 94.8153 37.6363 94.7027 37.4011 94.6384C37.1699 94.5654 36.9264 94.5399 36.6852 94.5635C36.4441 94.5871 36.2101 94.6592 35.9972 94.7756C35.7843 94.8919 35.5969 95.0502 35.4461 95.2409C35.2954 95.4316 35.1843 95.6509 35.1196 95.8856C35.0461 96.1183 35.0204 96.3636 35.0441 96.6066C35.0678 96.8496 35.1404 97.0852 35.2575 97.2991C35.4849 97.7495 35.8502 98.0475 36.3534 98.1999C36.8496 98.3385 37.3183 98.2969 37.7526 98.0544C37.9669 97.9396 38.1557 97.7821 38.3074 97.5915C38.4591 97.4009 38.5705 97.1812 38.6348 96.9458C38.7796 96.4469 38.7382 95.9757 38.497 95.5322H38.5039ZM27.5791 95.0749L27.1862 94.8809L29.1162 90.9176L29.4608 91.0839L30.0811 95.3937L31.6526 92.1717L32.0455 92.3657L30.1087 96.3291L29.7709 96.1628L29.1506 91.846L27.5791 95.0749ZM20.8037 90.9037L21.038 90.5573L22.1546 91.3195L24.3947 88.0213L24.76 88.2707L22.513 91.5758L23.6296 92.338L23.3953 92.6844L20.8037 90.9037ZM18.9427 83.5729L18.5153 84.6538L20.0455 86.0742L21.0794 85.5546L21.4171 85.8733L17.1989 87.9658L16.868 87.654L18.6049 83.2611L18.9496 83.5729H18.9427ZM19.6457 86.2752L18.3499 85.0626L17.3987 87.4046L19.6457 86.2752ZM14.366 78.3623C14.56 78.5959 14.7045 78.8669 14.7908 79.1586C14.8771 79.4502 14.9033 79.7566 14.8678 80.0588C14.8323 80.361 14.7359 80.6528 14.5844 80.9162C14.433 81.1797 14.2297 81.4094 13.9869 81.5912C13.7529 81.7842 13.4821 81.9271 13.1912 82.011C12.9002 82.0949 12.5953 82.1181 12.2951 82.0792C11.9949 82.0402 11.7058 81.94 11.4455 81.7845C11.1853 81.6291 10.9594 81.4219 10.7818 81.1755C10.5441 80.8725 10.3897 80.512 10.334 80.1302C10.2784 79.7484 10.3235 79.3586 10.4648 78.9998L10.8783 79.1661C10.7612 79.4432 10.7129 79.7342 10.7543 80.046C10.8025 80.3648 10.9197 80.6489 11.1196 80.9122C11.2632 81.1125 11.4463 81.281 11.6575 81.4072C11.8686 81.5334 12.1033 81.6146 12.347 81.6458C12.5907 81.677 12.8381 81.6575 13.074 81.5885C13.3099 81.5195 13.5291 81.4025 13.7181 81.2447C13.9152 81.0975 14.0804 80.9113 14.2035 80.6977C14.3266 80.4841 14.4051 80.2475 14.4341 80.0023C14.4631 79.7571 14.4421 79.5086 14.3723 79.2719C14.3025 79.0352 14.1855 78.8153 14.0283 78.6256C13.8215 78.3692 13.5802 78.1822 13.2907 78.0644C13.0122 77.9467 12.7057 77.913 12.4085 77.9674L12.3396 77.5239C12.7202 77.4718 13.1078 77.5212 13.4634 77.6672C13.8191 77.8131 14.1303 78.0504 14.366 78.3554V78.3623ZM6.29476 74.1287L6.65318 73.9208L7.32865 75.0988L10.7681 73.0894L10.9886 73.4774L7.54232 75.4799L8.2178 76.6578L7.86627 76.8656L6.29476 74.1356V74.1287ZM4.17184 60.8736L3.77896 60.9568L3.34473 58.7257L3.73761 58.6494L4.17184 60.8736ZM5.38494 43.2464C5.34915 43.5482 5.25258 43.8395 5.10112 44.1026C4.94966 44.3656 4.74648 44.5949 4.50398 44.7765C4.26148 44.958 3.98474 45.088 3.69063 45.1585C3.39653 45.229 3.09122 45.2385 2.79332 45.1865C2.49337 45.1465 2.20466 45.0456 1.94483 44.8897C1.685 44.7338 1.4595 44.5263 1.28211 44.2799C1.10472 44.0335 0.97916 43.7533 0.913093 43.4565C0.847026 43.1597 0.841843 42.8524 0.897859 42.5535C0.952168 42.17 1.10637 41.8078 1.34484 41.5036C1.5833 41.1994 1.89754 40.964 2.2557 40.8213L2.42112 41.2439C2.13163 41.3409 1.89039 41.5072 1.69051 41.7567C1.49752 41.9992 1.37345 42.2833 1.31831 42.6089C1.26998 42.8519 1.27204 43.1024 1.32438 43.3445C1.37671 43.5867 1.47817 43.8154 1.62244 44.0164C1.7667 44.2173 1.95066 44.3862 2.1628 44.5124C2.37494 44.6386 2.61071 44.7195 2.85536 44.75C3.09693 44.7932 3.34473 44.7866 3.58365 44.7303C3.82256 44.6741 4.04758 44.5696 4.24495 44.423C4.44233 44.2765 4.60793 44.091 4.73164 43.878C4.85535 43.665 4.93458 43.4289 4.96449 43.184C5.01274 42.8584 4.98517 42.5535 4.868 42.2555C4.76053 41.9727 4.57379 41.7272 4.33037 41.5488L4.60608 41.2023C4.90457 41.4461 5.13378 41.7648 5.27054 42.1261C5.4073 42.4874 5.44676 42.8787 5.38494 43.2602V43.2464ZM6.88063 34.6476C7.15634 35.2019 7.19769 35.7839 7.0047 36.3937C6.91663 36.6812 6.7709 36.9477 6.57649 37.1765C6.38208 37.4053 6.14311 37.5916 5.87431 37.724C5.32291 38.0081 4.73704 38.0497 4.13738 37.8487C3.853 37.7605 3.58953 37.6149 3.36315 37.4206C3.13677 37.2264 2.95225 36.9878 2.82089 36.7193C2.67903 36.4524 2.59356 36.1589 2.56984 35.8573C2.54612 35.5556 2.58466 35.2523 2.68304 34.9663C2.88982 34.3635 3.26202 33.92 3.82032 33.6359C4.37173 33.3588 4.95071 33.3103 5.55036 33.5112C5.83735 33.5997 6.10335 33.7461 6.33209 33.9415C6.56083 34.1368 6.74749 34.3771 6.88063 34.6476ZM5.68821 37.336C5.90511 37.2294 6.09784 37.079 6.25437 36.8942C6.4109 36.7095 6.52789 36.4942 6.59804 36.262C6.67702 36.0311 6.70885 35.7865 6.69163 35.543C6.6744 35.2994 6.60848 35.0618 6.4978 34.8445C6.38711 34.6271 6.23395 34.4345 6.04747 34.278C5.86099 34.1215 5.64503 34.0045 5.41251 33.9339C5.18531 33.8532 4.94422 33.8196 4.70375 33.835C4.46328 33.8505 4.22842 33.9148 4.01331 34.024C3.5584 34.2457 3.25513 34.606 3.0897 35.1049C2.93118 35.5968 2.96564 36.0749 3.19999 36.5184C3.30847 36.7359 3.45967 36.9291 3.64448 37.0863C3.82928 37.2435 4.04385 37.3615 4.27523 37.433C4.75771 37.5924 5.2402 37.5646 5.68821 37.336ZM6.42572 26.3605L6.6325 25.9656L10.513 28.0235L10.3407 28.363L6.03284 28.8619L9.20344 30.5387L8.99666 30.9267L5.10924 28.8688L5.28844 28.5362L9.58942 28.0373L6.41883 26.3605H6.42572ZM10.7405 19.6533L11.0782 19.9028L10.2856 20.9975L13.5113 23.3464L13.2494 23.6998L10.0306 21.3578L9.2379 22.4526L8.90706 22.2101L10.7405 19.6533ZM18.0742 17.9765L17.0128 17.5123L15.5653 19.0159L16.0478 20.0621L15.7307 20.4016L13.7594 16.1057L14.0765 15.7731L18.3982 17.6439L18.0742 17.9765ZM15.3792 18.607L16.613 17.3321L14.3109 16.3205L15.3792 18.607ZM23.3677 13.5004C23.1309 13.6898 22.858 13.8285 22.5658 13.908C22.2737 13.9874 21.9685 14.006 21.6689 13.9625C21.3694 13.919 21.0818 13.8144 20.824 13.6551C20.5662 13.4958 20.3434 13.2852 20.1696 13.0362C19.9842 12.7951 19.8497 12.5185 19.7744 12.2233C19.6992 11.9281 19.6846 11.6206 19.7317 11.3196C19.7788 11.0186 19.8866 10.7304 20.0484 10.4728C20.2102 10.2151 20.4227 9.99335 20.6727 9.82113C20.9803 9.59049 21.343 9.44536 21.7241 9.40035C22.1053 9.35535 22.4915 9.41205 22.8439 9.56476L22.6647 9.9805C22.3959 9.84192 22.1064 9.79342 21.7893 9.82806C21.4792 9.86271 21.1897 9.97357 20.9277 10.1745C20.7248 10.313 20.5523 10.4919 20.4209 10.7001C20.2896 10.9083 20.2021 11.1415 20.164 11.385C20.1259 11.6286 20.1379 11.8775 20.1993 12.1162C20.2607 12.3549 20.3702 12.5784 20.5211 12.7729C20.6617 12.976 20.8422 13.148 21.0515 13.2781C21.2609 13.4083 21.4946 13.4939 21.7382 13.5296C21.9817 13.5654 22.23 13.5504 22.4676 13.4858C22.7053 13.4212 22.9271 13.3083 23.1196 13.154C23.3815 12.9599 23.5745 12.7174 23.6986 12.4264C23.8226 12.1354 23.8571 11.8375 23.8089 11.5395L24.2569 11.4841C24.2982 11.8674 24.2384 12.2549 24.0835 12.6076C23.9287 12.9603 23.6842 13.2658 23.3746 13.4935L23.3677 13.5004ZM27.7859 5.49054L27.9858 5.85777L26.8002 6.50909L28.6957 10.0221L28.3097 10.2299L26.4143 6.71696L25.2287 7.36828L25.0288 7.00105L27.7859 5.49054ZM41.0059 3.7098L40.937 3.31485L43.1633 2.93376L43.2322 3.32871L41.0059 3.7098ZM58.4924 5.39353C58.1927 5.34968 57.905 5.24481 57.647 5.08534C57.389 4.92587 57.1661 4.71516 56.9919 4.46609C56.8177 4.21703 56.6958 3.93484 56.6339 3.63682C56.5719 3.33879 56.571 3.03118 56.6314 2.73282C56.6797 2.43235 56.7884 2.14493 56.951 1.88816C57.1135 1.63138 57.3265 1.41063 57.5768 1.23941C57.8271 1.06819 58.1096 0.950098 58.4068 0.892354C58.7041 0.83461 59.01 0.838428 59.3057 0.903574C59.6838 0.97049 60.0377 1.13637 60.3317 1.38452C60.6258 1.63267 60.8496 1.95432 60.9806 2.31708L60.5533 2.46952C60.4668 2.18085 60.2993 1.92341 60.0708 1.72812C59.8296 1.52025 59.547 1.38167 59.2299 1.32624C58.9898 1.27211 58.7412 1.26826 58.4995 1.31496C58.2578 1.36165 58.0283 1.45788 57.8253 1.59764C57.6222 1.7374 57.45 1.9177 57.3193 2.12731C57.1886 2.33692 57.1023 2.57134 57.0656 2.81596C57.0161 3.05773 57.0161 3.30711 57.0657 3.54886C57.1153 3.79062 57.2134 4.01967 57.354 4.22201C57.4947 4.42435 57.6749 4.59573 57.8837 4.72568C58.0924 4.85563 58.3254 4.94142 58.5682 4.9778C58.8853 5.03323 59.1954 5.01244 59.4918 4.90851C59.7882 4.79071 60.0294 4.61749 60.2087 4.38191L60.5533 4.66599C60.3028 4.95951 59.9797 5.18136 59.6167 5.30911C59.2536 5.43686 58.8634 5.46598 58.4855 5.39353H58.4924ZM66.9841 7.12577C66.4327 7.40293 65.8468 7.42372 65.2471 7.20892C64.9624 7.11238 64.7004 6.95799 64.4775 6.75535C64.2545 6.55271 64.0755 6.30615 63.9513 6.031C63.8228 5.75982 63.7504 5.46522 63.7385 5.16506C63.7267 4.86491 63.7756 4.56546 63.8824 4.2849C64.0892 3.68901 64.4752 3.25942 65.0335 2.98919C65.5987 2.71896 66.1776 2.69124 66.7773 2.90604C67.377 3.12084 67.8112 3.51579 68.0731 4.08396C68.335 4.64521 68.3626 5.22724 68.1558 5.83006C68.0591 6.11596 67.9052 6.37898 67.7037 6.60298C67.5022 6.82697 67.2573 7.00723 66.9841 7.1327V7.12577ZM64.3442 5.85777C64.551 6.30815 64.9025 6.62689 65.3919 6.80011C65.6188 6.88527 65.8604 6.92369 66.1024 6.91306C66.3443 6.90244 66.5817 6.84299 66.8003 6.73827C67.019 6.63354 67.2144 6.48567 67.3751 6.30346C67.5357 6.12125 67.6582 5.90841 67.7354 5.67762C67.8215 5.45046 67.8611 5.20812 67.8516 4.9652C67.8421 4.72228 67.7838 4.48379 67.6802 4.26411C67.5814 4.04022 67.4372 3.83952 67.2568 3.67487C67.0764 3.51022 66.8638 3.38523 66.6326 3.30792C66.4062 3.22101 66.1643 3.1823 65.9223 3.19423C65.6802 3.20616 65.4433 3.26846 65.2265 3.37721C64.7716 3.59894 64.4683 3.95231 64.2891 4.43734C64.1168 4.92236 64.1374 5.39353 64.3442 5.85777ZM75.2207 6.90404L75.6067 7.11191L73.4631 10.9713L73.1323 10.7843L72.7463 6.43981L71.0025 9.57862L70.6165 9.36382L72.7601 5.51133L73.0909 5.69841L73.4769 10.0359L75.2207 6.90404ZM81.7687 11.4217L81.5137 11.7543L80.4453 10.9298L78.0329 14.1102L77.6883 13.8399L80.1007 10.6665L79.0254 9.83499L79.2736 9.50933L81.7687 11.4217ZM83.2368 18.8426L83.7262 17.7894L82.2787 16.2928L81.2173 16.757L80.8933 16.4175L85.215 14.5536L85.5321 14.8793L83.5608 19.1752L83.2368 18.8426ZM82.6854 16.1126L83.9123 17.3875L84.9807 15.101L82.6785 16.1126H82.6854ZM87.5378 24.2957C87.3559 24.0518 87.2255 23.7731 87.1545 23.4767C87.0836 23.1803 87.0736 22.8725 87.1253 22.5721C87.1769 22.2717 87.289 21.9851 87.4548 21.7298C87.6205 21.4745 87.8364 21.256 88.0892 21.0876C88.334 20.909 88.6124 20.7823 88.9075 20.7155C89.2025 20.6486 89.5081 20.6428 89.8054 20.6986C90.1028 20.7544 90.3857 20.8705 90.6369 21.0398C90.8882 21.2091 91.1025 21.4281 91.2667 21.6835C91.4855 21.9988 91.6184 22.3661 91.6522 22.749C91.6861 23.1319 91.6197 23.517 91.4597 23.8661L91.053 23.679C91.1909 23.4088 91.2598 23.1178 91.2253 22.7991C91.1997 22.4847 91.0902 22.183 90.9083 21.926C90.776 21.7187 90.6028 21.5408 90.3994 21.4034C90.196 21.266 89.9668 21.172 89.7258 21.1272C89.4849 21.0824 89.2373 21.0877 88.9985 21.1429C88.7597 21.198 88.5347 21.3019 88.3373 21.4479C88.1336 21.5851 87.9597 21.7625 87.8261 21.9692C87.6925 22.1759 87.602 22.4078 87.5601 22.6507C87.5182 22.8936 87.5258 23.1425 87.5824 23.3824C87.639 23.6223 87.7434 23.8481 87.8893 24.0463C88.0754 24.3234 88.3098 24.5174 88.5924 24.6491C88.8819 24.7877 89.1713 24.8292 89.4746 24.7877L89.516 25.238C89.1329 25.2698 88.7484 25.1993 88.401 25.0339C88.0537 24.8684 87.756 24.6138 87.5378 24.2957ZM95.3747 28.952L95.0094 29.139L94.389 27.9334L90.8531 29.7488L90.6464 29.3608L94.1961 27.5385L93.5826 26.3328L93.9548 26.1388L95.3747 28.952ZM96.7877 42.3041L97.1874 42.2486L97.4976 44.4936L97.1047 44.549L96.7877 42.3041ZM94.6441 59.8412C94.6962 59.5417 94.8086 59.2559 94.9742 59.0015C95.1399 58.747 95.3554 58.5291 95.6076 58.3612C95.8598 58.1932 96.1434 58.0787 96.4411 58.0247C96.7388 57.9706 97.0443 57.978 97.3391 58.0466C97.9594 58.1852 98.4419 58.5039 98.7865 59.0236C99.1243 59.5433 99.2277 60.1322 99.0898 60.7836C99.0147 61.1623 98.8412 61.5144 98.587 61.804C98.3328 62.0937 98.0069 62.3105 97.6423 62.4326L97.5045 62.0031C97.794 61.9199 98.0421 61.7675 98.2558 61.5319C98.4626 61.2963 98.6004 61.0191 98.6693 60.7004C98.73 60.4606 98.7409 60.2109 98.7014 59.9667C98.6618 59.7225 98.5726 59.4892 98.4394 59.2811C98.3062 59.0731 98.1318 58.8949 97.9271 58.7576C97.7224 58.6203 97.4917 58.5269 97.2495 58.4831C97.0105 58.4277 96.7628 58.4217 96.5215 58.4656C96.2802 58.5096 96.0503 58.6024 95.8459 58.7386C95.6414 58.8747 95.4667 59.0513 95.3324 59.2576C95.198 59.4638 95.1069 59.6954 95.0645 59.9382C94.9956 60.257 95.0094 60.5618 95.1128 60.8667C95.2093 61.1646 95.3747 61.4141 95.609 61.6012L95.3195 61.9407C95.0301 61.6912 94.8233 61.3864 94.6992 61.0053C94.582 60.6311 94.5614 60.2431 94.6441 59.8412ZM92.6935 68.35C92.5702 68.0751 92.5041 67.7778 92.4994 67.4763C92.4946 67.1749 92.5513 66.8756 92.6659 66.5969C92.8933 66.0011 93.2931 65.5784 93.8652 65.3289C94.1373 65.2053 94.4316 65.1384 94.7301 65.1325C95.0287 65.1265 95.3254 65.1816 95.6021 65.2943C96.1949 65.5299 96.6153 65.9248 96.8635 66.4999C97.1185 67.075 97.1254 67.6571 96.8979 68.253C96.7951 68.5356 96.6356 68.7941 96.4293 69.0122C96.223 69.2303 95.9743 69.4035 95.6986 69.521C95.1266 69.7704 94.5476 69.7843 93.9617 69.5556C93.6798 69.452 93.422 69.2916 93.2039 69.0843C92.9858 68.877 92.8121 68.6271 92.6935 68.35ZM94.0306 65.7239C93.5757 65.9318 93.2518 66.2713 93.0657 66.7563C92.8796 67.2413 92.8865 67.7125 93.0863 68.1698C93.2931 68.6341 93.6377 68.9528 94.1202 69.1399C94.6027 69.327 95.0714 69.327 95.5263 69.126C95.7501 69.0321 95.9521 68.8924 96.1194 68.7159C96.2867 68.5394 96.4157 68.3298 96.4982 68.1005C96.6912 67.6155 96.6774 67.1374 96.4706 66.6801C96.3735 66.457 96.2325 66.2561 96.0559 66.0893C95.8794 65.9226 95.6711 65.7936 95.4436 65.71C95.2193 65.6167 94.9785 65.5699 94.7357 65.5723C94.4929 65.5746 94.2531 65.6262 94.0306 65.7239ZM92.7141 76.6509L92.4936 77.0319L88.7164 74.7662L88.9094 74.4405L93.2311 74.1703L90.1639 72.3272L90.3913 71.953L94.1616 74.2119L93.9686 74.5375L89.6469 74.8147L92.7141 76.6509ZM88.041 83.1156L87.717 82.8523L88.5648 81.7991L85.4769 79.2839L85.7526 78.9374L88.8405 81.4526L89.6883 80.3994L90.0123 80.6627L88.041 83.1156ZM80.6383 84.3974L81.6722 84.9171L83.2024 83.4967L82.7681 82.4227L83.1128 82.1039L84.8428 86.5038L84.512 86.8087L80.3006 84.7161L80.6452 84.3974H80.6383ZM83.3678 83.9124L82.0651 85.118L84.3121 86.2544L83.3678 83.9124ZM75.1173 88.5825C75.3637 88.4056 75.6434 88.2812 75.9394 88.2171C76.2353 88.1529 76.5411 88.1502 76.8381 88.2093C77.1351 88.2684 77.4169 88.3879 77.6663 88.5605C77.9156 88.7331 78.1272 88.9552 78.2879 89.213C78.6326 89.7535 78.7429 90.3217 78.6257 90.9314C78.5663 91.2331 78.4456 91.5193 78.2713 91.772C78.097 92.0247 77.8727 92.2386 77.6125 92.4004C77.2926 92.6146 76.9221 92.7403 76.5385 92.7646C76.1549 92.7889 75.7717 92.7111 75.4275 92.5389L75.6343 92.1371C75.8893 92.2895 76.1857 92.3519 76.4959 92.338C76.806 92.3172 77.1024 92.2202 77.3781 92.0401C77.5875 91.9114 77.7685 91.7411 77.91 91.5395C78.0515 91.338 78.1504 91.1095 78.2008 90.868C78.2512 90.6266 78.2518 90.3773 78.2028 90.1356C78.1538 89.8939 78.0561 89.6648 77.9157 89.4625C77.7854 89.2544 77.6144 89.0751 77.4131 88.9355C77.2117 88.7959 76.9843 88.6988 76.7445 88.6502C76.5047 88.6016 76.2576 88.6025 76.0182 88.6528C75.7788 88.7031 75.552 88.8018 75.3517 88.9428C75.076 89.123 74.8692 89.3586 74.7314 89.6357C74.5935 89.9198 74.5384 90.2108 74.5659 90.5157L74.1248 90.5434C74.1041 90.1577 74.185 89.7733 74.3592 89.429C74.5335 89.0847 74.795 88.7927 75.1173 88.5825ZM70.2787 96.3429L70.0995 95.9618L71.3126 95.3798L69.6033 91.7767L70.003 91.5827L71.7124 95.1858L72.9255 94.6038L73.1047 94.9849L70.2787 96.3429ZM56.9898 97.41L57.0312 97.8119L54.7842 98.0682L54.7428 97.6733L56.9829 97.41H56.9898Z" fill="black" stroke="black" stroke-width="0.2"/>
</svg>
