<svg width="180" height="182" viewBox="0 0 180 182" fill="none" xmlns="http://www.w3.org/2000/svg">
<mask id="path-1-inside-1_1424_3861" fill="white">
<path d="M80.0936 164.137C80.5769 164.182 81.0461 164.325 81.4725 164.558C81.899 164.791 82.2736 165.109 82.5736 165.493C82.8736 165.876 83.0926 166.317 83.2172 166.789C83.3418 167.261 83.3695 167.753 83.2984 168.235C83.2463 168.72 83.0965 169.188 82.8583 169.613C82.6201 170.037 82.2984 170.408 81.9128 170.703C81.5272 170.998 81.0859 171.211 80.6157 171.329C80.1455 171.447 79.6562 171.468 79.1779 171.39C78.5653 171.317 77.9824 171.084 77.4878 170.714C76.9932 170.344 76.6042 169.849 76.3601 169.279L77.0229 169.002C77.1998 169.446 77.4761 169.835 77.8739 170.146C78.2717 170.457 78.7358 170.646 79.2551 170.701C79.6428 170.767 80.0398 170.752 80.4215 170.658C80.8032 170.563 81.1615 170.391 81.4743 170.151C81.787 169.912 82.0475 169.61 82.2397 169.265C82.4318 168.921 82.5515 168.54 82.5913 168.147C82.6501 167.756 82.6289 167.357 82.5292 166.974C82.4295 166.591 82.2532 166.233 82.0112 165.921C81.7692 165.61 81.4665 165.351 81.1216 165.16C80.7767 164.97 80.3969 164.852 80.0053 164.814C79.486 164.748 78.9888 164.814 78.5248 165.014C78.0608 165.214 77.6963 165.503 77.4201 165.903L76.8455 165.481C77.2195 164.99 77.7158 164.607 78.2842 164.371C78.8526 164.135 79.473 164.054 80.0825 164.137H80.0936ZM66.3377 162.093C67.2104 161.616 68.1385 161.527 69.1108 161.816C70.0942 162.116 70.8125 162.704 71.2877 163.582C71.763 164.47 71.8405 165.392 71.5645 166.369C71.4369 166.833 71.2162 167.265 70.916 167.64C70.6159 168.014 70.2426 168.323 69.8192 168.546C68.9354 169.035 68.0073 169.124 67.035 168.835C66.57 168.706 66.1366 168.481 65.762 168.175C65.3874 167.869 65.0796 167.489 64.8581 167.058C64.6262 166.639 64.482 166.176 64.4344 165.698C64.3868 165.221 64.4368 164.739 64.5814 164.281C64.7107 163.816 64.9331 163.381 65.2351 163.005C65.5371 162.629 65.9123 162.319 66.3377 162.093ZM70.6801 163.904C70.4999 163.555 70.2497 163.248 69.9454 163.001C69.6411 162.755 69.2893 162.574 68.9121 162.471C68.5415 162.354 68.1513 162.313 67.7647 162.351C67.378 162.389 67.003 162.504 66.6618 162.691C66.3205 162.877 66.0202 163.131 65.7786 163.437C65.537 163.742 65.359 164.094 65.2554 164.47C65.1376 164.843 65.0965 165.236 65.1346 165.626C65.1726 166.015 65.2891 166.393 65.4768 166.736C65.8415 167.458 66.4272 167.936 67.2338 168.18C68.0293 168.402 68.7806 168.335 69.4766 167.947C69.8201 167.763 70.1227 167.51 70.3658 167.205C70.6089 166.899 70.7874 166.547 70.8905 166.17C71.1223 165.37 71.0559 164.615 70.6691 163.904H70.6801ZM53.168 163.171L52.5382 162.86L55.6306 156.507L56.1831 156.773L57.1787 163.682L59.6968 158.517L60.3267 158.828L57.2232 165.181L56.6818 164.914L55.6861 157.995L53.168 163.171ZM42.306 156.484L42.6816 155.929L44.4717 157.151L48.0615 151.864L48.6471 152.264L45.0463 157.562L46.8364 158.783L46.4608 159.339L42.306 156.484ZM39.3207 144.733L38.636 146.466L41.0892 148.743L42.7464 147.91L43.2879 148.421L36.5267 151.775L35.9963 151.275L38.7793 144.234L39.3318 144.733H39.3207ZM40.4485 149.065L38.371 147.121L36.847 150.875L40.4485 149.065ZM31.9829 136.381C32.294 136.756 32.5258 137.19 32.6641 137.657C32.8025 138.125 32.8446 138.616 32.7878 139.1C32.731 139.585 32.5766 140.053 32.3339 140.475C32.0912 140.897 31.7653 141.265 31.3762 141.557C31.0012 141.866 30.5672 142.095 30.1008 142.23C29.6344 142.364 29.1456 142.401 28.6644 142.339C28.1832 142.277 27.7197 142.116 27.3026 141.867C26.8854 141.618 26.5233 141.285 26.2385 140.89C25.8573 140.405 25.6097 139.827 25.5204 139.215C25.4311 138.603 25.5032 137.978 25.7296 137.403L26.3926 137.669C26.2049 138.114 26.1276 138.58 26.194 139.08C26.2714 139.591 26.4593 140.046 26.7798 140.468C27.0101 140.789 27.3037 141.06 27.6422 141.262C27.9806 141.464 28.3569 141.594 28.7475 141.644C29.1381 141.694 29.5348 141.663 29.9129 141.552C30.2909 141.442 30.6423 141.254 30.9452 141.001C31.2612 140.765 31.5258 140.467 31.7231 140.125C31.9204 139.782 32.0461 139.403 32.0926 139.01C32.139 138.617 32.1053 138.219 31.9934 137.839C31.8814 137.46 31.6937 137.107 31.4416 136.803C31.1101 136.392 30.7234 136.092 30.2593 135.903C29.8128 135.715 29.3215 135.661 28.845 135.748L28.7344 135.037C29.3445 134.954 29.9658 135.033 30.5359 135.267C31.1061 135.501 31.6051 135.881 31.9829 136.37L31.9829 136.381ZM19.0438 129.595L19.6183 129.262L20.7014 131.15L26.214 127.929L26.5677 128.551L21.044 131.761L22.1271 133.649L21.5637 133.982L19.0438 129.606L19.0438 129.595ZM15.637 108.347L15.0072 108.481L14.3105 104.904L14.9402 104.782L15.637 108.347ZM17.5763 80.0917C17.519 80.5755 17.3643 81.0424 17.1216 81.4641C16.8789 81.8858 16.5533 82.2533 16.1646 82.5443C15.776 82.8353 15.3324 83.0437 14.861 83.1567C14.3895 83.2697 13.9002 83.2849 13.4226 83.2016C12.9418 83.1375 12.479 82.9757 12.0624 82.7258C11.6459 82.476 11.2844 82.1434 10.9999 81.7484C10.7155 81.3534 10.5142 80.9043 10.4082 80.4285C10.3022 79.9527 10.2938 79.4601 10.3835 78.981C10.4704 78.3663 10.7175 77.7858 11.0997 77.2981C11.4818 76.8105 11.9855 76.4331 12.5596 76.2043L12.8248 76.8818C12.3608 77.0373 11.9742 77.3039 11.6538 77.7037C11.3446 78.0924 11.1458 78.5478 11.0575 79.0698C10.9801 79.4594 10.9835 79.8608 11.0674 80.249C11.1514 80.6372 11.3141 81.0038 11.5454 81.3259C11.7767 81.648 12.0716 81.9187 12.4117 82.1211C12.7518 82.3234 13.1298 82.453 13.5219 82.5019C13.9092 82.5712 14.3064 82.5605 14.6893 82.4704C15.0723 82.3803 15.433 82.2127 15.7493 81.9778C16.0657 81.7429 16.331 81.4456 16.5293 81.1041C16.7275 80.7627 16.8545 80.3842 16.9023 79.9917C16.9796 79.4697 16.9353 78.981 16.7474 78.5034C16.575 78.0499 16.2756 77.6564 15.8854 77.3705L16.3272 76.8152C16.8058 77.2059 17.1733 77.7167 17.3926 78.2959C17.6119 78.8751 17.6753 79.5022 17.5763 80.1139L17.5763 80.0917ZM19.9713 66.3081C20.4134 67.1967 20.4799 68.1296 20.1707 69.107C20.0296 69.568 19.7961 69.9951 19.4845 70.3618C19.173 70.7286 18.79 71.0273 18.3591 71.2395C17.4753 71.6949 16.5362 71.7616 15.5749 71.4395C15.1191 71.2981 14.6967 71.0646 14.3338 70.7533C13.9708 70.4419 13.675 70.0594 13.4643 69.629C13.2369 69.2012 13.0998 68.7308 13.0616 68.2472C13.0235 67.7637 13.0852 67.2774 13.2428 66.819C13.5741 65.8527 14.1706 65.1419 15.0655 64.6865C15.9493 64.2422 16.8773 64.1645 17.8386 64.4866C18.2987 64.6284 18.7251 64.863 19.0918 65.1763C19.4585 65.4895 19.7578 65.8746 19.9713 66.3081ZM18.0607 70.6176C18.4084 70.4467 18.7173 70.2056 18.9681 69.9094C19.219 69.6132 19.4064 69.2683 19.5188 68.896C19.6454 68.5259 19.6963 68.1339 19.6686 67.7434C19.6409 67.353 19.5352 66.9722 19.3577 66.6238C19.1802 66.2754 18.9347 65.9665 18.6357 65.7157C18.3367 65.4649 17.9905 65.2773 17.6178 65.1641C17.2536 65.0348 16.8671 64.9809 16.4816 65.0057C16.0962 65.0305 15.7197 65.1335 15.3749 65.3085C14.6458 65.6639 14.1598 66.2415 13.8947 67.0412C13.6408 67.8297 13.6962 68.5961 14.0719 69.3069C14.2459 69.6557 14.4883 69.9654 14.7846 70.2174C15.0809 70.4693 15.4249 70.6584 15.7958 70.773C16.5692 71.0285 17.3426 70.9841 18.0607 70.6176ZM19.2397 53.0244L19.571 52.3913L25.792 55.69L25.5159 56.2342L18.6107 57.0339L23.6935 59.7218L23.3621 60.3437L17.1301 57.045L17.4173 56.5119L24.3115 55.7122L19.2286 53.0244H19.2397ZM26.1541 42.273L26.6956 42.6728L25.4253 44.4277L30.5967 48.1929L30.177 48.7593L25.0166 45.0052L23.7464 46.7601L23.216 46.3714L26.1541 42.273ZM37.9093 39.5851L36.2077 38.8409L33.8879 41.2511L34.6616 42.9283L34.1535 43.4725L30.9924 36.5863L31.5005 36.0531L38.4285 39.052L37.9093 39.5851ZM33.5895 40.5958L35.5668 38.5522L31.8763 36.9306L33.5895 40.5958ZM46.3933 32.4101C46.0137 32.7137 45.5763 32.936 45.108 33.0634C44.6398 33.1908 44.1505 33.2206 43.6703 33.1509C43.1902 33.0812 42.7292 32.9135 42.3159 32.6581C41.9025 32.4028 41.5454 32.0651 41.2666 31.6659C40.9694 31.2795 40.7538 30.8361 40.633 30.363C40.5123 29.8898 40.4889 29.3969 40.5643 28.9144C40.6397 28.4319 40.8124 27.9699 41.0717 27.5569C41.331 27.1439 41.6714 26.7884 42.0722 26.5124C42.5653 26.1427 43.1465 25.91 43.7575 25.8379C44.3684 25.7657 44.9875 25.8566 45.5525 26.1014L45.2653 26.7678C44.8344 26.5457 44.3703 26.468 43.8621 26.5235C43.3649 26.579 42.9009 26.7567 42.4811 27.0788C42.1559 27.3008 41.8794 27.5876 41.6689 27.9214C41.4584 28.2551 41.3182 28.6288 41.2572 29.0193C41.1962 29.4097 41.2155 29.8086 41.314 30.1913C41.4126 30.5739 41.5882 30.9322 41.83 31.2439C42.0554 31.5695 42.3449 31.8452 42.6805 32.0538C43.0161 32.2625 43.3907 32.3997 43.7812 32.457C44.1716 32.5142 44.5696 32.4903 44.9505 32.3867C45.3314 32.2832 45.687 32.1021 45.9955 31.8548C46.4152 31.5438 46.7245 31.155 46.9233 30.6885C47.1221 30.2221 47.1773 29.7445 47.0998 29.2669L47.818 29.178C47.8843 29.7924 47.7886 30.4136 47.5405 30.979C47.2923 31.5444 46.9005 32.0341 46.4044 32.399L46.3933 32.4101ZM53.4731 19.5706L53.7936 20.1593L51.8934 21.2033L54.9328 26.8345L54.3142 27.1677L51.2748 21.5365L49.3746 22.5806L49.0541 21.9919L53.4731 19.5706ZM74.6637 16.7162L74.5531 16.0831L78.1217 15.4722L78.2323 16.1053L74.6637 16.7162ZM102.694 19.4151C102.214 19.3448 101.753 19.1767 101.339 18.9211C100.926 18.6655 100.568 18.3277 100.289 17.9285C100.01 17.5292 99.8142 17.0769 99.7148 16.5992C99.6153 16.1215 99.6139 15.6284 99.7106 15.1501C99.7879 14.6685 99.9621 14.2078 100.223 13.7961C100.483 13.3845 100.824 13.0307 101.226 12.7562C101.627 12.4818 102.08 12.2925 102.556 12.1999C103.033 12.1074 103.523 12.1135 103.997 12.2179C104.603 12.3252 105.17 12.5911 105.642 12.9888C106.113 13.3866 106.472 13.9022 106.682 14.4837L105.997 14.728C105.858 14.2653 105.59 13.8527 105.224 13.5396C104.837 13.2064 104.384 12.9843 103.875 12.8954C103.491 12.8086 103.092 12.8025 102.705 12.8773C102.317 12.9522 101.949 13.1064 101.624 13.3305C101.299 13.5545 101.023 13.8435 100.813 14.1795C100.604 14.5155 100.465 14.8913 100.407 15.2834C100.327 15.6709 100.327 16.0707 100.407 16.4582C100.487 16.8457 100.644 17.2129 100.869 17.5372C101.095 17.8616 101.384 18.1363 101.718 18.3446C102.053 18.5529 102.427 18.6904 102.816 18.7487C103.324 18.8376 103.821 18.8042 104.296 18.6376C104.771 18.4488 105.158 18.1712 105.445 17.7935L105.998 18.2489C105.596 18.7194 105.079 19.075 104.497 19.2798C103.915 19.4846 103.289 19.5313 102.683 19.4151H102.694ZM116.307 22.1918C115.423 22.6361 114.484 22.6694 113.523 22.3251C113.066 22.1704 112.646 21.9229 112.289 21.5981C111.931 21.2732 111.644 20.878 111.445 20.437C111.239 20.0023 111.123 19.53 111.104 19.0489C111.085 18.5678 111.163 18.0878 111.334 17.638C111.665 16.6828 112.284 15.9942 113.179 15.5611C114.085 15.1279 115.013 15.0835 115.974 15.4278C116.935 15.7721 117.632 16.4052 118.052 17.3159C118.472 18.2156 118.516 19.1486 118.185 20.1149C118.03 20.5731 117.783 20.9947 117.46 21.3538C117.137 21.7129 116.745 22.0018 116.307 22.2029L116.307 22.1918ZM112.075 20.1593C112.406 20.8812 112.97 21.3921 113.755 21.6698C114.118 21.8063 114.506 21.8679 114.893 21.8509C115.281 21.8338 115.662 21.7385 116.012 21.5707C116.363 21.4028 116.676 21.1658 116.933 20.8737C117.191 20.5816 117.387 20.2405 117.511 19.8705C117.649 19.5064 117.712 19.1179 117.697 18.7285C117.682 18.3391 117.588 17.9568 117.422 17.6047C117.263 17.2458 117.032 16.9241 116.743 16.6602C116.454 16.3962 116.113 16.1959 115.742 16.072C115.379 15.9327 114.992 15.8706 114.604 15.8897C114.216 15.9088 113.836 16.0087 113.488 16.183C112.759 16.5385 112.273 17.1049 111.986 17.8824C111.71 18.6599 111.743 19.4151 112.075 20.1593ZM129.51 21.8364L130.129 22.1696L126.694 28.3561L126.163 28.0562L125.543 21.0923L122.749 26.1236L122.13 25.7793L125.565 19.6039L126.095 19.9038L126.715 26.8567L129.51 21.8364ZM140.007 29.0781L139.599 29.6112L137.886 28.2895L134.02 33.3875L133.467 32.9543L137.333 27.8674L135.609 26.5346L136.007 26.0126L140.007 29.0781ZM142.363 40.9735L143.147 39.2852L140.826 36.8861L139.125 37.6303L138.606 37.0861L145.533 34.0983L146.041 34.6204L142.882 41.5066L142.363 40.9735ZM141.478 36.5974L143.445 38.641L145.157 34.9758L141.467 36.5974H141.478ZM149.259 49.7145C148.967 49.3236 148.758 48.8768 148.644 48.4017C148.53 47.9266 148.514 47.4332 148.597 46.9517C148.68 46.4701 148.859 46.0107 149.125 45.6015C149.391 45.1923 149.737 44.842 150.142 44.5721C150.534 44.2857 150.98 44.0827 151.453 43.9755C151.926 43.8683 152.416 43.8591 152.893 43.9485C153.369 44.0379 153.823 44.224 154.226 44.4954C154.628 44.7669 154.972 45.1179 155.235 45.5273C155.586 46.0326 155.799 46.6214 155.854 47.2352C155.908 47.8489 155.802 48.4663 155.545 49.0259L154.893 48.726C155.114 48.2929 155.225 47.8264 155.169 47.3155C155.128 46.8115 154.952 46.328 154.661 45.916C154.449 45.5836 154.171 45.2985 153.845 45.0783C153.519 44.858 153.151 44.7073 152.765 44.6355C152.379 44.5637 151.982 44.5722 151.599 44.6607C151.216 44.7491 150.856 44.9155 150.54 45.1496C150.213 45.3696 149.934 45.6538 149.72 45.9852C149.506 46.3166 149.361 46.6883 149.294 47.0776C149.227 47.467 149.239 47.866 149.33 48.2505C149.421 48.6351 149.588 48.9971 149.822 49.3147C150.121 49.7589 150.496 50.0699 150.949 50.281C151.413 50.5031 151.877 50.5697 152.364 50.5031L152.43 51.2251C151.816 51.2759 151.199 51.163 150.643 50.8978C150.086 50.6326 149.609 50.2244 149.259 49.7145ZM161.822 57.1783L161.237 57.4782L160.242 55.5456L154.575 58.4556L154.243 57.8336L159.933 54.9125L158.949 52.9799L159.546 52.6689L161.822 57.1783ZM164.091 78.5811L164.732 78.4923L165.23 82.0909L164.6 82.1798L164.091 78.5811ZM160.66 106.692C160.744 106.212 160.924 105.754 161.189 105.346C161.455 104.938 161.8 104.589 162.204 104.32C162.609 104.051 163.063 103.867 163.54 103.781C164.018 103.694 164.507 103.706 164.98 103.816C165.974 104.038 166.748 104.549 167.3 105.382C167.842 106.215 168.008 107.159 167.787 108.203C167.667 108.81 167.389 109.375 166.981 109.839C166.574 110.303 166.051 110.651 165.467 110.846L165.246 110.158C165.71 110.025 166.108 109.78 166.45 109.403C166.782 109.025 167.003 108.581 167.113 108.07C167.21 107.685 167.227 107.285 167.164 106.894C167.101 106.502 166.958 106.128 166.744 105.795C166.53 105.461 166.251 105.176 165.923 104.956C165.594 104.735 165.225 104.586 164.836 104.516C164.453 104.427 164.056 104.417 163.669 104.488C163.283 104.558 162.914 104.707 162.586 104.925C162.259 105.143 161.979 105.426 161.763 105.757C161.548 106.088 161.402 106.459 161.334 106.848C161.224 107.359 161.246 107.848 161.412 108.336C161.567 108.814 161.832 109.214 162.208 109.514L161.744 110.058C161.28 109.658 160.948 109.169 160.749 108.558C160.561 107.959 160.528 107.337 160.66 106.692ZM157.536 120.332C157.338 119.891 157.232 119.414 157.225 118.931C157.217 118.448 157.308 117.968 157.491 117.522C157.856 116.566 158.496 115.889 159.413 115.489C159.85 115.291 160.321 115.184 160.8 115.174C161.278 115.165 161.754 115.253 162.198 115.434C163.148 115.811 163.822 116.444 164.22 117.366C164.629 118.288 164.64 119.221 164.276 120.176C164.111 120.629 163.855 121.044 163.525 121.393C163.194 121.743 162.795 122.02 162.354 122.209C161.437 122.609 160.509 122.631 159.569 122.264C159.117 122.098 158.704 121.841 158.354 121.509C158.005 121.176 157.726 120.776 157.536 120.332ZM159.679 116.122C158.95 116.455 158.43 117 158.132 117.777C157.834 118.555 157.845 119.31 158.166 120.043C158.497 120.787 159.05 121.298 159.823 121.598C160.597 121.898 161.348 121.898 162.077 121.576C162.436 121.425 162.76 121.201 163.028 120.918C163.296 120.635 163.503 120.299 163.635 119.932C163.944 119.154 163.922 118.388 163.59 117.655C163.434 117.297 163.208 116.975 162.925 116.708C162.642 116.441 162.308 116.234 161.944 116.1C161.584 115.95 161.198 115.875 160.809 115.879C160.42 115.883 160.035 115.966 159.679 116.122ZM157.572 133.638L157.218 134.249L151.163 130.617L151.472 130.095L158.4 129.661L153.482 126.707L153.847 126.107L159.891 129.728L159.582 130.25L152.654 130.694L157.572 133.638ZM150.083 144L149.563 143.578L150.922 141.89L145.971 137.858L146.413 137.303L151.364 141.335L152.722 139.646L153.242 140.068L150.083 144ZM138.217 146.055L139.874 146.888L142.327 144.611L141.63 142.89L142.183 142.379L144.957 149.432L144.427 149.92L137.676 146.566L138.228 146.055H138.217ZM142.592 145.278L140.504 147.21L144.106 149.032L142.592 145.278ZM129.368 152.764C129.763 152.48 130.211 152.281 130.686 152.178C131.16 152.075 131.65 152.071 132.126 152.165C132.602 152.26 133.054 152.452 133.454 152.728C133.854 153.005 134.193 153.361 134.451 153.774C135.003 154.641 135.18 155.551 134.993 156.529C134.897 157.012 134.704 157.471 134.425 157.876C134.145 158.281 133.786 158.624 133.369 158.883C132.856 159.227 132.262 159.428 131.647 159.467C131.032 159.506 130.418 159.382 129.866 159.106L130.198 158.461C130.607 158.706 131.082 158.806 131.579 158.783C132.076 158.75 132.551 158.595 132.993 158.306C133.329 158.1 133.619 157.827 133.846 157.504C134.072 157.18 134.231 156.814 134.311 156.427C134.392 156.04 134.393 155.641 134.314 155.253C134.236 154.866 134.079 154.498 133.854 154.174C133.645 153.841 133.371 153.553 133.048 153.329C132.725 153.106 132.361 152.95 131.976 152.872C131.592 152.794 131.196 152.796 130.812 152.876C130.428 152.957 130.065 153.115 129.744 153.341C129.302 153.63 128.971 154.008 128.75 154.452C128.529 154.907 128.441 155.374 128.485 155.862L127.778 155.907C127.744 155.289 127.874 154.672 128.153 154.121C128.432 153.569 128.851 153.101 129.368 152.764ZM121.614 165.203L121.327 164.592L123.271 163.659L120.53 157.884L121.171 157.573L123.912 163.348L125.856 162.415L126.144 163.026L121.614 165.203ZM100.313 166.914L100.379 167.558L96.7776 167.969L96.7112 167.336L100.302 166.914H100.313Z"/>
</mask>
<path d="M80.0936 164.137C80.5769 164.182 81.0461 164.325 81.4725 164.558C81.899 164.791 82.2736 165.109 82.5736 165.493C82.8736 165.876 83.0926 166.317 83.2172 166.789C83.3418 167.261 83.3695 167.753 83.2984 168.235C83.2463 168.72 83.0965 169.188 82.8583 169.613C82.6201 170.037 82.2984 170.408 81.9128 170.703C81.5272 170.998 81.0859 171.211 80.6157 171.329C80.1455 171.447 79.6562 171.468 79.1779 171.39C78.5653 171.317 77.9824 171.084 77.4878 170.714C76.9932 170.344 76.6042 169.849 76.3601 169.279L77.0229 169.002C77.1998 169.446 77.4761 169.835 77.8739 170.146C78.2717 170.457 78.7358 170.646 79.2551 170.701C79.6428 170.767 80.0398 170.752 80.4215 170.658C80.8032 170.563 81.1615 170.391 81.4743 170.151C81.787 169.912 82.0475 169.61 82.2397 169.265C82.4318 168.921 82.5515 168.54 82.5913 168.147C82.6501 167.756 82.6289 167.357 82.5292 166.974C82.4295 166.591 82.2532 166.233 82.0112 165.921C81.7692 165.61 81.4665 165.351 81.1216 165.16C80.7767 164.97 80.3969 164.852 80.0053 164.814C79.486 164.748 78.9888 164.814 78.5248 165.014C78.0608 165.214 77.6963 165.503 77.4201 165.903L76.8455 165.481C77.2195 164.99 77.7158 164.607 78.2842 164.371C78.8526 164.135 79.473 164.054 80.0825 164.137H80.0936ZM66.3377 162.093C67.2104 161.616 68.1385 161.527 69.1108 161.816C70.0942 162.116 70.8125 162.704 71.2877 163.582C71.763 164.47 71.8405 165.392 71.5645 166.369C71.4369 166.833 71.2162 167.265 70.916 167.64C70.6159 168.014 70.2426 168.323 69.8192 168.546C68.9354 169.035 68.0073 169.124 67.035 168.835C66.57 168.706 66.1366 168.481 65.762 168.175C65.3874 167.869 65.0796 167.489 64.8581 167.058C64.6262 166.639 64.482 166.176 64.4344 165.698C64.3868 165.221 64.4368 164.739 64.5814 164.281C64.7107 163.816 64.9331 163.381 65.2351 163.005C65.5371 162.629 65.9123 162.319 66.3377 162.093ZM70.6801 163.904C70.4999 163.555 70.2497 163.248 69.9454 163.001C69.6411 162.755 69.2893 162.574 68.9121 162.471C68.5415 162.354 68.1513 162.313 67.7647 162.351C67.378 162.389 67.003 162.504 66.6618 162.691C66.3205 162.877 66.0202 163.131 65.7786 163.437C65.537 163.742 65.359 164.094 65.2554 164.47C65.1376 164.843 65.0965 165.236 65.1346 165.626C65.1726 166.015 65.2891 166.393 65.4768 166.736C65.8415 167.458 66.4272 167.936 67.2338 168.18C68.0293 168.402 68.7806 168.335 69.4766 167.947C69.8201 167.763 70.1227 167.51 70.3658 167.205C70.6089 166.899 70.7874 166.547 70.8905 166.17C71.1223 165.37 71.0559 164.615 70.6691 163.904H70.6801ZM53.168 163.171L52.5382 162.86L55.6306 156.507L56.1831 156.773L57.1787 163.682L59.6968 158.517L60.3267 158.828L57.2232 165.181L56.6818 164.914L55.6861 157.995L53.168 163.171ZM42.306 156.484L42.6816 155.929L44.4717 157.151L48.0615 151.864L48.6471 152.264L45.0463 157.562L46.8364 158.783L46.4608 159.339L42.306 156.484ZM39.3207 144.733L38.636 146.466L41.0892 148.743L42.7464 147.91L43.2879 148.421L36.5267 151.775L35.9963 151.275L38.7793 144.234L39.3318 144.733H39.3207ZM40.4485 149.065L38.371 147.121L36.847 150.875L40.4485 149.065ZM31.9829 136.381C32.294 136.756 32.5258 137.19 32.6641 137.657C32.8025 138.125 32.8446 138.616 32.7878 139.1C32.731 139.585 32.5766 140.053 32.3339 140.475C32.0912 140.897 31.7653 141.265 31.3762 141.557C31.0012 141.866 30.5672 142.095 30.1008 142.23C29.6344 142.364 29.1456 142.401 28.6644 142.339C28.1832 142.277 27.7197 142.116 27.3026 141.867C26.8854 141.618 26.5233 141.285 26.2385 140.89C25.8573 140.405 25.6097 139.827 25.5204 139.215C25.4311 138.603 25.5032 137.978 25.7296 137.403L26.3926 137.669C26.2049 138.114 26.1276 138.58 26.194 139.08C26.2714 139.591 26.4593 140.046 26.7798 140.468C27.0101 140.789 27.3037 141.06 27.6422 141.262C27.9806 141.464 28.3569 141.594 28.7475 141.644C29.1381 141.694 29.5348 141.663 29.9129 141.552C30.2909 141.442 30.6423 141.254 30.9452 141.001C31.2612 140.765 31.5258 140.467 31.7231 140.125C31.9204 139.782 32.0461 139.403 32.0926 139.01C32.139 138.617 32.1053 138.219 31.9934 137.839C31.8814 137.46 31.6937 137.107 31.4416 136.803C31.1101 136.392 30.7234 136.092 30.2593 135.903C29.8128 135.715 29.3215 135.661 28.845 135.748L28.7344 135.037C29.3445 134.954 29.9658 135.033 30.5359 135.267C31.1061 135.501 31.6051 135.881 31.9829 136.37L31.9829 136.381ZM19.0438 129.595L19.6183 129.262L20.7014 131.15L26.214 127.929L26.5677 128.551L21.044 131.761L22.1271 133.649L21.5637 133.982L19.0438 129.606L19.0438 129.595ZM15.637 108.347L15.0072 108.481L14.3105 104.904L14.9402 104.782L15.637 108.347ZM17.5763 80.0917C17.519 80.5755 17.3643 81.0424 17.1216 81.4641C16.8789 81.8858 16.5533 82.2533 16.1646 82.5443C15.776 82.8353 15.3324 83.0437 14.861 83.1567C14.3895 83.2697 13.9002 83.2849 13.4226 83.2016C12.9418 83.1375 12.479 82.9757 12.0624 82.7258C11.6459 82.476 11.2844 82.1434 10.9999 81.7484C10.7155 81.3534 10.5142 80.9043 10.4082 80.4285C10.3022 79.9527 10.2938 79.4601 10.3835 78.981C10.4704 78.3663 10.7175 77.7858 11.0997 77.2981C11.4818 76.8105 11.9855 76.4331 12.5596 76.2043L12.8248 76.8818C12.3608 77.0373 11.9742 77.3039 11.6538 77.7037C11.3446 78.0924 11.1458 78.5478 11.0575 79.0698C10.9801 79.4594 10.9835 79.8608 11.0674 80.249C11.1514 80.6372 11.3141 81.0038 11.5454 81.3259C11.7767 81.648 12.0716 81.9187 12.4117 82.1211C12.7518 82.3234 13.1298 82.453 13.5219 82.5019C13.9092 82.5712 14.3064 82.5605 14.6893 82.4704C15.0723 82.3803 15.433 82.2127 15.7493 81.9778C16.0657 81.7429 16.331 81.4456 16.5293 81.1041C16.7275 80.7627 16.8545 80.3842 16.9023 79.9917C16.9796 79.4697 16.9353 78.981 16.7474 78.5034C16.575 78.0499 16.2756 77.6564 15.8854 77.3705L16.3272 76.8152C16.8058 77.2059 17.1733 77.7167 17.3926 78.2959C17.6119 78.8751 17.6753 79.5022 17.5763 80.1139L17.5763 80.0917ZM19.9713 66.3081C20.4134 67.1967 20.4799 68.1296 20.1707 69.107C20.0296 69.568 19.7961 69.9951 19.4845 70.3618C19.173 70.7286 18.79 71.0273 18.3591 71.2395C17.4753 71.6949 16.5362 71.7616 15.5749 71.4395C15.1191 71.2981 14.6967 71.0646 14.3338 70.7533C13.9708 70.4419 13.675 70.0594 13.4643 69.629C13.2369 69.2012 13.0998 68.7308 13.0616 68.2472C13.0235 67.7637 13.0852 67.2774 13.2428 66.819C13.5741 65.8527 14.1706 65.1419 15.0655 64.6865C15.9493 64.2422 16.8773 64.1645 17.8386 64.4866C18.2987 64.6284 18.7251 64.863 19.0918 65.1763C19.4585 65.4895 19.7578 65.8746 19.9713 66.3081ZM18.0607 70.6176C18.4084 70.4467 18.7173 70.2056 18.9681 69.9094C19.219 69.6132 19.4064 69.2683 19.5188 68.896C19.6454 68.5259 19.6963 68.1339 19.6686 67.7434C19.6409 67.353 19.5352 66.9722 19.3577 66.6238C19.1802 66.2754 18.9347 65.9665 18.6357 65.7157C18.3367 65.4649 17.9905 65.2773 17.6178 65.1641C17.2536 65.0348 16.8671 64.9809 16.4816 65.0057C16.0962 65.0305 15.7197 65.1335 15.3749 65.3085C14.6458 65.6639 14.1598 66.2415 13.8947 67.0412C13.6408 67.8297 13.6962 68.5961 14.0719 69.3069C14.2459 69.6557 14.4883 69.9654 14.7846 70.2174C15.0809 70.4693 15.4249 70.6584 15.7958 70.773C16.5692 71.0285 17.3426 70.9841 18.0607 70.6176ZM19.2397 53.0244L19.571 52.3913L25.792 55.69L25.5159 56.2342L18.6107 57.0339L23.6935 59.7218L23.3621 60.3437L17.1301 57.045L17.4173 56.5119L24.3115 55.7122L19.2286 53.0244H19.2397ZM26.1541 42.273L26.6956 42.6728L25.4253 44.4277L30.5967 48.1929L30.177 48.7593L25.0166 45.0052L23.7464 46.7601L23.216 46.3714L26.1541 42.273ZM37.9093 39.5851L36.2077 38.8409L33.8879 41.2511L34.6616 42.9283L34.1535 43.4725L30.9924 36.5863L31.5005 36.0531L38.4285 39.052L37.9093 39.5851ZM33.5895 40.5958L35.5668 38.5522L31.8763 36.9306L33.5895 40.5958ZM46.3933 32.4101C46.0137 32.7137 45.5763 32.936 45.108 33.0634C44.6398 33.1908 44.1505 33.2206 43.6703 33.1509C43.1902 33.0812 42.7292 32.9135 42.3159 32.6581C41.9025 32.4028 41.5454 32.0651 41.2666 31.6659C40.9694 31.2795 40.7538 30.8361 40.633 30.363C40.5123 29.8898 40.4889 29.3969 40.5643 28.9144C40.6397 28.4319 40.8124 27.9699 41.0717 27.5569C41.331 27.1439 41.6714 26.7884 42.0722 26.5124C42.5653 26.1427 43.1465 25.91 43.7575 25.8379C44.3684 25.7657 44.9875 25.8566 45.5525 26.1014L45.2653 26.7678C44.8344 26.5457 44.3703 26.468 43.8621 26.5235C43.3649 26.579 42.9009 26.7567 42.4811 27.0788C42.1559 27.3008 41.8794 27.5876 41.6689 27.9214C41.4584 28.2551 41.3182 28.6288 41.2572 29.0193C41.1962 29.4097 41.2155 29.8086 41.314 30.1913C41.4126 30.5739 41.5882 30.9322 41.83 31.2439C42.0554 31.5695 42.3449 31.8452 42.6805 32.0538C43.0161 32.2625 43.3907 32.3997 43.7812 32.457C44.1716 32.5142 44.5696 32.4903 44.9505 32.3867C45.3314 32.2832 45.687 32.1021 45.9955 31.8548C46.4152 31.5438 46.7245 31.155 46.9233 30.6885C47.1221 30.2221 47.1773 29.7445 47.0998 29.2669L47.818 29.178C47.8843 29.7924 47.7886 30.4136 47.5405 30.979C47.2923 31.5444 46.9005 32.0341 46.4044 32.399L46.3933 32.4101ZM53.4731 19.5706L53.7936 20.1593L51.8934 21.2033L54.9328 26.8345L54.3142 27.1677L51.2748 21.5365L49.3746 22.5806L49.0541 21.9919L53.4731 19.5706ZM74.6637 16.7162L74.5531 16.0831L78.1217 15.4722L78.2323 16.1053L74.6637 16.7162ZM102.694 19.4151C102.214 19.3448 101.753 19.1767 101.339 18.9211C100.926 18.6655 100.568 18.3277 100.289 17.9285C100.01 17.5292 99.8142 17.0769 99.7148 16.5992C99.6153 16.1215 99.6139 15.6284 99.7106 15.1501C99.7879 14.6685 99.9621 14.2078 100.223 13.7961C100.483 13.3845 100.824 13.0307 101.226 12.7562C101.627 12.4818 102.08 12.2925 102.556 12.1999C103.033 12.1074 103.523 12.1135 103.997 12.2179C104.603 12.3252 105.17 12.5911 105.642 12.9888C106.113 13.3866 106.472 13.9022 106.682 14.4837L105.997 14.728C105.858 14.2653 105.59 13.8527 105.224 13.5396C104.837 13.2064 104.384 12.9843 103.875 12.8954C103.491 12.8086 103.092 12.8025 102.705 12.8773C102.317 12.9522 101.949 13.1064 101.624 13.3305C101.299 13.5545 101.023 13.8435 100.813 14.1795C100.604 14.5155 100.465 14.8913 100.407 15.2834C100.327 15.6709 100.327 16.0707 100.407 16.4582C100.487 16.8457 100.644 17.2129 100.869 17.5372C101.095 17.8616 101.384 18.1363 101.718 18.3446C102.053 18.5529 102.427 18.6904 102.816 18.7487C103.324 18.8376 103.821 18.8042 104.296 18.6376C104.771 18.4488 105.158 18.1712 105.445 17.7935L105.998 18.2489C105.596 18.7194 105.079 19.075 104.497 19.2798C103.915 19.4846 103.289 19.5313 102.683 19.4151H102.694ZM116.307 22.1918C115.423 22.6361 114.484 22.6694 113.523 22.3251C113.066 22.1704 112.646 21.9229 112.289 21.5981C111.931 21.2732 111.644 20.878 111.445 20.437C111.239 20.0023 111.123 19.53 111.104 19.0489C111.085 18.5678 111.163 18.0878 111.334 17.638C111.665 16.6828 112.284 15.9942 113.179 15.5611C114.085 15.1279 115.013 15.0835 115.974 15.4278C116.935 15.7721 117.632 16.4052 118.052 17.3159C118.472 18.2156 118.516 19.1486 118.185 20.1149C118.03 20.5731 117.783 20.9947 117.46 21.3538C117.137 21.7129 116.745 22.0018 116.307 22.2029L116.307 22.1918ZM112.075 20.1593C112.406 20.8812 112.97 21.3921 113.755 21.6698C114.118 21.8063 114.506 21.8679 114.893 21.8509C115.281 21.8338 115.662 21.7385 116.012 21.5707C116.363 21.4028 116.676 21.1658 116.933 20.8737C117.191 20.5816 117.387 20.2405 117.511 19.8705C117.649 19.5064 117.712 19.1179 117.697 18.7285C117.682 18.3391 117.588 17.9568 117.422 17.6047C117.263 17.2458 117.032 16.9241 116.743 16.6602C116.454 16.3962 116.113 16.1959 115.742 16.072C115.379 15.9327 114.992 15.8706 114.604 15.8897C114.216 15.9088 113.836 16.0087 113.488 16.183C112.759 16.5385 112.273 17.1049 111.986 17.8824C111.71 18.6599 111.743 19.4151 112.075 20.1593ZM129.51 21.8364L130.129 22.1696L126.694 28.3561L126.163 28.0562L125.543 21.0923L122.749 26.1236L122.13 25.7793L125.565 19.6039L126.095 19.9038L126.715 26.8567L129.51 21.8364ZM140.007 29.0781L139.599 29.6112L137.886 28.2895L134.02 33.3875L133.467 32.9543L137.333 27.8674L135.609 26.5346L136.007 26.0126L140.007 29.0781ZM142.363 40.9735L143.147 39.2852L140.826 36.8861L139.125 37.6303L138.606 37.0861L145.533 34.0983L146.041 34.6204L142.882 41.5066L142.363 40.9735ZM141.478 36.5974L143.445 38.641L145.157 34.9758L141.467 36.5974H141.478ZM149.259 49.7145C148.967 49.3236 148.758 48.8768 148.644 48.4017C148.53 47.9266 148.514 47.4332 148.597 46.9517C148.68 46.4701 148.859 46.0107 149.125 45.6015C149.391 45.1923 149.737 44.842 150.142 44.5721C150.534 44.2857 150.98 44.0827 151.453 43.9755C151.926 43.8683 152.416 43.8591 152.893 43.9485C153.369 44.0379 153.823 44.224 154.226 44.4954C154.628 44.7669 154.972 45.1179 155.235 45.5273C155.586 46.0326 155.799 46.6214 155.854 47.2352C155.908 47.8489 155.802 48.4663 155.545 49.0259L154.893 48.726C155.114 48.2929 155.225 47.8264 155.169 47.3155C155.128 46.8115 154.952 46.328 154.661 45.916C154.449 45.5836 154.171 45.2985 153.845 45.0783C153.519 44.858 153.151 44.7073 152.765 44.6355C152.379 44.5637 151.982 44.5722 151.599 44.6607C151.216 44.7491 150.856 44.9155 150.54 45.1496C150.213 45.3696 149.934 45.6538 149.72 45.9852C149.506 46.3166 149.361 46.6883 149.294 47.0776C149.227 47.467 149.239 47.866 149.33 48.2505C149.421 48.6351 149.588 48.9971 149.822 49.3147C150.121 49.7589 150.496 50.0699 150.949 50.281C151.413 50.5031 151.877 50.5697 152.364 50.5031L152.43 51.2251C151.816 51.2759 151.199 51.163 150.643 50.8978C150.086 50.6326 149.609 50.2244 149.259 49.7145ZM161.822 57.1783L161.237 57.4782L160.242 55.5456L154.575 58.4556L154.243 57.8336L159.933 54.9125L158.949 52.9799L159.546 52.6689L161.822 57.1783ZM164.091 78.5811L164.732 78.4923L165.23 82.0909L164.6 82.1798L164.091 78.5811ZM160.66 106.692C160.744 106.212 160.924 105.754 161.189 105.346C161.455 104.938 161.8 104.589 162.204 104.32C162.609 104.051 163.063 103.867 163.54 103.781C164.018 103.694 164.507 103.706 164.98 103.816C165.974 104.038 166.748 104.549 167.3 105.382C167.842 106.215 168.008 107.159 167.787 108.203C167.667 108.81 167.389 109.375 166.981 109.839C166.574 110.303 166.051 110.651 165.467 110.846L165.246 110.158C165.71 110.025 166.108 109.78 166.45 109.403C166.782 109.025 167.003 108.581 167.113 108.07C167.21 107.685 167.227 107.285 167.164 106.894C167.101 106.502 166.958 106.128 166.744 105.795C166.53 105.461 166.251 105.176 165.923 104.956C165.594 104.735 165.225 104.586 164.836 104.516C164.453 104.427 164.056 104.417 163.669 104.488C163.283 104.558 162.914 104.707 162.586 104.925C162.259 105.143 161.979 105.426 161.763 105.757C161.548 106.088 161.402 106.459 161.334 106.848C161.224 107.359 161.246 107.848 161.412 108.336C161.567 108.814 161.832 109.214 162.208 109.514L161.744 110.058C161.28 109.658 160.948 109.169 160.749 108.558C160.561 107.959 160.528 107.337 160.66 106.692ZM157.536 120.332C157.338 119.891 157.232 119.414 157.225 118.931C157.217 118.448 157.308 117.968 157.491 117.522C157.856 116.566 158.496 115.889 159.413 115.489C159.85 115.291 160.321 115.184 160.8 115.174C161.278 115.165 161.754 115.253 162.198 115.434C163.148 115.811 163.822 116.444 164.22 117.366C164.629 118.288 164.64 119.221 164.276 120.176C164.111 120.629 163.855 121.044 163.525 121.393C163.194 121.743 162.795 122.02 162.354 122.209C161.437 122.609 160.509 122.631 159.569 122.264C159.117 122.098 158.704 121.841 158.354 121.509C158.005 121.176 157.726 120.776 157.536 120.332ZM159.679 116.122C158.95 116.455 158.43 117 158.132 117.777C157.834 118.555 157.845 119.31 158.166 120.043C158.497 120.787 159.05 121.298 159.823 121.598C160.597 121.898 161.348 121.898 162.077 121.576C162.436 121.425 162.76 121.201 163.028 120.918C163.296 120.635 163.503 120.299 163.635 119.932C163.944 119.154 163.922 118.388 163.59 117.655C163.434 117.297 163.208 116.975 162.925 116.708C162.642 116.441 162.308 116.234 161.944 116.1C161.584 115.95 161.198 115.875 160.809 115.879C160.42 115.883 160.035 115.966 159.679 116.122ZM157.572 133.638L157.218 134.249L151.163 130.617L151.472 130.095L158.4 129.661L153.482 126.707L153.847 126.107L159.891 129.728L159.582 130.25L152.654 130.694L157.572 133.638ZM150.083 144L149.563 143.578L150.922 141.89L145.971 137.858L146.413 137.303L151.364 141.335L152.722 139.646L153.242 140.068L150.083 144ZM138.217 146.055L139.874 146.888L142.327 144.611L141.63 142.89L142.183 142.379L144.957 149.432L144.427 149.92L137.676 146.566L138.228 146.055H138.217ZM142.592 145.278L140.504 147.21L144.106 149.032L142.592 145.278ZM129.368 152.764C129.763 152.48 130.211 152.281 130.686 152.178C131.16 152.075 131.65 152.071 132.126 152.165C132.602 152.26 133.054 152.452 133.454 152.728C133.854 153.005 134.193 153.361 134.451 153.774C135.003 154.641 135.18 155.551 134.993 156.529C134.897 157.012 134.704 157.471 134.425 157.876C134.145 158.281 133.786 158.624 133.369 158.883C132.856 159.227 132.262 159.428 131.647 159.467C131.032 159.506 130.418 159.382 129.866 159.106L130.198 158.461C130.607 158.706 131.082 158.806 131.579 158.783C132.076 158.75 132.551 158.595 132.993 158.306C133.329 158.1 133.619 157.827 133.846 157.504C134.072 157.18 134.231 156.814 134.311 156.427C134.392 156.04 134.393 155.641 134.314 155.253C134.236 154.866 134.079 154.498 133.854 154.174C133.645 153.841 133.371 153.553 133.048 153.329C132.725 153.106 132.361 152.95 131.976 152.872C131.592 152.794 131.196 152.796 130.812 152.876C130.428 152.957 130.065 153.115 129.744 153.341C129.302 153.63 128.971 154.008 128.75 154.452C128.529 154.907 128.441 155.374 128.485 155.862L127.778 155.907C127.744 155.289 127.874 154.672 128.153 154.121C128.432 153.569 128.851 153.101 129.368 152.764ZM121.614 165.203L121.327 164.592L123.271 163.659L120.53 157.884L121.171 157.573L123.912 163.348L125.856 162.415L126.144 163.026L121.614 165.203ZM100.313 166.914L100.379 167.558L96.7776 167.969L96.7112 167.336L100.302 166.914H100.313Z" fill="black" stroke="white" mask="url(#path-1-inside-1_1424_3861)"/>
<path d="M79.8081 172.727C80.3542 172.778 80.8843 172.94 81.366 173.203C81.8477 173.466 82.2709 173.826 82.6097 174.259C82.9486 174.693 83.1959 175.191 83.3366 175.724C83.4773 176.256 83.5084 176.812 83.428 177.358C83.369 177.905 83.1997 178.434 82.9305 178.914C82.6613 179.393 82.2977 179.812 81.8621 180.146C81.4264 180.479 80.9278 180.72 80.3965 180.853C79.8652 180.987 79.3125 181.01 78.7721 180.921C78.0801 180.84 77.4216 180.577 76.8629 180.158C76.3041 179.74 75.8648 179.181 75.5891 178.537L76.338 178.224C76.5378 178.726 76.8498 179.165 77.2992 179.516C77.7485 179.867 78.2728 180.081 78.8595 180.143C79.2974 180.218 79.746 180.201 80.1772 180.094C80.6085 179.987 81.0134 179.793 81.3668 179.522C81.7202 179.252 82.0145 178.911 82.2317 178.521C82.4488 178.132 82.5841 177.702 82.6291 177.257C82.6956 176.816 82.6718 176.365 82.5592 175.933C82.4467 175.5 82.2476 175.096 81.9743 174.743C81.7009 174.391 81.359 174.099 80.9694 173.884C80.5798 173.669 80.1507 173.536 79.7083 173.493C79.1216 173.418 78.5599 173.493 78.0356 173.719C77.5114 173.945 77.0995 174.271 76.7874 174.723L76.1383 174.246C76.5609 173.691 77.1217 173.259 77.7639 172.992C78.4061 172.726 79.107 172.634 79.7956 172.727H79.8081ZM64.2676 170.419C65.2537 169.879 66.3023 169.779 67.4007 170.105C68.5116 170.444 69.323 171.109 69.8597 172.1C70.3965 173.104 70.4838 174.145 70.1718 175.25C70.0275 175.773 69.7781 176.262 69.439 176.685C69.0998 177.108 68.678 177.456 68.1996 177.709C67.201 178.261 66.1525 178.362 65.054 178.035C64.5287 177.889 64.0391 177.635 63.6159 177.29C63.1928 176.944 62.8452 176.515 62.595 176.028C62.3331 175.554 62.1703 175.031 62.1166 174.492C62.063 173.952 62.1196 173.407 62.2829 172.891C62.4291 172.365 62.6805 171.874 63.0218 171.449C63.363 171.024 63.787 170.673 64.2676 170.419ZM69.1732 172.464C68.9696 172.07 68.687 171.723 68.3433 171.444C67.9995 171.166 67.6021 170.962 67.176 170.845C66.7573 170.713 66.3165 170.667 65.8797 170.71C65.4429 170.752 65.0191 170.883 64.6336 171.094C64.2481 171.304 63.9087 171.591 63.6357 171.936C63.3626 172.282 63.1616 172.679 63.0444 173.104C62.9113 173.525 62.8647 173.97 62.9077 174.41C62.9506 174.85 63.082 175.276 63.294 175.664C63.7059 176.479 64.3675 177.019 65.2787 177.295C66.1774 177.546 67.0262 177.471 67.8126 177.031C68.2008 176.824 68.5427 176.538 68.8174 176.193C69.0921 175.848 69.2939 175.45 69.4103 175.024C69.6725 174.12 69.5976 173.267 69.1607 172.464H69.1732ZM49.3887 171.636L48.6772 171.284L52.1723 164.107L52.7964 164.408L53.9198 172.213L56.7658 166.378L57.4773 166.729L53.9697 173.907L53.3581 173.606L52.2347 165.788L49.3887 171.636ZM37.1186 164.082L37.543 163.454L39.5651 164.835L43.6219 158.862L44.2835 159.314L40.2142 165.299L42.2364 166.679L41.812 167.307L37.1186 164.082ZM33.7484 150.806L32.9745 152.763L35.7456 155.336L37.6179 154.395L38.2295 154.972L30.5904 158.761L29.9912 158.197L33.1368 150.241L33.7609 150.806H33.7484ZM35.0216 155.7L32.6749 153.504L30.9523 157.745L35.0216 155.7ZM25.4601 141.37C25.8114 141.793 26.0732 142.283 26.2295 142.812C26.3857 143.34 26.4332 143.895 26.3689 144.442C26.3046 144.989 26.13 145.518 25.8557 145.995C25.5814 146.472 25.2132 146.888 24.7736 147.217C24.3498 147.567 23.8594 147.825 23.3325 147.977C22.8056 148.129 22.2534 148.171 21.7097 148.101C21.1661 148.03 20.6425 147.849 20.1712 147.567C19.7 147.286 19.291 146.91 18.9693 146.464C18.5388 145.916 18.2591 145.263 18.1584 144.571C18.0576 143.88 18.1392 143.174 18.3951 142.524L19.1441 142.825C18.9319 143.327 18.8445 143.854 18.9194 144.419C19.0068 144.996 19.219 145.511 19.581 145.987C19.8411 146.35 20.1727 146.655 20.555 146.884C20.9374 147.112 21.3624 147.259 21.8037 147.316C22.2451 147.372 22.6932 147.337 23.1203 147.212C23.5475 147.087 23.9445 146.875 24.2868 146.59C24.6438 146.323 24.9429 145.986 25.1658 145.599C25.3888 145.212 25.5309 144.784 25.5834 144.34C25.636 143.896 25.598 143.446 25.4716 143.017C25.3452 142.588 25.1332 142.19 24.8485 141.846C24.474 141.382 24.0371 141.043 23.5129 140.83C23.0085 140.617 22.4534 140.556 21.9152 140.654L21.7903 139.851C22.4796 139.757 23.1815 139.847 23.8256 140.111C24.4697 140.375 25.0333 140.805 25.4601 141.357V141.37ZM10.8433 133.703L11.4924 133.326L12.7157 135.459L18.9444 131.821L19.3438 132.523L13.1026 136.15L14.3259 138.283L13.6893 138.659L10.8433 133.715V133.703ZM6.99879 109.698L6.2873 109.849L5.50091 105.808L6.21241 105.67L6.99879 109.698ZM9.19568 77.7757C9.13086 78.3222 8.95597 78.8498 8.68168 79.3262C8.4074 79.8026 8.03945 80.2178 7.60029 80.5466C7.16113 80.8753 6.65996 81.1107 6.12734 81.2384C5.59471 81.3661 5.04181 81.3833 4.50233 81.2891C3.95912 81.2168 3.43627 81.0339 2.96573 80.7516C2.49519 80.4694 2.08682 80.0936 1.76557 79.6474C1.44432 79.2011 1.21693 78.6937 1.09728 78.1562C0.977637 77.6186 0.96825 77.0622 1.06969 76.5208C1.16805 75.8264 1.4473 75.1705 1.87916 74.6196C2.31101 74.0687 2.88009 73.6423 3.52871 73.3838L3.82828 74.1492C3.30403 74.3249 2.86715 74.6261 2.50516 75.0778C2.15566 75.517 1.93097 76.0315 1.83112 76.6212C1.74359 77.0613 1.74733 77.5148 1.8421 77.9534C1.93687 78.3919 2.12063 78.8061 2.38189 79.1701C2.64314 79.534 2.97628 79.8398 3.36046 80.0684C3.74465 80.297 4.17162 80.4434 4.61467 80.4986C5.05215 80.577 5.50091 80.5649 5.93358 80.4631C6.36625 80.3613 6.77375 80.1719 7.13119 79.9065C7.48863 79.6411 7.78853 79.3053 8.01257 78.9195C8.23661 78.5337 8.38009 78.1061 8.43426 77.6627C8.52163 77.073 8.47171 76.5208 8.25951 75.9813C8.06489 75.469 7.7267 75.0244 7.28588 74.7014L7.78518 74.074C8.32575 74.5154 8.74084 75.0925 8.9885 75.7469C9.23616 76.4012 9.30763 77.1097 9.19568 77.8008V77.7757ZM11.9043 62.2034C12.4036 63.2073 12.4785 64.2613 12.129 65.3655C11.9695 65.8864 11.7056 66.3688 11.3535 66.7832C11.0015 67.1975 10.5687 67.535 10.0819 67.7748C9.08334 68.2893 8.02234 68.3645 6.93638 68.0007C6.42137 67.8409 5.94425 67.5771 5.53428 67.2254C5.12431 66.8737 4.79014 66.4415 4.55226 65.9553C4.29535 65.472 4.14057 64.9405 4.09761 64.3942C4.05465 63.8479 4.12444 63.2985 4.30261 62.7806C4.67708 61.6889 5.35113 60.8859 6.36219 60.3714C7.36078 59.8695 8.40929 59.7816 9.49525 60.1455C10.015 60.3057 10.4967 60.5708 10.9109 60.9247C11.3252 61.2785 11.6632 61.7136 11.9043 62.2034ZM9.7449 67.0721C10.1377 66.879 10.4867 66.6067 10.7702 66.2721C11.0537 65.9374 11.2655 65.5477 11.3926 65.1271C11.5356 64.709 11.5932 64.2661 11.5621 63.825C11.5309 63.3839 11.4115 62.9537 11.211 62.56C11.0106 62.1664 10.7332 61.8175 10.3955 61.5341C10.0578 61.2508 9.6667 61.0388 9.24561 60.9109C8.83416 60.7648 8.39754 60.7039 7.96206 60.732C7.52658 60.76 7.10125 60.8764 6.7117 61.0741C5.88787 61.4756 5.33864 62.1281 5.03907 63.0316C4.75198 63.9225 4.81439 64.7883 5.23879 65.5914C5.43524 65.9854 5.70907 66.3353 6.04374 66.62C6.37842 66.9046 6.76699 67.1182 7.18603 67.2478C8.05979 67.5364 8.93355 67.4862 9.7449 67.0721ZM11.0805 47.1958L11.455 46.4806L18.4825 50.2074L18.1705 50.8222L10.369 51.7257L16.1109 54.7624L15.7364 55.4651L8.69639 51.7383L9.02093 51.1359L16.8099 50.2325L11.068 47.1958H11.0805ZM18.8944 35.0492L19.5061 35.5009L18.0706 37.4836L23.9123 41.7374L23.438 42.3773L17.6088 38.1361L16.1733 40.1187L15.5741 39.6795L18.8944 35.0492ZM32.1756 32.0126L30.2533 31.1718L27.6321 33.8948L28.5058 35.7896L27.9316 36.4044L24.3617 28.6246L24.9359 28.0223L32.7623 31.4103L32.1756 32.0126ZM27.295 33.1544L29.5294 30.8456L25.3603 29.0136L27.295 33.1544ZM41.762 23.9065C41.3331 24.2495 40.8389 24.5006 40.3098 24.6446C39.7808 24.7885 39.228 24.8221 38.6855 24.7434C38.1431 24.6646 37.6224 24.4752 37.1554 24.1867C36.6885 23.8982 36.2851 23.5167 35.9702 23.0657C35.6345 22.6291 35.391 22.1282 35.2547 21.5937C35.1184 21.0591 35.092 20.5022 35.1774 19.9571C35.2627 19.412 35.4578 18.8901 35.7508 18.4235C36.0439 17.9568 36.4286 17.5553 36.8814 17.2434C37.4385 16.8257 38.0953 16.5629 38.7855 16.4814C39.4757 16.3999 40.1752 16.5026 40.8134 16.7791L40.4888 17.532C40.002 17.281 39.4778 17.1932 38.9036 17.2559C38.3419 17.3187 37.8176 17.5195 37.3433 17.8834C36.9758 18.1342 36.6634 18.4581 36.4255 18.8352C36.1875 19.2123 36.0292 19.6345 35.9601 20.0756C35.8911 20.5167 35.9129 20.9674 36.0241 21.3997C36.1353 21.832 36.3337 22.2368 36.6068 22.5889C36.8614 22.9568 37.1884 23.2682 37.5675 23.504C37.9466 23.7397 38.3698 23.8947 38.8109 23.9594C39.2521 24.0241 39.7017 23.9971 40.132 23.8801C40.5623 23.763 40.9642 23.5585 41.3127 23.2791C41.787 22.9277 42.1365 22.4885 42.3612 21.9615C42.5859 21.4345 42.6483 20.8949 42.5609 20.3553L43.3722 20.2549C43.4471 20.9491 43.3388 21.6508 43.0583 22.2896C42.7779 22.9284 42.3351 23.4817 41.7745 23.8939L41.762 23.9065ZM49.7632 9.4008L50.1252 10.0659L47.9782 11.2454L51.4109 17.6073L50.7118 17.9837L47.2792 11.6218L45.1323 12.8014L44.7703 12.1363L49.7632 9.4008ZM73.7043 6.17593L73.5794 5.46068L77.6112 4.77054L77.736 5.48578L73.7043 6.17593ZM105.372 9.22513C104.829 9.14571 104.308 8.9558 103.841 8.667C103.374 8.37821 102.97 7.99661 102.654 7.54556C102.339 7.0945 102.118 6.58348 102.006 6.04376C101.894 5.50404 101.892 4.94697 102.002 4.40664C102.089 3.86249 102.286 3.342 102.58 2.87698C102.875 2.41196 103.26 2.01219 103.714 1.70212C104.167 1.39204 104.679 1.17818 105.217 1.07361C105.755 0.969037 106.309 0.975951 106.845 1.09393C107.53 1.21511 108.17 1.51552 108.703 1.96491C109.235 2.4143 109.641 2.9968 109.878 3.65375L109.104 3.92981C108.947 3.40704 108.644 2.94083 108.23 2.58716C107.793 2.21071 107.282 1.95975 106.708 1.85937C106.273 1.76133 105.822 1.75437 105.385 1.83893C104.947 1.92349 104.531 2.09776 104.164 2.35086C103.796 2.60397 103.484 2.93049 103.247 3.31008C103.011 3.68968 102.854 4.11421 102.788 4.55722C102.698 4.99505 102.698 5.44667 102.788 5.88448C102.878 6.32229 103.056 6.73709 103.31 7.10353C103.565 7.46996 103.891 7.78033 104.269 8.01567C104.648 8.251 105.069 8.40636 105.509 8.47224C106.083 8.57262 106.645 8.53498 107.182 8.34676C107.719 8.13344 108.155 7.81974 108.48 7.3931L109.104 7.90757C108.651 8.43913 108.065 8.84089 107.408 9.07224C106.75 9.30359 106.044 9.35633 105.359 9.22513H105.372ZM120.75 12.3622C119.752 12.8641 118.691 12.9017 117.605 12.5127C117.089 12.3379 116.614 12.0583 116.211 11.6913C115.807 11.3244 115.483 10.8779 115.258 10.3796C115.025 9.88847 114.894 9.35495 114.873 8.81137C114.851 8.2678 114.94 7.72551 115.133 7.21743C115.508 6.13828 116.207 5.3603 117.218 4.87092C118.241 4.38154 119.29 4.33135 120.376 4.72034C121.462 5.10934 122.248 5.82458 122.722 6.85353C123.197 7.86993 123.247 8.92397 122.872 10.0157C122.697 10.5334 122.418 11.0097 122.053 11.4154C121.688 11.8211 121.245 12.1475 120.75 12.3747V12.3622ZM115.969 10.0659C116.344 10.8815 116.98 11.4587 117.867 11.7724C118.278 11.9266 118.715 11.9962 119.153 11.977C119.592 11.9577 120.021 11.8501 120.417 11.6604C120.813 11.4707 121.167 11.203 121.458 10.873C121.749 10.543 121.971 10.1576 122.111 9.7396C122.267 9.32822 122.338 8.88935 122.321 8.44943C122.304 8.0095 122.198 7.57761 122.011 7.17978C121.832 6.7743 121.571 6.41085 121.244 6.11267C120.917 5.81449 120.532 5.58815 120.114 5.44814C119.704 5.29075 119.266 5.22064 118.827 5.24224C118.389 5.26384 117.96 5.37668 117.567 5.57362C116.743 5.97516 116.194 6.61511 115.87 7.49348C115.557 8.37185 115.595 9.22513 115.969 10.0659ZM135.666 11.9606L136.365 12.3371L132.483 19.3264L131.884 18.9876L131.185 11.1199L128.027 16.8042L127.328 16.4152L131.21 9.43845L131.809 9.77725L132.508 17.6324L135.666 11.9606ZM147.525 20.142L147.063 20.7443L145.128 19.2511L140.759 25.0107L140.135 24.5213L144.504 18.7743L142.557 17.2685L143.006 16.6787L147.525 20.142ZM150.183 33.5811L151.07 31.6738L148.448 28.9634L146.526 29.8041L145.939 29.1892L153.766 25.8138L154.34 26.4035L150.77 34.1834L150.183 33.5811ZM149.185 28.6371L151.407 30.946L153.341 26.8051L149.172 28.6371H149.185ZM157.972 43.4565C157.643 43.0148 157.407 42.5101 157.278 41.9733C157.15 41.4366 157.132 40.8791 157.225 40.3351C157.319 39.7911 157.522 39.272 157.822 38.8097C158.122 38.3474 158.513 37.9517 158.971 37.6467C159.414 37.3232 159.918 37.0938 160.453 36.9727C160.987 36.8516 161.54 36.8412 162.079 36.9422C162.617 37.0432 163.13 37.2534 163.585 37.5601C164.04 37.8668 164.428 38.2634 164.725 38.7258C165.121 39.2968 165.362 39.962 165.423 40.6554C165.485 41.3488 165.365 42.0462 165.075 42.6785L164.338 42.3397C164.588 41.8503 164.713 41.3233 164.65 40.7461C164.604 40.1767 164.406 39.6305 164.076 39.165C163.837 38.7895 163.523 38.4674 163.155 38.2186C162.786 37.9697 162.371 37.7995 161.935 37.7184C161.498 37.6372 161.05 37.6469 160.618 37.7468C160.185 37.8467 159.778 38.0347 159.42 38.2992C159.051 38.5477 158.736 38.8688 158.494 39.2432C158.252 39.6176 158.089 40.0375 158.013 40.4774C157.937 40.9173 157.951 41.3681 158.053 41.8025C158.156 42.2369 158.345 42.6459 158.609 43.0047C158.946 43.5067 159.37 43.858 159.882 44.0964C160.406 44.3474 160.931 44.4227 161.48 44.3474L161.555 45.163C160.861 45.2204 160.165 45.0929 159.536 44.7933C158.907 44.4936 158.367 44.0325 157.972 43.4565ZM172.165 51.8888L171.503 52.2276L170.38 50.0443L163.976 53.3319L163.602 52.6292L170.03 49.329L168.919 47.1456L169.593 46.7943L172.165 51.8888ZM174.724 76.0691L175.448 75.9687L176.009 80.0343L175.298 80.1347L174.724 76.0691ZM170.842 107.828C170.936 107.286 171.139 106.769 171.439 106.308C171.74 105.847 172.13 105.452 172.587 105.148C173.043 104.844 173.557 104.637 174.096 104.539C174.635 104.441 175.188 104.454 175.722 104.578C176.846 104.829 177.719 105.407 178.343 106.348C178.955 107.289 179.142 108.355 178.893 109.535C178.757 110.221 178.442 110.859 177.982 111.383C177.522 111.908 176.932 112.3 176.271 112.521L176.022 111.743C176.546 111.593 176.995 111.317 177.382 110.89C177.757 110.464 178.006 109.962 178.131 109.384C178.241 108.95 178.261 108.498 178.189 108.056C178.118 107.614 177.956 107.191 177.715 106.814C177.474 106.437 177.158 106.115 176.787 105.866C176.416 105.617 175.999 105.448 175.56 105.369C175.127 105.269 174.679 105.258 174.242 105.337C173.805 105.417 173.388 105.585 173.018 105.832C172.648 106.078 172.331 106.398 172.088 106.771C171.845 107.145 171.68 107.564 171.603 108.004C171.478 108.581 171.503 109.133 171.69 109.686C171.865 110.225 172.165 110.677 172.589 111.016L172.065 111.631C171.541 111.179 171.166 110.627 170.941 109.937C170.729 109.259 170.692 108.556 170.842 107.828ZM167.309 123.238C167.086 122.74 166.966 122.201 166.958 121.655C166.949 121.109 167.052 120.568 167.259 120.063C167.671 118.984 168.395 118.218 169.431 117.767C169.924 117.543 170.457 117.422 170.997 117.411C171.538 117.4 172.075 117.5 172.577 117.704C173.65 118.13 174.412 118.846 174.861 119.887C175.323 120.929 175.335 121.983 174.923 123.062C174.737 123.574 174.448 124.042 174.075 124.437C173.701 124.832 173.251 125.145 172.751 125.358C171.715 125.81 170.667 125.835 169.606 125.421C169.095 125.233 168.628 124.943 168.233 124.567C167.839 124.192 167.524 123.739 167.309 123.238ZM169.731 118.482C168.907 118.858 168.32 119.473 167.983 120.352C167.646 121.23 167.659 122.083 168.021 122.911C168.395 123.752 169.019 124.329 169.893 124.668C170.767 125.007 171.616 125.007 172.439 124.643C172.845 124.473 173.21 124.22 173.513 123.9C173.816 123.581 174.05 123.201 174.199 122.786C174.549 121.907 174.524 121.042 174.149 120.213C173.974 119.81 173.718 119.446 173.398 119.144C173.079 118.842 172.702 118.608 172.29 118.457C171.883 118.288 171.447 118.203 171.008 118.207C170.568 118.212 170.134 118.305 169.731 118.482ZM167.347 138.27L166.947 138.96L160.107 134.857L160.456 134.267L168.283 133.778L162.728 130.44L163.14 129.763L169.968 133.853L169.618 134.443L161.792 134.945L167.347 138.27ZM158.884 149.978L158.297 149.501L159.832 147.594L154.24 143.039L154.739 142.411L160.332 146.966L161.867 145.059L162.454 145.536L158.884 149.978ZM145.478 152.299L147.35 153.24L150.121 150.668L149.335 148.723L149.959 148.146L153.092 156.114L152.493 156.666L144.866 152.876L145.49 152.299H145.478ZM150.421 151.421L148.061 153.604L152.131 155.662L150.421 151.421ZM135.479 159.878C135.925 159.558 136.432 159.333 136.968 159.216C137.504 159.1 138.058 159.095 138.596 159.202C139.133 159.309 139.644 159.526 140.095 159.838C140.547 160.151 140.93 160.553 141.221 161.02C141.845 161.999 142.045 163.028 141.833 164.132C141.725 164.678 141.507 165.197 141.191 165.654C140.875 166.112 140.469 166.499 139.998 166.792C139.419 167.18 138.748 167.408 138.053 167.452C137.358 167.496 136.664 167.355 136.041 167.043L136.415 166.315C136.877 166.591 137.414 166.704 137.976 166.679C138.537 166.642 139.074 166.466 139.573 166.14C139.953 165.907 140.28 165.598 140.537 165.233C140.793 164.868 140.972 164.454 141.063 164.017C141.154 163.58 141.156 163.129 141.067 162.691C140.978 162.253 140.801 161.838 140.547 161.472C140.311 161.095 140.001 160.77 139.637 160.517C139.272 160.265 138.86 160.089 138.426 160.001C137.992 159.913 137.544 159.914 137.111 160.006C136.677 160.097 136.266 160.275 135.904 160.531C135.404 160.857 135.03 161.284 134.78 161.786C134.531 162.3 134.431 162.827 134.481 163.379L133.682 163.429C133.644 162.731 133.791 162.035 134.106 161.411C134.422 160.788 134.895 160.259 135.479 159.878ZM126.717 173.932L126.392 173.242L128.589 172.188L125.493 165.663L126.217 165.312L129.313 171.837L131.51 170.783L131.834 171.473L126.717 173.932ZM102.651 175.865L102.726 176.592L98.6564 177.057L98.5815 176.341L102.638 175.865H102.651Z" fill="black" stroke="black" stroke-width="0.2"/>
</svg>
