<svg width="68" height="68" viewBox="0 0 68 68" fill="none" xmlns="http://www.w3.org/2000/svg">
<path d="M30.221 64.3412C30.4235 64.3598 30.6201 64.4195 30.7987 64.5166C30.9773 64.6137 31.1342 64.7463 31.2598 64.9061C31.3855 65.066 31.4772 65.2498 31.5294 65.4463C31.5815 65.6428 31.5931 65.8479 31.5632 66.049C31.5414 66.2509 31.4786 66.4462 31.3788 66.6229C31.279 66.7997 31.1442 66.9544 30.9826 67.0773C30.8211 67.2003 30.6362 67.2891 30.4392 67.3383C30.2422 67.3875 30.0373 67.3961 29.8369 67.3635C29.5803 67.3334 29.3362 67.2363 29.129 67.0819C28.9218 66.9275 28.7589 66.7214 28.6567 66.4841L28.9344 66.3684C29.0084 66.5535 29.1241 66.7155 29.2908 66.8451C29.4574 66.9747 29.6518 67.0534 29.8693 67.0765C30.0317 67.104 30.198 67.0978 30.3579 67.0584C30.5178 67.0189 30.6679 66.9471 30.799 66.8473C30.93 66.7475 31.0392 66.6219 31.1197 66.4782C31.2002 66.3345 31.2503 66.1759 31.267 66.012C31.2917 65.8491 31.2829 65.6828 31.2411 65.5234C31.1994 65.364 31.1256 65.2147 31.0242 65.0848C30.9229 64.9548 30.7961 64.8469 30.6516 64.7676C30.5072 64.6883 30.3481 64.6393 30.184 64.6235C29.9665 64.5957 29.7582 64.6235 29.5638 64.7068C29.3694 64.7901 29.2167 64.9105 29.101 65.0771L28.8603 64.9012C29.017 64.6967 29.2249 64.5372 29.4631 64.4389C29.7012 64.3405 29.9611 64.3068 30.2164 64.3412H30.221ZM24.4588 63.4896C24.8245 63.2906 25.2133 63.2536 25.6205 63.3739C26.0325 63.4988 26.3333 63.7441 26.5323 64.1098C26.7313 64.48 26.7637 64.8642 26.648 65.2715C26.5945 65.4646 26.5021 65.6447 26.3763 65.8008C26.2505 65.9568 26.0941 66.0854 25.9168 66.1786C25.5465 66.3823 25.1577 66.4193 24.7504 66.299C24.5556 66.245 24.3741 66.1513 24.2172 66.0239C24.0603 65.8965 23.9314 65.738 23.8387 65.5584C23.7415 65.3836 23.6812 65.1908 23.6613 64.9918C23.6414 64.7929 23.6624 64.5919 23.723 64.4014C23.7772 64.2073 23.8704 64.0264 23.9969 63.8696C24.1234 63.7128 24.2806 63.5835 24.4588 63.4896ZM26.2778 64.244C26.2023 64.0987 26.0975 63.9707 25.97 63.8679C25.8426 63.7651 25.6952 63.6899 25.5372 63.647C25.382 63.5982 25.2185 63.5812 25.0566 63.5969C24.8946 63.6126 24.7375 63.6608 24.5945 63.7386C24.4516 63.8163 24.3258 63.922 24.2245 64.0494C24.1233 64.1768 24.0487 64.3232 24.0053 64.48C23.9559 64.6355 23.9387 64.7993 23.9546 64.9616C23.9705 65.1239 24.0192 65.2813 24.0978 65.4242C24.2506 65.725 24.4959 65.9241 24.8337 66.0259C25.167 66.1185 25.4817 66.0907 25.7733 65.9287C25.9172 65.852 26.044 65.7468 26.1458 65.6195C26.2477 65.4922 26.3225 65.3454 26.3657 65.1882C26.4629 64.8549 26.4351 64.5402 26.2731 64.244H26.2778ZM18.9419 63.9385L18.6781 63.8089L19.9741 61.1616L20.2055 61.2726L20.622 64.1514L21.6773 61.9993L21.9411 62.1289L20.6405 64.7763L20.4137 64.6652L19.9972 61.7818L18.9419 63.9385ZM14.3924 61.1523L14.5497 60.9209L15.2995 61.43L16.8037 59.2269L17.049 59.3936L15.5402 61.6013L16.2899 62.1104L16.1326 62.3418L14.3924 61.1523ZM13.1427 56.2556L12.8558 56.9776L13.8832 57.9264L14.5775 57.5793L14.8043 57.7922L11.9718 59.1899L11.7496 58.9816L12.9159 56.0473L13.1473 56.2556H13.1427ZM13.6148 58.0606L12.7447 57.2507L12.106 58.815L13.6148 58.0606ZM10.0695 52.7751C10.1998 52.9312 10.2969 53.1122 10.3548 53.307C10.4127 53.5018 10.4303 53.7064 10.4065 53.9083C10.3827 54.1102 10.3179 54.3051 10.2162 54.4811C10.1145 54.6571 9.978 54.8105 9.81499 54.9319C9.65787 55.0608 9.47603 55.1562 9.28066 55.2123C9.08529 55.2684 8.88053 55.2839 8.67895 55.2578C8.47737 55.2318 8.28324 55.1649 8.1085 55.0611C7.93376 54.9572 7.7821 54.8188 7.66285 54.6542C7.5032 54.4518 7.39951 54.2111 7.36215 53.956C7.32479 53.701 7.35506 53.4406 7.44994 53.2009L7.72764 53.312C7.64896 53.4971 7.61656 53.6915 7.64433 53.8998C7.67673 54.1127 7.75541 54.3025 7.88963 54.4783C7.98609 54.6121 8.10902 54.7247 8.2508 54.809C8.39258 54.8933 8.55018 54.9475 8.71381 54.9684C8.87744 54.9892 9.0436 54.9762 9.20198 54.9301C9.36037 54.884 9.50758 54.8059 9.63449 54.7005C9.76685 54.6021 9.87775 54.4778 9.96042 54.3351C10.0431 54.1924 10.0958 54.0343 10.1153 53.8706C10.1348 53.7068 10.1207 53.5408 10.0738 53.3827C10.0269 53.2246 9.94833 53.0777 9.84276 52.951C9.70391 52.7798 9.54192 52.6548 9.34754 52.5761C9.16052 52.4975 8.9547 52.475 8.75512 52.5113L8.70884 52.2151C8.96442 52.1803 9.22466 52.2133 9.46348 52.3108C9.70229 52.4083 9.9113 52.5668 10.0695 52.7705V52.7751ZM4.64984 49.9473L4.89051 49.8084L5.34408 50.5952L7.65359 49.253L7.80169 49.5122L5.48756 50.8498L5.94113 51.6366L5.70509 51.7754L4.64984 49.9519V49.9473ZM3.22433 41.0934L2.96052 41.1489L2.66894 39.6586L2.93275 39.6077L3.22433 41.0934ZM4.03891 29.319C4.01487 29.5206 3.95003 29.7152 3.84833 29.8909C3.74662 30.0666 3.61019 30.2198 3.44736 30.3411C3.28453 30.4623 3.0987 30.5491 2.90121 30.5962C2.70372 30.6433 2.49871 30.6497 2.29868 30.6149C2.09726 30.5883 1.9034 30.5208 1.72893 30.4167C1.55446 30.3126 1.40304 30.174 1.28392 30.0094C1.16481 29.8448 1.08049 29.6576 1.03613 29.4594C0.991769 29.2611 0.988289 29.0559 1.0259 28.8562C1.06237 28.6001 1.16592 28.3581 1.32604 28.1549C1.48616 27.9517 1.69717 27.7945 1.93767 27.6991L2.04875 27.9814C1.85436 28.0462 1.69237 28.1573 1.55815 28.3239C1.42856 28.4859 1.34525 28.6757 1.30823 28.8932C1.27578 29.0555 1.27716 29.2228 1.3123 29.3846C1.34744 29.5463 1.41558 29.6991 1.51245 29.8333C1.60932 29.9676 1.73284 30.0804 1.87529 30.1647C2.01774 30.249 2.17605 30.303 2.34033 30.3234C2.50254 30.3523 2.66894 30.3478 2.82937 30.3102C2.9898 30.2727 3.14089 30.2028 3.27342 30.105C3.40596 30.0071 3.51716 29.8832 3.60023 29.7409C3.6833 29.5986 3.7365 29.4409 3.75658 29.2774C3.78898 29.0598 3.77047 28.8562 3.69179 28.6572C3.61963 28.4682 3.49423 28.3042 3.33078 28.1851L3.51591 27.9537C3.71635 28.1165 3.87026 28.3294 3.96209 28.5707C4.05392 28.8121 4.08042 29.0734 4.03891 29.3283V29.319ZM5.04324 23.5753C5.22837 23.9456 5.25614 24.3344 5.12655 24.7417C5.06742 24.9338 4.96956 25.1117 4.83902 25.2645C4.70847 25.4174 4.54801 25.5418 4.36752 25.6303C3.99725 25.82 3.60385 25.8478 3.20119 25.7136C3.01023 25.6547 2.83332 25.5574 2.68131 25.4276C2.5293 25.2979 2.40539 25.1385 2.31719 24.9592C2.22193 24.7809 2.16454 24.5849 2.14861 24.3834C2.13268 24.1819 2.15856 23.9793 2.22463 23.7882C2.36347 23.3856 2.6134 23.0894 2.98829 22.8996C3.35855 22.7145 3.74733 22.6821 4.14999 22.8163C4.34269 22.8754 4.52131 22.9732 4.6749 23.1037C4.8285 23.2342 4.95384 23.3947 5.04324 23.5753ZM4.24255 25.3711C4.3882 25.2999 4.51761 25.1994 4.62272 25.076C4.72783 24.9526 4.80638 24.8088 4.85348 24.6537C4.90652 24.4995 4.92789 24.3361 4.91633 24.1734C4.90476 24.0107 4.86049 23.8521 4.78617 23.7069C4.71185 23.5617 4.60901 23.433 4.48379 23.3285C4.35857 23.224 4.21356 23.1458 4.05742 23.0986C3.90486 23.0447 3.74297 23.0223 3.5815 23.0326C3.42003 23.0429 3.26232 23.0859 3.11788 23.1588C2.81242 23.3069 2.60877 23.5476 2.49769 23.8808C2.39124 24.2094 2.41438 24.5288 2.57175 24.825C2.64459 24.9703 2.74612 25.0993 2.87021 25.2043C2.99431 25.3093 3.13838 25.3881 3.29376 25.4359C3.61774 25.5423 3.94171 25.5238 4.24255 25.3711ZM4.73778 18.0399L4.87663 17.7761L7.48234 19.1507L7.36664 19.3775L4.47397 19.7107L6.60297 20.8308L6.46412 21.0899L3.85378 19.7153L3.97411 19.4932L6.86215 19.16L4.73315 18.0399H4.73778ZM7.63508 13.5597L7.86186 13.7264L7.32961 14.4576L9.49564 16.0266L9.31977 16.2627L7.15836 14.6983L6.62611 15.4296L6.40396 15.2676L7.63508 13.5597ZM12.5596 12.4397L11.8468 12.1296L10.8749 13.1339L11.1988 13.8328L10.9859 14.0596L9.66226 11.1901L9.87516 10.9679L12.7771 12.2175L12.5596 12.4397ZM10.7499 12.8609L11.5784 12.0093L10.0325 11.3335L10.7499 12.8609ZM16.1141 9.44983C15.955 9.57634 15.7718 9.66898 15.5756 9.72207C15.3794 9.77515 15.1745 9.78755 14.9734 9.75851C14.7722 9.72947 14.5791 9.65959 14.406 9.55318C14.2329 9.44677 14.0833 9.30607 13.9666 9.13973C13.8421 8.9787 13.7518 8.79394 13.7012 8.59678C13.6507 8.39962 13.6409 8.19421 13.6726 7.99314C13.7042 7.79208 13.7766 7.59959 13.8852 7.42748C13.9939 7.25536 14.1365 7.10725 14.3044 6.99221C14.511 6.83815 14.7545 6.74121 15.0104 6.71115C15.2663 6.68109 15.5257 6.71896 15.7623 6.82097L15.642 7.09866C15.4615 7.0061 15.2671 6.9737 15.0542 6.99684C14.8459 7.01998 14.6515 7.09404 14.4757 7.22826C14.3394 7.32076 14.2236 7.44026 14.1353 7.57934C14.0471 7.71843 13.9884 7.87415 13.9628 8.03685C13.9372 8.19955 13.9453 8.36578 13.9865 8.52523C14.0278 8.68469 14.1013 8.83398 14.2026 8.96386C14.297 9.09955 14.4182 9.21442 14.5588 9.30137C14.6994 9.38832 14.8563 9.44549 15.0198 9.46935C15.1834 9.49321 15.3501 9.48325 15.5097 9.44009C15.6692 9.39693 15.8182 9.32148 15.9475 9.21841C16.1233 9.08882 16.2529 8.92683 16.3362 8.73245C16.4195 8.53806 16.4427 8.33904 16.4103 8.14003L16.7111 8.103C16.7389 8.35904 16.6987 8.61786 16.5947 8.85347C16.4907 9.08907 16.3266 9.29315 16.1187 9.4452L16.1141 9.44983ZM19.0808 4.09954L19.215 4.34484L18.419 4.7799L19.6917 7.12643L19.4325 7.26528L18.1598 4.91875L17.3637 5.3538L17.2295 5.10851L19.0808 4.09954ZM27.9578 2.91007L27.9115 2.64626L29.4065 2.39171L29.4528 2.65552L27.9578 2.91007ZM39.6998 4.03474C39.4985 4.00545 39.3053 3.9354 39.1321 3.82888C38.9588 3.72237 38.8091 3.58162 38.6922 3.41525C38.5752 3.24888 38.4934 3.0604 38.4518 2.86132C38.4101 2.66225 38.4096 2.45678 38.4501 2.25749C38.4825 2.05678 38.5556 1.8648 38.6647 1.69328C38.7739 1.52177 38.9169 1.37432 39.0849 1.25995C39.253 1.14558 39.4427 1.0667 39.6423 1.02813C39.8419 0.989556 40.0473 0.992106 40.2459 1.03562C40.4998 1.08032 40.7374 1.19112 40.9348 1.35688C41.1323 1.52263 41.2826 1.73748 41.3706 1.97979L41.0836 2.08161C41.0255 1.88879 40.913 1.71683 40.7596 1.58639C40.5976 1.44754 40.4079 1.35497 40.195 1.31795C40.0337 1.28179 39.8668 1.27922 39.7045 1.31041C39.5422 1.3416 39.3881 1.40587 39.2518 1.49923C39.1154 1.59259 38.9998 1.71302 38.912 1.85303C38.8243 1.99304 38.7663 2.14963 38.7417 2.31303C38.7084 2.47452 38.7085 2.64109 38.7417 2.80258C38.775 2.96406 38.8409 3.11705 38.9354 3.25221C39.0298 3.38737 39.1508 3.50184 39.291 3.58865C39.4312 3.67545 39.5876 3.73275 39.7507 3.75705C39.9636 3.79407 40.1718 3.78019 40.3708 3.71077C40.5699 3.63208 40.7319 3.51638 40.8522 3.35902L41.0836 3.54878C40.9154 3.74484 40.6985 3.89302 40.4547 3.97835C40.2109 4.06369 39.9489 4.08314 39.6951 4.03474H39.6998ZM45.4018 5.19181C45.0315 5.37695 44.6381 5.39083 44.2355 5.24735C44.0442 5.18287 43.8683 5.07974 43.7186 4.94439C43.5689 4.80903 43.4487 4.64434 43.3653 4.46055C43.279 4.27941 43.2304 4.08263 43.2225 3.88214C43.2145 3.68164 43.2474 3.48163 43.3191 3.29422C43.4579 2.89619 43.7171 2.60924 44.092 2.42873C44.4715 2.24823 44.8603 2.22972 45.2629 2.37319C45.6656 2.51667 45.9572 2.78048 46.133 3.16C46.3089 3.53489 46.3274 3.92367 46.1886 4.32633C46.1236 4.5173 46.0203 4.69298 45.885 4.84261C45.7497 4.99223 45.5853 5.11264 45.4018 5.19644V5.19181ZM43.6292 4.34484C43.768 4.64568 44.004 4.85858 44.3327 4.97428C44.485 5.03117 44.6472 5.05683 44.8097 5.04973C44.9722 5.04264 45.1316 5.00293 45.2784 4.93298C45.4252 4.86302 45.5565 4.76425 45.6643 4.64254C45.7722 4.52083 45.8545 4.37866 45.9063 4.2245C45.9641 4.07277 45.9907 3.9109 45.9843 3.74863C45.9779 3.58637 45.9388 3.42707 45.8692 3.28034C45.8029 3.13078 45.706 2.99672 45.5849 2.88674C45.4638 2.77676 45.321 2.69328 45.1657 2.64163C45.0137 2.58358 44.8513 2.55773 44.6888 2.56569C44.5263 2.57366 44.3672 2.61528 44.2216 2.68792C43.9161 2.83602 43.7125 3.07206 43.5921 3.39604C43.4764 3.72002 43.4903 4.03474 43.6292 4.34484ZM50.9326 5.04371L51.1918 5.18256L49.7524 7.76051L49.5302 7.63554L49.271 4.73361L48.1001 6.83022L47.8409 6.68675L49.2803 4.11343L49.5024 4.23839L49.7616 7.13569L50.9326 5.04371ZM55.3294 8.06135L55.1582 8.2835L54.4408 7.73274L52.8209 9.85712L52.5895 9.67661L54.2094 7.55686L53.4874 7.00147L53.654 6.78394L55.3294 8.06135ZM56.3153 13.0182L56.6439 12.3147L55.6719 11.315L54.9592 11.6251L54.7416 11.3983L57.6436 10.1533L57.8565 10.3709L56.5328 13.2404L56.3153 13.0182ZM55.945 11.1947L56.7688 12.0463L57.4862 10.519L55.9404 11.1947H55.945ZM59.2033 16.6607C59.0811 16.4978 58.9936 16.3116 58.9459 16.1136C58.8983 15.9157 58.8916 15.71 58.9263 15.5094C58.961 15.3087 59.0362 15.1173 59.1475 14.9468C59.2589 14.7763 59.4038 14.6303 59.5736 14.5178C59.7379 14.3985 59.9249 14.3139 60.123 14.2692C60.3211 14.2245 60.5263 14.2207 60.726 14.258C60.9256 14.2952 61.1156 14.3727 61.2843 14.4859C61.453 14.599 61.5969 14.7453 61.7072 14.9158C61.8541 15.1264 61.9433 15.3718 61.9661 15.6275C61.9888 15.8833 61.9442 16.1405 61.8368 16.3737L61.5637 16.2488C61.6563 16.0683 61.7026 15.8739 61.6794 15.661C61.6622 15.451 61.5887 15.2495 61.4665 15.0778C61.3777 14.9393 61.2614 14.8205 61.1248 14.7287C60.9883 14.637 60.8343 14.5742 60.6725 14.5442C60.5107 14.5143 60.3445 14.5179 60.1841 14.5547C60.0238 14.5916 59.8727 14.6609 59.7402 14.7585C59.6034 14.8501 59.4866 14.9686 59.3969 15.1067C59.3072 15.2448 59.2464 15.3996 59.2183 15.5619C59.1901 15.7241 59.1952 15.8904 59.2332 16.0506C59.2712 16.2109 59.3414 16.3617 59.4393 16.4941C59.5643 16.6792 59.7217 16.8088 59.9114 16.8967C60.1058 16.9893 60.3002 17.0171 60.5038 16.9893L60.5316 17.2901C60.2744 17.3113 60.0162 17.2643 59.7829 17.1538C59.5497 17.0432 59.3498 16.8732 59.2033 16.6607ZM64.4656 19.7709L64.2203 19.8958L63.8038 19.0905L61.4295 20.3031L61.2906 20.044L63.6742 18.8267L63.2623 18.0214L63.5122 17.8918L64.4656 19.7709ZM65.4144 28.6896L65.6829 28.6525L65.8912 30.1521L65.6273 30.1891L65.4144 28.6896ZM63.975 40.4037C64.0101 40.2036 64.0855 40.0128 64.1967 39.8428C64.308 39.6728 64.4527 39.5273 64.622 39.4151C64.7914 39.303 64.9818 39.2265 65.1817 39.1903C65.3816 39.1542 65.5868 39.1592 65.7847 39.205C66.2012 39.2976 66.5252 39.5105 66.7566 39.8576C66.9834 40.2047 67.0528 40.5981 66.9603 41.0332C66.9098 41.2862 66.7933 41.5214 66.6226 41.7148C66.452 41.9083 66.2331 42.0532 65.9883 42.1347L65.8958 41.8478C66.0902 41.7922 66.2568 41.6904 66.4003 41.533C66.5391 41.3757 66.6317 41.1905 66.678 40.9776C66.7187 40.8175 66.726 40.6507 66.6994 40.4876C66.6729 40.3245 66.613 40.1686 66.5236 40.0296C66.4341 39.8907 66.317 39.7716 66.1795 39.6799C66.0421 39.5882 65.8872 39.5258 65.7245 39.4966C65.5641 39.4596 65.3978 39.4556 65.2357 39.4849C65.0737 39.5142 64.9193 39.5763 64.782 39.6672C64.6448 39.7582 64.5274 39.8761 64.4372 40.0139C64.347 40.1516 64.2858 40.3063 64.2574 40.4685C64.2111 40.6814 64.2203 40.8851 64.2898 41.0887C64.3546 41.2877 64.4656 41.4544 64.623 41.5793L64.4286 41.8061C64.2342 41.6395 64.0954 41.4358 64.0121 41.1813C63.9334 40.9314 63.9195 40.6722 63.975 40.4037ZM62.6652 46.0873C62.5825 45.9037 62.5381 45.7051 62.5349 45.5037C62.5317 45.3023 62.5698 45.1024 62.6467 44.9163C62.7995 44.5183 63.0679 44.236 63.452 44.0693C63.6348 43.9867 63.8324 43.9421 64.0328 43.9381C64.2333 43.9341 64.4325 43.9709 64.6184 44.0462C65.0164 44.2036 65.2987 44.4674 65.4653 44.8515C65.6366 45.2357 65.6412 45.6244 65.4885 46.0225C65.4194 46.2113 65.3123 46.3839 65.1738 46.5296C65.0353 46.6753 64.8683 46.791 64.6832 46.8694C64.299 47.0361 63.9102 47.0453 63.5168 46.8926C63.3276 46.8234 63.1544 46.7162 63.008 46.5778C62.8616 46.4393 62.7449 46.2724 62.6652 46.0873ZM63.5631 44.3331C63.2577 44.472 63.0401 44.6988 62.9152 45.0228C62.7902 45.3467 62.7948 45.6615 62.9291 45.9669C63.0679 46.277 63.2993 46.4899 63.6233 46.6149C63.9473 46.7399 64.262 46.7399 64.5675 46.6056C64.7178 46.5429 64.8534 46.4496 64.9657 46.3317C65.078 46.2138 65.1646 46.0738 65.22 45.9206C65.3496 45.5967 65.3404 45.2773 65.2015 44.9719C65.1363 44.8228 65.0416 44.6886 64.9231 44.5772C64.8046 44.4659 64.6647 44.3797 64.5119 44.3239C64.3613 44.2616 64.1996 44.2303 64.0366 44.2319C63.8736 44.2335 63.7125 44.2679 63.5631 44.3331ZM62.6791 51.6319L62.531 51.8865L59.9947 50.3731L60.1243 50.1555L63.0262 49.975L60.9667 48.7439L61.1194 48.494L63.6511 50.0028L63.5215 50.2203L60.6195 50.4054L62.6791 51.6319ZM59.5412 55.9501L59.3236 55.7743L59.8929 55.0708L57.8194 53.3907L58.0046 53.1593L60.078 54.8393L60.6473 54.1358L60.8648 54.3117L59.5412 55.9501ZM54.5704 56.8064L55.2646 57.1535L56.2921 56.2047L56.0005 55.4873L56.2319 55.2744L57.3936 58.2134L57.1715 58.417L54.3436 57.0193L54.575 56.8064H54.5704ZM56.4032 56.4824L55.5284 57.2877L57.0373 58.0467L56.4032 56.4824ZM50.8631 59.6018C51.0286 59.4837 51.2164 59.4006 51.4151 59.3577C51.6138 59.3149 51.8192 59.3131 52.0186 59.3525C52.218 59.392 52.4073 59.4718 52.5747 59.5871C52.7421 59.7024 52.8842 59.8508 52.9921 60.023C53.2236 60.384 53.2976 60.7635 53.2189 61.1708C53.179 61.3723 53.098 61.5635 52.981 61.7323C52.8639 61.9011 52.7133 62.044 52.5386 62.152C52.3238 62.2951 52.075 62.3791 51.8174 62.3953C51.5598 62.4116 51.3025 62.3596 51.0714 62.2446L51.2103 61.9761C51.3815 62.078 51.5805 62.1196 51.7888 62.1104C51.9971 62.0965 52.1961 62.0317 52.3812 61.9113C52.5218 61.8254 52.6434 61.7117 52.7384 61.577C52.8334 61.4424 52.8998 61.2897 52.9336 61.1285C52.9674 60.9672 52.9679 60.8007 52.935 60.6393C52.9021 60.4778 52.8365 60.3248 52.7422 60.1896C52.6547 60.0506 52.5399 59.9309 52.4047 59.8376C52.2695 59.7444 52.1168 59.6795 51.9558 59.6471C51.7948 59.6146 51.6288 59.6152 51.4681 59.6488C51.3073 59.6824 51.155 59.7483 51.0205 59.8425C50.8354 59.9628 50.6965 60.1202 50.604 60.3053C50.5114 60.4951 50.4744 60.6895 50.4929 60.8931L50.1967 60.9116C50.1828 60.654 50.2371 60.3972 50.3541 60.1673C50.4711 59.9373 50.6467 59.7423 50.8631 59.6018ZM47.6141 64.7855L47.4938 64.531L48.3083 64.1422L47.1605 61.7355L47.429 61.6059L48.5768 64.0126L49.3914 63.6238L49.5117 63.8784L47.6141 64.7855ZM38.6908 65.4983L38.7186 65.7667L37.2097 65.938L37.182 65.6741L38.6862 65.4983H38.6908Z" fill="black" stroke="black" stroke-width="0.2"/>
<path opacity="0.1" d="M29.6954 64.2722C29.8975 64.2943 30.093 64.3574 30.2699 64.4576C30.4468 64.5579 30.6013 64.6931 30.7242 64.8552C30.847 65.0172 30.9355 65.2026 30.9842 65.4C31.0329 65.5974 31.0409 65.8026 31.0076 66.0032C30.9822 66.2046 30.916 66.3988 30.8131 66.5738C30.7102 66.7488 30.5728 66.9011 30.4091 67.0212C30.2454 67.1414 30.059 67.2269 29.8612 67.2727C29.6634 67.3184 29.4583 67.3234 29.2586 67.2873C29.0025 67.2527 28.7601 67.1514 28.5557 66.9934C28.3512 66.8354 28.1919 66.6265 28.0939 66.3875L28.3735 66.2766C28.4444 66.463 28.5572 66.627 28.7215 66.7595C28.8859 66.8919 29.0789 66.974 29.296 67.0009C29.4578 67.0312 29.6242 67.028 29.7848 66.9913C29.9454 66.9547 30.0967 66.8855 30.2295 66.788C30.3622 66.6905 30.4736 66.5668 30.5566 66.4246C30.6396 66.2823 30.6925 66.1245 30.7121 65.961C30.7396 65.7985 30.7336 65.6321 30.6947 65.472C30.6557 65.3119 30.5845 65.1614 30.4855 65.0297C30.3864 64.898 30.2615 64.7879 30.1185 64.706C29.9754 64.6242 29.8172 64.5724 29.6534 64.5538C29.4364 64.5223 29.2277 64.5464 29.0319 64.6263C28.8361 64.7062 28.6813 64.8238 28.5627 64.9884L28.3251 64.8084C28.4853 64.6066 28.696 64.4508 28.9358 64.3566C29.1756 64.2624 29.4361 64.2333 29.6908 64.2721L29.6954 64.2722ZM23.9489 63.3201C24.318 63.1275 24.7073 63.0973 25.1125 63.2247C25.5221 63.3569 25.8186 63.6074 26.0113 63.9764C26.2038 64.3501 26.2295 64.7348 26.1067 65.14C26.0498 65.3321 25.9542 65.5106 25.8258 65.6644C25.6973 65.8182 25.5387 65.9441 25.3597 66.0342C24.9859 66.2314 24.5966 66.2616 24.1914 66.1342C23.9976 66.0768 23.8177 65.98 23.6631 65.8499C23.5084 65.7197 23.3823 65.559 23.2927 65.3778C23.1987 65.2014 23.1417 65.0075 23.1253 64.8083C23.1088 64.609 23.1333 64.4084 23.1972 64.2189C23.2548 64.0259 23.3512 63.8466 23.4804 63.692C23.6097 63.5375 23.7691 63.411 23.9489 63.3201ZM25.7544 64.1062C25.6815 63.9596 25.5789 63.8297 25.4533 63.7248C25.3276 63.6198 25.1816 63.542 25.0244 63.4963C24.87 63.4448 24.7069 63.425 24.5447 63.4379C24.3825 63.4508 24.2245 63.4962 24.0803 63.5714C23.936 63.6467 23.8083 63.7502 23.7049 63.8758C23.6014 64.0014 23.5243 64.1465 23.4781 64.3025C23.4261 64.4571 23.406 64.6206 23.4191 64.7832C23.4321 64.9457 23.4781 65.1039 23.5542 65.2482C23.7017 65.5516 23.9435 65.7549 24.2795 65.8626C24.6111 65.961 24.9262 65.9387 25.2206 65.7818C25.3658 65.7077 25.4944 65.6047 25.5985 65.4792C25.7025 65.3536 25.7799 65.2082 25.8258 65.0517C25.9288 64.7203 25.9066 64.4051 25.7498 64.1061L25.7544 64.1062ZM18.425 63.6727L18.1635 63.5386L19.5054 60.9142L19.7349 61.0293L20.1011 63.9149L21.1938 61.7815L21.4553 61.9157L20.1087 64.54L19.8839 64.425L19.5178 61.5347L18.425 63.6727ZM13.9248 60.8075L14.0861 60.5789L14.8269 61.101L16.3693 58.9245L16.6117 59.0954L15.0646 61.2764L15.8053 61.7986L15.644 62.0272L13.9248 60.8075ZM12.7608 55.8898L12.4613 56.6066L13.472 57.5732L14.1722 57.2383L14.3953 57.4551L11.5388 58.8032L11.3203 58.5911L12.5377 55.6776L12.7654 55.8898L12.7608 55.8898ZM13.2013 57.7027L12.3454 56.8777L11.6795 58.4307L13.2013 57.7027ZM9.74881 52.3562C9.87632 52.5145 9.97021 52.6971 10.0247 52.8929C10.0793 53.0888 10.0933 53.2937 10.0659 53.4951C10.0386 53.6965 9.97046 53.8902 9.8657 54.0644C9.76094 54.2386 9.62175 54.3896 9.45665 54.5082C9.2973 54.6344 9.11383 54.7266 8.91751 54.7792C8.72119 54.8319 8.51619 54.8438 8.31509 54.8143C8.114 54.7847 7.92107 54.7144 7.74817 54.6075C7.57526 54.5007 7.42604 54.3596 7.30968 54.193C7.1536 53.9878 7.05412 53.7453 7.02122 53.4897C6.98831 53.234 7.02313 52.9742 7.12218 52.7362L7.39789 52.8521C7.31599 53.0358 7.28021 53.2296 7.30434 53.4384C7.33301 53.6518 7.40837 53.8429 7.5395 54.0211C7.63361 54.1566 7.75456 54.2712 7.89485 54.358C8.03514 54.4448 8.19176 54.5018 8.355 54.5254C8.51824 54.5491 8.68461 54.539 8.84377 54.4957C9.00293 54.4524 9.15149 54.3768 9.28022 54.2737C9.41427 54.1776 9.52733 54.0552 9.61247 53.914C9.69762 53.7728 9.75306 53.6157 9.77541 53.4523C9.79776 53.2889 9.78654 53.1227 9.74246 52.9637C9.69837 52.8048 9.62233 52.6566 9.51899 52.5281C9.38315 52.3544 9.22337 52.2267 9.03038 52.1446C8.84477 52.0628 8.63937 52.0367 8.43919 52.0695L8.39808 51.7725C8.65424 51.7422 8.91386 51.7797 9.15094 51.8814C9.38802 51.983 9.59422 52.1451 9.74889 52.3516L9.74881 52.3562ZM4.37928 49.4342L4.62234 49.2995L5.06211 50.0941L7.39469 48.7924L7.53825 49.0542L5.20112 50.3511L5.64089 51.1458L5.40246 51.2805L4.3792 49.4388L4.37928 49.4342ZM3.10851 40.5567L2.84377 40.6077L2.57825 39.1125L2.84291 39.0662L3.10851 40.5567ZM4.12846 28.7984C4.10091 28.9996 4.03268 29.193 3.92792 29.3669C3.82317 29.5408 3.68409 29.6916 3.51916 29.81C3.35423 29.9284 3.16692 30.0119 2.96864 30.0556C2.77036 30.0992 2.56527 30.102 2.36587 30.0638C2.16495 30.0336 1.9723 29.9627 1.79967 29.8556C1.62704 29.7484 1.47807 29.6072 1.36184 29.4406C1.24562 29.2739 1.16458 29.0853 1.12369 28.8863C1.08279 28.6873 1.08289 28.482 1.12399 28.2831C1.16492 28.0276 1.27267 27.7875 1.43632 27.5871C1.59996 27.3868 1.81368 27.2332 2.05581 27.1421L2.16195 27.4263C1.96646 27.4877 1.80255 27.5959 1.66545 27.7602C1.53305 27.9199 1.44644 28.1082 1.40562 28.325C1.37034 28.4867 1.36881 28.654 1.40112 28.8164C1.43343 28.9787 1.49889 29.1326 1.5934 29.2685C1.68792 29.4044 1.80945 29.5194 1.95041 29.6062C2.09136 29.693 2.24871 29.7497 2.41261 29.7729C2.57429 29.8047 2.74074 29.8031 2.9018 29.7684C3.06286 29.7336 3.21515 29.6664 3.34937 29.5709C3.4836 29.4753 3.59694 29.3534 3.68248 29.2126C3.76802 29.0718 3.82396 28.915 3.8469 28.7518C3.88309 28.5349 3.86813 28.331 3.79294 28.1306C3.72409 27.9404 3.60157 27.7743 3.44023 27.6523L3.62937 27.4241C3.82693 27.5904 3.9771 27.8059 4.06471 28.0489C4.15231 28.2918 4.17425 28.5535 4.12829 28.8077L4.12846 28.7984ZM5.23288 23.0731C5.41152 23.4466 5.4325 23.8358 5.29582 24.2407C5.23334 24.4318 5.13239 24.608 4.9992 24.7585C4.86601 24.909 4.7034 25.0307 4.52139 25.116C4.14787 25.2992 3.75405 25.3201 3.35379 25.1789C3.16389 25.1167 2.9887 25.0163 2.83898 24.8839C2.68925 24.7516 2.56815 24.59 2.48309 24.4092C2.39096 24.2293 2.337 24.0323 2.32459 23.8305C2.31218 23.6288 2.34159 23.4266 2.41097 23.2368C2.55683 22.8366 2.81189 22.5448 3.19003 22.3616C3.56347 22.183 3.95275 22.1574 4.35301 22.2986C4.54465 22.361 4.72153 22.4619 4.87283 22.5951C5.02412 22.7283 5.14664 22.8909 5.23288 23.0731ZM4.40097 24.8546C4.54783 24.786 4.67898 24.6878 4.78623 24.5662C4.89348 24.4447 4.97453 24.3023 5.02433 24.148C5.08005 23.9947 5.10427 23.8318 5.09554 23.6689C5.08682 23.506 5.04533 23.3466 4.97355 23.2002C4.90178 23.0537 4.80119 22.9232 4.67782 22.8165C4.55444 22.7099 4.41081 22.6292 4.25553 22.5793C4.10393 22.5227 3.94245 22.4974 3.78083 22.505C3.6192 22.5125 3.46077 22.5526 3.31508 22.623C3.00708 22.7658 2.79926 23.0029 2.68239 23.3341C2.57022 23.6608 2.58778 23.9805 2.73995 24.2794C2.81025 24.426 2.90951 24.5568 3.03175 24.664C3.15399 24.7711 3.29667 24.8524 3.45119 24.9029C3.77326 25.015 4.09751 25.0021 4.40097 24.8546ZM5.02407 17.5332L5.1675 17.2719L7.74883 18.6917L7.62918 18.9165L4.73114 19.1992L6.84027 20.3562L6.69692 20.6129L4.11096 19.193L4.23515 18.9729L7.12857 18.6902L5.01944 17.5331L5.02407 17.5332ZM7.99911 13.1043L8.22296 13.2748L7.67802 13.9967L9.81634 15.6033L9.63638 15.8362L7.5026 14.2343L6.95767 14.9562L6.73837 14.7904L7.99911 13.1043ZM12.9424 12.0704L12.2352 11.7479L11.2458 12.7351L11.5576 13.4395L11.3407 13.6625L10.0673 10.7703L10.2841 10.5519L13.1638 11.852L12.9424 12.0704ZM11.1257 12.4599L11.9689 11.6229L10.435 10.9203L11.1257 12.4599ZM16.5485 9.14298C16.3873 9.2667 16.2025 9.35613 16.0054 9.40578C15.8084 9.45543 15.6032 9.46426 15.4026 9.43171C15.202 9.39916 15.0102 9.32592 14.8389 9.21651C14.6677 9.10709 14.5206 8.9638 14.4068 8.79545C14.2851 8.63227 14.1981 8.44596 14.151 8.24795C14.1039 8.04994 14.0977 7.84439 14.1328 7.64391C14.168 7.44343 14.2437 7.25223 14.3553 7.08204C14.4669 6.91185 14.6122 6.76625 14.7821 6.65416C14.9913 6.50372 15.2364 6.41105 15.4929 6.38546C15.7493 6.35987 16.0079 6.40226 16.2427 6.50838L16.1176 6.78394C15.9387 6.68823 15.7449 6.65245 15.5316 6.67187C15.323 6.69137 15.1273 6.76202 14.9492 6.89315C14.8113 6.98327 14.6934 7.10072 14.6028 7.23825C14.5121 7.37577 14.4507 7.53044 14.4223 7.69267C14.3938 7.8549 14.399 8.02124 14.4375 8.18139C14.4759 8.34155 14.5468 8.4921 14.6458 8.62373C14.7378 8.76104 14.8571 8.87801 14.9961 8.9674C15.1351 9.05679 15.291 9.11669 15.4541 9.1434C15.6173 9.17012 15.7841 9.16307 15.9444 9.1227C16.1047 9.08233 16.255 9.00949 16.386 8.90869C16.5641 8.78219 16.6965 8.62249 16.7832 8.42959C16.8699 8.23668 16.8965 8.0381 16.8676 7.83855L17.169 7.80678C17.1923 8.06326 17.1476 8.32135 17.0395 8.5551C16.9314 8.78885 16.7637 8.99004 16.5533 9.13843L16.5485 9.14298ZM19.6082 3.84528L19.7381 4.09289L18.9346 4.51399L20.1662 6.88238L19.9046 7.01668L18.673 4.64829L17.8695 5.06939L17.7396 4.82179L19.6082 3.84528ZM28.5046 2.81092L28.463 2.54635L29.9621 2.31792L30.0038 2.5825L28.5046 2.81092ZM40.2251 4.14035C40.0244 4.10755 39.8325 4.03414 39.6611 3.92461C39.4898 3.81509 39.3426 3.67175 39.2285 3.50336C39.1145 3.33498 39.036 3.1451 38.9978 2.94533C38.9597 2.74556 38.9627 2.54011 39.0067 2.34155C39.0426 2.14145 39.119 1.95077 39.2311 1.78118C39.3433 1.61159 39.4888 1.46666 39.6589 1.35524C39.8289 1.24383 40.0199 1.16827 40.2202 1.13319C40.4204 1.09811 40.6257 1.10424 40.8235 1.15121C41.0766 1.20034 41.3123 1.31527 41.5068 1.48444C41.7013 1.65362 41.8478 1.87106 41.9316 2.11487L41.6429 2.21167C41.5882 2.01786 41.4787 1.84397 41.3276 1.71086C41.168 1.56921 40.9799 1.47334 40.7677 1.43261C40.6071 1.39364 40.4402 1.38816 40.2774 1.41651C40.1147 1.44487 39.9594 1.50644 39.8215 1.5974C39.6835 1.68836 39.5658 1.80676 39.4756 1.94522C39.3854 2.08368 39.3247 2.23923 39.2973 2.40217C39.2612 2.56306 39.2583 2.72961 39.2888 2.89165C39.3193 3.05369 39.3825 3.20781 39.4745 3.34459C39.5666 3.48138 39.6856 3.59795 39.8242 3.68718C39.9629 3.77642 40.1183 3.83644 40.2809 3.86358C40.4931 3.90432 40.7016 3.89407 40.9018 3.82813C41.1021 3.75294 41.2661 3.64007 41.3892 3.48484L41.6173 3.67861C41.4457 3.8717 41.2262 4.01608 40.9809 4.09714C40.7357 4.17821 40.4734 4.19308 40.2205 4.14027L40.2251 4.14035ZM45.9061 5.39676C45.5327 5.5754 45.1391 5.58241 44.739 5.43193C44.5489 5.36412 44.3748 5.25794 44.2275 5.11999C44.0802 4.98205 43.9629 4.81528 43.8827 4.63006C43.7996 4.44745 43.7544 4.24984 43.75 4.04924C43.7455 3.84864 43.7819 3.64923 43.8568 3.4631C44.0026 3.06756 44.2667 2.78517 44.6447 2.61124C45.0273 2.43739 45.4164 2.42566 45.8165 2.57614C46.2166 2.72662 46.5035 2.99548 46.6727 3.37801C46.842 3.75592 46.8538 4.14496 46.7079 4.54513C46.6396 4.73494 46.5332 4.9088 46.3954 5.05604C46.2575 5.20327 46.091 5.32079 45.906 5.40138L45.9061 5.39676ZM44.1485 4.51897C44.2821 4.82219 44.5144 5.03918 44.8409 5.1606C44.9923 5.22014 45.154 5.24862 45.3166 5.24436C45.4792 5.2401 45.6392 5.20319 45.7873 5.1358C45.9353 5.06842 46.0682 4.97196 46.1782 4.85215C46.2882 4.73234 46.3729 4.59163 46.4274 4.4384C46.4879 4.2877 46.5173 4.12631 46.5137 3.96396C46.5102 3.80161 46.4738 3.64166 46.4069 3.49373C46.3431 3.34304 46.2486 3.20731 46.1294 3.09523C46.0102 2.98315 45.8689 2.89719 45.7146 2.84284C45.5636 2.78215 45.4017 2.75346 45.2391 2.75859C45.0764 2.76372 44.9166 2.80256 44.7698 2.87264C44.4618 3.01539 44.254 3.24785 44.1281 3.56968C44.0067 3.89159 44.0151 4.2065 44.1485 4.51897ZM51.4386 5.3452L51.6954 5.48855L50.2112 8.04099L49.9912 7.91216L49.7828 5.00615L48.5754 7.08201L48.3187 6.93403L49.8028 4.38622L50.0228 4.51504L50.2314 7.41643L51.4386 5.3452ZM55.7822 8.43911L55.6071 8.65825L54.8994 8.09505L53.2427 10.1908L53.0145 10.0063L54.6711 7.91516L53.9589 7.34725L54.1293 7.13266L55.7822 8.43911ZM56.6813 13.4124L57.0222 12.7148L56.0678 11.6983L55.3498 11.9959L55.1362 11.7653L58.0594 10.5712L58.2685 10.7924L56.8949 13.6384L56.6813 13.4124ZM56.3429 11.5827L57.1518 12.4486L57.8957 10.934L56.3383 11.5826L56.3429 11.5827ZM59.5054 17.1047C59.3861 16.9397 59.3018 16.7521 59.2576 16.5533C59.2134 16.3545 59.2103 16.1488 59.2485 15.9488C59.2866 15.7488 59.3653 15.5587 59.4795 15.3901C59.5938 15.2216 59.7413 15.0782 59.913 14.9686C60.0794 14.8522 60.2678 14.7709 60.4667 14.7297C60.6656 14.6885 60.8707 14.6882 61.0697 14.729C61.2687 14.7697 61.4573 14.8505 61.624 14.9666C61.7907 15.0826 61.932 15.2314 62.0393 15.4039C62.1825 15.617 62.2675 15.8639 62.2857 16.12C62.304 16.3761 62.2549 16.6325 62.1434 16.8638L61.8726 16.7341C61.9683 16.5552 62.018 16.3617 61.9986 16.1484C61.985 15.9381 61.915 15.7354 61.7959 15.5616C61.7095 15.4216 61.5953 15.3008 61.4603 15.2066C61.3254 15.1125 61.1725 15.047 61.0113 15.0143C60.85 14.9815 60.6838 14.9822 60.5228 15.0162C60.3618 15.0503 60.2095 15.117 60.0754 15.2122C59.937 15.3014 59.8181 15.4178 59.726 15.5543C59.6339 15.6909 59.5705 15.8446 59.5395 16.0064C59.5086 16.1681 59.5107 16.3344 59.5459 16.4953C59.5811 16.6562 59.6486 16.8082 59.7443 16.9423C59.866 17.1296 60.0211 17.2619 60.2093 17.3531C60.402 17.4491 60.5959 17.4802 60.8 17.456L60.8225 17.7573C60.5649 17.774 60.3076 17.7224 60.0763 17.6079C59.8451 17.4933 59.6481 17.3197 59.5054 17.1047ZM64.7126 20.3063L64.4652 20.427L64.0627 19.6145L61.6676 20.7855L61.5333 20.5239L63.9378 19.3485L63.54 18.5361L63.7921 18.4109L64.7126 20.3063ZM65.5056 29.2402L65.7747 29.2079L65.9567 30.7108L65.6923 30.7433L65.5056 29.2402ZM63.862 40.9275C63.9005 40.728 63.9793 40.5385 64.0934 40.3705C64.2076 40.2025 64.3549 40.0595 64.5262 39.9503C64.6974 39.8411 64.8892 39.768 65.0897 39.7353C65.2902 39.7027 65.4952 39.7113 65.6923 39.7605C66.1072 39.8603 66.4274 40.0789 66.6527 40.43C66.8734 40.781 66.9359 41.1755 66.8358 41.6089C66.7809 41.861 66.6604 42.0941 66.4863 42.2846C66.3123 42.475 66.0909 42.616 65.8448 42.6933L65.7572 42.4048C65.9526 42.3527 66.1209 42.2538 66.2671 42.0989C66.4087 41.944 66.5045 41.7605 66.5545 41.5485C66.598 41.389 66.6082 41.2224 66.5845 41.0588C66.5608 40.8953 66.5037 40.7384 66.4167 40.5979C66.3297 40.4574 66.2146 40.3363 66.0788 40.2422C65.9429 40.1482 65.7892 40.0831 65.6271 40.051C65.4673 40.0112 65.3011 40.0043 65.1385 40.0308C64.976 40.0573 64.8206 40.1166 64.6817 40.2051C64.5429 40.2937 64.4235 40.4096 64.3309 40.5457C64.2383 40.6819 64.1744 40.8355 64.1432 40.9972C64.0932 41.2092 64.0989 41.413 64.1647 41.6178C64.226 41.818 64.3342 41.9865 64.4893 42.1142L64.291 42.3375C64.0996 42.1676 63.9643 41.9615 63.8855 41.7055C63.8111 41.4543 63.8018 41.1949 63.862 40.9275ZM62.4532 46.5873C62.3736 46.4023 62.3328 46.2029 62.3331 46.0015C62.3334 45.8001 62.375 45.6009 62.4551 45.4162C62.6148 45.0209 62.8881 44.7433 63.2751 44.5834C63.4592 44.504 63.6576 44.4628 63.8581 44.4623C64.0586 44.4618 64.2572 44.5021 64.4417 44.5806C64.8369 44.7449 65.1146 45.0136 65.2745 45.4006C65.439 45.7877 65.4368 46.1764 65.2772 46.5718C65.2048 46.7593 65.0947 46.9301 64.9537 47.0733C64.8126 47.2166 64.6436 47.3293 64.4572 47.4045C64.0702 47.5644 63.6813 47.5669 63.2906 47.4073C63.1026 47.3348 62.9313 47.2247 62.7873 47.0837C62.6434 46.9427 62.5297 46.7737 62.4532 46.5873ZM63.3816 44.8491C63.0737 44.9826 62.8523 45.2055 62.7217 45.5273C62.5911 45.849 62.5902 46.1638 62.7191 46.4716C62.8525 46.784 63.0802 47.0009 63.4019 47.1315C63.7237 47.2621 64.0383 47.2676 64.3461 47.1388C64.4975 47.0786 64.6347 46.9877 64.7491 46.8718C64.8634 46.7559 64.9525 46.6174 65.0105 46.4653C65.1458 46.1436 65.1421 45.8241 65.0086 45.5163C64.946 45.3662 64.8536 45.2303 64.7371 45.1169C64.6205 45.0035 64.4822 44.9148 64.3304 44.8564C64.1808 44.7915 64.0197 44.7573 63.8567 44.7561C63.6937 44.7548 63.5321 44.7865 63.3816 44.8491ZM62.3703 52.1313L62.2178 52.3833L59.7083 50.8258L59.8417 50.6106L62.7463 50.4807L60.7085 49.2139L60.8656 48.9666L63.3705 50.5194L63.2372 50.7346L60.3325 50.8691L62.3703 52.1313ZM59.1575 56.3941L58.943 56.2145L59.5245 55.521L57.4807 53.805L57.6698 53.5769L59.7137 55.2929L60.2951 54.5994L60.5096 54.779L59.1575 56.3941ZM54.1725 57.1634L54.8606 57.5226L55.9045 56.5919L55.6255 55.8696L55.8606 55.6607L56.9708 58.6195L56.7451 58.8192L53.9421 57.3724L54.1771 57.1635L54.1725 57.1634ZM56.0107 56.8715L55.122 57.6614L56.6174 58.4467L56.0107 56.8715ZM50.4171 59.8938C50.5845 59.7785 50.7738 59.6988 50.9732 59.6594C51.1726 59.62 51.378 59.6218 51.5767 59.6647C51.7754 59.7076 51.9632 59.7908 52.1286 59.909C52.294 60.0272 52.4334 60.178 52.5384 60.3521C52.7635 60.7171 52.8309 61.0978 52.7451 61.5037C52.7017 61.7045 52.6174 61.8941 52.4974 62.0609C52.3774 62.2276 52.2243 62.3679 52.0477 62.4728C51.8305 62.6122 51.5803 62.6918 51.3224 62.7035C51.0646 62.7153 50.8082 62.6588 50.5792 62.5398L50.7227 62.2738C50.8921 62.3786 51.0904 62.4237 51.2988 62.4181C51.5073 62.4079 51.7074 62.3465 51.8946 62.2295C52.0367 62.146 52.1602 62.0344 52.2575 61.9014C52.3549 61.7685 52.424 61.617 52.4606 61.4563C52.4972 61.2957 52.5006 61.1292 52.4705 60.9672C52.4404 60.8052 52.3775 60.6511 52.2856 60.5143C52.2005 60.3738 52.0878 60.2521 51.9542 60.1565C51.8207 60.0609 51.6691 59.9934 51.5087 59.9581C51.3483 59.9228 51.1824 59.9205 51.0211 59.9513C50.8597 59.9821 50.7063 60.0453 50.5702 60.1372C50.383 60.2543 50.2414 60.4092 50.1456 60.5927C50.0498 60.7808 50.0094 60.9745 50.0243 61.1784L49.7278 61.1918C49.7184 60.9339 49.7772 60.6782 49.8982 60.4503C50.0192 60.2224 50.1982 60.0304 50.4171 59.8938ZM47.078 65.02L46.9622 64.7634L47.7834 64.3889L46.6778 61.9625L46.9484 61.8376L48.0541 64.264L48.8753 63.8895L48.9912 64.1461L47.078 65.02ZM38.1436 65.5769L38.1667 65.8458L36.6551 65.9907L36.632 65.7264L38.139 65.5768L38.1436 65.5769Z" fill="black" stroke="black" stroke-width="0.2"/>
</svg>
