<svg width="100" height="101" viewBox="0 0 100 101" fill="none" xmlns="http://www.w3.org/2000/svg">
<mask id="path-1-inside-1_203_160" fill="white">
<path d="M44.534 90.934C44.8009 90.9586 45.06 91.0377 45.2954 91.1664C45.5309 91.2951 45.7378 91.4707 45.9034 91.6826C46.0691 91.8944 46.19 92.138 46.2588 92.3984C46.3276 92.6588 46.3429 92.9305 46.3037 93.1971C46.2749 93.4645 46.1922 93.7233 46.0606 93.9576C45.9291 94.1918 45.7515 94.3967 45.5386 94.5597C45.3256 94.7227 45.0819 94.8404 44.8223 94.9055C44.5626 94.9707 44.2925 94.9821 44.0283 94.9388C43.6901 94.899 43.3682 94.7703 43.0951 94.5657C42.822 94.3612 42.6072 94.088 42.4724 93.7736L42.8384 93.6202C42.9361 93.8656 43.0886 94.0802 43.3083 94.2519C43.528 94.4237 43.7842 94.5279 44.071 94.5586C44.2851 94.595 44.5043 94.5868 44.7151 94.5346C44.9258 94.4823 45.1237 94.3871 45.2964 94.2549C45.4691 94.1227 45.613 93.9562 45.719 93.7658C45.8251 93.5754 45.8912 93.3651 45.9132 93.148C45.9457 92.9321 45.934 92.7118 45.8789 92.5005C45.8239 92.2893 45.7265 92.0915 45.5929 91.9193C45.4593 91.7471 45.2921 91.6041 45.1017 91.499C44.9112 91.3939 44.7015 91.329 44.4852 91.3081C44.1985 91.2713 43.924 91.3081 43.6677 91.4185C43.4115 91.5289 43.2102 91.6883 43.0577 91.9091L42.7405 91.6761C42.9469 91.405 43.221 91.1937 43.5349 91.0634C43.8487 90.9331 44.1913 90.8884 44.5279 90.934H44.534ZM36.9381 89.8055C37.4201 89.5418 37.9325 89.4927 38.4694 89.6521C39.0125 89.8177 39.4091 90.1428 39.6715 90.6273C39.9339 91.1179 39.9767 91.627 39.8243 92.1667C39.7539 92.4226 39.632 92.6613 39.4663 92.8681C39.3005 93.0748 39.0944 93.2452 38.8606 93.3688C38.3726 93.6386 37.8601 93.6877 37.3232 93.5282C37.0664 93.4567 36.8271 93.3326 36.6202 93.1638C36.4134 92.9949 36.2435 92.7849 36.1211 92.547C35.9931 92.3153 35.9134 92.0598 35.8872 91.7962C35.8609 91.5325 35.8885 91.2662 35.9683 91.0137C36.0397 90.7566 36.1626 90.5168 36.3293 90.309C36.4961 90.1013 36.7032 89.93 36.9381 89.8055ZM39.336 90.8052C39.2364 90.6126 39.0983 90.443 38.9303 90.3068C38.7622 90.1706 38.568 90.0709 38.3597 90.014C38.1551 89.9494 37.9396 89.9268 37.7261 89.9477C37.5126 89.9685 37.3055 90.0324 37.1171 90.1354C36.9287 90.2384 36.7628 90.3785 36.6294 90.5473C36.496 90.7161 36.3977 90.9102 36.3405 91.1179C36.2755 91.3239 36.2528 91.541 36.2738 91.7561C36.2948 91.9712 36.3591 92.1797 36.4627 92.3691C36.6641 92.7677 36.9875 93.0315 37.4329 93.1664C37.8722 93.2891 38.2871 93.2522 38.6714 93.0376C38.8611 92.936 39.0282 92.7966 39.1624 92.6279C39.2967 92.4592 39.3952 92.2647 39.4521 92.0563C39.5802 91.6147 39.5435 91.1977 39.3299 90.8052H39.336ZM29.666 90.4004L29.3182 90.2287L31.0258 86.7205L31.3309 86.8677L31.8807 90.6825L33.2711 87.8306L33.6189 88.0024L31.9052 91.5105L31.6062 91.3633L31.0565 87.5424L29.666 90.4004ZM23.6681 86.7083L23.8755 86.4016L24.864 87.0763L26.8462 84.1569L27.1696 84.3777L25.1812 87.3032L26.1697 87.9778L25.9623 88.2845L23.6681 86.7083ZM22.0197 80.2195L21.6416 81.1762L22.9962 82.4335L23.9113 81.9735L24.2103 82.2557L20.4769 84.1078L20.184 83.8319L21.7207 79.9435L22.0258 80.2195H22.0197ZM22.6424 82.6114L21.4952 81.5381L20.6537 83.6111L22.6424 82.6114ZM17.9678 75.6074C18.1396 75.8142 18.2676 76.054 18.344 76.3122C18.4204 76.5704 18.4436 76.8415 18.4123 77.109C18.3809 77.3765 18.2956 77.6348 18.1616 77.868C18.0276 78.1012 17.8476 78.3045 17.6328 78.4654C17.4257 78.6363 17.186 78.7627 16.9285 78.837C16.671 78.9113 16.4011 78.9318 16.1354 78.8973C15.8696 78.8629 15.6137 78.7741 15.3834 78.6366C15.153 78.499 14.9531 78.3155 14.7958 78.0974C14.5853 77.8293 14.4486 77.5102 14.3993 77.1723C14.35 76.8343 14.3898 76.4893 14.5148 76.1717L14.8809 76.3189C14.7772 76.5642 14.7346 76.8218 14.7712 77.0978C14.814 77.3799 14.9177 77.6313 15.0947 77.8644C15.2219 78.0417 15.384 78.1908 15.5709 78.3026C15.7578 78.4143 15.9656 78.4862 16.1813 78.5138C16.3969 78.5414 16.616 78.5241 16.8247 78.463C17.0335 78.402 17.2275 78.2984 17.3948 78.1588C17.5693 78.0284 17.7154 77.8637 17.8244 77.6746C17.9333 77.4855 18.0027 77.276 18.0284 77.059C18.054 76.8421 18.0354 76.6221 17.9736 76.4125C17.9118 76.203 17.8081 76.0084 17.6689 75.8405C17.4859 75.6136 17.2723 75.448 17.016 75.3437C16.7695 75.2396 16.4982 75.2097 16.2351 75.2578L16.174 74.8653C16.5109 74.8192 16.854 74.863 17.1688 74.9921C17.4836 75.1213 17.7592 75.3314 17.9678 75.6013L17.9678 75.6074ZM10.823 71.8601L11.1402 71.6761L11.7383 72.7188L14.7823 70.9402L14.9776 71.2836L11.9275 73.0561L12.5255 74.0987L12.2144 74.2827L10.823 71.8663L10.823 71.8601ZM8.94175 60.1276L8.59401 60.2012L8.20929 58.2263L8.55703 58.1589L8.94175 60.1276ZM10.0126 44.5251C9.98101 44.7922 9.89558 45.0501 9.76156 45.2829C9.62754 45.5157 9.44774 45.7187 9.23312 45.8794C9.01851 46.0401 8.77357 46.1551 8.51326 46.2175C8.25294 46.2799 7.9827 46.2884 7.71902 46.2423C7.45351 46.207 7.19794 46.1176 6.96793 45.9796C6.73792 45.8416 6.53829 45.658 6.38124 45.4399C6.22418 45.2218 6.113 44.9738 6.05447 44.711C5.99594 44.4483 5.99131 44.1763 6.04084 43.9118C6.08885 43.5724 6.22528 43.2518 6.4363 42.9825C6.64733 42.7132 6.92544 42.5048 7.24244 42.3785L7.38893 42.7526C7.1327 42.8385 6.9192 42.9857 6.74231 43.2065C6.57153 43.4211 6.46176 43.6726 6.413 43.9608C6.37027 44.1759 6.37214 44.3976 6.41849 44.6119C6.46485 44.8263 6.5547 45.0287 6.68243 45.2066C6.81016 45.3845 6.97301 45.5339 7.1608 45.6457C7.3486 45.7574 7.5573 45.829 7.77385 45.8559C7.98768 45.8942 8.20702 45.8883 8.41849 45.8386C8.62995 45.7888 8.8291 45.6962 9.00379 45.5665C9.17847 45.4368 9.32501 45.2727 9.43448 45.0841C9.54395 44.8956 9.61404 44.6866 9.64048 44.4699C9.68313 44.1816 9.65868 43.9118 9.55491 43.648C9.45975 43.3976 9.29441 43.1803 9.07893 43.0225L9.32291 42.7158C9.58716 42.9316 9.79009 43.2136 9.9112 43.5335C10.0323 43.8533 10.0673 44.1996 10.0126 44.5373L10.0126 44.5251ZM11.3351 36.9139C11.5793 37.4046 11.616 37.9198 11.4452 38.4595C11.3673 38.714 11.2384 38.9498 11.0663 39.1523C10.8943 39.3549 10.6828 39.5198 10.4449 39.637C9.95688 39.8885 9.43831 39.9253 8.9075 39.7474C8.65577 39.6693 8.42254 39.5404 8.22213 39.3685C8.02172 39.1966 7.85835 38.9853 7.74204 38.7477C7.61643 38.5115 7.54073 38.2517 7.51969 37.9847C7.49864 37.7177 7.5327 37.4492 7.61974 37.1961C7.80267 36.6625 8.13205 36.27 8.62617 36.0185C9.1142 35.7732 9.62667 35.7302 10.1575 35.9081C10.4115 35.9864 10.647 36.116 10.8495 36.2889C11.052 36.4619 11.2172 36.6746 11.3351 36.9139ZM10.2801 39.2936C10.4721 39.1992 10.6427 39.0661 10.7812 38.9025C10.9197 38.739 11.0232 38.5485 11.0853 38.3429C11.1551 38.1385 11.1833 37.9221 11.168 37.7065C11.1527 37.4909 11.0943 37.2806 10.9963 37.0882C10.8983 36.8958 10.7627 36.7253 10.5976 36.5868C10.4325 36.4483 10.2414 36.3447 10.0355 36.2822C9.83442 36.2108 9.62101 36.181 9.40816 36.1947C9.19532 36.2084 8.98744 36.2653 8.79706 36.362C8.39444 36.5582 8.12606 36.8771 7.97972 37.3187C7.83948 37.7542 7.87006 38.1773 8.07756 38.5699C8.17362 38.7624 8.30749 38.9334 8.47109 39.0726C8.63469 39.2117 8.82463 39.3161 9.02945 39.3794C9.45654 39.5205 9.8836 39.4959 10.2801 39.2936ZM10.9311 29.5788L11.1141 29.2292L14.5492 31.0507L14.3968 31.3512L10.5838 31.7928L13.3905 33.277L13.2075 33.6205L9.76627 31.799L9.92484 31.5046L13.7317 31.063L10.925 29.5788H10.9311ZM14.7492 23.642L15.0482 23.8628L14.3468 24.8318L17.2024 26.9109L16.9706 27.2237L14.1211 25.1507L13.4197 26.1197L13.1268 25.9051L14.7492 23.642ZM21.2403 22.1578L20.3007 21.7469L19.0197 23.0777L19.447 24.0038L19.1664 24.3044L17.4208 20.5019L17.7014 20.2075L21.527 21.8634L21.2403 22.1578ZM18.855 22.7159L19.9468 21.5874L17.9089 20.692L18.855 22.7159ZM25.9251 18.1958C25.7154 18.3635 25.4739 18.4862 25.2154 18.5566C24.9568 18.6269 24.6866 18.6433 24.4215 18.6049C24.1563 18.5664 23.9018 18.4738 23.6735 18.3328C23.4453 18.1918 23.2481 18.0053 23.0942 17.7849C22.9301 17.5715 22.811 17.3267 22.7443 17.0654C22.6776 16.8042 22.6647 16.532 22.7064 16.2655C22.748 15.9991 22.8433 15.744 22.9865 15.5159C23.1297 15.2879 23.3177 15.0916 23.539 14.9392C23.8113 14.735 24.1322 14.6066 24.4696 14.5667C24.8069 14.5269 25.1488 14.5771 25.4608 14.7122L25.3022 15.0802C25.0642 14.9576 24.808 14.9146 24.5274 14.9453C24.2528 14.976 23.9966 15.0741 23.7648 15.2519C23.5852 15.3745 23.4325 15.5329 23.3163 15.7172C23.2 15.9015 23.1227 16.1078 23.089 16.3234C23.0553 16.539 23.0659 16.7593 23.1204 16.9706C23.1748 17.1819 23.2717 17.3797 23.4053 17.5518C23.5297 17.7317 23.6896 17.8839 23.8749 17.9991C24.0602 18.1143 24.2671 18.1901 24.4827 18.2217C24.6983 18.2533 24.9181 18.2401 25.1284 18.1829C25.3387 18.1257 25.5351 18.0257 25.7054 17.8892C25.9372 17.7174 26.108 17.5028 26.2177 17.2452C26.3275 16.9876 26.358 16.7239 26.3152 16.4602L26.7118 16.4111C26.7484 16.7504 26.6955 17.0934 26.5585 17.4056C26.4215 17.7178 26.2051 17.9882 25.9312 18.1897L25.9251 18.1958ZM29.8344 11.106L30.0114 11.431L28.9622 12.0076L30.6405 15.117L30.2989 15.301L28.6206 12.1915L27.5713 12.7681L27.3943 12.443L29.8344 11.106ZM41.5357 9.5298L41.4746 9.18021L43.4452 8.8429L43.5062 9.19248L41.5357 9.5298ZM57.014 11.0201C56.7487 10.9813 56.494 10.8885 56.2656 10.7473C56.0372 10.6062 55.8399 10.4197 55.6856 10.1992C55.5314 9.97876 55.4235 9.729 55.3686 9.4652C55.3137 9.20141 55.3129 8.92913 55.3663 8.66504C55.409 8.39908 55.5052 8.14468 55.649 7.9174C55.7929 7.69011 55.9813 7.49472 56.2029 7.34317C56.4244 7.19162 56.6744 7.08709 56.9375 7.03598C57.2006 6.98487 57.4714 6.98825 57.7331 7.04591C58.0678 7.10514 58.3811 7.25197 58.6414 7.47161C58.9017 7.69126 59.0998 7.97596 59.2159 8.29705L58.8377 8.43198C58.7611 8.17647 58.6127 7.9486 58.4105 7.77574C58.1969 7.59175 57.9468 7.46909 57.6661 7.42003C57.4536 7.37211 57.2335 7.36871 57.0196 7.41004C56.8057 7.45137 56.6026 7.53654 56.4229 7.66025C56.2432 7.78396 56.0907 7.94355 55.9751 8.12908C55.8594 8.31461 55.783 8.52211 55.7507 8.73863C55.7068 8.95263 55.7069 9.17337 55.7508 9.38735C55.7948 9.60134 55.8817 9.80408 56.0062 9.98318C56.1307 10.1623 56.2902 10.314 56.475 10.429C56.6598 10.544 56.866 10.62 57.081 10.6522C57.3617 10.7012 57.6362 10.6828 57.8985 10.5908C58.1608 10.4866 58.3743 10.3332 58.5329 10.1247L58.838 10.3762C58.6164 10.636 58.3304 10.8323 58.0091 10.9454C57.6877 11.0585 57.3423 11.0843 57.0079 11.0201H57.014ZM64.5306 12.5534C64.0425 12.7987 63.524 12.8171 62.9931 12.627C62.7411 12.5415 62.5091 12.4049 62.3118 12.2255C62.1144 12.0462 61.9559 11.8279 61.846 11.5844C61.7322 11.3443 61.668 11.0836 61.6575 10.8179C61.647 10.5522 61.6902 10.2872 61.7847 10.0388C61.9676 9.5114 62.3092 9.13115 62.8033 8.89196C63.3036 8.65277 63.816 8.62824 64.3468 8.81836C64.8777 9.00849 65.2621 9.35807 65.494 9.86099C65.7259 10.3578 65.7504 10.8729 65.5675 11.4065C65.4819 11.6596 65.3458 11.8924 65.1675 12.0907C64.9891 12.2889 64.7724 12.4485 64.5306 12.5595L64.5306 12.5534ZM62.1937 11.431C62.3768 11.8297 62.688 12.1118 63.1212 12.2651C63.322 12.3405 63.5359 12.3745 63.7501 12.3651C63.9643 12.3557 64.1743 12.3031 64.3679 12.2104C64.5614 12.1177 64.7344 11.9868 64.8765 11.8255C65.0187 11.6643 65.1271 11.4759 65.1953 11.2716C65.2715 11.0705 65.3065 10.856 65.2981 10.641C65.2896 10.426 65.238 10.2149 65.1463 10.0204C65.0588 9.82226 64.9311 9.64462 64.7714 9.49888C64.6117 9.35314 64.4235 9.24252 64.2188 9.17408C64.0184 9.09716 63.8043 9.06289 63.5901 9.07345C63.3758 9.08401 63.1661 9.13916 62.9742 9.23541C62.5716 9.43167 62.3032 9.74446 62.1447 10.1738C61.9922 10.6031 62.0106 11.0201 62.1937 11.431ZM71.8211 12.3571L72.1628 12.5411L70.266 15.9573L69.9732 15.7917L69.6308 11.9462L68.0878 14.7245L67.7461 14.5344L69.6429 11.1244L69.9357 11.29L70.2781 15.1293L71.8211 12.3571ZM77.6177 16.3559L77.392 16.6503L76.4462 15.9205L74.3114 18.7355L74.0064 18.4963L76.1412 15.6874L75.1893 14.9514L75.4089 14.6632L77.6177 16.3559ZM78.9184 22.9244L79.3514 21.9922L78.07 20.6674L77.1305 21.0784L76.8437 20.7778L80.6687 19.128L80.9494 19.4163L79.2052 23.2188L78.9184 22.9244ZM78.4299 20.508L79.5161 21.6365L80.4613 19.6126L78.4238 20.508H78.4299ZM82.7262 27.7511C82.5652 27.5352 82.4497 27.2886 82.3869 27.0262C82.324 26.7639 82.3152 26.4914 82.3608 26.2255C82.4065 25.9596 82.5057 25.7059 82.6524 25.48C82.799 25.254 82.9901 25.0606 83.2138 24.9115C83.4304 24.7534 83.6768 24.6413 83.938 24.5821C84.1992 24.5229 84.4696 24.5178 84.7328 24.5672C84.996 24.6166 85.2465 24.7193 85.4689 24.8692C85.6913 25.0191 85.881 25.2129 86.0264 25.439C86.2201 25.718 86.3378 26.0432 86.3678 26.3821C86.3979 26.721 86.3392 27.0619 86.1976 27.3709L85.8376 27.2053C85.9596 26.9661 86.0205 26.7085 85.99 26.4264C85.9673 26.1481 85.8703 25.8811 85.7092 25.6536C85.5921 25.4701 85.4387 25.3127 85.2587 25.191C85.0787 25.0694 84.8757 24.9862 84.6624 24.9466C84.4492 24.9069 84.23 24.9116 84.0187 24.9605C83.8073 25.0093 83.6081 25.1012 83.4335 25.2304C83.2532 25.3519 83.0992 25.5089 82.981 25.6919C82.8628 25.8748 82.7828 26.0801 82.7457 26.2951C82.7087 26.5101 82.7154 26.7304 82.7656 26.9427C82.8157 27.1551 82.9082 27.355 83.0374 27.5303C83.2021 27.7757 83.4096 27.9474 83.6597 28.0639C83.916 28.1866 84.1722 28.2234 84.4407 28.1866L84.4774 28.5852C84.1383 28.6133 83.7979 28.551 83.4905 28.4045C83.183 28.2581 82.9194 28.0327 82.7262 27.7511ZM89.6637 31.8726L89.3404 32.0381L88.7911 30.971L85.6617 32.5779L85.4786 32.2344L88.6203 30.6214L88.0771 29.5543L88.4065 29.3825L89.6637 31.8726ZM90.9166 43.691L91.2704 43.6419L91.5453 45.629L91.1976 45.6781L90.9166 43.691ZM89.0221 59.2137C89.0682 58.9486 89.1676 58.6957 89.3141 58.4704C89.4607 58.2452 89.6515 58.0524 89.8747 57.9037C90.0979 57.7551 90.3489 57.6537 90.6124 57.6058C90.8759 57.558 91.1463 57.5646 91.4072 57.6253C91.9563 57.7479 92.3834 58.0301 92.6886 58.49C92.9876 58.95 93.0792 59.4713 92.9573 60.0478C92.8909 60.3831 92.7374 60.6948 92.5124 60.9511C92.2874 61.2075 91.999 61.3994 91.6764 61.5075L91.5543 61.1273C91.8105 61.0537 92.0301 60.9187 92.2192 60.7102C92.4022 60.5017 92.5242 60.2564 92.5851 59.9742C92.6388 59.762 92.6484 59.541 92.6133 59.3248C92.5783 59.1087 92.4993 58.9021 92.3814 58.718C92.2634 58.5339 92.109 58.3761 91.9278 58.2546C91.7466 58.1331 91.5424 58.0504 91.328 58.0117C91.1165 57.9626 90.8972 57.9573 90.6836 57.9962C90.4701 58.035 90.2666 58.1172 90.0856 58.2378C89.9047 58.3583 89.7501 58.5146 89.6312 58.6971C89.5123 58.8797 89.4317 59.0847 89.3942 59.2996C89.3333 59.5817 89.3455 59.8516 89.4371 60.1214C89.5225 60.3852 89.669 60.606 89.8765 60.7715L89.6203 61.0721C89.364 60.8513 89.1809 60.5814 89.0711 60.2441C88.9673 59.9129 88.9489 59.5695 89.0221 59.2137ZM87.2969 66.7451C87.1877 66.5019 87.1292 66.2387 87.125 65.9719C87.1207 65.705 87.1708 65.4401 87.2722 65.1935C87.4734 64.666 87.8272 64.2919 88.3336 64.0711C88.5744 63.9617 88.8348 63.9025 89.0991 63.8972C89.3634 63.892 89.626 63.9407 89.871 64.0405C90.3957 64.249 90.7679 64.5986 90.9876 65.1076C91.2135 65.6167 91.2197 66.1318 91.0184 66.6593C90.9275 66.9095 90.7863 67.1382 90.6037 67.3313C90.4212 67.5244 90.2011 67.6777 89.9571 67.7816C89.4507 68.0024 88.9383 68.0147 88.4196 67.8123C88.1701 67.7206 87.9419 67.5786 87.7488 67.3951C87.5557 67.2116 87.402 66.9904 87.2969 66.7451ZM88.48 64.4207C88.0774 64.6047 87.7907 64.9052 87.6261 65.3345C87.4614 65.7639 87.4676 66.1809 87.6446 66.5857C87.8277 66.9966 88.1328 67.2787 88.5599 67.4443C88.987 67.6099 89.4019 67.6099 89.8045 67.4321C90.0026 67.3489 90.1813 67.2253 90.3294 67.069C90.4774 66.9128 90.5916 66.7273 90.6645 66.5244C90.8353 66.095 90.823 65.6719 90.6399 65.2671C90.5539 65.0696 90.429 64.8917 90.2728 64.7442C90.1165 64.5966 89.9321 64.4824 89.7307 64.4085C89.5321 64.3259 89.319 64.2844 89.1041 64.2865C88.8892 64.2886 88.677 64.3343 88.48 64.4207ZM87.3165 74.0926L87.1214 74.4299L83.7777 72.4244L83.9485 72.1361L87.7737 71.8969L85.0585 70.2655L85.2598 69.9343L88.5973 71.9337L88.4266 72.222L84.6013 72.4673L87.3165 74.0926ZM83.1812 79.8147L82.8944 79.5816L83.6446 78.6494L80.911 76.4231L81.155 76.1165L83.8886 78.3428L84.6389 77.4105L84.9256 77.6436L83.1812 79.8147ZM76.629 80.9493L77.5442 81.4093L78.8984 80.152L78.5139 79.2014L78.8189 78.9193L80.3509 82.8138L80.0581 83.0836L76.3301 81.2314L76.6351 80.9493H76.629ZM79.0449 80.52L77.892 81.5872L79.8811 82.593L79.0449 80.52ZM71.7429 84.6537C71.9609 84.4971 72.2085 84.387 72.4704 84.3302C72.7323 84.2734 73.0031 84.2711 73.2659 84.3234C73.5288 84.3756 73.7783 84.4814 73.999 84.6342C74.2197 84.787 74.407 84.9836 74.5494 85.2118C74.8545 85.6902 74.9522 86.1931 74.8486 86.7328C74.7961 86.9998 74.6893 87.2531 74.5351 87.4768C74.3808 87.7005 74.1823 87.8899 73.952 88.033C73.6689 88.2227 73.341 88.3339 73.0015 88.3554C72.6619 88.3769 72.3227 88.3081 72.0181 88.1557L72.201 87.8C72.4268 87.9349 72.6891 87.9901 72.9637 87.9778C73.2382 87.9594 73.5005 87.8736 73.7445 87.7141C73.9298 87.6002 74.09 87.4495 74.2152 87.2711C74.3404 87.0927 74.428 86.8904 74.4725 86.6767C74.517 86.463 74.5176 86.2424 74.4742 86.0284C74.4308 85.8145 74.3442 85.6117 74.22 85.4326C74.1046 85.2484 73.9532 85.0897 73.7749 84.9661C73.5967 84.8426 73.3954 84.7567 73.1831 84.7136C72.9709 84.6706 72.7522 84.6714 72.5403 84.7159C72.3284 84.7604 72.1277 84.8478 71.9504 84.9726C71.7063 85.1321 71.5234 85.3406 71.4014 85.5859C71.2794 85.8374 71.2307 86.095 71.2551 86.3648L70.8647 86.3894C70.8463 86.0479 70.9178 85.7077 71.072 85.403C71.2262 85.0982 71.4576 84.8398 71.7429 84.6537ZM67.4613 91.5227L67.3026 91.1854L68.3763 90.6702L66.8627 87.481L67.2165 87.3093L68.7301 90.4985L69.8038 89.9833L69.9624 90.3206L67.4613 91.5227ZM55.6989 92.4672L55.7356 92.8229L53.7467 93.0499L53.7101 92.7003L55.6928 92.4672H55.6989Z"/>
</mask>
<path d="M44.534 90.934C44.8009 90.9586 45.06 91.0377 45.2954 91.1664C45.5309 91.2951 45.7378 91.4707 45.9034 91.6826C46.0691 91.8944 46.19 92.138 46.2588 92.3984C46.3276 92.6588 46.3429 92.9305 46.3037 93.1971C46.2749 93.4645 46.1922 93.7233 46.0606 93.9576C45.9291 94.1918 45.7515 94.3967 45.5386 94.5597C45.3256 94.7227 45.0819 94.8404 44.8223 94.9055C44.5626 94.9707 44.2925 94.9821 44.0283 94.9388C43.6901 94.899 43.3682 94.7703 43.0951 94.5657C42.822 94.3612 42.6072 94.088 42.4724 93.7736L42.8384 93.6202C42.9361 93.8656 43.0886 94.0802 43.3083 94.2519C43.528 94.4237 43.7842 94.5279 44.071 94.5586C44.2851 94.595 44.5043 94.5868 44.7151 94.5346C44.9258 94.4823 45.1237 94.3871 45.2964 94.2549C45.4691 94.1227 45.613 93.9562 45.719 93.7658C45.8251 93.5754 45.8912 93.3651 45.9132 93.148C45.9457 92.9321 45.934 92.7118 45.8789 92.5005C45.8239 92.2893 45.7265 92.0915 45.5929 91.9193C45.4593 91.7471 45.2921 91.6041 45.1017 91.499C44.9112 91.3939 44.7015 91.329 44.4852 91.3081C44.1985 91.2713 43.924 91.3081 43.6677 91.4185C43.4115 91.5289 43.2102 91.6883 43.0577 91.9091L42.7405 91.6761C42.9469 91.405 43.221 91.1937 43.5349 91.0634C43.8487 90.9331 44.1913 90.8884 44.5279 90.934H44.534ZM36.9381 89.8055C37.4201 89.5418 37.9325 89.4927 38.4694 89.6521C39.0125 89.8177 39.4091 90.1428 39.6715 90.6273C39.9339 91.1179 39.9767 91.627 39.8243 92.1667C39.7539 92.4226 39.632 92.6613 39.4663 92.8681C39.3005 93.0748 39.0944 93.2452 38.8606 93.3688C38.3726 93.6386 37.8601 93.6877 37.3232 93.5282C37.0664 93.4567 36.8271 93.3326 36.6202 93.1638C36.4134 92.9949 36.2435 92.7849 36.1211 92.547C35.9931 92.3153 35.9134 92.0598 35.8872 91.7962C35.8609 91.5325 35.8885 91.2662 35.9683 91.0137C36.0397 90.7566 36.1626 90.5168 36.3293 90.309C36.4961 90.1013 36.7032 89.93 36.9381 89.8055ZM39.336 90.8052C39.2364 90.6126 39.0983 90.443 38.9303 90.3068C38.7622 90.1706 38.568 90.0709 38.3597 90.014C38.1551 89.9494 37.9396 89.9268 37.7261 89.9477C37.5126 89.9685 37.3055 90.0324 37.1171 90.1354C36.9287 90.2384 36.7628 90.3785 36.6294 90.5473C36.496 90.7161 36.3977 90.9102 36.3405 91.1179C36.2755 91.3239 36.2528 91.541 36.2738 91.7561C36.2948 91.9712 36.3591 92.1797 36.4627 92.3691C36.6641 92.7677 36.9875 93.0315 37.4329 93.1664C37.8722 93.2891 38.2871 93.2522 38.6714 93.0376C38.8611 92.936 39.0282 92.7966 39.1624 92.6279C39.2967 92.4592 39.3952 92.2647 39.4521 92.0563C39.5802 91.6147 39.5435 91.1977 39.3299 90.8052H39.336ZM29.666 90.4004L29.3182 90.2287L31.0258 86.7205L31.3309 86.8677L31.8807 90.6825L33.2711 87.8306L33.6189 88.0024L31.9052 91.5105L31.6062 91.3633L31.0565 87.5424L29.666 90.4004ZM23.6681 86.7083L23.8755 86.4016L24.864 87.0763L26.8462 84.1569L27.1696 84.3777L25.1812 87.3032L26.1697 87.9778L25.9623 88.2845L23.6681 86.7083ZM22.0197 80.2195L21.6416 81.1762L22.9962 82.4335L23.9113 81.9735L24.2103 82.2557L20.4769 84.1078L20.184 83.8319L21.7207 79.9435L22.0258 80.2195H22.0197ZM22.6424 82.6114L21.4952 81.5381L20.6537 83.6111L22.6424 82.6114ZM17.9678 75.6074C18.1396 75.8142 18.2676 76.054 18.344 76.3122C18.4204 76.5704 18.4436 76.8415 18.4123 77.109C18.3809 77.3765 18.2956 77.6348 18.1616 77.868C18.0276 78.1012 17.8476 78.3045 17.6328 78.4654C17.4257 78.6363 17.186 78.7627 16.9285 78.837C16.671 78.9113 16.4011 78.9318 16.1354 78.8973C15.8696 78.8629 15.6137 78.7741 15.3834 78.6366C15.153 78.499 14.9531 78.3155 14.7958 78.0974C14.5853 77.8293 14.4486 77.5102 14.3993 77.1723C14.35 76.8343 14.3898 76.4893 14.5148 76.1717L14.8809 76.3189C14.7772 76.5642 14.7346 76.8218 14.7712 77.0978C14.814 77.3799 14.9177 77.6313 15.0947 77.8644C15.2219 78.0417 15.384 78.1908 15.5709 78.3026C15.7578 78.4143 15.9656 78.4862 16.1813 78.5138C16.3969 78.5414 16.616 78.5241 16.8247 78.463C17.0335 78.402 17.2275 78.2984 17.3948 78.1588C17.5693 78.0284 17.7154 77.8637 17.8244 77.6746C17.9333 77.4855 18.0027 77.276 18.0284 77.059C18.054 76.8421 18.0354 76.6221 17.9736 76.4125C17.9118 76.203 17.8081 76.0084 17.6689 75.8405C17.4859 75.6136 17.2723 75.448 17.016 75.3437C16.7695 75.2396 16.4982 75.2097 16.2351 75.2578L16.174 74.8653C16.5109 74.8192 16.854 74.863 17.1688 74.9921C17.4836 75.1213 17.7592 75.3314 17.9678 75.6013L17.9678 75.6074ZM10.823 71.8601L11.1402 71.6761L11.7383 72.7188L14.7823 70.9402L14.9776 71.2836L11.9275 73.0561L12.5255 74.0987L12.2144 74.2827L10.823 71.8663L10.823 71.8601ZM8.94175 60.1276L8.59401 60.2012L8.20929 58.2263L8.55703 58.1589L8.94175 60.1276ZM10.0126 44.5251C9.98101 44.7922 9.89558 45.0501 9.76156 45.2829C9.62754 45.5157 9.44774 45.7187 9.23312 45.8794C9.01851 46.0401 8.77357 46.1551 8.51326 46.2175C8.25294 46.2799 7.9827 46.2884 7.71902 46.2423C7.45351 46.207 7.19794 46.1176 6.96793 45.9796C6.73792 45.8416 6.53829 45.658 6.38124 45.4399C6.22418 45.2218 6.113 44.9738 6.05447 44.711C5.99594 44.4483 5.99131 44.1763 6.04084 43.9118C6.08885 43.5724 6.22528 43.2518 6.4363 42.9825C6.64733 42.7132 6.92544 42.5048 7.24244 42.3785L7.38893 42.7526C7.1327 42.8385 6.9192 42.9857 6.74231 43.2065C6.57153 43.4211 6.46176 43.6726 6.413 43.9608C6.37027 44.1759 6.37214 44.3976 6.41849 44.6119C6.46485 44.8263 6.5547 45.0287 6.68243 45.2066C6.81016 45.3845 6.97301 45.5339 7.1608 45.6457C7.3486 45.7574 7.5573 45.829 7.77385 45.8559C7.98768 45.8942 8.20702 45.8883 8.41849 45.8386C8.62995 45.7888 8.8291 45.6962 9.00379 45.5665C9.17847 45.4368 9.32501 45.2727 9.43448 45.0841C9.54395 44.8956 9.61404 44.6866 9.64048 44.4699C9.68313 44.1816 9.65868 43.9118 9.55491 43.648C9.45975 43.3976 9.29441 43.1803 9.07893 43.0225L9.32291 42.7158C9.58716 42.9316 9.79009 43.2136 9.9112 43.5335C10.0323 43.8533 10.0673 44.1996 10.0126 44.5373L10.0126 44.5251ZM11.3351 36.9139C11.5793 37.4046 11.616 37.9198 11.4452 38.4595C11.3673 38.714 11.2384 38.9498 11.0663 39.1523C10.8943 39.3549 10.6828 39.5198 10.4449 39.637C9.95688 39.8885 9.43831 39.9253 8.9075 39.7474C8.65577 39.6693 8.42254 39.5404 8.22213 39.3685C8.02172 39.1966 7.85835 38.9853 7.74204 38.7477C7.61643 38.5115 7.54073 38.2517 7.51969 37.9847C7.49864 37.7177 7.5327 37.4492 7.61974 37.1961C7.80267 36.6625 8.13205 36.27 8.62617 36.0185C9.1142 35.7732 9.62667 35.7302 10.1575 35.9081C10.4115 35.9864 10.647 36.116 10.8495 36.2889C11.052 36.4619 11.2172 36.6746 11.3351 36.9139ZM10.2801 39.2936C10.4721 39.1992 10.6427 39.0661 10.7812 38.9025C10.9197 38.739 11.0232 38.5485 11.0853 38.3429C11.1551 38.1385 11.1833 37.9221 11.168 37.7065C11.1527 37.4909 11.0943 37.2806 10.9963 37.0882C10.8983 36.8958 10.7627 36.7253 10.5976 36.5868C10.4325 36.4483 10.2414 36.3447 10.0355 36.2822C9.83442 36.2108 9.62101 36.181 9.40816 36.1947C9.19532 36.2084 8.98744 36.2653 8.79706 36.362C8.39444 36.5582 8.12606 36.8771 7.97972 37.3187C7.83948 37.7542 7.87006 38.1773 8.07756 38.5699C8.17362 38.7624 8.30749 38.9334 8.47109 39.0726C8.63469 39.2117 8.82463 39.3161 9.02945 39.3794C9.45654 39.5205 9.8836 39.4959 10.2801 39.2936ZM10.9311 29.5788L11.1141 29.2292L14.5492 31.0507L14.3968 31.3512L10.5838 31.7928L13.3905 33.277L13.2075 33.6205L9.76627 31.799L9.92484 31.5046L13.7317 31.063L10.925 29.5788H10.9311ZM14.7492 23.642L15.0482 23.8628L14.3468 24.8318L17.2024 26.9109L16.9706 27.2237L14.1211 25.1507L13.4197 26.1197L13.1268 25.9051L14.7492 23.642ZM21.2403 22.1578L20.3007 21.7469L19.0197 23.0777L19.447 24.0038L19.1664 24.3044L17.4208 20.5019L17.7014 20.2075L21.527 21.8634L21.2403 22.1578ZM18.855 22.7159L19.9468 21.5874L17.9089 20.692L18.855 22.7159ZM25.9251 18.1958C25.7154 18.3635 25.4739 18.4862 25.2154 18.5566C24.9568 18.6269 24.6866 18.6433 24.4215 18.6049C24.1563 18.5664 23.9018 18.4738 23.6735 18.3328C23.4453 18.1918 23.2481 18.0053 23.0942 17.7849C22.9301 17.5715 22.811 17.3267 22.7443 17.0654C22.6776 16.8042 22.6647 16.532 22.7064 16.2655C22.748 15.9991 22.8433 15.744 22.9865 15.5159C23.1297 15.2879 23.3177 15.0916 23.539 14.9392C23.8113 14.735 24.1322 14.6066 24.4696 14.5667C24.8069 14.5269 25.1488 14.5771 25.4608 14.7122L25.3022 15.0802C25.0642 14.9576 24.808 14.9146 24.5274 14.9453C24.2528 14.976 23.9966 15.0741 23.7648 15.2519C23.5852 15.3745 23.4325 15.5329 23.3163 15.7172C23.2 15.9015 23.1227 16.1078 23.089 16.3234C23.0553 16.539 23.0659 16.7593 23.1204 16.9706C23.1748 17.1819 23.2717 17.3797 23.4053 17.5518C23.5297 17.7317 23.6896 17.8839 23.8749 17.9991C24.0602 18.1143 24.2671 18.1901 24.4827 18.2217C24.6983 18.2533 24.9181 18.2401 25.1284 18.1829C25.3387 18.1257 25.5351 18.0257 25.7054 17.8892C25.9372 17.7174 26.108 17.5028 26.2177 17.2452C26.3275 16.9876 26.358 16.7239 26.3152 16.4602L26.7118 16.4111C26.7484 16.7504 26.6955 17.0934 26.5585 17.4056C26.4215 17.7178 26.2051 17.9882 25.9312 18.1897L25.9251 18.1958ZM29.8344 11.106L30.0114 11.431L28.9622 12.0076L30.6405 15.117L30.2989 15.301L28.6206 12.1915L27.5713 12.7681L27.3943 12.443L29.8344 11.106ZM41.5357 9.5298L41.4746 9.18021L43.4452 8.8429L43.5062 9.19248L41.5357 9.5298ZM57.014 11.0201C56.7487 10.9813 56.494 10.8885 56.2656 10.7473C56.0372 10.6062 55.8399 10.4197 55.6856 10.1992C55.5314 9.97876 55.4235 9.729 55.3686 9.4652C55.3137 9.20141 55.3129 8.92913 55.3663 8.66504C55.409 8.39908 55.5052 8.14468 55.649 7.9174C55.7929 7.69011 55.9813 7.49472 56.2029 7.34317C56.4244 7.19162 56.6744 7.08709 56.9375 7.03598C57.2006 6.98487 57.4714 6.98825 57.7331 7.04591C58.0678 7.10514 58.3811 7.25197 58.6414 7.47161C58.9017 7.69126 59.0998 7.97596 59.2159 8.29705L58.8377 8.43198C58.7611 8.17647 58.6127 7.9486 58.4105 7.77574C58.1969 7.59175 57.9468 7.46909 57.6661 7.42003C57.4536 7.37211 57.2335 7.36871 57.0196 7.41004C56.8057 7.45137 56.6026 7.53654 56.4229 7.66025C56.2432 7.78396 56.0907 7.94355 55.9751 8.12908C55.8594 8.31461 55.783 8.52211 55.7507 8.73863C55.7068 8.95263 55.7069 9.17337 55.7508 9.38735C55.7948 9.60134 55.8817 9.80408 56.0062 9.98318C56.1307 10.1623 56.2902 10.314 56.475 10.429C56.6598 10.544 56.866 10.62 57.081 10.6522C57.3617 10.7012 57.6362 10.6828 57.8985 10.5908C58.1608 10.4866 58.3743 10.3332 58.5329 10.1247L58.838 10.3762C58.6164 10.636 58.3304 10.8323 58.0091 10.9454C57.6877 11.0585 57.3423 11.0843 57.0079 11.0201H57.014ZM64.5306 12.5534C64.0425 12.7987 63.524 12.8171 62.9931 12.627C62.7411 12.5415 62.5091 12.4049 62.3118 12.2255C62.1144 12.0462 61.9559 11.8279 61.846 11.5844C61.7322 11.3443 61.668 11.0836 61.6575 10.8179C61.647 10.5522 61.6902 10.2872 61.7847 10.0388C61.9676 9.5114 62.3092 9.13115 62.8033 8.89196C63.3036 8.65277 63.816 8.62824 64.3468 8.81836C64.8777 9.00849 65.2621 9.35807 65.494 9.86099C65.7259 10.3578 65.7504 10.8729 65.5675 11.4065C65.4819 11.6596 65.3458 11.8924 65.1675 12.0907C64.9891 12.2889 64.7724 12.4485 64.5306 12.5595L64.5306 12.5534ZM62.1937 11.431C62.3768 11.8297 62.688 12.1118 63.1212 12.2651C63.322 12.3405 63.5359 12.3745 63.7501 12.3651C63.9643 12.3557 64.1743 12.3031 64.3679 12.2104C64.5614 12.1177 64.7344 11.9868 64.8765 11.8255C65.0187 11.6643 65.1271 11.4759 65.1953 11.2716C65.2715 11.0705 65.3065 10.856 65.2981 10.641C65.2896 10.426 65.238 10.2149 65.1463 10.0204C65.0588 9.82226 64.9311 9.64462 64.7714 9.49888C64.6117 9.35314 64.4235 9.24252 64.2188 9.17408C64.0184 9.09716 63.8043 9.06289 63.5901 9.07345C63.3758 9.08401 63.1661 9.13916 62.9742 9.23541C62.5716 9.43167 62.3032 9.74446 62.1447 10.1738C61.9922 10.6031 62.0106 11.0201 62.1937 11.431ZM71.8211 12.3571L72.1628 12.5411L70.266 15.9573L69.9732 15.7917L69.6308 11.9462L68.0878 14.7245L67.7461 14.5344L69.6429 11.1244L69.9357 11.29L70.2781 15.1293L71.8211 12.3571ZM77.6177 16.3559L77.392 16.6503L76.4462 15.9205L74.3114 18.7355L74.0064 18.4963L76.1412 15.6874L75.1893 14.9514L75.4089 14.6632L77.6177 16.3559ZM78.9184 22.9244L79.3514 21.9922L78.07 20.6674L77.1305 21.0784L76.8437 20.7778L80.6687 19.128L80.9494 19.4163L79.2052 23.2188L78.9184 22.9244ZM78.4299 20.508L79.5161 21.6365L80.4613 19.6126L78.4238 20.508H78.4299ZM82.7262 27.7511C82.5652 27.5352 82.4497 27.2886 82.3869 27.0262C82.324 26.7639 82.3152 26.4914 82.3608 26.2255C82.4065 25.9596 82.5057 25.7059 82.6524 25.48C82.799 25.254 82.9901 25.0606 83.2138 24.9115C83.4304 24.7534 83.6768 24.6413 83.938 24.5821C84.1992 24.5229 84.4696 24.5178 84.7328 24.5672C84.996 24.6166 85.2465 24.7193 85.4689 24.8692C85.6913 25.0191 85.881 25.2129 86.0264 25.439C86.2201 25.718 86.3378 26.0432 86.3678 26.3821C86.3979 26.721 86.3392 27.0619 86.1976 27.3709L85.8376 27.2053C85.9596 26.9661 86.0205 26.7085 85.99 26.4264C85.9673 26.1481 85.8703 25.8811 85.7092 25.6536C85.5921 25.4701 85.4387 25.3127 85.2587 25.191C85.0787 25.0694 84.8757 24.9862 84.6624 24.9466C84.4492 24.9069 84.23 24.9116 84.0187 24.9605C83.8073 25.0093 83.6081 25.1012 83.4335 25.2304C83.2532 25.3519 83.0992 25.5089 82.981 25.6919C82.8628 25.8748 82.7828 26.0801 82.7457 26.2951C82.7087 26.5101 82.7154 26.7304 82.7656 26.9427C82.8157 27.1551 82.9082 27.355 83.0374 27.5303C83.2021 27.7757 83.4096 27.9474 83.6597 28.0639C83.916 28.1866 84.1722 28.2234 84.4407 28.1866L84.4774 28.5852C84.1383 28.6133 83.7979 28.551 83.4905 28.4045C83.183 28.2581 82.9194 28.0327 82.7262 27.7511ZM89.6637 31.8726L89.3404 32.0381L88.7911 30.971L85.6617 32.5779L85.4786 32.2344L88.6203 30.6214L88.0771 29.5543L88.4065 29.3825L89.6637 31.8726ZM90.9166 43.691L91.2704 43.6419L91.5453 45.629L91.1976 45.6781L90.9166 43.691ZM89.0221 59.2137C89.0682 58.9486 89.1676 58.6957 89.3141 58.4704C89.4607 58.2452 89.6515 58.0524 89.8747 57.9037C90.0979 57.7551 90.3489 57.6537 90.6124 57.6058C90.8759 57.558 91.1463 57.5646 91.4072 57.6253C91.9563 57.7479 92.3834 58.0301 92.6886 58.49C92.9876 58.95 93.0792 59.4713 92.9573 60.0478C92.8909 60.3831 92.7374 60.6948 92.5124 60.9511C92.2874 61.2075 91.999 61.3994 91.6764 61.5075L91.5543 61.1273C91.8105 61.0537 92.0301 60.9187 92.2192 60.7102C92.4022 60.5017 92.5242 60.2564 92.5851 59.9742C92.6388 59.762 92.6484 59.541 92.6133 59.3248C92.5783 59.1087 92.4993 58.9021 92.3814 58.718C92.2634 58.5339 92.109 58.3761 91.9278 58.2546C91.7466 58.1331 91.5424 58.0504 91.328 58.0117C91.1165 57.9626 90.8972 57.9573 90.6836 57.9962C90.4701 58.035 90.2666 58.1172 90.0856 58.2378C89.9047 58.3583 89.7501 58.5146 89.6312 58.6971C89.5123 58.8797 89.4317 59.0847 89.3942 59.2996C89.3333 59.5817 89.3455 59.8516 89.4371 60.1214C89.5225 60.3852 89.669 60.606 89.8765 60.7715L89.6203 61.0721C89.364 60.8513 89.1809 60.5814 89.0711 60.2441C88.9673 59.9129 88.9489 59.5695 89.0221 59.2137ZM87.2969 66.7451C87.1877 66.5019 87.1292 66.2387 87.125 65.9719C87.1207 65.705 87.1708 65.4401 87.2722 65.1935C87.4734 64.666 87.8272 64.2919 88.3336 64.0711C88.5744 63.9617 88.8348 63.9025 89.0991 63.8972C89.3634 63.892 89.626 63.9407 89.871 64.0405C90.3957 64.249 90.7679 64.5986 90.9876 65.1076C91.2135 65.6167 91.2197 66.1318 91.0184 66.6593C90.9275 66.9095 90.7863 67.1382 90.6037 67.3313C90.4212 67.5244 90.2011 67.6777 89.9571 67.7816C89.4507 68.0024 88.9383 68.0147 88.4196 67.8123C88.1701 67.7206 87.9419 67.5786 87.7488 67.3951C87.5557 67.2116 87.402 66.9904 87.2969 66.7451ZM88.48 64.4207C88.0774 64.6047 87.7907 64.9052 87.6261 65.3345C87.4614 65.7639 87.4676 66.1809 87.6446 66.5857C87.8277 66.9966 88.1328 67.2787 88.5599 67.4443C88.987 67.6099 89.4019 67.6099 89.8045 67.4321C90.0026 67.3489 90.1813 67.2253 90.3294 67.069C90.4774 66.9128 90.5916 66.7273 90.6645 66.5244C90.8353 66.095 90.823 65.6719 90.6399 65.2671C90.5539 65.0696 90.429 64.8917 90.2728 64.7442C90.1165 64.5966 89.9321 64.4824 89.7307 64.4085C89.5321 64.3259 89.319 64.2844 89.1041 64.2865C88.8892 64.2886 88.677 64.3343 88.48 64.4207ZM87.3165 74.0926L87.1214 74.4299L83.7777 72.4244L83.9485 72.1361L87.7737 71.8969L85.0585 70.2655L85.2598 69.9343L88.5973 71.9337L88.4266 72.222L84.6013 72.4673L87.3165 74.0926ZM83.1812 79.8147L82.8944 79.5816L83.6446 78.6494L80.911 76.4231L81.155 76.1165L83.8886 78.3428L84.6389 77.4105L84.9256 77.6436L83.1812 79.8147ZM76.629 80.9493L77.5442 81.4093L78.8984 80.152L78.5139 79.2014L78.8189 78.9193L80.3509 82.8138L80.0581 83.0836L76.3301 81.2314L76.6351 80.9493H76.629ZM79.0449 80.52L77.892 81.5872L79.8811 82.593L79.0449 80.52ZM71.7429 84.6537C71.9609 84.4971 72.2085 84.387 72.4704 84.3302C72.7323 84.2734 73.0031 84.2711 73.2659 84.3234C73.5288 84.3756 73.7783 84.4814 73.999 84.6342C74.2197 84.787 74.407 84.9836 74.5494 85.2118C74.8545 85.6902 74.9522 86.1931 74.8486 86.7328C74.7961 86.9998 74.6893 87.2531 74.5351 87.4768C74.3808 87.7005 74.1823 87.8899 73.952 88.033C73.6689 88.2227 73.341 88.3339 73.0015 88.3554C72.6619 88.3769 72.3227 88.3081 72.0181 88.1557L72.201 87.8C72.4268 87.9349 72.6891 87.9901 72.9637 87.9778C73.2382 87.9594 73.5005 87.8736 73.7445 87.7141C73.9298 87.6002 74.09 87.4495 74.2152 87.2711C74.3404 87.0927 74.428 86.8904 74.4725 86.6767C74.517 86.463 74.5176 86.2424 74.4742 86.0284C74.4308 85.8145 74.3442 85.6117 74.22 85.4326C74.1046 85.2484 73.9532 85.0897 73.7749 84.9661C73.5967 84.8426 73.3954 84.7567 73.1831 84.7136C72.9709 84.6706 72.7522 84.6714 72.5403 84.7159C72.3284 84.7604 72.1277 84.8478 71.9504 84.9726C71.7063 85.1321 71.5234 85.3406 71.4014 85.5859C71.2794 85.8374 71.2307 86.095 71.2551 86.3648L70.8647 86.3894C70.8463 86.0479 70.9178 85.7077 71.072 85.403C71.2262 85.0982 71.4576 84.8398 71.7429 84.6537ZM67.4613 91.5227L67.3026 91.1854L68.3763 90.6702L66.8627 87.481L67.2165 87.3093L68.7301 90.4985L69.8038 89.9833L69.9624 90.3206L67.4613 91.5227ZM55.6989 92.4672L55.7356 92.8229L53.7467 93.0499L53.7101 92.7003L55.6928 92.4672H55.6989Z" fill="black" stroke="white" mask="url(#path-1-inside-1_203_160)"/>
<path d="M44.3764 95.6778C44.6779 95.7056 44.9706 95.7949 45.2366 95.9403C45.5026 96.0858 45.7363 96.2842 45.9234 96.5235C46.1105 96.7628 46.247 97.038 46.3247 97.3322C46.4024 97.6264 46.4196 97.9334 46.3752 98.2345C46.3426 98.5367 46.2492 98.8291 46.1005 99.0938C45.9518 99.3584 45.7511 99.5899 45.5105 99.774C45.27 99.9582 44.9946 100.091 44.7013 100.165C44.4079 100.238 44.1027 100.251 43.8043 100.202C43.4221 100.157 43.0585 100.012 42.75 99.7808C42.4415 99.5497 42.1989 99.2411 42.0467 98.8859L42.4602 98.7126C42.5705 98.9898 42.7428 99.2323 42.9909 99.4263C43.2391 99.6203 43.5286 99.7381 43.8525 99.7728C44.0944 99.8139 44.342 99.8046 44.5802 99.7456C44.8183 99.6866 45.0419 99.579 45.237 99.4297C45.4322 99.2803 45.5947 99.0922 45.7146 98.8771C45.8345 98.662 45.9092 98.4244 45.9341 98.1791C45.9708 97.9352 45.9577 97.6863 45.8955 97.4476C45.8333 97.2089 45.7234 96.9855 45.5725 96.791C45.4215 96.5964 45.2327 96.4349 45.0176 96.3161C44.8025 96.1974 44.5655 96.124 44.3212 96.1004C43.9973 96.0589 43.6871 96.1004 43.3976 96.2251C43.1081 96.3499 42.8807 96.53 42.7084 96.7795L42.3499 96.5162C42.5833 96.21 42.8929 95.9712 43.2476 95.824C43.6022 95.6768 43.9892 95.6263 44.3695 95.6778H44.3764ZM35.7951 94.4028C36.3396 94.1049 36.9186 94.0495 37.5251 94.2296C38.1386 94.4167 38.5866 94.7839 38.883 95.3313C39.1793 95.8856 39.2276 96.4607 39.0553 97.0705C38.9756 97.3596 38.8379 97.6293 38.6506 97.8629C38.4633 98.0964 38.2304 98.289 37.9662 98.4286C37.4148 98.7334 36.8359 98.7889 36.2293 98.6087C35.9392 98.5279 35.6689 98.3877 35.4352 98.197C35.2015 98.0062 35.0096 97.7689 34.8715 97.5001C34.7268 97.2384 34.6369 96.9497 34.6073 96.6518C34.5777 96.354 34.6089 96.0531 34.6992 95.7678C34.7799 95.4773 34.9187 95.2065 35.1071 94.9718C35.2956 94.7371 35.5297 94.5435 35.7951 94.4028ZM38.5039 95.5322C38.3915 95.3148 38.2354 95.123 38.0456 94.9692C37.8558 94.8154 37.6363 94.7027 37.4011 94.6384C37.1699 94.5654 36.9264 94.5399 36.6852 94.5635C36.4441 94.5871 36.2101 94.6592 35.9972 94.7756C35.7843 94.8919 35.5969 95.0502 35.4461 95.2409C35.2954 95.4316 35.1843 95.6509 35.1196 95.8856C35.0461 96.1183 35.0204 96.3636 35.0441 96.6066C35.0678 96.8496 35.1404 97.0852 35.2575 97.2991C35.4849 97.7495 35.8502 98.0475 36.3534 98.1999C36.8496 98.3385 37.3183 98.2969 37.7526 98.0544C37.9669 97.9396 38.1557 97.7821 38.3074 97.5915C38.4591 97.4009 38.5705 97.1812 38.6348 96.9458C38.7796 96.4469 38.7382 95.9757 38.497 95.5322H38.5039ZM27.5791 95.0749L27.1862 94.8809L29.1162 90.9176L29.4608 91.0839L30.0811 95.3937L31.6526 92.1717L32.0455 92.3657L30.1087 96.3291L29.7709 96.1628L29.1506 91.8461L27.5791 95.0749ZM20.8037 90.9037L21.038 90.5573L22.1546 91.3195L24.3947 88.0213L24.76 88.2707L22.513 91.5758L23.6296 92.338L23.3953 92.6844L20.8037 90.9037ZM18.9427 83.5729L18.5153 84.6538L20.0455 86.0742L21.0794 85.5546L21.4171 85.8733L17.1989 87.9658L16.868 87.654L18.6049 83.2611L18.9496 83.5729H18.9427ZM19.6457 86.2752L18.3499 85.0626L17.3987 87.4046L19.6457 86.2752ZM14.366 78.3623C14.56 78.5959 14.7045 78.8669 14.7908 79.1586C14.8771 79.4502 14.9033 79.7566 14.8678 80.0588C14.8323 80.361 14.7359 80.6528 14.5844 80.9163C14.433 81.1797 14.2297 81.4094 13.9869 81.5912C13.7529 81.7842 13.4821 81.9271 13.1912 82.011C12.9002 82.0949 12.5953 82.1181 12.2951 82.0792C11.9949 82.0402 11.7058 81.94 11.4455 81.7846C11.1853 81.6291 10.9594 81.4219 10.7818 81.1755C10.5441 80.8725 10.3897 80.512 10.334 80.1302C10.2784 79.7484 10.3235 79.3586 10.4648 78.9998L10.8783 79.1661C10.7612 79.4432 10.7129 79.7342 10.7543 80.046C10.8025 80.3648 10.9197 80.6489 11.1196 80.9122C11.2632 81.1125 11.4463 81.281 11.6575 81.4072C11.8686 81.5334 12.1033 81.6146 12.347 81.6458C12.5907 81.677 12.8381 81.6575 13.074 81.5885C13.3099 81.5195 13.5291 81.4025 13.7181 81.2448C13.9152 81.0975 14.0804 80.9113 14.2035 80.6977C14.3266 80.4841 14.4051 80.2475 14.4341 80.0023C14.4631 79.7571 14.4421 79.5086 14.3723 79.2719C14.3025 79.0352 14.1855 78.8153 14.0283 78.6256C13.8215 78.3692 13.5802 78.1822 13.2907 78.0644C13.0122 77.9467 12.7057 77.913 12.4085 77.9674L12.3396 77.5239C12.7202 77.4718 13.1078 77.5212 13.4634 77.6672C13.8191 77.8131 14.1303 78.0504 14.366 78.3554V78.3623ZM6.29476 74.1287L6.65318 73.9209L7.32865 75.0988L10.7681 73.0894L10.9886 73.4774L7.54232 75.4799L8.2178 76.6578L7.86627 76.8657L6.29476 74.1357V74.1287ZM4.17184 60.8736L3.77896 60.9568L3.34473 58.7257L3.73761 58.6494L4.17184 60.8736ZM5.38494 43.2464C5.34915 43.5482 5.25258 43.8395 5.10112 44.1026C4.94966 44.3656 4.74648 44.5949 4.50398 44.7765C4.26148 44.958 3.98474 45.088 3.69063 45.1585C3.39653 45.229 3.09122 45.2385 2.79332 45.1865C2.49337 45.1466 2.20466 45.0456 1.94483 44.8897C1.685 44.7338 1.4595 44.5263 1.28211 44.2799C1.10472 44.0335 0.97916 43.7533 0.913093 43.4565C0.847026 43.1597 0.841843 42.8524 0.897859 42.5535C0.952168 42.1701 1.10637 41.8079 1.34484 41.5036C1.5833 41.1994 1.89754 40.964 2.2557 40.8213L2.42112 41.2439C2.13163 41.3409 1.89039 41.5072 1.69051 41.7567C1.49752 41.9992 1.37345 42.2833 1.31831 42.6089C1.26998 42.8519 1.27204 43.1024 1.32438 43.3445C1.37671 43.5867 1.47817 43.8154 1.62244 44.0164C1.7667 44.2173 1.95066 44.3862 2.1628 44.5124C2.37494 44.6386 2.61071 44.7195 2.85536 44.75C3.09693 44.7932 3.34473 44.7866 3.58365 44.7303C3.82256 44.6741 4.04758 44.5696 4.24495 44.423C4.44233 44.2765 4.60793 44.091 4.73164 43.878C4.85535 43.665 4.93458 43.4289 4.96449 43.184C5.01274 42.8584 4.98517 42.5535 4.868 42.2556C4.76053 41.9727 4.57379 41.7272 4.33037 41.5488L4.60608 41.2024C4.90457 41.4461 5.13378 41.7648 5.27054 42.1261C5.4073 42.4874 5.44676 42.8787 5.38494 43.2603V43.2464ZM6.88063 34.6476C7.15634 35.2019 7.19769 35.7839 7.0047 36.3937C6.91663 36.6813 6.7709 36.9477 6.57649 37.1765C6.38208 37.4053 6.14311 37.5916 5.87431 37.724C5.32291 38.0081 4.73704 38.0497 4.13738 37.8487C3.853 37.7605 3.58953 37.6149 3.36315 37.4207C3.13677 37.2264 2.95225 36.9878 2.82089 36.7193C2.67903 36.4524 2.59356 36.159 2.56984 35.8573C2.54612 35.5556 2.58466 35.2523 2.68304 34.9663C2.88982 34.3635 3.26202 33.92 3.82032 33.6359C4.37173 33.3588 4.95071 33.3103 5.55036 33.5112C5.83735 33.5997 6.10335 33.7461 6.33209 33.9415C6.56083 34.1369 6.74749 34.3771 6.88063 34.6476ZM5.68821 37.336C5.90511 37.2294 6.09784 37.079 6.25437 36.8942C6.4109 36.7095 6.52789 36.4942 6.59804 36.262C6.67702 36.0311 6.70885 35.7865 6.69163 35.543C6.6744 35.2994 6.60848 35.0619 6.4978 34.8445C6.38711 34.6271 6.23395 34.4345 6.04747 34.278C5.86099 34.1215 5.64503 34.0045 5.41251 33.9339C5.18531 33.8532 4.94422 33.8196 4.70375 33.8351C4.46328 33.8505 4.22842 33.9148 4.01331 34.024C3.5584 34.2457 3.25513 34.606 3.0897 35.1049C2.93118 35.5968 2.96564 36.0749 3.19999 36.5184C3.30847 36.7359 3.45967 36.9291 3.64448 37.0863C3.82928 37.2435 4.04385 37.3615 4.27523 37.433C4.75771 37.5924 5.2402 37.5647 5.68821 37.336ZM6.42572 26.3605L6.6325 25.9656L10.513 28.0235L10.3407 28.363L6.03284 28.8619L9.20344 30.5387L8.99666 30.9267L5.10924 28.8688L5.28844 28.5362L9.58942 28.0373L6.41883 26.3605H6.42572ZM10.7405 19.6533L11.0782 19.9028L10.2856 20.9975L13.5113 23.3465L13.2494 23.6998L10.0306 21.3578L9.2379 22.4526L8.90706 22.2101L10.7405 19.6533ZM18.0742 17.9765L17.0128 17.5123L15.5653 19.0159L16.0478 20.0621L15.7307 20.4016L13.7594 16.1057L14.0765 15.7731L18.3982 17.6439L18.0742 17.9765ZM15.3792 18.607L16.613 17.3321L14.3109 16.3205L15.3792 18.607ZM23.3677 13.5004C23.1309 13.6898 22.858 13.8285 22.5658 13.908C22.2737 13.9875 21.9685 14.006 21.6689 13.9625C21.3694 13.9191 21.0818 13.8144 20.824 13.6551C20.5662 13.4958 20.3434 13.2852 20.1696 13.0362C19.9842 12.7951 19.8497 12.5185 19.7744 12.2233C19.6992 11.9281 19.6846 11.6206 19.7317 11.3196C19.7788 11.0186 19.8866 10.7304 20.0484 10.4728C20.2102 10.2151 20.4227 9.99336 20.6727 9.82114C20.9803 9.5905 21.343 9.44537 21.7241 9.40036C22.1053 9.35536 22.4915 9.41206 22.8439 9.56477L22.6647 9.98051C22.3959 9.84193 22.1064 9.79342 21.7893 9.82807C21.4792 9.86271 21.1897 9.97358 20.9277 10.1745C20.7248 10.313 20.5523 10.4919 20.4209 10.7001C20.2896 10.9084 20.2021 11.1415 20.164 11.3851C20.1259 11.6286 20.1379 11.8775 20.1993 12.1162C20.2607 12.3549 20.3702 12.5784 20.5211 12.7729C20.6617 12.976 20.8422 13.148 21.0515 13.2782C21.2609 13.4083 21.4946 13.4939 21.7382 13.5296C21.9817 13.5654 22.23 13.5505 22.4676 13.4858C22.7053 13.4212 22.9271 13.3083 23.1196 13.154C23.3815 12.96 23.5745 12.7174 23.6986 12.4264C23.8226 12.1354 23.8571 11.8375 23.8089 11.5395L24.2569 11.4841C24.2982 11.8674 24.2384 12.2549 24.0835 12.6076C23.9287 12.9603 23.6842 13.2659 23.3746 13.4935L23.3677 13.5004ZM27.7859 5.49055L27.9858 5.85778L26.8002 6.5091L28.6957 10.0221L28.3097 10.2299L26.4143 6.71697L25.2287 7.36829L25.0288 7.00106L27.7859 5.49055ZM41.0059 3.70981L40.937 3.31486L43.1633 2.93376L43.2322 3.32871L41.0059 3.70981ZM58.4924 5.39354C58.1927 5.34969 57.905 5.24482 57.647 5.08535C57.389 4.92588 57.1661 4.71517 56.9919 4.4661C56.8177 4.21703 56.6958 3.93485 56.6339 3.63682C56.5719 3.3388 56.571 3.03119 56.6314 2.73282C56.6797 2.43235 56.7884 2.14494 56.951 1.88816C57.1135 1.63138 57.3265 1.41064 57.5768 1.23942C57.8271 1.0682 58.1096 0.950105 58.4068 0.892361C58.7041 0.834617 59.01 0.838435 59.3057 0.903581C59.6838 0.970498 60.0377 1.13638 60.3317 1.38453C60.6258 1.63268 60.8496 1.95433 60.9806 2.31709L60.5533 2.46952C60.4668 2.18086 60.2993 1.92342 60.0708 1.72813C59.8296 1.52026 59.547 1.38168 59.2299 1.32625C58.9898 1.27211 58.7412 1.26827 58.4995 1.31497C58.2578 1.36166 58.0283 1.45788 57.8253 1.59765C57.6222 1.73741 57.45 1.91771 57.3193 2.12732C57.1886 2.33693 57.1023 2.57135 57.0656 2.81597C57.0161 3.05774 57.0161 3.30712 57.0657 3.54887C57.1153 3.79063 57.2134 4.01967 57.354 4.22202C57.4947 4.42436 57.6749 4.59574 57.8837 4.72569C58.0924 4.85564 58.3254 4.94143 58.5682 4.9778C58.8853 5.03324 59.1954 5.01245 59.4918 4.90851C59.7882 4.79072 60.0294 4.6175 60.2087 4.38191L60.5533 4.666C60.3028 4.95952 59.9797 5.18137 59.6167 5.30912C59.2536 5.43687 58.8634 5.46599 58.4855 5.39354H58.4924ZM66.9841 7.12578C66.4327 7.40294 65.8468 7.42372 65.2471 7.20893C64.9624 7.11238 64.7004 6.958 64.4775 6.75536C64.2545 6.55272 64.0755 6.30616 63.9513 6.031C63.8228 5.75983 63.7504 5.46523 63.7385 5.16507C63.7267 4.86492 63.7756 4.56547 63.8824 4.28491C64.0892 3.68902 64.4752 3.25942 65.0335 2.9892C65.5987 2.71897 66.1776 2.69125 66.7773 2.90605C67.377 3.12085 67.8112 3.5158 68.0731 4.08397C68.335 4.64521 68.3626 5.22725 68.1558 5.83006C68.0591 6.11597 67.9052 6.37898 67.7037 6.60298C67.5022 6.82698 67.2573 7.00724 66.9841 7.13271V7.12578ZM64.3442 5.85778C64.551 6.30816 64.9025 6.62689 65.3919 6.80012C65.6188 6.88528 65.8604 6.92369 66.1024 6.91307C66.3443 6.90245 66.5817 6.843 66.8003 6.73828C67.019 6.63355 67.2144 6.48568 67.3751 6.30347C67.5357 6.12125 67.6582 5.90842 67.7354 5.67763C67.8215 5.45047 67.8611 5.20813 67.8516 4.96521C67.8421 4.72228 67.7838 4.4838 67.6802 4.26412C67.5814 4.04022 67.4372 3.83953 67.2568 3.67488C67.0764 3.51022 66.8638 3.38524 66.6326 3.30793C66.4062 3.22102 66.1643 3.18231 65.9223 3.19424C65.6802 3.20616 65.4433 3.26847 65.2265 3.37722C64.7716 3.59894 64.4683 3.95232 64.2891 4.43735C64.1168 4.92237 64.1374 5.39354 64.3442 5.85778ZM75.2207 6.90405L75.6067 7.11192L73.4631 10.9713L73.1323 10.7843L72.7463 6.43981L71.0025 9.57863L70.6165 9.36383L72.7601 5.51133L73.0909 5.69842L73.4769 10.0359L75.2207 6.90405ZM81.7687 11.4217L81.5137 11.7543L80.4453 10.9298L78.0329 14.1102L77.6883 13.8399L80.1007 10.6665L79.0254 9.835L79.2736 9.50934L81.7687 11.4217ZM83.2368 18.8426L83.7262 17.7894L82.2787 16.2928L81.2173 16.757L80.8933 16.4175L85.215 14.5536L85.5321 14.8793L83.5608 19.1752L83.2368 18.8426ZM82.6854 16.1126L83.9123 17.3876L84.9807 15.101L82.6785 16.1126H82.6854ZM87.5378 24.2957C87.3559 24.0518 87.2255 23.7731 87.1545 23.4767C87.0836 23.1803 87.0736 22.8725 87.1253 22.5721C87.1769 22.2717 87.289 21.9851 87.4548 21.7298C87.6205 21.4746 87.8364 21.256 88.0892 21.0876C88.334 20.909 88.6124 20.7823 88.9075 20.7155C89.2025 20.6486 89.5081 20.6428 89.8054 20.6986C90.1028 20.7544 90.3857 20.8705 90.6369 21.0398C90.8882 21.2091 91.1025 21.4282 91.2667 21.6835C91.4855 21.9988 91.6184 22.3661 91.6522 22.749C91.6861 23.1319 91.6197 23.517 91.4597 23.8661L91.053 23.679C91.1909 23.4088 91.2598 23.1178 91.2253 22.7991C91.1997 22.4847 91.0902 22.1831 90.9083 21.926C90.776 21.7187 90.6028 21.5408 90.3994 21.4034C90.196 21.266 89.9668 21.172 89.7258 21.1272C89.4849 21.0824 89.2373 21.0877 88.9985 21.1429C88.7597 21.1981 88.5347 21.3019 88.3373 21.4479C88.1336 21.5851 87.9597 21.7625 87.8261 21.9692C87.6925 22.1759 87.602 22.4078 87.5601 22.6507C87.5182 22.8936 87.5258 23.1425 87.5824 23.3824C87.639 23.6223 87.7434 23.8481 87.8893 24.0463C88.0754 24.3234 88.3098 24.5174 88.5924 24.6491C88.8819 24.7877 89.1713 24.8292 89.4746 24.7877L89.516 25.2381C89.1329 25.2698 88.7484 25.1993 88.401 25.0339C88.0537 24.8684 87.756 24.6138 87.5378 24.2957ZM95.3747 28.952L95.0094 29.1391L94.389 27.9334L90.8531 29.7488L90.6464 29.3608L94.1961 27.5385L93.5826 26.3328L93.9548 26.1388L95.3747 28.952ZM96.7877 42.3041L97.1874 42.2486L97.4976 44.4936L97.1047 44.549L96.7877 42.3041ZM94.6441 59.8412C94.6962 59.5417 94.8086 59.2559 94.9742 59.0015C95.1399 58.747 95.3554 58.5291 95.6076 58.3612C95.8598 58.1933 96.1434 58.0788 96.4411 58.0247C96.7388 57.9706 97.0443 57.9781 97.3391 58.0466C97.9594 58.1852 98.4419 58.5039 98.7865 59.0236C99.1243 59.5433 99.2277 60.1322 99.0898 60.7836C99.0147 61.1624 98.8412 61.5144 98.587 61.8041C98.3328 62.0937 98.0069 62.3105 97.6423 62.4327L97.5045 62.0031C97.794 61.9199 98.0421 61.7675 98.2558 61.5319C98.4626 61.2963 98.6004 61.0191 98.6693 60.7004C98.73 60.4607 98.7409 60.2109 98.7014 59.9667C98.6618 59.7225 98.5726 59.4892 98.4394 59.2811C98.3062 59.0731 98.1318 58.8949 97.9271 58.7576C97.7224 58.6203 97.4917 58.5269 97.2495 58.4832C97.0105 58.4277 96.7628 58.4217 96.5215 58.4656C96.2802 58.5096 96.0503 58.6024 95.8459 58.7386C95.6414 58.8747 95.4667 59.0513 95.3324 59.2576C95.198 59.4638 95.1069 59.6954 95.0645 59.9382C94.9956 60.257 95.0094 60.5618 95.1128 60.8667C95.2093 61.1647 95.3747 61.4141 95.609 61.6012L95.3195 61.9407C95.0301 61.6913 94.8233 61.3864 94.6992 61.0053C94.582 60.6311 94.5614 60.2431 94.6441 59.8412ZM92.6935 68.35C92.5702 68.0751 92.5041 67.7778 92.4994 67.4763C92.4946 67.1749 92.5513 66.8756 92.6659 66.597C92.8933 66.0011 93.2931 65.5784 93.8652 65.329C94.1373 65.2053 94.4316 65.1384 94.7301 65.1325C95.0287 65.1265 95.3254 65.1816 95.6021 65.2943C96.1949 65.5299 96.6153 65.9248 96.8635 66.4999C97.1185 67.0751 97.1254 67.6571 96.8979 68.253C96.7951 68.5357 96.6356 68.7941 96.4293 69.0122C96.223 69.2303 95.9743 69.4035 95.6986 69.521C95.1266 69.7704 94.5476 69.7843 93.9617 69.5556C93.6798 69.452 93.422 69.2916 93.2039 69.0843C92.9858 68.877 92.8121 68.6271 92.6935 68.35ZM94.0306 65.7239C93.5757 65.9318 93.2518 66.2713 93.0657 66.7563C92.8796 67.2413 92.8865 67.7125 93.0863 68.1698C93.2931 68.6341 93.6377 68.9528 94.1202 69.1399C94.6027 69.327 95.0714 69.327 95.5263 69.126C95.7501 69.0321 95.9521 68.8924 96.1194 68.7159C96.2867 68.5394 96.4157 68.3298 96.4982 68.1005C96.6912 67.6155 96.6774 67.1374 96.4706 66.6801C96.3735 66.457 96.2325 66.2561 96.0559 66.0893C95.8794 65.9226 95.6711 65.7936 95.4436 65.71C95.2193 65.6168 94.9785 65.5699 94.7357 65.5723C94.4929 65.5747 94.2531 65.6262 94.0306 65.7239ZM92.7141 76.6509L92.4936 77.032L88.7164 74.7662L88.9094 74.4405L93.2311 74.1703L90.1639 72.3272L90.3913 71.953L94.1616 74.2119L93.9686 74.5375L89.6469 74.8147L92.7141 76.6509ZM88.041 83.1156L87.717 82.8523L88.5648 81.7991L85.4769 79.2839L85.7526 78.9374L88.8405 81.4526L89.6883 80.3994L90.0123 80.6627L88.041 83.1156ZM80.6383 84.3974L81.6722 84.9171L83.2024 83.4967L82.7681 82.4227L83.1128 82.1039L84.8428 86.5038L84.512 86.8087L80.3006 84.7162L80.6452 84.3974H80.6383ZM83.3678 83.9124L82.0651 85.118L84.3121 86.2544L83.3678 83.9124ZM75.1173 88.5825C75.3637 88.4056 75.6434 88.2812 75.9394 88.2171C76.2353 88.1529 76.5411 88.1502 76.8381 88.2093C77.1351 88.2684 77.4169 88.3879 77.6663 88.5605C77.9156 88.7331 78.1272 88.9552 78.2879 89.213C78.6326 89.7535 78.7429 90.3217 78.6257 90.9314C78.5663 91.2331 78.4456 91.5193 78.2713 91.772C78.097 92.0247 77.8727 92.2386 77.6125 92.4004C77.2926 92.6146 76.9221 92.7403 76.5385 92.7646C76.1549 92.7889 75.7717 92.7111 75.4275 92.5389L75.6343 92.1371C75.8893 92.2895 76.1857 92.3519 76.4959 92.338C76.806 92.3172 77.1024 92.2202 77.3781 92.0401C77.5875 91.9114 77.7685 91.7411 77.91 91.5396C78.0515 91.338 78.1504 91.1095 78.2008 90.868C78.2512 90.6266 78.2518 90.3773 78.2028 90.1356C78.1538 89.8939 78.0561 89.6648 77.9157 89.4625C77.7854 89.2544 77.6144 89.0751 77.4131 88.9355C77.2117 88.7959 76.9843 88.6988 76.7445 88.6502C76.5047 88.6016 76.2576 88.6025 76.0182 88.6528C75.7788 88.7031 75.552 88.8018 75.3517 88.9428C75.076 89.123 74.8692 89.3586 74.7314 89.6357C74.5935 89.9198 74.5384 90.2108 74.5659 90.5157L74.1248 90.5434C74.1041 90.1577 74.185 89.7733 74.3592 89.429C74.5335 89.0847 74.795 88.7928 75.1173 88.5825ZM70.2787 96.3429L70.0995 95.9619L71.3126 95.3798L69.6033 91.7768L70.003 91.5827L71.7124 95.1858L72.9255 94.6038L73.1047 94.9849L70.2787 96.3429ZM56.9898 97.41L57.0312 97.8119L54.7842 98.0682L54.7428 97.6733L56.9829 97.41H56.9898Z" fill="black" stroke="black" stroke-width="0.2"/>
</svg>
