<svg width="80" height="38" viewBox="0 0 80 38" fill="none" xmlns="http://www.w3.org/2000/svg">
<path d="M0.0341797 37L14.6342 0.549998H29.5342L44.2342 37H31.7842L29.5842 30.8H14.5342L12.3842 37H0.0341797ZM17.5842 22.35H26.5842L23.6342 13.8L22.2342 9.65H21.8842L20.5842 13.7L17.5842 22.35ZM59.0041 37.5C57.0374 37.5 55.2374 37.1833 53.6041 36.55C52.0041 35.8833 50.6208 34.9333 49.4541 33.7C48.2874 32.4667 47.3874 30.9833 46.7541 29.25C46.1208 27.5167 45.8041 25.5833 45.8041 23.45C45.8041 20.55 46.3541 18.05 47.4541 15.95C48.5541 13.85 50.0874 12.2333 52.0541 11.1C54.0541 9.96667 56.3708 9.4 59.0041 9.4C60.6374 9.4 62.0541 9.56666 63.2541 9.9C64.4541 10.2333 65.4708 10.7 66.3041 11.3C67.1708 11.8667 67.8541 12.55 68.3541 13.35H68.7541L69.0541 9.8H79.5541V37H68.5041V33.55H68.1041C67.2708 34.7833 66.0374 35.75 64.4041 36.45C62.7708 37.15 60.9708 37.5 59.0041 37.5ZM62.5541 29.25C63.7874 29.25 64.8374 29.0167 65.7041 28.55C66.6041 28.0833 67.2874 27.4333 67.7541 26.6C68.2208 25.7667 68.4541 24.8167 68.4541 23.75V23.15C68.4541 22.05 68.2208 21.1 67.7541 20.3C67.2874 19.4667 66.6041 18.8167 65.7041 18.35C64.8374 17.8833 63.7874 17.65 62.5541 17.65C61.4541 17.65 60.4708 17.8667 59.6041 18.3C58.7708 18.7333 58.1041 19.3833 57.6041 20.25C57.1374 21.1167 56.9041 22.1833 56.9041 23.45C56.9041 24.7167 57.1374 25.7833 57.6041 26.65C58.0708 27.5167 58.7208 28.1667 59.5541 28.6C60.4208 29.0333 61.4208 29.25 62.5541 29.25Z" fill="black"/>
</svg>
