<svg width="106" height="106" viewBox="0 0 106 106" fill="none" xmlns="http://www.w3.org/2000/svg">
<path d="M41.6214 100.827L45.2087 94.298L46.2482 94.4462L47.8682 101.718L46.908 101.581L45.588 95.3218L42.5718 100.963L41.6214 100.827Z" fill="white"/>
<path d="M39.6646 99.332L40.3114 97.0935L37.8712 96.3885L38.0794 95.668L40.5196 96.373L41.1857 94.0673L38.4573 93.279L38.6655 92.5585L42.2682 93.5994L40.3307 100.305L36.7281 99.2642L36.9362 98.5437L39.6646 99.332Z" fill="white"/>
<path d="M33.633 90.3247L33.9835 93.6042L34.9875 94.0537L36.1521 91.4525L36.9826 91.8243L34.1345 98.1859L32.0809 97.2665C31.6002 97.0513 31.2324 96.788 30.9774 96.4766C30.7163 96.1625 30.5662 95.8287 30.5272 95.4752C30.4883 95.1218 30.5491 94.7656 30.7099 94.4066C30.906 93.9685 31.2068 93.6393 31.6122 93.4191C32.0115 93.1961 32.4881 93.1429 33.0422 93.2595L32.6382 89.8793L33.633 90.3247ZM34.6892 94.72L33.4662 94.1724C33.0159 93.9708 32.6292 93.9292 32.306 94.0474C31.98 94.1718 31.734 94.4195 31.5678 94.7907C31.3989 95.1679 31.3807 95.5104 31.5132 95.8181C31.6397 96.123 31.9311 96.3776 32.3874 96.5819L33.6104 97.1295L34.6892 94.72Z" fill="white"/>
<path d="M18.3076 87.8494L22.6373 82.4513L23.3472 83.0207L20.1186 87.0459L25.1413 84.4597L25.6406 84.8602L24.2078 90.3385L27.4426 86.3055L28.1524 86.8749L23.8227 92.273L23.0583 91.6598L24.6402 85.596L19.0643 88.4563L18.3076 87.8494Z" fill="white"/>
<path d="M17.0072 86.1757L22.0536 81.3679L22.6814 82.0268L17.6349 86.8346L17.0072 86.1757Z" fill="white"/>
<path d="M11.0505 74.2989C11.5454 73.9964 12.0621 73.915 12.6006 74.0547C13.13 74.1921 13.6067 74.6078 14.0309 75.3017L14.7298 76.4451L17.2127 74.9274L17.6873 75.7039L11.7402 79.3389L10.5668 77.4191C10.1565 76.7479 10.0075 76.1397 10.1196 75.5946C10.2283 75.0437 10.5386 74.6118 11.0505 74.2989ZM13.391 75.6929C13.1268 75.2606 12.8382 74.9994 12.5253 74.9094C12.2124 74.8193 11.8825 74.8804 11.5355 75.0924C10.8017 75.5409 10.6921 76.1861 11.2067 77.028L11.9056 78.1713L14.0898 76.8362L13.391 75.6929Z" fill="white"/>
<path d="M13.815 67.9194C14.0686 68.5143 14.1619 69.1158 14.095 69.7241C14.022 70.335 13.7986 70.8904 13.4247 71.3903C13.042 71.8868 12.5379 72.2683 11.9123 72.5349C11.2868 72.8015 10.6655 72.8997 10.0485 72.8293C9.42276 72.7554 8.86735 72.5319 8.38226 72.1589C7.89104 71.7885 7.51866 71.3059 7.26511 70.711C7.00896 70.1099 6.91738 69.504 6.99039 68.8931C7.05726 68.2849 7.27896 67.7338 7.65548 67.24C8.03201 66.7462 8.53612 66.3646 9.16781 66.0954C9.79949 65.8262 10.4238 65.7268 11.0408 65.7972C11.6578 65.8675 12.2119 66.0879 12.7032 66.4583C13.1883 66.8313 13.5589 67.3184 13.815 67.9194ZM13.0883 68.2291C12.8975 67.7814 12.622 67.4241 12.2619 67.1573C11.8992 66.8843 11.4815 66.729 11.0088 66.6913C10.5336 66.6474 10.0415 66.734 9.53244 66.9509C9.01727 67.1705 8.61401 67.4656 8.32264 67.8362C8.02253 68.2032 7.84401 68.609 7.7871 69.0536C7.73018 69.4982 7.79844 69.9474 7.99186 70.4012C8.18528 70.8551 8.46206 71.2154 8.82218 71.4822C9.1823 71.7491 9.59998 71.9044 10.0752 71.9483C10.5417 71.9886 11.0325 71.899 11.5477 71.6794C12.0567 71.4624 12.4613 71.1704 12.7614 70.8034C13.0589 70.4302 13.2361 70.0213 13.2931 69.5767C13.3474 69.126 13.2791 68.6768 13.0883 68.2291Z" fill="white"/>
<path d="M11.7453 61.065L9.39707 63.381L9.67035 64.4465L12.431 63.7385L12.6571 64.62L5.90559 66.3516L5.34661 64.1721C5.21577 63.662 5.1928 63.2102 5.27772 62.8167C5.36099 62.4168 5.52879 62.0916 5.78112 61.8411C6.03345 61.5905 6.35012 61.4164 6.73112 61.3187C7.19607 61.1994 7.64092 61.2299 8.06565 61.41C8.48873 61.5837 8.82712 61.9236 9.08082 62.4298L11.4745 60.0092L11.7453 61.065ZM8.96323 64.6279L8.63033 63.3299C8.50777 62.852 8.29961 62.5235 8.00585 62.3442C7.70564 62.1665 7.35857 62.1282 6.96465 62.2292C6.56428 62.3319 6.28495 62.5309 6.12667 62.8261C5.96674 63.1149 5.94888 63.5015 6.0731 63.9858L6.406 65.2838L8.96323 64.6279Z" fill="white"/>
<path d="M3.99627 55.123L4.73168 55.0407L4.94288 56.929L11.1343 56.2364L11.2354 57.1408L5.04404 57.8333L5.25635 59.7315L4.52094 59.8137L3.99627 55.123Z" fill="white"/>
<path d="M9.58452 48.8782L9.49854 51.917L11.0321 52.5206L11.0049 53.4803L4.14898 50.7653L4.17867 49.7157L11.1769 47.4027L11.1497 48.3623L9.58452 48.8782ZM8.83746 49.1172L5.28324 50.2772L8.76619 51.6362L8.83746 49.1172Z" fill="white"/>
<path d="M5.25567 41.861L5.98526 41.9848L5.47872 44.9721L7.79565 45.365L8.2069 42.9396L8.93648 43.0633L8.52524 45.4887L11.621 46.0136L11.4689 46.9108L4.59701 45.7456L5.25567 41.861Z" fill="white"/>
<path d="M13.6595 38.506C13.4599 39.1211 13.1352 39.6361 12.6852 40.0508C12.229 40.4634 11.6956 40.7355 11.0853 40.8669C10.4707 40.9899 9.83997 40.9465 9.19316 40.7366C8.54635 40.5268 8.01344 40.1927 7.59443 39.7344C7.17113 39.2676 6.89909 38.7343 6.77832 38.1344C6.6512 37.5325 6.68742 36.924 6.88697 36.3089C7.08859 35.6874 7.41753 35.1704 7.87382 34.7577C8.32376 34.343 8.85287 34.0731 9.46115 33.948C10.0694 33.8229 10.7001 33.8664 11.3533 34.0783C12.0065 34.2902 12.5425 34.6253 12.9615 35.0836C13.3806 35.542 13.6536 36.0721 13.7807 36.674C13.9015 37.2739 13.8611 37.8846 13.6595 38.506ZM12.908 38.2622C13.0582 37.7993 13.0852 37.349 12.9889 36.9113C12.8947 36.4672 12.6817 36.0757 12.3501 35.7368C12.0206 35.3916 11.5926 35.1336 11.0663 34.9629C10.5336 34.7901 10.0357 34.7477 9.57264 34.8357C9.10525 34.9154 8.70409 35.1041 8.36916 35.402C8.03424 35.6998 7.79066 36.0834 7.63842 36.5527C7.48618 37.0219 7.4582 37.4754 7.55448 37.9131C7.65077 38.3509 7.86369 38.7424 8.19324 39.0876C8.51851 39.4244 8.94748 39.6792 9.48015 39.852C10.0065 40.0228 10.5033 40.0683 10.9707 39.9887C11.4402 39.9027 11.8424 39.7107 12.1773 39.4129C12.5143 39.1087 12.7579 38.7252 12.908 38.2622Z" fill="white"/>
<path d="M14.7228 34.0668L15.7916 31.8733L16.4568 32.1974L14.9895 35.2089L8.72366 32.156L9.12225 31.3379L14.7228 34.0668Z" fill="white"/>
<path d="M12.0519 26.1918L17.9473 29.9101L17.4618 30.6798L11.5665 26.9615L12.0519 26.1918Z" fill="white"/>
<path d="M21.7469 25.0502C21.3351 25.5489 20.8438 25.9083 20.2729 26.1286C19.6968 26.3445 19.1009 26.4014 18.485 26.2992C17.8682 26.1876 17.2976 25.9153 16.7732 25.4824C16.2489 25.0494 15.8762 24.5428 15.655 23.9625C15.433 23.3728 15.3761 22.7768 15.4843 22.1746C15.5875 21.568 15.8449 21.0155 16.2566 20.5168C16.6726 20.013 17.1686 19.6531 17.7447 19.4372C18.3156 19.2169 18.9069 19.1605 19.5185 19.2678C20.1302 19.3752 20.7008 19.6475 21.2302 20.0847C21.7597 20.5219 22.135 21.0306 22.3562 21.6109C22.5773 22.1912 22.6363 22.7846 22.5332 23.3912C22.425 23.9934 22.1628 24.5464 21.7469 25.0502ZM21.1377 24.5472C21.4476 24.172 21.6382 23.7631 21.7096 23.3206C21.7853 22.873 21.7312 22.4306 21.5474 21.9936C21.3679 21.5514 21.0648 21.1541 20.6381 20.8018C20.2063 20.4452 19.7589 20.2228 19.2958 20.1344C18.8319 20.0366 18.3894 20.0646 17.9684 20.2185C17.5475 20.3723 17.1799 20.6394 16.8658 21.0198C16.5517 21.4002 16.3589 21.8117 16.2875 22.2542C16.2161 22.6966 16.2702 23.139 16.4497 23.5812C16.6283 24.014 16.9336 24.4087 17.3654 24.7653C17.7921 25.1176 18.2374 25.3426 18.7013 25.4404C19.1695 25.533 19.6141 25.5024 20.0351 25.3486C20.4603 25.1896 20.8278 24.9225 21.1377 24.5472Z" fill="white"/>
<path d="M24.4968 22.2792C24.3703 22.3978 24.2223 22.4543 24.0526 22.4488C23.883 22.4433 23.7389 22.3773 23.6204 22.2509C23.5019 22.1244 23.4454 21.9764 23.4508 21.8067C23.4563 21.6371 23.5223 21.493 23.6488 21.3745C23.7704 21.2605 23.9136 21.2086 24.0783 21.2186C24.2479 21.2241 24.392 21.2901 24.5105 21.4166C24.6291 21.543 24.6856 21.6911 24.6801 21.8607C24.6795 22.0257 24.6184 22.1653 24.4968 22.2792Z" fill="white"/>
<path d="M27.7661 11.0657L31.4608 16.9759L30.6892 17.4583L26.9945 11.5481L27.7661 11.0657Z" fill="white"/>
<path d="M39.0745 13.2092L38.2478 13.5896L32.6032 10.0772L34.9227 15.1192L34.096 15.4995L31.1788 9.15839L32.0055 8.77806L37.6459 12.2814L35.3306 7.24841L36.1573 6.86809L39.0745 13.2092Z" fill="white"/>
<path d="M43.9776 6.7991C43.6817 6.4597 43.3275 6.23356 42.9151 6.12069C42.5009 6.00139 42.0594 6.00742 41.5908 6.13877C41.1222 6.27011 40.7291 6.49799 40.4116 6.8224C40.0986 7.1386 39.8897 7.52949 39.7848 7.99508C39.6845 8.45245 39.7082 8.94432 39.8557 9.47071C40.0032 9.99709 40.2387 10.4296 40.5621 10.7682C40.8919 11.105 41.2736 11.3304 41.707 11.4443C42.1452 11.55 42.5985 11.5371 43.0671 11.4058C43.7219 11.2223 44.2062 10.8753 44.5202 10.365C44.8341 9.85467 44.9328 9.25581 44.8163 8.56841L42.1394 9.31871L41.9397 8.60617L45.5505 7.59408L45.7395 8.2681C45.8429 8.83456 45.8117 9.39026 45.6459 9.93521C45.4784 10.4737 45.1917 10.9453 44.7858 11.3498C44.3781 11.748 43.879 12.0298 43.2884 12.1953C42.6658 12.3699 42.0572 12.3847 41.4627 12.2398C40.8664 12.0884 40.3445 11.795 39.897 11.3596C39.456 10.9224 39.1437 10.3765 38.9602 9.7217C38.7767 9.06694 38.7597 8.43819 38.9092 7.83546C39.0634 7.22452 39.3568 6.70264 39.7893 6.26983C40.2201 5.8306 40.7468 5.52372 41.3695 5.34919C42.0821 5.14948 42.7606 5.14968 43.4052 5.3498C44.0562 5.54812 44.5969 5.93316 45.0272 6.50492L43.9776 6.7991Z" fill="white"/>
<path d="M50.3541 11.0392L48.361 8.41134L47.2691 8.54462L47.6144 11.3736L46.7111 11.4839L45.8666 4.56522L48.1 4.29261C48.6228 4.2288 49.0738 4.26443 49.453 4.39948C49.8387 4.53373 50.1395 4.74216 50.3554 5.02476C50.5712 5.30735 50.7029 5.64387 50.7506 6.03431C50.8087 6.51077 50.7211 6.94795 50.4876 7.34584C50.2607 7.74292 49.8799 8.03454 49.3451 8.2207L51.436 10.9072L50.3541 11.0392ZM47.1806 7.81999L48.5108 7.65764C49.0005 7.59787 49.3532 7.43392 49.569 7.16581C49.7839 6.89107 49.8668 6.55187 49.8175 6.1482C49.7674 5.73791 49.6062 5.43521 49.3339 5.2401C49.0682 5.04418 48.6872 4.97651 48.1909 5.03709L46.8608 5.19944L47.1806 7.81999Z" fill="white"/>
<path d="M53.8621 4.79981L53.8197 7.12943L56.3592 7.1757L56.3456 7.92558L53.806 7.8793L53.7623 10.2789L56.6018 10.3306L56.5881 11.0805L52.8388 11.0122L52.9659 4.03336L56.7153 4.10168L56.7016 4.85155L53.8621 4.79981Z" fill="white"/>
<path d="M60.6073 11.7605C60.1526 11.691 59.7561 11.5494 59.4179 11.3358C59.0872 11.1166 58.8414 10.8497 58.6805 10.535C58.5206 10.2138 58.4661 9.8649 58.5169 9.48826L59.4758 9.63496C59.4593 9.96291 59.5493 10.2566 59.7456 10.5159C59.9496 10.7697 60.2757 10.9308 60.7238 10.9994C61.1521 11.0649 61.5043 11.0109 61.7804 10.8373C62.0641 10.6582 62.2317 10.4006 62.2831 10.0645C62.3234 9.80088 62.2837 9.57562 62.1639 9.38868C62.0442 9.20175 61.8821 9.04882 61.6777 8.92987C61.4734 8.81093 61.1942 8.6738 60.8403 8.51849C60.4038 8.3303 60.0562 8.15572 59.7975 7.99476C59.5455 7.8348 59.3398 7.61449 59.1804 7.33382C59.0286 7.04757 58.9855 6.69027 59.051 6.26192C59.1085 5.88629 59.255 5.56812 59.4904 5.3074C59.7259 5.04668 60.0271 4.86345 60.394 4.75772C60.7674 4.653 61.1782 4.63492 61.6263 4.70348C62.2722 4.80229 62.7747 5.04441 63.1338 5.42983C63.4996 5.81626 63.668 6.2804 63.6391 6.82226L62.6506 6.67102C62.6579 6.40238 62.5548 6.15056 62.3413 5.91555C62.1287 5.67395 61.8214 5.52241 61.4194 5.4609C61.0438 5.40343 60.7222 5.4554 60.4547 5.6168C60.1883 5.77161 60.0283 6.02365 59.9749 6.37292C59.9365 6.62334 59.9745 6.83821 60.0887 7.01755C60.2095 7.19789 60.3654 7.34652 60.5566 7.46345C60.7554 7.57479 61.0345 7.71192 61.394 7.87483C61.8296 8.06961 62.1762 8.25078 62.4338 8.41834C62.6924 8.5793 62.9009 8.80341 63.0593 9.09067C63.2187 9.37134 63.2651 9.72914 63.1986 10.1641C63.1472 10.5002 63.0098 10.8029 62.7865 11.0722C62.5632 11.3415 62.2628 11.5417 61.8853 11.6728C61.5078 11.8039 61.0818 11.8331 60.6073 11.7605Z" fill="white"/>
<path d="M68.2971 12.1412L65.3854 11.2676L64.4035 12.5913L63.484 12.3154L67.8893 6.40193L68.895 6.70369L69.3076 14.0627L68.3881 13.7868L68.2971 12.1412ZM68.2608 11.3577L68.0655 7.62412L65.8471 10.6335L68.2608 11.3577Z" fill="white"/>
<path d="M73.0056 16.0083L72.7086 12.7235L71.7121 12.2577L70.5053 14.8396L69.6809 14.4543L72.6323 8.14L74.6706 9.09276C75.1477 9.31577 75.5113 9.58503 75.7612 9.90054C76.0171 10.2189 76.1617 10.5551 76.1949 10.9091C76.2281 11.2631 76.1614 11.6183 75.9949 11.9746C75.7916 12.4095 75.4855 12.7337 75.0766 12.9473C74.6737 13.1637 74.1963 13.2092 73.6442 13.0836L73.9931 16.4699L73.0056 16.0083ZM72.0212 11.5964L73.2351 12.1638C73.6821 12.3727 74.0681 12.4207 74.3932 12.3077C74.7211 12.1887 74.9711 11.945 75.1433 11.5766C75.3183 11.2021 75.3421 10.86 75.2146 10.5502C75.0932 10.2433 74.806 9.98392 74.353 9.7722L73.1391 9.20478L72.0212 11.5964Z" fill="white"/>
<path d="M75.4106 17.5603C75.2636 17.4684 75.171 17.3398 75.1329 17.1744C75.0947 17.009 75.1216 16.8529 75.2135 16.7059C75.3054 16.5589 75.434 16.4663 75.5994 16.4282C75.7647 16.3901 75.9209 16.4169 76.0679 16.5088C76.2092 16.5972 76.2961 16.7222 76.3286 16.8841C76.3667 17.0494 76.3399 17.2056 76.248 17.3526C76.1561 17.4996 76.0275 17.5921 75.8621 17.6303C75.7024 17.6719 75.5519 17.6486 75.4106 17.5603Z" fill="white"/>
<path d="M90.58 21.2875L83.8168 24.411L83.0684 23.6746L86.0823 16.8618L86.7737 17.5421L84.1195 23.362L89.8958 20.6142L90.58 21.2875Z" fill="white"/>
<path d="M91.2656 23.6507L89.4161 25.0678L90.9609 27.084L90.3656 27.5402L88.8207 25.5239L86.9157 26.9836L88.6429 29.238L88.0476 29.6941L85.7669 26.7174L91.3075 22.4722L93.5882 25.4489L92.9929 25.905L91.2656 23.6507Z" fill="white"/>
<path d="M90.7708 34.4815L92.4361 31.6346L91.8951 30.6768L89.4136 32.0783L88.9661 31.2859L95.035 27.8583L96.1415 29.8175C96.4005 30.2761 96.5402 30.7063 96.5605 31.1083C96.584 31.5161 96.5066 31.8738 96.3281 32.1813C96.1496 32.4888 95.8891 32.7393 95.5466 32.9327C95.1286 33.1688 94.6912 33.2551 94.2342 33.1916C93.7805 33.1339 93.3654 32.8937 92.9888 32.4709L91.3069 35.4306L90.7708 34.4815ZM92.5308 30.3178L93.1897 31.4846C93.4323 31.9141 93.7188 32.1773 94.0491 32.274C94.3851 32.3675 94.7302 32.3142 95.0843 32.1143C95.4442 31.911 95.6622 31.6462 95.7383 31.32C95.8176 30.9996 95.7343 30.6217 95.4885 30.1863L94.8295 29.0195L92.5308 30.3178Z" fill="white"/>
<path d="M101.636 45.5689L94.9467 47.3416L94.7136 46.4619L99.7014 45.1401L94.1244 44.2387L93.9604 43.62L98.3662 40.0627L93.3687 41.3871L93.1356 40.5075L99.8247 38.7348L100.076 39.6821L95.2024 43.6219L101.387 44.6312L101.636 45.5689Z" fill="white"/>
<path d="M101.685 47.6935L94.77 48.5656L94.6562 47.6628L101.571 46.7907L101.685 47.6935Z" fill="white"/>
<path d="M99.4256 60.7906C98.8478 60.7401 98.3837 60.4988 98.0333 60.0667C97.689 59.6418 97.5522 59.0242 97.6229 58.214L97.7395 56.8791L94.8405 56.6259L94.9197 55.7194L101.863 56.3257L101.668 58.5672C101.599 59.3509 101.358 59.9287 100.944 60.3008C100.529 60.6795 100.023 60.8428 99.4256 60.7906ZM98.3701 58.2792C98.326 58.784 98.4031 59.1655 98.6014 59.4237C98.7997 59.6819 99.1014 59.8287 99.5065 59.8641C100.363 59.9389 100.835 59.4849 100.92 58.5019L101.037 57.167L98.4866 56.9443L98.3701 58.2792Z" fill="white"/>
<path d="M93.4159 64.2725C93.5651 63.6433 93.8472 63.1038 94.2622 62.6541C94.6836 62.2059 95.1932 61.8917 95.791 61.7114C96.3936 61.5392 97.0258 61.5315 97.6874 61.6884C98.3491 61.8453 98.9072 62.1353 99.3619 62.5583C99.8215 62.9893 100.136 63.4989 100.305 64.087C100.48 64.6767 100.493 65.2862 100.344 65.9154C100.193 66.5511 99.9069 67.0931 99.4854 67.5412C99.0705 67.9909 98.5649 68.3027 97.9687 68.4765C97.3725 68.6503 96.7403 68.6579 96.0722 68.4995C95.4041 68.341 94.8427 68.0503 94.388 67.6273C93.9333 67.2043 93.6183 66.698 93.443 66.1083C93.2742 65.5201 93.2651 64.9082 93.4159 64.2725ZM94.1846 64.4548C94.0723 64.9283 94.0818 65.3793 94.2131 65.8079C94.3429 66.2429 94.5868 66.6159 94.9447 66.9269C95.301 67.2443 95.7484 67.4669 96.2868 67.5946C96.8317 67.7238 97.3314 67.7258 97.7859 67.6007C98.2453 67.4835 98.6299 67.263 98.9397 66.939C99.2494 66.6151 99.4612 66.2131 99.5751 65.7331C99.6889 65.2531 99.6802 64.7988 99.5488 64.3703C99.4175 63.9418 99.1737 63.5688 98.8173 63.2513C98.4659 62.9419 98.0177 62.7225 97.4728 62.5933C96.9344 62.4656 96.4355 62.4604 95.9761 62.5775C95.5151 62.7011 95.1298 62.9249 94.82 63.2488C94.5087 63.5793 94.2969 63.9812 94.1846 64.4548Z" fill="white"/>
<path d="M91.0129 71.0229L94.2775 70.5537L94.6903 69.5341L92.0485 68.4646L92.39 67.6211L98.8507 70.2366L98.0064 72.3222C97.8087 72.8104 97.5589 73.1875 97.257 73.4537C96.9526 73.726 96.6244 73.8881 96.2726 73.9398C95.9208 73.9916 95.5626 73.9437 95.1981 73.7961C94.7531 73.616 94.4133 73.3273 94.1785 72.9302C93.9412 72.5393 93.8707 72.0648 93.9671 71.5069L90.6038 72.0333L91.0129 71.0229ZM95.3669 69.808L94.8641 71.0501C94.679 71.5074 94.6514 71.8954 94.7813 72.2141C94.9173 72.5353 95.1738 72.7722 95.5508 72.9248C95.9339 73.0799 96.2768 73.0856 96.5795 72.9421C96.8796 72.8046 97.1235 72.5042 97.3112 72.0408L97.814 70.7987L95.3669 69.808Z" fill="white"/>
<path d="M93.7144 80.4046L93.0738 80.0341L94.025 78.3894L88.632 75.2703L89.0876 74.4826L94.4806 77.6016L95.4368 75.9482L96.0774 76.3187L93.7144 80.4046Z" fill="white"/>
<path d="M85.515 82.111L87.3885 79.717L86.513 78.3207L87.1046 77.5647L91.0091 83.8201L90.362 84.647L83.3576 82.3528L83.9492 81.5968L85.515 82.111ZM86.258 82.3623L89.8066 83.5394L87.811 80.3778L86.258 82.3623Z" fill="white"/>
<path d="M84.8324 90.3267L84.3188 89.7939L86.5002 87.6909L84.8692 85.9991L83.0981 87.7065L82.5845 87.1737L84.3556 85.4664L82.1762 83.2058L82.8314 82.5742L87.6689 87.5921L84.8324 90.3267Z" fill="white"/>
<path d="M76.0747 88.0447C76.6005 87.6682 77.1675 87.4467 77.7758 87.3802C78.388 87.319 78.9786 87.4168 79.5478 87.6735C80.1153 87.9395 80.5971 88.3489 80.9929 88.9018C81.3888 89.4547 81.6192 90.0399 81.6842 90.6575C81.7476 91.2844 81.6499 91.8751 81.3909 92.4295C81.1357 92.9893 80.7453 93.4574 80.2195 93.8339C79.6883 94.2142 79.1166 94.4349 78.5044 94.4961C77.8961 94.5626 77.3101 94.4656 76.7464 94.205C76.1827 93.9445 75.701 93.5351 75.3013 92.9767C74.9015 92.4184 74.6692 91.8304 74.6041 91.2129C74.5391 90.5953 74.6342 90.0066 74.8893 89.4467C75.1483 88.8923 75.5435 88.425 76.0747 88.0447ZM76.5346 88.687C76.1389 88.9703 75.8498 89.3166 75.6673 89.726C75.4795 90.1393 75.4183 90.5807 75.484 91.0503C75.5442 91.5238 75.7353 91.9854 76.0574 92.4353C76.3834 92.8907 76.7589 93.2204 77.1838 93.4245C77.6072 93.638 78.042 93.7243 78.4884 93.6835C78.9347 93.6427 79.3585 93.4787 79.7596 93.1915C80.1607 92.9043 80.4525 92.5561 80.6349 92.1467C80.8174 91.7373 80.8785 91.2959 80.8183 90.8224C80.7566 90.3583 80.5627 89.8985 80.2367 89.4432C79.9146 88.9933 79.5419 88.6616 79.1185 88.4482C78.6897 88.2386 78.2521 88.1542 77.8058 88.195C77.354 88.2397 76.9303 88.4037 76.5346 88.687Z" fill="white"/>
<path d="M72.5827 90.9825L70.4203 92.1129L70.0775 91.4571L73.0463 89.9052L76.2752 96.0821L75.4688 96.5037L72.5827 90.9825Z" fill="white"/>
<path d="M70.0577 98.8964L67.5219 92.4041L68.3695 92.073L70.9053 98.5654L70.0577 98.8964Z" fill="white"/>
<path d="M61.5769 94.0653C62.2043 93.9085 62.8131 93.911 63.4032 94.0728C63.995 94.2411 64.5083 94.5492 64.9432 94.9971C65.3732 95.4531 65.6706 96.011 65.8355 96.6707C66.0003 97.3305 65.9994 97.9594 65.8327 98.5577C65.6613 99.164 65.3532 99.6773 64.9085 100.098C64.4654 100.524 63.9301 100.816 63.3027 100.973C62.6689 101.131 62.0561 101.126 61.4643 100.958C60.8742 100.796 60.3649 100.491 59.9365 100.041C59.5081 99.5915 59.2106 99.0337 59.0442 98.3675C58.8778 97.7013 58.8779 97.0691 59.0445 96.4709C59.2111 95.8726 59.516 95.3601 59.9591 94.9333C60.4038 94.513 60.9431 94.2236 61.5769 94.0653ZM61.7684 94.8317C61.2962 94.9497 60.9001 95.1655 60.5799 95.4791C60.2532 95.7944 60.0341 96.1824 59.9224 96.6432C59.8043 97.1056 59.8123 97.6052 59.9465 98.1421C60.0822 98.6854 60.3101 99.13 60.6302 99.4761C60.9455 99.8302 61.3181 100.07 61.7482 100.197C62.1783 100.323 62.6326 100.326 63.1113 100.206C63.5899 100.087 63.9893 99.8703 64.3095 99.5567C64.6297 99.243 64.8488 98.855 64.9669 98.3926C65.0802 97.9383 65.0689 97.4395 64.9332 96.8962C64.7991 96.3593 64.5744 95.9138 64.2591 95.5597C63.9374 95.2072 63.5615 94.9678 63.1314 94.8416C62.6949 94.717 62.2406 94.7137 61.7684 94.8317Z" fill="white"/>
<path d="M57.7203 94.6654C57.8924 94.6452 58.0451 94.6876 58.1783 94.7927C58.3116 94.8978 58.3883 95.0365 58.4086 95.2086C58.4289 95.3808 58.3865 95.5335 58.2813 95.6667C58.1762 95.7999 58.0376 95.8766 57.8654 95.8969C57.6999 95.9164 57.5538 95.8732 57.4272 95.7673C57.294 95.6622 57.2173 95.5235 57.197 95.3514C57.1767 95.1793 57.2191 95.0266 57.3242 94.8934C57.4228 94.7609 57.5548 94.685 57.7203 94.6654Z" fill="white"/>
</svg>
