<svg width="50" height="38" viewBox="0 0 50 38" fill="none" xmlns="http://www.w3.org/2000/svg">
<path d="M0.983594 37L6.58359 0.549998H19.1336L24.8336 37H16.0836L15.3336 31H10.4336L9.73359 37H0.983594ZM11.1336 24H14.5836L13.7836 16.3L13.0336 8.85H12.6836L12.0336 16.35L11.1336 24ZM34.8336 37.5C33.4669 37.5 32.3169 37.1833 31.3836 36.55C30.4836 35.8833 29.7669 34.95 29.2336 33.75C28.7336 32.5167 28.3669 31.0333 28.1336 29.3C27.9336 27.5667 27.8336 25.6167 27.8336 23.45C27.8336 19.75 28.1336 16.9 28.7336 14.9C29.3336 12.8667 30.1503 11.45 31.1836 10.65C32.2503 9.85 33.4669 9.45 34.8336 9.45C35.7003 9.45 36.4669 9.6 37.1336 9.9C37.8003 10.1667 38.3669 10.5667 38.8336 11.1C39.3336 11.6333 39.7336 12.3167 40.0336 13.15H40.3836L40.5836 9.95H49.1836V37H40.3836V33.8H40.0336C39.5669 35.0667 38.8669 36 37.9336 36.6C37.0003 37.2 35.9669 37.5 34.8336 37.5ZM38.5836 30.6C39.0503 30.6 39.4169 30.3667 39.6836 29.9C39.9503 29.4 40.1336 28.6833 40.2336 27.75C40.3336 26.7833 40.3836 25.6 40.3836 24.2V22.75C40.3836 21.0833 40.3169 19.7833 40.1836 18.85C40.0503 17.8833 39.8503 17.2167 39.5836 16.85C39.3169 16.45 38.9836 16.25 38.5836 16.25C38.0503 16.25 37.6503 16.5333 37.3836 17.1C37.1169 17.6333 36.9336 18.4333 36.8336 19.5C36.7669 20.5667 36.7336 21.8833 36.7336 23.45C36.7336 25.2833 36.7836 26.7333 36.8836 27.8C37.0169 28.8333 37.2169 29.5667 37.4836 30C37.7836 30.4 38.1503 30.6 38.5836 30.6Z" fill="black"/>
</svg>
