<svg width="46" height="38" viewBox="0 0 46 38" fill="none" xmlns="http://www.w3.org/2000/svg">
<path d="M0.964063 37L7.31406 0.549998H16.8641L23.2641 37H16.5141L15.3641 29.8H8.81406L7.66406 37H0.964063ZM9.41406 24.4H14.7141L13.2141 14.25L12.2641 7H11.9141L11.0641 14.3L9.41406 24.4ZM33.1516 37.5C31.9516 37.5 30.9182 37.2167 30.0516 36.65C29.2182 36.05 28.5349 35.1667 28.0016 34C27.5016 32.8333 27.1349 31.4 26.9016 29.7C26.6682 27.9667 26.5516 25.95 26.5516 23.65C26.5516 20.05 26.8182 17.25 27.3516 15.25C27.9182 13.2167 28.7016 11.8 29.7016 11C30.7016 10.2 31.8516 9.8 33.1516 9.8C34.0182 9.8 34.7682 9.96667 35.4016 10.3C36.0682 10.6 36.6349 11.0333 37.1016 11.6C37.5682 12.1667 37.9349 12.8667 38.2016 13.7H38.5016L38.6516 10.3H45.2016V37H38.5016V33.6H38.2016C37.7682 34.9 37.1182 35.8833 36.2516 36.55C35.3849 37.1833 34.3516 37.5 33.1516 37.5ZM35.9516 32.2C36.5516 32.2 37.0349 31.9333 37.4016 31.4C37.7682 30.8667 38.0349 30.0667 38.2016 29C38.4016 27.9 38.5016 26.5333 38.5016 24.9V22.4C38.5016 20.6 38.4016 19.1667 38.2016 18.1C38.0016 17 37.7016 16.2167 37.3016 15.75C36.9349 15.2833 36.4849 15.05 35.9516 15.05C35.2182 15.05 34.6682 15.3833 34.3016 16.05C33.9349 16.6833 33.6682 17.65 33.5016 18.95C33.3682 20.2167 33.3016 21.7833 33.3016 23.65C33.3016 25.6833 33.3849 27.3333 33.5516 28.6C33.7182 29.8667 33.9849 30.7833 34.3516 31.35C34.7516 31.9167 35.2849 32.2 35.9516 32.2Z" fill="black"/>
</svg>
