<svg width="77" height="38" viewBox="0 0 77 38" fill="none" xmlns="http://www.w3.org/2000/svg">
<path d="M0.419141 37L16.0191 0.549998H27.3191L42.9691 37H33.5191L30.5191 29.7H12.7691L9.81914 37H0.419141ZM15.2191 23.2H28.1691L23.4191 11.9L21.8191 7.6H21.5191L19.9191 11.85L15.2191 23.2ZM58.3137 37.5C56.347 37.5 54.547 37.1833 52.9137 36.55C51.3137 35.8833 49.9303 34.95 48.7637 33.75C47.597 32.5167 46.697 31.05 46.0637 29.35C45.4303 27.65 45.1137 25.7333 45.1137 23.6C45.1137 20.7667 45.6637 18.3167 46.7637 16.25C47.8637 14.1833 49.4137 12.5833 51.4137 11.45C53.4137 10.3167 55.7137 9.75 58.3137 9.75C60.047 9.75 61.5637 9.95 62.8637 10.35C64.1637 10.75 65.2803 11.3 66.2137 12C67.147 12.6667 67.8637 13.4667 68.3637 14.4H68.7137L68.9637 10.2H76.9637V37H68.5137V32.7H68.1637C67.3637 34.1667 66.0637 35.3333 64.2637 36.2C62.497 37.0667 60.5137 37.5 58.3137 37.5ZM60.9137 31.1C62.4803 31.1 63.8303 30.8 64.9637 30.2C66.1303 29.5667 66.997 28.7333 67.5637 27.7C68.1637 26.6333 68.4637 25.4667 68.4637 24.2V22.9C68.4637 21.6333 68.1637 20.5 67.5637 19.5C66.997 18.4667 66.1303 17.65 64.9637 17.05C63.8303 16.45 62.4803 16.15 60.9137 16.15C59.447 16.15 58.1637 16.4333 57.0637 17C55.997 17.5667 55.147 18.4167 54.5137 19.55C53.9137 20.65 53.6137 22 53.6137 23.6C53.6137 25.2 53.9137 26.5667 54.5137 27.7C55.1137 28.8 55.9637 29.65 57.0637 30.25C58.1637 30.8167 59.447 31.1 60.9137 31.1Z" fill="black"/>
</svg>
