<svg width="106" height="106" viewBox="0 0 106 106" fill="none" xmlns="http://www.w3.org/2000/svg">
<path d="M37.7957 52.9682H67.7957M67.7957 52.9682C67.7957 52.9682 64.5971 54.8699 61.1457 59.1432C57.6943 63.4164 56.9092 66.1242 56.9092 66.1242M67.7957 52.9682C67.7957 52.9682 63.3087 49.5469 61.1457 46.7124C59.0134 43.9181 56.9092 39.6536 56.9092 39.6536" stroke="black" stroke-linecap="square"/>
<path d="M42.3485 101.101L45.9663 94.406L46.4593 94.4763L48.0622 101.916L47.5402 101.841L46.3522 96.3352C46.319 96.1759 46.2885 96.0204 46.2609 95.8684C46.2327 95.7198 46.2072 95.5764 46.1841 95.4383C46.161 95.3002 46.1421 95.1676 46.1273 95.0405C46.0777 95.1584 46.0245 95.2774 45.9679 95.3976C45.9077 95.5205 45.8433 95.6494 45.7747 95.7843C45.7057 95.9225 45.6305 96.0696 45.549 96.2257L42.8754 101.176L42.3485 101.101Z" fill="black"/>
<path d="M38.2935 92.451L42.0416 93.5339L40.0601 100.392L36.312 99.3091L36.4381 98.8729L39.7029 99.8162L40.4538 97.2174L37.3719 96.327L37.4979 95.8907L40.5799 96.7812L41.4324 93.8306L38.1675 92.8872L38.2935 92.451Z" fill="black"/>
<path d="M32.2682 97.535C31.7513 97.3036 31.3458 97.0543 31.0517 96.7871C30.7546 96.5185 30.5763 96.2158 30.5167 95.8788C30.4571 95.5419 30.5258 95.1535 30.7227 94.7138C30.8703 94.384 31.0582 94.1276 31.2865 93.9444C31.5104 93.7629 31.7617 93.6436 32.0405 93.5865C32.3193 93.5295 32.6148 93.5227 32.927 93.5662L32.4668 89.8025L33.0105 90.0459L33.4216 93.6324L35.0394 94.3567L36.3083 91.5223L36.7674 91.7279L33.8503 98.2433L32.2682 97.535ZM32.4944 97.1494L33.5729 97.6323L34.8578 94.7623L33.5609 94.1816C33.0291 93.9436 32.5575 93.8857 32.146 94.0082C31.7315 94.1294 31.4172 94.4292 31.203 94.9075C30.9676 95.4334 30.9628 95.8663 31.1886 96.2064C31.4144 96.5464 31.8497 96.8608 32.4944 97.1494Z" fill="black"/>
<path d="M25.5573 84.7936L23.4784 91.5763L23.4974 91.5916C23.5677 91.4936 23.6433 91.3915 23.7243 91.2853C23.8007 91.1797 23.8824 91.07 23.9695 90.9562C24.0566 90.8424 24.149 90.7246 24.2468 90.6027L27.5951 86.4281L27.9684 86.7275L23.5019 92.2962L22.9077 91.8196L24.9124 85.2778L24.8895 85.2595L18.9235 88.624L18.3445 88.1596L22.8111 82.5909L23.1958 82.8994L19.8107 87.1198C19.7313 87.2188 19.6486 87.3194 19.5625 87.4215C19.4765 87.5235 19.3915 87.6243 19.3074 87.7239C19.2189 87.8239 19.1333 87.9201 19.0509 88.0126L19.0737 88.0309L25.245 84.5431L25.5573 84.7936Z" fill="black"/>
<path d="M22.5186 81.8559L17.3501 86.78L17.0032 86.4159L22.1717 81.4918L22.5186 81.8559Z" fill="black"/>
<path d="M10.5591 77.7299C10.116 77.005 9.92301 76.3771 9.98006 75.8462C10.0371 75.3154 10.3587 74.8709 10.9447 74.5127C11.2447 74.3293 11.541 74.215 11.8337 74.1696C12.122 74.1231 12.4038 74.1473 12.6793 74.2422C12.9547 74.337 13.221 74.5043 13.4781 74.7439C13.7335 74.9808 13.9784 75.2908 14.2127 75.6741L14.7856 76.6115L17.302 75.0734L17.5643 75.5025L11.4733 79.2255L10.5591 77.7299ZM10.9663 77.544L11.5902 78.5647L14.4065 76.8432L13.859 75.9475C13.6179 75.5531 13.3664 75.2414 13.1043 75.0125C12.8395 74.7852 12.5535 74.6605 12.2463 74.6385C11.939 74.6164 11.6007 74.7183 11.2313 74.9441C10.7619 75.231 10.5086 75.5843 10.4712 76.0038C10.4312 76.4251 10.5962 76.9385 10.9663 77.544Z" fill="black"/>
<path d="M9.24987 66.5151C9.74996 66.302 10.2328 66.1687 10.6984 66.1154C11.164 66.062 11.5988 66.0943 12.0029 66.2123C12.407 66.3302 12.7699 66.5382 13.0916 66.8363C13.412 67.1315 13.6762 67.5231 13.8843 68.0112C14.0936 68.5023 14.1944 68.9672 14.1867 69.4057C14.179 69.8442 14.0777 70.2501 13.8829 70.6233C13.6838 70.9947 13.4038 71.3299 13.0429 71.6288C12.679 71.929 12.247 72.1857 11.7469 72.3988C11.0821 72.6821 10.4488 72.8194 9.84698 72.8105C9.2439 72.7986 8.70631 72.6331 8.23421 72.3142C7.76084 71.9922 7.38567 71.5063 7.10872 70.8565C6.84325 70.2337 6.75487 69.6485 6.84359 69.1012C6.92804 68.5521 7.17609 68.0589 7.58772 67.6216C7.99509 67.1826 8.54914 66.8138 9.24987 66.5151ZM11.5446 71.9118C12.1315 71.6616 12.612 71.3525 12.9858 70.9844C13.3567 70.6175 13.5901 70.1978 13.6859 69.7253C13.7818 69.2527 13.711 68.7379 13.4736 68.181C13.2337 67.618 12.9122 67.2083 12.5092 66.9519C12.1062 66.6955 11.6446 66.5755 11.1244 66.592C10.6042 66.6085 10.0476 66.7431 9.45471 66.9958C8.51741 67.3952 7.87716 67.9105 7.53395 68.5416C7.18946 69.1696 7.18696 69.8819 7.52646 70.6785C7.76512 71.2385 8.08786 71.6512 8.49467 71.9166C8.90021 72.179 9.3635 72.307 9.88455 72.3008C10.4043 72.2916 10.9577 72.1619 11.5446 71.9118Z" fill="black"/>
<path d="M5.25303 64.4861C5.11232 63.9374 5.05496 63.4649 5.08097 63.0684C5.10617 62.6687 5.23208 62.3407 5.45869 62.0843C5.6853 61.8279 6.03194 61.6399 6.4986 61.5202C6.8486 61.4304 7.16631 61.4178 7.45172 61.4824C7.73317 61.5446 7.983 61.6671 8.20123 61.8497C8.41946 62.0323 8.60875 62.2593 8.7691 62.5308L11.4279 59.8274L11.5759 60.4045L9.02514 62.9591L9.46548 64.676L12.4736 63.9045L12.5985 64.3916L5.68367 66.1651L5.25303 64.4861ZM5.69557 64.423L5.98913 65.5676L9.03508 64.7864L8.68207 63.41C8.53731 62.8456 8.28891 62.4405 7.93687 62.1947C7.58402 61.9458 7.15377 61.8865 6.64611 62.0167C6.088 62.1598 5.74618 62.4256 5.62064 62.814C5.4951 63.2024 5.52008 63.7388 5.69557 64.423Z" fill="black"/>
<path d="M11.1664 56.5236L11.2228 57.0282L4.57969 57.7713L4.83697 60.0714L4.38568 60.1219L3.81468 55.017L4.26597 54.9665L4.52325 57.2666L11.1664 56.5236Z" fill="black"/>
<path d="M11.1504 48.3388L8.59952 49.2387L8.51473 52.2356L11.0101 53.2978L10.9956 53.8103L3.91479 50.8012L3.92777 50.3424L11.1653 47.8117L11.1504 48.3388ZM8.14104 49.387L5.43844 50.2972C5.36937 50.3213 5.28059 50.3514 5.17211 50.3874C5.06372 50.4201 4.94873 50.456 4.82714 50.4948C4.70564 50.5305 4.59064 50.5663 4.48216 50.6023C4.59513 50.6381 4.708 50.6771 4.82078 50.7194C4.93356 50.7616 5.04314 50.8022 5.1495 50.841C5.25262 50.8798 5.34601 50.9166 5.42969 50.9515L8.06564 52.0519L8.14104 49.387Z" fill="black"/>
<path d="M11.5924 46.1827L11.5083 46.6785L4.47011 45.4851L5.12313 41.6338L5.57084 41.7097L5.0019 45.0652L8.00108 45.5737L8.53901 42.4012L8.9819 42.4763L8.44398 45.6488L11.5924 46.1827Z" fill="black"/>
<path d="M11.1394 34.4485C11.6565 34.6163 12.1081 34.833 12.4942 35.0985C12.8803 35.3641 13.187 35.6741 13.4143 36.0284C13.6416 36.3828 13.7786 36.778 13.8253 37.2141C13.873 37.6471 13.815 38.116 13.6513 38.6207C13.4866 39.1285 13.2573 39.5452 12.9634 39.8708C12.6696 40.1964 12.3266 40.4359 11.9346 40.5893C11.5405 40.7387 11.1092 40.8075 10.6408 40.7958C10.1692 40.7832 9.67484 40.6929 9.15776 40.5252C8.47037 40.3022 7.9027 39.9897 7.45476 39.5877C7.00783 39.1826 6.71111 38.7048 6.56463 38.1542C6.41915 37.6005 6.4554 36.9877 6.67338 36.3158C6.88232 35.6717 7.2 35.1725 7.62642 34.818C8.05075 34.4595 8.56172 34.2505 9.15933 34.1912C9.75486 34.1277 10.4149 34.2135 11.1394 34.4485ZM9.32513 40.0251C9.93202 40.222 10.4973 40.3044 11.021 40.2724C11.5417 40.2394 11.9933 40.0762 12.3759 39.7828C12.7586 39.4895 13.0433 39.0548 13.2302 38.4789C13.419 37.8968 13.4457 37.3767 13.3103 36.9187C13.1748 36.4607 12.9055 36.067 12.5025 35.7377C12.0994 35.4085 11.5913 35.1444 10.9782 34.9455C10.0091 34.6311 9.18783 34.5991 8.51455 34.8495C7.84227 35.0968 7.37252 35.6323 7.10532 36.4559C6.91747 37.0349 6.88977 37.5581 7.0222 38.0254C7.15564 38.4897 7.42085 38.8905 7.81783 39.2281C8.21582 39.5625 8.71825 39.8282 9.32513 40.0251Z" fill="black"/>
<path d="M15.0928 34.9969L8.67534 31.8701L8.89563 31.418L14.9005 34.3438L16.389 31.2887L16.8016 31.4897L15.0928 34.9969Z" fill="black"/>
<path d="M17.5877 30.4803L11.5497 26.672L11.818 26.2466L17.856 30.0549L17.5877 30.4803Z" fill="black"/>
<path d="M20.8953 20.3503C21.3145 20.6964 21.6548 21.064 21.9162 21.4529C22.1776 21.8418 22.3488 22.2429 22.4299 22.6559C22.5109 23.069 22.493 23.4869 22.3761 23.9097C22.2613 24.3299 22.035 24.7446 21.6972 25.1537C21.3573 25.5654 20.9908 25.8686 20.5978 26.0633C20.2048 26.2581 19.7978 26.3547 19.3769 26.3533C18.9555 26.3473 18.5291 26.2527 18.0977 26.0696C17.6638 25.8844 17.2373 25.6188 16.8181 25.2726C16.2609 24.8125 15.8479 24.3132 15.5791 23.7747C15.3124 23.2336 15.2122 22.6802 15.2784 22.1143C15.3467 21.5459 15.6057 20.9893 16.0555 20.4446C16.4866 19.9225 16.9656 19.5751 17.4925 19.4022C18.0189 19.2248 18.5709 19.2184 19.1485 19.3829C19.7257 19.5428 20.3079 19.8653 20.8953 20.3503ZM17.1577 24.8691C17.6496 25.2754 18.145 25.5599 18.6438 25.7227C19.1401 25.8834 19.6201 25.8977 20.0838 25.7656C20.5475 25.6334 20.9721 25.3339 21.3576 24.8671C21.7473 24.3952 21.9634 23.9213 22.0058 23.4456C22.0483 22.9698 21.9426 22.5048 21.6888 22.0504C21.435 21.5959 21.0596 21.1636 20.5626 20.7532C19.777 20.1044 19.025 19.7727 18.3068 19.758C17.5907 19.7408 16.957 20.0661 16.4057 20.7338C16.0181 21.2032 15.8 21.6795 15.7513 22.1628C15.7047 22.6435 15.8039 23.1139 16.049 23.5737C16.2961 24.0311 16.6657 24.4629 17.1577 24.8691Z" fill="black"/>
<path d="M24.0295 22.1598C23.9316 22.0553 23.8808 21.9535 23.8771 21.8543C23.8711 21.7528 23.9145 21.6586 24.0071 21.5718C24.1092 21.4761 24.2108 21.4344 24.3117 21.4469C24.4104 21.457 24.5087 21.5143 24.6067 21.6188C24.7046 21.7233 24.7565 21.8264 24.7625 21.9279C24.7684 22.0294 24.7203 22.128 24.6182 22.2237C24.5255 22.3106 24.4288 22.3477 24.3278 22.3353C24.2269 22.3228 24.1275 22.2643 24.0295 22.1598Z" fill="black"/>
<path d="M30.8892 17.3332L27.1051 11.2801L27.5315 11.0135L31.3157 17.0666L30.8892 17.3332Z" fill="black"/>
<path d="M39.0301 13.2297L38.5644 13.4439L32.0931 9.47146L32.0709 9.48167C32.1503 9.63864 32.2295 9.79925 32.3087 9.9635C32.3894 10.1234 32.4714 10.2899 32.5546 10.4631C32.6395 10.6319 32.724 10.8079 32.8084 10.9913L34.745 15.201L34.3103 15.401L31.3268 8.91566L31.797 8.69935L38.2468 12.6602L38.269 12.65C38.2062 12.5212 38.1323 12.3724 38.0475 12.2036C37.9657 12.0335 37.8803 11.8596 37.7914 11.6819C37.7054 11.5029 37.6257 11.3335 37.5522 11.1738L35.6074 6.94637L36.0466 6.74434L39.0301 13.2297Z" fill="black"/>
<path d="M42.1968 8.69641L44.7216 7.98874L45.6059 11.1435C45.3154 11.3737 44.9933 11.5755 44.6397 11.749C44.2851 11.9194 43.8979 12.0634 43.4778 12.1812C42.7475 12.3859 42.093 12.4206 41.5141 12.2853C40.9376 12.1461 40.447 11.8492 40.0424 11.3946C39.6377 10.9401 39.3318 10.3429 39.1244 9.60322C38.9312 8.91365 38.8989 8.26178 39.0276 7.6476C39.1595 7.03255 39.4445 6.49964 39.8827 6.04889C40.321 5.59813 40.9052 5.2704 41.6356 5.0657C42.0117 4.96028 42.3755 4.89548 42.7271 4.87131C43.0818 4.84626 43.429 4.86052 43.7685 4.9141L43.697 5.40068C43.3606 5.34622 43.0275 5.32801 42.6979 5.34603C42.3714 5.36317 42.0499 5.41611 41.7333 5.50484C41.1127 5.67879 40.6156 5.9618 40.2421 6.35386C39.8708 6.7419 39.6319 7.20439 39.5255 7.74132C39.4213 8.27424 39.4549 8.8463 39.6262 9.45751C39.8203 10.1502 40.096 10.6933 40.453 11.0868C40.8101 11.4803 41.2401 11.7299 41.7431 11.8358C42.2492 11.9407 42.8172 11.9049 43.4472 11.7283C43.792 11.6316 44.0937 11.52 44.3524 11.3934C44.6142 11.266 44.8449 11.1303 45.0446 10.9864L44.3659 8.56511L42.3207 9.13837L42.1968 8.69641Z" fill="black"/>
<path d="M47.8009 4.1592C48.3632 4.09057 48.8392 4.09478 49.229 4.17182C49.622 4.24846 49.931 4.4157 50.156 4.67355C50.3809 4.9314 50.5226 5.29943 50.581 5.77765C50.6248 6.13632 50.5962 6.45299 50.4952 6.72766C50.3972 6.9987 50.2435 7.23062 50.0342 7.42341C49.8249 7.61621 49.5753 7.77457 49.2854 7.89849L51.6224 10.8844L51.0311 10.9566L48.8276 8.09702L47.0682 8.31177L47.4444 11.3944L46.9452 11.4553L46.0803 4.36922L47.8009 4.1592ZM47.8063 4.60618L46.6334 4.74934L47.0143 7.87071L48.4248 7.69856C49.0032 7.62796 49.437 7.434 49.7262 7.11667C50.0186 6.79895 50.1331 6.37998 50.0696 5.85975C49.9998 5.28782 49.7804 4.91452 49.4115 4.73983C49.0425 4.56514 48.5075 4.52059 47.8063 4.60618Z" fill="black"/>
<path d="M56.9754 11.0876L53.0746 11.0165L53.2047 3.87901L57.1054 3.95009L57.0971 4.40411L53.6993 4.3422L53.65 7.04683L56.8575 7.10527L56.8492 7.5593L53.6417 7.50086L53.5858 10.5716L56.9836 10.6335L56.9754 11.0876Z" fill="black"/>
<path d="M62.8303 10.1676C62.7658 10.5891 62.6055 10.9268 62.3493 11.1807C62.0936 11.4314 61.7729 11.6013 61.3871 11.6905C61.0018 11.7764 60.5791 11.7842 60.119 11.7138C59.8326 11.67 59.5742 11.6156 59.3437 11.5507C59.116 11.4895 58.9106 11.4219 58.7277 11.3478C58.548 11.2742 58.3853 11.1966 58.2397 11.1151L58.3158 10.6179C58.552 10.7529 58.8285 10.8824 59.1454 11.0067C59.466 11.1282 59.821 11.2187 60.2103 11.2783C60.5772 11.3344 60.9103 11.331 61.2097 11.2682C61.5123 11.2058 61.7622 11.0794 61.9593 10.8889C62.1564 10.6984 62.28 10.4391 62.3302 10.1109C62.3745 9.82125 62.3415 9.57416 62.2312 9.36958C62.1246 9.16227 61.9447 8.97173 61.6914 8.79796C61.4385 8.62096 61.1152 8.43153 60.7212 8.22966C60.4469 8.0856 60.199 7.94065 59.9777 7.79482C59.76 7.64626 59.5786 7.48677 59.4334 7.31637C59.2887 7.14276 59.1871 6.94609 59.1285 6.72637C59.0736 6.50392 59.0679 6.25111 59.1112 5.96795C59.1707 5.5786 59.3189 5.26701 59.5555 5.03319C59.7959 4.79664 60.0953 4.63664 60.4539 4.55318C60.8161 4.467 61.2096 4.45641 61.6344 4.52139C61.9722 4.57309 62.2875 4.65425 62.5801 4.76488C62.8764 4.87279 63.1566 5.01115 63.4205 5.17997L63.1811 5.58295C62.9166 5.41736 62.6472 5.28393 62.3729 5.18269C62.0986 5.08145 61.8231 5.00966 61.5464 4.96732C61.215 4.91661 60.9113 4.92119 60.6354 4.98106C60.3632 5.03821 60.1365 5.15336 59.9552 5.3265C59.7739 5.49965 59.6604 5.73585 59.6146 6.0351C59.5674 6.344 59.5984 6.60397 59.7077 6.81498C59.8202 7.02649 59.9956 7.21469 60.2338 7.37956C60.4753 7.54494 60.7639 7.71423 61.0996 7.88744C61.4963 8.09302 61.8338 8.29779 62.1121 8.50173C62.3909 8.70246 62.5942 8.93444 62.7219 9.19766C62.8528 9.46138 62.8889 9.78469 62.8303 10.1676Z" fill="black"/>
<path d="M68.4107 13.7936L68.2055 11.0964L65.3339 10.2348L63.659 12.3679L63.168 12.2205L67.9157 6.1665L68.3553 6.2984L68.9158 13.9451L68.4107 13.7936ZM68.1817 10.6152L68.0059 7.7688C68.0006 7.69584 67.9947 7.6023 67.9882 7.48819C67.9847 7.37501 67.9801 7.25465 67.9741 7.12713C67.9713 7.00054 67.9667 6.88019 67.9601 6.76607C67.8962 6.86585 67.8292 6.96468 67.759 7.06258C67.6888 7.16048 67.6212 7.25573 67.556 7.34833C67.4918 7.43781 67.4319 7.51841 67.3764 7.59012L65.6281 9.84898L68.1817 10.6152Z" fill="black"/>
<path d="M74.4877 8.82086C75.0008 9.0607 75.4022 9.3166 75.6919 9.58856C75.9846 9.86189 76.1579 10.1675 76.212 10.5054C76.266 10.8433 76.1911 11.2304 75.9871 11.6669C75.8341 11.9942 75.642 12.2476 75.4108 12.427C75.1839 12.6048 74.9307 12.72 74.651 12.7725C74.3713 12.8251 74.0758 12.827 73.7643 12.7785L74.1631 16.5492L73.6235 16.2969L73.2708 12.7041L71.6651 11.9536L70.3501 14.7669L69.8945 14.5539L72.9174 8.08686L74.4877 8.82086ZM74.2553 9.20272L73.1848 8.70236L71.8533 11.5511L73.1405 12.1527C73.6684 12.3995 74.139 12.4649 74.5524 12.3492C74.9688 12.2348 75.288 11.9402 75.5099 11.4654C75.7539 10.9434 75.7658 10.5106 75.5455 10.1669C75.3253 9.82324 74.8952 9.50183 74.2553 9.20272Z" fill="black"/>
<path d="M75.4063 17.078C75.4823 16.9566 75.5677 16.8813 75.6626 16.8524C75.7592 16.8206 75.8613 16.8384 75.969 16.9057C76.0876 16.9799 76.1539 17.0674 76.1677 17.1681C76.1832 17.2661 76.153 17.3759 76.0771 17.4973C76.0011 17.6188 75.9149 17.6954 75.8183 17.7271C75.7216 17.7588 75.614 17.7376 75.4953 17.6634C75.3876 17.5961 75.3269 17.5121 75.3131 17.4113C75.2993 17.3106 75.3304 17.1995 75.4063 17.078Z" fill="black"/>
<path d="M90.1577 20.6353L83.2714 23.8743L82.9164 23.525L86.0438 16.5873L86.4197 16.9571L84.1064 22.0928C84.0385 22.2407 83.9706 22.384 83.9027 22.5226C83.837 22.659 83.7725 22.7895 83.709 22.9144C83.6456 23.0392 83.5821 23.1571 83.5185 23.2681C83.6285 23.2027 83.7419 23.1385 83.8588 23.0754C83.9803 23.0123 84.1087 22.9468 84.2439 22.879C84.3815 22.8088 84.5293 22.7351 84.6875 22.6579L89.7783 20.262L90.1577 20.6353Z" fill="black"/>
<path d="M88.2831 30.0015L85.9103 26.9047L91.5769 22.5629L93.9497 25.6598L93.5892 25.9359L91.5223 23.2383L89.375 24.8835L91.3262 27.43L90.9657 27.7062L89.0146 25.1597L86.5766 27.0277L88.6436 29.7253L88.2831 30.0015Z" fill="black"/>
<path d="M96.1503 29.4901C96.4289 29.9833 96.6071 30.4247 96.6851 30.8143C96.7647 31.2067 96.7284 31.5562 96.5763 31.8627C96.4241 32.1692 96.1383 32.4409 95.7188 32.6778C95.4042 32.8555 95.1007 32.9503 94.8083 32.9622C94.5204 32.9752 94.2473 32.922 93.9891 32.8024C93.7308 32.6828 93.489 32.5128 93.2636 32.2924L91.3992 35.5941L91.1063 35.0754L92.905 31.9454L92.0334 30.4021L89.3294 31.9292L89.082 31.4913L95.2979 27.9808L96.1503 29.4901ZM95.7394 29.6661L95.1583 28.6372L92.4203 30.1835L93.119 31.4208C93.4056 31.9281 93.7508 32.2547 94.1546 32.4005C94.56 32.5491 94.9909 32.4945 95.4473 32.2368C95.949 31.9534 96.2099 31.6079 96.2301 31.2002C96.2504 30.7925 96.0868 30.2811 95.7394 29.6661Z" fill="black"/>
<path d="M93.9878 43.7232L99.688 39.5L99.6817 39.4764C99.567 39.5136 99.4455 39.5508 99.3173 39.5882C99.1931 39.6278 99.0622 39.6676 98.9246 39.7074C98.787 39.7472 98.6427 39.7872 98.4916 39.8272L93.3186 41.1981L93.1961 40.7355L100.097 38.9068L100.292 39.6431L94.7943 43.7166L94.8018 43.7449L101.6 44.5801L101.79 45.2976L94.8897 47.1263L94.7633 46.6496L99.993 45.2637C100.116 45.2311 100.242 45.1993 100.372 45.1683C100.502 45.1373 100.63 45.1066 100.757 45.0764C100.887 45.0485 101.013 45.0219 101.134 44.9965L101.127 44.9682L94.0904 44.1103L93.9878 43.7232Z" fill="black"/>
<path d="M94.6858 47.897L101.768 47.0038L101.831 47.5027L94.7487 48.396L94.6858 47.897Z" fill="black"/>
<path d="M101.858 58.3215C101.784 59.1679 101.567 59.7877 101.206 60.181C100.845 60.5742 100.322 60.741 99.6378 60.6812C99.2875 60.6506 98.9812 60.5667 98.7187 60.4294C98.4591 60.2957 98.2467 60.1088 98.0814 59.8689C97.9161 59.629 97.8012 59.3364 97.7366 58.9909C97.6717 58.6487 97.6588 58.2538 97.6979 57.8063L97.7934 56.7118L94.8554 56.4553L94.8991 55.9542L102.011 56.5752L101.858 58.3215ZM101.42 58.2293L101.524 57.0376L98.2361 56.7505L98.1448 57.7963C98.1046 58.2568 98.1219 58.6569 98.1968 58.9968C98.2749 59.3369 98.431 59.607 98.6652 59.8072C98.8993 60.0073 99.232 60.1263 99.6633 60.1639C100.211 60.2118 100.625 60.078 100.904 59.7625C101.187 59.4473 101.359 58.9363 101.42 58.2293Z" fill="black"/>
<path d="M96.2554 68.1131C95.7265 67.9876 95.2588 67.8081 94.8525 67.5746C94.4462 67.3411 94.1155 67.0569 93.8604 66.7221C93.6052 66.3873 93.4368 66.0044 93.3549 65.5735C93.2724 65.1458 93.2923 64.6738 93.4147 64.1575C93.5379 63.638 93.7328 63.2042 93.9994 62.8559C94.266 62.5076 94.5885 62.2412 94.9668 62.0566C95.3475 61.8759 95.7719 61.7724 96.2398 61.7462C96.7108 61.7208 97.2108 61.7708 97.7398 61.8962C98.4429 62.063 99.034 62.3286 99.5129 62.6931C99.9911 63.0607 100.325 63.513 100.516 64.05C100.706 64.5901 100.719 65.2039 100.556 65.8912C100.4 66.55 100.123 67.0733 99.7271 67.461C99.3331 67.8527 98.8407 68.1022 98.2498 68.2097C97.6614 68.321 96.9966 68.2888 96.2554 68.1131ZM97.6133 62.4082C96.9925 62.261 96.4224 62.2245 95.903 62.2987C95.3867 62.3736 94.9498 62.5728 94.5921 62.8961C94.2344 63.2194 93.9857 63.6756 93.846 64.2648C93.7047 64.8602 93.7201 65.3807 93.8921 65.8263C94.0642 66.2719 94.3643 66.6425 94.7927 66.9382C95.2211 67.2338 95.7488 67.456 96.376 67.6047C97.3674 67.8398 98.1885 67.8054 98.8393 67.5014C99.4894 67.2006 99.9144 66.6289 100.114 65.7864C100.255 65.1941 100.24 64.6704 100.07 64.2153C99.8998 63.7634 99.603 63.3852 99.1801 63.0808C98.7564 62.7796 98.2341 62.5554 97.6133 62.4082Z" fill="black"/>
<path d="M98.2681 72.125C98.0555 72.65 97.8211 73.0643 97.5647 73.3679C97.3072 73.6745 97.0111 73.8637 96.6765 73.9355C96.3419 74.0072 95.9514 73.9527 95.5048 73.7719C95.1699 73.6363 94.9068 73.4578 94.7155 73.2364C94.5259 73.0192 94.3976 72.7723 94.3305 72.4958C94.2633 72.2193 94.2458 71.9242 94.2779 71.6106L90.5334 72.2071L90.7569 71.6549L94.3262 71.1139L94.9914 69.471L92.1128 68.3057L92.3016 67.8395L98.9185 70.5183L98.2681 72.125ZM97.8745 71.913L98.318 70.8177L95.4032 69.6377L94.87 70.9548C94.6514 71.4949 94.6107 71.9683 94.7481 72.3751C94.8842 72.7849 95.1951 73.0882 95.6809 73.2848C96.215 73.501 96.6478 73.4901 96.9795 73.2522C97.3111 73.0142 97.6095 72.5678 97.8745 71.913Z" fill="black"/>
<path d="M88.7766 75.0203L89.0309 74.5807L94.8174 77.9273L95.9761 75.9238L96.3692 76.1512L93.7975 80.5978L93.4044 80.3704L94.5631 78.3669L88.7766 75.0203Z" fill="black"/>
<path d="M83.9346 81.6154L86.5215 82.406L88.3692 80.0449L86.992 77.7086L87.308 77.3048L91.2188 83.9304L90.9359 84.2919L83.6096 82.0307L83.9346 81.6154ZM86.9784 82.5589L89.6935 83.4312C89.7634 83.4528 89.8527 83.4814 89.9613 83.5168C90.068 83.5548 90.1818 83.5943 90.3027 83.6352C90.4217 83.6786 90.5355 83.7181 90.6441 83.7535C90.5745 83.6577 90.5068 83.5593 90.4412 83.4583C90.3755 83.3573 90.3114 83.2596 90.2489 83.1652C90.1889 83.0728 90.1357 82.9877 90.0891 82.9099L88.6215 80.4594L86.9784 82.5589Z" fill="black"/>
<path d="M82.2996 83.0869L82.6616 82.7378L87.6162 87.8772L84.804 90.5883L84.4888 90.2614L86.939 87.8993L84.8277 85.7093L82.5111 87.9426L82.1993 87.6192L84.5159 85.3859L82.2996 83.0869Z" fill="black"/>
<path d="M75.6932 92.8057C75.3768 92.3637 75.142 91.9212 74.9891 91.4782C74.8361 91.0353 74.7733 90.6038 74.8009 90.1837C74.8284 89.7636 74.9529 89.3643 75.1742 88.9856C75.3929 88.6089 75.7179 88.2661 76.1494 87.9572C76.5834 87.6464 77.0154 87.4473 77.4451 87.3598C77.8749 87.2722 78.2931 87.2831 78.6996 87.3924C79.1054 87.5063 79.4933 87.707 79.8633 87.9945C80.2352 88.2847 80.5794 88.6508 80.8959 89.0929C81.3166 89.6804 81.5878 90.269 81.7095 90.8584C81.8286 91.4497 81.7836 92.0104 81.5746 92.5404C81.3629 93.0723 80.9698 93.5438 80.3955 93.955C79.8449 94.3492 79.2929 94.5623 78.7393 94.5943C78.185 94.6309 77.6498 94.4956 77.1336 94.1885C76.6168 93.886 76.1366 93.425 75.6932 92.8057ZM80.4643 89.3959C80.0928 88.8771 79.6869 88.4751 79.2465 88.1899C78.808 87.9073 78.3477 87.7705 77.8656 87.7793C77.3835 87.7882 76.8964 87.9688 76.4041 88.3213C75.9065 88.6776 75.5762 89.0802 75.4132 89.5291C75.2502 89.9781 75.2331 90.4547 75.362 90.959C75.4908 91.4633 75.7428 91.9775 76.118 92.5015C76.7112 93.33 77.3529 93.8434 78.0434 94.0416C78.7312 94.2418 79.4271 94.0899 80.1311 93.5858C80.6261 93.2315 80.959 92.8269 81.1299 92.3723C81.2982 91.9195 81.3228 91.4395 81.2038 90.9322C81.0822 90.4267 80.8357 89.9146 80.4643 89.3959Z" fill="black"/>
<path d="M72.8373 90.0144L76.1444 96.3409L75.6987 96.5739L72.6042 90.6542L69.5924 92.2285L69.3798 91.8218L72.8373 90.0144Z" fill="black"/>
<path d="M68.1499 92.1591L70.747 98.8085L70.2786 98.9915L67.6814 92.3421L68.1499 92.1591Z" fill="black"/>
<path d="M59.4716 98.3525C59.3398 97.8251 59.2843 97.3273 59.3048 96.8592C59.3254 96.391 59.4258 95.9666 59.6058 95.5861C59.7859 95.2056 60.0485 94.88 60.3935 94.6092C60.7354 94.3393 61.1637 94.14 61.6785 94.0114C62.1965 93.882 62.6713 93.8556 63.1032 93.9322C63.535 94.0089 63.9199 94.1728 64.2578 94.4239C64.5933 94.6789 64.8802 95.0082 65.1186 95.4117C65.3577 95.8183 65.5432 96.2853 65.675 96.8127C65.8501 97.5138 65.886 98.1608 65.7824 98.7537C65.6758 99.3474 65.4278 99.8523 65.0385 100.268C64.6461 100.685 64.1072 100.979 63.4219 101.15C62.765 101.314 62.1733 101.31 61.6467 101.136C61.1177 100.966 60.6697 100.643 60.3027 100.168C59.9333 99.6967 59.6562 99.0915 59.4716 98.3525ZM65.1622 96.9358C65.0075 96.3168 64.7778 95.7937 64.4732 95.3666C64.1693 94.9426 63.7915 94.6461 63.34 94.477C62.8884 94.308 62.3689 94.2969 61.7815 94.4436C61.1878 94.592 60.7326 94.845 60.4159 95.2026C60.0993 95.5602 59.9082 95.9971 59.8426 96.5134C59.7769 97.0298 59.8223 97.6006 59.9785 98.2259C60.2255 99.2144 60.6335 99.9278 61.2027 100.366C61.7687 100.805 62.4717 100.92 63.3118 100.71C63.9024 100.562 64.3607 100.308 64.6868 99.9485C65.0098 99.5893 65.2092 99.152 65.2851 98.6364C65.3578 98.1217 65.3168 97.5548 65.1622 96.9358Z" fill="black"/>
<path d="M58.0253 95.039C58.0421 95.1812 58.0225 95.2934 57.9666 95.3753C57.9111 95.4605 57.8203 95.5106 57.6942 95.5254C57.5552 95.5418 57.4488 95.515 57.375 95.445C57.3016 95.3783 57.2565 95.2738 57.2397 95.1316C57.223 94.9893 57.2424 94.8756 57.2979 94.7904C57.3534 94.7052 57.4506 94.6544 57.5897 94.638C57.7157 94.6232 57.8157 94.6507 57.8895 94.7207C57.9633 94.7906 58.0086 94.8968 58.0253 95.039Z" fill="black"/>
</svg>
