<svg width="133" height="130" viewBox="0 0 133 130" fill="none" xmlns="http://www.w3.org/2000/svg">
<g id="botonreproducir">
<path id="Polygon 5" d="M111.365 3.40426L111.275 25.3332L97.7664 13.184C97.7664 13.184 102.485 15.2693 106.767 12.6843C110.573 10.3858 111.365 3.40426 111.365 3.40426Z" fill="#1A1A1A"/>
<path id="Polygon 6" d="M11.9999 84.5002L29 110.5L6.00001 110.5C6.00001 110.5 14.7918 108.875 15.7551 102.792C16.6117 97.3837 11.9999 84.5002 11.9999 84.5002Z" fill="#1A1A1A"/>
<g id="cuerpo">
<rect x="26" y="23" width="91" height="91" rx="45.5" fill="white"/>
<path id="figura" d="M80.6286 68.2544C81.1238 68.6547 81.1238 69.4096 80.6286 69.8098L68.2194 79.8401C67.5655 80.3687 66.5908 79.9032 66.5908 79.0624V59.0019C66.5908 58.161 67.5655 57.6956 68.2194 58.2242L80.6286 68.2544Z" fill="#1A1A1A"/>
<rect x="26" y="23" width="91" height="91" rx="45.5" stroke="#1A1A1A" stroke-width="32"/>
</g>
</g>
</svg>
