<svg width="20" height="21" viewBox="0 0 20 21" fill="none" xmlns="http://www.w3.org/2000/svg">
<path fill-rule="evenodd" clip-rule="evenodd" d="M6.00003 2.51367C5.44775 2.51367 5.00003 2.96139 5.00003 3.51367V4.51367H4.00003C2.89546 4.51367 2.00003 5.4091 2.00003 6.51367V16.5137C2.00003 17.6182 2.89546 18.5137 4.00003 18.5137H16C17.1046 18.5137 18 17.6182 18 16.5137V6.51367C18 5.4091 17.1046 4.51367 16 4.51367H15V3.51367C15 2.96139 14.5523 2.51367 14 2.51367C13.4477 2.51367 13 2.96139 13 3.51367V4.51367H7.00003V3.51367C7.00003 2.96139 6.55232 2.51367 6.00003 2.51367ZM6.00003 7.51367C5.44775 7.51367 5.00003 7.96139 5.00003 8.51367C5.00003 9.06596 5.44775 9.51367 6.00003 9.51367H14C14.5523 9.51367 15 9.06596 15 8.51367C15 7.96139 14.5523 7.51367 14 7.51367H6.00003Z" fill="#BBBBBB"/>
</svg>
