<svg xmlns="http://www.w3.org/2000/svg" viewBox="0 0 477.18 477.19"><defs><style>.cls-1{font-size:36px;font-family:MargoBeuys-Black, "Margo + Beuys";font-weight:800;}</style></defs><g id="Capa_2" data-name="Capa 2"><g id="Capa_2-2" data-name="Capa 2"><text class="cls-1" transform="matrix(0.71, -0.71, 0.71, 0.71, 82.02, 100.96)">C</text><text class="cls-1" transform="translate(100.86 82.14) rotate(-37.68)">A</text><text class="cls-1" transform="matrix(0.86, -0.51, 0.51, 0.86, 121.65, 66.04)">R</text><text class="cls-1" transform="translate(143.6 52.96) rotate(-23.27)">G</text><text class="cls-1" transform="translate(168.34 42.28) rotate(-15.94)">A</text><text class="cls-1" transform="translate(193.54 34.86) rotate(-8.05)">N</text><text class="cls-1" transform="matrix(1, -0.02, 0.02, 1, 223.41, 30.82)">D</text><text class="cls-1" transform="matrix(0.99, 0.12, -0.12, 0.99, 250.02, 30.4)">O</text><text class="cls-1" transform="translate(277.97 34.24) rotate(12.34)"> </text><text class="cls-1" transform="matrix(0.96, 0.29, -0.29, 0.96, 288.13, 36.23)">*</text><text class="cls-1" transform="translate(308.57 42.58) rotate(21.15)"> </text><text class="cls-1" transform="translate(318.36 46.36) rotate(24.06)"> </text><text class="cls-1" transform="translate(327.9 50.17) rotate(29.22)">C</text><text class="cls-1" transform="matrix(0.8, 0.59, -0.59, 0.8, 351.13, 63.11)">A</text><text class="cls-1" transform="translate(372.31 78.71) rotate(43.58)">R</text><text class="cls-1" transform="matrix(0.63, 0.77, -0.77, 0.63, 390.91, 96.25)">G</text><text class="cls-1" transform="translate(408 117.12) rotate(58.02)">A</text><text class="cls-1" transform="translate(422.07 139.25) rotate(65.89)">N</text><text class="cls-1" transform="translate(434.35 166.81) rotate(73.6)">D</text><text class="cls-1" transform="translate(441.93 192.28) rotate(81.2)">O</text><text class="cls-1" transform="translate(445.87 220.26) rotate(86.49)"> </text><text class="cls-1" transform="translate(446.75 230.55) rotate(90.93)">*</text><text class="cls-1" transform="translate(446.24 251.98) rotate(95.11)"> </text><text class="cls-1" transform="translate(445.73 262.25) rotate(100.26)">C</text><text class="cls-1" transform="translate(441.04 288.43) rotate(107.53)">A</text><text class="cls-1" transform="matrix(-0.42, 0.91, -0.91, -0.42, 433.14, 313.53)">R</text><text class="cls-1" transform="translate(422.55 336.76) rotate(122)">G</text><text class="cls-1" transform="translate(408.29 359.65) rotate(129.25)">A</text><text class="cls-1" transform="matrix(-0.73, 0.68, -0.68, -0.73, 391.85, 380.1)">N</text><text class="cls-1" transform="matrix(-0.82, 0.58, -0.58, -0.82, 369.73, 400.61)">D</text><text class="cls-1" transform="matrix(-0.88, 0.47, -0.47, -0.88, 348.09, 416.06)">O</text><text class="cls-1" transform="translate(322.92 428.86) rotate(157.56)"> </text><text class="cls-1" transform="matrix(-0.95, 0.31, -0.31, -0.95, 313.44, 433.03)">*</text><text class="cls-1" transform="translate(293.03 439.47) rotate(166.37)"> </text><text class="cls-1" transform="translate(283.15 442.28) rotate(171.54)">C</text><text class="cls-1" transform="translate(256.83 446.24) rotate(178.72)">A</text><text class="cls-1" transform="matrix(-0.99, -0.1, 0.1, -0.99, 230.54, 446.86)">R</text><text class="cls-1" transform="translate(205.1 444.39) rotate(-166.95)">G</text><text class="cls-1" transform="translate(178.81 438.33) rotate(-159.61)">A</text><text class="cls-1" transform="translate(154.16 429.4) rotate(-151.73)">N</text><text class="cls-1" transform="matrix(-0.81, -0.59, 0.59, -0.81, 127.62, 415.06)">D</text><text class="cls-1" transform="matrix(-0.73, -0.69, 0.69, -0.73, 106.03, 399.53)">O</text><text class="cls-1" transform="translate(85.8 379.83) rotate(-131.28)"> </text><text class="cls-1" transform="translate(78.81 372.21) rotate(-126.94)">*</text><text class="cls-1" transform="translate(66.1 354.99) rotate(-122.58)"> </text><text class="cls-1" transform="translate(60.22 346.53) rotate(-117.42)">C</text><text class="cls-1" transform="translate(47.93 322.95) rotate(-110.15)">A</text><text class="cls-1" transform="matrix(-0.22, -0.97, 0.97, -0.22, 38.83, 298.27)">R</text><text class="cls-1" transform="translate(33.01 273.4) rotate(-95.68)">G</text><text class="cls-1" transform="translate(30.31 246.57) rotate(-88.5)">A</text><text class="cls-1" transform="translate(30.78 220.31) rotate(-80.69)">N</text><text class="cls-1" transform="translate(35.71 190.56) rotate(-72.99)">D</text><text class="cls-1" transform="translate(43.41 165.11) rotate(-65.38)">O</text><text class="cls-1" transform="translate(55.52 139.62) rotate(-60.06)"> </text><text class="cls-1" transform="matrix(0.56, -0.83, 0.83, 0.56, 60.49, 130.54)">*</text><text class="cls-1" transform="translate(72.72 112.95) rotate(-51.33)"> </text><text class="cls-1" transform="translate(79.28 104.75) rotate(-48.46)"> </text></g></g></svg>