<svg width="178" height="178" viewBox="0 0 178 178" fill="none" xmlns="http://www.w3.org/2000/svg">
<g clip-path="url(#clip0_875_2141)">
<path d="M40.1492 155.32L40.2073 155.777L37.6754 156.11L39.6608 157.647L39.3761 158.015L37.3539 156.449L37.6598 158.94L37.2031 158.999L36.8917 156.464L35.3545 158.449L34.9745 158.155L36.4454 156.255L34.0534 156.56L33.9953 156.103L36.496 155.785L34.4738 154.219L34.7585 153.852L36.7439 155.389L36.4203 152.845L36.8987 152.784L37.2045 155.275L38.7703 153.253L39.1502 153.547L37.518 155.655L40.1492 155.32Z" fill="white"/>
<path d="M32.8574 140.937L26.6202 146.501L28.784 148.926L26.9359 150.575L20.5476 143.413L22.3957 141.765L24.5594 144.19L30.7966 138.626L32.8574 140.937Z" fill="white"/>
<path d="M27.8421 135.15L18.7809 141.118L15.7117 136.458C14.0065 133.869 14.7484 131.896 16.3017 130.873C17.4538 130.114 18.6754 129.996 19.8831 130.815L22.2281 126.598L24.0185 129.317L21.7499 132.945L22.9008 134.693L26.137 132.561L27.8421 135.15ZM18.888 137.336L21.218 135.801L19.9392 133.859C19.4276 133.083 18.6541 133.035 18.0069 133.462C17.3596 133.888 17.0976 134.617 17.6092 135.394L18.888 137.336Z" fill="white"/>
<path d="M21.8724 126.033L10.7793 127.86L8.42314 122.7L17.1987 115.797L18.5248 118.701L16.8721 119.933L18.4944 123.486L20.5205 123.072L21.8724 126.033ZM16.4811 123.928L15.2 121.122L10.3767 124.926L10.4153 125.011L16.4811 123.928Z" fill="white"/>
<path d="M17.0046 115.009L6.59906 117.976L5.03116 112.475C4.25992 109.77 4.56858 108.428 6.36726 107.916C8.44838 107.322 9.38798 108.983 9.84745 111.102L10.115 111.026C9.19089 108.348 8.96045 106.694 11.3537 106.012C13.3457 105.444 14.5638 106.447 15.3944 109.36L17.0046 115.009ZM9.83945 113.837L9.24619 111.756C9.00888 110.924 8.55042 110.669 7.70311 110.91C6.95985 111.122 6.74939 111.568 6.98669 112.4L7.57995 114.481L9.83945 113.837ZM14.1949 112.596L13.5593 110.366C13.2627 109.325 12.7788 108.981 11.9315 109.223C10.995 109.489 10.7059 110.054 11.0025 111.095L11.6381 113.324L14.1949 112.596Z" fill="white"/>
<path d="M13.9047 104.111L2.77331 102.533L2.07016 96.9038L12.5099 92.9443L12.9057 96.1127L10.96 96.7931L11.4441 100.669L13.5012 100.881L13.9047 104.111ZM9.39087 100.488L9.00855 97.4274L3.26766 99.6128L3.27919 99.7051L9.39087 100.488Z" fill="white"/>
<path d="M8.67783 92.2245L8.72409 89.2799L9.49899 89.2921C10.3669 89.3057 10.7432 89.0326 10.7534 88.3817C10.7637 87.7308 10.3961 87.4459 9.52821 87.4323L1.77916 87.3106L1.82786 84.211L9.5769 84.3327C11.9636 84.3702 12.9675 85.5951 12.9232 88.4158C12.8806 91.1279 11.8394 92.2742 9.45273 92.2367L8.67783 92.2245Z" fill="white"/>
<path d="M12.7733 82.5623L2.0263 81.071L3.17671 72.7805L5.32612 73.0787L4.60179 78.2987L6.59766 78.5757L7.23678 73.9698L9.38618 74.2681L8.74707 78.8739L11.05 79.1935L11.7743 73.9735L13.9237 74.2718L12.7733 82.5623Z" fill="white"/>
<path d="M13.9932 72.6267L3.58459 69.3319L5.27907 63.9789L15.0476 65.7296L15.0758 65.6404L6.06041 61.5106L7.75488 56.1576L18.1634 59.4524L17.2974 62.1884L8.01889 59.2513L7.99065 59.3405L16.8455 63.6158L15.3111 68.4633L5.63871 66.8738L5.61047 66.963L14.8592 69.8907L13.9932 72.6267Z" fill="white"/>
<path d="M13.9543 55.9389C10.5138 54.1226 9.85032 51.8269 11.7245 48.2767C13.5987 44.7265 15.8685 43.9793 19.3091 45.7956C22.7496 47.6119 23.413 49.9076 21.5389 53.4578C19.6647 57.008 17.3948 57.7552 13.9543 55.9389ZM15.4015 53.1975C17.4439 54.2757 18.7409 53.9438 19.5513 52.4086C20.3618 50.8734 19.9042 49.6152 17.8618 48.537C15.8194 47.4588 14.5225 47.7907 13.712 49.326C12.9016 50.8612 13.3592 52.1193 15.4015 53.1975Z" fill="white"/>
<path d="M21.9019 45.3684L23.5804 43.0923C24.3391 43.6518 25.2821 43.3103 25.8692 42.5143C26.392 41.8053 26.5894 40.9908 25.9924 40.5505C24.3008 39.3031 22.0239 44.7863 18.8841 42.951C16.7878 41.7316 17.2628 39.3168 18.7579 37.2894C20.3447 35.1376 22.1955 34.2943 24.204 35.737L22.553 37.9758C21.6515 37.3494 20.7888 38.0766 20.4495 38.5368C19.945 39.2209 19.7935 39.9732 20.378 40.4043C21.9577 41.5692 24.3827 35.6768 27.6539 38.0891C29.5943 39.5199 29.3269 41.627 27.6759 43.8659C25.7498 46.4778 23.7676 46.7442 21.9019 45.3684Z" fill="white"/>
<path d="M31.1465 33.2307L33.3035 31.2256L33.8312 31.7933C34.4221 32.429 34.8798 32.5115 35.3566 32.0683C35.8334 31.625 35.7844 31.1626 35.1935 30.5269L29.9169 24.8506L32.1874 22.74L37.464 28.4163C39.0892 30.1645 38.9002 31.737 36.834 33.6576C34.8473 35.5044 33.2994 35.5467 31.6742 33.7984L31.1465 33.2307Z" fill="white"/>
<path d="M44.1768 22.2185L40.2494 16.6428L42.7838 14.8577L46.7112 20.4333C48.4607 22.917 48.0319 24.8116 45.2821 26.7485C42.5323 28.6854 40.604 28.4511 38.8546 25.9674L34.9272 20.3917L37.4616 18.6065L41.389 24.1822C42.2012 25.3353 42.9675 25.535 43.9432 24.8477C44.919 24.1604 44.9891 23.3716 44.1768 22.2185Z" fill="white"/>
<path d="M50.9043 22.5449L46.2213 12.7575L51.2548 10.3491L58.2599 18.1663L58.3437 18.1261L53.9952 9.0379L56.5679 7.80694L61.2509 17.5943L56.2174 20.0027L49.2124 12.1855L49.1285 12.2257L53.477 21.3139L50.9043 22.5449Z" fill="white"/>
<path d="M65.5443 16.2806L63.1489 8.26073L60.0301 9.19228L59.3203 6.81601L68.5284 4.06572L69.2381 6.44199L66.1193 7.37354L68.5147 15.3934L65.5443 16.2806Z" fill="white"/>
<path d="M71.3505 8.84015C70.8043 4.98818 72.275 3.10457 76.2497 2.54101C80.2244 1.97744 82.1607 3.37799 82.7069 7.22996C83.253 11.0819 81.7824 12.9655 77.8077 13.5291C73.8329 14.0927 71.8966 12.6921 71.3505 8.84015ZM74.4198 8.40497C74.744 10.6916 75.7733 11.5476 77.4922 11.3039C79.211 11.0602 79.9618 9.95178 79.6376 7.66515C79.3134 5.37852 78.284 4.52255 76.5652 4.76625C74.8464 5.00996 74.0956 6.11834 74.4198 8.40497Z" fill="white"/>
<path d="M84.5563 8.96329L87.3928 8.9623C87.3931 9.9078 88.2303 10.4655 89.2223 10.4652C90.1058 10.4649 90.8807 10.1391 90.8805 9.39508C90.8797 7.28708 85.0987 8.7151 84.71 5.08824C84.4456 2.67033 86.6772 1.61555 89.2037 1.61467C91.8852 1.61373 93.6681 2.60511 93.7 5.0851L90.91 5.08607C90.8786 3.98559 89.778 3.72247 89.2045 3.72267C88.352 3.72297 87.6546 4.04871 87.6548 4.77721C87.6555 6.74571 93.855 5.19355 93.8564 9.27005C93.8573 11.688 91.9976 12.7272 89.2076 12.7282C85.9526 12.7293 84.5571 11.2883 84.5563 8.96329Z" fill="white"/>
<path d="M103.023 7.8612L102.765 7.47958L104.876 6.04247L102.411 5.56335L102.5 5.10689L105.011 5.59489L103.616 3.50798L103.998 3.25057L105.417 5.37382L105.896 2.90895L106.368 3.00064L105.909 5.359L107.908 4.01065L108.166 4.39228L106.076 5.80191L108.586 6.28991L108.498 6.74636L106.033 6.26724L107.467 8.39346L107.067 8.66312L105.673 6.57622L105.185 9.08673L104.713 8.99504L105.222 6.37803L103.023 7.8612Z" fill="white"/>
<path d="M126.245 14.0198L123.39 12.8399C123.619 11.6808 123.208 10.9763 122.023 10.4866C120.425 9.82584 119.362 10.4562 118.477 12.5972C117.598 14.724 117.906 15.9207 119.504 16.5815C120.689 17.0711 121.477 16.8622 122.134 15.8801L124.989 17.0601C123.388 19.3564 121.483 19.8395 118.643 18.6654C114.946 17.1374 114.142 15 115.622 11.4173C117.109 7.8203 119.188 6.87462 122.885 8.40266C125.911 9.6534 126.918 11.34 126.245 14.0198Z" fill="white"/>
<path d="M127.692 16.3935C129.765 13.0715 132.118 12.5723 135.546 14.712C138.974 16.8516 139.559 19.1848 137.486 22.5069C135.412 25.8289 133.059 26.3281 129.631 24.1884C126.203 22.0488 125.618 19.7156 127.692 16.3935ZM130.339 18.0458C129.108 20.0178 129.347 21.3441 130.829 22.2693C132.311 23.1946 133.608 22.8267 134.839 20.8546C136.07 18.8826 135.831 17.5563 134.348 16.6311C132.866 15.7058 131.57 16.0737 130.339 18.0458Z" fill="white"/>
<path d="M135.776 28.2821L142.958 20.2239L147.103 23.9176L142.621 33.3498L142.69 33.4114L149.359 25.9287L151.477 27.8166L144.295 35.8749L140.15 32.1811L144.633 22.7489L144.563 22.6874L137.894 30.1701L135.776 28.2821Z" fill="white"/>
<path d="M147.269 39.3057L153.711 33.9635L151.634 31.4584L153.542 29.8755L159.676 37.2717L157.767 38.8545L155.69 36.3494L149.248 41.6916L147.269 39.3057Z" fill="white"/>
<path d="M151.053 43.788L161.816 40.5377L164.821 45.3492L157.015 53.3321L155.323 50.624L156.802 49.1884L154.733 45.8755L152.778 46.5487L151.053 43.788ZM156.672 45.1762L158.306 47.7922L162.595 43.3951L162.546 43.3162L156.672 45.1762Z" fill="white"/>
<path d="M168.1 61.0782L166.876 58.2299C167.852 57.5574 168.051 56.7635 167.543 55.5814C166.858 53.9864 165.653 53.6944 163.516 54.6122C161.395 55.5239 160.777 56.599 161.462 58.1941C161.97 59.3761 162.683 59.7784 163.842 59.5331L165.066 62.3814C162.307 62.909 160.6 61.9214 159.383 59.0874C157.798 55.3989 158.718 53.2997 162.293 51.764C165.882 50.2221 168.038 50.9996 169.622 54.6881C170.919 57.7073 170.461 59.6249 168.1 61.0782Z" fill="white"/>
<path d="M162.492 67.3213L170.569 65.1253L169.715 61.9843L172.108 61.3337L174.63 70.6071L172.237 71.2577L171.383 68.1167L163.306 70.3127L162.492 67.3213Z" fill="white"/>
<path d="M164.116 72.9388L175.269 74.3529L176.055 79.9712L165.674 84.0833L165.232 80.9211L167.167 80.2122L166.626 76.3439L164.567 76.1624L164.116 72.9388ZM168.682 76.4947L169.109 79.5494L174.818 77.2801L174.805 77.188L168.682 76.4947Z" fill="white"/>
<path d="M165.843 85.5001L176.684 85.9431L176.457 91.5184L166.632 92.389L166.629 92.4819L176.352 94.0893L176.124 99.6646L165.283 99.2216L165.399 96.372L175.063 96.7669L175.067 96.674L165.46 94.8852L165.666 89.8365L175.356 88.8363L175.36 88.7433L165.727 88.3497L165.843 85.5001Z" fill="white"/>
<path d="M164.843 100.846L175.461 103.079L173.738 111.27L171.614 110.823L172.699 105.666L170.727 105.252L169.77 109.802L167.647 109.355L168.604 104.805L166.329 104.326L165.244 109.483L163.12 109.037L164.843 100.846Z" fill="white"/>
<path d="M165.865 118.873L166.288 118.697L167.274 121.043L168.23 118.731L168.658 118.908L167.684 121.263L169.998 120.314L170.174 120.738L167.82 121.703L170.132 122.659L169.949 123.102L167.737 122.187L168.658 124.406L168.234 124.582L167.271 122.262L166.298 124.617L165.87 124.44L166.826 122.128L164.465 123.108L164.281 122.664L166.595 121.715L164.24 120.742L164.423 120.299L166.878 121.314L165.865 118.873Z" fill="white"/>
<path d="M153.953 129.732L160.945 134.333L162.734 131.614L164.806 132.977L159.522 141.005L157.451 139.642L159.24 136.923L152.249 132.321L153.953 129.732Z" fill="white"/>
<path d="M149.695 136.094L157.861 143.26L154.176 147.459C152.128 149.792 150.026 149.599 148.627 148.371C147.588 147.46 147.151 146.312 147.621 144.928L142.928 143.783L145.077 141.333L149.182 142.561L150.564 140.986L147.648 138.427L149.695 136.094ZM154.18 144.16L152.081 142.317L150.545 144.067C149.931 144.767 150.091 145.526 150.674 146.038C151.257 146.55 152.031 146.609 152.645 145.909L154.18 144.16Z" fill="white"/>
<path d="M142.431 144.243L147.09 154.473L142.724 158.094L133.771 151.425L136.228 149.387L137.848 150.661L140.854 148.168L139.926 146.32L142.431 144.243ZM141.806 149.996L139.432 151.964L144.363 155.627L144.434 155.568L141.806 149.996Z" fill="white"/>
<path d="M133.134 151.881L138.758 161.16L133.853 164.132C131.441 165.594 130.061 165.651 129.089 164.047C127.964 162.192 129.322 160.843 131.25 159.838L131.105 159.599C128.76 161.202 127.221 161.863 125.928 159.728C124.851 157.952 125.499 156.509 128.097 154.934L133.134 151.881ZM133.897 159.121L132.041 160.246C131.299 160.696 131.174 161.207 131.632 161.962C132.033 162.625 132.52 162.711 133.263 162.261L135.118 161.136L133.897 159.121ZM131.543 155.237L129.555 156.443C128.627 157.005 128.422 157.564 128.88 158.32C129.386 159.155 130.009 159.285 130.937 158.722L132.925 157.517L131.543 155.237Z" fill="white"/>
<path d="M123.415 157.719L124.805 168.875L119.556 171.027L113.003 161.987L115.957 160.776L117.123 162.476L120.737 160.995L120.403 158.954L123.415 157.719ZM121.1 163.024L118.246 164.194L121.857 169.163L121.943 169.127L121.1 163.024Z" fill="white"/>
<path d="M113.303 165.957L110.436 166.679L110.246 165.924C110.033 165.079 109.67 164.786 109.036 164.945C108.402 165.105 108.222 165.536 108.435 166.381L110.336 173.926L107.318 174.687L105.417 167.141C104.831 164.817 105.757 163.525 108.504 162.833C111.145 162.167 112.528 162.878 113.113 165.202L113.303 165.957Z" fill="white"/>
<path d="M102.889 164.444L104.276 175.205L95.9741 176.275L95.6969 174.123L100.924 173.449L100.666 171.451L96.0544 172.045L95.7771 169.893L100.389 169.299L100.092 166.993L94.8652 167.666L94.5879 165.514L102.889 164.444Z" fill="white"/>
<path d="M93.0369 165.787L92.6412 176.629L87.0649 176.426L86.1515 166.605L86.0585 166.602L84.4936 176.332L78.9174 176.128L79.313 165.286L82.1631 165.39L81.8104 175.055L81.9034 175.059L83.6502 165.444L88.6998 165.628L89.7423 175.314L89.8352 175.317L90.1868 165.683L93.0369 165.787Z" fill="white"/>
<path d="M76.9142 170.334C76.0682 174.131 74.0282 175.376 70.1098 174.503C66.1913 173.63 64.8727 171.637 65.7187 167.839C66.5647 164.042 68.6047 162.797 72.5232 163.67C76.4416 164.543 77.7603 166.536 76.9142 170.334ZM73.8884 169.66C74.3906 167.405 73.7289 166.242 72.0344 165.864C70.34 165.487 69.2468 166.259 68.7445 168.514C68.2423 170.768 68.9041 171.932 70.5985 172.309C72.293 172.687 73.3862 171.914 73.8884 169.66Z" fill="white"/>
<path d="M64.5927 165.501L61.9475 164.477C62.2888 163.595 61.7096 162.773 60.7845 162.414C59.9606 162.096 59.1203 162.119 58.8518 162.813C58.0908 164.779 63.9973 165.536 63.0494 169.058C62.4223 171.409 59.9603 171.586 57.6042 170.674C55.1035 169.706 53.7992 168.137 54.6655 165.813L57.2674 166.82C56.8991 167.858 57.8303 168.501 58.3651 168.708C59.1601 169.016 59.9281 168.964 60.1911 168.284C60.9016 166.449 54.5602 165.656 56.0317 161.855C56.9045 159.6 59.014 159.302 61.6158 160.31C64.6514 161.485 65.432 163.332 64.5927 165.501Z" fill="white"/>
<path d="M54.063 150.506C32.1245 137.921 18.3347 114.508 18.132 89.2286C17.9292 63.9495 31.3435 40.5364 53.0801 27.9516C74.8379 15.3546 101.977 15.3546 123.937 27.9516C145.875 40.5364 159.665 63.9495 159.868 89.2286C160.07 114.508 146.656 137.921 124.92 150.506C103.162 163.103 76.0228 163.103 54.063 150.506Z" fill="#FFE900" stroke="white" stroke-width="6"/>
<ellipse cx="3.92776" cy="14.8291" rx="3.92776" ry="14.8291" transform="matrix(-0.994272 0.106879 0.11191 0.993719 110.368 55.6814)" fill="black"/>
<path d="M118.208 97.229C122.886 138.678 69.08 144.136 62.7537 103.19M65.9602 96.5657C68.5654 98.6405 57.8104 108.431 55.1179 105.581M114.385 91.3602C112.681 94.5187 124.6 102.079 126.194 97.9406" stroke="black" stroke-width="2" stroke-linecap="round"/>
<ellipse cx="3.92776" cy="14.8291" rx="3.92776" ry="14.8291" transform="matrix(-0.994272 0.106879 0.11191 0.993719 69.7533 60.0491)" fill="black"/>
</g>
<defs>
<clipPath id="clip0_875_2141">
<rect width="178" height="178" fill="white"/>
</clipPath>
</defs>
</svg>
