<svg width="158" height="157" viewBox="0 0 158 157" fill="none" xmlns="http://www.w3.org/2000/svg">
<path d="M114.92 139.505C93.1618 152.102 66.0228 152.102 44.063 139.505C22.1245 126.921 8.3347 103.507 8.13196 78.2283C7.92922 52.9493 21.3435 29.5361 43.0801 16.9514C64.8379 4.35432 91.9768 4.35432 113.937 16.9514C135.875 29.5361 149.665 52.9493 149.868 78.2283C150.07 103.507 136.656 126.921 114.92 139.505Z" fill="#FFF503" stroke="white" stroke-width="6"/>
<ellipse cx="3.92776" cy="14.8291" rx="3.92776" ry="14.8291" transform="matrix(-0.994272 0.106879 0.11191 0.993719 100.368 44.6812)" fill="black"/>
<path d="M108.209 86.2288C112.886 127.678 59.0801 133.136 52.7538 92.1899M55.9604 85.5654C58.5655 87.6403 47.8105 97.431 45.118 94.5806M104.386 80.36C102.681 83.5184 114.6 91.0786 116.194 86.9403" stroke="black" stroke-width="2" stroke-linecap="round"/>
<ellipse cx="3.92776" cy="14.8291" rx="3.92776" ry="14.8291" transform="matrix(-0.994272 0.106879 0.11191 0.993719 59.7534 49.0488)" fill="black"/>
</svg>
