<svg width="1439" height="304" viewBox="0 0 1439 304" fill="none" xmlns="http://www.w3.org/2000/svg">
<rect width="1685" height="30" transform="translate(-74.9829 549.106) rotate(-19)" fill="#FDBD39"/>
<path d="M598.203 340.578L592.649 335.997L592.29 336.12L589.302 337.149L591.301 342.955L590.923 343.085L586.339 329.772L589.667 328.626C591.129 328.122 592.329 328.083 593.265 328.508C594.213 328.929 594.887 329.719 595.287 330.879C595.656 331.951 595.648 332.912 595.265 333.763C594.881 334.615 594.15 335.297 593.071 335.809L598.676 340.415L598.203 340.578ZM592.166 335.761C593.465 335.314 594.329 334.671 594.759 333.832C595.202 332.988 595.246 332.05 594.89 331.016C594.117 328.772 592.42 328.101 589.797 329.004L586.847 330.02L589.178 336.79L592.166 335.761ZM596.954 326.498L599.07 332.643L604.63 330.729L604.747 331.069L599.188 332.984L601.304 339.13L607.431 337.02L607.548 337.36L601.043 339.6L596.459 326.287L602.964 324.047L603.081 324.388L596.954 326.498ZM613.787 335.36C612.942 335.651 612.153 335.754 611.418 335.668C610.696 335.578 610.081 335.346 609.571 334.972C609.057 334.585 608.668 334.112 608.406 333.554L608.784 333.423C608.999 333.843 609.308 334.23 609.712 334.584C610.129 334.935 610.669 335.172 611.332 335.296C612.008 335.416 612.787 335.324 613.67 335.02C614.376 334.777 614.954 334.429 615.405 333.978C615.852 333.514 616.142 333.005 616.276 332.451C616.409 331.898 616.381 331.344 616.19 330.789C615.942 330.07 615.583 329.559 615.112 329.256C614.637 328.94 614.118 328.766 613.557 328.734C613.009 328.697 612.288 328.713 611.395 328.781C610.459 328.849 609.694 328.859 609.099 328.81C608.504 328.761 607.943 328.566 607.417 328.225C606.899 327.868 606.501 327.286 606.223 326.479C606.024 325.899 605.995 325.302 606.136 324.69C606.286 324.06 606.605 323.492 607.093 322.985C607.594 322.474 608.229 322.086 608.998 321.822C609.78 321.552 610.502 321.459 611.165 321.541C611.828 321.623 612.391 321.824 612.853 322.144C613.324 322.447 613.691 322.815 613.952 323.246L613.574 323.377C613.36 323.041 613.049 322.732 612.641 322.45C612.234 322.167 611.728 321.989 611.124 321.914C610.516 321.828 609.847 321.91 609.116 322.162C608.473 322.383 607.924 322.713 607.468 323.152C607.021 323.574 606.712 324.068 606.54 324.635C606.377 325.185 606.398 325.756 606.602 326.349C606.853 327.08 607.219 327.61 607.699 327.938C608.187 328.249 608.714 328.428 609.279 328.473C609.84 328.505 610.567 328.487 611.461 328.419C612.396 328.351 613.155 328.344 613.737 328.397C614.328 328.433 614.88 328.624 615.394 328.969C615.903 329.301 616.294 329.864 616.568 330.659C616.759 331.213 616.792 331.801 616.667 332.422C616.556 333.039 616.26 333.613 615.78 334.145C615.296 334.664 614.632 335.069 613.787 335.36ZM616.142 319.891L618.258 326.037L623.817 324.122L623.935 324.463L618.375 326.377L620.491 332.523L626.618 330.413L626.735 330.754L620.23 332.994L615.646 319.681L622.151 317.441L622.269 317.781L616.142 319.891ZM635.391 323.67L628.81 325.936L628.674 330.086L628.239 330.236L628.727 315.621L629.106 315.49L638.47 326.713L638.035 326.863L635.391 323.67ZM635.141 323.375L629.125 316.161L628.825 325.55L635.141 323.375ZM647.917 323.46L642.363 318.879L642.003 319.003L639.016 320.031L641.015 325.837L640.636 325.967L636.052 312.654L639.381 311.508C640.843 311.005 642.042 310.965 642.978 311.39C643.927 311.811 644.601 312.602 645 313.761C645.369 314.833 645.362 315.794 644.978 316.646C644.594 317.497 643.863 318.179 642.785 318.691L648.39 323.297L647.917 323.46ZM641.88 318.643C643.178 318.196 644.043 317.553 644.473 316.714C644.916 315.87 644.959 314.932 644.603 313.898C643.831 311.654 642.133 310.983 639.511 311.886L636.561 312.902L638.892 319.672L641.88 318.643ZM647.998 316.008C647.542 314.684 647.403 313.42 647.581 312.217C647.755 311.001 648.215 309.94 648.96 309.035C649.706 308.129 650.672 307.472 651.857 307.064C653.407 306.53 654.811 306.449 656.067 306.82C657.335 307.187 658.422 307.927 659.327 309.04L658.949 309.17C658.159 308.187 657.161 307.522 655.956 307.176C654.751 306.829 653.424 306.905 651.974 307.405C650.89 307.778 649.998 308.381 649.297 309.215C648.593 310.035 648.151 311.026 647.973 312.188C647.803 313.332 647.944 314.56 648.395 315.871C648.842 317.17 649.485 318.217 650.324 319.014C651.175 319.807 652.133 320.316 653.198 320.542C654.271 320.751 655.343 320.671 656.415 320.302C657.864 319.802 658.96 319.052 659.7 318.049C660.437 317.034 660.813 315.896 660.83 314.635L661.209 314.505C661.181 315.939 660.78 317.191 660.006 318.261C659.241 319.314 658.083 320.108 656.532 320.642C655.347 321.05 654.184 321.133 653.043 320.891C651.898 320.637 650.885 320.09 650.004 319.252C649.118 318.4 648.45 317.319 647.998 316.008ZM669.764 301.046L674.348 314.359L673.97 314.489L671.671 307.814L663.37 310.673L665.668 317.348L665.29 317.478L660.706 304.165L661.084 304.035L663.253 310.332L671.554 307.474L669.386 301.177L669.764 301.046Z" fill="black"/>
<path d="M688.129 294.278L690.436 300.275L691.224 293.898L690.893 300.315L694.207 294.81L691.294 300.537L696.561 296.856L691.57 300.903L697.879 299.682L691.673 301.35L697.933 302.8L691.586 301.8L696.714 305.671L691.323 302.176L694.434 307.798L690.93 302.412L691.485 308.813L690.475 302.468L688.378 308.542L690.036 302.334L685.65 307.03L689.69 302.033L683.773 304.539L689.497 301.617L683.072 301.5L689.489 301.159L683.667 298.439L689.668 300.737L685.456 295.884L690.003 300.424L688.129 294.278Z" fill="black"/>
<path d="M709.918 287.22C712.213 286.43 714.158 286.408 715.755 287.156C717.352 287.903 718.516 289.336 719.245 291.454C719.974 293.572 719.94 295.417 719.141 296.989C718.343 298.561 716.797 299.743 714.502 300.533L711.004 301.737L706.42 288.424L709.918 287.22ZM714.385 300.192C716.579 299.437 718.045 298.311 718.785 296.816C719.525 295.32 719.553 293.576 718.867 291.584C718.181 289.592 717.086 288.235 715.582 287.512C714.078 286.789 712.229 286.805 710.035 287.56L706.915 288.634L711.265 301.267L714.385 300.192ZM720.076 283.722L724.66 297.035L724.282 297.165L719.698 283.852L720.076 283.722ZM731.578 294.801C730.733 295.092 729.944 295.194 729.209 295.109C728.487 295.019 727.872 294.787 727.362 294.412C726.848 294.025 726.459 293.553 726.197 292.995L726.575 292.864C726.79 293.284 727.099 293.671 727.503 294.025C727.92 294.375 728.46 294.612 729.123 294.737C729.799 294.856 730.578 294.764 731.461 294.461C732.167 294.218 732.745 293.87 733.196 293.419C733.643 292.955 733.933 292.446 734.067 291.892C734.2 291.339 734.172 290.784 733.981 290.23C733.733 289.511 733.374 289 732.903 288.697C732.428 288.381 731.909 288.207 731.348 288.175C730.8 288.138 730.079 288.154 729.186 288.221C728.25 288.29 727.485 288.299 726.89 288.25C726.295 288.201 725.734 288.007 725.208 287.666C724.69 287.309 724.292 286.726 724.014 285.92C723.815 285.34 723.786 284.743 723.927 284.13C724.077 283.501 724.396 282.933 724.884 282.426C725.385 281.915 726.02 281.527 726.789 281.262C727.571 280.993 728.293 280.9 728.956 280.982C729.619 281.064 730.182 281.265 730.644 281.585C731.115 281.888 731.482 282.256 731.743 282.687L731.365 282.817C731.151 282.482 730.84 282.173 730.432 281.891C730.025 281.608 729.519 281.429 728.915 281.355C728.307 281.269 727.638 281.351 726.907 281.603C726.264 281.824 725.715 282.154 725.259 282.593C724.812 283.015 724.503 283.509 724.331 284.076C724.168 284.626 724.189 285.197 724.393 285.789C724.644 286.521 725.01 287.05 725.49 287.379C725.978 287.69 726.505 287.868 727.07 287.913C727.631 287.946 728.358 287.928 729.252 287.86C730.187 287.792 730.946 287.785 731.528 287.838C732.119 287.874 732.671 288.065 733.185 288.41C733.694 288.742 734.085 289.305 734.359 290.099C734.55 290.654 734.583 291.242 734.459 291.863C734.347 292.48 734.051 293.054 733.571 293.586C733.087 294.105 732.423 294.51 731.578 294.801ZM733.933 279.332L736.049 285.477L741.608 283.563L741.726 283.904L736.166 285.818L738.282 291.964L744.409 289.854L744.526 290.194L738.021 292.434L733.437 279.121L739.942 276.882L740.06 277.222L733.933 279.332ZM756.09 286.213L755.712 286.343L743.105 276.575L747.448 289.188L747.07 289.319L742.493 276.025L742.871 275.894L755.471 285.643L751.135 273.049L751.513 272.919L756.09 286.213ZM744.91 274.261C744.826 273.853 744.842 273.509 744.957 273.23C745.081 272.934 745.3 272.731 745.615 272.623C745.83 272.549 746.028 272.53 746.209 272.566C746.387 272.59 746.598 272.651 746.843 272.75C747.072 272.84 747.269 272.899 747.433 272.927C747.611 272.951 747.794 272.93 747.983 272.865C748.197 272.791 748.354 272.653 748.453 272.449C748.548 272.233 748.567 271.98 748.509 271.69L748.85 271.572C748.941 271.921 748.915 272.255 748.771 272.573C748.639 272.886 748.415 273.097 748.1 273.205C747.873 273.283 747.663 273.307 747.468 273.275C747.274 273.243 747.048 273.18 746.79 273.085C746.549 272.999 746.354 272.946 746.206 272.927C746.054 272.894 745.896 272.907 745.732 272.963C745.279 273.119 745.118 273.513 745.251 274.144L744.91 274.261ZM765.426 278.895L758.845 281.161L758.709 285.311L758.274 285.461L758.762 270.846L759.14 270.715L768.504 281.938L768.069 282.088L765.426 278.895ZM765.176 278.6L759.16 271.386L758.86 280.775L765.176 278.6ZM769.586 266.675C771.88 265.885 773.826 265.863 775.423 266.611C777.02 267.358 778.183 268.791 778.912 270.909C779.642 273.027 779.607 274.872 778.809 276.444C778.01 278.016 776.464 279.197 774.17 279.987L770.671 281.192L766.087 267.879L769.586 266.675ZM774.052 279.647C776.246 278.892 777.713 277.766 778.453 276.27C779.193 274.775 779.22 273.031 778.534 271.039C777.848 269.047 776.753 267.69 775.249 266.967C773.745 266.244 771.896 266.26 769.703 267.015L766.583 268.089L770.932 280.721L774.052 279.647ZM789.882 274.746C788.659 275.167 787.465 275.261 786.299 275.028C785.141 274.778 784.113 274.23 783.215 273.383C782.317 272.536 781.642 271.456 781.191 270.145C780.739 268.834 780.607 267.568 780.793 266.348C780.979 265.128 781.453 264.069 782.216 263.172C782.987 262.257 783.984 261.59 785.207 261.169C786.43 260.748 787.62 260.662 788.778 260.912C789.944 261.145 790.976 261.685 791.874 262.532C792.772 263.379 793.447 264.459 793.899 265.77C794.35 267.081 794.483 268.347 794.297 269.567C794.11 270.787 793.632 271.855 792.861 272.769C792.098 273.666 791.105 274.325 789.882 274.746ZM789.765 274.406C790.874 274.024 791.794 273.418 792.524 272.589C793.249 271.747 793.703 270.751 793.886 269.603C794.077 268.437 793.949 267.205 793.501 265.906C793.054 264.608 792.399 263.564 791.535 262.776C790.68 261.971 789.709 261.466 788.623 261.262C787.533 261.045 786.434 261.127 785.324 261.509C784.215 261.891 783.298 262.503 782.572 263.345C781.842 264.175 781.382 265.172 781.191 266.338C781.009 267.487 781.141 268.71 781.588 270.009C782.035 271.307 782.686 272.359 783.542 273.164C784.406 273.953 785.382 274.456 786.472 274.672C787.558 274.877 788.656 274.788 789.765 274.406ZM806.206 268.956L800.652 264.375L800.293 264.499L797.305 265.527L799.304 271.333L798.926 271.463L794.342 258.15L797.67 257.004C799.133 256.501 800.332 256.461 801.268 256.887C802.217 257.307 802.891 258.098 803.29 259.257C803.659 260.329 803.651 261.29 803.268 262.142C802.884 262.993 802.153 263.675 801.074 264.187L806.679 268.794L806.206 268.956ZM800.169 264.139C801.468 263.692 802.332 263.049 802.762 262.21C803.205 261.367 803.249 260.428 802.893 259.394C802.12 257.15 800.423 256.48 797.8 257.382L794.85 258.398L797.181 265.168L800.169 264.139Z" fill="black"/>
<path d="M818.006 252.202L819.408 254.425L820.39 251.987L820.598 254.607L822.6 252.905L821.567 255.321L824.131 254.744L822.093 256.404L824.632 257.084L822.056 257.607L823.988 259.389L821.464 258.655L822.346 261.13L820.453 259.308L820.083 261.91L819.254 259.416L817.718 261.548L818.142 258.955L815.791 260.128L817.372 258.029L814.745 257.976L817.12 256.852L814.819 255.584L817.444 255.693L815.996 253.5L818.27 254.817L818.006 252.202Z" fill="black"/>
<path d="M847.945 239.693L848.955 254.237L848.577 254.367L840.255 243.039L840.672 257.089L840.332 257.206L832.174 245.124L832.59 244.981L840.267 256.404L839.832 242.487L840.248 242.344L848.531 253.621L847.529 239.837L847.945 239.693ZM850.715 239.12L852.831 245.266L858.391 243.352L858.508 243.692L852.949 245.607L855.065 251.752L861.192 249.643L861.309 249.983L854.804 252.223L850.22 238.91L856.725 236.67L856.842 237.011L850.715 239.12ZM866.727 240.376C867.573 240.254 868.369 240.417 869.116 240.865C869.858 241.3 870.375 241.94 870.666 242.785C871.026 243.831 870.962 244.812 870.473 245.728C869.98 246.631 869.047 247.319 867.673 247.792L863.853 249.107L859.269 235.794L863.089 234.479C864.412 234.023 865.5 233.987 866.351 234.371C867.198 234.742 867.789 235.413 868.123 236.384C868.427 237.266 868.43 238.055 868.134 238.749C867.85 239.439 867.381 239.982 866.727 240.376ZM861.783 241.867L865.338 240.643C866.447 240.261 867.203 239.711 867.605 238.995C868.015 238.261 868.062 237.434 867.745 236.514C867.441 235.632 866.91 235.032 866.152 234.714C865.394 234.397 864.417 234.445 863.219 234.857L859.777 236.042L861.783 241.867ZM867.542 247.414C868.753 246.997 869.594 246.39 870.067 245.593C870.552 244.791 870.626 243.898 870.287 242.915C869.953 241.944 869.342 241.295 868.453 240.966C867.56 240.625 866.514 240.66 865.317 241.073L861.913 242.245L864.101 248.599L867.542 247.414Z" fill="black"/>
<path d="M884.797 226.56L887.104 232.557L887.892 226.18L887.561 232.597L890.875 227.092L887.962 232.82L893.228 229.138L888.238 233.186L894.546 231.964L888.341 233.632L894.601 235.083L888.254 234.082L893.382 237.953L887.991 234.458L891.102 240.08L887.598 234.694L888.153 241.096L887.143 234.75L885.046 240.824L886.704 234.616L882.318 239.312L886.358 234.315L880.441 236.821L886.164 233.9L879.74 233.782L886.156 233.441L880.335 230.721L886.336 233.019L882.124 228.166L886.671 232.707L884.797 226.56Z" fill="black"/>
<path d="M915.075 217.002L919.528 229.937L919.15 230.067L915.015 218.059L913.799 231.91L913.42 232.04L903.915 221.881L908.05 233.889L907.672 234.019L903.218 221.085L903.596 220.955L913.44 231.483L914.696 217.132L915.075 217.002ZM928.674 226.957C927.451 227.378 926.257 227.472 925.091 227.239C923.933 226.989 922.905 226.44 922.007 225.593C921.109 224.746 920.434 223.667 919.983 222.356C919.531 221.045 919.398 219.779 919.585 218.559C919.771 217.338 920.245 216.279 921.008 215.382C921.779 214.468 922.776 213.8 923.999 213.379C925.222 212.958 926.412 212.873 927.57 213.123C928.736 213.356 929.768 213.896 930.666 214.743C931.564 215.59 932.239 216.669 932.69 217.98C933.142 219.291 933.274 220.557 933.088 221.778C932.902 222.998 932.424 224.065 931.653 224.98C930.89 225.877 929.897 226.536 928.674 226.957ZM928.557 226.617C929.666 226.235 930.586 225.629 931.316 224.799C932.041 223.957 932.495 222.962 932.678 221.813C932.868 220.648 932.74 219.416 932.293 218.117C931.846 216.819 931.191 215.775 930.327 214.987C929.471 214.181 928.501 213.676 927.415 213.472C926.325 213.255 925.225 213.338 924.116 213.72C923.007 214.102 922.089 214.714 921.364 215.556C920.634 216.385 920.174 217.383 919.983 218.548C919.8 219.697 919.933 220.921 920.38 222.219C920.827 223.518 921.478 224.57 922.334 225.375C923.197 226.163 924.174 226.666 925.264 226.883C926.35 227.087 927.447 226.999 928.557 226.617ZM942.665 207.079L942.143 222.15L941.765 222.28L932.094 210.719L932.529 210.569L941.758 221.648L942.248 207.222L942.665 207.079ZM945.22 206.199L949.804 219.512L949.426 219.642L944.842 206.329L945.22 206.199ZM953.288 217.932L958.394 216.174L958.511 216.514L953.027 218.402L948.443 205.089L948.821 204.959L953.288 217.932Z" fill="black"/>
<path d="M969.289 200.11L970.691 202.333L971.673 199.895L971.881 202.515L973.883 200.813L972.85 203.229L975.414 202.652L973.376 204.312L975.915 204.992L973.339 205.515L975.271 207.297L972.747 206.563L973.629 209.039L971.736 207.216L971.366 209.818L970.537 207.324L969.001 209.456L969.425 206.863L967.074 208.037L968.655 205.938L966.028 205.884L968.403 204.76L966.102 203.492L968.727 203.601L967.279 201.408L969.553 202.725L969.289 200.11Z" fill="black"/>
<path d="M996.267 203.514L990.713 198.932L990.353 199.056L987.365 200.085L989.364 205.89L988.986 206.02L984.402 192.708L987.73 191.562C989.193 191.058 990.392 191.019 991.328 191.444C992.277 191.865 992.951 192.655 993.35 193.815C993.719 194.886 993.712 195.848 993.328 196.699C992.944 197.55 992.213 198.232 991.134 198.745L996.739 203.351L996.267 203.514ZM990.23 198.697C991.528 198.249 992.392 197.606 992.823 196.767C993.266 195.924 993.309 194.985 992.953 193.951C992.18 191.707 990.483 191.037 987.861 191.94L984.911 192.955L987.242 199.725L990.23 198.697ZM995.018 189.433L997.134 195.579L1002.69 193.665L1002.81 194.005L997.251 195.919L999.367 202.065L1005.49 199.956L1005.61 200.296L999.106 202.536L994.522 189.223L1001.03 186.983L1001.14 187.323L995.018 189.433ZM1011.85 198.296C1011.01 198.587 1010.22 198.689 1009.48 198.604C1008.76 198.514 1008.14 198.282 1007.63 197.907C1007.12 197.52 1006.73 197.047 1006.47 196.489L1006.85 196.359C1007.06 196.779 1007.37 197.166 1007.78 197.52C1008.19 197.87 1008.73 198.107 1009.4 198.231C1010.07 198.351 1010.85 198.259 1011.73 197.955C1012.44 197.712 1013.02 197.365 1013.47 196.914C1013.92 196.45 1014.21 195.941 1014.34 195.387C1014.47 194.833 1014.44 194.279 1014.25 193.724C1014.01 193.006 1013.65 192.495 1013.18 192.192C1012.7 191.876 1012.18 191.702 1011.62 191.67C1011.07 191.633 1010.35 191.648 1009.46 191.716C1008.52 191.784 1007.76 191.794 1007.16 191.745C1006.57 191.696 1006.01 191.501 1005.48 191.161C1004.96 190.803 1004.56 190.221 1004.29 189.414C1004.09 188.834 1004.06 188.238 1004.2 187.625C1004.35 186.995 1004.67 186.427 1005.16 185.921C1005.66 185.41 1006.29 185.022 1007.06 184.757C1007.84 184.488 1008.57 184.394 1009.23 184.476C1009.89 184.558 1010.45 184.76 1010.92 185.08C1011.39 185.383 1011.75 185.75 1012.02 186.182L1011.64 186.312C1011.42 185.977 1011.11 185.668 1010.7 185.385C1010.3 185.103 1009.79 184.924 1009.19 184.85C1008.58 184.763 1007.91 184.846 1007.18 185.098C1006.54 185.319 1005.99 185.649 1005.53 186.088C1005.08 186.51 1004.78 187.004 1004.6 187.571C1004.44 188.12 1004.46 188.692 1004.67 189.284C1004.92 190.015 1005.28 190.545 1005.76 190.873C1006.25 191.185 1006.78 191.363 1007.34 191.408C1007.9 191.441 1008.63 191.423 1009.52 191.355C1010.46 191.287 1011.22 191.279 1011.8 191.333C1012.39 191.369 1012.94 191.559 1013.46 191.904C1013.97 192.237 1014.36 192.8 1014.63 193.594C1014.82 194.149 1014.86 194.737 1014.73 195.358C1014.62 195.975 1014.32 196.549 1013.84 197.081C1013.36 197.6 1012.7 198.005 1011.85 198.296ZM1014.2 182.826L1016.32 188.972L1021.88 187.058L1022 187.398L1016.44 189.313L1018.55 195.458L1024.68 193.349L1024.8 193.689L1018.29 195.929L1013.71 182.616L1020.21 180.376L1020.33 180.717L1014.2 182.826ZM1033.45 186.605L1026.87 188.871L1026.74 193.022L1026.3 193.171L1026.79 178.556L1027.17 178.426L1036.53 189.649L1036.1 189.799L1033.45 186.605ZM1033.2 186.31L1027.19 179.096L1026.89 188.485L1033.2 186.31ZM1045.98 186.396L1040.43 181.814L1040.07 181.938L1037.08 182.967L1039.08 188.772L1038.7 188.903L1034.12 175.59L1037.44 174.444C1038.91 173.94 1040.11 173.901 1041.04 174.326C1041.99 174.747 1042.66 175.537 1043.06 176.697C1043.43 177.768 1043.43 178.73 1043.04 179.581C1042.66 180.433 1041.93 181.114 1040.85 181.627L1046.45 186.233L1045.98 186.396ZM1039.94 181.579C1041.24 181.132 1042.11 180.489 1042.54 179.649C1042.98 178.806 1043.02 177.867 1042.67 176.834C1041.89 174.59 1040.2 173.919 1037.57 174.822L1034.62 175.838L1036.96 182.608L1039.94 181.579ZM1046.06 178.943C1045.61 177.62 1045.47 176.356 1045.64 175.152C1045.82 173.936 1046.28 172.876 1047.02 171.97C1047.77 171.065 1048.74 170.408 1049.92 170C1051.47 169.466 1052.87 169.385 1054.13 169.756C1055.4 170.123 1056.49 170.863 1057.39 171.975L1057.01 172.106C1056.22 171.123 1055.22 170.458 1054.02 170.111C1052.81 169.765 1051.49 169.841 1050.04 170.34C1048.95 170.714 1048.06 171.317 1047.36 172.15C1046.66 172.971 1046.21 173.962 1046.04 175.123C1045.87 176.268 1046.01 177.495 1046.46 178.807C1046.91 180.105 1047.55 181.153 1048.39 181.95C1049.24 182.743 1050.2 183.252 1051.26 183.478C1052.33 183.686 1053.41 183.606 1054.48 183.237C1055.93 182.738 1057.02 181.987 1057.76 180.985C1058.5 179.97 1058.88 178.832 1058.89 177.571L1059.27 177.441C1059.24 178.874 1058.84 180.126 1058.07 181.197C1057.3 182.25 1056.15 183.044 1054.6 183.577C1053.41 183.986 1052.25 184.069 1051.11 183.827C1049.96 183.573 1048.95 183.026 1048.07 182.187C1047.18 181.336 1046.51 180.254 1046.06 178.943ZM1067.83 163.982L1072.41 177.295L1072.03 177.425L1069.73 170.75L1061.43 173.608L1063.73 180.283L1063.35 180.414L1058.77 167.101L1059.15 166.971L1061.32 173.268L1069.62 170.409L1067.45 164.112L1067.83 163.982Z" fill="black"/>
<path d="M1086.19 157.214L1088.5 163.211L1089.29 156.833L1088.96 163.251L1092.27 157.745L1089.36 163.473L1094.62 159.791L1089.63 163.839L1095.94 162.618L1089.74 164.286L1096 165.736L1089.65 164.736L1094.78 168.607L1089.39 165.111L1092.5 170.734L1088.99 165.347L1089.55 171.749L1088.54 165.403L1086.44 171.477L1088.1 165.269L1083.71 169.965L1087.75 164.968L1081.84 167.475L1087.56 164.553L1081.14 164.436L1087.55 164.095L1081.73 161.374L1087.73 163.673L1083.52 158.82L1088.07 163.36L1086.19 157.214Z" fill="black"/>
<path d="M1105.38 147.208L1117.81 142.928L1123.67 159.962L1119.99 161.23L1115.23 147.419L1106.49 150.431L1105.38 147.208Z" fill="black"/>
<path fill-rule="evenodd" clip-rule="evenodd" d="M1117.47 154.36L1117.47 154.36L1117.45 154.278C1116.71 152.133 1115.59 150.614 1114.1 149.801C1112.62 148.997 1110.93 148.921 1109.02 149.563L1115.23 147.425L1121.1 164.459L1108.67 168.739L1102.8 151.705L1106.49 150.437L1108.86 157.328L1108.86 157.328L1111.23 164.218L1113.71 163.365C1115.64 162.701 1116.95 161.592 1117.62 160.034C1118.29 158.476 1118.24 156.588 1117.5 154.444L1117.47 154.36Z" fill="black"/>
<path d="M1132.52 158.046C1131.02 158.564 1129.74 158.65 1128.68 158.305C1127.63 157.956 1126.9 157.23 1126.47 156.128L1128.7 155.359C1128.87 155.763 1129.22 156.069 1129.74 156.276C1130.25 156.483 1130.97 156.43 1131.88 156.116C1132.65 155.851 1133.2 155.49 1133.54 155.035C1133.88 154.58 1133.97 154.125 1133.81 153.67C1133.67 153.257 1133.39 152.99 1132.98 152.869C1132.58 152.73 1131.98 152.752 1131.18 152.935L1130.04 153.209C1128.86 153.479 1127.83 153.455 1126.97 153.136C1126.11 152.813 1125.53 152.182 1125.21 151.245C1124.95 150.501 1124.92 149.809 1125.12 149.171C1125.31 148.533 1125.69 147.965 1126.24 147.466C1126.81 146.963 1127.52 146.564 1128.37 146.269C1129.69 145.814 1130.86 145.742 1131.88 146.055C1132.89 146.354 1133.61 147.064 1134.03 148.184L1131.81 148.946C1131.64 148.528 1131.32 148.239 1130.84 148.077C1130.37 147.916 1129.77 147.961 1129.04 148.213C1128.35 148.45 1127.87 148.771 1127.59 149.175C1127.33 149.574 1127.27 149.987 1127.42 150.414C1127.55 150.8 1127.79 151.056 1128.14 151.181C1128.49 151.307 1128.99 151.297 1129.64 151.153L1130.77 150.879C1132.07 150.585 1133.18 150.594 1134.11 150.908C1135.04 151.203 1135.68 151.847 1136.02 152.839C1136.27 153.556 1136.28 154.252 1136.07 154.927C1135.86 155.602 1135.44 156.215 1134.83 156.765C1134.23 157.296 1133.46 157.723 1132.52 158.046Z" fill="black"/>
<path d="M1146.5 152.86L1145.36 149.532L1144.97 149.667L1143.67 145.904C1143.43 145.215 1143.07 144.753 1142.59 144.518C1142.11 144.283 1141.52 144.287 1140.81 144.529C1140.43 144.661 1140 144.816 1139.54 144.991C1139.08 145.166 1138.62 145.345 1138.18 145.53C1137.74 145.695 1137.35 145.851 1137.02 145.997L1136.3 143.909C1136.59 143.777 1136.92 143.643 1137.27 143.506C1137.63 143.35 1138.01 143.199 1138.39 143.052C1138.78 142.901 1139.16 142.763 1139.52 142.64C1140.65 142.251 1141.63 142.073 1142.48 142.106C1143.32 142.139 1144.03 142.411 1144.61 142.921C1145.19 143.413 1145.67 144.183 1146.03 145.231L1148.43 152.198L1146.5 152.86ZM1142.99 154.396C1142.17 154.676 1141.42 154.782 1140.71 154.715C1140.01 154.635 1139.4 154.383 1138.88 153.959C1138.36 153.522 1137.97 152.924 1137.71 152.166C1137.43 151.366 1137.39 150.641 1137.58 149.989C1137.79 149.332 1138.2 148.752 1138.81 148.248C1139.42 147.744 1140.22 147.324 1141.2 146.987L1143.99 146.025L1144.54 147.617L1141.68 148.6C1140.95 148.851 1140.46 149.223 1140.19 149.714C1139.93 150.192 1139.89 150.713 1140.09 151.278C1140.28 151.843 1140.63 152.231 1141.13 152.443C1141.63 152.641 1142.25 152.614 1142.98 152.363C1143.41 152.216 1143.79 152 1144.12 151.715C1144.45 151.417 1144.68 151.039 1144.8 150.581C1144.93 150.119 1144.89 149.545 1144.69 148.861L1145.59 149.453C1145.79 150.263 1145.82 150.991 1145.69 151.637C1145.57 152.266 1145.28 152.819 1144.83 153.299C1144.39 153.759 1143.77 154.125 1142.99 154.396Z" fill="black"/>
<path d="M1152.34 150.852L1148.5 139.709L1150.92 138.876L1154.76 150.019L1152.34 150.852ZM1147.51 142.132L1146.87 140.271L1150.92 138.876L1151.56 140.736L1147.51 142.132ZM1148.75 137.887C1148.25 138.058 1147.84 138.056 1147.5 137.879C1147.17 137.698 1146.94 137.401 1146.8 136.987C1146.66 136.587 1146.66 136.216 1146.81 135.874C1146.96 135.513 1147.29 135.247 1147.78 135.076C1148.29 134.9 1148.71 134.91 1149.04 135.105C1149.38 135.281 1149.62 135.569 1149.76 135.969C1149.9 136.382 1149.89 136.763 1149.73 137.11C1149.59 137.453 1149.26 137.712 1148.75 137.887Z" fill="black"/>
<path d="M1158.36 148.778L1154.52 137.634L1156.45 136.972L1158.09 141.748L1157.86 141.826C1157.48 140.724 1157.31 139.743 1157.34 138.886C1157.38 138.023 1157.64 137.295 1158.11 136.7C1158.58 136.091 1159.26 135.633 1160.16 135.324L1160.26 135.289C1161.64 134.814 1162.81 134.895 1163.79 135.53C1164.76 136.166 1165.54 137.318 1166.11 138.986L1168.3 145.353L1165.89 146.186L1163.58 139.488C1163.31 138.716 1162.88 138.172 1162.28 137.855C1161.67 137.524 1160.98 137.492 1160.21 137.758C1159.42 138.028 1158.87 138.495 1158.56 139.157C1158.25 139.806 1158.23 140.536 1158.51 141.35L1160.78 147.945L1158.36 148.778Z" fill="black"/>
<path d="M1178.25 128.16L1179.65 130.383L1180.63 127.945L1180.84 130.565L1182.84 128.863L1181.81 131.279L1184.37 130.702L1182.34 132.362L1184.87 133.042L1182.3 133.565L1184.23 135.347L1181.71 134.613L1182.59 137.088L1180.7 135.266L1180.33 137.868L1179.5 135.374L1177.96 137.506L1178.39 134.913L1176.03 136.086L1177.62 133.987L1174.99 133.934L1177.36 132.81L1175.06 131.542L1177.69 131.651L1176.24 129.458L1178.51 130.775L1178.25 128.16Z" fill="black"/>
<path d="M1199.87 118.516L1199.98 118.857L1193.86 120.966L1195.97 127.112L1201.53 125.198L1201.65 125.538L1196.09 127.453L1198.32 133.939L1197.95 134.069L1193.36 120.756L1199.87 118.516ZM1214.09 128.51L1208.54 123.929L1208.18 124.053L1205.19 125.081L1207.19 130.887L1206.81 131.017L1202.23 117.704L1205.55 116.558C1207.02 116.055 1208.22 116.015 1209.15 116.44C1210.1 116.861 1210.77 117.651 1211.17 118.811C1211.54 119.883 1211.54 120.844 1211.15 121.696C1210.77 122.547 1210.04 123.229 1208.96 123.741L1214.56 128.347L1214.09 128.51ZM1208.05 123.693C1209.35 123.246 1210.22 122.603 1210.65 121.764C1211.09 120.92 1211.13 119.982 1210.78 118.948C1210 116.704 1208.31 116.033 1205.68 116.936L1202.73 117.952L1205.07 124.722L1208.05 123.693ZM1222.86 125.659C1221.64 126.08 1220.45 126.174 1219.28 125.941C1218.12 125.691 1217.09 125.142 1216.2 124.295C1215.3 123.448 1214.62 122.369 1214.17 121.058C1213.72 119.747 1213.59 118.481 1213.77 117.26C1213.96 116.04 1214.43 114.981 1215.2 114.084C1215.97 113.17 1216.97 112.502 1218.19 112.081C1219.41 111.66 1220.6 111.574 1221.76 111.824C1222.93 112.058 1223.96 112.598 1224.86 113.445C1225.75 114.292 1226.43 115.371 1226.88 116.682C1227.33 117.993 1227.46 119.259 1227.28 120.479C1227.09 121.7 1226.61 122.767 1225.84 123.681C1225.08 124.578 1224.09 125.238 1222.86 125.659ZM1222.75 125.318C1223.86 124.936 1224.78 124.331 1225.51 123.501C1226.23 122.659 1226.68 121.664 1226.87 120.515C1227.06 119.349 1226.93 118.117 1226.48 116.819C1226.04 115.52 1225.38 114.477 1224.52 113.688C1223.66 112.883 1222.69 112.378 1221.6 112.174C1220.51 111.957 1219.42 112.039 1218.31 112.421C1217.2 112.803 1216.28 113.415 1215.55 114.257C1214.82 115.087 1214.36 116.084 1214.17 117.25C1213.99 118.399 1214.12 119.622 1214.57 120.921C1215.02 122.219 1215.67 123.271 1216.52 124.077C1217.39 124.865 1218.36 125.368 1219.45 125.585C1220.54 125.789 1221.64 125.7 1222.75 125.318ZM1240.93 119.27L1240.55 119.4L1227.94 109.632L1232.29 122.245L1231.91 122.375L1227.33 109.081L1227.71 108.951L1240.31 118.7L1235.97 106.106L1236.35 105.976L1240.93 119.27ZM1246.47 102.47L1246.59 102.81L1242.71 104.145L1247.18 117.118L1246.8 117.248L1242.33 104.276L1238.46 105.61L1238.34 105.27L1246.47 102.47ZM1248.95 101.998L1251.06 108.144L1256.62 106.23L1256.74 106.57L1251.18 108.485L1253.29 114.63L1259.42 112.521L1259.54 112.861L1253.03 115.101L1248.45 101.788L1254.95 99.5483L1255.07 99.8886L1248.95 101.998ZM1271.1 108.879L1270.72 109.01L1258.12 99.2418L1262.46 111.855L1262.08 111.985L1257.51 98.6913L1257.88 98.5611L1270.48 108.31L1266.15 95.7156L1266.53 95.5854L1271.1 108.879ZM1273.24 93.2519C1275.54 92.4619 1277.48 92.4406 1279.08 93.188C1280.67 93.9355 1281.84 95.3682 1282.57 97.4861C1283.3 99.6041 1283.26 101.449 1282.46 103.021C1281.67 104.594 1280.12 105.775 1277.82 106.565L1274.33 107.769L1269.74 94.4565L1273.24 93.2519ZM1277.71 106.224C1279.9 105.469 1281.37 104.344 1282.11 102.848C1282.85 101.352 1282.88 99.6083 1282.19 97.6164C1281.5 95.6245 1280.41 94.267 1278.9 93.5439C1277.4 92.8209 1275.55 92.837 1273.36 93.5923L1270.24 94.6667L1274.59 107.299L1277.71 106.224Z" fill="black"/>
<path d="M1297.99 84.2868L1300.3 90.2839L1301.08 83.9067L1300.75 90.3238L1304.07 84.8185L1301.15 90.5461L1306.42 86.8645L1301.43 90.9122L1307.74 89.691L1301.53 91.3589L1307.79 92.8092L1301.45 91.8089L1306.57 95.68L1301.18 92.1845L1304.29 97.8069L1300.79 92.4206L1301.34 98.8222L1300.33 92.4764L1298.24 98.5504L1299.9 92.3424L1295.51 97.0385L1299.55 92.0416L1293.63 94.5478L1299.36 91.6262L1292.93 91.509L1299.35 91.1678L1293.53 88.4477L1299.53 90.7458L1295.32 85.893L1299.86 90.4331L1297.99 84.2868Z" fill="black"/>
<path d="M1328.27 74.7287L1332.72 87.6634L1332.34 87.7936L1328.21 75.7855L1326.99 89.6363L1326.61 89.7665L1317.11 79.6077L1321.24 91.6158L1320.86 91.746L1316.41 78.8113L1316.79 78.6811L1326.63 89.2098L1327.89 74.8589L1328.27 74.7287ZM1341.87 84.6835C1340.64 85.1046 1339.45 85.1986 1338.28 84.9655C1337.12 84.7155 1336.1 84.1669 1335.2 83.3198C1334.3 82.4727 1333.63 81.3936 1333.17 80.0825C1332.72 78.7714 1332.59 77.5056 1332.78 76.2852C1332.96 75.0647 1333.44 74.0059 1334.2 73.1087C1334.97 72.1945 1335.97 71.5269 1337.19 71.1058C1338.41 70.6848 1339.6 70.5993 1340.76 70.8493C1341.93 71.0823 1342.96 71.6224 1343.86 72.4695C1344.76 73.3166 1345.43 74.3957 1345.88 75.7069C1346.33 77.018 1346.47 78.2837 1346.28 79.5042C1346.09 80.7246 1345.62 81.7919 1344.84 82.7061C1344.08 83.6033 1343.09 84.2624 1341.87 84.6835ZM1341.75 84.3431C1342.86 83.9611 1343.78 83.3554 1344.51 82.526C1345.23 81.6839 1345.69 80.6886 1345.87 79.5398C1346.06 78.3742 1345.93 77.1421 1345.49 75.8436C1345.04 74.5451 1344.38 73.5016 1343.52 72.7132C1342.66 71.9078 1341.69 71.403 1340.61 71.1987C1339.52 70.9817 1338.42 71.0642 1337.31 71.4462C1336.2 71.8282 1335.28 72.4403 1334.56 73.2823C1333.83 74.1117 1333.37 75.1093 1333.17 76.2749C1332.99 77.4236 1333.12 78.6472 1333.57 79.9458C1334.02 81.2443 1334.67 82.2962 1335.53 83.1016C1336.39 83.89 1337.37 84.3927 1338.46 84.6096C1339.54 84.8139 1340.64 84.7251 1341.75 84.3431ZM1355.86 64.8057L1355.33 79.8766L1354.96 80.0069L1345.29 68.4455L1345.72 68.2958L1354.95 79.3744L1355.44 64.9489L1355.86 64.8057ZM1358.41 63.9257L1363 77.2386L1362.62 77.3689L1358.03 64.0559L1358.41 63.9257ZM1366.48 75.6583L1371.59 73.9002L1371.7 74.2406L1366.22 76.1289L1361.63 62.816L1362.01 62.6858L1366.48 75.6583Z" fill="black"/>
<path d="M1382.48 57.838L1383.88 60.0607L1384.86 57.623L1385.07 60.2427L1387.08 58.5403L1386.04 60.9567L1388.61 60.3798L1386.57 62.0394L1389.11 62.7199L1386.53 63.2426L1388.46 65.0248L1385.94 64.2907L1386.82 66.7662L1384.93 64.9436L1384.56 67.5454L1383.73 65.0517L1382.19 67.1837L1382.62 64.5903L1380.27 65.7641L1381.85 63.665L1379.22 63.6117L1381.6 62.4879L1379.29 61.2197L1381.92 61.3286L1380.47 59.136L1382.74 60.4526L1382.48 57.838Z" fill="black"/>
<path d="M1397.88 50.3364L1400.72 58.6002C1401.31 60.2896 1402.09 61.3928 1403.09 61.9101C1404.1 62.423 1405.23 62.4624 1406.49 62.0283C1407.73 61.6029 1408.57 60.882 1409.03 59.8655C1409.48 58.8491 1409.42 57.4962 1408.84 55.8069L1405.99 47.543L1406.37 47.4128L1409.21 55.6766C1409.82 57.4416 1409.88 58.881 1409.39 59.9948C1408.91 61.1042 1407.99 61.8955 1406.61 62.3687C1405.24 62.8419 1404 62.795 1402.9 62.2282C1401.8 61.6487 1400.95 60.4828 1400.35 58.7305L1397.5 50.4666L1397.88 50.3364ZM1415.11 51.8495L1421.35 57.1451L1420.92 57.2948L1414.93 52.2054L1413.47 59.8603L1413.03 60.0101L1414.6 51.9177L1408.45 46.6972L1408.88 46.5474L1414.78 51.5618L1416.33 43.9819L1416.77 43.8322L1415.11 51.8495ZM1425.61 47.4513L1425.72 47.7917L1418.84 50.1619L1418.72 49.8215L1425.61 47.4513ZM1427.63 40.0924L1430.47 48.3563C1431.06 50.0456 1431.84 51.1489 1432.84 51.6661C1433.85 52.179 1434.98 52.2185 1436.24 51.7844C1437.48 51.359 1438.32 50.638 1438.78 49.6216C1439.23 48.6051 1439.17 47.2522 1438.59 45.5629L1435.74 37.2991L1436.12 37.1688L1438.96 45.4327C1439.57 47.1976 1439.63 48.637 1439.14 49.7508C1438.66 50.8603 1437.74 51.6516 1436.36 52.1248C1434.99 52.5979 1433.75 52.5511 1432.65 51.9842C1431.55 51.4048 1430.7 50.2389 1430.1 48.4865L1427.25 40.2227L1427.63 40.0924ZM1439.62 35.9648L1444.2 49.2778L1443.82 49.408L1439.24 36.0951L1439.62 35.9648Z" fill="black"/>
</svg>
