<svg width="1633" height="22" viewBox="0 0 1633 22" fill="none" xmlns="http://www.w3.org/2000/svg">
<rect width="1631.5" height="21.4317" transform="translate(0.963379 0.364258)" fill="#F24E1E"/>
<path d="M8.42229 3.66211L8.65152 10.0837L11.4728 4.31052L9.07033 10.2702L13.9959 6.14363L9.37709 10.6109L15.5552 8.84448L9.51875 11.0469L15.8812 11.9461L9.47083 11.5028L14.9175 14.9121L9.24161 11.8998L12.8307 17.2297L8.87072 12.1693L9.98163 18.4982L8.42229 12.2646L6.86296 18.4982L7.97387 12.1693L4.0139 17.2297L7.60298 11.8998L1.9271 14.9121L7.37375 11.5028L0.963379 11.9461L7.32583 11.0469L1.28937 8.84448L7.4675 10.6109L2.84871 6.14363L7.77426 10.2702L5.37177 4.31052L8.19307 10.0837L8.42229 3.66211Z" fill="black"/>
<path d="M26.2811 3.96973V12.7097C26.2811 14.4964 26.6678 15.7964 27.4411 16.6097C28.2278 17.4231 29.2878 17.8297 30.6211 17.8297C31.9278 17.8297 32.9611 17.4231 33.7211 16.6097C34.4811 15.7964 34.8611 14.4964 34.8611 12.7097V3.96973H35.2611V12.7097C35.2611 14.5764 34.8478 15.9564 34.0211 16.8497C33.2078 17.7431 32.0744 18.1897 30.6211 18.1897C29.1678 18.1897 28.0144 17.7431 27.1611 16.8497C26.3078 15.9431 25.8811 14.5631 25.8811 12.7097V3.96973H26.2811Z" fill="black"/>
<path d="M42.0792 11.0097L46.2592 18.0497H45.7992L41.7992 11.2897L37.9192 18.0497H37.4592L41.5792 10.9097L37.4592 3.96973H37.9192L41.8592 10.6297L45.7992 3.96973H46.2592L42.0792 11.0097Z" fill="black"/>
<path d="M53.4392 10.2697V10.6297H46.1592V10.2697H53.4392Z" fill="black"/>
<path d="M57.7459 3.96973V12.7097C57.7459 14.4964 58.1326 15.7964 58.9059 16.6097C59.6926 17.4231 60.7526 17.8297 62.0859 17.8297C63.3926 17.8297 64.4259 17.4231 65.1859 16.6097C65.9459 15.7964 66.3259 14.4964 66.3259 12.7097V3.96973H66.7259V12.7097C66.7259 14.5764 66.3126 15.9564 65.4859 16.8497C64.6726 17.7431 63.5393 18.1897 62.0859 18.1897C60.6326 18.1897 59.4793 17.7431 58.6259 16.8497C57.7726 15.9431 57.3459 14.5631 57.3459 12.7097V3.96973H57.7459Z" fill="black"/>
<path d="M70.4241 3.96973V18.0497H70.0241V3.96973H70.4241Z" fill="black"/>
<path d="M85.3876 6.15234L85.9895 8.71042L87.7112 6.72506L87.0554 9.26984L89.5025 8.31202L87.7392 10.2605L90.3512 10.5497L87.8843 11.4555L90.0627 12.9254L87.4574 12.581L88.7032 14.8949L86.5564 13.3793L86.5842 16.0071L85.3876 13.6673L84.191 16.0071L84.2188 13.3793L82.072 14.8949L83.3178 12.581L80.7125 12.9254L82.891 11.4555L80.4241 10.5497L83.0361 10.2605L81.2727 8.31202L83.7199 9.26984L83.064 6.72506L84.7857 8.71042L85.3876 6.15234Z" fill="black"/>
<path d="M107.231 4.02039V4.38039H100.751V10.8804H106.631V11.2404H100.751V18.1004H100.351V4.02039H107.231Z" fill="black"/>
<path d="M117.426 18.1004L113.666 11.9604H113.286H110.126V18.1004H109.726V4.02039H113.246C114.793 4.02039 115.94 4.37372 116.686 5.08039C117.446 5.78706 117.826 6.75372 117.826 7.98039C117.826 9.11372 117.506 10.0204 116.866 10.7004C116.226 11.3804 115.313 11.7871 114.126 11.9204L117.926 18.1004H117.426ZM113.286 11.5804C114.66 11.5804 115.686 11.2537 116.366 10.6004C117.06 9.94706 117.406 9.07372 117.406 7.98039C117.406 5.60706 116.02 4.42039 113.246 4.42039H110.126V11.5804H113.286Z" fill="black"/>
<path d="M126.649 18.2604C125.356 18.2604 124.196 17.9604 123.169 17.3604C122.156 16.7471 121.363 15.8937 120.789 14.8004C120.216 13.7071 119.929 12.4671 119.929 11.0804C119.929 9.69372 120.216 8.45372 120.789 7.36039C121.363 6.26706 122.156 5.42039 123.169 4.82039C124.196 4.20706 125.356 3.90039 126.649 3.90039C127.943 3.90039 129.096 4.20706 130.109 4.82039C131.136 5.42039 131.936 6.26706 132.509 7.36039C133.083 8.45372 133.369 9.69372 133.369 11.0804C133.369 12.4671 133.083 13.7071 132.509 14.8004C131.936 15.8937 131.136 16.7471 130.109 17.3604C129.096 17.9604 127.943 18.2604 126.649 18.2604ZM126.649 17.9004C127.823 17.9004 128.889 17.6271 129.849 17.0804C130.809 16.5204 131.563 15.7271 132.109 14.7004C132.669 13.6604 132.949 12.4537 132.949 11.0804C132.949 9.70706 132.669 8.50706 132.109 7.48039C131.563 6.44039 130.809 5.64706 129.849 5.10039C128.889 4.54039 127.823 4.26039 126.649 4.26039C125.476 4.26039 124.409 4.54039 123.449 5.10039C122.489 5.64706 121.729 6.44039 121.169 7.48039C120.623 8.50706 120.349 9.70706 120.349 11.0804C120.349 12.4537 120.623 13.6604 121.169 14.7004C121.729 15.7271 122.489 16.5204 123.449 17.0804C124.409 17.6271 125.476 17.9004 126.649 17.9004Z" fill="black"/>
<path d="M145.809 18.1004H145.409L136.669 4.76039V18.1004H136.269V4.04039H136.669L145.409 17.3604V4.04039H145.809V18.1004Z" fill="black"/>
<path d="M156.519 4.02039V4.38039H152.419V18.1004H152.019V4.38039H147.919V4.02039L156.519 4.02039Z" fill="black"/>
<path d="M159.013 4.38039V10.8804H164.893V11.2404H159.013V17.7404H165.493V18.1004H158.613V4.02039H165.493V4.38039H159.013Z" fill="black"/>
<path d="M177.723 18.1004H177.323L168.583 4.76039V18.1004H168.183V4.04039H168.583L177.323 17.3604V4.04039H177.723V18.1004Z" fill="black"/>
<path d="M184.833 4.02039C187.259 4.02039 189.106 4.63372 190.373 5.86039C191.639 7.08706 192.273 8.82039 192.273 11.0604C192.273 13.3004 191.639 15.0337 190.373 16.2604C189.106 17.4871 187.259 18.1004 184.833 18.1004H181.133V4.02039H184.833ZM184.833 17.7404C187.153 17.7404 188.906 17.1537 190.093 15.9804C191.279 14.8071 191.873 13.1671 191.873 11.0604C191.873 8.95372 191.279 7.31372 190.093 6.14039C188.906 4.96706 187.153 4.38039 184.833 4.38039H181.533V17.7404H184.833Z" fill="black"/>
<path d="M209.731 3.66211L209.961 10.0837L212.782 4.31052L210.379 10.2702L215.305 6.14363L210.686 10.6109L216.864 8.84448L210.828 11.0469L217.19 11.9461L210.78 11.5028L216.227 14.9121L210.551 11.8998L214.14 17.2297L210.18 12.1693L211.291 18.4982L209.731 12.2646L208.172 18.4982L209.283 12.1693L205.323 17.2297L208.912 11.8998L203.236 14.9121L208.683 11.5028L202.272 11.9461L208.635 11.0469L202.598 8.84448L208.777 10.6109L204.158 6.14363L209.083 10.2702L206.681 4.31052L209.502 10.0837L209.731 3.66211Z" fill="black"/>
<path d="M239.73 4.42039V18.1004H239.33V5.40039L233.67 18.1004H233.27L227.59 5.40039V18.1004H227.19V4.42039H227.59L233.47 17.5804L239.33 4.42039H239.73Z" fill="black"/>
<path d="M249.348 18.2604C248.055 18.2604 246.895 17.9604 245.868 17.3604C244.855 16.7471 244.061 15.8937 243.488 14.8004C242.915 13.7071 242.628 12.4671 242.628 11.0804C242.628 9.69372 242.915 8.45372 243.488 7.36039C244.061 6.26706 244.855 5.42039 245.868 4.82039C246.895 4.20706 248.055 3.90039 249.348 3.90039C250.641 3.90039 251.795 4.20706 252.808 4.82039C253.835 5.42039 254.635 6.26706 255.208 7.36039C255.781 8.45372 256.068 9.69372 256.068 11.0804C256.068 12.4671 255.781 13.7071 255.208 14.8004C254.635 15.8937 253.835 16.7471 252.808 17.3604C251.795 17.9604 250.641 18.2604 249.348 18.2604ZM249.348 17.9004C250.521 17.9004 251.588 17.6271 252.548 17.0804C253.508 16.5204 254.261 15.7271 254.808 14.7004C255.368 13.6604 255.648 12.4537 255.648 11.0804C255.648 9.70706 255.368 8.50706 254.808 7.48039C254.261 6.44039 253.508 5.64706 252.548 5.10039C251.588 4.54039 250.521 4.26039 249.348 4.26039C248.175 4.26039 247.108 4.54039 246.148 5.10039C245.188 5.64706 244.428 6.44039 243.868 7.48039C243.321 8.50706 243.048 9.70706 243.048 11.0804C243.048 12.4537 243.321 13.6604 243.868 14.7004C244.428 15.7271 245.188 16.5204 246.148 17.0804C247.108 17.6271 248.175 17.9004 249.348 17.9004Z" fill="black"/>
<path d="M269.048 4.02039L263.648 18.1004H263.248L257.868 4.02039H258.328L263.448 17.5004L268.608 4.02039H269.048Z" fill="black"/>
<path d="M271.751 4.02039V18.1004H271.351V4.02039H271.751Z" fill="black"/>
<path d="M275.559 17.7404H280.959V18.1004H275.159V4.02039H275.559V17.7404Z" fill="black"/>
<path d="M295.923 6.15234L296.524 8.71042L298.246 6.72506L297.59 9.26984L300.037 8.31202L298.274 10.2605L300.886 10.5497L298.419 11.4555L300.598 12.9254L297.992 12.581L299.238 14.8949L297.091 13.3793L297.119 16.0071L295.923 13.6673L294.726 16.0071L294.754 13.3793L292.607 14.8949L293.853 12.581L291.247 12.9254L293.426 11.4555L290.959 10.5497L293.571 10.2605L291.808 8.31202L294.255 9.26984L293.599 6.72506L295.321 8.71042L295.923 6.15234Z" fill="black"/>
<path d="M317.766 4.02039V4.38039H311.286V10.8804H317.166V11.2404H311.286V18.1004H310.886V4.02039H317.766Z" fill="black"/>
<path d="M327.961 18.1004L324.201 11.9604H323.821H320.661V18.1004H320.261V4.02039H323.781C325.328 4.02039 326.475 4.37372 327.221 5.08039C327.981 5.78706 328.361 6.75372 328.361 7.98039C328.361 9.11372 328.041 10.0204 327.401 10.7004C326.761 11.3804 325.848 11.7871 324.661 11.9204L328.461 18.1004H327.961ZM323.821 11.5804C325.195 11.5804 326.221 11.2537 326.901 10.6004C327.595 9.94706 327.941 9.07372 327.941 7.98039C327.941 5.60706 326.555 4.42039 323.781 4.42039H320.661V11.5804H323.821Z" fill="black"/>
<path d="M337.184 18.2604C335.891 18.2604 334.731 17.9604 333.704 17.3604C332.691 16.7471 331.898 15.8937 331.324 14.8004C330.751 13.7071 330.464 12.4671 330.464 11.0804C330.464 9.69372 330.751 8.45372 331.324 7.36039C331.898 6.26706 332.691 5.42039 333.704 4.82039C334.731 4.20706 335.891 3.90039 337.184 3.90039C338.478 3.90039 339.631 4.20706 340.644 4.82039C341.671 5.42039 342.471 6.26706 343.044 7.36039C343.618 8.45372 343.904 9.69372 343.904 11.0804C343.904 12.4671 343.618 13.7071 343.044 14.8004C342.471 15.8937 341.671 16.7471 340.644 17.3604C339.631 17.9604 338.478 18.2604 337.184 18.2604ZM337.184 17.9004C338.358 17.9004 339.424 17.6271 340.384 17.0804C341.344 16.5204 342.098 15.7271 342.644 14.7004C343.204 13.6604 343.484 12.4537 343.484 11.0804C343.484 9.70706 343.204 8.50706 342.644 7.48039C342.098 6.44039 341.344 5.64706 340.384 5.10039C339.424 4.54039 338.358 4.26039 337.184 4.26039C336.011 4.26039 334.944 4.54039 333.984 5.10039C333.024 5.64706 332.264 6.44039 331.704 7.48039C331.158 8.50706 330.884 9.70706 330.884 11.0804C330.884 12.4537 331.158 13.6604 331.704 14.7004C332.264 15.7271 333.024 16.5204 333.984 17.0804C334.944 17.6271 336.011 17.9004 337.184 17.9004Z" fill="black"/>
<path d="M356.344 18.1004H355.944L347.204 4.76039V18.1004H346.804V4.04039H347.204L355.944 17.3604V4.04039H356.344V18.1004Z" fill="black"/>
<path d="M367.053 4.02039V4.38039H362.953V18.1004H362.553V4.38039H358.453V4.02039L367.053 4.02039Z" fill="black"/>
<path d="M369.548 4.38039V10.8804H375.428V11.2404H369.548V17.7404H376.028V18.1004H369.148V4.02039H376.028V4.38039H369.548Z" fill="black"/>
<path d="M388.258 18.1004H387.858L379.118 4.76039V18.1004H378.718V4.04039H379.118L387.858 17.3604V4.04039H388.258V18.1004Z" fill="black"/>
<path d="M395.367 4.02039C397.794 4.02039 399.641 4.63372 400.907 5.86039C402.174 7.08706 402.807 8.82039 402.807 11.0604C402.807 13.3004 402.174 15.0337 400.907 16.2604C399.641 17.4871 397.794 18.1004 395.367 18.1004H391.667V4.02039H395.367ZM395.367 17.7404C397.687 17.7404 399.441 17.1537 400.627 15.9804C401.814 14.8071 402.407 13.1671 402.407 11.0604C402.407 8.95372 401.814 7.31372 400.627 6.14039C399.441 4.96706 397.687 4.38039 395.367 4.38039H392.067V17.7404H395.367Z" fill="black"/>
<path d="M420.266 3.66211L420.496 10.0837L423.317 4.31052L420.914 10.2702L425.84 6.14363L421.221 10.6109L427.399 8.84448L421.363 11.0469L427.725 11.9461L421.315 11.5028L426.761 14.9121L421.086 11.8998L424.675 17.2297L420.715 12.1693L421.826 18.4982L420.266 12.2646L418.707 18.4982L419.818 12.1693L415.858 17.2297L419.447 11.8998L413.771 14.9121L419.218 11.5028L412.807 11.9461L419.17 11.0469L413.133 8.84448L419.311 10.6109L414.693 6.14363L419.618 10.2702L417.216 4.31052L420.037 10.0837L420.266 3.66211Z" fill="black"/>
<path d="M441.621 0.365234L454.768 0.365006L454.768 18.3807L450.873 18.3808L450.872 3.77345L441.621 3.77361L441.621 0.365234Z" fill="black"/>
<path fill-rule="evenodd" clip-rule="evenodd" d="M450.732 11.0663L450.732 11.0663L450.732 10.9797C450.732 8.71179 450.166 6.90968 449.022 5.65643C447.889 4.41576 446.313 3.79318 444.305 3.78016L450.872 3.78004L450.872 21.7957L437.726 21.796L437.725 3.78027L441.621 3.78021L441.621 11.0687L441.621 11.0687L441.621 18.3551L444.24 18.3551C446.279 18.3551 447.878 17.7324 449.022 16.4784C450.166 15.2252 450.732 13.423 450.732 11.1552L450.732 11.0663Z" fill="black"/>
<path d="M463.757 19.4495C462.168 19.4496 460.929 19.1143 460.04 18.4438C459.165 17.7732 458.706 16.8476 458.662 15.6668L461.024 15.6668C461.053 16.1041 461.279 16.505 461.702 16.8694C462.124 17.2338 462.817 17.416 463.779 17.416C464.595 17.416 465.237 17.2556 465.703 16.9349C466.17 16.6142 466.403 16.2133 466.403 15.7323C466.403 15.2949 466.228 14.9524 465.878 14.7046C465.543 14.4422 464.967 14.2673 464.151 14.1798L462.992 14.0705C461.782 13.9393 460.82 13.5822 460.105 12.9991C459.406 12.416 459.056 11.6288 459.056 10.6376C459.056 9.85041 459.253 9.18713 459.646 8.64776C460.04 8.10839 460.579 7.69292 461.264 7.40136C461.964 7.1098 462.766 6.96401 463.67 6.964C465.069 6.96397 466.199 7.27737 467.059 7.90418C467.919 8.51642 468.363 9.42021 468.393 10.6156L466.053 10.6156C466.024 10.1637 465.812 9.78469 465.419 9.47857C465.025 9.17245 464.442 9.0194 463.67 9.01941C462.941 9.01942 462.379 9.16521 461.986 9.45676C461.607 9.74832 461.417 10.12 461.417 10.5719C461.417 10.9801 461.563 11.3008 461.855 11.534C462.146 11.7673 462.62 11.9203 463.276 11.9932L464.435 12.1025C465.761 12.2483 466.811 12.62 467.584 13.2176C468.371 13.8007 468.764 14.617 468.764 15.6666C468.764 16.4246 468.553 17.0879 468.13 17.6564C467.708 18.225 467.117 18.6696 466.359 18.9903C465.616 19.2964 464.748 19.4495 463.757 19.4495Z" fill="black"/>
<path d="M478.669 19.0994L478.669 15.579L478.254 15.579L478.254 11.5994C478.254 10.8705 478.064 10.3166 477.685 9.93754C477.306 9.55854 476.745 9.36904 476.001 9.36906C475.593 9.36906 475.141 9.37636 474.646 9.39094C474.15 9.40553 473.662 9.42741 473.181 9.45657C472.714 9.47115 472.299 9.49303 471.934 9.52219L471.934 7.31371C472.255 7.28455 472.605 7.26268 472.984 7.2481C473.377 7.21893 473.778 7.19706 474.186 7.18248C474.609 7.16789 475.01 7.1606 475.389 7.16059C476.584 7.16057 477.576 7.31361 478.363 7.61973C479.15 7.92584 479.733 8.41417 480.112 9.08472C480.506 9.7407 480.703 10.6226 480.703 11.7305L480.703 19.0994L478.669 19.0994ZM474.843 19.4056C473.983 19.4056 473.232 19.2599 472.59 18.9683C471.949 18.6622 471.453 18.2249 471.103 17.6564C470.754 17.0733 470.579 16.3809 470.579 15.5791C470.579 14.7336 470.775 14.0339 471.169 13.48C471.577 12.926 472.153 12.5106 472.896 12.2336C473.64 11.9566 474.529 11.8181 475.564 11.8181L478.516 11.818L478.516 13.5017L475.499 13.5018C474.726 13.5018 474.136 13.6913 473.727 14.0703C473.319 14.4347 473.115 14.9158 473.115 15.5135C473.115 16.1112 473.319 16.5922 473.727 16.9566C474.136 17.3065 474.726 17.4814 475.499 17.4814C475.95 17.4814 476.381 17.4012 476.789 17.2408C477.197 17.0659 477.532 16.7816 477.795 16.388C478.071 15.9944 478.225 15.4405 478.254 14.7262L478.91 15.579C478.837 16.4099 478.633 17.1096 478.297 17.6781C477.977 18.2321 477.525 18.6621 476.942 18.9683C476.373 19.2598 475.674 19.4056 474.843 19.4056Z" fill="black"/>
<path d="M484.837 19.0993L484.836 7.31349L487.395 7.31344L487.395 19.0993L484.837 19.0993ZM483.109 9.28147L483.109 7.31352L487.395 7.31344L487.395 9.28139L483.109 9.28147ZM485.667 5.67352C485.143 5.67353 484.749 5.53505 484.487 5.25808C484.239 4.98111 484.115 4.62397 484.115 4.18665C484.115 3.7639 484.239 3.41404 484.486 3.13707C484.749 2.84552 485.142 2.69973 485.667 2.69973C486.207 2.69972 486.6 2.84548 486.848 3.13703C487.11 3.41399 487.242 3.76385 487.242 4.18659C487.242 4.62392 487.11 4.98106 486.848 5.25804C486.6 5.53501 486.207 5.67351 485.667 5.67352Z" fill="black"/>
<path d="M491.208 19.0992L491.208 7.31338L493.241 7.31334L493.241 12.3644L493.001 12.3644C493.001 11.1982 493.154 10.2142 493.46 9.41248C493.781 8.61072 494.262 8.00575 494.903 7.59757C495.545 7.17482 496.339 6.96343 497.287 6.96341L497.396 6.96341C498.854 6.96339 499.94 7.42256 500.654 8.34092C501.368 9.25928 501.725 10.6004 501.726 12.3643L501.726 19.099L499.167 19.0991L499.167 12.0145C499.167 11.1981 498.934 10.5421 498.467 10.0465C498.001 9.53631 497.36 9.28122 496.543 9.28123C495.712 9.28125 495.042 9.54365 494.532 10.0684C494.021 10.5787 493.766 11.2638 493.766 12.1239L493.766 19.0992L491.208 19.0992Z" fill="black"/>
<path d="M516.689 6.15234L517.291 8.71042L519.013 6.72506L518.357 9.26984L520.804 8.31202L519.041 10.2605L521.653 10.5497L519.186 11.4555L521.364 12.9254L518.759 12.581L520.005 14.8949L517.858 13.3793L517.886 16.0071L516.689 13.6673L515.493 16.0071L515.52 13.3793L513.374 14.8949L514.619 12.581L512.014 12.9254L514.192 11.4555L511.726 10.5497L514.338 10.2605L512.574 8.31202L515.021 9.26984L514.366 6.72506L516.087 8.71042L516.689 6.15234Z" fill="black"/>
<path d="M548.333 4.04004L544.553 18.12H544.153L539.973 4.70004L535.793 18.12H535.433L531.653 4.04004H532.093L535.633 17.34L539.753 4.04004H540.193L544.353 17.4L547.893 4.04004H548.333Z" fill="black"/>
<path d="M551.139 4.40004V10.9H557.019V11.26H551.139V17.76H557.619V18.12H550.739V4.04004H557.619V4.40004H551.139Z" fill="black"/>
<path d="M565.869 10.8C566.709 10.96 567.409 11.3734 567.969 12.04C568.529 12.6934 568.809 13.4667 568.809 14.36C568.809 15.4667 568.429 16.3734 567.669 17.08C566.909 17.7734 565.802 18.12 564.349 18.12H560.309V4.04004H564.349C565.749 4.04004 566.789 4.36004 567.469 5.00004C568.149 5.62671 568.489 6.45337 568.489 7.48004C568.489 8.41337 568.236 9.16004 567.729 9.72004C567.236 10.28 566.616 10.64 565.869 10.8ZM560.709 10.6H564.469C565.642 10.6 566.536 10.3267 567.149 9.78004C567.776 9.22004 568.089 8.45337 568.089 7.48004C568.089 6.54671 567.782 5.80671 567.169 5.26004C566.556 4.71337 565.616 4.44004 564.349 4.44004H560.709V10.6ZM564.349 17.72C565.629 17.72 566.622 17.42 567.329 16.82C568.049 16.22 568.409 15.4 568.409 14.36C568.409 13.3334 568.042 12.52 567.309 11.92C566.576 11.3067 565.576 11 564.309 11H560.709V17.72H564.349Z" fill="black"/>
<path d="M586.268 3.66211L586.497 10.0837L589.318 4.31052L586.916 10.2702L591.841 6.14363L587.223 10.6109L593.401 8.84448L587.364 11.0469L593.727 11.9461L587.316 11.5028L592.763 14.9121L587.087 11.8998L590.676 17.2297L586.716 12.1693L587.827 18.4982L586.268 12.2646L584.708 18.4982L585.819 12.1693L581.859 17.2297L585.448 11.8998L579.773 14.9121L585.219 11.5028L578.809 11.9461L585.171 11.0469L579.135 8.84448L585.313 10.6109L580.694 6.14363L585.62 10.2702L583.217 4.31052L586.039 10.0837L586.268 3.66211Z" fill="black"/>
<path d="M604.127 3.96973V12.7097C604.127 14.4964 604.513 15.7964 605.287 16.6097C606.073 17.4231 607.133 17.8297 608.467 17.8297C609.773 17.8297 610.807 17.4231 611.567 16.6097C612.327 15.7964 612.707 14.4964 612.707 12.7097V3.96973H613.107V12.7097C613.107 14.5764 612.693 15.9564 611.867 16.8497C611.053 17.7431 609.92 18.1897 608.467 18.1897C607.013 18.1897 605.86 17.7431 605.007 16.8497C604.153 15.9431 603.727 14.5631 603.727 12.7097V3.96973H604.127Z" fill="black"/>
<path d="M619.925 11.0097L624.105 18.0497H623.645L619.645 11.2897L615.765 18.0497H615.305L619.425 10.9097L615.305 3.96973H615.765L619.705 10.6297L623.645 3.96973H624.105L619.925 11.0097Z" fill="black"/>
<path d="M631.285 10.2697V10.6297H624.005V10.2697H631.285Z" fill="black"/>
<path d="M635.592 3.96973V12.7097C635.592 14.4964 635.978 15.7964 636.752 16.6097C637.538 17.4231 638.598 17.8297 639.932 17.8297C641.238 17.8297 642.272 17.4231 643.032 16.6097C643.792 15.7964 644.172 14.4964 644.172 12.7097V3.96973H644.572V12.7097C644.572 14.5764 644.158 15.9564 643.332 16.8497C642.518 17.7431 641.385 18.1897 639.932 18.1897C638.478 18.1897 637.325 17.7431 636.472 16.8497C635.618 15.9431 635.192 14.5631 635.192 12.7097V3.96973H635.592Z" fill="black"/>
<path d="M648.27 3.96973V18.0497H647.87V3.96973H648.27Z" fill="black"/>
<path d="M663.233 6.15234L663.835 8.71042L665.557 6.72506L664.901 9.26984L667.348 8.31202L665.585 10.2605L668.197 10.5497L665.73 11.4555L667.908 12.9254L665.303 12.581L666.549 14.8949L664.402 13.3793L664.43 16.0071L663.233 13.6673L662.037 16.0071L662.065 13.3793L659.918 14.8949L661.164 12.581L658.558 12.9254L660.737 11.4555L658.27 10.5497L660.882 10.2605L659.118 8.31202L661.566 9.26984L660.91 6.72506L662.631 8.71042L663.233 6.15234Z" fill="black"/>
<path d="M685.897 18.1204L682.137 11.9804H681.757H678.597V18.1204H678.197V4.04039H681.717C683.263 4.04039 684.41 4.39372 685.157 5.10039C685.917 5.80706 686.297 6.77372 686.297 8.00039C686.297 9.13372 685.977 10.0404 685.337 10.7204C684.697 11.4004 683.783 11.8071 682.597 11.9404L686.397 18.1204H685.897ZM681.757 11.6004C683.13 11.6004 684.157 11.2737 684.837 10.6204C685.53 9.96706 685.877 9.09372 685.877 8.00039C685.877 5.62706 684.49 4.44039 681.717 4.44039H678.597V11.6004H681.757Z" fill="black"/>
<path d="M689.3 4.40039V10.9004H695.18V11.2604H689.3V17.7604H695.78V18.1204H688.9V4.04039L695.78 4.04039V4.40039L689.3 4.40039Z" fill="black"/>
<path d="M702.33 18.2604C701.437 18.2604 700.657 18.1004 699.99 17.7804C699.337 17.4604 698.83 17.0404 698.47 16.5204C698.11 15.9871 697.897 15.4137 697.83 14.8004H698.23C698.297 15.2671 698.464 15.7337 698.73 16.2004C699.01 16.6671 699.444 17.0671 700.03 17.4004C700.63 17.7337 701.397 17.9004 702.33 17.9004C703.077 17.9004 703.737 17.7604 704.31 17.4804C704.884 17.1871 705.324 16.8004 705.63 16.3204C705.937 15.8404 706.09 15.3071 706.09 14.7204C706.09 13.9604 705.917 13.3604 705.57 12.9204C705.224 12.4671 704.79 12.1337 704.27 11.9204C703.764 11.7071 703.077 11.4871 702.21 11.2604C701.304 11.0204 700.577 10.7804 700.03 10.5404C699.484 10.3004 699.017 9.93372 698.63 9.44039C698.257 8.93372 698.07 8.25372 698.07 7.40039C698.07 6.78706 698.237 6.21372 698.57 5.68039C698.917 5.13372 699.404 4.70039 700.03 4.38039C700.67 4.06039 701.397 3.90039 702.21 3.90039C703.037 3.90039 703.75 4.04706 704.35 4.34039C704.95 4.63372 705.417 5.00706 705.75 5.46039C706.097 5.90039 706.324 6.36706 706.43 6.86039H706.03C705.937 6.47372 705.744 6.08039 705.45 5.68039C705.157 5.28039 704.737 4.94706 704.19 4.68039C703.644 4.40039 702.984 4.26039 702.21 4.26039C701.53 4.26039 700.904 4.39372 700.33 4.66039C699.77 4.91372 699.317 5.28039 698.97 5.76039C698.637 6.22706 698.47 6.77372 698.47 7.40039C698.47 8.17372 698.644 8.79372 698.99 9.26039C699.35 9.71372 699.79 10.0537 700.31 10.2804C700.83 10.4937 701.524 10.7137 702.39 10.9404C703.297 11.1804 704.017 11.4204 704.55 11.6604C705.097 11.8871 705.557 12.2471 705.93 12.7404C706.304 13.2204 706.49 13.8804 706.49 14.7204C706.49 15.3071 706.33 15.8737 706.01 16.4204C705.704 16.9671 705.237 17.4137 704.61 17.7604C703.984 18.0937 703.224 18.2604 702.33 18.2604Z" fill="black"/>
<path d="M709.593 4.40039V10.9004H715.473V11.2604H709.593V17.7604H716.073V18.1204H709.193V4.04039H716.073V4.40039H709.593Z" fill="black"/>
<path d="M726.563 14.2404H719.603L718.123 18.1204H717.663L722.883 4.46039H723.283L728.483 18.1204H728.023L726.563 14.2404ZM726.423 13.8804L723.083 5.10039L719.743 13.8804H726.423Z" fill="black"/>
<path d="M738.475 18.1204L734.715 11.9804H734.335H731.175V18.1204H730.775V4.04039H734.295C735.842 4.04039 736.988 4.39372 737.735 5.10039C738.495 5.80706 738.875 6.77372 738.875 8.00039C738.875 9.13372 738.555 10.0404 737.915 10.7204C737.275 11.4004 736.362 11.8071 735.175 11.9404L738.975 18.1204H738.475ZM734.335 11.6004C735.708 11.6004 736.735 11.2737 737.415 10.6204C738.108 9.96706 738.455 9.09372 738.455 8.00039C738.455 5.62706 737.068 4.44039 734.295 4.44039H731.175V11.6004H734.335Z" fill="black"/>
<path d="M740.978 11.1004C740.978 9.70039 741.258 8.46039 741.818 7.38039C742.378 6.28706 743.158 5.43372 744.158 4.82039C745.158 4.20706 746.285 3.90039 747.538 3.90039C749.178 3.90039 750.531 4.28039 751.598 5.04039C752.678 5.80039 753.465 6.85372 753.958 8.20039H753.558C753.131 7.01372 752.405 6.06039 751.378 5.34039C750.351 4.62039 749.071 4.26039 747.538 4.26039C746.391 4.26039 745.351 4.54039 744.418 5.10039C743.485 5.64706 742.745 6.44039 742.198 7.48039C741.665 8.50706 741.398 9.71372 741.398 11.1004C741.398 12.4737 741.665 13.6737 742.198 14.7004C742.745 15.7271 743.485 16.5204 744.418 17.0804C745.365 17.6271 746.405 17.9004 747.538 17.9004C749.071 17.9004 750.351 17.5471 751.378 16.8404C752.405 16.1204 753.131 15.1671 753.558 13.9804H753.958C753.465 15.3271 752.678 16.3804 751.598 17.1404C750.531 17.8871 749.178 18.2604 747.538 18.2604C746.285 18.2604 745.158 17.9604 744.158 17.3604C743.158 16.7471 742.378 15.9004 741.818 14.8204C741.258 13.7271 740.978 12.4871 740.978 11.1004Z" fill="black"/>
<path d="M766.429 4.04039V18.1204H766.029V11.0604L757.249 11.0604V18.1204H756.849V4.04039H757.249V10.7004L766.029 10.7004V4.04039H766.429Z" fill="black"/>
<path d="M783.888 3.66211L784.117 10.0837L786.939 4.31052L784.536 10.2702L789.462 6.14363L784.843 10.6109L791.021 8.84448L784.985 11.0469L791.347 11.9461L784.937 11.5028L790.383 14.9121L784.707 11.8998L788.297 17.2297L784.337 12.1693L785.447 18.4982L783.888 12.2646L782.329 18.4982L783.44 12.1693L779.48 17.2297L783.069 11.8998L777.393 14.9121L782.84 11.5028L776.429 11.9461L782.792 11.0469L776.755 8.84448L782.933 10.6109L778.315 6.14363L783.24 10.2702L780.838 4.31052L783.659 10.0837L783.888 3.66211Z" fill="black"/>
<path d="M805.047 5.05012C807.474 5.05012 809.32 5.66345 810.587 6.89012C811.854 8.11678 812.487 9.85012 812.487 12.0901C812.487 14.3301 811.854 16.0634 810.587 17.2901C809.32 18.5168 807.474 19.1301 805.047 19.1301H801.347V5.05012H805.047ZM805.047 18.7701C807.367 18.7701 809.12 18.1834 810.307 17.0101C811.494 15.8368 812.087 14.1968 812.087 12.0901C812.087 9.98345 811.494 8.34345 810.307 7.17012C809.12 5.99678 807.367 5.41012 805.047 5.41012H801.747V18.7701H805.047Z" fill="black"/>
<path d="M815.79 5.05012V19.1301H815.39V5.05012H815.79Z" fill="black"/>
<path d="M823.058 19.2701C822.165 19.2701 821.385 19.1101 820.718 18.7901C820.065 18.4701 819.558 18.0501 819.198 17.5301C818.838 16.9968 818.625 16.4235 818.558 15.8101H818.958C819.025 16.2768 819.192 16.7434 819.458 17.2101C819.738 17.6768 820.172 18.0768 820.758 18.4101C821.358 18.7435 822.125 18.9101 823.058 18.9101C823.805 18.9101 824.465 18.7701 825.038 18.4901C825.612 18.1968 826.052 17.8101 826.358 17.3301C826.665 16.8501 826.818 16.3168 826.818 15.7301C826.818 14.9701 826.645 14.3701 826.298 13.9301C825.952 13.4768 825.518 13.1435 824.998 12.9301C824.492 12.7168 823.805 12.4968 822.938 12.2701C822.032 12.0301 821.305 11.7901 820.758 11.5501C820.212 11.3101 819.745 10.9434 819.358 10.4501C818.985 9.94345 818.798 9.26345 818.798 8.41012C818.798 7.79678 818.965 7.22345 819.298 6.69012C819.645 6.14345 820.132 5.71012 820.758 5.39012C821.398 5.07012 822.125 4.91012 822.938 4.91012C823.765 4.91012 824.478 5.05678 825.078 5.35012C825.678 5.64345 826.145 6.01678 826.478 6.47012C826.825 6.91012 827.052 7.37678 827.158 7.87012H826.758C826.665 7.48345 826.472 7.09012 826.178 6.69012C825.885 6.29012 825.465 5.95678 824.918 5.69012C824.372 5.41012 823.712 5.27012 822.938 5.27012C822.258 5.27012 821.632 5.40345 821.058 5.67012C820.498 5.92345 820.045 6.29012 819.698 6.77012C819.365 7.23678 819.198 7.78345 819.198 8.41012C819.198 9.18345 819.372 9.80345 819.718 10.2701C820.078 10.7234 820.518 11.0635 821.038 11.2901C821.558 11.5035 822.252 11.7235 823.118 11.9501C824.025 12.1901 824.745 12.4301 825.278 12.6701C825.825 12.8968 826.285 13.2568 826.658 13.7501C827.032 14.2301 827.218 14.8901 827.218 15.7301C827.218 16.3168 827.058 16.8834 826.738 17.4301C826.432 17.9768 825.965 18.4234 825.338 18.7701C824.712 19.1034 823.952 19.2701 823.058 19.2701Z" fill="black"/>
<path d="M830.321 5.41012V11.9101L836.201 11.9101V12.2701L830.321 12.2701V18.7701H836.801V19.1301H829.921V5.05012H836.801V5.41012H830.321Z" fill="black"/>
<path d="M849.031 19.1301H848.631L839.891 5.79012V19.1301H839.491V5.07012H839.891L848.631 18.3901V5.07012H849.031V19.1301ZM842.351 4.19012C842.405 3.77678 842.531 3.45678 842.731 3.23012C842.945 2.99012 843.218 2.87012 843.551 2.87012C843.778 2.87012 843.971 2.91678 844.131 3.01012C844.291 3.09012 844.471 3.21678 844.671 3.39012C844.858 3.55012 845.025 3.67012 845.171 3.75012C845.331 3.83012 845.511 3.87012 845.711 3.87012C845.938 3.87012 846.131 3.79012 846.291 3.63012C846.451 3.45678 846.551 3.22345 846.591 2.93012H846.951C846.925 3.29012 846.791 3.59678 846.551 3.85012C846.325 4.10345 846.045 4.23012 845.711 4.23012C845.471 4.23012 845.265 4.18345 845.091 4.09012C844.918 3.99678 844.725 3.86345 844.511 3.69012C844.311 3.53012 844.145 3.41678 844.011 3.35012C843.878 3.27012 843.725 3.23012 843.551 3.23012C843.071 3.23012 842.791 3.55012 842.711 4.19012H842.351Z" fill="black"/>
<path d="M860.241 15.2501H853.281L851.801 19.1301H851.341L856.561 5.47012H856.961L862.161 19.1301H861.701L860.241 15.2501ZM860.101 14.8901L856.761 6.11012L853.421 14.8901H860.101Z" fill="black"/>
<path d="M868.152 5.05012C870.579 5.05012 872.426 5.66345 873.692 6.89012C874.959 8.11678 875.592 9.85012 875.592 12.0901C875.592 14.3301 874.959 16.0634 873.692 17.2901C872.426 18.5168 870.579 19.1301 868.152 19.1301L864.452 19.1301V5.05012H868.152ZM868.152 18.7701C870.472 18.7701 872.226 18.1834 873.412 17.0101C874.599 15.8368 875.192 14.1968 875.192 12.0901C875.192 9.98345 874.599 8.34345 873.412 7.17012C872.226 5.99678 870.472 5.41012 868.152 5.41012H864.852V18.7701H868.152Z" fill="black"/>
<path d="M884.715 19.2901C883.422 19.2901 882.262 18.9901 881.235 18.3901C880.222 17.7768 879.429 16.9235 878.855 15.8301C878.282 14.7368 877.995 13.4968 877.995 12.1101C877.995 10.7234 878.282 9.48345 878.855 8.39012C879.429 7.29678 880.222 6.45012 881.235 5.85012C882.262 5.23678 883.422 4.93012 884.715 4.93012C886.009 4.93012 887.162 5.23678 888.175 5.85012C889.202 6.45012 890.002 7.29678 890.575 8.39012C891.149 9.48345 891.435 10.7234 891.435 12.1101C891.435 13.4968 891.149 14.7368 890.575 15.8301C890.002 16.9235 889.202 17.7768 888.175 18.3901C887.162 18.9901 886.009 19.2901 884.715 19.2901ZM884.715 18.9301C885.889 18.9301 886.955 18.6568 887.915 18.1101C888.875 17.5501 889.629 16.7568 890.175 15.7301C890.735 14.6901 891.015 13.4834 891.015 12.1101C891.015 10.7368 890.735 9.53678 890.175 8.51012C889.629 7.47012 888.875 6.67678 887.915 6.13012C886.955 5.57012 885.889 5.29012 884.715 5.29012C883.542 5.29012 882.475 5.57012 881.515 6.13012C880.555 6.67678 879.795 7.47012 879.235 8.51012C878.689 9.53678 878.415 10.7368 878.415 12.1101C878.415 13.4834 878.689 14.6901 879.235 15.7301C879.795 16.7568 880.555 17.5501 881.515 18.1101C882.475 18.6568 883.542 18.9301 884.715 18.9301Z" fill="black"/>
<path d="M902.035 19.1301L898.275 12.9901H897.895L894.735 12.9901V19.1301H894.335V5.05012H897.855C899.402 5.05012 900.549 5.40345 901.295 6.11012C902.055 6.81678 902.435 7.78345 902.435 9.01012C902.435 10.1434 902.115 11.0501 901.475 11.7301C900.835 12.4101 899.922 12.8168 898.735 12.9501L902.535 19.1301H902.035ZM897.895 12.6101C899.269 12.6101 900.295 12.2834 900.975 11.6301C901.669 10.9768 902.015 10.1034 902.015 9.01012C902.015 6.63678 900.629 5.45012 897.855 5.45012H894.735V12.6101L897.895 12.6101Z" fill="black"/>
<path d="M917.499 6.15234L918.101 8.71042L919.823 6.72506L919.167 9.26984L921.614 8.31202L919.851 10.2605L922.462 10.5497L919.996 11.4555L922.174 12.9254L919.569 12.581L920.815 14.8949L918.668 13.3793L918.696 16.0071L917.499 13.6673L916.302 16.0071L916.33 13.3793L914.183 14.8949L915.429 12.581L912.824 12.9254L915.002 11.4555L912.535 10.5497L915.147 10.2605L913.384 8.31202L915.831 9.26984L915.175 6.72506L916.897 8.71042L917.499 6.15234Z" fill="black"/>
<path d="M949.142 4.04004L945.362 18.12H944.962L940.782 4.70004L936.602 18.12H936.242L932.462 4.04004H932.902L936.442 17.34L940.562 4.04004H941.002L945.162 17.4L948.702 4.04004H949.142Z" fill="black"/>
<path d="M951.948 4.40004V10.9H957.828V11.26H951.948V17.76H958.428V18.12H951.548V4.04004H958.428V4.40004H951.948Z" fill="black"/>
<path d="M966.679 10.8C967.519 10.96 968.219 11.3734 968.779 12.04C969.339 12.6934 969.619 13.4667 969.619 14.36C969.619 15.4667 969.239 16.3734 968.479 17.08C967.719 17.7734 966.612 18.12 965.159 18.12H961.119V4.04004H965.159C966.559 4.04004 967.599 4.36004 968.279 5.00004C968.959 5.62671 969.299 6.45337 969.299 7.48004C969.299 8.41337 969.045 9.16004 968.539 9.72004C968.045 10.28 967.425 10.64 966.679 10.8ZM961.519 10.6H965.279C966.452 10.6 967.345 10.3267 967.959 9.78004C968.585 9.22004 968.899 8.45337 968.899 7.48004C968.899 6.54671 968.592 5.80671 967.979 5.26004C967.365 4.71337 966.425 4.44004 965.159 4.44004H961.519V10.6ZM965.159 17.72C966.439 17.72 967.432 17.42 968.139 16.82C968.859 16.22 969.219 15.4 969.219 14.36C969.219 13.3334 968.852 12.52 968.119 11.92C967.385 11.3067 966.385 11 965.119 11H961.519V17.72H965.159Z" fill="black"/>
<path d="M987.078 3.66211L987.307 10.0837L990.128 4.31052L987.726 10.2702L992.651 6.14363L988.032 10.6109L994.21 8.84448L988.174 11.0469L994.536 11.9461L988.126 11.5028L993.573 14.9121L987.897 11.8998L991.486 17.2297L987.526 12.1693L988.637 18.4982L987.078 12.2646L985.518 18.4982L986.629 12.1693L982.669 17.2297L986.258 11.8998L980.582 14.9121L986.029 11.5028L979.619 11.9461L985.981 11.0469L979.945 8.84448L986.123 10.6109L981.504 6.14363L986.43 10.2702L984.027 4.31052L986.848 10.0837L987.078 3.66211Z" fill="black"/>
<path d="M1017.08 4.42039V18.1004H1016.68V5.40039L1011.02 18.1004H1010.62L1004.94 5.40039V18.1004H1004.54V4.42039H1004.94L1010.82 17.5804L1016.68 4.42039H1017.08Z" fill="black"/>
<path d="M1026.69 18.2604C1025.4 18.2604 1024.24 17.9604 1023.21 17.3604C1022.2 16.7471 1021.41 15.8937 1020.83 14.8004C1020.26 13.7071 1019.97 12.4671 1019.97 11.0804C1019.97 9.69372 1020.26 8.45372 1020.83 7.36039C1021.41 6.26706 1022.2 5.42039 1023.21 4.82039C1024.24 4.20706 1025.4 3.90039 1026.69 3.90039C1027.99 3.90039 1029.14 4.20706 1030.15 4.82039C1031.18 5.42039 1031.98 6.26706 1032.55 7.36039C1033.13 8.45372 1033.41 9.69372 1033.41 11.0804C1033.41 12.4671 1033.13 13.7071 1032.55 14.8004C1031.98 15.8937 1031.18 16.7471 1030.15 17.3604C1029.14 17.9604 1027.99 18.2604 1026.69 18.2604ZM1026.69 17.9004C1027.87 17.9004 1028.93 17.6271 1029.89 17.0804C1030.85 16.5204 1031.61 15.7271 1032.15 14.7004C1032.71 13.6604 1032.99 12.4537 1032.99 11.0804C1032.99 9.70706 1032.71 8.50706 1032.15 7.48039C1031.61 6.44039 1030.85 5.64706 1029.89 5.10039C1028.93 4.54039 1027.87 4.26039 1026.69 4.26039C1025.52 4.26039 1024.45 4.54039 1023.49 5.10039C1022.53 5.64706 1021.77 6.44039 1021.21 7.48039C1020.67 8.50706 1020.39 9.70706 1020.39 11.0804C1020.39 12.4537 1020.67 13.6604 1021.21 14.7004C1021.77 15.7271 1022.53 16.5204 1023.49 17.0804C1024.45 17.6271 1025.52 17.9004 1026.69 17.9004Z" fill="black"/>
<path d="M1046.39 4.02039L1040.99 18.1004H1040.59L1035.21 4.02039H1035.67L1040.79 17.5004L1045.95 4.02039H1046.39Z" fill="black"/>
<path d="M1049.1 4.02039V18.1004H1048.7V4.02039H1049.1Z" fill="black"/>
<path d="M1052.91 17.7404H1058.31V18.1004H1052.51V4.02039H1052.91V17.7404Z" fill="black"/>
<path d="M1073.27 6.15234L1073.87 8.71042L1075.59 6.72506L1074.94 9.26984L1077.38 8.31202L1075.62 10.2605L1078.23 10.5497L1075.77 11.4555L1077.94 12.9254L1075.34 12.581L1076.58 14.8949L1074.44 13.3793L1074.47 16.0071L1073.27 13.6673L1072.07 16.0071L1072.1 13.3793L1069.95 14.8949L1071.2 12.581L1068.59 12.9254L1070.77 11.4555L1068.31 10.5497L1070.92 10.2605L1069.15 8.31202L1071.6 9.26984L1070.95 6.72506L1072.67 8.71042L1073.27 6.15234Z" fill="black"/>
<path d="M1095.93 18.1204L1092.17 11.9804H1091.79H1088.63V18.1204H1088.23V4.04039H1091.75C1093.3 4.04039 1094.45 4.39372 1095.19 5.10039C1095.95 5.80706 1096.33 6.77372 1096.33 8.00039C1096.33 9.13372 1096.01 10.0404 1095.37 10.7204C1094.73 11.4004 1093.82 11.8071 1092.63 11.9404L1096.43 18.1204H1095.93ZM1091.79 11.6004C1093.17 11.6004 1094.19 11.2737 1094.87 10.6204C1095.57 9.96706 1095.91 9.09372 1095.91 8.00039C1095.91 5.62706 1094.53 4.44039 1091.75 4.44039H1088.63V11.6004H1091.79Z" fill="black"/>
<path d="M1099.34 4.40039V10.9004H1105.22V11.2604H1099.34V17.7604H1105.82V18.1204H1098.94V4.04039L1105.82 4.04039V4.40039L1099.34 4.40039Z" fill="black"/>
<path d="M1112.37 18.2604C1111.47 18.2604 1110.69 18.1004 1110.03 17.7804C1109.37 17.4604 1108.87 17.0404 1108.51 16.5204C1108.15 15.9871 1107.93 15.4137 1107.87 14.8004H1108.27C1108.33 15.2671 1108.5 15.7337 1108.77 16.2004C1109.05 16.6671 1109.48 17.0671 1110.07 17.4004C1110.67 17.7337 1111.43 17.9004 1112.37 17.9004C1113.11 17.9004 1113.77 17.7604 1114.35 17.4804C1114.92 17.1871 1115.36 16.8004 1115.67 16.3204C1115.97 15.8404 1116.13 15.3071 1116.13 14.7204C1116.13 13.9604 1115.95 13.3604 1115.61 12.9204C1115.26 12.4671 1114.83 12.1337 1114.31 11.9204C1113.8 11.7071 1113.11 11.4871 1112.25 11.2604C1111.34 11.0204 1110.61 10.7804 1110.07 10.5404C1109.52 10.3004 1109.05 9.93372 1108.67 9.44039C1108.29 8.93372 1108.11 8.25372 1108.11 7.40039C1108.11 6.78706 1108.27 6.21372 1108.61 5.68039C1108.95 5.13372 1109.44 4.70039 1110.07 4.38039C1110.71 4.06039 1111.43 3.90039 1112.25 3.90039C1113.07 3.90039 1113.79 4.04706 1114.39 4.34039C1114.99 4.63372 1115.45 5.00706 1115.79 5.46039C1116.13 5.90039 1116.36 6.36706 1116.47 6.86039H1116.07C1115.97 6.47372 1115.78 6.08039 1115.49 5.68039C1115.19 5.28039 1114.77 4.94706 1114.23 4.68039C1113.68 4.40039 1113.02 4.26039 1112.25 4.26039C1111.57 4.26039 1110.94 4.39372 1110.37 4.66039C1109.81 4.91372 1109.35 5.28039 1109.01 5.76039C1108.67 6.22706 1108.51 6.77372 1108.51 7.40039C1108.51 8.17372 1108.68 8.79372 1109.03 9.26039C1109.39 9.71372 1109.83 10.0537 1110.35 10.2804C1110.87 10.4937 1111.56 10.7137 1112.43 10.9404C1113.33 11.1804 1114.05 11.4204 1114.59 11.6604C1115.13 11.8871 1115.59 12.2471 1115.97 12.7404C1116.34 13.2204 1116.53 13.8804 1116.53 14.7204C1116.53 15.3071 1116.37 15.8737 1116.05 16.4204C1115.74 16.9671 1115.27 17.4137 1114.65 17.7604C1114.02 18.0937 1113.26 18.2604 1112.37 18.2604Z" fill="black"/>
<path d="M1119.63 4.40039V10.9004H1125.51V11.2604H1119.63V17.7604H1126.11V18.1204H1119.23V4.04039H1126.11V4.40039H1119.63Z" fill="black"/>
<path d="M1136.6 14.2404H1129.64L1128.16 18.1204H1127.7L1132.92 4.46039H1133.32L1138.52 18.1204H1138.06L1136.6 14.2404ZM1136.46 13.8804L1133.12 5.10039L1129.78 13.8804H1136.46Z" fill="black"/>
<path d="M1148.51 18.1204L1144.75 11.9804H1144.37H1141.21V18.1204H1140.81V4.04039H1144.33C1145.88 4.04039 1147.02 4.39372 1147.77 5.10039C1148.53 5.80706 1148.91 6.77372 1148.91 8.00039C1148.91 9.13372 1148.59 10.0404 1147.95 10.7204C1147.31 11.4004 1146.4 11.8071 1145.21 11.9404L1149.01 18.1204H1148.51ZM1144.37 11.6004C1145.74 11.6004 1146.77 11.2737 1147.45 10.6204C1148.14 9.96706 1148.49 9.09372 1148.49 8.00039C1148.49 5.62706 1147.1 4.44039 1144.33 4.44039H1141.21V11.6004H1144.37Z" fill="black"/>
<path d="M1151.01 11.1004C1151.01 9.70039 1151.29 8.46039 1151.85 7.38039C1152.41 6.28706 1153.19 5.43372 1154.19 4.82039C1155.19 4.20706 1156.32 3.90039 1157.57 3.90039C1159.21 3.90039 1160.57 4.28039 1161.63 5.04039C1162.71 5.80039 1163.5 6.85372 1163.99 8.20039H1163.59C1163.17 7.01372 1162.44 6.06039 1161.41 5.34039C1160.39 4.62039 1159.11 4.26039 1157.57 4.26039C1156.43 4.26039 1155.39 4.54039 1154.45 5.10039C1153.52 5.64706 1152.78 6.44039 1152.23 7.48039C1151.7 8.50706 1151.43 9.71372 1151.43 11.1004C1151.43 12.4737 1151.7 13.6737 1152.23 14.7004C1152.78 15.7271 1153.52 16.5204 1154.45 17.0804C1155.4 17.6271 1156.44 17.9004 1157.57 17.9004C1159.11 17.9004 1160.39 17.5471 1161.41 16.8404C1162.44 16.1204 1163.17 15.1671 1163.59 13.9804H1163.99C1163.5 15.3271 1162.71 16.3804 1161.63 17.1404C1160.57 17.8871 1159.21 18.2604 1157.57 18.2604C1156.32 18.2604 1155.19 17.9604 1154.19 17.3604C1153.19 16.7471 1152.41 15.9004 1151.85 14.8204C1151.29 13.7271 1151.01 12.4871 1151.01 11.1004Z" fill="black"/>
<path d="M1176.46 4.04039V18.1204H1176.06V11.0604L1167.28 11.0604V18.1204H1166.88V4.04039H1167.28V10.7004L1176.06 10.7004V4.04039H1176.46Z" fill="black"/>
<path d="M1193.92 3.66211L1194.15 10.0837L1196.97 4.31052L1194.57 10.2702L1199.5 6.14363L1194.88 10.6109L1201.06 8.84448L1195.02 11.0469L1201.38 11.9461L1194.97 11.5028L1200.42 14.9121L1194.74 11.8998L1198.33 17.2297L1194.37 12.1693L1195.48 18.4982L1193.92 12.2646L1192.36 18.4982L1193.48 12.1693L1189.52 17.2297L1193.1 11.8998L1187.43 14.9121L1192.87 11.5028L1186.46 11.9461L1192.83 11.0469L1186.79 8.84448L1192.97 10.6109L1188.35 6.14363L1193.28 10.2702L1190.87 4.31052L1193.69 10.0837L1193.92 3.66211Z" fill="black"/>
<path d="M1215.28 0.365234L1228.42 0.365006L1228.43 18.3807L1224.53 18.3808L1224.53 3.77345L1215.28 3.77361L1215.28 0.365234Z" fill="black"/>
<path fill-rule="evenodd" clip-rule="evenodd" d="M1224.39 11.0663L1224.39 11.0663L1224.39 10.9797C1224.39 8.71179 1223.82 6.90968 1222.68 5.65643C1221.55 4.41576 1219.97 3.79318 1217.96 3.78016L1224.53 3.78004L1224.53 21.7957L1211.38 21.796L1211.38 3.78027L1215.28 3.78021L1215.28 11.0687L1215.28 11.0687L1215.28 18.3551L1217.9 18.3551C1219.94 18.3551 1221.53 17.7324 1222.68 16.4784C1223.82 15.2252 1224.39 13.423 1224.39 11.1552L1224.39 11.0663Z" fill="black"/>
<path d="M1237.41 19.4495C1235.83 19.4496 1234.59 19.1143 1233.7 18.4438C1232.82 17.7732 1232.36 16.8476 1232.32 15.6668L1234.68 15.6668C1234.71 16.1041 1234.94 16.505 1235.36 16.8694C1235.78 17.2338 1236.47 17.416 1237.44 17.416C1238.25 17.416 1238.89 17.2556 1239.36 16.9349C1239.83 16.6142 1240.06 16.2133 1240.06 15.7323C1240.06 15.2949 1239.89 14.9524 1239.54 14.7046C1239.2 14.4422 1238.62 14.2673 1237.81 14.1798L1236.65 14.0705C1235.44 13.9393 1234.48 13.5822 1233.76 12.9991C1233.06 12.416 1232.71 11.6288 1232.71 10.6376C1232.71 9.85041 1232.91 9.18713 1233.3 8.64776C1233.7 8.10839 1234.24 7.69292 1234.92 7.40136C1235.62 7.1098 1236.42 6.96401 1237.33 6.964C1238.73 6.96397 1239.86 7.27737 1240.72 7.90418C1241.58 8.51642 1242.02 9.42021 1242.05 10.6156L1239.71 10.6156C1239.68 10.1637 1239.47 9.78469 1239.08 9.47857C1238.68 9.17245 1238.1 9.0194 1237.33 9.01941C1236.6 9.01942 1236.04 9.16521 1235.64 9.45676C1235.26 9.74832 1235.07 10.12 1235.07 10.5719C1235.07 10.9801 1235.22 11.3008 1235.51 11.534C1235.8 11.7673 1236.28 11.9203 1236.93 11.9932L1238.09 12.1025C1239.42 12.2483 1240.47 12.62 1241.24 13.2176C1242.03 13.8007 1242.42 14.617 1242.42 15.6666C1242.42 16.4246 1242.21 17.0879 1241.79 17.6564C1241.36 18.225 1240.77 18.6696 1240.02 18.9903C1239.27 19.2964 1238.41 19.4495 1237.41 19.4495Z" fill="black"/>
<path d="M1252.33 19.0994L1252.33 15.579L1251.91 15.579L1251.91 11.5994C1251.91 10.8705 1251.72 10.3166 1251.34 9.93754C1250.96 9.55854 1250.4 9.36904 1249.66 9.36906C1249.25 9.36906 1248.8 9.37636 1248.3 9.39094C1247.81 9.40553 1247.32 9.42741 1246.84 9.45657C1246.37 9.47115 1245.96 9.49303 1245.59 9.52219L1245.59 7.31371C1245.91 7.28455 1246.26 7.26268 1246.64 7.2481C1247.03 7.21893 1247.44 7.19706 1247.84 7.18248C1248.27 7.16789 1248.67 7.1606 1249.05 7.16059C1250.24 7.16057 1251.23 7.31361 1252.02 7.61973C1252.81 7.92584 1253.39 8.41417 1253.77 9.08472C1254.16 9.7407 1254.36 10.6226 1254.36 11.7305L1254.36 19.0994L1252.33 19.0994ZM1248.5 19.4056C1247.64 19.4056 1246.89 19.2599 1246.25 18.9683C1245.61 18.6622 1245.11 18.2249 1244.76 17.6564C1244.41 17.0733 1244.24 16.3809 1244.24 15.5791C1244.24 14.7336 1244.43 14.0339 1244.83 13.48C1245.23 12.926 1245.81 12.5106 1246.55 12.2336C1247.3 11.9566 1248.19 11.8181 1249.22 11.8181L1252.17 11.818L1252.17 13.5017L1249.16 13.5018C1248.38 13.5018 1247.79 13.6913 1247.38 14.0703C1246.98 14.4347 1246.77 14.9158 1246.77 15.5135C1246.77 16.1112 1246.98 16.5922 1247.38 16.9566C1247.79 17.3065 1248.38 17.4814 1249.16 17.4814C1249.61 17.4814 1250.04 17.4012 1250.45 17.2408C1250.85 17.0659 1251.19 16.7816 1251.45 16.388C1251.73 15.9944 1251.88 15.4405 1251.91 14.7262L1252.57 15.579C1252.49 16.4099 1252.29 17.1096 1251.95 17.6781C1251.63 18.2321 1251.18 18.6621 1250.6 18.9683C1250.03 19.2598 1249.33 19.4056 1248.5 19.4056Z" fill="black"/>
<path d="M1258.49 19.0993L1258.49 7.31349L1261.05 7.31344L1261.05 19.0993L1258.49 19.0993ZM1256.77 9.28147L1256.77 7.31352L1261.05 7.31344L1261.05 9.28139L1256.77 9.28147ZM1259.32 5.67352C1258.8 5.67353 1258.41 5.53505 1258.14 5.25808C1257.9 4.98111 1257.77 4.62397 1257.77 4.18665C1257.77 3.7639 1257.9 3.41404 1258.14 3.13707C1258.41 2.84552 1258.8 2.69973 1259.32 2.69973C1259.86 2.69972 1260.26 2.84548 1260.51 3.13703C1260.77 3.41399 1260.9 3.76385 1260.9 4.18659C1260.9 4.62392 1260.77 4.98106 1260.51 5.25804C1260.26 5.53501 1259.86 5.67351 1259.32 5.67352Z" fill="black"/>
<path d="M1264.87 19.0992L1264.87 7.31338L1266.9 7.31334L1266.9 12.3644L1266.66 12.3644C1266.66 11.1982 1266.81 10.2142 1267.12 9.41248C1267.44 8.61072 1267.92 8.00575 1268.56 7.59757C1269.2 7.17482 1270 6.96343 1270.94 6.96341L1271.05 6.96341C1272.51 6.96339 1273.6 7.42256 1274.31 8.34092C1275.03 9.25928 1275.38 10.6004 1275.38 12.3643L1275.38 19.099L1272.82 19.0991L1272.82 12.0145C1272.82 11.1981 1272.59 10.5421 1272.12 10.0465C1271.66 9.53631 1271.02 9.28122 1270.2 9.28123C1269.37 9.28125 1268.7 9.54365 1268.19 10.0684C1267.68 10.5787 1267.42 11.2638 1267.42 12.1239L1267.42 19.0992L1264.87 19.0992Z" fill="black"/>
<path d="M1290.35 6.15234L1290.95 8.71042L1292.67 6.72506L1292.01 9.26984L1294.46 8.31202L1292.7 10.2605L1295.31 10.5497L1292.84 11.4555L1295.02 12.9254L1292.42 12.581L1293.66 14.8949L1291.52 13.3793L1291.54 16.0071L1290.35 13.6673L1289.15 16.0071L1289.18 13.3793L1287.03 14.8949L1288.28 12.581L1285.67 12.9254L1287.85 11.4555L1285.38 10.5497L1287.99 10.2605L1286.23 8.31202L1288.68 9.26984L1288.02 6.72506L1289.74 8.71042L1290.35 6.15234Z" fill="black"/>
<path d="M1312.19 4.02039V4.38039H1305.71V10.8804H1311.59V11.2404H1305.71V18.1004H1305.31V4.02039H1312.19Z" fill="black"/>
<path d="M1322.39 18.1004L1318.63 11.9604H1318.25H1315.09V18.1004H1314.69V4.02039H1318.21C1319.75 4.02039 1320.9 4.37372 1321.65 5.08039C1322.41 5.78706 1322.79 6.75372 1322.79 7.98039C1322.79 9.11372 1322.47 10.0204 1321.83 10.7004C1321.19 11.3804 1320.27 11.7871 1319.09 11.9204L1322.89 18.1004H1322.39ZM1318.25 11.5804C1319.62 11.5804 1320.65 11.2537 1321.33 10.6004C1322.02 9.94706 1322.37 9.07372 1322.37 7.98039C1322.37 5.60706 1320.98 4.42039 1318.21 4.42039H1315.09V11.5804H1318.25Z" fill="black"/>
<path d="M1331.61 18.2604C1330.31 18.2604 1329.15 17.9604 1328.13 17.3604C1327.11 16.7471 1326.32 15.8937 1325.75 14.8004C1325.17 13.7071 1324.89 12.4671 1324.89 11.0804C1324.89 9.69372 1325.17 8.45372 1325.75 7.36039C1326.32 6.26706 1327.11 5.42039 1328.13 4.82039C1329.15 4.20706 1330.31 3.90039 1331.61 3.90039C1332.9 3.90039 1334.05 4.20706 1335.07 4.82039C1336.09 5.42039 1336.89 6.26706 1337.47 7.36039C1338.04 8.45372 1338.33 9.69372 1338.33 11.0804C1338.33 12.4671 1338.04 13.7071 1337.47 14.8004C1336.89 15.8937 1336.09 16.7471 1335.07 17.3604C1334.05 17.9604 1332.9 18.2604 1331.61 18.2604ZM1331.61 17.9004C1332.78 17.9004 1333.85 17.6271 1334.81 17.0804C1335.77 16.5204 1336.52 15.7271 1337.07 14.7004C1337.63 13.6604 1337.91 12.4537 1337.91 11.0804C1337.91 9.70706 1337.63 8.50706 1337.07 7.48039C1336.52 6.44039 1335.77 5.64706 1334.81 5.10039C1333.85 4.54039 1332.78 4.26039 1331.61 4.26039C1330.43 4.26039 1329.37 4.54039 1328.41 5.10039C1327.45 5.64706 1326.69 6.44039 1326.13 7.48039C1325.58 8.50706 1325.31 9.70706 1325.31 11.0804C1325.31 12.4537 1325.58 13.6604 1326.13 14.7004C1326.69 15.7271 1327.45 16.5204 1328.41 17.0804C1329.37 17.6271 1330.43 17.9004 1331.61 17.9004Z" fill="black"/>
<path d="M1350.77 18.1004H1350.37L1341.63 4.76039V18.1004H1341.23V4.04039H1341.63L1350.37 17.3604V4.04039H1350.77V18.1004Z" fill="black"/>
<path d="M1361.48 4.02039V4.38039H1357.38V18.1004H1356.98V4.38039H1352.88V4.02039L1361.48 4.02039Z" fill="black"/>
<path d="M1363.97 4.38039V10.8804H1369.85V11.2404H1363.97V17.7404H1370.45V18.1004H1363.57V4.02039H1370.45V4.38039H1363.97Z" fill="black"/>
<path d="M1382.68 18.1004H1382.28L1373.54 4.76039V18.1004H1373.14V4.04039H1373.54L1382.28 17.3604V4.04039H1382.68V18.1004Z" fill="black"/>
<path d="M1389.79 4.02039C1392.22 4.02039 1394.06 4.63372 1395.33 5.86039C1396.6 7.08706 1397.23 8.82039 1397.23 11.0604C1397.23 13.3004 1396.6 15.0337 1395.33 16.2604C1394.06 17.4871 1392.22 18.1004 1389.79 18.1004H1386.09V4.02039H1389.79ZM1389.79 17.7404C1392.11 17.7404 1393.86 17.1537 1395.05 15.9804C1396.24 14.8071 1396.83 13.1671 1396.83 11.0604C1396.83 8.95372 1396.24 7.31372 1395.05 6.14039C1393.86 4.96706 1392.11 4.38039 1389.79 4.38039H1386.49V17.7404H1389.79Z" fill="black"/>
<path d="M1414.69 3.66211L1414.92 10.0837L1417.74 4.31052L1415.34 10.2702L1420.26 6.14363L1415.64 10.6109L1421.82 8.84448L1415.79 11.0469L1422.15 11.9461L1415.74 11.5028L1421.19 14.9121L1415.51 11.8998L1419.1 17.2297L1415.14 12.1693L1416.25 18.4982L1414.69 12.2646L1413.13 18.4982L1414.24 12.1693L1410.28 17.2297L1413.87 11.8998L1408.19 14.9121L1413.64 11.5028L1407.23 11.9461L1413.59 11.0469L1407.56 8.84448L1413.74 10.6109L1409.12 6.14363L1414.04 10.2702L1411.64 4.31052L1414.46 10.0837L1414.69 3.66211Z" fill="black"/>
<path d="M1444.69 4.42039V18.1004H1444.29V5.40039L1438.63 18.1004H1438.23L1432.55 5.40039V18.1004H1432.15V4.42039H1432.55L1438.43 17.5804L1444.29 4.42039H1444.69Z" fill="black"/>
<path d="M1454.31 18.2604C1453.01 18.2604 1451.85 17.9604 1450.83 17.3604C1449.81 16.7471 1449.02 15.8937 1448.45 14.8004C1447.87 13.7071 1447.59 12.4671 1447.59 11.0804C1447.59 9.69372 1447.87 8.45372 1448.45 7.36039C1449.02 6.26706 1449.81 5.42039 1450.83 4.82039C1451.85 4.20706 1453.01 3.90039 1454.31 3.90039C1455.6 3.90039 1456.75 4.20706 1457.77 4.82039C1458.79 5.42039 1459.59 6.26706 1460.17 7.36039C1460.74 8.45372 1461.03 9.69372 1461.03 11.0804C1461.03 12.4671 1460.74 13.7071 1460.17 14.8004C1459.59 15.8937 1458.79 16.7471 1457.77 17.3604C1456.75 17.9604 1455.6 18.2604 1454.31 18.2604ZM1454.31 17.9004C1455.48 17.9004 1456.55 17.6271 1457.51 17.0804C1458.47 16.5204 1459.22 15.7271 1459.77 14.7004C1460.33 13.6604 1460.61 12.4537 1460.61 11.0804C1460.61 9.70706 1460.33 8.50706 1459.77 7.48039C1459.22 6.44039 1458.47 5.64706 1457.51 5.10039C1456.55 4.54039 1455.48 4.26039 1454.31 4.26039C1453.13 4.26039 1452.07 4.54039 1451.11 5.10039C1450.15 5.64706 1449.39 6.44039 1448.83 7.48039C1448.28 8.50706 1448.01 9.70706 1448.01 11.0804C1448.01 12.4537 1448.28 13.6604 1448.83 14.7004C1449.39 15.7271 1450.15 16.5204 1451.11 17.0804C1452.07 17.6271 1453.13 17.9004 1454.31 17.9004Z" fill="black"/>
<path d="M1474.01 4.02039L1468.61 18.1004H1468.21L1462.83 4.02039H1463.29L1468.41 17.5004L1473.57 4.02039H1474.01Z" fill="black"/>
<path d="M1476.71 4.02039V18.1004H1476.31V4.02039H1476.71Z" fill="black"/>
<path d="M1480.52 17.7404H1485.92V18.1004H1480.12V4.02039H1480.52V17.7404Z" fill="black"/>
<path d="M1500.88 6.15234L1501.48 8.71042L1503.21 6.72506L1502.55 9.26984L1505 8.31202L1503.23 10.2605L1505.85 10.5497L1503.38 11.4555L1505.56 12.9254L1502.95 12.581L1504.2 14.8949L1502.05 13.3793L1502.08 16.0071L1500.88 13.6673L1499.68 16.0071L1499.71 13.3793L1497.57 14.8949L1498.81 12.581L1496.21 12.9254L1498.38 11.4555L1495.92 10.5497L1498.53 10.2605L1496.77 8.31202L1499.21 9.26984L1498.56 6.72506L1500.28 8.71042L1500.88 6.15234Z" fill="black"/>
<path d="M1516.24 3.96973V12.7097C1516.24 14.4964 1516.63 15.7964 1517.4 16.6097C1518.19 17.4231 1519.25 17.8297 1520.58 17.8297C1521.89 17.8297 1522.92 17.4231 1523.68 16.6097C1524.44 15.7964 1524.82 14.4964 1524.82 12.7097V3.96973H1525.22V12.7097C1525.22 14.5764 1524.81 15.9564 1523.98 16.8497C1523.17 17.7431 1522.04 18.1897 1520.58 18.1897C1519.13 18.1897 1517.98 17.7431 1517.12 16.8497C1516.27 15.9431 1515.84 14.5631 1515.84 12.7097V3.96973H1516.24Z" fill="black"/>
<path d="M1532.04 11.0097L1536.22 18.0497H1535.76L1531.76 11.2897L1527.88 18.0497H1527.42L1531.54 10.9097L1527.42 3.96973H1527.88L1531.82 10.6297L1535.76 3.96973H1536.22L1532.04 11.0097Z" fill="black"/>
<path d="M1543.4 10.2697V10.6297H1536.12V10.2697H1543.4Z" fill="black"/>
<path d="M1547.71 3.96973V12.7097C1547.71 14.4964 1548.1 15.7964 1548.87 16.6097C1549.66 17.4231 1550.72 17.8297 1552.05 17.8297C1553.36 17.8297 1554.39 17.4231 1555.15 16.6097C1555.91 15.7964 1556.29 14.4964 1556.29 12.7097V3.96973H1556.69V12.7097C1556.69 14.5764 1556.28 15.9564 1555.45 16.8497C1554.64 17.7431 1553.5 18.1897 1552.05 18.1897C1550.6 18.1897 1549.44 17.7431 1548.59 16.8497C1547.74 15.9431 1547.31 14.5631 1547.31 12.7097V3.96973H1547.71Z" fill="black"/>
<path d="M1560.39 3.96973V18.0497H1559.99V3.96973H1560.39Z" fill="black"/>
<path d="M1577.85 3.66211L1578.08 10.0837L1580.9 4.31052L1578.49 10.2702L1583.42 6.14363L1578.8 10.6109L1584.98 8.84448L1578.94 11.0469L1585.31 11.9461L1578.9 11.5028L1584.34 14.9121L1578.67 11.8998L1582.26 17.2297L1578.3 12.1693L1579.41 18.4982L1577.85 12.2646L1576.29 18.4982L1577.4 12.1693L1573.44 17.2297L1577.03 11.8998L1571.35 14.9121L1576.8 11.5028L1570.39 11.9461L1576.75 11.0469L1570.71 8.84448L1576.89 10.6109L1572.27 6.14363L1577.2 10.2702L1574.8 4.31052L1577.62 10.0837L1577.85 3.66211Z" fill="black"/>
<path d="M1611.99 4.04004L1608.21 18.12H1607.81L1603.63 4.70004L1599.45 18.12H1599.09L1595.31 4.04004H1595.75L1599.29 17.34L1603.41 4.04004H1603.85L1608.01 17.4L1611.55 4.04004H1611.99Z" fill="black"/>
<path d="M1614.79 4.40004V10.9H1620.67V11.26H1614.79V17.76H1621.27V18.12H1614.39V4.04004H1621.27V4.40004H1614.79Z" fill="black"/>
<path d="M1629.52 10.8C1630.36 10.96 1631.06 11.3734 1631.62 12.04C1632.18 12.6934 1632.46 13.4667 1632.46 14.36C1632.46 15.4667 1632.08 16.3734 1631.32 17.08C1630.56 17.7734 1629.46 18.12 1628 18.12H1623.96V4.04004H1628C1629.4 4.04004 1630.44 4.36004 1631.12 5.00004C1631.8 5.62671 1632.14 6.45337 1632.14 7.48004C1632.14 8.41337 1631.89 9.16004 1631.38 9.72004C1630.89 10.28 1630.27 10.64 1629.52 10.8ZM1624.36 10.6H1628.12C1629.3 10.6 1630.19 10.3267 1630.8 9.78004C1631.43 9.22004 1631.74 8.45337 1631.74 7.48004C1631.74 6.54671 1631.44 5.80671 1630.82 5.26004C1630.21 4.71337 1629.27 4.44004 1628 4.44004H1624.36V10.6ZM1628 17.72C1629.28 17.72 1630.28 17.42 1630.98 16.82C1631.7 16.22 1632.06 15.4 1632.06 14.36C1632.06 13.3334 1631.7 12.52 1630.96 11.92C1630.23 11.3067 1629.23 11 1627.96 11H1624.36V17.72H1628Z" fill="black"/>
</svg>
