<svg width="8042" height="216" viewBox="0 0 8042 216" fill="none" xmlns="http://www.w3.org/2000/svg">
<rect width="8041.67" height="216" fill="white"/>
<path d="M79.1605 152V58.56H88.8885V152H79.1605ZM14.9045 152V58.56H24.6325V152H14.9045ZM22.4565 110.016V101.312H81.3365V110.016H22.4565ZM107.661 152L142.094 58.56H159.502L195.086 152H185.102L151.95 64.704L157.198 67.392H143.758L149.262 64.704L117.39 152H107.661ZM126.094 122.304L129.294 113.472H172.686L176.014 122.304H126.094ZM251.987 154.176C244.307 154.176 237.48 152.896 231.507 150.336C225.619 147.776 220.669 144.277 216.659 139.84C212.648 135.317 209.576 130.155 207.443 124.352C205.395 118.464 204.371 112.277 204.371 105.792V103.488C204.371 97.5147 205.352 91.712 207.315 86.08C209.363 80.448 212.307 75.3707 216.147 70.848C219.987 66.3253 224.765 62.7413 230.483 60.096C236.2 57.4507 242.685 56.128 249.939 56.128C257.533 56.128 264.275 57.5787 270.163 60.48C276.051 63.296 280.787 67.264 284.371 72.384C288.04 77.504 290.173 83.4347 290.771 90.176H280.915C280.232 84.7147 278.397 80.1067 275.411 76.352C272.509 72.5973 268.84 69.7813 264.403 67.904C259.965 66.0267 255.144 65.088 249.939 65.088C244.477 65.088 239.528 66.0693 235.091 68.032C230.653 69.9947 226.899 72.768 223.827 76.352C220.755 79.936 218.365 84.16 216.659 89.024C215.037 93.8027 214.227 99.0507 214.227 104.768C214.227 110.827 215.08 116.373 216.787 121.408C218.493 126.357 220.968 130.624 224.211 134.208C227.453 137.792 231.379 140.565 235.987 142.528C240.68 144.491 246.013 145.472 251.987 145.472C259.325 145.472 265.768 144.064 271.315 141.248C276.947 138.347 281.299 134.549 284.371 129.856L280.531 141.888V114.24H289.747V137.536C285.736 142.741 280.531 146.837 274.131 149.824C267.731 152.725 260.349 154.176 251.987 154.176ZM248.531 116.288V108.096H298.067V116.288H248.531ZM305.911 152L340.344 58.56H357.752L393.336 152H383.352L350.2 64.704L355.448 67.392H342.008L347.512 64.704L315.64 152H305.911ZM324.344 122.304L327.544 113.472H370.936L374.264 122.304H324.344ZM412.155 152V58.56H424.827L454.267 123.2H456.571L485.883 58.56H498.811V152H489.083V69.44L489.851 69.568L461.435 132.288H448.635L420.091 69.568L421.115 69.44V152H412.155ZM568.99 154.176C560.883 154.176 553.843 152.725 547.87 149.824C541.896 146.923 536.947 143.083 533.022 138.304C529.096 133.525 526.152 128.32 524.19 122.688C522.227 117.056 521.246 111.552 521.246 106.176V103.872C521.246 98.1547 522.227 92.48 524.19 86.848C526.238 81.1307 529.267 75.968 533.278 71.36C537.288 66.752 542.28 63.0827 548.254 60.352C554.227 57.536 561.139 56.128 568.99 56.128C576.926 56.128 583.838 57.536 589.726 60.352C595.699 63.0827 600.691 66.752 604.702 71.36C608.712 75.968 611.699 81.1307 613.662 86.848C615.71 92.48 616.734 98.1547 616.734 103.872V106.304C616.734 111.68 615.752 117.184 613.79 122.816C611.912 128.363 608.968 133.525 604.958 138.304C601.032 143.083 596.083 146.923 590.11 149.824C584.136 152.725 577.096 154.176 568.99 154.176ZM568.99 145.216C574.963 145.216 580.296 144.149 584.99 142.016C589.683 139.797 593.651 136.811 596.894 133.056C600.136 129.216 602.611 124.907 604.318 120.128C606.024 115.349 606.878 110.357 606.878 105.152C606.878 99.6907 606.024 94.5707 604.318 89.792C602.611 85.0133 600.094 80.7893 596.766 77.12C593.523 73.3653 589.555 70.4213 584.862 68.288C580.168 66.1547 574.878 65.088 568.99 65.088C563.187 65.088 557.939 66.1547 553.246 68.288C548.552 70.4213 544.542 73.3653 541.214 77.12C537.971 80.7893 535.454 85.0133 533.662 89.792C531.955 94.5707 531.102 99.6907 531.102 105.152C531.102 110.357 531.955 115.349 533.662 120.128C535.368 124.907 537.843 129.216 541.086 133.056C544.328 136.811 548.296 139.797 552.99 142.016C557.768 144.149 563.102 145.216 568.99 145.216ZM668.982 154.176C661.131 154.176 654.518 152.939 649.142 150.464C643.766 147.904 639.67 144.405 636.854 139.968C634.123 135.445 632.758 130.368 632.758 124.736H642.486C642.486 128.32 643.339 131.691 645.046 134.848C646.838 137.92 649.654 140.437 653.494 142.4C657.419 144.277 662.582 145.216 668.982 145.216C674.87 145.216 679.734 144.363 683.574 142.656C687.499 140.949 690.4 138.645 692.278 135.744C694.24 132.843 695.222 129.6 695.222 126.016C695.222 121.493 693.43 117.739 689.846 114.752C686.347 111.68 681.056 109.845 673.974 109.248L663.222 108.224C655.2 107.541 648.8 105.067 644.022 100.8C639.328 96.448 636.982 90.7307 636.982 83.648C636.982 78.272 638.262 73.536 640.822 69.44C643.382 65.344 647.008 62.1013 651.702 59.712C656.48 57.3227 662.198 56.128 668.854 56.128C675.595 56.128 681.355 57.3653 686.134 59.84C690.998 62.2293 694.71 65.5573 697.27 69.824C699.83 74.0907 701.11 79.04 701.11 84.672H691.382C691.382 81.2587 690.613 78.0587 689.077 75.072C687.542 72.0853 685.11 69.696 681.782 67.904C678.454 66.0267 674.144 65.088 668.854 65.088C663.819 65.088 659.638 65.9413 656.31 67.648C653.067 69.3547 650.635 71.616 649.014 74.432C647.478 77.248 646.71 80.32 646.71 83.648C646.71 87.8293 648.203 91.3707 651.19 94.272C654.176 97.1733 658.486 98.8373 664.118 99.264L674.87 100.288C681.184 100.8 686.56 102.208 690.998 104.512C695.52 106.731 698.976 109.675 701.366 113.344C703.755 116.928 704.95 121.152 704.95 126.016C704.95 131.477 703.456 136.341 700.47 140.608C697.568 144.875 693.43 148.203 688.054 150.592C682.678 152.981 676.32 154.176 668.982 154.176ZM758.155 152V58.176H767.883V152H758.155ZM816.139 152L784.267 110.656H795.659L828.043 152H816.139ZM763.915 116.544V107.84H789.003C793.611 107.84 797.451 106.944 800.523 105.152C803.595 103.36 805.899 100.928 807.435 97.856C808.971 94.784 809.739 91.2853 809.739 87.36C809.739 83.4347 808.971 79.936 807.435 76.864C805.899 73.792 803.595 71.36 800.523 69.568C797.451 67.6907 793.611 66.752 789.003 66.752H763.915V58.176H787.339C794.251 58.176 800.096 59.2853 804.875 61.504C809.739 63.6373 813.408 66.8373 815.882 71.104C818.443 75.2853 819.723 80.4053 819.723 86.464V88.256C819.723 94.3147 818.443 99.4773 815.882 103.744C813.323 107.925 809.653 111.125 804.875 113.344C800.096 115.477 794.251 116.544 787.339 116.544H763.915ZM846.03 152V58.56H855.758V152H846.03ZM853.454 152V143.168H900.174V152H853.454ZM853.454 108.864V100.16H895.822V108.864H853.454ZM853.454 67.392V58.56H898.766V67.392H853.454ZM912.786 152L947.219 58.56H964.627L1000.21 152H990.227L957.075 64.704L962.323 67.392H948.883L954.387 64.704L922.515 152H912.786ZM931.219 122.304L934.419 113.472H977.811L981.139 122.304H931.219ZM1019.03 152V58.56H1028.76V152H1019.03ZM1026.2 152V143.168H1070.1V152H1026.2ZM1088.29 152V58.56H1098.01V152H1088.29ZM1134.57 152.512V143.552H1160.04C1166.36 143.552 1171.86 142.528 1176.56 140.48C1181.34 138.432 1185.35 135.659 1188.59 132.16C1191.83 128.576 1194.26 124.48 1195.88 119.872C1197.51 115.264 1198.32 110.357 1198.32 105.152C1198.32 99.776 1197.46 94.784 1195.76 90.176C1194.14 85.568 1191.7 81.5147 1188.46 78.016C1185.22 74.5173 1181.21 71.8293 1176.43 69.952C1171.74 68.0747 1166.27 67.136 1160.04 67.136H1134.57V58.176H1159.02C1167.38 58.176 1174.64 59.456 1180.78 62.016C1186.92 64.576 1192.04 68.0747 1196.14 72.512C1200.24 76.864 1203.27 81.7707 1205.23 87.232C1207.19 92.6933 1208.17 98.24 1208.17 103.872V106.304C1208.17 111.851 1207.19 117.355 1205.23 122.816C1203.27 128.277 1200.28 133.269 1196.27 137.792C1192.26 142.229 1187.14 145.813 1180.91 148.544C1174.76 151.189 1167.47 152.512 1159.02 152.512H1134.57ZM1127.4 152.512V58.176H1137.13V152.512H1127.4ZM1216.04 152L1250.47 58.56H1267.88L1303.46 152H1293.48L1260.32 64.704L1265.57 67.392H1252.13L1257.64 64.704L1225.76 152H1216.04ZM1234.47 122.304L1237.67 113.472H1281.06L1284.39 122.304H1234.47ZM1329.45 152.512V143.552H1354.92C1361.23 143.552 1366.74 142.528 1371.43 140.48C1376.21 138.432 1380.22 135.659 1383.46 132.16C1386.71 128.576 1389.14 124.48 1390.76 119.872C1392.38 115.264 1393.19 110.357 1393.19 105.152C1393.19 99.776 1392.34 94.784 1390.63 90.176C1389.01 85.568 1386.58 81.5147 1383.34 78.016C1380.09 74.5173 1376.08 71.8293 1371.3 69.952C1366.61 68.0747 1361.15 67.136 1354.92 67.136H1329.45V58.176H1353.9C1362.26 58.176 1369.51 59.456 1375.66 62.016C1381.8 64.576 1386.92 68.0747 1391.02 72.512C1395.11 76.864 1398.14 81.7707 1400.1 87.232C1402.07 92.6933 1403.05 98.24 1403.05 103.872V106.304C1403.05 111.851 1402.07 117.355 1400.1 122.816C1398.14 128.277 1395.15 133.269 1391.14 137.792C1387.13 142.229 1382.01 145.813 1375.78 148.544C1369.64 151.189 1362.34 152.512 1353.9 152.512H1329.45ZM1322.28 152.512V58.176H1332.01V152.512H1322.28ZM1472.08 152V64.96H1481.81V152H1472.08ZM1442.9 67.392V58.56H1510.99V67.392H1442.9ZM1565.26 154.176C1556.72 154.176 1549.64 152.555 1544.01 149.312C1538.38 146.069 1534.15 141.547 1531.34 135.744C1528.52 129.856 1527.11 123.115 1527.11 115.52V58.56H1536.84V116.672C1536.84 122.389 1537.86 127.381 1539.91 131.648C1542.05 135.915 1545.2 139.243 1549.38 141.632C1553.65 144.021 1558.94 145.216 1565.26 145.216C1571.49 145.216 1576.69 144.064 1580.87 141.76C1585.05 139.371 1588.21 136.043 1590.34 131.776C1592.48 127.424 1593.54 122.389 1593.54 116.672V58.56H1603.27V115.52C1603.27 123.115 1601.86 129.856 1599.05 135.744C1596.23 141.547 1592.01 146.069 1586.38 149.312C1580.83 152.555 1573.79 154.176 1565.26 154.176ZM1660.61 154.176C1652.76 154.176 1646.14 152.939 1640.77 150.464C1635.39 147.904 1631.29 144.405 1628.48 139.968C1625.75 135.445 1624.38 130.368 1624.38 124.736H1634.11C1634.11 128.32 1634.96 131.691 1636.67 134.848C1638.46 137.92 1641.28 140.437 1645.12 142.4C1649.04 144.277 1654.21 145.216 1660.61 145.216C1666.49 145.216 1671.36 144.363 1675.2 142.656C1679.12 140.949 1682.03 138.645 1683.9 135.744C1685.87 132.843 1686.85 129.6 1686.85 126.016C1686.85 121.493 1685.05 117.739 1681.47 114.752C1677.97 111.68 1672.68 109.845 1665.6 109.248L1654.85 108.224C1646.83 107.541 1640.43 105.067 1635.65 100.8C1630.95 96.448 1628.61 90.7307 1628.61 83.648C1628.61 78.272 1629.89 73.536 1632.45 69.44C1635.01 65.344 1638.63 62.1013 1643.33 59.712C1648.11 57.3227 1653.82 56.128 1660.48 56.128C1667.22 56.128 1672.98 57.3653 1677.76 59.84C1682.62 62.2293 1686.33 65.5573 1688.89 69.824C1691.45 74.0907 1692.73 79.04 1692.73 84.672H1683.01C1683.01 81.2587 1682.24 78.0587 1680.7 75.072C1679.17 72.0853 1676.73 69.696 1673.41 67.904C1670.08 66.0267 1665.77 65.088 1660.48 65.088C1655.44 65.088 1651.26 65.9413 1647.93 67.648C1644.69 69.3547 1642.26 71.616 1640.64 74.432C1639.1 77.248 1638.33 80.32 1638.33 83.648C1638.33 87.8293 1639.83 91.3707 1642.81 94.272C1645.8 97.1733 1650.11 98.8373 1655.74 99.264L1666.49 100.288C1672.81 100.8 1678.19 102.208 1682.62 104.512C1687.15 106.731 1690.6 109.675 1692.99 113.344C1695.38 116.928 1696.57 121.152 1696.57 126.016C1696.57 131.477 1695.08 136.341 1692.09 140.608C1689.19 144.875 1685.05 148.203 1679.68 150.592C1674.3 152.981 1667.95 154.176 1660.61 154.176ZM1750.04 152V58.56H1759.76V152H1750.04ZM1796.32 152.512V143.552H1821.79C1828.11 143.552 1833.61 142.528 1838.31 140.48C1843.09 138.432 1847.1 135.659 1850.34 132.16C1853.58 128.576 1856.01 124.48 1857.63 119.872C1859.26 115.264 1860.07 110.357 1860.07 105.152C1860.07 99.776 1859.21 94.784 1857.51 90.176C1855.89 85.568 1853.45 81.5147 1850.21 78.016C1846.97 74.5173 1842.96 71.8293 1838.18 69.952C1833.49 68.0747 1828.02 67.136 1821.79 67.136H1796.32V58.176H1820.77C1829.13 58.176 1836.39 59.456 1842.53 62.016C1848.67 64.576 1853.79 68.0747 1857.89 72.512C1861.99 76.864 1865.02 81.7707 1866.98 87.232C1868.94 92.6933 1869.92 98.24 1869.92 103.872V106.304C1869.92 111.851 1868.94 117.355 1866.98 122.816C1865.02 128.277 1862.03 133.269 1858.02 137.792C1854.01 142.229 1848.89 145.813 1842.66 148.544C1836.51 151.189 1829.22 152.512 1820.77 152.512H1796.32ZM1789.15 152.512V58.176H1798.88V152.512H1789.15ZM1890.9 152V58.56H1900.63V152H1890.9ZM1898.33 152V143.168H1945.05V152H1898.33ZM1898.33 108.864V100.16H1940.7V108.864H1898.33ZM1898.33 67.392V58.56H1943.64V67.392H1898.33ZM1957.66 152L1992.09 58.56H2009.5L2045.09 152H2035.1L2001.95 64.704L2007.2 67.392H1993.76L1999.26 64.704L1967.39 152H1957.66ZM1976.09 122.304L1979.29 113.472H2022.69L2026.01 122.304H1976.09ZM2092.98 154.176C2085.13 154.176 2078.52 152.939 2073.14 150.464C2067.77 147.904 2063.67 144.405 2060.85 139.968C2058.12 135.445 2056.76 130.368 2056.76 124.736H2066.49C2066.49 128.32 2067.34 131.691 2069.05 134.848C2070.84 137.92 2073.65 140.437 2077.49 142.4C2081.42 144.277 2086.58 145.216 2092.98 145.216C2098.87 145.216 2103.73 144.363 2107.57 142.656C2111.5 140.949 2114.4 138.645 2116.28 135.744C2118.24 132.843 2119.22 129.6 2119.22 126.016C2119.22 121.493 2117.43 117.739 2113.85 114.752C2110.35 111.68 2105.06 109.845 2097.97 109.248L2087.22 108.224C2079.2 107.541 2072.8 105.067 2068.02 100.8C2063.33 96.448 2060.98 90.7307 2060.98 83.648C2060.98 78.272 2062.26 73.536 2064.82 69.44C2067.38 65.344 2071.01 62.1013 2075.7 59.712C2080.48 57.3227 2086.2 56.128 2092.85 56.128C2099.59 56.128 2105.35 57.3653 2110.13 59.84C2115 62.2293 2118.71 65.5573 2121.27 69.824C2123.83 74.0907 2125.11 79.04 2125.11 84.672H2115.38C2115.38 81.2587 2114.61 78.0587 2113.08 75.072C2111.54 72.0853 2109.11 69.696 2105.78 67.904C2102.45 66.0267 2098.14 65.088 2092.85 65.088C2087.82 65.088 2083.64 65.9413 2080.31 67.648C2077.07 69.3547 2074.63 71.616 2073.01 74.432C2071.48 77.248 2070.71 80.32 2070.71 83.648C2070.71 87.8293 2072.2 91.3707 2075.19 94.272C2078.18 97.1733 2082.49 98.8373 2088.12 99.264L2098.87 100.288C2105.18 100.8 2110.56 102.208 2115 104.512C2119.52 106.731 2122.98 109.675 2125.37 113.344C2127.75 116.928 2128.95 121.152 2128.95 126.016C2128.95 131.477 2127.46 136.341 2124.47 140.608C2121.57 144.875 2117.43 148.203 2112.05 150.592C2106.68 152.981 2100.32 154.176 2092.98 154.176Z" fill="black"/>
<path d="M2208.94 63.0608L2212.87 96.0462L2225.33 65.2506L2217.09 97.4302L2239.82 73.214L2220.51 100.242L2250.46 85.8754L2222.69 104.101L2255.81 101.525L2223.33 108.487L2255.14 118.049L2222.34 112.807L2248.55 133.216L2219.85 116.478L2236.92 144.977L2216.21 119.004L2221.83 151.744L2211.9 120.044L2205.32 152.604L2207.51 119.457L2189.61 147.439L2203.63 117.323L2176.82 136.948L2200.78 113.929L2168.69 122.548L2199.34 109.735L2166.31 106.182L2199.52 105.307L2170.01 90.0623L2201.29 101.242L2179.27 76.365L2204.4 98.0901L2192.86 66.9402L2208.45 96.2765L2208.94 63.0608Z" fill="#FDBD39"/>
<path d="M2329.29 154.176C2321.44 154.176 2314.82 152.939 2309.45 150.464C2304.07 147.904 2299.98 144.405 2297.16 139.968C2294.43 135.445 2293.06 130.368 2293.06 124.736H2302.79C2302.79 128.32 2303.64 131.691 2305.35 134.848C2307.14 137.92 2309.96 140.437 2313.8 142.4C2317.72 144.277 2322.89 145.216 2329.29 145.216C2335.18 145.216 2340.04 144.363 2343.88 142.656C2347.8 140.949 2350.71 138.645 2352.58 135.744C2354.55 132.843 2355.53 129.6 2355.53 126.016C2355.53 121.493 2353.74 117.739 2350.15 114.752C2346.65 111.68 2341.36 109.845 2334.28 109.248L2323.53 108.224C2315.51 107.541 2309.11 105.067 2304.33 100.8C2299.63 96.448 2297.29 90.7307 2297.29 83.648C2297.29 78.272 2298.57 73.536 2301.13 69.44C2303.69 65.344 2307.31 62.1013 2312.01 59.712C2316.79 57.3227 2322.5 56.128 2329.16 56.128C2335.9 56.128 2341.66 57.3653 2346.44 59.84C2351.3 62.2293 2355.02 65.5573 2357.58 69.824C2360.14 74.0907 2361.42 79.04 2361.42 84.672H2351.69C2351.69 81.2587 2350.92 78.0587 2349.38 75.072C2347.85 72.0853 2345.42 69.696 2342.09 67.904C2338.76 66.0267 2334.45 65.088 2329.16 65.088C2324.12 65.088 2319.94 65.9413 2316.62 67.648C2313.37 69.3547 2310.94 71.616 2309.32 74.432C2307.78 77.248 2307.02 80.32 2307.02 83.648C2307.02 87.8293 2308.51 91.3707 2311.5 94.272C2314.48 97.1733 2318.79 98.8373 2324.42 99.264L2335.18 100.288C2341.49 100.8 2346.87 102.208 2351.3 104.512C2355.83 106.731 2359.28 109.675 2361.67 113.344C2364.06 116.928 2365.26 121.152 2365.26 126.016C2365.26 131.477 2363.76 136.341 2360.78 140.608C2357.87 144.875 2353.74 148.203 2348.36 150.592C2342.98 152.981 2336.63 154.176 2329.29 154.176ZM2429.55 154.176C2421.44 154.176 2414.4 152.725 2408.43 149.824C2402.45 146.923 2397.5 143.083 2393.58 138.304C2389.65 133.525 2386.71 128.32 2384.75 122.688C2382.78 117.056 2381.8 111.552 2381.8 106.176V103.872C2381.8 98.1547 2382.78 92.48 2384.75 86.848C2386.79 81.1307 2389.82 75.968 2393.83 71.36C2397.84 66.752 2402.84 63.0827 2408.81 60.352C2414.78 57.536 2421.69 56.128 2429.55 56.128C2437.48 56.128 2444.39 57.536 2450.28 60.352C2456.25 63.0827 2461.25 66.752 2465.26 71.36C2469.27 75.968 2472.25 81.1307 2474.22 86.848C2476.27 92.48 2477.29 98.1547 2477.29 103.872V106.304C2477.29 111.68 2476.31 117.184 2474.35 122.816C2472.47 128.363 2469.52 133.525 2465.51 138.304C2461.59 143.083 2456.64 146.923 2450.67 149.824C2444.69 152.725 2437.65 154.176 2429.55 154.176ZM2429.55 145.216C2435.52 145.216 2440.85 144.149 2445.55 142.016C2450.24 139.797 2454.21 136.811 2457.45 133.056C2460.69 129.216 2463.17 124.907 2464.87 120.128C2466.58 115.349 2467.43 110.357 2467.43 105.152C2467.43 99.6907 2466.58 94.5707 2464.87 89.792C2463.17 85.0133 2460.65 80.7893 2457.32 77.12C2454.08 73.3653 2450.11 70.4213 2445.42 68.288C2440.72 66.1547 2435.43 65.088 2429.55 65.088C2423.74 65.088 2418.49 66.1547 2413.8 68.288C2409.11 70.4213 2405.1 73.3653 2401.77 77.12C2398.53 80.7893 2396.01 85.0133 2394.22 89.792C2392.51 94.5707 2391.66 99.6907 2391.66 105.152C2391.66 110.357 2392.51 115.349 2394.22 120.128C2395.92 124.907 2398.4 129.216 2401.64 133.056C2404.88 136.811 2408.85 139.797 2413.55 142.016C2418.32 144.149 2423.66 145.216 2429.55 145.216ZM2499.59 152V58.56H2509.31V152H2499.59ZM2506.75 152V143.168H2550.66V152H2506.75ZM2602.81 154.176C2594.28 154.176 2587.2 152.555 2581.56 149.312C2575.93 146.069 2571.71 141.547 2568.89 135.744C2566.08 129.856 2564.67 123.115 2564.67 115.52V58.56H2574.4V116.672C2574.4 122.389 2575.42 127.381 2577.47 131.648C2579.6 135.915 2582.76 139.243 2586.94 141.632C2591.21 144.021 2596.5 145.216 2602.81 145.216C2609.04 145.216 2614.25 144.064 2618.43 141.76C2622.61 139.371 2625.77 136.043 2627.9 131.776C2630.03 127.424 2631.1 122.389 2631.1 116.672V58.56H2640.83V115.52C2640.83 123.115 2639.42 129.856 2636.6 135.744C2633.79 141.547 2629.56 146.069 2623.93 149.312C2618.39 152.555 2611.35 154.176 2602.81 154.176ZM2708.02 154.176C2699.66 154.176 2692.49 152.725 2686.51 149.824C2680.63 146.837 2675.8 142.955 2672.05 138.176C2668.38 133.397 2665.69 128.235 2663.99 122.688C2662.28 117.056 2661.43 111.595 2661.43 106.304V103.872C2661.43 98.1547 2662.28 92.48 2663.99 86.848C2665.78 81.1307 2668.51 75.968 2672.18 71.36C2675.93 66.752 2680.71 63.0827 2686.51 60.352C2692.32 57.536 2699.19 56.128 2707.12 56.128C2715.14 56.128 2722.06 57.536 2727.86 60.352C2733.75 63.168 2738.44 67.136 2741.94 72.256C2745.44 77.2907 2747.57 83.264 2748.34 90.176H2738.48C2737.8 84.6293 2736.01 80.0213 2733.11 76.352C2730.2 72.5973 2726.49 69.7813 2721.97 67.904C2717.53 66.0267 2712.58 65.088 2707.12 65.088C2701.23 65.088 2696.03 66.1547 2691.51 68.288C2687.07 70.336 2683.36 73.2373 2680.37 76.992C2677.38 80.6613 2675.12 84.928 2673.59 89.792C2672.05 94.5707 2671.28 99.6907 2671.28 105.152C2671.28 110.357 2672.01 115.349 2673.46 120.128C2674.99 124.907 2677.3 129.216 2680.37 133.056C2683.44 136.811 2687.28 139.797 2691.89 142.016C2696.5 144.149 2701.87 145.216 2708.02 145.216C2716.55 145.216 2723.72 143.083 2729.52 138.816C2735.32 134.464 2738.91 128.235 2740.27 120.128H2750.13C2749.19 126.528 2746.97 132.331 2743.47 137.536C2739.98 142.656 2735.24 146.709 2729.27 149.696C2723.38 152.683 2716.3 154.176 2708.02 154.176ZM2770.09 152V58.56H2779.82V152H2770.09ZM2850.17 154.176C2842.06 154.176 2835.02 152.725 2829.05 149.824C2823.08 146.923 2818.13 143.083 2814.2 138.304C2810.28 133.525 2807.33 128.32 2805.37 122.688C2803.41 117.056 2802.43 111.552 2802.43 106.176V103.872C2802.43 98.1547 2803.41 92.48 2805.37 86.848C2807.42 81.1307 2810.45 75.968 2814.46 71.36C2818.47 66.752 2823.46 63.0827 2829.43 60.352C2835.41 57.536 2842.32 56.128 2850.17 56.128C2858.11 56.128 2865.02 57.536 2870.91 60.352C2876.88 63.0827 2881.87 66.752 2885.88 71.36C2889.89 75.968 2892.88 81.1307 2894.84 86.848C2896.89 92.48 2897.91 98.1547 2897.91 103.872V106.304C2897.91 111.68 2896.93 117.184 2894.97 122.816C2893.09 128.363 2890.15 133.525 2886.14 138.304C2882.21 143.083 2877.26 146.923 2871.29 149.824C2865.32 152.725 2858.28 154.176 2850.17 154.176ZM2850.17 145.216C2856.14 145.216 2861.48 144.149 2866.17 142.016C2870.86 139.797 2874.83 136.811 2878.07 133.056C2881.32 129.216 2883.79 124.907 2885.5 120.128C2887.2 115.349 2888.06 110.357 2888.06 105.152C2888.06 99.6907 2887.2 94.5707 2885.5 89.792C2883.79 85.0133 2881.27 80.7893 2877.95 77.12C2874.7 73.3653 2870.74 70.4213 2866.04 68.288C2861.35 66.1547 2856.06 65.088 2850.17 65.088C2844.37 65.088 2839.12 66.1547 2834.43 68.288C2829.73 70.4213 2825.72 73.3653 2822.39 77.12C2819.15 80.7893 2816.63 85.0133 2814.84 89.792C2813.14 94.5707 2812.28 99.6907 2812.28 105.152C2812.28 110.357 2813.14 115.349 2814.84 120.128C2816.55 124.907 2819.02 129.216 2822.27 133.056C2825.51 136.811 2829.48 139.797 2834.17 142.016C2838.95 144.149 2844.28 145.216 2850.17 145.216ZM2920.21 152V58.56H2936.47L2987.67 143.168H2991.76L2989.2 145.216V58.56H2998.55V152H2982.16L2930.96 67.392H2926.87L2929.43 65.344V152H2920.21ZM3027.71 152V58.56H3037.44V152H3027.71ZM3035.13 152V143.168H3081.85V152H3035.13ZM3035.13 108.864V100.16H3077.5V108.864H3035.13ZM3035.13 67.392V58.56H3080.45V67.392H3035.13ZM3133.66 154.176C3125.81 154.176 3119.2 152.939 3113.82 150.464C3108.45 147.904 3104.35 144.405 3101.53 139.968C3098.8 135.445 3097.44 130.368 3097.44 124.736H3107.17C3107.17 128.32 3108.02 131.691 3109.73 134.848C3111.52 137.92 3114.33 140.437 3118.17 142.4C3122.1 144.277 3127.26 145.216 3133.66 145.216C3139.55 145.216 3144.41 144.363 3148.25 142.656C3152.18 140.949 3155.08 138.645 3156.96 135.744C3158.92 132.843 3159.9 129.6 3159.9 126.016C3159.9 121.493 3158.11 117.739 3154.53 114.752C3151.03 111.68 3145.74 109.845 3138.65 109.248L3127.9 108.224C3119.88 107.541 3113.48 105.067 3108.7 100.8C3104.01 96.448 3101.66 90.7307 3101.66 83.648C3101.66 78.272 3102.94 73.536 3105.5 69.44C3108.06 65.344 3111.69 62.1013 3116.38 59.712C3121.16 57.3227 3126.88 56.128 3133.53 56.128C3140.28 56.128 3146.04 57.3653 3150.81 59.84C3155.68 62.2293 3159.39 65.5573 3161.95 69.824C3164.51 74.0907 3165.79 79.04 3165.79 84.672H3156.06C3156.06 81.2587 3155.29 78.0587 3153.76 75.072C3152.22 72.0853 3149.79 69.696 3146.46 67.904C3143.13 66.0267 3138.82 65.088 3133.53 65.088C3128.5 65.088 3124.32 65.9413 3120.99 67.648C3117.75 69.3547 3115.32 71.616 3113.69 74.432C3112.16 77.248 3111.39 80.32 3111.39 83.648C3111.39 87.8293 3112.88 91.3707 3115.87 94.272C3118.86 97.1733 3123.17 98.8373 3128.8 99.264L3139.55 100.288C3145.86 100.8 3151.24 102.208 3155.68 104.512C3160.2 106.731 3163.66 109.675 3166.05 113.344C3168.44 116.928 3169.63 121.152 3169.63 126.016C3169.63 131.477 3168.14 136.341 3165.15 140.608C3162.25 144.875 3158.11 148.203 3152.73 150.592C3147.36 152.981 3141 154.176 3133.66 154.176ZM3262.64 154.176C3254.28 154.176 3247.11 152.725 3241.14 149.824C3235.25 146.837 3230.43 142.955 3226.68 138.176C3223.01 133.397 3220.32 128.235 3218.61 122.688C3216.9 117.056 3216.05 111.595 3216.05 106.304V103.872C3216.05 98.1547 3216.9 92.48 3218.61 86.848C3220.4 81.1307 3223.13 75.968 3226.8 71.36C3230.56 66.752 3235.34 63.0827 3241.14 60.352C3246.94 57.536 3253.81 56.128 3261.75 56.128C3269.77 56.128 3276.68 57.536 3282.48 60.352C3288.37 63.168 3293.06 67.136 3296.56 72.256C3300.06 77.2907 3302.2 83.264 3302.96 90.176H3293.11C3292.42 84.6293 3290.63 80.0213 3287.73 76.352C3284.83 72.5973 3281.12 69.7813 3276.6 67.904C3272.16 66.0267 3267.21 65.088 3261.75 65.088C3255.86 65.088 3250.65 66.1547 3246.13 68.288C3241.69 70.336 3237.98 73.2373 3235 76.992C3232.01 80.6613 3229.75 84.928 3228.21 89.792C3226.68 94.5707 3225.91 99.6907 3225.91 105.152C3225.91 110.357 3226.63 115.349 3228.08 120.128C3229.62 124.907 3231.92 129.216 3235 133.056C3238.07 136.811 3241.91 139.797 3246.52 142.016C3251.12 144.149 3256.5 145.216 3262.64 145.216C3271.18 145.216 3278.34 143.083 3284.15 138.816C3289.95 134.464 3293.53 128.235 3294.9 120.128H3304.76C3303.82 126.528 3301.6 132.331 3298.1 137.536C3294.6 142.656 3289.86 146.709 3283.89 149.696C3278 152.683 3270.92 154.176 3262.64 154.176ZM3324.46 152V58.176H3334.19V152H3324.46ZM3382.44 152L3350.57 110.656H3361.96L3394.35 152H3382.44ZM3330.22 116.544V107.84H3355.31C3359.92 107.84 3363.76 106.944 3366.83 105.152C3369.9 103.36 3372.2 100.928 3373.74 97.856C3375.28 94.784 3376.04 91.2853 3376.04 87.36C3376.04 83.4347 3375.28 79.936 3373.74 76.864C3372.2 73.792 3369.9 71.36 3366.83 69.568C3363.76 67.6907 3359.92 66.752 3355.31 66.752H3330.22V58.176H3353.64C3360.56 58.176 3366.4 59.2853 3371.18 61.504C3376.04 63.6373 3379.71 66.8373 3382.19 71.104C3384.75 75.2853 3386.03 80.4053 3386.03 86.464V88.256C3386.03 94.3147 3384.75 99.4773 3382.19 103.744C3379.63 107.925 3375.96 111.125 3371.18 113.344C3366.4 115.477 3360.56 116.544 3353.64 116.544H3330.22ZM3412.34 152V58.56H3422.06V152H3412.34ZM3419.76 152V143.168H3466.48V152H3419.76ZM3419.76 108.864V100.16H3462.13V108.864H3419.76ZM3419.76 67.392V58.56H3465.07V67.392H3419.76ZM3479.09 152L3513.52 58.56H3530.93L3566.52 152H3556.53L3523.38 64.704L3528.63 67.392H3515.19L3520.69 64.704L3488.82 152H3479.09ZM3497.52 122.304L3500.72 113.472H3544.12L3547.44 122.304H3497.52ZM3596.76 152V64.96H3606.49V152H3596.76ZM3567.58 67.392V58.56H3635.67V67.392H3567.58ZM3654.09 152V58.56H3663.82V152H3654.09ZM3715.1 152L3681.69 58.56H3691.67L3722.65 145.984L3717.4 143.168H3730.97L3725.34 145.984L3754.14 58.56H3763.99L3732.63 152H3715.1ZM3767.34 152L3801.77 58.56H3819.18L3854.77 152H3844.78L3811.63 64.704L3816.88 67.392H3803.44L3808.94 64.704L3777.07 152H3767.34ZM3785.77 122.304L3788.97 113.472H3832.37L3835.69 122.304H3785.77ZM3902.66 154.176C3894.81 154.176 3888.2 152.939 3882.82 150.464C3877.45 147.904 3873.35 144.405 3870.53 139.968C3867.8 135.445 3866.44 130.368 3866.44 124.736H3876.17C3876.17 128.32 3877.02 131.691 3878.73 134.848C3880.52 137.92 3883.33 140.437 3887.17 142.4C3891.1 144.277 3896.26 145.216 3902.66 145.216C3908.55 145.216 3913.41 144.363 3917.25 142.656C3921.18 140.949 3924.08 138.645 3925.96 135.744C3927.92 132.843 3928.9 129.6 3928.9 126.016C3928.9 121.493 3927.11 117.739 3923.53 114.752C3920.03 111.68 3914.74 109.845 3907.65 109.248L3896.9 108.224C3888.88 107.541 3882.48 105.067 3877.7 100.8C3873.01 96.448 3870.66 90.7307 3870.66 83.648C3870.66 78.272 3871.94 73.536 3874.5 69.44C3877.06 65.344 3880.69 62.1013 3885.38 59.712C3890.16 57.3227 3895.88 56.128 3902.53 56.128C3909.28 56.128 3915.04 57.3653 3919.81 59.84C3924.68 62.2293 3928.39 65.5573 3930.95 69.824C3933.51 74.0907 3934.79 79.04 3934.79 84.672H3925.06C3925.06 81.2587 3924.29 78.0587 3922.76 75.072C3921.22 72.0853 3918.79 69.696 3915.46 67.904C3912.13 66.0267 3907.82 65.088 3902.53 65.088C3897.5 65.088 3893.32 65.9413 3889.99 67.648C3886.75 69.3547 3884.32 71.616 3882.69 74.432C3881.16 77.248 3880.39 80.32 3880.39 83.648C3880.39 87.8293 3881.88 91.3707 3884.87 94.272C3887.86 97.1733 3892.17 98.8373 3897.8 99.264L3908.55 100.288C3914.86 100.8 3920.24 102.208 3924.68 104.512C3929.2 106.731 3932.66 109.675 3935.05 113.344C3937.44 116.928 3938.63 121.152 3938.63 126.016C3938.63 131.477 3937.14 136.341 3934.15 140.608C3931.25 144.875 3927.11 148.203 3921.73 150.592C3916.36 152.981 3910 154.176 3902.66 154.176Z" fill="black"/>
<path d="M4018.49 63.0608L4024.89 77.6694L4034.89 65.2506L4035.57 81.1813L4049.38 73.214L4044.26 88.3152L4060.02 85.8754L4049.79 98.1076L4065.37 101.525L4051.41 109.236L4064.7 118.049L4048.9 120.198L4058.11 133.216L4042.6 129.512L4046.48 144.977L4033.36 135.921L4031.39 151.744L4022.42 138.559L4014.87 152.604L4011.28 137.07L3999.16 147.439L4001.42 131.654L3986.38 136.948L3994.19 123.045L3978.25 122.548L3990.55 112.403L3975.87 106.182L3991.01 101.167L3979.56 90.0623L3995.49 90.8533L3988.83 76.365L4003.39 82.8556L4002.42 66.9402L4013.66 78.2538L4018.49 63.0608Z" fill="#FDBD39"/>
<path d="M4173.27 152V58.56H4183V152H4173.27ZM4109.02 152V58.56H4118.74V152H4109.02ZM4116.57 110.016V101.312H4175.45V110.016H4116.57ZM4201.77 152L4236.2 58.56H4253.61L4289.2 152H4279.21L4246.06 64.704L4251.31 67.392H4237.87L4243.37 64.704L4211.5 152H4201.77ZM4220.2 122.304L4223.4 113.472H4266.8L4270.12 122.304H4220.2ZM4346.1 154.176C4338.42 154.176 4331.59 152.896 4325.62 150.336C4319.73 147.776 4314.78 144.277 4310.77 139.84C4306.76 135.317 4303.69 130.155 4301.55 124.352C4299.51 118.464 4298.48 112.277 4298.48 105.792V103.488C4298.48 97.5147 4299.46 91.712 4301.43 86.08C4303.47 80.448 4306.42 75.3707 4310.26 70.848C4314.1 66.3253 4318.88 62.7413 4324.59 60.096C4330.31 57.4507 4336.8 56.128 4344.05 56.128C4351.64 56.128 4358.39 57.5787 4364.27 60.48C4370.16 63.296 4374.9 67.264 4378.48 72.384C4382.15 77.504 4384.28 83.4347 4384.88 90.176H4375.03C4374.34 84.7147 4372.51 80.1067 4369.52 76.352C4366.62 72.5973 4362.95 69.7813 4358.51 67.904C4354.08 66.0267 4349.26 65.088 4344.05 65.088C4338.59 65.088 4333.64 66.0693 4329.2 68.032C4324.76 69.9947 4321.01 72.768 4317.94 76.352C4314.87 79.936 4312.48 84.16 4310.77 89.024C4309.15 93.8027 4308.34 99.0507 4308.34 104.768C4308.34 110.827 4309.19 116.373 4310.9 121.408C4312.6 126.357 4315.08 130.624 4318.32 134.208C4321.56 137.792 4325.49 140.565 4330.1 142.528C4334.79 144.491 4340.12 145.472 4346.1 145.472C4353.44 145.472 4359.88 144.064 4365.43 141.248C4371.06 138.347 4375.41 134.549 4378.48 129.856L4374.64 141.888V114.24H4383.86V137.536C4379.85 142.741 4374.64 146.837 4368.24 149.824C4361.84 152.725 4354.46 154.176 4346.1 154.176ZM4342.64 116.288V108.096H4392.18V116.288H4342.64ZM4400.02 152L4434.45 58.56H4451.86L4487.45 152H4477.46L4444.31 64.704L4449.56 67.392H4436.12L4441.62 64.704L4409.75 152H4400.02ZM4418.45 122.304L4421.65 113.472H4465.05L4468.37 122.304H4418.45ZM4506.27 152V58.56H4518.94L4548.38 123.2H4550.68L4579.99 58.56H4592.92V152H4583.19V69.44L4583.96 69.568L4555.55 132.288H4542.75L4514.2 69.568L4515.23 69.44V152H4506.27ZM4663.1 154.176C4654.99 154.176 4647.95 152.725 4641.98 149.824C4636.01 146.923 4631.06 143.083 4627.13 138.304C4623.21 133.525 4620.26 128.32 4618.3 122.688C4616.34 117.056 4615.36 111.552 4615.36 106.176V103.872C4615.36 98.1547 4616.34 92.48 4618.3 86.848C4620.35 81.1307 4623.38 75.968 4627.39 71.36C4631.4 66.752 4636.39 63.0827 4642.36 60.352C4648.34 57.536 4655.25 56.128 4663.1 56.128C4671.04 56.128 4677.95 57.536 4683.84 60.352C4689.81 63.0827 4694.8 66.752 4698.81 71.36C4702.82 75.968 4705.81 81.1307 4707.77 86.848C4709.82 92.48 4710.84 98.1547 4710.84 103.872V106.304C4710.84 111.68 4709.86 117.184 4707.9 122.816C4706.02 128.363 4703.08 133.525 4699.07 138.304C4695.14 143.083 4690.19 146.923 4684.22 149.824C4678.25 152.725 4671.21 154.176 4663.1 154.176ZM4663.1 145.216C4669.07 145.216 4674.41 144.149 4679.1 142.016C4683.79 139.797 4687.76 136.811 4691 133.056C4694.25 129.216 4696.72 124.907 4698.43 120.128C4700.14 115.349 4700.99 110.357 4700.99 105.152C4700.99 99.6907 4700.14 94.5707 4698.43 89.792C4696.72 85.0133 4694.2 80.7893 4690.88 77.12C4687.63 73.3653 4683.67 70.4213 4678.97 68.288C4674.28 66.1547 4668.99 65.088 4663.1 65.088C4657.3 65.088 4652.05 66.1547 4647.36 68.288C4642.66 70.4213 4638.65 73.3653 4635.32 77.12C4632.08 80.7893 4629.56 85.0133 4627.77 89.792C4626.07 94.5707 4625.21 99.6907 4625.21 105.152C4625.21 110.357 4626.07 115.349 4627.77 120.128C4629.48 124.907 4631.95 129.216 4635.2 133.056C4638.44 136.811 4642.41 139.797 4647.1 142.016C4651.88 144.149 4657.21 145.216 4663.1 145.216ZM4763.09 154.176C4755.24 154.176 4748.63 152.939 4743.25 150.464C4737.88 147.904 4733.78 144.405 4730.96 139.968C4728.23 135.445 4726.87 130.368 4726.87 124.736H4736.6C4736.6 128.32 4737.45 131.691 4739.16 134.848C4740.95 137.92 4743.76 140.437 4747.6 142.4C4751.53 144.277 4756.69 145.216 4763.09 145.216C4768.98 145.216 4773.84 144.363 4777.68 142.656C4781.61 140.949 4784.51 138.645 4786.39 135.744C4788.35 132.843 4789.33 129.6 4789.33 126.016C4789.33 121.493 4787.54 117.739 4783.96 114.752C4780.46 111.68 4775.17 109.845 4768.08 109.248L4757.33 108.224C4749.31 107.541 4742.91 105.067 4738.13 100.8C4733.44 96.448 4731.09 90.7307 4731.09 83.648C4731.09 78.272 4732.37 73.536 4734.93 69.44C4737.49 65.344 4741.12 62.1013 4745.81 59.712C4750.59 57.3227 4756.31 56.128 4762.96 56.128C4769.71 56.128 4775.47 57.3653 4780.24 59.84C4785.11 62.2293 4788.82 65.5573 4791.38 69.824C4793.94 74.0907 4795.22 79.04 4795.22 84.672H4785.49C4785.49 81.2587 4784.72 78.0587 4783.19 75.072C4781.65 72.0853 4779.22 69.696 4775.89 67.904C4772.56 66.0267 4768.26 65.088 4762.96 65.088C4757.93 65.088 4753.75 65.9413 4750.42 67.648C4747.18 69.3547 4744.75 71.616 4743.12 74.432C4741.59 77.248 4740.82 80.32 4740.82 83.648C4740.82 87.8293 4742.31 91.3707 4745.3 94.272C4748.29 97.1733 4752.6 98.8373 4758.23 99.264L4768.98 100.288C4775.3 100.8 4780.67 102.208 4785.11 104.512C4789.63 106.731 4793.09 109.675 4795.48 113.344C4797.87 116.928 4799.06 121.152 4799.06 126.016C4799.06 131.477 4797.57 136.341 4794.58 140.608C4791.68 144.875 4787.54 148.203 4782.16 150.592C4776.79 152.981 4770.43 154.176 4763.09 154.176ZM4852.27 152V58.176H4861.99V152H4852.27ZM4910.25 152L4878.38 110.656H4889.77L4922.15 152H4910.25ZM4858.03 116.544V107.84H4883.11C4887.72 107.84 4891.56 106.944 4894.63 105.152C4897.71 103.36 4900.01 100.928 4901.55 97.856C4903.08 94.784 4903.85 91.2853 4903.85 87.36C4903.85 83.4347 4903.08 79.936 4901.55 76.864C4900.01 73.792 4897.71 71.36 4894.63 69.568C4891.56 67.6907 4887.72 66.752 4883.11 66.752H4858.03V58.176H4881.45C4888.36 58.176 4894.21 59.2853 4898.99 61.504C4903.85 63.6373 4907.52 66.8373 4909.99 71.104C4912.55 75.2853 4913.83 80.4053 4913.83 86.464V88.256C4913.83 94.3147 4912.55 99.4773 4909.99 103.744C4907.43 107.925 4903.76 111.125 4898.99 113.344C4894.21 115.477 4888.36 116.544 4881.45 116.544H4858.03ZM4940.14 152V58.56H4949.87V152H4940.14ZM4947.56 152V143.168H4994.28V152H4947.56ZM4947.56 108.864V100.16H4989.93V108.864H4947.56ZM4947.56 67.392V58.56H4992.88V67.392H4947.56ZM5006.9 152L5041.33 58.56H5058.74L5094.32 152H5084.34L5051.19 64.704L5056.43 67.392H5042.99L5048.5 64.704L5016.63 152H5006.9ZM5025.33 122.304L5028.53 113.472H5071.92L5075.25 122.304H5025.33ZM5113.14 152V58.56H5122.87V152H5113.14ZM5120.31 152V143.168H5164.21V152H5120.31ZM5182.4 152V58.56H5192.12V152H5182.4ZM5228.68 152.512V143.552H5254.16C5260.47 143.552 5265.97 142.528 5270.67 140.48C5275.45 138.432 5279.46 135.659 5282.7 132.16C5285.94 128.576 5288.37 124.48 5290 119.872C5291.62 115.264 5292.43 110.357 5292.43 105.152C5292.43 99.776 5291.57 94.784 5289.87 90.176C5288.25 85.568 5285.81 81.5147 5282.57 78.016C5279.33 74.5173 5275.32 71.8293 5270.54 69.952C5265.85 68.0747 5260.39 67.136 5254.16 67.136H5228.68V58.176H5253.13C5261.49 58.176 5268.75 59.456 5274.89 62.016C5281.04 64.576 5286.16 68.0747 5290.25 72.512C5294.35 76.864 5297.38 81.7707 5299.34 87.232C5301.3 92.6933 5302.28 98.24 5302.28 103.872V106.304C5302.28 111.851 5301.3 117.355 5299.34 122.816C5297.38 128.277 5294.39 133.269 5290.38 137.792C5286.37 142.229 5281.25 145.813 5275.02 148.544C5268.88 151.189 5261.58 152.512 5253.13 152.512H5228.68ZM5221.52 152.512V58.176H5231.24V152.512H5221.52ZM5310.15 152L5344.58 58.56H5361.99L5397.57 152H5387.59L5354.44 64.704L5359.68 67.392H5346.24L5351.75 64.704L5319.88 152H5310.15ZM5328.58 122.304L5331.78 113.472H5375.17L5378.5 122.304H5328.58ZM5423.56 152.512V143.552H5449.03C5455.35 143.552 5460.85 142.528 5465.54 140.48C5470.32 138.432 5474.33 135.659 5477.57 132.16C5480.82 128.576 5483.25 124.48 5484.87 119.872C5486.49 115.264 5487.3 110.357 5487.3 105.152C5487.3 99.776 5486.45 94.784 5484.74 90.176C5483.12 85.568 5480.69 81.5147 5477.45 78.016C5474.2 74.5173 5470.19 71.8293 5465.41 69.952C5460.72 68.0747 5455.26 67.136 5449.03 67.136H5423.56V58.176H5448.01C5456.37 58.176 5463.62 59.456 5469.77 62.016C5475.91 64.576 5481.03 68.0747 5485.13 72.512C5489.22 76.864 5492.25 81.7707 5494.21 87.232C5496.18 92.6933 5497.16 98.24 5497.16 103.872V106.304C5497.16 111.851 5496.18 117.355 5494.21 122.816C5492.25 128.277 5489.27 133.269 5485.25 137.792C5481.24 142.229 5476.12 145.813 5469.89 148.544C5463.75 151.189 5456.45 152.512 5448.01 152.512H5423.56ZM5416.39 152.512V58.176H5426.12V152.512H5416.39ZM5566.19 152V64.96H5575.92V152H5566.19ZM5537.01 67.392V58.56H5605.1V67.392H5537.01ZM5659.37 154.176C5650.83 154.176 5643.75 152.555 5638.12 149.312C5632.49 146.069 5628.26 141.547 5625.45 135.744C5622.63 129.856 5621.22 123.115 5621.22 115.52V58.56H5630.95V116.672C5630.95 122.389 5631.98 127.381 5634.02 131.648C5636.16 135.915 5639.31 139.243 5643.5 141.632C5647.76 144.021 5653.05 145.216 5659.37 145.216C5665.6 145.216 5670.8 144.064 5674.98 141.76C5679.17 139.371 5682.32 136.043 5684.46 131.776C5686.59 127.424 5687.66 122.389 5687.66 116.672V58.56H5697.38V115.52C5697.38 123.115 5695.98 129.856 5693.16 135.744C5690.34 141.547 5686.12 146.069 5680.49 149.312C5674.94 152.555 5667.9 154.176 5659.37 154.176ZM5754.72 154.176C5746.87 154.176 5740.25 152.939 5734.88 150.464C5729.5 147.904 5725.41 144.405 5722.59 139.968C5719.86 135.445 5718.49 130.368 5718.49 124.736H5728.22C5728.22 128.32 5729.08 131.691 5730.78 134.848C5732.57 137.92 5735.39 140.437 5739.23 142.4C5743.16 144.277 5748.32 145.216 5754.72 145.216C5760.61 145.216 5765.47 144.363 5769.31 142.656C5773.24 140.949 5776.14 138.645 5778.01 135.744C5779.98 132.843 5780.96 129.6 5780.96 126.016C5780.96 121.493 5779.17 117.739 5775.58 114.752C5772.08 111.68 5766.79 109.845 5759.71 109.248L5748.96 108.224C5740.94 107.541 5734.54 105.067 5729.76 100.8C5725.06 96.448 5722.72 90.7307 5722.72 83.648C5722.72 78.272 5724 73.536 5726.56 69.44C5729.12 65.344 5732.74 62.1013 5737.44 59.712C5742.22 57.3227 5747.93 56.128 5754.59 56.128C5761.33 56.128 5767.09 57.3653 5771.87 59.84C5776.73 62.2293 5780.45 65.5573 5783.01 69.824C5785.57 74.0907 5786.85 79.04 5786.85 84.672H5777.12C5777.12 81.2587 5776.35 78.0587 5774.81 75.072C5773.28 72.0853 5770.85 69.696 5767.52 67.904C5764.19 66.0267 5759.88 65.088 5754.59 65.088C5749.56 65.088 5745.37 65.9413 5742.05 67.648C5738.8 69.3547 5736.37 71.616 5734.75 74.432C5733.21 77.248 5732.45 80.32 5732.45 83.648C5732.45 87.8293 5733.94 91.3707 5736.93 94.272C5739.91 97.1733 5744.22 98.8373 5749.85 99.264L5760.61 100.288C5766.92 100.8 5772.3 102.208 5776.73 104.512C5781.26 106.731 5784.71 109.675 5787.1 113.344C5789.49 116.928 5790.69 121.152 5790.69 126.016C5790.69 131.477 5789.19 136.341 5786.21 140.608C5783.3 144.875 5779.17 148.203 5773.79 150.592C5768.41 152.981 5762.06 154.176 5754.72 154.176ZM5844.15 152V58.56H5853.87V152H5844.15ZM5890.43 152.512V143.552H5915.91C5922.22 143.552 5927.72 142.528 5932.42 140.48C5937.2 138.432 5941.21 135.659 5944.45 132.16C5947.69 128.576 5950.12 124.48 5951.75 119.872C5953.37 115.264 5954.18 110.357 5954.18 105.152C5954.18 99.776 5953.32 94.784 5951.62 90.176C5950 85.568 5947.56 81.5147 5944.32 78.016C5941.08 74.5173 5937.07 71.8293 5932.29 69.952C5927.6 68.0747 5922.14 67.136 5915.91 67.136H5890.43V58.176H5914.88C5923.24 58.176 5930.5 59.456 5936.64 62.016C5942.79 64.576 5947.91 68.0747 5952 72.512C5956.1 76.864 5959.13 81.7707 5961.09 87.232C5963.05 92.6933 5964.03 98.24 5964.03 103.872V106.304C5964.03 111.851 5963.05 117.355 5961.09 122.816C5959.13 128.277 5956.14 133.269 5952.13 137.792C5948.12 142.229 5943 145.813 5936.77 148.544C5930.63 151.189 5923.33 152.512 5914.88 152.512H5890.43ZM5883.27 152.512V58.176H5892.99V152.512H5883.27ZM5985.02 152V58.56H5994.74V152H5985.02ZM5992.44 152V143.168H6039.16V152H5992.44ZM5992.44 108.864V100.16H6034.81V108.864H5992.44ZM5992.44 67.392V58.56H6037.75V67.392H5992.44ZM6051.77 152L6086.2 58.56H6103.61L6139.2 152H6129.21L6096.06 64.704L6101.31 67.392H6087.87L6093.37 64.704L6061.5 152H6051.77ZM6070.2 122.304L6073.4 113.472H6116.8L6120.12 122.304H6070.2ZM6187.09 154.176C6179.24 154.176 6172.63 152.939 6167.25 150.464C6161.88 147.904 6157.78 144.405 6154.96 139.968C6152.23 135.445 6150.87 130.368 6150.87 124.736H6160.6C6160.6 128.32 6161.45 131.691 6163.16 134.848C6164.95 137.92 6167.76 140.437 6171.6 142.4C6175.53 144.277 6180.69 145.216 6187.09 145.216C6192.98 145.216 6197.84 144.363 6201.68 142.656C6205.61 140.949 6208.51 138.645 6210.39 135.744C6212.35 132.843 6213.33 129.6 6213.33 126.016C6213.33 121.493 6211.54 117.739 6207.96 114.752C6204.46 111.68 6199.17 109.845 6192.08 109.248L6181.33 108.224C6173.31 107.541 6166.91 105.067 6162.13 100.8C6157.44 96.448 6155.09 90.7307 6155.09 83.648C6155.09 78.272 6156.37 73.536 6158.93 69.44C6161.49 65.344 6165.12 62.1013 6169.81 59.712C6174.59 57.3227 6180.31 56.128 6186.96 56.128C6193.71 56.128 6199.47 57.3653 6204.24 59.84C6209.11 62.2293 6212.82 65.5573 6215.38 69.824C6217.94 74.0907 6219.22 79.04 6219.22 84.672H6209.49C6209.49 81.2587 6208.72 78.0587 6207.19 75.072C6205.65 72.0853 6203.22 69.696 6199.89 67.904C6196.56 66.0267 6192.26 65.088 6186.96 65.088C6181.93 65.088 6177.75 65.9413 6174.42 67.648C6171.18 69.3547 6168.75 71.616 6167.12 74.432C6165.59 77.248 6164.82 80.32 6164.82 83.648C6164.82 87.8293 6166.31 91.3707 6169.3 94.272C6172.29 97.1733 6176.6 98.8373 6182.23 99.264L6192.98 100.288C6199.3 100.8 6204.67 102.208 6209.11 104.512C6213.63 106.731 6217.09 109.675 6219.48 113.344C6221.87 116.928 6223.06 121.152 6223.06 126.016C6223.06 131.477 6221.57 136.341 6218.58 140.608C6215.68 144.875 6211.54 148.203 6206.16 150.592C6200.79 152.981 6194.43 154.176 6187.09 154.176Z" fill="black"/>
<path d="M6303.05 63.0608L6306.99 96.0462L6319.44 65.2506L6311.2 97.4302L6333.94 73.214L6314.62 100.242L6344.57 85.8754L6316.8 104.101L6349.92 101.525L6317.44 108.487L6349.25 118.049L6316.45 112.807L6342.66 133.216L6313.97 116.478L6331.03 144.977L6310.32 119.004L6315.95 151.744L6306.02 120.044L6299.43 152.604L6301.62 119.457L6283.72 147.439L6297.74 117.323L6270.94 136.948L6294.89 113.929L6262.81 122.548L6293.45 109.735L6260.43 106.182L6293.63 105.307L6264.12 90.0623L6295.4 101.242L6273.39 76.365L6298.52 98.0901L6286.97 66.9402L6302.56 96.2765L6303.05 63.0608Z" fill="#FDBD39"/>
<path d="M6423.4 154.176C6415.55 154.176 6408.93 152.939 6403.56 150.464C6398.18 147.904 6394.09 144.405 6391.27 139.968C6388.54 135.445 6387.17 130.368 6387.17 124.736H6396.9C6396.9 128.32 6397.76 131.691 6399.46 134.848C6401.25 137.92 6404.07 140.437 6407.91 142.4C6411.84 144.277 6417 145.216 6423.4 145.216C6429.29 145.216 6434.15 144.363 6437.99 142.656C6441.92 140.949 6444.82 138.645 6446.69 135.744C6448.66 132.843 6449.64 129.6 6449.64 126.016C6449.64 121.493 6447.85 117.739 6444.26 114.752C6440.76 111.68 6435.47 109.845 6428.39 109.248L6417.64 108.224C6409.62 107.541 6403.22 105.067 6398.44 100.8C6393.75 96.448 6391.4 90.7307 6391.4 83.648C6391.4 78.272 6392.68 73.536 6395.24 69.44C6397.8 65.344 6401.43 62.1013 6406.12 59.712C6410.9 57.3227 6416.61 56.128 6423.27 56.128C6430.01 56.128 6435.77 57.3653 6440.55 59.84C6445.41 62.2293 6449.13 65.5573 6451.69 69.824C6454.25 74.0907 6455.53 79.04 6455.53 84.672H6445.8C6445.8 81.2587 6445.03 78.0587 6443.49 75.072C6441.96 72.0853 6439.53 69.696 6436.2 67.904C6432.87 66.0267 6428.56 65.088 6423.27 65.088C6418.24 65.088 6414.05 65.9413 6410.73 67.648C6407.48 69.3547 6405.05 71.616 6403.43 74.432C6401.89 77.248 6401.13 80.32 6401.13 83.648C6401.13 87.8293 6402.62 91.3707 6405.61 94.272C6408.59 97.1733 6412.9 98.8373 6418.53 99.264L6429.29 100.288C6435.6 100.8 6440.98 102.208 6445.41 104.512C6449.94 106.731 6453.39 109.675 6455.78 113.344C6458.17 116.928 6459.37 121.152 6459.37 126.016C6459.37 131.477 6457.87 136.341 6454.89 140.608C6451.99 144.875 6447.85 148.203 6442.47 150.592C6437.09 152.981 6430.74 154.176 6423.4 154.176ZM6523.66 154.176C6515.55 154.176 6508.51 152.725 6502.54 149.824C6496.56 146.923 6491.61 143.083 6487.69 138.304C6483.76 133.525 6480.82 128.32 6478.86 122.688C6476.89 117.056 6475.91 111.552 6475.91 106.176V103.872C6475.91 98.1547 6476.89 92.48 6478.86 86.848C6480.9 81.1307 6483.93 75.968 6487.94 71.36C6491.96 66.752 6496.95 63.0827 6502.92 60.352C6508.89 57.536 6515.81 56.128 6523.66 56.128C6531.59 56.128 6538.5 57.536 6544.39 60.352C6550.37 63.0827 6555.36 66.752 6559.37 71.36C6563.38 75.968 6566.37 81.1307 6568.33 86.848C6570.38 92.48 6571.4 98.1547 6571.4 103.872V106.304C6571.4 111.68 6570.42 117.184 6568.46 122.816C6566.58 128.363 6563.64 133.525 6559.62 138.304C6555.7 143.083 6550.75 146.923 6544.78 149.824C6538.8 152.725 6531.76 154.176 6523.66 154.176ZM6523.66 145.216C6529.63 145.216 6534.96 144.149 6539.66 142.016C6544.35 139.797 6548.32 136.811 6551.56 133.056C6554.8 129.216 6557.28 124.907 6558.98 120.128C6560.69 115.349 6561.54 110.357 6561.54 105.152C6561.54 99.6907 6560.69 94.5707 6558.98 89.792C6557.28 85.0133 6554.76 80.7893 6551.43 77.12C6548.19 73.3653 6544.22 70.4213 6539.53 68.288C6534.84 66.1547 6529.54 65.088 6523.66 65.088C6517.85 65.088 6512.61 66.1547 6507.91 68.288C6503.22 70.4213 6499.21 73.3653 6495.88 77.12C6492.64 80.7893 6490.12 85.0133 6488.33 89.792C6486.62 94.5707 6485.77 99.6907 6485.77 105.152C6485.77 110.357 6486.62 115.349 6488.33 120.128C6490.04 124.907 6492.51 129.216 6495.75 133.056C6499 136.811 6502.96 139.797 6507.66 142.016C6512.44 144.149 6517.77 145.216 6523.66 145.216ZM6593.7 152V58.56H6603.42V152H6593.7ZM6600.86 152V143.168H6644.77V152H6600.86ZM6696.92 154.176C6688.39 154.176 6681.31 152.555 6675.68 149.312C6670.04 146.069 6665.82 141.547 6663 135.744C6660.19 129.856 6658.78 123.115 6658.78 115.52V58.56H6668.51V116.672C6668.51 122.389 6669.53 127.381 6671.58 131.648C6673.71 135.915 6676.87 139.243 6681.05 141.632C6685.32 144.021 6690.61 145.216 6696.92 145.216C6703.15 145.216 6708.36 144.064 6712.54 141.76C6716.72 139.371 6719.88 136.043 6722.01 131.776C6724.14 127.424 6725.21 122.389 6725.21 116.672V58.56H6734.94V115.52C6734.94 123.115 6733.53 129.856 6730.72 135.744C6727.9 141.547 6723.68 146.069 6718.04 149.312C6712.5 152.555 6705.46 154.176 6696.92 154.176ZM6802.13 154.176C6793.77 154.176 6786.6 152.725 6780.63 149.824C6774.74 146.837 6769.92 142.955 6766.16 138.176C6762.49 133.397 6759.8 128.235 6758.1 122.688C6756.39 117.056 6755.54 111.595 6755.54 106.304V103.872C6755.54 98.1547 6756.39 92.48 6758.1 86.848C6759.89 81.1307 6762.62 75.968 6766.29 71.36C6770.04 66.752 6774.82 63.0827 6780.63 60.352C6786.43 57.536 6793.3 56.128 6801.23 56.128C6809.25 56.128 6816.17 57.536 6821.97 60.352C6827.86 63.168 6832.55 67.136 6836.05 72.256C6839.55 77.2907 6841.68 83.264 6842.45 90.176H6832.59C6831.91 84.6293 6830.12 80.0213 6827.22 76.352C6824.32 72.5973 6820.6 69.7813 6816.08 67.904C6811.64 66.0267 6806.69 65.088 6801.23 65.088C6795.35 65.088 6790.14 66.1547 6785.62 68.288C6781.18 70.336 6777.47 73.2373 6774.48 76.992C6771.49 80.6613 6769.23 84.928 6767.7 89.792C6766.16 94.5707 6765.39 99.6907 6765.39 105.152C6765.39 110.357 6766.12 115.349 6767.57 120.128C6769.11 124.907 6771.41 129.216 6774.48 133.056C6777.55 136.811 6781.39 139.797 6786 142.016C6790.61 144.149 6795.99 145.216 6802.13 145.216C6810.66 145.216 6817.83 143.083 6823.63 138.816C6829.44 134.464 6833.02 128.235 6834.39 120.128H6844.24C6843.3 126.528 6841.08 132.331 6837.59 137.536C6834.09 142.656 6829.35 146.709 6823.38 149.696C6817.49 152.683 6810.41 154.176 6802.13 154.176ZM6864.2 152V58.56H6873.93V152H6864.2ZM6944.28 154.176C6936.17 154.176 6929.13 152.725 6923.16 149.824C6917.19 146.923 6912.24 143.083 6908.31 138.304C6904.39 133.525 6901.44 128.32 6899.48 122.688C6897.52 117.056 6896.54 111.552 6896.54 106.176V103.872C6896.54 98.1547 6897.52 92.48 6899.48 86.848C6901.53 81.1307 6904.56 75.968 6908.57 71.36C6912.58 66.752 6917.57 63.0827 6923.55 60.352C6929.52 57.536 6936.43 56.128 6944.28 56.128C6952.22 56.128 6959.13 57.536 6965.02 60.352C6970.99 63.0827 6975.98 66.752 6979.99 71.36C6984 75.968 6986.99 81.1307 6988.95 86.848C6991 92.48 6992.03 98.1547 6992.03 103.872V106.304C6992.03 111.68 6991.04 117.184 6989.08 122.816C6987.2 128.363 6984.26 133.525 6980.25 138.304C6976.32 143.083 6971.37 146.923 6965.4 149.824C6959.43 152.725 6952.39 154.176 6944.28 154.176ZM6944.28 145.216C6950.25 145.216 6955.59 144.149 6960.28 142.016C6964.97 139.797 6968.94 136.811 6972.19 133.056C6975.43 129.216 6977.9 124.907 6979.61 120.128C6981.32 115.349 6982.17 110.357 6982.17 105.152C6982.17 99.6907 6981.32 94.5707 6979.61 89.792C6977.9 85.0133 6975.39 80.7893 6972.06 77.12C6968.81 73.3653 6964.85 70.4213 6960.15 68.288C6955.46 66.1547 6950.17 65.088 6944.28 65.088C6938.48 65.088 6933.23 66.1547 6928.54 68.288C6923.84 70.4213 6919.83 73.3653 6916.51 77.12C6913.26 80.7893 6910.75 85.0133 6908.95 89.792C6907.25 94.5707 6906.39 99.6907 6906.39 105.152C6906.39 110.357 6907.25 115.349 6908.95 120.128C6910.66 124.907 6913.13 129.216 6916.38 133.056C6919.62 136.811 6923.59 139.797 6928.28 142.016C6933.06 144.149 6938.39 145.216 6944.28 145.216ZM7014.32 152V58.56H7030.58L7081.78 143.168H7085.87L7083.31 145.216V58.56H7092.66V152H7076.27L7025.07 67.392H7020.98L7023.54 65.344V152H7014.32ZM7121.82 152V58.56H7131.55V152H7121.82ZM7129.25 152V143.168H7175.97V152H7129.25ZM7129.25 108.864V100.16H7171.61V108.864H7129.25ZM7129.25 67.392V58.56H7174.56V67.392H7129.25ZM7227.77 154.176C7219.92 154.176 7213.31 152.939 7207.93 150.464C7202.56 147.904 7198.46 144.405 7195.65 139.968C7192.91 135.445 7191.55 130.368 7191.55 124.736H7201.28C7201.28 128.32 7202.13 131.691 7203.84 134.848C7205.63 137.92 7208.45 140.437 7212.29 142.4C7216.21 144.277 7221.37 145.216 7227.77 145.216C7233.66 145.216 7238.53 144.363 7242.37 142.656C7246.29 140.949 7249.19 138.645 7251.07 135.744C7253.03 132.843 7254.01 129.6 7254.01 126.016C7254.01 121.493 7252.22 117.739 7248.64 114.752C7245.14 111.68 7239.85 109.845 7232.77 109.248L7222.01 108.224C7213.99 107.541 7207.59 105.067 7202.81 100.8C7198.12 96.448 7195.77 90.7307 7195.77 83.648C7195.77 78.272 7197.05 73.536 7199.61 69.44C7202.17 65.344 7205.8 62.1013 7210.49 59.712C7215.27 57.3227 7220.99 56.128 7227.65 56.128C7234.39 56.128 7240.15 57.3653 7244.93 59.84C7249.79 62.2293 7253.5 65.5573 7256.06 69.824C7258.62 74.0907 7259.9 79.04 7259.9 84.672H7250.17C7250.17 81.2587 7249.41 78.0587 7247.87 75.072C7246.33 72.0853 7243.9 69.696 7240.57 67.904C7237.25 66.0267 7232.94 65.088 7227.65 65.088C7222.61 65.088 7218.43 65.9413 7215.1 67.648C7211.86 69.3547 7209.43 71.616 7207.81 74.432C7206.27 77.248 7205.5 80.32 7205.5 83.648C7205.5 87.8293 7206.99 91.3707 7209.98 94.272C7212.97 97.1733 7217.28 98.8373 7222.91 99.264L7233.66 100.288C7239.98 100.8 7245.35 102.208 7249.79 104.512C7254.31 106.731 7257.77 109.675 7260.16 113.344C7262.55 116.928 7263.74 121.152 7263.74 126.016C7263.74 131.477 7262.25 136.341 7259.26 140.608C7256.36 144.875 7252.22 148.203 7246.85 150.592C7241.47 152.981 7235.11 154.176 7227.77 154.176ZM7356.75 154.176C7348.39 154.176 7341.22 152.725 7335.25 149.824C7329.36 146.837 7324.54 142.955 7320.79 138.176C7317.12 133.397 7314.43 128.235 7312.72 122.688C7311.02 117.056 7310.16 111.595 7310.16 106.304V103.872C7310.16 98.1547 7311.02 92.48 7312.72 86.848C7314.51 81.1307 7317.25 75.968 7320.91 71.36C7324.67 66.752 7329.45 63.0827 7335.25 60.352C7341.05 57.536 7347.92 56.128 7355.86 56.128C7363.88 56.128 7370.79 57.536 7376.59 60.352C7382.48 63.168 7387.18 67.136 7390.67 72.256C7394.17 77.2907 7396.31 83.264 7397.07 90.176H7387.22C7386.54 84.6293 7384.74 80.0213 7381.84 76.352C7378.94 72.5973 7375.23 69.7813 7370.71 67.904C7366.27 66.0267 7361.32 65.088 7355.86 65.088C7349.97 65.088 7344.77 66.1547 7340.24 68.288C7335.81 70.336 7332.09 73.2373 7329.11 76.992C7326.12 80.6613 7323.86 84.928 7322.32 89.792C7320.79 94.5707 7320.02 99.6907 7320.02 105.152C7320.02 110.357 7320.74 115.349 7322.19 120.128C7323.73 124.907 7326.03 129.216 7329.11 133.056C7332.18 136.811 7336.02 139.797 7340.63 142.016C7345.23 144.149 7350.61 145.216 7356.75 145.216C7365.29 145.216 7372.46 143.083 7378.26 138.816C7384.06 134.464 7387.65 128.235 7389.01 120.128H7398.87C7397.93 126.528 7395.71 132.331 7392.21 137.536C7388.71 142.656 7383.98 146.709 7378 149.696C7372.11 152.683 7365.03 154.176 7356.75 154.176ZM7418.57 152V58.176H7428.3V152H7418.57ZM7476.56 152L7444.68 110.656H7456.08L7488.46 152H7476.56ZM7424.33 116.544V107.84H7449.42C7454.03 107.84 7457.87 106.944 7460.94 105.152C7464.01 103.36 7466.32 100.928 7467.85 97.856C7469.39 94.784 7470.16 91.2853 7470.16 87.36C7470.16 83.4347 7469.39 79.936 7467.85 76.864C7466.32 73.792 7464.01 71.36 7460.94 69.568C7457.87 67.6907 7454.03 66.752 7449.42 66.752H7424.33V58.176H7447.76C7454.67 58.176 7460.51 59.2853 7465.29 61.504C7470.16 63.6373 7473.82 66.8373 7476.3 71.104C7478.86 75.2853 7480.14 80.4053 7480.14 86.464V88.256C7480.14 94.3147 7478.86 99.4773 7476.3 103.744C7473.74 107.925 7470.07 111.125 7465.29 113.344C7460.51 115.477 7454.67 116.544 7447.76 116.544H7424.33ZM7506.45 152V58.56H7516.17V152H7506.45ZM7513.87 152V143.168H7560.59V152H7513.87ZM7513.87 108.864V100.16H7556.24V108.864H7513.87ZM7513.87 67.392V58.56H7559.18V67.392H7513.87ZM7573.2 152L7607.64 58.56H7625.04L7660.63 152H7650.64L7617.49 64.704L7622.74 67.392H7609.3L7614.8 64.704L7582.93 152H7573.2ZM7591.64 122.304L7594.84 113.472H7638.23L7641.56 122.304H7591.64ZM7690.87 152V64.96H7700.6V152H7690.87ZM7661.69 67.392V58.56H7729.78V67.392H7661.69ZM7748.2 152V58.56H7757.93V152H7748.2ZM7809.21 152L7775.8 58.56H7785.79L7816.76 145.984L7811.51 143.168H7825.08L7819.45 145.984L7848.25 58.56H7858.11L7826.75 152H7809.21ZM7861.45 152L7895.89 58.56H7913.29L7948.88 152H7938.89L7905.74 64.704L7910.99 67.392H7897.55L7903.05 64.704L7871.18 152H7861.45ZM7879.89 122.304L7883.09 113.472H7926.48L7929.81 122.304H7879.89ZM7996.77 154.176C7988.92 154.176 7982.31 152.939 7976.93 150.464C7971.56 147.904 7967.46 144.405 7964.65 139.968C7961.91 135.445 7960.55 130.368 7960.55 124.736H7970.28C7970.28 128.32 7971.13 131.691 7972.84 134.848C7974.63 137.92 7977.45 140.437 7981.29 142.4C7985.21 144.277 7990.37 145.216 7996.77 145.216C8002.66 145.216 8007.53 144.363 8011.37 142.656C8015.29 140.949 8018.19 138.645 8020.07 135.744C8022.03 132.843 8023.01 129.6 8023.01 126.016C8023.01 121.493 8021.22 117.739 8017.64 114.752C8014.14 111.68 8008.85 109.845 8001.77 109.248L7991.01 108.224C7982.99 107.541 7976.59 105.067 7971.81 100.8C7967.12 96.448 7964.77 90.7307 7964.77 83.648C7964.77 78.272 7966.05 73.536 7968.61 69.44C7971.17 65.344 7974.8 62.1013 7979.49 59.712C7984.27 57.3227 7989.99 56.128 7996.65 56.128C8003.39 56.128 8009.15 57.3653 8013.93 59.84C8018.79 62.2293 8022.5 65.5573 8025.06 69.824C8027.62 74.0907 8028.9 79.04 8028.9 84.672H8019.17C8019.17 81.2587 8018.41 78.0587 8016.87 75.072C8015.33 72.0853 8012.9 69.696 8009.57 67.904C8006.25 66.0267 8001.94 65.088 7996.65 65.088C7991.61 65.088 7987.43 65.9413 7984.1 67.648C7980.86 69.3547 7978.43 71.616 7976.81 74.432C7975.27 77.248 7974.5 80.32 7974.5 83.648C7974.5 87.8293 7975.99 91.3707 7978.98 94.272C7981.97 97.1733 7986.28 98.8373 7991.91 99.264L8002.66 100.288C8008.98 100.8 8014.35 102.208 8018.79 104.512C8023.31 106.731 8026.77 109.675 8029.16 113.344C8031.55 116.928 8032.74 121.152 8032.74 126.016C8032.74 131.477 8031.25 136.341 8028.26 140.608C8025.36 144.875 8021.22 148.203 8015.85 150.592C8010.47 152.981 8004.11 154.176 7996.77 154.176Z" fill="black"/>
</svg>
