<svg xmlns="http://www.w3.org/2000/svg" viewBox="0 0 470.38 470.39"><defs><style>.cls-1{font-size:32px;font-family:MargoBeuys-Black, "Margo + Beuys";font-weight:800;}</style></defs><g id="Capa_2" data-name="Capa 2"><g id="Capa_2-2" data-name="Capa 2"><text class="cls-1" transform="translate(78.75 97.56) rotate(-45.27)">C</text><text class="cls-1" transform="matrix(0.78, -0.62, 0.62, 0.78, 95.86, 80.22)">O</text><text class="cls-1" transform="translate(115.33 64.6) rotate(-31.27)">N</text><text class="cls-1" transform="translate(138.98 50.45) rotate(-24.75)">T</text><text class="cls-1" transform="translate(154.88 42.89) rotate(-19.36)">A</text><text class="cls-1" transform="translate(176.37 35.25) rotate(-12.95)">C</text><text class="cls-1" transform="translate(199.25 30.04) rotate(-7.07)">T</text><text class="cls-1" transform="translate(219.07 27.75) rotate(-3.07)"> </text><text class="cls-1" transform="translate(228.13 26.69) rotate(2.46)">M</text><text class="cls-1" transform="matrix(0.99, 0.16, -0.16, 0.99, 259.79, 28.41)">E</text><text class="cls-1" transform="matrix(0.97, 0.23, -0.23, 0.97, 278.46, 31.64)"> </text><text class="cls-1" transform="translate(287.55 33.78) rotate(15.87)"> </text><text class="cls-1" transform="translate(296.51 36.14) rotate(19.8)">*</text><text class="cls-1" transform="matrix(0.92, 0.4, -0.4, 0.92, 314.41, 42.75)"> </text><text class="cls-1" transform="translate(322.94 46.15) rotate(28.34)">C</text><text class="cls-1" transform="matrix(0.82, 0.58, -0.58, 0.82, 344.4, 57.68)">O</text><text class="cls-1" transform="translate(364.87 71.95) rotate(42.35)">N</text><text class="cls-1" transform="translate(385.11 90.66) rotate(48.82)">T</text><text class="cls-1" transform="translate(396.87 103.77) rotate(54.15)">A</text><text class="cls-1" transform="translate(410.3 122.22) rotate(60.51)">C</text><text class="cls-1" transform="translate(421.81 142.67) rotate(66.39)">T</text><text class="cls-1" transform="translate(429.63 161.01) rotate(70.44)"> </text><text class="cls-1" transform="translate(433.23 169.4) rotate(76.11)">M</text><text class="cls-1" transform="translate(440.49 200.23) rotate(83.07)">E</text><text class="cls-1" transform="translate(442.63 219.07) rotate(86.93)"> </text><text class="cls-1" transform="translate(443.33 228.28) rotate(90.93)">*</text><text class="cls-1" transform="translate(442.89 247.38) rotate(94.62)"> </text><text class="cls-1" transform="translate(442.47 256.56) rotate(99.21)">C</text><text class="cls-1" transform="translate(438.62 280.61) rotate(106.08)">O</text><text class="cls-1" transform="translate(431.83 304.61) rotate(113.34)">N</text><text class="cls-1" transform="translate(420.73 329.85) rotate(119.88)">T</text><text class="cls-1" transform="matrix(-0.58, 0.82, -0.82, -0.58, 412.15, 345.21)">A</text><text class="cls-1" transform="matrix(-0.66, 0.75, -0.75, -0.66, 399.05, 363.91)">C</text><text class="cls-1" transform="translate(383.44 381.44) rotate(137.39)">T</text><text class="cls-1" transform="translate(368.64 394.82) rotate(141.39)"> </text><text class="cls-1" transform="matrix(-0.84, 0.54, -0.54, -0.84, 361.9, 400.94)">M</text><text class="cls-1" transform="translate(335.15 417.9) rotate(153.94)">E</text><text class="cls-1" transform="translate(318.04 426.1) rotate(157.84)"> </text><text class="cls-1" transform="translate(309.55 429.75) rotate(161.77)">*</text><text class="cls-1" transform="matrix(-0.97, 0.25, -0.25, -0.97, 291.38, 435.57)"> </text><text class="cls-1" transform="translate(282.55 438.15) rotate(170.32)">C</text><text class="cls-1" transform="translate(258.55 442.29) rotate(177.13)">O</text><text class="cls-1" transform="translate(233.62 443.66) rotate(-175.76)">N</text><text class="cls-1" transform="matrix(-0.98, -0.19, 0.19, -0.98, 206.16, 441.44)">T</text><text class="cls-1" transform="translate(188.83 438.37) rotate(-163.87)">A</text><text class="cls-1" transform="translate(166.88 432.11) rotate(-157.46)">C</text><text class="cls-1" transform="matrix(-0.88, -0.48, 0.48, -0.88, 145.22, 423.06)">T</text><text class="cls-1" transform="matrix(-0.84, -0.54, 0.54, -0.84, 127.77, 413.41)"> </text><text class="cls-1" transform="translate(119.77 409.01) rotate(-141.93)">M</text><text class="cls-1" transform="matrix(-0.71, -0.71, 0.71, -0.71, 95.06, 389.21)">E</text><text class="cls-1" transform="translate(81.74 375.69) rotate(-131.18)"> </text><text class="cls-1" transform="translate(75.51 368.85) rotate(-127.29)">*</text><text class="cls-1" transform="matrix(-0.55, -0.83, 0.83, -0.55, 64.07, 353.57)"> </text><text class="cls-1" transform="matrix(-0.48, -0.88, 0.88, -0.48, 58.75, 346.08)">C</text><text class="cls-1" transform="translate(46.97 324.77) rotate(-111.95)">O</text><text class="cls-1" transform="matrix(-0.25, -0.97, 0.97, -0.25, 37.53, 301.65)">N</text><text class="cls-1" transform="translate(30.73 274.95) rotate(-98.14)">T</text><text class="cls-1" transform="matrix(-0.05, -1, 1, -0.05, 28.03, 257.57)">A</text><text class="cls-1" transform="matrix(0.06, -1, 1, 0.06, 26.83, 234.75)">C</text><text class="cls-1" transform="matrix(0.16, -0.99, 0.99, 0.16, 28.29, 211.35)">T</text><text class="cls-1" transform="matrix(0.23, -0.97, 0.97, 0.23, 31.68, 191.71)"> </text><text class="cls-1" transform="translate(33.22 182.71) rotate(-70.99)">M</text><text class="cls-1" transform="matrix(0.44, -0.9, 0.9, 0.44, 43.87, 152.87)">E</text><text class="cls-1" transform="translate(52.32 135.89) rotate(-60.12)"> </text><text class="cls-1" transform="translate(56.76 127.8) rotate(-56.23)">*</text></g></g></svg>