<svg width="514" height="80" viewBox="0 0 514 80" fill="none" xmlns="http://www.w3.org/2000/svg">
<path d="M25.5166 50.1826V32.6826H32.7666C39.0666 32.6826 41.7666 35.3076 41.7666 41.4326C41.7666 47.5576 39.0666 50.1826 32.7666 50.1826H25.5166ZM30.5166 46.4326H33.0166C35.8166 46.4326 36.7666 45.1076 36.7666 41.4326C36.7666 37.7576 35.8166 36.4326 33.0166 36.4326H30.5166V46.4326ZM43.7607 50.1826V32.6826H57.2607V36.1826H48.7607V39.4326H56.2607V42.9326H48.7607V46.6826H57.2607V50.1826H43.7607ZM66.7236 48.3076L70.3486 32.6826H75.3486L71.0986 50.1826H62.3486L58.0986 32.6826H63.0986L66.7236 48.3076ZM76.5977 50.1826V32.6826H90.0977V36.1826H81.5977V39.4326H89.0977V42.9326H81.5977V46.6826H90.0977V50.1826H76.5977ZM92.4355 50.1826V32.6826H97.4355V45.9326H105.686V50.1826H92.4355ZM106.45 41.4076C106.45 35.1326 109.225 32.4576 115.7 32.4576C122.175 32.4576 124.95 35.1326 124.95 41.4076C124.95 47.6826 122.175 50.3576 115.7 50.3576C109.225 50.3576 106.45 47.6826 106.45 41.4076ZM111.45 41.4076C111.45 45.1326 112.9 46.7326 115.7 46.7326C118.5 46.7326 119.95 45.1326 119.95 41.4076C119.95 37.6826 118.5 36.0826 115.7 36.0826C112.9 36.0826 111.45 37.6826 111.45 41.4076ZM127.395 50.1826V32.6826H135.895C140.895 32.6826 142.895 35.4326 142.895 38.4326C142.895 41.4326 140.895 44.1826 135.895 44.1826H132.395V50.1826H127.395ZM132.395 40.6826H135.645C137.145 40.6826 137.895 39.6826 137.895 38.4326C137.895 37.1826 137.145 36.1826 135.645 36.1826H132.395V40.6826ZM144.64 50.1826V32.6826H158.14V36.1826H149.64V39.4326H157.14V42.9326H149.64V46.6826H158.14V50.1826H144.64ZM160.228 50.1826V32.6826H169.228C174.228 32.6826 176.228 35.4326 176.228 38.4326C176.228 40.6576 175.303 42.4076 173.128 43.3076L176.728 50.2076H171.478L168.603 43.9326H165.228V50.1826H160.228ZM165.228 36.1826V40.6826H168.978C170.478 40.6826 171.228 39.6826 171.228 38.4326C171.228 37.1826 170.478 36.1826 168.978 36.1826H165.228Z" fill="black"/>
<path d="M221.261 47.7181L241.301 32.7706M241.301 32.7706C241.301 32.7706 240.526 34.623 240.403 37.5844C240.281 40.5459 240.811 41.9718 240.811 41.9718M241.301 32.7706C241.301 32.7706 238.256 32.7301 236.408 32.1969C234.585 31.6713 232.302 30.4994 232.302 30.4994" stroke="black" stroke-width="1.5" stroke-linecap="square" stroke-linejoin="round"/>
<path d="M286.987 50.1826V32.6826H294.237C300.537 32.6826 303.237 35.3076 303.237 41.4326C303.237 47.5576 300.537 50.1826 294.237 50.1826H286.987ZM291.987 46.4326H294.487C297.287 46.4326 298.237 45.1076 298.237 41.4326C298.237 37.7576 297.287 36.4326 294.487 36.4326H291.987V46.4326ZM305.231 50.1826V32.6826H318.731V36.1826H310.231V39.4326H317.731V42.9326H310.231V46.6826H318.731V50.1826H305.231ZM328.194 48.3076L331.819 32.6826H336.819L332.569 50.1826H323.819L319.569 32.6826H324.569L328.194 48.3076ZM338.068 50.1826V32.6826H351.568V36.1826H343.068V39.4326H350.568V42.9326H343.068V46.6826H351.568V50.1826H338.068ZM353.906 50.1826V32.6826H358.906V45.9326H367.156V50.1826H353.906ZM367.921 41.4076C367.921 35.1326 370.696 32.4576 377.171 32.4576C383.646 32.4576 386.421 35.1326 386.421 41.4076C386.421 47.6826 383.646 50.3576 377.171 50.3576C370.696 50.3576 367.921 47.6826 367.921 41.4076ZM372.921 41.4076C372.921 45.1326 374.371 46.7326 377.171 46.7326C379.971 46.7326 381.421 45.1326 381.421 41.4076C381.421 37.6826 379.971 36.0826 377.171 36.0826C374.371 36.0826 372.921 37.6826 372.921 41.4076ZM388.866 50.1826V32.6826H397.366C402.366 32.6826 404.366 35.4326 404.366 38.4326C404.366 41.4326 402.366 44.1826 397.366 44.1826H393.866V50.1826H388.866ZM393.866 40.6826H397.116C398.616 40.6826 399.366 39.6826 399.366 38.4326C399.366 37.1826 398.616 36.1826 397.116 36.1826H393.866V40.6826ZM406.11 50.1826V32.6826H419.61V36.1826H411.11V39.4326H418.61V42.9326H411.11V46.6826H419.61V50.1826H406.11ZM421.698 50.1826V32.6826H430.698C435.698 32.6826 437.698 35.4326 437.698 38.4326C437.698 40.6576 436.773 42.4076 434.598 43.3076L438.198 50.2076H432.948L430.073 43.9326H426.698V50.1826H421.698ZM426.698 36.1826V40.6826H430.448C431.948 40.6826 432.698 39.6826 432.698 38.4326C432.698 37.1826 431.948 36.1826 430.448 36.1826H426.698Z" fill="black"/>
<path d="M482.732 47.7181L502.771 32.7706M502.771 32.7706C502.771 32.7706 501.996 34.623 501.874 37.5844C501.752 40.5459 502.282 41.9718 502.282 41.9718M502.771 32.7706C502.771 32.7706 499.727 32.7301 497.878 32.1969C496.056 31.6713 493.773 30.4994 493.773 30.4994" stroke="black" stroke-width="1.5" stroke-linecap="square" stroke-linejoin="round"/>
</svg>
