<svg width="61" height="62" viewBox="0 0 61 62" fill="none" xmlns="http://www.w3.org/2000/svg">
<path d="M30.5 0.75L31.0051 25.4771L35.7963 1.21336L31.9999 25.6525L40.9316 2.58937L32.9491 25.9979L45.75 4.83623L33.8239 26.503L50.105 7.88564L34.5977 27.1523L53.8644 11.645L35.247 27.9261L56.9138 16L35.7521 28.8009L59.1606 20.8184L36.0975 29.7501L60.5366 25.9537L36.2729 30.7449L61 31.25L36.2729 31.7551L60.5366 36.5463L36.0975 32.7499L59.1606 41.6816L35.7521 33.6991L56.9138 46.5L35.247 34.5739L53.8644 50.855L34.5977 35.3477L50.105 54.6144L33.8239 35.997L45.75 57.6638L32.9491 36.5021L40.9316 59.9106L31.9999 36.8475L35.7963 61.2866L31.0051 37.0229L30.5 61.75L29.9949 37.0229L25.2037 61.2866L29.0001 36.8475L20.0684 59.9106L28.0509 36.5021L15.25 57.6638L27.1761 35.997L10.895 54.6144L26.4023 35.3477L7.13564 50.855L25.753 34.5739L4.08623 46.5L25.2479 33.6991L1.83937 41.6816L24.9025 32.7499L0.463364 36.5463L24.7271 31.7551L0 31.25L24.7271 30.7449L0.463364 25.9537L24.9025 29.7501L1.83937 20.8184L25.2479 28.8009L4.08623 16L25.753 27.9261L7.13564 11.645L26.4023 27.1523L10.895 7.88564L27.1761 26.503L15.25 4.83623L28.0509 25.9979L20.0684 2.58937L29.0001 25.6525L25.2037 1.21336L29.9949 25.4771L30.5 0.75Z" fill="#F32400"/>
</svg>
