<svg width="262" height="262" viewBox="0 0 262 262" fill="none" xmlns="http://www.w3.org/2000/svg">
<path d="M131 0L132.741 97.7716L144.693 0.717636L136.205 98.1357L158.236 2.86267L139.612 98.8598L171.481 6.4116L142.924 99.936L184.283 11.3255L146.106 101.353L196.5 17.5507L149.122 103.094L208 25.0188L151.94 105.141L218.656 33.648L154.528 107.472L228.352 43.3439L156.859 110.06L236.981 54.0001L158.906 112.878L244.449 65.5L160.647 115.894L250.674 77.7175L162.064 119.076L255.588 90.5188L163.14 122.388L259.137 103.764L163.864 125.795L261.282 117.307L164.228 129.259L262 131L164.228 132.741L261.282 144.693L163.864 136.205L259.137 158.236L163.14 139.612L255.588 171.481L162.064 142.924L250.674 184.283L160.647 146.106L244.449 196.5L158.906 149.122L236.981 208L156.859 151.94L228.352 218.656L154.528 154.528L218.656 228.352L151.94 156.859L208 236.981L149.122 158.906L196.5 244.449L146.106 160.647L184.283 250.674L142.924 162.064L171.481 255.588L139.612 163.14L158.236 259.137L136.205 163.864L144.693 261.282L132.741 164.228L131 262L129.259 164.228L117.307 261.282L125.795 163.864L103.764 259.137L122.388 163.14L90.5188 255.588L119.076 162.064L77.7175 250.674L115.894 160.647L65.5 244.449L112.878 158.906L54.0001 236.981L110.06 156.859L43.3439 228.352L107.472 154.528L33.648 218.656L105.141 151.94L25.0188 208L103.094 149.122L17.5507 196.5L101.353 146.106L11.3255 184.283L99.936 142.924L6.4116 171.481L98.8598 139.612L2.86267 158.236L98.1357 136.205L0.717636 144.693L97.7716 132.741L0 131L97.7716 129.259L0.717636 117.307L98.1357 125.795L2.86267 103.764L98.8598 122.388L6.4116 90.5188L99.936 119.076L11.3255 77.7175L101.353 115.894L17.5507 65.5L103.094 112.878L25.0188 54.0001L105.141 110.06L33.648 43.3439L107.472 107.472L43.3439 33.648L110.06 105.141L54.0001 25.0188L112.878 103.094L65.5 17.5507L115.894 101.353L77.7175 11.3255L119.076 99.936L90.5188 6.4116L122.388 98.8598L103.764 2.86267L125.795 98.1357L117.307 0.717636L129.259 97.7716L131 0Z" fill="#F32400"/>
</svg>
