<svg width="94" height="145" viewBox="0 0 94 145" fill="none" xmlns="http://www.w3.org/2000/svg">
<path d="M54.3478 91.4389L67.2959 102.648L67.405 102.742L67.5477 102.764L84.4771 105.348L73.2684 118.296L73.174 118.406L73.1522 118.548L70.5677 135.478L57.6196 124.269L57.5105 124.175L57.3678 124.153L40.4384 121.568L51.647 108.62L51.7415 108.511L51.7633 108.368L54.3478 91.4389Z" fill="#F69833" stroke="black"/>
<path d="M16.8908 6.24481L23.0672 21.9845L28.0071 5.81404L23.7523 22.1781L37.2535 11.9995L24.1928 22.7375L41.0983 22.4386L24.2204 23.4489L38.0729 33.1439L23.8245 24.0407L29.3328 40.0264L23.1564 24.2867L18.2166 40.4572L22.4713 24.0931L8.97011 34.2717L22.0308 23.5337L5.12531 23.8326L22.0032 22.8223L8.15074 13.1273L22.3991 22.2305L16.8908 6.24481Z" fill="#3596F5"/>
</svg>
