<svg width="182" height="232" viewBox="0 0 182 232" fill="none" xmlns="http://www.w3.org/2000/svg">
<path d="M142.348 178.438L155.296 189.647L155.405 189.741L155.548 189.763L172.477 192.347L161.268 205.295L161.174 205.405L161.152 205.547L158.568 222.477L145.62 211.268L145.51 211.174L145.368 211.152L128.438 208.567L139.647 195.619L139.742 195.51L139.763 195.367L142.348 178.438Z" fill="#F69833" stroke="black"/>
<path d="M29.4473 11.6846L46.0122 26.0243L46.1213 26.1188L46.264 26.1406L67.9225 29.4471L53.5828 46.012L53.4883 46.1211L53.4666 46.2638L50.1601 67.9223L33.5951 53.5826L33.486 53.4881L33.3433 53.4664L11.6848 50.1599L26.0245 33.5949L26.119 33.4858L26.1408 33.3431L29.4473 11.6846Z" fill="#F24E1E" stroke="black"/>
<path d="M110.497 32.2325L121.649 60.6513L130.568 31.4547L122.886 61.0009L147.263 42.6229L123.681 62.0109L154.205 61.4713L123.731 63.2954L148.743 80.8003L123.016 64.3639L132.962 93.227L121.81 64.8082L112.891 94.0048L120.573 64.4586L96.196 82.8365L119.778 63.4486L89.254 63.9882L119.728 62.1641L94.7166 44.6591L120.443 61.0956L110.497 32.2325Z" fill="#3596F5"/>
</svg>
