<svg width="240" height="41" viewBox="0 0 240 41" fill="none" xmlns="http://www.w3.org/2000/svg">
<path d="M20 0.296875L24.6528 15.6441L40 20.2969L24.6528 24.9496L20 40.2969L15.3472 24.9496L0 20.2969L15.3472 15.6441L20 0.296875Z" fill="#373737"/>
<path d="M70 0.296875L74.6528 15.6441L90 20.2969L74.6528 24.9496L70 40.2969L65.3472 24.9496L50 20.2969L65.3472 15.6441L70 0.296875Z" fill="#373737"/>
<path d="M120 0.296875L124.653 15.6441L140 20.2969L124.653 24.9496L120 40.2969L115.347 24.9496L100 20.2969L115.347 15.6441L120 0.296875Z" fill="#373737"/>
<path d="M170 0.296875L174.653 15.6441L190 20.2969L174.653 24.9496L170 40.2969L165.347 24.9496L150 20.2969L165.347 15.6441L170 0.296875Z" fill="#373737"/>
<path d="M220 0.296875L224.653 15.6441L240 20.2969L224.653 24.9496L220 40.2969L215.347 24.9496L200 20.2969L215.347 15.6441L220 0.296875Z" fill="#373737"/>
</svg>
