<svg width="23" height="31" viewBox="0 0 23 31" fill="none" xmlns="http://www.w3.org/2000/svg">
<path fill-rule="evenodd" clip-rule="evenodd" d="M8 15C8 12.9289 9.67893 11.25 11.75 11.25C13.8211 11.25 15.5 12.9289 15.5 15C15.5 17.0711 13.8211 18.75 11.75 18.75C9.67893 18.75 8 17.0711 8 15Z" fill="#1ABCFE"/>
<path fill-rule="evenodd" clip-rule="evenodd" d="M0.5 22.5C0.5 20.4289 2.17893 18.75 4.25 18.75H8V22.5C8 24.5711 6.32107 26.25 4.25 26.25C2.17893 26.25 0.5 24.5711 0.5 22.5Z" fill="#0ACF83"/>
<path fill-rule="evenodd" clip-rule="evenodd" d="M8 3.75V11.25H11.75C13.8211 11.25 15.5 9.57107 15.5 7.5C15.5 5.42893 13.8211 3.75 11.75 3.75H8Z" fill="#FF7262"/>
<path fill-rule="evenodd" clip-rule="evenodd" d="M0.5 7.5C0.5 9.57107 2.17893 11.25 4.25 11.25H8V3.75H4.25C2.17893 3.75 0.5 5.42893 0.5 7.5Z" fill="#F24E1E"/>
<path fill-rule="evenodd" clip-rule="evenodd" d="M0.5 15C0.5 17.0711 2.17893 18.75 4.25 18.75H8V11.25H4.25C2.17893 11.25 0.5 12.9289 0.5 15Z" fill="#A259FF"/>
</svg>
