<svg width="34" height="30" viewBox="0 0 34 30" fill="none" xmlns="http://www.w3.org/2000/svg">
<path d="M15.9367 0.984375V9.38438H11.4742C9.01666 9.38438 7.01172 7.49738 7.01172 5.18438C7.01172 2.87138 9.01666 0.984375 11.4742 0.984375H15.9367ZM15.9367 10.5844V18.9844H11.4742C9.01666 18.9844 7.01172 17.0974 7.01172 14.7844C7.01172 12.4714 9.01666 10.5844 11.4742 10.5844H15.9367ZM15.9367 20.1844V24.3844C15.9367 26.6974 13.9318 28.5844 11.4742 28.5844C9.01666 28.5844 7.01172 26.6974 7.01172 24.3844C7.01172 22.0714 9.01666 20.1844 11.4742 20.1844H15.9367ZM26.1367 5.18438C26.1367 7.49738 24.1318 9.38438 21.6742 9.38438H17.2117V0.984375H21.6742C24.1318 0.984375 26.1367 2.87138 26.1367 5.18438ZM21.6742 10.5844C20.4907 10.5844 19.3556 11.0269 18.5188 11.8145C17.6819 12.6022 17.2117 13.6705 17.2117 14.7844C17.2117 15.8983 17.6819 16.9666 18.5188 17.7542C19.3556 18.5419 20.4907 18.9844 21.6742 18.9844C22.8577 18.9844 23.9928 18.5419 24.8297 17.7542C25.6666 16.9666 26.1367 15.8983 26.1367 14.7844C26.1367 13.6705 25.6666 12.6022 24.8297 11.8145C23.9928 11.0269 22.8577 10.5844 21.6742 10.5844Z" fill="black"/>
</svg>
