<svg width="100" height="100" viewBox="0 0 100 100" fill="none" xmlns="http://www.w3.org/2000/svg">
<g clip-path="url(#clip0_1392_2783)">
<path d="M53.6966 37.0586C56.2241 46.031 59.8375 47.8229 62.4156 47.2741C63.3 47.0858 64.5333 47.7029 64.5059 48.6067C64.2369 57.4876 64.2958 73.3488 66.2899 81.6319L84.52 86.3307L89.3486 87.765C90.1663 88.0078 90.3241 89.0971 89.6089 89.562L71.8936 101.077C71.7654 101.16 71.6197 101.213 71.4678 101.231L47.3145 104.13C47.1355 104.151 46.954 104.124 46.7892 104.051L20.4107 92.3269L29.8384 88.9346L44.9166 83.7268C45.0507 81.5897 45.2099 79.0501 45.3462 76.0674C45.3488 76.0122 45.3559 75.957 45.3674 75.9029L53.6966 37.0586Z" fill="white"/>
<path d="M66.2899 81.6319C62.5085 86.3237 53.0935 95.1328 45.5054 93.097C45.4025 93.0694 45.3025 93.0264 45.2266 92.9517C44.3888 92.1272 44.5675 89.2912 44.9166 83.7268M66.2899 81.6319C64.2958 73.3488 64.2369 57.4876 64.5059 48.6067C64.5333 47.7029 63.3 47.0858 62.4156 47.2741C59.8375 47.8229 56.2241 46.031 53.6966 37.0586L45.3674 75.9029C45.3559 75.957 45.3488 76.0122 45.3462 76.0674C45.2099 79.0501 45.0507 81.5897 44.9166 83.7268M66.2899 81.6319L84.52 86.3307L89.3487 87.765C90.1663 88.0078 90.3241 89.0971 89.6089 89.562L71.8936 101.077C71.7654 101.16 71.6197 101.213 71.4678 101.231L47.3145 104.13C47.1355 104.151 46.954 104.124 46.7892 104.051L20.4107 92.3269L29.8384 88.9346L44.9166 83.7268" stroke="black" stroke-width="0.5" stroke-linecap="round" stroke-linejoin="round"/>
<path d="M65.8138 80.9561C62.0066 85.6799 52.4884 94.5776 44.8739 92.3778" stroke="black" stroke-width="0.5" stroke-linecap="round" stroke-linejoin="round"/>
<path d="M55.475 71.2177C55.8026 70.9402 56.11 70.6814 56.3916 70.4458C56.083 70.7158 55.7774 70.9728 55.475 71.2177C51.7845 74.3434 45.5354 79.8343 44.7583 81.233L44.9698 76.3682C46.366 75.9693 50.4709 75.2694 55.475 71.2177Z" fill="#1D1D1D"/>
<path d="M36.2595 75.0724C43.4492 78.6672 52.2695 73.8727 56.1681 70.7458C56.4203 70.5434 56.5489 70.2277 56.5221 69.9055L53.8232 37.5185C53.8179 37.4548 53.8057 37.3887 53.7879 37.3273C49.4825 22.4466 25.4749 32.1502 26.7413 39.3264C27.7566 45.0796 27.1644 55.6835 26.7413 60.2664C26.8118 63.6506 28.8142 71.3497 36.2595 75.0724Z" fill="white"/>
<path d="M56.5649 70.4191C52.8986 73.5213 43.7048 78.795 36.2595 75.0724C28.8142 71.3497 26.8118 63.6506 26.7413 60.2664C27.1644 55.6835 27.7566 45.0796 26.7413 39.3264C25.4722 32.1349 49.5849 22.4052 53.8152 37.4228" stroke="black" stroke-width="0.5" stroke-linecap="round" stroke-linejoin="round"/>
<path d="M38.4111 52.2495L36.0845 57.9604C36.0845 57.9604 37.5228 61.8523 41.5839 58.8065" stroke="black" stroke-width="0.5" stroke-linecap="round" stroke-linejoin="round"/>
<path d="M40.0973 66.4252C46.5273 67.4405 48.4169 63.887 48.5579 61.9834C48.5579 61.9834 47.3697 64.7995 45.9059 65.6301C44.0876 66.6618 40.0973 66.4252 40.0973 66.4252Z" stroke="black" stroke-width="0.5" stroke-linecap="round" stroke-linejoin="round"/>
<path d="M45.4007 73.1631L46.4394 75.2406M43.0634 73.6825L43.8425 75.5003M41.2456 73.9422V76.0197M39.4277 73.9422L38.6486 76.0197M37.0905 73.1631L36.0517 75.5003" stroke="black" stroke-width="0.5" stroke-linecap="round" stroke-linejoin="round"/>
<path d="M44.3422 45.2719C45.2587 44.8489 47.388 44.4259 48.5725 46.118" stroke="black" stroke-width="0.5" stroke-linecap="round" stroke-linejoin="round"/>
<rect x="43.8437" y="48.228" width="4.1551" height="7.27143" fill="white"/>
<ellipse cx="46.0104" cy="52.6556" rx="1.26909" ry="1.90363" fill="black"/>
<path d="M29.9508 45.2705C30.5853 44.5655 32.362 43.4515 34.3926 44.636" stroke="black" stroke-width="0.5" stroke-linecap="round" stroke-linejoin="round"/>
<rect x="30.3378" y="48.228" width="4.1551" height="7.27143" fill="white"/>
<ellipse cx="32.48" cy="52.6546" rx="1.26909" ry="1.90363" fill="black"/>
<path d="M56.9067 45.7397C56.9067 45.7397 56.3986 53.9963 56.8712 54.2465C57.3438 54.4967 57.6535 54.3004 58.1403 54.458C58.2589 54.4964 58.0217 52.3097 58.1403 52.3429C60.4968 53.0022 63.3766 52.6719 64.2742 51.6621C65.1908 48.2074 66.0865 38.4213 63.8867 34.5294C61.137 29.6646 57.7528 24.5883 43.5813 20.9925C36.8325 20.6956 21.223 21.8061 26.6602 37.7022C32.5331 34.4097 39.527 33.1394 40.5846 34.5757C41.6421 36.0119 46.6843 37.1306 44.8148 36.2678C42.0652 34.9987 41.8536 33.689 45.6609 35.4984C47.4878 36.3667 48.7298 37.3504 49.5037 37.7022C51.8304 38.7597 49.0807 43.2015 52.2534 43.2015C54.7916 43.2015 56.4132 44.8937 56.9067 45.7397Z" fill="black"/>
<path d="M41.831 17.6197C42.2703 20.2457 44.3937 21.5756 45.4005 21.9123C41.6213 23.6839 38.7003 22.3138 37.7122 21.4073C36.8885 16.3572 41.2818 14.3371 41.831 17.6197Z" fill="black"/>
<path d="M35.3319 15.4938C34.8243 19.3857 36.6715 20.4997 37.6586 20.5702C40.3027 21.2231 34.2353 26.1499 33.4562 26.1499C32.8329 26.1499 31.9088 23.8402 31.5246 22.6853C30.8478 21.5008 30.5971 20.9241 30.6785 19.7241C30.8449 17.2738 34.2038 14.8593 35.3319 15.4938Z" fill="black"/>
<path d="M29.3984 14.0121C28.7344 17 29.8331 20.3035 30.3408 21.3188C30.683 21.8035 31.6791 22.9286 32.9256 23.5519C34.4838 24.331 31.4046 32.1032 25.8026 28.6067C23.9413 26.9145 23.476 23.6713 23.476 22.2612C24.9989 14.8159 29.8214 12.1085 29.3984 14.0121Z" fill="black"/>
<path d="M21.787 23.321C22.9715 29.0742 24.9597 29.2434 25.8058 28.6089C28.1506 30.7305 31.6025 35.5198 26.6519 37.704C21.787 36.6465 20.5179 33.2622 19.6719 30.9356C18.8258 28.6089 20.3064 16.1296 21.787 23.321Z" fill="black"/>
<path d="M59.8748 58.8108C64.7351 59.6209 65.7072 57.1933 65.7072 54.5985C65.7072 52.0037 62.467 48.4421 58.0927 52.1683L59.8748 58.8108Z" fill="white"/>
<path d="M59.8748 58.8108C64.7351 59.6209 65.7072 57.1933 65.7072 54.5985C65.7072 52.0037 62.467 48.4421 58.0927 52.1683" stroke="black" stroke-width="0.5" stroke-linecap="round"/>
<path d="M60.8846 56.0028C62.746 56.2837 63.1183 55.442 63.1183 54.5424C63.1183 53.6428 61.8774 52.408 60.2021 53.6999" stroke="black" stroke-width="0.5" stroke-linecap="round"/>
</g>
<defs>
<clipPath id="clip0_1392_2783">
<rect width="100" height="100" rx="50" fill="white"/>
</clipPath>
</defs>
</svg>
