<svg width="52" height="52" viewBox="0 0 52 52" fill="none" xmlns="http://www.w3.org/2000/svg">
<g clip-path="url(#clip0_462_1170)">
<rect x="0.575195" y="0.888695" width="50.8475" height="50.8475" rx="25.4237" fill="#FFF503"/>
<path d="M30.374 21.2947C31.2914 24.5515 32.4911 25.9421 33.5783 26.3671C34.4204 26.6963 35.8409 27.4801 35.8227 28.3841C35.7297 33.0054 35.8341 40.0528 36.7581 43.8907L45.9997 46.2727L47.4238 46.6957C48.2415 46.9386 48.3992 48.0279 47.6841 48.4928L39.695 53.6857C39.5667 53.7691 39.421 53.8219 39.2691 53.8401L27.2735 55.2796C27.0945 55.3011 26.913 55.2738 26.7482 55.2006L13.5 49.3124L18.2793 47.5927L25.9231 44.9527C25.9904 43.8791 26.0703 42.6051 26.139 41.1108C26.1415 41.0556 26.1486 41.0005 26.1602 40.9464L30.374 21.2947Z" fill="white"/>
<path d="M36.7581 43.8907C34.8539 46.2533 30.1316 50.6756 26.2984 49.7227C26.195 49.697 26.0922 49.6546 26.0282 49.5695C25.6634 49.0848 25.7537 47.6521 25.9231 44.9527M36.7581 43.8907C35.8341 40.0528 35.7297 33.0054 35.8227 28.3841C35.8409 27.4801 34.4204 26.6963 33.5783 26.3671C32.4911 25.9421 31.2914 24.5515 30.374 21.2947L26.1602 40.9464C26.1486 41.0005 26.1415 41.0556 26.139 41.1108C26.0703 42.6051 25.9904 43.8791 25.9231 44.9527M36.7581 43.8907L45.9997 46.2727L47.4238 46.6957C48.2415 46.9386 48.3992 48.0279 47.6841 48.4928L39.695 53.6857C39.5667 53.7691 39.421 53.8219 39.2691 53.8401L27.2735 55.2796C27.0945 55.3011 26.913 55.2738 26.7482 55.2005L13.5 49.3124L18.2793 47.5927L25.9231 44.9527" stroke="black" stroke-width="0.5" stroke-linecap="round" stroke-linejoin="round"/>
<path d="M36.5167 43.5467C34.5866 45.9414 29.7615 50.452 25.9014 49.3369" stroke="black" stroke-width="0.5" stroke-linecap="round" stroke-linejoin="round"/>
<path d="M31.2755 38.6099C31.4416 38.4693 31.5974 38.3381 31.7402 38.2186C31.5838 38.3555 31.4288 38.4858 31.2755 38.6099C29.4046 40.1945 26.2367 42.978 25.8428 43.6871L25.95 41.2209C26.6578 41.0187 28.7387 40.6639 31.2755 38.6099Z" fill="#1D1D1D"/>
<path d="M21.5342 40.5645C25.0608 42.3277 29.3612 40.1095 31.4267 38.5278C31.6834 38.3313 31.8119 38.0142 31.7851 37.6919L30.4419 21.574C30.4366 21.5104 30.4246 21.4444 30.4064 21.3832C28.1871 13.9067 16.0684 18.813 16.7091 22.4434C17.2237 25.3599 16.9235 30.7355 16.7091 33.0587C16.7448 34.7743 17.7599 38.6773 21.5342 40.5645Z" fill="white"/>
<path d="M31.8279 38.2055C29.9693 39.7781 25.3085 42.4516 21.5342 40.5645C17.7599 38.6773 16.7448 34.7743 16.7091 33.0587C16.9235 30.7355 17.2237 25.3599 16.7091 22.4434C16.0657 18.7977 28.2894 13.8653 30.4339 21.4783" stroke="black" stroke-width="0.5" stroke-linecap="round" stroke-linejoin="round"/>
<path d="M22.6248 28.9961L21.4453 31.8912C21.4453 31.8912 22.1744 33.8642 24.2332 32.3201" stroke="black" stroke-width="0.5" stroke-linecap="round" stroke-linejoin="round"/>
<path d="M23.4795 36.1809C26.7391 36.6955 27.697 34.8942 27.7685 33.9291C27.7685 33.9291 27.1662 35.3567 26.4241 35.7778C25.5023 36.3008 23.4795 36.1809 23.4795 36.1809Z" stroke="black" stroke-width="0.5" stroke-linecap="round" stroke-linejoin="round"/>
<path d="M26.1681 39.5968L26.6947 40.65M24.9832 39.8601L25.3782 40.7816M24.0617 39.9917V41.0449M23.1402 39.9917L22.7452 41.0449M21.9553 39.5968L21.4287 40.7816" stroke="black" stroke-width="0.5" stroke-linecap="round" stroke-linejoin="round"/>
<path d="M25.6318 25.4573C26.0965 25.2428 27.1759 25.0284 27.7763 25.8862" stroke="black" stroke-width="0.5" stroke-linecap="round" stroke-linejoin="round"/>
<rect x="25.3789" y="26.9559" width="2.10639" height="3.68619" fill="white"/>
<ellipse cx="26.4773" cy="29.2006" rx="0.643352" ry="0.965029" fill="black"/>
<path d="M18.3359 25.4572C18.6576 25.0998 19.5583 24.5351 20.5877 25.1355" stroke="black" stroke-width="0.5" stroke-linecap="round" stroke-linejoin="round"/>
<rect x="18.5322" y="26.9559" width="2.10639" height="3.68619" fill="white"/>
<ellipse cx="19.618" cy="29.2001" rx="0.643352" ry="0.965029" fill="black"/>
<path d="M32.0012 25.6945C32.0012 25.6945 31.7436 29.8801 31.9832 30.007C32.2228 30.1338 32.3798 30.0343 32.6265 30.1142C32.6867 30.1337 32.5664 29.0251 32.6265 29.042C33.8212 29.3762 35.2811 29.2087 35.7361 28.6968C36.2007 26.9455 36.6548 21.9845 35.5397 20.0116C34.1457 17.5454 32.4301 14.972 25.246 13.1492C21.8248 12.9987 13.9117 13.5616 16.668 21.62C19.6452 19.9509 23.1907 19.3069 23.7268 20.035C24.263 20.7631 26.819 21.3302 25.8713 20.8928C24.4774 20.2495 24.3702 19.5855 26.3002 20.5028C27.2264 20.9429 27.856 21.4416 28.2483 21.62C29.4278 22.1561 28.0339 24.4078 29.6423 24.4078C30.929 24.4078 31.751 25.2656 32.0012 25.6945Z" fill="black"/>
<path d="M24.3587 11.4397C24.5814 12.771 25.6579 13.4452 26.1682 13.6158C24.2524 14.5139 22.7716 13.8194 22.2707 13.3598C21.8531 10.7997 24.0803 9.77568 24.3587 11.4397Z" fill="black"/>
<path d="M21.0638 10.3613C20.8064 12.3342 21.7428 12.8989 22.2432 12.9347C23.5837 13.2657 20.5078 15.7633 20.1129 15.7633C19.7969 15.7633 19.3284 14.5924 19.1337 14.0069C18.7906 13.4065 18.6635 13.1141 18.7048 12.5058C18.7891 11.2636 20.4919 10.0396 21.0638 10.3613Z" fill="black"/>
<path d="M18.056 9.61068C17.7194 11.1253 18.2764 12.8 18.5338 13.3147C18.7073 13.5604 19.2122 14.1308 19.8441 14.4468C20.634 14.8417 19.0731 18.7818 16.2332 17.0092C15.2896 16.1514 15.0537 14.5073 15.0537 13.7925C15.8257 10.0181 18.2705 8.64565 18.056 9.61068Z" fill="black"/>
<path d="M14.1975 14.3285C14.798 17.245 15.8059 17.3308 16.2348 17.0091C17.4235 18.0847 19.1734 20.5126 16.6637 21.6198C14.1975 21.0837 13.5542 19.3681 13.1253 18.1886C12.6964 17.0091 13.4469 10.6828 14.1975 14.3285Z" fill="black"/>
<path d="M33.506 32.3217C35.9699 32.7323 36.4627 31.5017 36.4627 30.1863C36.4627 28.8709 34.8201 27.0653 32.6025 28.9543L33.506 32.3217Z" fill="white"/>
<path d="M33.506 32.3217C35.9699 32.7323 36.4627 31.5017 36.4627 30.1863C36.4627 28.8709 34.8201 27.0653 32.6025 28.9543" stroke="black" stroke-width="0.5" stroke-linecap="round"/>
<path d="M34.0179 30.8977C34.9615 31.0401 35.1502 30.6134 35.1502 30.1574C35.1502 29.7013 34.5211 29.0754 33.6719 29.7303" stroke="black" stroke-width="0.5" stroke-linecap="round"/>
</g>
<defs>
<clipPath id="clip0_462_1170">
<rect x="0.575195" y="0.888695" width="50.8475" height="50.8475" rx="25.4237" fill="white"/>
</clipPath>
</defs>
</svg>
