<svg width="32" height="32" viewBox="0 0 32 32" fill="none" xmlns="http://www.w3.org/2000/svg">
<path d="M30.0014 16.3109C30.0014 15.1598 29.9061 14.3198 29.6998 13.4487H16.2871V18.6442H24.1601C24.0014 19.9354 23.1443 21.8798 21.2395 23.1864L21.2128 23.3604L25.4536 26.58L25.7474 26.6087C28.4458 24.1665 30.0014 20.5731 30.0014 16.3109Z" fill="#212428"/>
<path d="M16.2863 29.9998C20.1434 29.9998 23.3814 28.7553 25.7466 26.6086L21.2386 23.1863C20.0323 24.0108 18.4132 24.5863 16.2863 24.5863C12.5086 24.5863 9.30225 22.1441 8.15929 18.7686L7.99176 18.7825L3.58208 22.127L3.52441 22.2841C5.87359 26.8574 10.699 29.9998 16.2863 29.9998Z" fill="black"/>
<path d="M8.16001 18.769C7.85842 17.8979 7.68389 16.9645 7.68389 16.0001C7.68389 15.0356 7.85843 14.1023 8.14414 13.2312L8.13615 13.0456L3.6712 9.64746L3.52512 9.71556C2.5569 11.6134 2.00134 13.7445 2.00134 16.0001C2.00134 18.2556 2.5569 20.3867 3.52512 22.2845L8.16001 18.769Z" fill="#626262"/>
<path d="M16.2862 7.4133C18.9687 7.4133 20.7782 8.54885 21.81 9.4978L25.8417 5.64C23.3656 3.38445 20.1433 2 16.2862 2C10.6989 2 5.87348 5.1422 3.52429 9.71549L8.14333 13.2311C9.30217 9.85555 12.5085 7.4133 16.2862 7.4133Z" fill="black"/>
</svg>
