<svg width="1264" height="757" viewBox="0 0 1264 757" fill="none" xmlns="http://www.w3.org/2000/svg">
<g clip-path="url(#clip0_1363_2795)">
<path d="M0 0V1065.3" stroke="#DADADA" stroke-width="0.5"/>
<path d="M127.059 0V1065.3" stroke="#DADADA" stroke-width="0.5"/>
<path d="M251.922 0V1065.3" stroke="#DADADA" stroke-width="0.5"/>
<path d="M378.978 0V1065.3" stroke="#DADADA" stroke-width="0.5"/>
<path d="M506.041 0V1065.3" stroke="#DADADA" stroke-width="0.5"/>
<path d="M633.096 0V1065.3" stroke="#DADADA" stroke-width="0.5"/>
<path d="M757.959 0V1065.3" stroke="#DADADA" stroke-width="0.5"/>
<path d="M885.022 0V1065.3" stroke="#DADADA" stroke-width="0.5"/>
<path d="M1012.08 0V1065.3" stroke="#DADADA" stroke-width="0.5"/>
<path d="M1136.94 0V1065.3" stroke="#DADADA" stroke-width="0.5"/>
<path d="M1264 0V1065.3" stroke="#DADADA" stroke-width="0.5"/>
<path d="M0 746.152L1264 746.152" stroke="#DADADA" stroke-width="0.5"/>
<path d="M0 640.503L1264 640.503" stroke="#DADADA" stroke-width="0.5"/>
<path d="M0 532.652L1264 532.652" stroke="#DADADA" stroke-width="0.5"/>
<path d="M0 427.002L1264 427.002" stroke="#DADADA" stroke-width="0.5"/>
<path d="M0 321.352L1264 321.352" stroke="#DADADA" stroke-width="0.5"/>
<path d="M0 213.501L1264 213.501" stroke="#DADADA" stroke-width="0.5"/>
<path d="M0 0L1264 0" stroke="#DADADA" stroke-width="0.5"/>
<path d="M0 107.851L1264 107.851" stroke="#DADADA" stroke-width="0.5"/>
</g>
<defs>
<clipPath id="clip0_1363_2795">
<rect width="1264" height="757" fill="white"/>
</clipPath>
</defs>
</svg>
