<svg width="504" height="484" viewBox="0 0 504 484" fill="none" xmlns="http://www.w3.org/2000/svg">
<g clip-path="url(#clip0_1171_265)">
<path d="M277.528 76.9909L291.962 96.4552C292.247 96.8407 292.767 96.9688 293.199 96.7603L315.025 86.2333L318.76 110.176C318.834 110.65 319.235 111.005 319.715 111.021L343.933 111.843L336.113 134.779C335.958 135.233 336.148 135.733 336.565 135.971L357.628 147.953L340.045 164.628C339.697 164.958 339.632 165.49 339.891 165.894L352.972 186.292L329.655 192.886C329.193 193.016 328.889 193.456 328.931 193.935L331.034 218.075L307.323 213.077C306.853 212.979 306.379 213.227 306.194 213.67L296.838 236.023L278.165 220.578C277.795 220.273 277.26 220.273 276.89 220.578L258.218 236.023L248.861 213.67C248.676 213.227 248.202 212.979 247.733 213.077L224.021 218.075L226.125 193.935C226.166 193.456 225.862 193.016 225.401 192.886L202.083 186.292L215.164 165.894C215.423 165.49 215.359 164.958 215.01 164.628L197.428 147.953L218.49 135.971C218.907 135.733 219.097 135.233 218.942 134.779L211.123 111.843L235.341 111.021C235.82 111.005 236.221 110.65 236.295 110.176L240.03 86.2333L261.856 96.7603C262.288 96.9688 262.808 96.8407 263.094 96.4552L277.528 76.9909Z" fill="white" stroke="black"/>
<path d="M277.5 90.9909L289.339 106.956C289.625 107.341 290.144 107.469 290.577 107.261L308.479 98.6265L311.542 118.265C311.616 118.739 312.017 119.094 312.496 119.11L332.361 119.784L325.947 138.596C325.792 139.051 325.982 139.551 326.399 139.788L343.675 149.617L329.253 163.294C328.905 163.624 328.84 164.155 329.099 164.559L339.829 181.29L320.703 186.698C320.241 186.829 319.937 187.269 319.979 187.747L321.704 207.548L302.256 203.449C301.786 203.35 301.313 203.598 301.127 204.041L293.453 222.375L278.137 209.707C277.768 209.402 277.232 209.402 276.863 209.707L261.547 222.375L253.873 204.041C253.687 203.598 253.214 203.35 252.744 203.449L233.296 207.548L235.021 187.747C235.063 187.269 234.759 186.829 234.297 186.698L215.171 181.29L225.901 164.559C226.16 164.155 226.095 163.624 225.747 163.294L211.325 149.617L228.601 139.788C229.018 139.551 229.208 139.051 229.053 138.596L222.639 119.784L242.504 119.11C242.983 119.094 243.384 118.739 243.458 118.265L246.521 98.6265L264.423 107.261C264.856 107.469 265.375 107.341 265.661 106.956L277.5 90.9909Z" fill="#FFE900" stroke="black"/>
<path d="M277.5 101.991L287.304 115.212C287.59 115.597 288.109 115.725 288.542 115.517L303.367 108.367L305.904 124.629C305.978 125.103 306.378 125.458 306.858 125.474L323.308 126.033L317.997 141.612C317.842 142.066 318.031 142.566 318.449 142.803L332.755 150.942L320.812 162.269C320.464 162.599 320.399 163.13 320.658 163.534L329.544 177.389L313.705 181.868C313.243 181.998 312.94 182.439 312.981 182.917L314.41 199.314L298.304 195.92C297.835 195.821 297.361 196.069 297.176 196.512L290.82 211.695L278.137 201.204C277.768 200.899 277.232 200.899 276.863 201.204L264.18 211.695L257.824 196.512C257.639 196.069 257.165 195.821 256.696 195.92L240.59 199.314L242.019 182.917C242.06 182.439 241.757 181.998 241.295 181.868L225.456 177.389L234.342 163.534C234.601 163.13 234.536 162.599 234.188 162.269L222.245 150.942L236.551 142.803C236.969 142.566 237.158 142.066 237.003 141.612L231.692 126.033L248.142 125.474C248.622 125.458 249.022 125.103 249.096 124.629L251.633 108.366L266.458 115.517C266.891 115.725 267.41 115.597 267.696 115.212L277.5 101.991Z" fill="white" stroke="black"/>
<path d="M98.1188 329.341C124.399 316.093 164.663 307.685 181.509 305.137L285.115 314.055C307.858 319.575 358.903 335.456 381.14 354.818C395.881 377.748 425.362 429.212 425.362 451.632L432.5 483L425.362 570.102C425.362 570.102 63.4992 589.21 71.5855 563.733V451.632L39.9983 435.072C41.0091 421.824 43.2801 414.498 47.5792 401.952C58.7985 369.209 80.4299 331.464 98.1188 329.341Z" fill="white"/>
<path d="M98.1188 329.341C124.399 316.093 164.663 307.685 181.509 305.137L285.115 314.055C307.858 319.575 358.903 335.456 381.14 354.818M381.14 354.818C395.881 377.748 425.362 429.212 425.362 451.633M381.14 354.818C383.796 360.769 387.817 413.776 389.985 451.633M391.5 487C391.5 481.205 390.912 467.801 389.985 451.633M425.362 451.633C416.518 454.677 397.062 458.939 389.985 451.633M425.362 451.633L433 487" stroke="black" stroke-linecap="round"/>
<path d="M33.6777 565.007C26.2751 550.995 34.9412 465.221 39.9952 442.716C62.232 455.964 100.642 455.879 114.541 454.18C114.541 454.18 109.309 498.674 96.8522 530.613C96.8522 530.613 89.5383 552.703 77.8998 562.459C62.7047 575.198 41.0803 579.02 33.6777 565.007Z" fill="white" stroke="black" stroke-linecap="round" stroke-linejoin="round"/>
<path d="M39.0073 440.168C60.4278 453.277 98.8157 453.582 114.541 453.582C101.791 458.498 82.0764 458.866 68.64 456.859C52.0138 454.376 36.4573 446.722 39.0073 440.168Z" fill="#C7C2C2"/>
<path d="M124.135 405.77C128.179 366.026 107.289 339.105 96.3386 330.612C78.6497 332.735 57.0183 370.48 45.799 403.223C41.4999 415.769 39.2289 423.095 38.2181 436.343C37.2073 449.591 90.0211 452.904 116.554 452.904C118.924 441.439 123.757 415.961 124.135 405.77Z" fill="white" stroke="black" stroke-linecap="round"/>
<path d="M276.305 362.021C239.48 372.588 193.57 329.55 174.879 306.32C174.685 306.08 174.62 305.788 174.691 305.488C184.662 263.022 183.519 170.168 183.354 159.623C183.345 159.063 183.797 158.642 184.357 158.642H239.388L276.422 278.123C276.448 278.204 276.462 278.291 276.466 278.376C278.92 332.699 282.919 357.155 276.59 361.883C276.504 361.947 276.407 361.992 276.305 362.021Z" fill="white" stroke="black" stroke-linecap="round" stroke-linejoin="round"/>
<path d="M176.929 302.589C195.453 325.761 241.762 369.406 278.809 358.616" stroke="black" stroke-linecap="round" stroke-linejoin="round"/>
<path d="M227.66 255.191C225.914 253.71 224.271 252.319 222.762 251.047C224.422 252.511 226.055 253.89 227.66 255.191C245.363 270.219 273.535 294.668 277.282 301.467L275.999 278.364C269.249 276.419 251.537 274.54 227.66 255.191Z" fill="#C7C2C2"/>
<path d="M320.711 273.785C284.762 291.907 240.436 266.567 222.33 251.308C222.067 251.086 221.95 250.752 222 250.412L235.441 159.496C235.513 159.005 235.934 158.642 236.43 158.642H365.918C366.511 158.642 366.977 159.142 366.925 159.733C366.536 164.199 365.244 181.77 367.02 201.158C366.676 217.758 356.935 255.525 320.711 273.785Z" fill="white"/>
<path d="M221.919 250.959C239.756 266.177 284.487 292.046 320.711 273.785C356.935 255.525 366.676 217.758 367.02 201.158C365.244 181.77 366.536 164.199 366.925 159.733C366.977 159.142 366.511 158.642 365.918 158.642H235.567" stroke="black" stroke-linecap="round" stroke-linejoin="round"/>
<path d="M310.243 161.813L321.562 189.826C321.562 189.826 314.565 208.917 294.806 193.976" stroke="black" stroke-linecap="round" stroke-linejoin="round"/>
<path d="M323.5 217.642C306.5 238.942 289 235.442 272.495 217.642C272.495 217.642 290.482 220.592 301 220.442C310.749 220.302 323.5 217.642 323.5 217.642Z" stroke="black" stroke-linecap="round" stroke-linejoin="round"/>
<path d="M276.274 264.371L271.22 274.562M287.646 266.919L283.855 275.836M296.49 268.193V278.384M305.334 268.193L309.125 278.384M316.706 264.371L321.76 275.836" stroke="black" stroke-linecap="round" stroke-linejoin="round"/>
<path d="M205.861 193.997C182.214 197.971 177.484 186.063 177.484 173.335C177.484 160.606 193.249 143.136 214.531 161.414L205.861 193.997Z" fill="white"/>
<path d="M205.861 193.997C182.214 197.971 177.484 186.063 177.484 173.335C177.484 160.606 193.249 143.136 214.531 161.414" stroke="black" stroke-linecap="round"/>
<path d="M200.955 180.216C191.898 181.594 190.087 177.465 190.087 173.052C190.087 168.639 196.125 162.582 204.275 168.919" stroke="black" stroke-linecap="round"/>
<path d="M298.527 67.7546C299.356 69.8587 298.322 72.2362 296.218 73.065C294.114 73.8938 291.737 72.86 290.908 70.756C290.079 68.6519 291.113 66.2744 293.217 65.4456C295.321 64.6168 297.698 65.6506 298.527 67.7546Z" fill="white"/>
<path d="M301.575 66.5541L305.385 65.0534M292.016 62.3979L290.516 58.5882M287.86 71.9565L284.051 73.4572M297.419 76.1127L298.919 79.9224M298.527 67.7546C299.356 69.8587 298.322 72.2362 296.218 73.065C294.114 73.8938 291.737 72.86 290.908 70.756C290.079 68.6519 291.113 66.2744 293.217 65.4456C295.321 64.6168 297.698 65.6506 298.527 67.7546Z" stroke="black" stroke-linecap="round" stroke-linejoin="round"/>
<path d="M338.589 92.464C338.58 94.4741 336.942 96.0958 334.932 96.0862C332.922 96.0766 331.301 94.4393 331.31 92.4292C331.32 90.4191 332.957 88.7974 334.967 88.807C336.977 88.8166 338.599 90.4539 338.589 92.464Z" fill="white"/>
<path d="M341.501 92.4779L345.141 92.4953M334.981 85.8953L334.998 82.2557M328.398 92.4153L324.759 92.3978M334.918 98.9979L334.901 102.637M338.589 92.464C338.58 94.4741 336.942 96.0958 334.932 96.0862C332.922 96.0766 331.301 94.4393 331.31 92.4292C331.32 90.4191 332.957 88.7974 334.967 88.807C336.977 88.8166 338.599 90.4539 338.589 92.464Z" stroke="black" stroke-linecap="round" stroke-linejoin="round"/>
<path d="M366.459 123.147C366.19 123.572 365.628 123.699 365.203 123.43C364.778 123.162 364.652 122.6 364.92 122.175C365.188 121.75 365.75 121.623 366.175 121.892C366.6 122.16 366.727 122.722 366.459 123.147Z" fill="white"/>
<path d="M367.074 123.536L367.843 124.021M366.564 121.276L367.05 120.507M364.304 121.786L363.535 121.301M364.815 124.046L364.329 124.815M366.459 123.147C366.19 123.572 365.628 123.699 365.203 123.43C364.778 123.162 364.652 122.6 364.92 122.175C365.188 121.75 365.75 121.623 366.175 121.892C366.6 122.16 366.727 122.722 366.459 123.147Z" stroke="black" stroke-linecap="round" stroke-linejoin="round"/>
<path d="M308.522 78.9238C308.254 79.3487 307.692 79.4756 307.267 79.2072C306.842 78.9389 306.715 78.3769 306.983 77.952C307.252 77.5272 307.814 77.4002 308.239 77.6686C308.663 77.9369 308.79 78.4989 308.522 78.9238Z" fill="white"/>
<path d="M309.137 79.3125L309.907 79.7983M308.627 77.0531L309.113 76.2838M306.368 77.5634L305.599 77.0775M306.878 79.8227L306.392 80.592M308.522 78.9238C308.254 79.3487 307.692 79.4756 307.267 79.2072C306.842 78.9389 306.715 78.3769 306.983 77.952C307.252 77.5272 307.814 77.4002 308.239 77.6686C308.663 77.9369 308.79 78.4989 308.522 78.9238Z" stroke="black" stroke-linecap="round" stroke-linejoin="round"/>
<path d="M249.478 64.8052C249.21 65.2301 248.648 65.357 248.223 65.0887C247.798 64.8203 247.671 64.2584 247.939 63.8335C248.208 63.4086 248.77 63.2817 249.195 63.55C249.619 63.8184 249.746 64.3803 249.478 64.8052Z" fill="white"/>
<path d="M250.094 65.1939L250.863 65.6798M249.583 62.9346L250.069 62.1652M247.324 63.4448L246.555 62.9589M247.834 65.7041L247.348 66.4735M249.478 64.8052C249.21 65.2301 248.648 65.357 248.223 65.0887C247.798 64.8203 247.671 64.2584 247.939 63.8335C248.208 63.4086 248.77 63.2817 249.195 63.55C249.619 63.8184 249.746 64.3803 249.478 64.8052Z" stroke="black" stroke-linecap="round" stroke-linejoin="round"/>
<path d="M179.964 143.534C179.696 143.959 179.134 144.086 178.709 143.817C178.284 143.549 178.157 142.987 178.426 142.562C178.694 142.137 179.256 142.01 179.681 142.279C180.106 142.547 180.233 143.109 179.964 143.534Z" fill="white"/>
<path d="M180.58 143.922L181.349 144.408M180.07 141.663L180.555 140.894M177.81 142.173L177.041 141.687M178.321 144.433L177.835 145.202M179.964 143.534C179.696 143.959 179.134 144.086 178.709 143.817C178.284 143.549 178.157 142.987 178.426 142.562C178.694 142.137 179.256 142.01 179.681 142.279C180.106 142.547 180.233 143.109 179.964 143.534Z" stroke="black" stroke-linecap="round" stroke-linejoin="round"/>
<path d="M220.713 97.6754C220.445 98.1002 219.883 98.2272 219.458 97.9588C219.033 97.6905 218.906 97.1285 219.175 96.7036C219.443 96.2787 220.005 96.1518 220.43 96.4202C220.855 96.6885 220.982 97.2505 220.713 97.6754Z" fill="white"/>
<path d="M221.329 98.064L222.098 98.5499M220.819 95.8047L221.305 95.0354M218.559 96.3149L217.79 95.8291M219.07 98.5743L218.584 99.3436M220.713 97.6754C220.445 98.1002 219.883 98.2272 219.458 97.9588C219.033 97.6905 218.906 97.1285 219.175 96.7036C219.443 96.2787 220.005 96.1518 220.43 96.4202C220.855 96.6885 220.982 97.2505 220.713 97.6754Z" stroke="black" stroke-linecap="round" stroke-linejoin="round"/>
<path d="M221.248 87.4899C220.578 88.5521 219.173 88.8694 218.11 88.1985C217.048 87.5277 216.731 86.1228 217.402 85.0606C218.073 83.9983 219.478 83.6811 220.54 84.3519C221.602 85.0227 221.919 86.4277 221.248 87.4899Z" fill="white"/>
<path d="M222.787 88.4616L224.71 89.6763M221.511 82.8132L222.726 80.8899M215.863 84.0888L213.94 82.8742M217.139 89.7372L215.924 91.6605M221.248 87.4899C220.578 88.5521 219.173 88.8694 218.11 88.1985C217.048 87.5277 216.731 86.1228 217.402 85.0606C218.073 83.9983 219.478 83.6811 220.54 84.3519C221.602 85.0227 221.919 86.4277 221.248 87.4899Z" stroke="black" stroke-linecap="round" stroke-linejoin="round"/>
<path d="M259.753 52.8356C259.082 53.8978 257.678 54.2151 256.615 53.5443C255.553 52.8734 255.236 51.4685 255.907 50.4063C256.577 49.3441 257.982 49.0268 259.045 49.6976C260.107 50.3684 260.424 51.7734 259.753 52.8356Z" fill="white"/>
<path d="M261.292 53.8073L263.215 55.022M260.016 48.159L261.231 46.2356M254.368 49.4346L252.445 48.2199M255.644 55.0829L254.429 57.0062M259.753 52.8356C259.082 53.8978 257.678 54.2151 256.615 53.5443C255.553 52.8734 255.236 51.4685 255.907 50.4063C256.577 49.3441 257.982 49.0268 259.045 49.6976C260.107 50.3684 260.424 51.7734 259.753 52.8356Z" stroke="black" stroke-linecap="round" stroke-linejoin="round"/>
<path d="M330.112 34.7987L328.5 32.2322L313.544 53.4329L313.484 55.6174L330.112 34.7987Z" fill="white" stroke="black" stroke-linecap="round" stroke-linejoin="round"/>
<path d="M319.487 38.9635L317.876 36.3971L320.574 36.1344L319.487 38.9635Z" fill="#FDBD39"/>
<path d="M328.237 29.5329L326.625 26.9665L323.713 32.016L326.315 32.1711L328.237 29.5329Z" fill="#FDBD39"/>
<path d="M319.487 38.9635L317.876 36.3971L320.574 36.1344L319.487 38.9635Z" stroke="black" stroke-linecap="round" stroke-linejoin="round"/>
<path d="M328.237 29.5329L326.625 26.9665L323.713 32.016L326.315 32.1711L328.237 29.5329Z" stroke="black" stroke-linecap="round" stroke-linejoin="round"/>
<path d="M328.084 32.1355L313.545 53.4317L321.089 35.8123L317.973 35.9796L320.587 26.4657L326.209 26.8713L323.297 31.9208L328.084 32.1355Z" fill="#FFE900" stroke="black" stroke-linecap="round" stroke-linejoin="round"/>
<path d="M366.073 77.9325L365.541 74.949L343.725 88.9928L342.851 90.9954L366.073 77.9325Z" fill="white" stroke="black" stroke-linecap="round" stroke-linejoin="round"/>
<path d="M354.662 77.8089L354.13 74.8254L356.73 75.5937L354.662 77.8089Z" fill="#FDBD39"/>
<path d="M366.31 72.3483L365.778 69.3648L361.185 72.9533L363.539 74.0731L366.31 72.3483Z" fill="#FDBD39"/>
<path d="M354.662 77.8089L354.13 74.8254L356.73 75.5937L354.662 77.8089Z" stroke="black" stroke-linecap="round" stroke-linejoin="round"/>
<path d="M366.31 72.3483L365.778 69.3648L361.185 72.9533L363.539 74.0731L366.31 72.3483Z" stroke="black" stroke-linecap="round" stroke-linejoin="round"/>
<path d="M365.192 74.7031L343.727 88.9921L357.328 75.4881L354.378 74.4747L360.369 66.6356L365.429 69.1203L360.835 72.7088L365.192 74.7031Z" fill="#FFE900" stroke="black" stroke-linecap="round" stroke-linejoin="round"/>
<path d="M244.009 52.4649L245.387 49.958L259.165 71.4548L259.266 73.6286L244.009 52.4649Z" fill="white" stroke="black" stroke-linecap="round" stroke-linejoin="round"/>
<path d="M253.555 56.9026L254.932 54.3956L252.526 54.0593L253.555 56.9026Z" fill="#FDBD39"/>
<path d="M245.56 47.2819L246.938 44.775L249.641 49.8769L247.329 49.9586L245.56 47.2819Z" fill="#FDBD39"/>
<path d="M253.555 56.9026L254.932 54.3956L252.526 54.0593L253.555 56.9026Z" stroke="black" stroke-linecap="round" stroke-linejoin="round"/>
<path d="M245.56 47.2819L246.938 44.775L249.641 49.8769L247.329 49.9586L245.56 47.2819Z" stroke="black" stroke-linecap="round" stroke-linejoin="round"/>
<path d="M245.755 49.8735L259.163 71.4537L252.06 53.7243L254.836 53.9774L252.3 44.4447L247.306 44.6915L250.009 49.7934L245.755 49.8735Z" fill="#FFE900" stroke="black" stroke-linecap="round" stroke-linejoin="round"/>
<path d="M173.778 55.5366L174.418 52.7488L193.543 69.6665L194.234 71.7299L173.778 55.5366Z" fill="white" stroke="black" stroke-linecap="round" stroke-linejoin="round"/>
<path d="M184.173 57.1987L184.813 54.4109L182.406 54.7445L184.173 57.1987Z" fill="#FDBD39"/>
<path d="M173.855 50.1265L174.495 47.3388L178.489 51.5086L176.287 52.2186L173.855 50.1265Z" fill="#FDBD39"/>
<path d="M184.173 57.1987L184.813 54.4109L182.406 54.7445L184.173 57.1987Z" stroke="black" stroke-linecap="round" stroke-linejoin="round"/>
<path d="M173.855 50.1265L174.495 47.3388L178.489 51.5086L176.287 52.2186L173.855 50.1265Z" stroke="black" stroke-linecap="round" stroke-linejoin="round"/>
<path d="M174.749 52.5665L193.541 69.6652L181.867 54.5491L184.606 54.0345L179.563 45.5567L174.826 47.1578L178.82 51.3276L174.749 52.5665Z" fill="#FFE900" stroke="black" stroke-linecap="round" stroke-linejoin="round"/>
<path d="M379.364 137.613L375.62 131.473L379.476 123.36L383.221 129.501L379.364 137.613Z" fill="white" stroke="black" stroke-linecap="round" stroke-linejoin="round"/>
<path d="M404.74 117.913L413.459 105.305L383.669 129.015L379.813 137.128L404.74 117.913Z" fill="#FDBD39"/>
<path d="M375.23 131.113L379.03 123.845L365.952 133.335L362.542 140.963L375.23 131.113Z" fill="#FDBD39"/>
<path d="M404.74 117.913L413.459 105.305L383.669 129.015L379.813 137.128L404.74 117.913Z" stroke="black" stroke-linecap="round" stroke-linejoin="round"/>
<path d="M375.23 131.113L379.03 123.845L365.952 133.335L362.542 140.963L375.23 131.113Z" stroke="black" stroke-linecap="round" stroke-linejoin="round"/>
<path d="M382.775 104.861L365.505 133.82L379.478 123.36L382.831 129.14L413.069 104.945L404.573 89.0448L387.694 112.083L382.775 104.861Z" fill="#FFE900" stroke="black" stroke-linecap="round" stroke-linejoin="round"/>
<path d="M175.672 123.279L170.14 132.212L166.937 123.032L173.092 114.706L175.672 123.279Z" fill="white" stroke="black" stroke-linecap="round" stroke-linejoin="round"/>
<path d="M141.932 111.577L137.575 99.0932L166.808 122.666L170.14 132.212L141.932 111.577Z" fill="#FDBD39"/>
<path d="M176.039 123.151L173.092 114.706L192.478 128.946L193.632 132.251L176.039 123.151Z" fill="#FDBD39"/>
<path d="M141.932 111.577L137.575 99.0932L166.808 122.666L170.14 132.212L141.932 111.577Z" stroke="black" stroke-linecap="round" stroke-linejoin="round"/>
<path d="M176.039 123.151L173.092 114.706L192.478 128.946L193.632 132.251L176.039 123.151Z" stroke="black" stroke-linecap="round" stroke-linejoin="round"/>
<path d="M164.732 106.091L144.782 86.6929L137.944 98.9648L166.938 123.032L173.093 114.706L192.351 128.579L169.914 98.5159L164.732 106.091Z" fill="#FFE900" stroke="black" stroke-linecap="round" stroke-linejoin="round"/>
</g>
<defs>
<clipPath id="clip0_1171_265">
<rect width="504" height="484" fill="white"/>
</clipPath>
</defs>
</svg>
