<svg width="34" height="30" viewBox="0 0 34 30" fill="none" xmlns="http://www.w3.org/2000/svg">
<path d="M4.01529 2.40039C3.2791 2.40039 2.67676 2.94039 2.67676 3.60039V26.4004C2.67676 27.0604 3.2791 27.6004 4.01529 27.6004H29.4474C30.1836 27.6004 30.786 27.0604 30.786 26.4004V3.60039C30.786 2.94039 30.1836 2.40039 29.4474 2.40039H4.01529ZM13.338 8.40039H15.1588L18.3705 21.6004H16.7379L15.8072 17.7426H12.5955L11.6452 21.6004H10.0387L13.338 8.40039ZM21.9051 8.40039C22.5275 8.40039 22.9221 8.77872 22.9221 9.33672C22.9221 9.90072 22.5275 10.2789 21.9051 10.2789H21.8842C21.3354 10.2789 20.9143 9.90072 20.9143 9.33672C20.9143 8.77872 21.3563 8.40039 21.9051 8.40039ZM14.2085 9.86406C14.0345 10.8421 13.8201 11.9586 13.6059 12.8406L12.87 16.2004H15.6072L14.8504 12.8219C14.6362 11.8979 14.4427 10.8241 14.2687 9.86406H14.2085ZM21.0816 11.4004H22.7548V21.6004H21.0816V11.4004Z" fill="black"/>
</svg>
