<svg width="575" height="565" viewBox="0 0 575 565" fill="none" xmlns="http://www.w3.org/2000/svg">
<path d="M79.902 72.7H98.202C98.202 78.8 103.602 82.4 110.002 82.4C115.702 82.4 120.702 80.3 120.702 75.5C120.702 61.9 83.402 71.1 80.902 47.7C79.202 32.1 93.602 25.3 109.902 25.3C127.202 25.3 138.702 31.7 138.902 47.7H120.902C120.702 40.6 113.602 38.9 109.902 38.9C104.402 38.9 99.902 41 99.902 45.7C99.902 58.4 139.902 48.4 139.902 74.7C139.902 90.3 127.902 97 109.902 97C88.902 97 79.902 87.7 79.902 72.7ZM145.627 60.9C145.627 35.8 156.727 25.1 182.627 25.1C208.527 25.1 219.627 35.8 219.627 60.9C219.627 86 208.527 96.7 182.627 96.7C156.727 96.7 145.627 86 145.627 60.9ZM165.627 60.9C165.627 75.8 171.427 82.2 182.627 82.2C193.827 82.2 199.627 75.8 199.627 60.9C199.627 46 193.827 39.6 182.627 39.6C171.427 39.6 165.627 46 165.627 60.9ZM228.607 96V26H264.607C284.607 26 292.607 37 292.607 49C292.607 57.9 288.907 64.9 280.207 68.5L294.607 96.1H273.607L262.107 71H248.607V96H228.607ZM248.607 40V58H263.607C269.607 58 272.607 54 272.607 49C272.607 44 269.607 40 263.607 40H248.607ZM302.631 96V26H338.631C358.631 26 366.631 37 366.631 49C366.631 57.9 362.931 64.9 354.231 68.5L368.631 96.1H347.631L336.131 71H322.631V96H302.631ZM322.631 40V58H337.631C343.631 58 346.631 54 346.631 49C346.631 44 343.631 40 337.631 40H322.631ZM390.574 96V66.2C385.274 65.3 379.074 62.3 376.674 55.7L365.774 26H385.774L398.674 63.9H400.674L413.574 26H433.574L422.674 55.7C420.374 62 414.574 65.1 409.574 66.1V96H390.574ZM491.018 73.3H477.018V26H491.018V73.3ZM474.018 87.2C474.018 81.8 478.518 77.4 484.018 77.4C489.218 77.4 493.918 81.8 493.918 87.2C493.918 92.7 489.218 97.1 484.018 97.1C478.518 97.1 474.018 92.7 474.018 87.2Z" fill="#303030"/>
<path d="M114.994 151V140.065H123.799V141.22H115.924L116.389 140.755V145.225L116.029 144.88H123.064V145.96H116.029L116.389 145.6V150.295L115.924 149.83H123.814V151H114.994ZM125.248 151V140.065H126.643V150.145L126.253 149.8H132.868V151H125.248ZM135.936 151L141.066 140.065H142.851L147.996 151H146.481L145.236 148.33H138.681L137.436 151H135.936ZM139.131 147.25H144.801L142.596 142.6L141.996 141.265H141.936L141.336 142.63L139.131 147.25ZM149.139 151V140.065H155.274C155.824 140.065 156.324 140.125 156.774 140.245C157.224 140.365 157.604 140.55 157.914 140.8C158.234 141.05 158.479 141.365 158.649 141.745C158.829 142.115 158.919 142.55 158.919 143.05C158.919 143.71 158.749 144.28 158.409 144.76C158.079 145.23 157.589 145.555 156.939 145.735V145.84C157.559 145.94 157.999 146.175 158.259 146.545C158.529 146.905 158.664 147.4 158.664 148.03V149.83C158.664 150.01 158.669 150.2 158.679 150.4C158.699 150.59 158.749 150.79 158.829 151H157.434C157.364 150.84 157.319 150.665 157.299 150.475C157.279 150.285 157.269 150.06 157.269 149.8V148.225C157.269 147.825 157.209 147.495 157.089 147.235C156.979 146.965 156.774 146.76 156.474 146.62C156.174 146.48 155.744 146.41 155.184 146.41H150.534V151H149.139ZM150.534 145.345H155.034C155.934 145.345 156.569 145.15 156.939 144.76C157.309 144.36 157.494 143.84 157.494 143.2C157.494 142.72 157.394 142.335 157.194 142.045C156.994 141.745 156.704 141.53 156.324 141.4C155.954 141.26 155.524 141.19 155.034 141.19H150.534V145.345ZM163.34 151V141.22H159.26V140.065H168.83V141.22H164.735V151H163.34ZM170.116 151V140.065H171.511V151H170.116ZM177.955 151.135C176.805 151.135 175.865 150.985 175.135 150.685C174.415 150.375 173.88 149.955 173.53 149.425C173.18 148.895 172.985 148.28 172.945 147.58H174.415C174.445 148.14 174.6 148.61 174.88 148.99C175.16 149.36 175.56 149.64 176.08 149.83C176.61 150.01 177.25 150.1 178 150.1C179.1 150.1 179.915 149.92 180.445 149.56C180.985 149.19 181.255 148.69 181.255 148.06C181.255 147.66 181.175 147.34 181.015 147.1C180.855 146.85 180.62 146.655 180.31 146.515C180 146.375 179.625 146.265 179.185 146.185C178.755 146.105 178.27 146.03 177.73 145.96C177.07 145.87 176.465 145.77 175.915 145.66C175.375 145.54 174.905 145.375 174.505 145.165C174.115 144.955 173.81 144.675 173.59 144.325C173.37 143.965 173.26 143.515 173.26 142.975C173.26 142.325 173.445 141.775 173.815 141.325C174.195 140.875 174.72 140.535 175.39 140.305C176.07 140.065 176.865 139.945 177.775 139.945C178.715 139.945 179.515 140.075 180.175 140.335C180.835 140.585 181.34 140.95 181.69 141.43C182.05 141.9 182.245 142.465 182.275 143.125H180.85C180.83 142.635 180.69 142.23 180.43 141.91C180.17 141.59 179.81 141.355 179.35 141.205C178.89 141.045 178.345 140.965 177.715 140.965C177.075 140.965 176.53 141.04 176.08 141.19C175.63 141.34 175.285 141.555 175.045 141.835C174.805 142.115 174.685 142.445 174.685 142.825C174.685 143.315 174.815 143.68 175.075 143.92C175.335 144.16 175.72 144.335 176.23 144.445C176.74 144.555 177.365 144.66 178.105 144.76C178.775 144.84 179.39 144.94 179.95 145.06C180.51 145.18 180.995 145.355 181.405 145.585C181.815 145.805 182.13 146.105 182.35 146.485C182.58 146.865 182.695 147.36 182.695 147.97C182.695 148.62 182.515 149.185 182.155 149.665C181.795 150.135 181.265 150.5 180.565 150.76C179.865 151.01 178.995 151.135 177.955 151.135ZM187.291 151V141.22H183.211V140.065H192.781V141.22H188.686V151H187.291ZM190.882 151L196.012 140.065H197.797L202.942 151H201.427L200.182 148.33H193.627L192.382 151H190.882ZM194.077 147.25H199.747L197.542 142.6L196.942 141.265H196.882L196.282 142.63L194.077 147.25ZM207.513 151V140.065H216.318V141.22H208.443L208.908 140.755V145.225L208.548 144.88H215.583V145.96H208.548L208.908 145.6V150.295L208.443 149.83H216.333V151H207.513ZM222.237 151.135C221.087 151.135 220.147 150.985 219.417 150.685C218.697 150.375 218.162 149.955 217.812 149.425C217.462 148.895 217.267 148.28 217.227 147.58H218.697C218.727 148.14 218.882 148.61 219.162 148.99C219.442 149.36 219.842 149.64 220.362 149.83C220.892 150.01 221.532 150.1 222.282 150.1C223.382 150.1 224.197 149.92 224.727 149.56C225.267 149.19 225.537 148.69 225.537 148.06C225.537 147.66 225.457 147.34 225.297 147.1C225.137 146.85 224.902 146.655 224.592 146.515C224.282 146.375 223.907 146.265 223.467 146.185C223.037 146.105 222.552 146.03 222.012 145.96C221.352 145.87 220.747 145.77 220.197 145.66C219.657 145.54 219.187 145.375 218.787 145.165C218.397 144.955 218.092 144.675 217.872 144.325C217.652 143.965 217.542 143.515 217.542 142.975C217.542 142.325 217.727 141.775 218.097 141.325C218.477 140.875 219.002 140.535 219.672 140.305C220.352 140.065 221.147 139.945 222.057 139.945C222.997 139.945 223.797 140.075 224.457 140.335C225.117 140.585 225.622 140.95 225.972 141.43C226.332 141.9 226.527 142.465 226.557 143.125H225.132C225.112 142.635 224.972 142.23 224.712 141.91C224.452 141.59 224.092 141.355 223.632 141.205C223.172 141.045 222.627 140.965 221.997 140.965C221.357 140.965 220.812 141.04 220.362 141.19C219.912 141.34 219.567 141.555 219.327 141.835C219.087 142.115 218.967 142.445 218.967 142.825C218.967 143.315 219.097 143.68 219.357 143.92C219.617 144.16 220.002 144.335 220.512 144.445C221.022 144.555 221.647 144.66 222.387 144.76C223.057 144.84 223.672 144.94 224.232 145.06C224.792 145.18 225.277 145.355 225.687 145.585C226.097 145.805 226.412 146.105 226.632 146.485C226.862 146.865 226.977 147.36 226.977 147.97C226.977 148.62 226.797 149.185 226.437 149.665C226.077 150.135 225.547 150.5 224.847 150.76C224.147 151.01 223.277 151.135 222.237 151.135ZM231.573 151V141.22H227.493V140.065H237.063V141.22H232.968V151H231.573ZM235.164 151L240.294 140.065H242.079L247.224 151H245.709L244.464 148.33H237.909L236.664 151H235.164ZM238.359 147.25H244.029L241.824 142.6L241.224 141.265H241.164L240.564 142.63L238.359 147.25ZM257.241 151.135C256.341 151.135 255.526 151.005 254.796 150.745C254.066 150.475 253.441 150.09 252.921 149.59C252.411 149.09 252.021 148.5 251.751 147.82C251.481 147.14 251.346 146.38 251.346 145.54C251.346 144.69 251.481 143.925 251.751 143.245C252.021 142.555 252.411 141.965 252.921 141.475C253.441 140.985 254.066 140.61 254.796 140.35C255.526 140.08 256.341 139.945 257.241 139.945C258.241 139.945 259.126 140.1 259.896 140.41C260.666 140.72 261.291 141.155 261.771 141.715C262.261 142.265 262.571 142.925 262.701 143.695H261.291C261.181 143.165 260.936 142.705 260.556 142.315C260.186 141.925 259.716 141.625 259.146 141.415C258.586 141.205 257.951 141.1 257.241 141.1C256.321 141.1 255.521 141.28 254.841 141.64C254.171 142 253.656 142.51 253.296 143.17C252.936 143.83 252.756 144.62 252.756 145.54C252.756 146.23 252.861 146.845 253.071 147.385C253.281 147.925 253.576 148.39 253.956 148.78C254.346 149.17 254.816 149.465 255.366 149.665C255.926 149.865 256.551 149.965 257.241 149.965C257.971 149.965 258.621 149.86 259.191 149.65C259.761 149.43 260.226 149.125 260.586 148.735C260.956 148.335 261.196 147.87 261.306 147.34L262.701 147.355C262.591 148.115 262.291 148.78 261.801 149.35C261.311 149.92 260.671 150.36 259.881 150.67C259.101 150.98 258.221 151.135 257.241 151.135ZM264.188 151V140.065H270.323C270.873 140.065 271.373 140.125 271.823 140.245C272.273 140.365 272.653 140.55 272.963 140.8C273.283 141.05 273.528 141.365 273.698 141.745C273.878 142.115 273.968 142.55 273.968 143.05C273.968 143.71 273.798 144.28 273.458 144.76C273.128 145.23 272.638 145.555 271.988 145.735V145.84C272.608 145.94 273.048 146.175 273.308 146.545C273.578 146.905 273.713 147.4 273.713 148.03V149.83C273.713 150.01 273.718 150.2 273.728 150.4C273.748 150.59 273.798 150.79 273.878 151H272.483C272.413 150.84 272.368 150.665 272.348 150.475C272.328 150.285 272.318 150.06 272.318 149.8V148.225C272.318 147.825 272.258 147.495 272.138 147.235C272.028 146.965 271.823 146.76 271.523 146.62C271.223 146.48 270.793 146.41 270.233 146.41H265.583V151H264.188ZM265.583 145.345H270.083C270.983 145.345 271.618 145.15 271.988 144.76C272.358 144.36 272.543 143.84 272.543 143.2C272.543 142.72 272.443 142.335 272.243 142.045C272.043 141.745 271.753 141.53 271.373 141.4C271.003 141.26 270.573 141.19 270.083 141.19H265.583V145.345ZM275.336 151V140.065H284.141V141.22H276.266L276.731 140.755V145.225L276.371 144.88H283.406V145.96H276.371L276.731 145.6V150.295L276.266 149.83H284.156V151H275.336ZM284.735 151L289.865 140.065H291.65L296.795 151H295.28L294.035 148.33H287.48L286.235 151H284.735ZM287.93 147.25H293.6L291.395 142.6L290.795 141.265H290.735L290.135 142.63L287.93 147.25ZM297.938 151V140.065H299.678L306.998 149.26H307.088L307.013 145.6V140.065H308.393V151H306.668L299.378 141.835H299.273L299.333 145.36V151H297.938ZM310.375 151V140.065H315.25C316.44 140.065 317.455 140.29 318.295 140.74C319.135 141.19 319.775 141.825 320.215 142.645C320.655 143.465 320.875 144.43 320.875 145.54C320.875 146.39 320.745 147.155 320.485 147.835C320.225 148.505 319.85 149.075 319.36 149.545C318.87 150.015 318.28 150.375 317.59 150.625C316.9 150.875 316.125 151 315.265 151H310.375ZM311.755 149.86H315.055C315.775 149.86 316.41 149.76 316.96 149.56C317.51 149.36 317.97 149.07 318.34 148.69C318.71 148.3 318.99 147.84 319.18 147.31C319.37 146.77 319.465 146.17 319.465 145.51C319.465 144.57 319.28 143.785 318.91 143.155C318.55 142.515 318.04 142.03 317.38 141.7C316.72 141.37 315.945 141.205 315.055 141.205H311.755V149.86ZM327.816 151.135C326.916 151.135 326.101 151.005 325.371 150.745C324.651 150.475 324.031 150.095 323.511 149.605C323.001 149.105 322.611 148.51 322.341 147.82C322.071 147.13 321.936 146.37 321.936 145.54C321.936 144.69 322.071 143.925 322.341 143.245C322.611 142.555 323.001 141.965 323.511 141.475C324.031 140.985 324.651 140.61 325.371 140.35C326.101 140.08 326.916 139.945 327.816 139.945C328.726 139.945 329.541 140.08 330.261 140.35C330.981 140.61 331.596 140.99 332.106 141.49C332.626 141.98 333.021 142.565 333.291 143.245C333.561 143.925 333.696 144.69 333.696 145.54C333.696 146.38 333.561 147.145 333.291 147.835C333.021 148.515 332.626 149.105 332.106 149.605C331.586 150.095 330.966 150.475 330.246 150.745C329.526 151.005 328.716 151.135 327.816 151.135ZM327.831 149.965C328.751 149.965 329.541 149.785 330.201 149.425C330.871 149.065 331.386 148.555 331.746 147.895C332.106 147.225 332.286 146.44 332.286 145.54C332.286 144.85 332.181 144.235 331.971 143.695C331.771 143.145 331.476 142.68 331.086 142.3C330.696 141.91 330.221 141.615 329.661 141.415C329.111 141.205 328.496 141.1 327.816 141.1C326.896 141.1 326.101 141.28 325.431 141.64C324.761 142 324.246 142.51 323.886 143.17C323.526 143.83 323.346 144.62 323.346 145.54C323.346 146.22 323.451 146.835 323.661 147.385C323.871 147.925 324.171 148.39 324.561 148.78C324.951 149.17 325.421 149.465 325.971 149.665C326.521 149.865 327.141 149.965 327.831 149.965ZM338.661 151V140.065H347.466V141.22H339.591L340.056 140.755V145.225L339.696 144.88H346.731V145.96H339.696L340.056 145.6V150.295L339.591 149.83H347.481V151H338.661ZM348.915 151V140.065H350.31V150.145L349.92 149.8H356.535V151H348.915ZM365.903 151.135C365.003 151.135 364.188 151.005 363.458 150.745C362.728 150.475 362.103 150.09 361.583 149.59C361.073 149.09 360.683 148.5 360.413 147.82C360.143 147.14 360.008 146.38 360.008 145.54C360.008 144.69 360.143 143.925 360.413 143.245C360.683 142.555 361.073 141.965 361.583 141.475C362.103 140.985 362.728 140.61 363.458 140.35C364.188 140.08 365.003 139.945 365.903 139.945C366.903 139.945 367.788 140.1 368.558 140.41C369.328 140.72 369.953 141.155 370.433 141.715C370.923 142.265 371.233 142.925 371.363 143.695H369.953C369.843 143.165 369.598 142.705 369.218 142.315C368.848 141.925 368.378 141.625 367.808 141.415C367.248 141.205 366.613 141.1 365.903 141.1C364.983 141.1 364.183 141.28 363.503 141.64C362.833 142 362.318 142.51 361.958 143.17C361.598 143.83 361.418 144.62 361.418 145.54C361.418 146.23 361.523 146.845 361.733 147.385C361.943 147.925 362.238 148.39 362.618 148.78C363.008 149.17 363.478 149.465 364.028 149.665C364.588 149.865 365.213 149.965 365.903 149.965C366.633 149.965 367.283 149.86 367.853 149.65C368.423 149.43 368.888 149.125 369.248 148.735C369.618 148.335 369.858 147.87 369.968 147.34L371.363 147.355C371.253 148.115 370.953 148.78 370.463 149.35C369.973 149.92 369.333 150.36 368.543 150.67C367.763 150.98 366.883 151.135 365.903 151.135ZM378.28 151.135C377.38 151.135 376.565 151.005 375.835 150.745C375.115 150.475 374.495 150.095 373.975 149.605C373.465 149.105 373.075 148.51 372.805 147.82C372.535 147.13 372.4 146.37 372.4 145.54C372.4 144.69 372.535 143.925 372.805 143.245C373.075 142.555 373.465 141.965 373.975 141.475C374.495 140.985 375.115 140.61 375.835 140.35C376.565 140.08 377.38 139.945 378.28 139.945C379.19 139.945 380.005 140.08 380.725 140.35C381.445 140.61 382.06 140.99 382.57 141.49C383.09 141.98 383.485 142.565 383.755 143.245C384.025 143.925 384.16 144.69 384.16 145.54C384.16 146.38 384.025 147.145 383.755 147.835C383.485 148.515 383.09 149.105 382.57 149.605C382.05 150.095 381.43 150.475 380.71 150.745C379.99 151.005 379.18 151.135 378.28 151.135ZM378.295 149.965C379.215 149.965 380.005 149.785 380.665 149.425C381.335 149.065 381.85 148.555 382.21 147.895C382.57 147.225 382.75 146.44 382.75 145.54C382.75 144.85 382.645 144.235 382.435 143.695C382.235 143.145 381.94 142.68 381.55 142.3C381.16 141.91 380.685 141.615 380.125 141.415C379.575 141.205 378.96 141.1 378.28 141.1C377.36 141.1 376.565 141.28 375.895 141.64C375.225 142 374.71 142.51 374.35 143.17C373.99 143.83 373.81 144.62 373.81 145.54C373.81 146.22 373.915 146.835 374.125 147.385C374.335 147.925 374.635 148.39 375.025 148.78C375.415 149.17 375.885 149.465 376.435 149.665C376.985 149.865 377.605 149.965 378.295 149.965ZM385.697 151V140.065H387.437L394.757 149.26H394.847L394.772 145.6V140.065H396.152V151H394.427L387.137 141.835H387.032L387.092 145.36V151H385.697ZM401.539 151V141.22H397.459V140.065H407.029V141.22H402.934V151H401.539ZM408.314 151V140.065H417.119V141.22H409.244L409.709 140.755V145.225L409.349 144.88H416.384V145.96H409.349L409.709 145.6V150.295L409.244 149.83H417.134V151H408.314ZM418.568 151V140.065H420.308L427.628 149.26H427.718L427.643 145.6V140.065H429.023V151H427.298L420.008 141.835H419.903L419.963 145.36V151H418.568ZM431.005 151V140.065H432.4V151H431.005ZM434.374 151V140.065H439.249C440.439 140.065 441.454 140.29 442.294 140.74C443.134 141.19 443.774 141.825 444.214 142.645C444.654 143.465 444.874 144.43 444.874 145.54C444.874 146.39 444.744 147.155 444.484 147.835C444.224 148.505 443.849 149.075 443.359 149.545C442.869 150.015 442.279 150.375 441.589 150.625C440.899 150.875 440.124 151 439.264 151H434.374ZM435.754 149.86H439.054C439.774 149.86 440.409 149.76 440.959 149.56C441.509 149.36 441.969 149.07 442.339 148.69C442.709 148.3 442.989 147.84 443.179 147.31C443.369 146.77 443.464 146.17 443.464 145.51C443.464 144.57 443.279 143.785 442.909 143.155C442.549 142.515 442.039 142.03 441.379 141.7C440.719 141.37 439.944 141.205 439.054 141.205H435.754V149.86ZM451.816 151.135C450.916 151.135 450.101 151.005 449.371 150.745C448.651 150.475 448.031 150.095 447.511 149.605C447.001 149.105 446.611 148.51 446.341 147.82C446.071 147.13 445.936 146.37 445.936 145.54C445.936 144.69 446.071 143.925 446.341 143.245C446.611 142.555 447.001 141.965 447.511 141.475C448.031 140.985 448.651 140.61 449.371 140.35C450.101 140.08 450.916 139.945 451.816 139.945C452.726 139.945 453.541 140.08 454.261 140.35C454.981 140.61 455.596 140.99 456.106 141.49C456.626 141.98 457.021 142.565 457.291 143.245C457.561 143.925 457.696 144.69 457.696 145.54C457.696 146.38 457.561 147.145 457.291 147.835C457.021 148.515 456.626 149.105 456.106 149.605C455.586 150.095 454.966 150.475 454.246 150.745C453.526 151.005 452.716 151.135 451.816 151.135ZM451.831 149.965C452.751 149.965 453.541 149.785 454.201 149.425C454.871 149.065 455.386 148.555 455.746 147.895C456.106 147.225 456.286 146.44 456.286 145.54C456.286 144.85 456.181 144.235 455.971 143.695C455.771 143.145 455.476 142.68 455.086 142.3C454.696 141.91 454.221 141.615 453.661 141.415C453.111 141.205 452.496 141.1 451.816 141.1C450.896 141.1 450.101 141.28 449.431 141.64C448.761 142 448.246 142.51 447.886 143.17C447.526 143.83 447.346 144.62 447.346 145.54C447.346 146.22 447.451 146.835 447.661 147.385C447.871 147.925 448.171 148.39 448.561 148.78C448.951 149.17 449.421 149.465 449.971 149.665C450.521 149.865 451.141 149.965 451.831 149.965ZM458.737 153.325V152.605L458.962 152.59C459.202 152.58 459.367 152.495 459.457 152.335C459.547 152.185 459.592 151.99 459.592 151.75V151H458.947V149.65H460.342V151.825C460.342 152.305 460.237 152.665 460.027 152.905C459.817 153.155 459.517 153.29 459.127 153.31L458.737 153.325ZM105.099 171V160.065H110.439C111.099 160.065 111.674 160.145 112.164 160.305C112.664 160.455 113.084 160.68 113.424 160.98C113.764 161.27 114.019 161.625 114.189 162.045C114.359 162.465 114.444 162.94 114.444 163.47C114.444 164.2 114.279 164.82 113.949 165.33C113.629 165.84 113.169 166.225 112.569 166.485C111.969 166.745 111.254 166.875 110.424 166.875H106.329V165.81H110.289C110.909 165.81 111.419 165.715 111.819 165.525C112.219 165.335 112.519 165.07 112.719 164.73C112.919 164.38 113.019 163.97 113.019 163.5C113.019 163.01 112.914 162.595 112.704 162.255C112.494 161.915 112.184 161.655 111.774 161.475C111.374 161.295 110.879 161.205 110.289 161.205H106.104L106.494 160.83V171H105.099ZM115.822 171V160.065H121.957C122.507 160.065 123.007 160.125 123.457 160.245C123.907 160.365 124.287 160.55 124.597 160.8C124.917 161.05 125.162 161.365 125.332 161.745C125.512 162.115 125.602 162.55 125.602 163.05C125.602 163.71 125.432 164.28 125.092 164.76C124.762 165.23 124.272 165.555 123.622 165.735V165.84C124.242 165.94 124.682 166.175 124.942 166.545C125.212 166.905 125.347 167.4 125.347 168.03V169.83C125.347 170.01 125.352 170.2 125.362 170.4C125.382 170.59 125.432 170.79 125.512 171H124.117C124.047 170.84 124.002 170.665 123.982 170.475C123.962 170.285 123.952 170.06 123.952 169.8V168.225C123.952 167.825 123.892 167.495 123.772 167.235C123.662 166.965 123.457 166.76 123.157 166.62C122.857 166.48 122.427 166.41 121.867 166.41H117.217V171H115.822ZM117.217 165.345H121.717C122.617 165.345 123.252 165.15 123.622 164.76C123.992 164.36 124.177 163.84 124.177 163.2C124.177 162.72 124.077 162.335 123.877 162.045C123.677 161.745 123.387 161.53 123.007 161.4C122.637 161.26 122.207 161.19 121.717 161.19H117.217V165.345ZM132.384 171.135C131.484 171.135 130.669 171.005 129.939 170.745C129.219 170.475 128.599 170.095 128.079 169.605C127.569 169.105 127.179 168.51 126.909 167.82C126.639 167.13 126.504 166.37 126.504 165.54C126.504 164.69 126.639 163.925 126.909 163.245C127.179 162.555 127.569 161.965 128.079 161.475C128.599 160.985 129.219 160.61 129.939 160.35C130.669 160.08 131.484 159.945 132.384 159.945C133.294 159.945 134.109 160.08 134.829 160.35C135.549 160.61 136.164 160.99 136.674 161.49C137.194 161.98 137.589 162.565 137.859 163.245C138.129 163.925 138.264 164.69 138.264 165.54C138.264 166.38 138.129 167.145 137.859 167.835C137.589 168.515 137.194 169.105 136.674 169.605C136.154 170.095 135.534 170.475 134.814 170.745C134.094 171.005 133.284 171.135 132.384 171.135ZM132.399 169.965C133.319 169.965 134.109 169.785 134.769 169.425C135.439 169.065 135.954 168.555 136.314 167.895C136.674 167.225 136.854 166.44 136.854 165.54C136.854 164.85 136.749 164.235 136.539 163.695C136.339 163.145 136.044 162.68 135.654 162.3C135.264 161.91 134.789 161.615 134.229 161.415C133.679 161.205 133.064 161.1 132.384 161.1C131.464 161.1 130.669 161.28 129.999 161.64C129.329 162 128.814 162.51 128.454 163.17C128.094 163.83 127.914 164.62 127.914 165.54C127.914 166.22 128.019 166.835 128.229 167.385C128.439 167.925 128.739 168.39 129.129 168.78C129.519 169.17 129.989 169.465 130.539 169.665C131.089 169.865 131.709 169.965 132.399 169.965ZM139.801 171V160.065H141.541L148.861 169.26H148.951L148.876 165.6V160.065H150.256V171H148.531L141.241 161.835H141.136L141.196 165.36V171H139.801ZM155.643 171V161.22H151.563V160.065H161.133V161.22H157.038V171H155.643ZM166.896 171.135C165.996 171.135 165.181 171.005 164.451 170.745C163.731 170.475 163.111 170.095 162.591 169.605C162.081 169.105 161.691 168.51 161.421 167.82C161.151 167.13 161.016 166.37 161.016 165.54C161.016 164.69 161.151 163.925 161.421 163.245C161.691 162.555 162.081 161.965 162.591 161.475C163.111 160.985 163.731 160.61 164.451 160.35C165.181 160.08 165.996 159.945 166.896 159.945C167.806 159.945 168.621 160.08 169.341 160.35C170.061 160.61 170.676 160.99 171.186 161.49C171.706 161.98 172.101 162.565 172.371 163.245C172.641 163.925 172.776 164.69 172.776 165.54C172.776 166.38 172.641 167.145 172.371 167.835C172.101 168.515 171.706 169.105 171.186 169.605C170.666 170.095 170.046 170.475 169.326 170.745C168.606 171.005 167.796 171.135 166.896 171.135ZM166.911 169.965C167.831 169.965 168.621 169.785 169.281 169.425C169.951 169.065 170.466 168.555 170.826 167.895C171.186 167.225 171.366 166.44 171.366 165.54C171.366 164.85 171.261 164.235 171.051 163.695C170.851 163.145 170.556 162.68 170.166 162.3C169.776 161.91 169.301 161.615 168.741 161.415C168.191 161.205 167.576 161.1 166.896 161.1C165.976 161.1 165.181 161.28 164.511 161.64C163.841 162 163.326 162.51 162.966 163.17C162.606 163.83 162.426 164.62 162.426 165.54C162.426 166.22 162.531 166.835 162.741 167.385C162.951 167.925 163.251 168.39 163.641 168.78C164.031 169.17 164.501 169.465 165.051 169.665C165.601 169.865 166.221 169.965 166.911 169.965ZM182.21 171.135C181.06 171.135 180.12 170.985 179.39 170.685C178.67 170.375 178.135 169.955 177.785 169.425C177.435 168.895 177.24 168.28 177.2 167.58H178.67C178.7 168.14 178.855 168.61 179.135 168.99C179.415 169.36 179.815 169.64 180.335 169.83C180.865 170.01 181.505 170.1 182.255 170.1C183.355 170.1 184.17 169.92 184.7 169.56C185.24 169.19 185.51 168.69 185.51 168.06C185.51 167.66 185.43 167.34 185.27 167.1C185.11 166.85 184.875 166.655 184.565 166.515C184.255 166.375 183.88 166.265 183.44 166.185C183.01 166.105 182.525 166.03 181.985 165.96C181.325 165.87 180.72 165.77 180.17 165.66C179.63 165.54 179.16 165.375 178.76 165.165C178.37 164.955 178.065 164.675 177.845 164.325C177.625 163.965 177.515 163.515 177.515 162.975C177.515 162.325 177.7 161.775 178.07 161.325C178.45 160.875 178.975 160.535 179.645 160.305C180.325 160.065 181.12 159.945 182.03 159.945C182.97 159.945 183.77 160.075 184.43 160.335C185.09 160.585 185.595 160.95 185.945 161.43C186.305 161.9 186.5 162.465 186.53 163.125H185.105C185.085 162.635 184.945 162.23 184.685 161.91C184.425 161.59 184.065 161.355 183.605 161.205C183.145 161.045 182.6 160.965 181.97 160.965C181.33 160.965 180.785 161.04 180.335 161.19C179.885 161.34 179.54 161.555 179.3 161.835C179.06 162.115 178.94 162.445 178.94 162.825C178.94 163.315 179.07 163.68 179.33 163.92C179.59 164.16 179.975 164.335 180.485 164.445C180.995 164.555 181.62 164.66 182.36 164.76C183.03 164.84 183.645 164.94 184.205 165.06C184.765 165.18 185.25 165.355 185.66 165.585C186.07 165.805 186.385 166.105 186.605 166.485C186.835 166.865 186.95 167.36 186.95 167.97C186.95 168.62 186.77 169.185 186.41 169.665C186.05 170.135 185.52 170.5 184.82 170.76C184.12 171.01 183.25 171.135 182.21 171.135ZM188.39 171V160.065H197.195V161.22H189.32L189.785 160.755V165.225L189.425 164.88H196.46V165.96H189.425L189.785 165.6V170.295L189.32 169.83H197.21V171H188.39ZM202.072 171V160.065H210.877V161.22H203.002L203.467 160.755V165.225L203.107 164.88H210.142V165.96H203.107L203.467 165.6V170.295L203.002 169.83H210.892V171H202.072ZM216.795 171.135C215.645 171.135 214.705 170.985 213.975 170.685C213.255 170.375 212.72 169.955 212.37 169.425C212.02 168.895 211.825 168.28 211.785 167.58H213.255C213.285 168.14 213.44 168.61 213.72 168.99C214 169.36 214.4 169.64 214.92 169.83C215.45 170.01 216.09 170.1 216.84 170.1C217.94 170.1 218.755 169.92 219.285 169.56C219.825 169.19 220.095 168.69 220.095 168.06C220.095 167.66 220.015 167.34 219.855 167.1C219.695 166.85 219.46 166.655 219.15 166.515C218.84 166.375 218.465 166.265 218.025 166.185C217.595 166.105 217.11 166.03 216.57 165.96C215.91 165.87 215.305 165.77 214.755 165.66C214.215 165.54 213.745 165.375 213.345 165.165C212.955 164.955 212.65 164.675 212.43 164.325C212.21 163.965 212.1 163.515 212.1 162.975C212.1 162.325 212.285 161.775 212.655 161.325C213.035 160.875 213.56 160.535 214.23 160.305C214.91 160.065 215.705 159.945 216.615 159.945C217.555 159.945 218.355 160.075 219.015 160.335C219.675 160.585 220.18 160.95 220.53 161.43C220.89 161.9 221.085 162.465 221.115 163.125H219.69C219.67 162.635 219.53 162.23 219.27 161.91C219.01 161.59 218.65 161.355 218.19 161.205C217.73 161.045 217.185 160.965 216.555 160.965C215.915 160.965 215.37 161.04 214.92 161.19C214.47 161.34 214.125 161.555 213.885 161.835C213.645 162.115 213.525 162.445 213.525 162.825C213.525 163.315 213.655 163.68 213.915 163.92C214.175 164.16 214.56 164.335 215.07 164.445C215.58 164.555 216.205 164.66 216.945 164.76C217.615 164.84 218.23 164.94 218.79 165.06C219.35 165.18 219.835 165.355 220.245 165.585C220.655 165.805 220.97 166.105 221.19 166.485C221.42 166.865 221.535 167.36 221.535 167.97C221.535 168.62 221.355 169.185 220.995 169.665C220.635 170.135 220.105 170.5 219.405 170.76C218.705 171.01 217.835 171.135 216.795 171.135ZM226.131 171V161.22H222.051V160.065H231.621V161.22H227.526V171H226.131ZM229.722 171L234.852 160.065H236.637L241.782 171H240.267L239.022 168.33H232.467L231.222 171H229.722ZM232.917 167.25H238.587L236.382 162.6L235.782 161.265H235.722L235.122 162.63L232.917 167.25ZM242.926 171V160.065H249.061C249.611 160.065 250.111 160.125 250.561 160.245C251.011 160.365 251.391 160.55 251.701 160.8C252.021 161.05 252.266 161.365 252.436 161.745C252.616 162.115 252.706 162.55 252.706 163.05C252.706 163.71 252.536 164.28 252.196 164.76C251.866 165.23 251.376 165.555 250.726 165.735V165.84C251.346 165.94 251.786 166.175 252.046 166.545C252.316 166.905 252.451 167.4 252.451 168.03V169.83C252.451 170.01 252.456 170.2 252.466 170.4C252.486 170.59 252.536 170.79 252.616 171H251.221C251.151 170.84 251.106 170.665 251.086 170.475C251.066 170.285 251.056 170.06 251.056 169.8V168.225C251.056 167.825 250.996 167.495 250.876 167.235C250.766 166.965 250.561 166.76 250.261 166.62C249.961 166.48 249.531 166.41 248.971 166.41H244.321V171H242.926ZM244.321 165.345H248.821C249.721 165.345 250.356 165.15 250.726 164.76C251.096 164.36 251.281 163.84 251.281 163.2C251.281 162.72 251.181 162.335 250.981 162.045C250.781 161.745 250.491 161.53 250.111 161.4C249.741 161.26 249.311 161.19 248.821 161.19H244.321V165.345ZM253.218 171L258.348 160.065H260.133L265.278 171H263.763L262.518 168.33H255.963L254.718 171H253.218ZM256.413 167.25H262.083L259.878 162.6L259.278 161.265H259.218L258.618 162.63L256.413 167.25ZM266.422 171V160.065H268.162L275.482 169.26H275.572L275.497 165.6V160.065H276.877V171H275.152L267.862 161.835H267.757L267.817 165.36V171H266.422ZM286.756 171.135C285.606 171.135 284.666 170.985 283.936 170.685C283.216 170.375 282.681 169.955 282.331 169.425C281.981 168.895 281.786 168.28 281.746 167.58H283.216C283.246 168.14 283.401 168.61 283.681 168.99C283.961 169.36 284.361 169.64 284.881 169.83C285.411 170.01 286.051 170.1 286.801 170.1C287.901 170.1 288.716 169.92 289.246 169.56C289.786 169.19 290.056 168.69 290.056 168.06C290.056 167.66 289.976 167.34 289.816 167.1C289.656 166.85 289.421 166.655 289.111 166.515C288.801 166.375 288.426 166.265 287.986 166.185C287.556 166.105 287.071 166.03 286.531 165.96C285.871 165.87 285.266 165.77 284.716 165.66C284.176 165.54 283.706 165.375 283.306 165.165C282.916 164.955 282.611 164.675 282.391 164.325C282.171 163.965 282.061 163.515 282.061 162.975C282.061 162.325 282.246 161.775 282.616 161.325C282.996 160.875 283.521 160.535 284.191 160.305C284.871 160.065 285.666 159.945 286.576 159.945C287.516 159.945 288.316 160.075 288.976 160.335C289.636 160.585 290.141 160.95 290.491 161.43C290.851 161.9 291.046 162.465 291.076 163.125H289.651C289.631 162.635 289.491 162.23 289.231 161.91C288.971 161.59 288.611 161.355 288.151 161.205C287.691 161.045 287.146 160.965 286.516 160.965C285.876 160.965 285.331 161.04 284.881 161.19C284.431 161.34 284.086 161.555 283.846 161.835C283.606 162.115 283.486 162.445 283.486 162.825C283.486 163.315 283.616 163.68 283.876 163.92C284.136 164.16 284.521 164.335 285.031 164.445C285.541 164.555 286.166 164.66 286.906 164.76C287.576 164.84 288.191 164.94 288.751 165.06C289.311 165.18 289.796 165.355 290.206 165.585C290.616 165.805 290.931 166.105 291.151 166.485C291.381 166.865 291.496 167.36 291.496 167.97C291.496 168.62 291.316 169.185 290.956 169.665C290.596 170.135 290.066 170.5 289.366 170.76C288.666 171.01 287.796 171.135 286.756 171.135ZM297.781 171.135C296.781 171.135 295.901 170.98 295.141 170.67C294.391 170.36 293.806 169.865 293.386 169.185C292.976 168.495 292.771 167.595 292.771 166.485V160.065H294.151V166.44C294.151 167.19 294.271 167.825 294.511 168.345C294.751 168.865 295.136 169.26 295.666 169.53C296.206 169.8 296.911 169.935 297.781 169.935C298.631 169.935 299.321 169.81 299.851 169.56C300.391 169.3 300.786 168.91 301.036 168.39C301.296 167.87 301.426 167.22 301.426 166.44V160.065H302.806V166.485C302.806 167.545 302.606 168.42 302.206 169.11C301.816 169.79 301.246 170.3 300.496 170.64C299.756 170.97 298.851 171.135 297.781 171.135ZM304.625 171V160.065H310.64C311.4 160.065 312.03 160.18 312.53 160.41C313.03 160.64 313.405 160.965 313.655 161.385C313.905 161.795 314.03 162.29 314.03 162.87C314.03 163.27 313.96 163.64 313.82 163.98C313.69 164.31 313.485 164.595 313.205 164.835C312.935 165.065 312.59 165.225 312.17 165.315V165.375C312.65 165.465 313.045 165.63 313.355 165.87C313.675 166.11 313.915 166.41 314.075 166.77C314.245 167.13 314.33 167.53 314.33 167.97C314.33 168.61 314.18 169.155 313.88 169.605C313.58 170.055 313.15 170.4 312.59 170.64C312.03 170.88 311.36 171 310.58 171H304.625ZM306.005 169.95H310.4C311.26 169.95 311.895 169.755 312.305 169.365C312.715 168.975 312.92 168.475 312.92 167.865C312.92 167.245 312.72 166.765 312.32 166.425C311.92 166.085 311.345 165.915 310.595 165.915H306.005V169.95ZM306.005 164.895H310.535C311.015 164.895 311.41 164.82 311.72 164.67C312.03 164.51 312.265 164.29 312.425 164.01C312.585 163.73 312.665 163.405 312.665 163.035C312.665 162.415 312.45 161.94 312.02 161.61C311.6 161.28 311.045 161.115 310.355 161.115H306.005V164.895ZM315.67 171V160.065H317.065V171H315.67ZM319.039 171V160.065H327.844V161.22H319.969L320.434 160.755V165.225L320.074 164.88H327.109V165.96H320.074L320.434 165.6V170.295L319.969 169.83H327.859V171H319.039ZM329.293 171V160.065H331.033L338.353 169.26H338.443L338.368 165.6V160.065H339.748V171H338.023L330.733 161.835H330.628L330.688 165.36V171H329.293ZM341.73 171V160.065H346.605C347.795 160.065 348.81 160.29 349.65 160.74C350.49 161.19 351.13 161.825 351.57 162.645C352.01 163.465 352.23 164.43 352.23 165.54C352.23 166.39 352.1 167.155 351.84 167.835C351.58 168.505 351.205 169.075 350.715 169.545C350.225 170.015 349.635 170.375 348.945 170.625C348.255 170.875 347.48 171 346.62 171H341.73ZM343.11 169.86H346.41C347.13 169.86 347.765 169.76 348.315 169.56C348.865 169.36 349.325 169.07 349.695 168.69C350.065 168.3 350.345 167.84 350.535 167.31C350.725 166.77 350.82 166.17 350.82 165.51C350.82 164.57 350.635 163.785 350.265 163.155C349.905 162.515 349.395 162.03 348.735 161.7C348.075 161.37 347.3 161.205 346.41 161.205H343.11V169.86ZM359.171 171.135C358.271 171.135 357.456 171.005 356.726 170.745C356.006 170.475 355.386 170.095 354.866 169.605C354.356 169.105 353.966 168.51 353.696 167.82C353.426 167.13 353.291 166.37 353.291 165.54C353.291 164.69 353.426 163.925 353.696 163.245C353.966 162.555 354.356 161.965 354.866 161.475C355.386 160.985 356.006 160.61 356.726 160.35C357.456 160.08 358.271 159.945 359.171 159.945C360.081 159.945 360.896 160.08 361.616 160.35C362.336 160.61 362.951 160.99 363.461 161.49C363.981 161.98 364.376 162.565 364.646 163.245C364.916 163.925 365.051 164.69 365.051 165.54C365.051 166.38 364.916 167.145 364.646 167.835C364.376 168.515 363.981 169.105 363.461 169.605C362.941 170.095 362.321 170.475 361.601 170.745C360.881 171.005 360.071 171.135 359.171 171.135ZM359.186 169.965C360.106 169.965 360.896 169.785 361.556 169.425C362.226 169.065 362.741 168.555 363.101 167.895C363.461 167.225 363.641 166.44 363.641 165.54C363.641 164.85 363.536 164.235 363.326 163.695C363.126 163.145 362.831 162.68 362.441 162.3C362.051 161.91 361.576 161.615 361.016 161.415C360.466 161.205 359.851 161.1 359.171 161.1C358.251 161.1 357.456 161.28 356.786 161.64C356.116 162 355.601 162.51 355.241 163.17C354.881 163.83 354.701 164.62 354.701 165.54C354.701 166.22 354.806 166.835 355.016 167.385C355.226 167.925 355.526 168.39 355.916 168.78C356.306 169.17 356.776 169.465 357.326 169.665C357.876 169.865 358.496 169.965 359.186 169.965ZM370.016 171V160.065H375.356C376.016 160.065 376.591 160.145 377.081 160.305C377.581 160.455 378.001 160.68 378.341 160.98C378.681 161.27 378.936 161.625 379.106 162.045C379.276 162.465 379.361 162.94 379.361 163.47C379.361 164.2 379.196 164.82 378.866 165.33C378.546 165.84 378.086 166.225 377.486 166.485C376.886 166.745 376.171 166.875 375.341 166.875H371.246V165.81H375.206C375.826 165.81 376.336 165.715 376.736 165.525C377.136 165.335 377.436 165.07 377.636 164.73C377.836 164.38 377.936 163.97 377.936 163.5C377.936 163.01 377.831 162.595 377.621 162.255C377.411 161.915 377.101 161.655 376.691 161.475C376.291 161.295 375.796 161.205 375.206 161.205H371.021L371.411 160.83V171H370.016ZM380.739 171V160.065H386.874C387.424 160.065 387.924 160.125 388.374 160.245C388.824 160.365 389.204 160.55 389.514 160.8C389.834 161.05 390.079 161.365 390.249 161.745C390.429 162.115 390.519 162.55 390.519 163.05C390.519 163.71 390.349 164.28 390.009 164.76C389.679 165.23 389.189 165.555 388.539 165.735V165.84C389.159 165.94 389.599 166.175 389.859 166.545C390.129 166.905 390.264 167.4 390.264 168.03V169.83C390.264 170.01 390.269 170.2 390.279 170.4C390.299 170.59 390.349 170.79 390.429 171H389.034C388.964 170.84 388.919 170.665 388.899 170.475C388.879 170.285 388.869 170.06 388.869 169.8V168.225C388.869 167.825 388.809 167.495 388.689 167.235C388.579 166.965 388.374 166.76 388.074 166.62C387.774 166.48 387.344 166.41 386.784 166.41H382.134V171H380.739ZM382.134 165.345H386.634C387.534 165.345 388.169 165.15 388.539 164.76C388.909 164.36 389.094 163.84 389.094 163.2C389.094 162.72 388.994 162.335 388.794 162.045C388.594 161.745 388.304 161.53 387.924 161.4C387.554 161.26 387.124 161.19 386.634 161.19H382.134V165.345ZM397.301 171.135C396.401 171.135 395.586 171.005 394.856 170.745C394.136 170.475 393.516 170.095 392.996 169.605C392.486 169.105 392.096 168.51 391.826 167.82C391.556 167.13 391.421 166.37 391.421 165.54C391.421 164.69 391.556 163.925 391.826 163.245C392.096 162.555 392.486 161.965 392.996 161.475C393.516 160.985 394.136 160.61 394.856 160.35C395.586 160.08 396.401 159.945 397.301 159.945C398.211 159.945 399.026 160.08 399.746 160.35C400.466 160.61 401.081 160.99 401.591 161.49C402.111 161.98 402.506 162.565 402.776 163.245C403.046 163.925 403.181 164.69 403.181 165.54C403.181 166.38 403.046 167.145 402.776 167.835C402.506 168.515 402.111 169.105 401.591 169.605C401.071 170.095 400.451 170.475 399.731 170.745C399.011 171.005 398.201 171.135 397.301 171.135ZM397.316 169.965C398.236 169.965 399.026 169.785 399.686 169.425C400.356 169.065 400.871 168.555 401.231 167.895C401.591 167.225 401.771 166.44 401.771 165.54C401.771 164.85 401.666 164.235 401.456 163.695C401.256 163.145 400.961 162.68 400.571 162.3C400.181 161.91 399.706 161.615 399.146 161.415C398.596 161.205 397.981 161.1 397.301 161.1C396.381 161.1 395.586 161.28 394.916 161.64C394.246 162 393.731 162.51 393.371 163.17C393.011 163.83 392.831 164.62 392.831 165.54C392.831 166.22 392.936 166.835 393.146 167.385C393.356 167.925 393.656 168.39 394.046 168.78C394.436 169.17 394.906 169.465 395.456 169.665C396.006 169.865 396.626 169.965 397.316 169.965ZM407.532 171V166.65L402.852 160.065H404.457L408.207 165.45H408.282L412.047 160.065H413.637L408.927 166.65V171H407.532ZM414.767 171V160.065H423.572V161.22H415.697L416.162 160.755V165.225L415.802 164.88H422.837V165.96H415.802L416.162 165.6V170.295L415.697 169.83H423.587V171H414.767ZM430.466 171.135C429.566 171.135 428.751 171.005 428.021 170.745C427.291 170.475 426.666 170.09 426.146 169.59C425.636 169.09 425.246 168.5 424.976 167.82C424.706 167.14 424.571 166.38 424.571 165.54C424.571 164.69 424.706 163.925 424.976 163.245C425.246 162.555 425.636 161.965 426.146 161.475C426.666 160.985 427.291 160.61 428.021 160.35C428.751 160.08 429.566 159.945 430.466 159.945C431.466 159.945 432.351 160.1 433.121 160.41C433.891 160.72 434.516 161.155 434.996 161.715C435.486 162.265 435.796 162.925 435.926 163.695H434.516C434.406 163.165 434.161 162.705 433.781 162.315C433.411 161.925 432.941 161.625 432.371 161.415C431.811 161.205 431.176 161.1 430.466 161.1C429.546 161.1 428.746 161.28 428.066 161.64C427.396 162 426.881 162.51 426.521 163.17C426.161 163.83 425.981 164.62 425.981 165.54C425.981 166.23 426.086 166.845 426.296 167.385C426.506 167.925 426.801 168.39 427.181 168.78C427.571 169.17 428.041 169.465 428.591 169.665C429.151 169.865 429.776 169.965 430.466 169.965C431.196 169.965 431.846 169.86 432.416 169.65C432.986 169.43 433.451 169.125 433.811 168.735C434.181 168.335 434.421 167.87 434.531 167.34L435.926 167.355C435.816 168.115 435.516 168.78 435.026 169.35C434.536 169.92 433.896 170.36 433.106 170.67C432.326 170.98 431.446 171.135 430.466 171.135ZM439.866 171V161.22H435.786V160.065H445.356V161.22H441.261V171H439.866ZM451.12 171.135C450.22 171.135 449.405 171.005 448.675 170.745C447.955 170.475 447.335 170.095 446.815 169.605C446.305 169.105 445.915 168.51 445.645 167.82C445.375 167.13 445.24 166.37 445.24 165.54C445.24 164.69 445.375 163.925 445.645 163.245C445.915 162.555 446.305 161.965 446.815 161.475C447.335 160.985 447.955 160.61 448.675 160.35C449.405 160.08 450.22 159.945 451.12 159.945C452.03 159.945 452.845 160.08 453.565 160.35C454.285 160.61 454.9 160.99 455.41 161.49C455.93 161.98 456.325 162.565 456.595 163.245C456.865 163.925 457 164.69 457 165.54C457 166.38 456.865 167.145 456.595 167.835C456.325 168.515 455.93 169.105 455.41 169.605C454.89 170.095 454.27 170.475 453.55 170.745C452.83 171.005 452.02 171.135 451.12 171.135ZM451.135 169.965C452.055 169.965 452.845 169.785 453.505 169.425C454.175 169.065 454.69 168.555 455.05 167.895C455.41 167.225 455.59 166.44 455.59 165.54C455.59 164.85 455.485 164.235 455.275 163.695C455.075 163.145 454.78 162.68 454.39 162.3C454 161.91 453.525 161.615 452.965 161.415C452.415 161.205 451.8 161.1 451.12 161.1C450.2 161.1 449.405 161.28 448.735 161.64C448.065 162 447.55 162.51 447.19 163.17C446.83 163.83 446.65 164.62 446.65 165.54C446.65 166.22 446.755 166.835 446.965 167.385C447.175 167.925 447.475 168.39 447.865 168.78C448.255 169.17 448.725 169.465 449.275 169.665C449.825 169.865 450.445 169.965 451.135 169.965ZM462.977 171.135C461.827 171.135 460.887 170.985 460.157 170.685C459.437 170.375 458.902 169.955 458.552 169.425C458.202 168.895 458.007 168.28 457.967 167.58H459.437C459.467 168.14 459.622 168.61 459.902 168.99C460.182 169.36 460.582 169.64 461.102 169.83C461.632 170.01 462.272 170.1 463.022 170.1C464.122 170.1 464.937 169.92 465.467 169.56C466.007 169.19 466.277 168.69 466.277 168.06C466.277 167.66 466.197 167.34 466.037 167.1C465.877 166.85 465.642 166.655 465.332 166.515C465.022 166.375 464.647 166.265 464.207 166.185C463.777 166.105 463.292 166.03 462.752 165.96C462.092 165.87 461.487 165.77 460.937 165.66C460.397 165.54 459.927 165.375 459.527 165.165C459.137 164.955 458.832 164.675 458.612 164.325C458.392 163.965 458.282 163.515 458.282 162.975C458.282 162.325 458.467 161.775 458.837 161.325C459.217 160.875 459.742 160.535 460.412 160.305C461.092 160.065 461.887 159.945 462.797 159.945C463.737 159.945 464.537 160.075 465.197 160.335C465.857 160.585 466.362 160.95 466.712 161.43C467.072 161.9 467.267 162.465 467.297 163.125H465.872C465.852 162.635 465.712 162.23 465.452 161.91C465.192 161.59 464.832 161.355 464.372 161.205C463.912 161.045 463.367 160.965 462.737 160.965C462.097 160.965 461.552 161.04 461.102 161.19C460.652 161.34 460.307 161.555 460.067 161.835C459.827 162.115 459.707 162.445 459.707 162.825C459.707 163.315 459.837 163.68 460.097 163.92C460.357 164.16 460.742 164.335 461.252 164.445C461.762 164.555 462.387 164.66 463.127 164.76C463.797 164.84 464.412 164.94 464.972 165.06C465.532 165.18 466.017 165.355 466.427 165.585C466.837 165.805 467.152 166.105 467.372 166.485C467.602 166.865 467.717 167.36 467.717 167.97C467.717 168.62 467.537 169.185 467.177 169.665C466.817 170.135 466.287 170.5 465.587 170.76C464.887 171.01 464.017 171.135 462.977 171.135ZM468.842 171V169.65H470.237V171H468.842Z" fill="#303030"/>
<path d="M261.089 499.004L148.125 499.004C148.125 499.004 87.9671 498.352 96.2904 513.963C102.284 525.205 168.772 531.665 164.957 539.31C159.462 550.322 87.339 550.193 114.508 562.831C129.519 569.814 219.524 557.834 286.873 556.311C387.056 554.046 495.963 570.273 504.967 556.311C513.97 542.35 405.867 538.594 417.429 525.597C429.434 512.101 474.83 513.565 491.961 508.844C526.485 499.329 441.985 499.004 406.037 499.004L261.089 499.004Z" fill="url(#paint0_linear_1443_3923)"/>
<path d="M426.501 511C418 524 366 547.5 288 548C210 548.5 171 521 169.5 510.5C169.5 510.5 227.032 489 298 489C368.969 489 426.501 511 426.501 511Z" fill="#0D0D0D"/>
<path d="M405.767 343C405.767 343 303.771 518.941 192.267 476C111.77 445 168.267 343 168.267 343L175 330" stroke="#353535" stroke-width="16" stroke-linecap="round"/>
<path d="M169 291C169 291 180.5 320 297.5 320C414.5 320 426 291 426 291L426.5 511C426.5 511 402.5 543 297.5 545C192.5 547 169.5 510.5 169.5 510.5L169 291Z" fill="url(#paint1_linear_1443_3923)"/>
<path d="M179.454 507.896L179.454 473.521C179.486 473.541 179.519 473.561 179.553 473.583C180.11 473.927 180.917 474.423 181.916 475.027C183.913 476.237 186.681 477.883 189.763 479.631C195.911 483.118 203.353 487.035 208.404 488.667C214.334 490.582 222.683 492.448 229.533 493.833C232.962 494.526 236.021 495.1 238.223 495.5C239.324 495.701 240.211 495.858 240.823 495.965C241.034 496.002 241.212 496.033 241.356 496.057L241.356 529.933C241.281 529.923 241.2 529.912 241.112 529.901C240.587 529.831 239.819 529.724 238.844 529.576C236.895 529.282 234.124 528.825 230.837 528.178C224.261 526.883 215.634 524.828 207.407 521.786C193.809 516.759 186.776 513.209 183.151 510.93C181.339 509.791 180.393 508.977 179.906 508.467C179.664 508.213 179.539 508.037 179.479 507.939C179.469 507.922 179.461 507.908 179.454 507.896Z" fill="white" stroke="#3B3B3B"/>
<path d="M183.986 481.074C183.986 481.074 198.357 487.685 208.623 491.001C219.26 494.436 237.269 498.075 237.269 498.075" stroke="#3B3B3B"/>
<path d="M183.905 483.146C183.905 483.146 198.276 489.758 208.542 493.073C219.179 496.509 237.188 500.148 237.188 500.148" stroke="#3B3B3B"/>
<path d="M183.825 485.219C183.825 485.219 198.196 491.83 208.462 495.146C219.098 498.581 237.108 502.22 237.108 502.22" stroke="#3B3B3B"/>
<path d="M183.745 487.291C183.745 487.291 198.116 493.902 208.382 497.218C219.018 500.653 237.028 504.292 237.028 504.292" stroke="#3B3B3B"/>
<path d="M183.665 489.363C183.665 489.363 198.036 495.974 208.302 499.29C218.938 502.725 236.948 506.364 236.948 506.364" stroke="#3B3B3B"/>
<path d="M183.585 491.435C183.585 491.435 197.956 498.047 208.222 501.362C218.858 504.797 236.868 508.437 236.868 508.437" stroke="#3B3B3B"/>
<path d="M183.504 493.507C183.504 493.507 197.875 500.119 208.141 503.434C218.777 506.869 236.787 510.509 236.787 510.509" stroke="#3B3B3B"/>
<path d="M183.424 495.58C183.424 495.58 197.795 502.191 208.061 505.506C218.697 508.942 236.707 512.581 236.707 512.581" stroke="#3B3B3B"/>
<path d="M183.344 497.652C183.344 497.652 197.715 504.263 207.98 507.579C218.617 511.014 236.626 514.653 236.626 514.653" stroke="#3B3B3B"/>
<path d="M183.264 499.724C183.264 499.724 197.635 506.335 207.9 509.651C218.537 513.086 236.546 516.725 236.546 516.725" stroke="#3B3B3B"/>
<path d="M183.184 501.796C183.184 501.796 197.555 508.407 207.82 511.723C218.457 515.158 236.466 518.797 236.466 518.797" stroke="#3B3B3B"/>
<path d="M183.104 503.868C183.104 503.868 197.474 510.48 207.74 513.795C218.377 517.231 236.386 520.87 236.386 520.87" stroke="#3B3B3B"/>
<path d="M183.022 505.94C183.022 505.94 197.393 512.552 207.659 515.867C218.296 519.303 236.305 522.942 236.305 522.942" stroke="#3B3B3B"/>
<path d="M202.251 504.385C202.251 504.385 212.751 508.128 221.251 510.5C229.276 512.739 240.5 514.165 240.5 514.165L240.5 529C240.5 529 229.719 527.793 219.256 524.908C202.018 520.155 202.251 519 202.251 519L202.251 504.385Z" fill="white"/>
<g filter="url(#filter0_d_1443_3923)">
<path d="M314.399 516.488C310.037 529.149 288.681 532.656 268.055 525.551C247.429 518.446 235.345 503.42 239.706 490.758C244.068 478.097 263.429 477.946 284.055 485.051C304.68 492.156 318.76 503.826 314.399 516.488Z" fill="#3C3C3C"/>
<path d="M313.453 516.162C311.442 522.003 305.441 525.908 297.143 527.449C288.878 528.983 278.558 528.111 268.38 524.605C258.204 521.1 250.199 515.661 245.287 509.608C240.374 503.555 238.618 496.988 240.652 491.084C242.65 485.284 248.101 482.203 255.873 481.488C263.643 480.774 273.489 482.469 283.729 485.996C293.97 489.524 302.494 494.157 307.901 499.403C313.294 504.637 315.462 510.332 313.453 516.162Z" stroke="white" stroke-width="2"/>
</g>
<path fill-rule="evenodd" clip-rule="evenodd" d="M288.95 498.621L275.43 493.964L274.222 497.469L283.736 500.746L278.562 515.769L282.567 517.148L288.95 498.621ZM270.214 496.094L283.734 500.751L277.351 519.279L263.831 514.622L270.214 496.094ZM271.637 504.969L271.636 504.969L269.054 512.465L271.748 513.393C273.845 514.115 275.709 514.041 277.33 513.157C278.951 512.273 280.171 510.62 280.974 508.288L281.005 508.2L281.005 508.2L281.037 508.109C281.84 505.776 281.897 503.723 281.164 502.029C280.431 500.333 279.008 499.127 276.911 498.405L274.218 497.477L271.637 504.969Z" fill="white"/>
<ellipse cx="297.5" cy="291" rx="128.5" ry="29" fill="url(#paint2_radial_1443_3923)"/>
<path d="M169 291C169 291 180.522 320.616 297.75 320.616C414.977 320.616 426 290.5 426 290.5V312C426 312 410.468 341.76 297.752 341.998C185.035 342.235 169 311.5 169 311.5V291Z" fill="url(#paint3_linear_1443_3923)"/>
<path d="M288.5 424.25V319.779C288.5 319.779 257 320 222 314.5C194.5 310.179 181.5 302 181.5 302L181.111 427.284C181.04 450.225 188.894 473.595 208.04 486.231C211.209 488.323 214.413 490.155 217.5 491.5C221.298 493.154 225.782 494.447 230.404 495.455C246.934 499.064 261 485.081 261 468.161V451.75C261 444.156 267.156 438 274.75 438C282.344 438 288.5 431.844 288.5 424.25Z" fill="url(#paint4_linear_1443_3923)"/>
<circle cx="336.69" cy="476.163" r="9.5" transform="rotate(6.03498 336.69 476.163)" fill="#303030"/>
<circle cx="401.338" cy="463.891" r="9.5" transform="rotate(6.03498 401.338 463.891)" fill="#303030"/>
<path d="M388.45 490.685C384.407 485.632 380.377 483.086 373.812 483.541C364.92 484.944 358.876 489.168 355.59 497.553" stroke="#303030" stroke-width="7" stroke-linecap="round"/>
<path d="M405.767 343C405.767 343 303.771 518.941 192.267 476C158.153 462.862 148.643 436.973 149.01 411.5" stroke="#353535" stroke-width="16" stroke-linecap="round"/>
<defs>
<filter id="filter0_d_1443_3923" x="237.819" y="479.327" width="78.374" height="50.8481" filterUnits="userSpaceOnUse" color-interpolation-filters="sRGB">
<feFlood flood-opacity="0" result="BackgroundImageFix"/>
<feColorMatrix in="SourceAlpha" type="matrix" values="0 0 0 0 0 0 0 0 0 0 0 0 0 0 0 0 0 0 127 0" result="hardAlpha"/>
<feOffset/>
<feGaussianBlur stdDeviation="0.5"/>
<feComposite in2="hardAlpha" operator="out"/>
<feColorMatrix type="matrix" values="0 0 0 0 0 0 0 0 0 0 0 0 0 0 0 0 0 0 0.25 0"/>
<feBlend mode="normal" in2="BackgroundImageFix" result="effect1_dropShadow_1443_3923"/>
<feBlend mode="normal" in="SourceGraphic" in2="effect1_dropShadow_1443_3923" result="shape"/>
</filter>
<linearGradient id="paint0_linear_1443_3923" x1="302.88" y1="497.857" x2="304.967" y2="558.072" gradientUnits="userSpaceOnUse">
<stop stop-color="#FF8D07"/>
<stop offset="1" stop-color="#FFDC61"/>
</linearGradient>
<linearGradient id="paint1_linear_1443_3923" x1="169.5" y1="377.5" x2="426.5" y2="383" gradientUnits="userSpaceOnUse">
<stop stop-color="#FFD683"/>
<stop offset="0.19" stop-color="#FFFAC8"/>
<stop offset="0.635" stop-color="#FFF9B8"/>
<stop offset="1" stop-color="#FFCF6C"/>
</linearGradient>
<radialGradient id="paint2_radial_1443_3923" cx="0" cy="0" r="1" gradientUnits="userSpaceOnUse" gradientTransform="translate(298 310.5) rotate(90) scale(37.5 129)">
<stop stop-color="#FF7800"/>
<stop offset="0.49" stop-color="#FFB300"/>
<stop offset="0.695" stop-color="#FFC916"/>
<stop offset="0.9999" stop-color="#FFD335"/>
<stop offset="1" stop-color="#FFDD85"/>
</radialGradient>
<linearGradient id="paint3_linear_1443_3923" x1="169.501" y1="299.22" x2="414.637" y2="354.533" gradientUnits="userSpaceOnUse">
<stop stop-color="#F2F2F2"/>
<stop offset="0.49" stop-color="white"/>
<stop offset="0.635" stop-color="white"/>
<stop offset="1" stop-color="#EFEFEF"/>
</linearGradient>
<linearGradient id="paint4_linear_1443_3923" x1="234.75" y1="303" x2="289" y2="448" gradientUnits="userSpaceOnUse">
<stop stop-color="#FF8D07"/>
<stop offset="1" stop-color="#FFDC61"/>
</linearGradient>
</defs>
</svg>
