<svg width="575" height="565" viewBox="0 0 575 565" fill="none" xmlns="http://www.w3.org/2000/svg">
<path d="M79.902 72.7H98.202C98.202 78.8 103.602 82.4 110.002 82.4C115.702 82.4 120.702 80.3 120.702 75.5C120.702 61.9 83.402 71.1 80.902 47.7C79.202 32.1 93.602 25.3 109.902 25.3C127.202 25.3 138.702 31.7 138.902 47.7H120.902C120.702 40.6 113.602 38.9 109.902 38.9C104.402 38.9 99.902 41 99.902 45.7C99.902 58.4 139.902 48.4 139.902 74.7C139.902 90.3 127.902 97 109.902 97C88.902 97 79.902 87.7 79.902 72.7ZM145.627 60.9C145.627 35.8 156.727 25.1 182.627 25.1C208.527 25.1 219.627 35.8 219.627 60.9C219.627 86 208.527 96.7 182.627 96.7C156.727 96.7 145.627 86 145.627 60.9ZM165.627 60.9C165.627 75.8 171.427 82.2 182.627 82.2C193.827 82.2 199.627 75.8 199.627 60.9C199.627 46 193.827 39.6 182.627 39.6C171.427 39.6 165.627 46 165.627 60.9ZM228.607 96V26H264.607C284.607 26 292.607 37 292.607 49C292.607 57.9 288.907 64.9 280.207 68.5L294.607 96.1H273.607L262.107 71H248.607V96H228.607ZM248.607 40V58H263.607C269.607 58 272.607 54 272.607 49C272.607 44 269.607 40 263.607 40H248.607ZM302.631 96V26H338.631C358.631 26 366.631 37 366.631 49C366.631 57.9 362.931 64.9 354.231 68.5L368.631 96.1H347.631L336.131 71H322.631V96H302.631ZM322.631 40V58H337.631C343.631 58 346.631 54 346.631 49C346.631 44 343.631 40 337.631 40H322.631ZM390.574 96V66.2C385.274 65.3 379.074 62.3 376.674 55.7L365.774 26H385.774L398.674 63.9H400.674L413.574 26H433.574L422.674 55.7C420.374 62 414.574 65.1 409.574 66.1V96H390.574ZM491.018 73.3H477.018V26H491.018V73.3ZM474.018 87.2C474.018 81.8 478.518 77.4 484.018 77.4C489.218 77.4 493.918 81.8 493.918 87.2C493.918 92.7 489.218 97.1 484.018 97.1C478.518 97.1 474.018 92.7 474.018 87.2Z" fill="#303030"/>
<path d="M114.694 151V140.065H123.499V141.22H115.624L116.089 140.755V145.225L115.729 144.88H122.764V145.96H115.729L116.089 145.6V150.295L115.624 149.83H123.514V151H114.694ZM124.948 151V140.065H126.688L134.008 149.26H134.098L134.023 145.6V140.065H135.403V151H133.678L126.388 141.835H126.283L126.343 145.36V151H124.948ZM140.812 151V140.065H149.617V141.22H141.742L142.207 140.755V145.225L141.847 144.88H148.882V145.96H141.847L142.207 145.6V150.295L141.742 149.83H149.632V151H140.812ZM155.536 151.135C154.386 151.135 153.446 150.985 152.716 150.685C151.996 150.375 151.461 149.955 151.111 149.425C150.761 148.895 150.566 148.28 150.526 147.58H151.996C152.026 148.14 152.181 148.61 152.461 148.99C152.741 149.36 153.141 149.64 153.661 149.83C154.191 150.01 154.831 150.1 155.581 150.1C156.681 150.1 157.496 149.92 158.026 149.56C158.566 149.19 158.836 148.69 158.836 148.06C158.836 147.66 158.756 147.34 158.596 147.1C158.436 146.85 158.201 146.655 157.891 146.515C157.581 146.375 157.206 146.265 156.766 146.185C156.336 146.105 155.851 146.03 155.311 145.96C154.651 145.87 154.046 145.77 153.496 145.66C152.956 145.54 152.486 145.375 152.086 145.165C151.696 144.955 151.391 144.675 151.171 144.325C150.951 143.965 150.841 143.515 150.841 142.975C150.841 142.325 151.026 141.775 151.396 141.325C151.776 140.875 152.301 140.535 152.971 140.305C153.651 140.065 154.446 139.945 155.356 139.945C156.296 139.945 157.096 140.075 157.756 140.335C158.416 140.585 158.921 140.95 159.271 141.43C159.631 141.9 159.826 142.465 159.856 143.125H158.431C158.411 142.635 158.271 142.23 158.011 141.91C157.751 141.59 157.391 141.355 156.931 141.205C156.471 141.045 155.926 140.965 155.296 140.965C154.656 140.965 154.111 141.04 153.661 141.19C153.211 141.34 152.866 141.555 152.626 141.835C152.386 142.115 152.266 142.445 152.266 142.825C152.266 143.315 152.396 143.68 152.656 143.92C152.916 144.16 153.301 144.335 153.811 144.445C154.321 144.555 154.946 144.66 155.686 144.76C156.356 144.84 156.971 144.94 157.531 145.06C158.091 145.18 158.576 145.355 158.986 145.585C159.396 145.805 159.711 146.105 159.931 146.485C160.161 146.865 160.276 147.36 160.276 147.97C160.276 148.62 160.096 149.185 159.736 149.665C159.376 150.135 158.846 150.5 158.146 150.76C157.446 151.01 156.576 151.135 155.536 151.135ZM164.871 151V141.22H160.791V140.065H170.361V141.22H166.266V151H164.871ZM176.125 151.135C175.225 151.135 174.41 151.005 173.68 150.745C172.96 150.475 172.34 150.095 171.82 149.605C171.31 149.105 170.92 148.51 170.65 147.82C170.38 147.13 170.245 146.37 170.245 145.54C170.245 144.69 170.38 143.925 170.65 143.245C170.92 142.555 171.31 141.965 171.82 141.475C172.34 140.985 172.96 140.61 173.68 140.35C174.41 140.08 175.225 139.945 176.125 139.945C177.035 139.945 177.85 140.08 178.57 140.35C179.29 140.61 179.905 140.99 180.415 141.49C180.935 141.98 181.33 142.565 181.6 143.245C181.87 143.925 182.005 144.69 182.005 145.54C182.005 146.38 181.87 147.145 181.6 147.835C181.33 148.515 180.935 149.105 180.415 149.605C179.895 150.095 179.275 150.475 178.555 150.745C177.835 151.005 177.025 151.135 176.125 151.135ZM176.14 149.965C177.06 149.965 177.85 149.785 178.51 149.425C179.18 149.065 179.695 148.555 180.055 147.895C180.415 147.225 180.595 146.44 180.595 145.54C180.595 144.85 180.49 144.235 180.28 143.695C180.08 143.145 179.785 142.68 179.395 142.3C179.005 141.91 178.53 141.615 177.97 141.415C177.42 141.205 176.805 141.1 176.125 141.1C175.205 141.1 174.41 141.28 173.74 141.64C173.07 142 172.555 142.51 172.195 143.17C171.835 143.83 171.655 144.62 171.655 145.54C171.655 146.22 171.76 146.835 171.97 147.385C172.18 147.925 172.48 148.39 172.87 148.78C173.26 149.17 173.73 149.465 174.28 149.665C174.83 149.865 175.45 149.965 176.14 149.965ZM187.982 151.135C186.832 151.135 185.892 150.985 185.162 150.685C184.442 150.375 183.907 149.955 183.557 149.425C183.207 148.895 183.012 148.28 182.972 147.58H184.442C184.472 148.14 184.627 148.61 184.907 148.99C185.187 149.36 185.587 149.64 186.107 149.83C186.637 150.01 187.277 150.1 188.027 150.1C189.127 150.1 189.942 149.92 190.472 149.56C191.012 149.19 191.282 148.69 191.282 148.06C191.282 147.66 191.202 147.34 191.042 147.1C190.882 146.85 190.647 146.655 190.337 146.515C190.027 146.375 189.652 146.265 189.212 146.185C188.782 146.105 188.297 146.03 187.757 145.96C187.097 145.87 186.492 145.77 185.942 145.66C185.402 145.54 184.932 145.375 184.532 145.165C184.142 144.955 183.837 144.675 183.617 144.325C183.397 143.965 183.287 143.515 183.287 142.975C183.287 142.325 183.472 141.775 183.842 141.325C184.222 140.875 184.747 140.535 185.417 140.305C186.097 140.065 186.892 139.945 187.802 139.945C188.742 139.945 189.542 140.075 190.202 140.335C190.862 140.585 191.367 140.95 191.717 141.43C192.077 141.9 192.272 142.465 192.302 143.125H190.877C190.857 142.635 190.717 142.23 190.457 141.91C190.197 141.59 189.837 141.355 189.377 141.205C188.917 141.045 188.372 140.965 187.742 140.965C187.102 140.965 186.557 141.04 186.107 141.19C185.657 141.34 185.312 141.555 185.072 141.835C184.832 142.115 184.712 142.445 184.712 142.825C184.712 143.315 184.842 143.68 185.102 143.92C185.362 144.16 185.747 144.335 186.257 144.445C186.767 144.555 187.392 144.66 188.132 144.76C188.802 144.84 189.417 144.94 189.977 145.06C190.537 145.18 191.022 145.355 191.432 145.585C191.842 145.805 192.157 146.105 192.377 146.485C192.607 146.865 192.722 147.36 192.722 147.97C192.722 148.62 192.542 149.185 192.182 149.665C191.822 150.135 191.292 150.5 190.592 150.76C189.892 151.01 189.022 151.135 187.982 151.135ZM197.589 151V140.065H199.719L203.724 149.275H203.784L207.774 140.065H209.919V151H208.584V145.495L208.629 141.49H208.509L204.369 151H203.154L198.984 141.49H198.879L198.909 145.495V151H197.589ZM217.331 151.135C216.431 151.135 215.616 151.005 214.886 150.745C214.166 150.475 213.546 150.095 213.026 149.605C212.516 149.105 212.126 148.51 211.856 147.82C211.586 147.13 211.451 146.37 211.451 145.54C211.451 144.69 211.586 143.925 211.856 143.245C212.126 142.555 212.516 141.965 213.026 141.475C213.546 140.985 214.166 140.61 214.886 140.35C215.616 140.08 216.431 139.945 217.331 139.945C218.241 139.945 219.056 140.08 219.776 140.35C220.496 140.61 221.111 140.99 221.621 141.49C222.141 141.98 222.536 142.565 222.806 143.245C223.076 143.925 223.211 144.69 223.211 145.54C223.211 146.38 223.076 147.145 222.806 147.835C222.536 148.515 222.141 149.105 221.621 149.605C221.101 150.095 220.481 150.475 219.761 150.745C219.041 151.005 218.231 151.135 217.331 151.135ZM217.346 149.965C218.266 149.965 219.056 149.785 219.716 149.425C220.386 149.065 220.901 148.555 221.261 147.895C221.621 147.225 221.801 146.44 221.801 145.54C221.801 144.85 221.696 144.235 221.486 143.695C221.286 143.145 220.991 142.68 220.601 142.3C220.211 141.91 219.736 141.615 219.176 141.415C218.626 141.205 218.011 141.1 217.331 141.1C216.411 141.1 215.616 141.28 214.946 141.64C214.276 142 213.761 142.51 213.401 143.17C213.041 143.83 212.861 144.62 212.861 145.54C212.861 146.22 212.966 146.835 213.176 147.385C213.386 147.925 213.686 148.39 214.076 148.78C214.466 149.17 214.936 149.465 215.486 149.665C216.036 149.865 216.656 149.965 217.346 149.965ZM224.747 151V140.065H226.877L230.882 149.275H230.942L234.932 140.065H237.077V151H235.742V145.495L235.787 141.49H235.667L231.527 151H230.312L226.142 141.49H226.037L226.067 145.495V151H224.747ZM239.059 151V140.065H247.864V141.22H239.989L240.454 140.755V145.225L240.094 144.88H247.129V145.96H240.094L240.454 145.6V150.295L239.989 149.83H247.879V151H239.059ZM249.313 151V140.065H251.053L258.373 149.26H258.463L258.388 145.6V140.065H259.768V151H258.043L250.753 141.835H250.648L250.708 145.36V151H249.313ZM265.154 151V141.22H261.074V140.065H270.644V141.22H266.549V151H265.154ZM276.408 151.135C275.508 151.135 274.693 151.005 273.963 150.745C273.243 150.475 272.623 150.095 272.103 149.605C271.593 149.105 271.203 148.51 270.933 147.82C270.663 147.13 270.528 146.37 270.528 145.54C270.528 144.69 270.663 143.925 270.933 143.245C271.203 142.555 271.593 141.965 272.103 141.475C272.623 140.985 273.243 140.61 273.963 140.35C274.693 140.08 275.508 139.945 276.408 139.945C277.318 139.945 278.133 140.08 278.853 140.35C279.573 140.61 280.188 140.99 280.698 141.49C281.218 141.98 281.613 142.565 281.883 143.245C282.153 143.925 282.288 144.69 282.288 145.54C282.288 146.38 282.153 147.145 281.883 147.835C281.613 148.515 281.218 149.105 280.698 149.605C280.178 150.095 279.558 150.475 278.838 150.745C278.118 151.005 277.308 151.135 276.408 151.135ZM276.423 149.965C277.343 149.965 278.133 149.785 278.793 149.425C279.463 149.065 279.978 148.555 280.338 147.895C280.698 147.225 280.878 146.44 280.878 145.54C280.878 144.85 280.773 144.235 280.563 143.695C280.363 143.145 280.068 142.68 279.678 142.3C279.288 141.91 278.813 141.615 278.253 141.415C277.703 141.205 277.088 141.1 276.408 141.1C275.488 141.1 274.693 141.28 274.023 141.64C273.353 142 272.838 142.51 272.478 143.17C272.118 143.83 271.938 144.62 271.938 145.54C271.938 146.22 272.043 146.835 272.253 147.385C272.463 147.925 272.763 148.39 273.153 148.78C273.543 149.17 274.013 149.465 274.563 149.665C275.113 149.865 275.733 149.965 276.423 149.965ZM288.265 151.135C287.115 151.135 286.175 150.985 285.445 150.685C284.725 150.375 284.19 149.955 283.84 149.425C283.49 148.895 283.295 148.28 283.255 147.58H284.725C284.755 148.14 284.91 148.61 285.19 148.99C285.47 149.36 285.87 149.64 286.39 149.83C286.92 150.01 287.56 150.1 288.31 150.1C289.41 150.1 290.225 149.92 290.755 149.56C291.295 149.19 291.565 148.69 291.565 148.06C291.565 147.66 291.485 147.34 291.325 147.1C291.165 146.85 290.93 146.655 290.62 146.515C290.31 146.375 289.935 146.265 289.495 146.185C289.065 146.105 288.58 146.03 288.04 145.96C287.38 145.87 286.775 145.77 286.225 145.66C285.685 145.54 285.215 145.375 284.815 145.165C284.425 144.955 284.12 144.675 283.9 144.325C283.68 143.965 283.57 143.515 283.57 142.975C283.57 142.325 283.755 141.775 284.125 141.325C284.505 140.875 285.03 140.535 285.7 140.305C286.38 140.065 287.175 139.945 288.085 139.945C289.025 139.945 289.825 140.075 290.485 140.335C291.145 140.585 291.65 140.95 292 141.43C292.36 141.9 292.555 142.465 292.585 143.125H291.16C291.14 142.635 291 142.23 290.74 141.91C290.48 141.59 290.12 141.355 289.66 141.205C289.2 141.045 288.655 140.965 288.025 140.965C287.385 140.965 286.84 141.04 286.39 141.19C285.94 141.34 285.595 141.555 285.355 141.835C285.115 142.115 284.995 142.445 284.995 142.825C284.995 143.315 285.125 143.68 285.385 143.92C285.645 144.16 286.03 144.335 286.54 144.445C287.05 144.555 287.675 144.66 288.415 144.76C289.085 144.84 289.7 144.94 290.26 145.06C290.82 145.18 291.305 145.355 291.715 145.585C292.125 145.805 292.44 146.105 292.66 146.485C292.89 146.865 293.005 147.36 293.005 147.97C293.005 148.62 292.825 149.185 292.465 149.665C292.105 150.135 291.575 150.5 290.875 150.76C290.175 151.01 289.305 151.135 288.265 151.135ZM297.872 151V140.065H299.612L306.932 149.26H307.022L306.947 145.6V140.065H308.327V151H306.602L299.312 141.835H299.207L299.267 145.36V151H297.872ZM315.739 151.135C314.839 151.135 314.024 151.005 313.294 150.745C312.574 150.475 311.954 150.095 311.434 149.605C310.924 149.105 310.534 148.51 310.264 147.82C309.994 147.13 309.859 146.37 309.859 145.54C309.859 144.69 309.994 143.925 310.264 143.245C310.534 142.555 310.924 141.965 311.434 141.475C311.954 140.985 312.574 140.61 313.294 140.35C314.024 140.08 314.839 139.945 315.739 139.945C316.649 139.945 317.464 140.08 318.184 140.35C318.904 140.61 319.519 140.99 320.029 141.49C320.549 141.98 320.944 142.565 321.214 143.245C321.484 143.925 321.619 144.69 321.619 145.54C321.619 146.38 321.484 147.145 321.214 147.835C320.944 148.515 320.549 149.105 320.029 149.605C319.509 150.095 318.889 150.475 318.169 150.745C317.449 151.005 316.639 151.135 315.739 151.135ZM315.754 149.965C316.674 149.965 317.464 149.785 318.124 149.425C318.794 149.065 319.309 148.555 319.669 147.895C320.029 147.225 320.209 146.44 320.209 145.54C320.209 144.85 320.104 144.235 319.894 143.695C319.694 143.145 319.399 142.68 319.009 142.3C318.619 141.91 318.144 141.615 317.584 141.415C317.034 141.205 316.419 141.1 315.739 141.1C314.819 141.1 314.024 141.28 313.354 141.64C312.684 142 312.169 142.51 311.809 143.17C311.449 143.83 311.269 144.62 311.269 145.54C311.269 146.22 311.374 146.835 311.584 147.385C311.794 147.925 312.094 148.39 312.484 148.78C312.874 149.17 313.344 149.465 313.894 149.665C314.444 149.865 315.064 149.965 315.754 149.965ZM326.583 151V140.065H327.978V145L327.858 144.88H335.778L335.658 145V140.065H337.053V151H335.658V145.915L335.778 146.035H327.858L327.978 145.915V151H326.583ZM338.179 151L343.309 140.065H345.094L350.239 151H348.724L347.479 148.33H340.924L339.679 151H338.179ZM341.374 147.25H347.044L344.839 142.6L344.239 141.265H344.179L343.579 142.63L341.374 147.25ZM352.85 151V146.65L348.17 140.065H349.775L353.525 145.45H353.6L357.365 140.065H358.955L354.245 146.65V151H352.85ZM368.957 151.135C368.057 151.135 367.242 151.005 366.512 150.745C365.782 150.475 365.157 150.09 364.637 149.59C364.127 149.09 363.737 148.5 363.467 147.82C363.197 147.14 363.062 146.38 363.062 145.54C363.062 144.69 363.197 143.925 363.467 143.245C363.737 142.555 364.127 141.965 364.637 141.475C365.157 140.985 365.782 140.61 366.512 140.35C367.242 140.08 368.057 139.945 368.957 139.945C369.957 139.945 370.842 140.1 371.612 140.41C372.382 140.72 373.007 141.155 373.487 141.715C373.977 142.265 374.287 142.925 374.417 143.695H373.007C372.897 143.165 372.652 142.705 372.272 142.315C371.902 141.925 371.432 141.625 370.862 141.415C370.302 141.205 369.667 141.1 368.957 141.1C368.037 141.1 367.237 141.28 366.557 141.64C365.887 142 365.372 142.51 365.012 143.17C364.652 143.83 364.472 144.62 364.472 145.54C364.472 146.23 364.577 146.845 364.787 147.385C364.997 147.925 365.292 148.39 365.672 148.78C366.062 149.17 366.532 149.465 367.082 149.665C367.642 149.865 368.267 149.965 368.957 149.965C369.687 149.965 370.337 149.86 370.907 149.65C371.477 149.43 371.942 149.125 372.302 148.735C372.672 148.335 372.912 147.87 373.022 147.34L374.417 147.355C374.307 148.115 374.007 148.78 373.517 149.35C373.027 149.92 372.387 150.36 371.597 150.67C370.817 150.98 369.937 151.135 368.957 151.135ZM381.335 151.135C380.435 151.135 379.62 151.005 378.89 150.745C378.17 150.475 377.55 150.095 377.03 149.605C376.52 149.105 376.13 148.51 375.86 147.82C375.59 147.13 375.455 146.37 375.455 145.54C375.455 144.69 375.59 143.925 375.86 143.245C376.13 142.555 376.52 141.965 377.03 141.475C377.55 140.985 378.17 140.61 378.89 140.35C379.62 140.08 380.435 139.945 381.335 139.945C382.245 139.945 383.06 140.08 383.78 140.35C384.5 140.61 385.115 140.99 385.625 141.49C386.145 141.98 386.54 142.565 386.81 143.245C387.08 143.925 387.215 144.69 387.215 145.54C387.215 146.38 387.08 147.145 386.81 147.835C386.54 148.515 386.145 149.105 385.625 149.605C385.105 150.095 384.485 150.475 383.765 150.745C383.045 151.005 382.235 151.135 381.335 151.135ZM381.35 149.965C382.27 149.965 383.06 149.785 383.72 149.425C384.39 149.065 384.905 148.555 385.265 147.895C385.625 147.225 385.805 146.44 385.805 145.54C385.805 144.85 385.7 144.235 385.49 143.695C385.29 143.145 384.995 142.68 384.605 142.3C384.215 141.91 383.74 141.615 383.18 141.415C382.63 141.205 382.015 141.1 381.335 141.1C380.415 141.1 379.62 141.28 378.95 141.64C378.28 142 377.765 142.51 377.405 143.17C377.045 143.83 376.865 144.62 376.865 145.54C376.865 146.22 376.97 146.835 377.18 147.385C377.39 147.925 377.69 148.39 378.08 148.78C378.47 149.17 378.94 149.465 379.49 149.665C380.04 149.865 380.66 149.965 381.35 149.965ZM388.751 151V140.065H390.491L397.811 149.26H397.901L397.826 145.6V140.065H399.206V151H397.481L390.191 141.835H390.086L390.146 145.36V151H388.751ZM404.593 151V141.22H400.513V140.065H410.083V141.22H405.988V151H404.593ZM411.368 151V140.065H420.173V141.22H412.298L412.763 140.755V145.225L412.403 144.88H419.438V145.96H412.403L412.763 145.6V150.295L412.298 149.83H420.188V151H411.368ZM421.622 151V140.065H423.362L430.682 149.26H430.772L430.697 145.6V140.065H432.077V151H430.352L423.062 141.835H422.957L423.017 145.36V151H421.622ZM434.059 151V140.065H435.454V151H434.059ZM437.428 151V140.065H442.303C443.493 140.065 444.508 140.29 445.348 140.74C446.188 141.19 446.828 141.825 447.268 142.645C447.708 143.465 447.928 144.43 447.928 145.54C447.928 146.39 447.798 147.155 447.538 147.835C447.278 148.505 446.903 149.075 446.413 149.545C445.923 150.015 445.333 150.375 444.643 150.625C443.953 150.875 443.178 151 442.318 151H437.428ZM438.808 149.86H442.108C442.828 149.86 443.463 149.76 444.013 149.56C444.563 149.36 445.023 149.07 445.393 148.69C445.763 148.3 446.043 147.84 446.233 147.31C446.423 146.77 446.518 146.17 446.518 145.51C446.518 144.57 446.333 143.785 445.963 143.155C445.603 142.515 445.093 142.03 444.433 141.7C443.773 141.37 442.998 141.205 442.108 141.205H438.808V149.86ZM454.87 151.135C453.97 151.135 453.155 151.005 452.425 150.745C451.705 150.475 451.085 150.095 450.565 149.605C450.055 149.105 449.665 148.51 449.395 147.82C449.125 147.13 448.99 146.37 448.99 145.54C448.99 144.69 449.125 143.925 449.395 143.245C449.665 142.555 450.055 141.965 450.565 141.475C451.085 140.985 451.705 140.61 452.425 140.35C453.155 140.08 453.97 139.945 454.87 139.945C455.78 139.945 456.595 140.08 457.315 140.35C458.035 140.61 458.65 140.99 459.16 141.49C459.68 141.98 460.075 142.565 460.345 143.245C460.615 143.925 460.75 144.69 460.75 145.54C460.75 146.38 460.615 147.145 460.345 147.835C460.075 148.515 459.68 149.105 459.16 149.605C458.64 150.095 458.02 150.475 457.3 150.745C456.58 151.005 455.77 151.135 454.87 151.135ZM454.885 149.965C455.805 149.965 456.595 149.785 457.255 149.425C457.925 149.065 458.44 148.555 458.8 147.895C459.16 147.225 459.34 146.44 459.34 145.54C459.34 144.85 459.235 144.235 459.025 143.695C458.825 143.145 458.53 142.68 458.14 142.3C457.75 141.91 457.275 141.615 456.715 141.415C456.165 141.205 455.55 141.1 454.87 141.1C453.95 141.1 453.155 141.28 452.485 141.64C451.815 142 451.3 142.51 450.94 143.17C450.58 143.83 450.4 144.62 450.4 145.54C450.4 146.22 450.505 146.835 450.715 147.385C450.925 147.925 451.225 148.39 451.615 148.78C452.005 149.17 452.475 149.465 453.025 149.665C453.575 149.865 454.195 149.965 454.885 149.965ZM132.448 171V160.065H137.323C138.513 160.065 139.528 160.29 140.368 160.74C141.208 161.19 141.848 161.825 142.288 162.645C142.728 163.465 142.948 164.43 142.948 165.54C142.948 166.39 142.818 167.155 142.558 167.835C142.298 168.505 141.923 169.075 141.433 169.545C140.943 170.015 140.353 170.375 139.663 170.625C138.973 170.875 138.198 171 137.338 171H132.448ZM133.828 169.86H137.128C137.848 169.86 138.483 169.76 139.033 169.56C139.583 169.36 140.043 169.07 140.413 168.69C140.783 168.3 141.063 167.84 141.253 167.31C141.443 166.77 141.538 166.17 141.538 165.51C141.538 164.57 141.353 163.785 140.983 163.155C140.623 162.515 140.113 162.03 139.453 161.7C138.793 161.37 138.018 161.205 137.128 161.205H133.828V169.86ZM144.459 171V160.065H145.854V171H144.459ZM152.298 171.135C151.148 171.135 150.208 170.985 149.478 170.685C148.758 170.375 148.223 169.955 147.873 169.425C147.523 168.895 147.328 168.28 147.288 167.58H148.758C148.788 168.14 148.943 168.61 149.223 168.99C149.503 169.36 149.903 169.64 150.423 169.83C150.953 170.01 151.593 170.1 152.343 170.1C153.443 170.1 154.258 169.92 154.788 169.56C155.328 169.19 155.598 168.69 155.598 168.06C155.598 167.66 155.518 167.34 155.358 167.1C155.198 166.85 154.963 166.655 154.653 166.515C154.343 166.375 153.968 166.265 153.528 166.185C153.098 166.105 152.613 166.03 152.073 165.96C151.413 165.87 150.808 165.77 150.258 165.66C149.718 165.54 149.248 165.375 148.848 165.165C148.458 164.955 148.153 164.675 147.933 164.325C147.713 163.965 147.603 163.515 147.603 162.975C147.603 162.325 147.788 161.775 148.158 161.325C148.538 160.875 149.063 160.535 149.733 160.305C150.413 160.065 151.208 159.945 152.118 159.945C153.058 159.945 153.858 160.075 154.518 160.335C155.178 160.585 155.683 160.95 156.033 161.43C156.393 161.9 156.588 162.465 156.618 163.125H155.193C155.173 162.635 155.033 162.23 154.773 161.91C154.513 161.59 154.153 161.355 153.693 161.205C153.233 161.045 152.688 160.965 152.058 160.965C151.418 160.965 150.873 161.04 150.423 161.19C149.973 161.34 149.628 161.555 149.388 161.835C149.148 162.115 149.028 162.445 149.028 162.825C149.028 163.315 149.158 163.68 149.418 163.92C149.678 164.16 150.063 164.335 150.573 164.445C151.083 164.555 151.708 164.66 152.448 164.76C153.118 164.84 153.733 164.94 154.293 165.06C154.853 165.18 155.338 165.355 155.748 165.585C156.158 165.805 156.473 166.105 156.693 166.485C156.923 166.865 157.038 167.36 157.038 167.97C157.038 168.62 156.858 169.185 156.498 169.665C156.138 170.135 155.608 170.5 154.908 170.76C154.208 171.01 153.338 171.135 152.298 171.135ZM158.478 171V160.065H163.818C164.478 160.065 165.053 160.145 165.543 160.305C166.043 160.455 166.463 160.68 166.803 160.98C167.143 161.27 167.398 161.625 167.568 162.045C167.738 162.465 167.823 162.94 167.823 163.47C167.823 164.2 167.658 164.82 167.328 165.33C167.008 165.84 166.548 166.225 165.948 166.485C165.348 166.745 164.633 166.875 163.803 166.875H159.708V165.81H163.668C164.288 165.81 164.798 165.715 165.198 165.525C165.598 165.335 165.898 165.07 166.098 164.73C166.298 164.38 166.398 163.97 166.398 163.5C166.398 163.01 166.293 162.595 166.083 162.255C165.873 161.915 165.563 161.655 165.153 161.475C164.753 161.295 164.258 161.205 163.668 161.205H159.483L159.873 160.83V171H158.478ZM174.63 171.135C173.73 171.135 172.915 171.005 172.185 170.745C171.465 170.475 170.845 170.095 170.325 169.605C169.815 169.105 169.425 168.51 169.155 167.82C168.885 167.13 168.75 166.37 168.75 165.54C168.75 164.69 168.885 163.925 169.155 163.245C169.425 162.555 169.815 161.965 170.325 161.475C170.845 160.985 171.465 160.61 172.185 160.35C172.915 160.08 173.73 159.945 174.63 159.945C175.54 159.945 176.355 160.08 177.075 160.35C177.795 160.61 178.41 160.99 178.92 161.49C179.44 161.98 179.835 162.565 180.105 163.245C180.375 163.925 180.51 164.69 180.51 165.54C180.51 166.38 180.375 167.145 180.105 167.835C179.835 168.515 179.44 169.105 178.92 169.605C178.4 170.095 177.78 170.475 177.06 170.745C176.34 171.005 175.53 171.135 174.63 171.135ZM174.645 169.965C175.565 169.965 176.355 169.785 177.015 169.425C177.685 169.065 178.2 168.555 178.56 167.895C178.92 167.225 179.1 166.44 179.1 165.54C179.1 164.85 178.995 164.235 178.785 163.695C178.585 163.145 178.29 162.68 177.9 162.3C177.51 161.91 177.035 161.615 176.475 161.415C175.925 161.205 175.31 161.1 174.63 161.1C173.71 161.1 172.915 161.28 172.245 161.64C171.575 162 171.06 162.51 170.7 163.17C170.34 163.83 170.16 164.62 170.16 165.54C170.16 166.22 170.265 166.835 170.475 167.385C170.685 167.925 170.985 168.39 171.375 168.78C171.765 169.17 172.235 169.465 172.785 169.665C173.335 169.865 173.955 169.965 174.645 169.965ZM182.047 171V160.065H183.787L191.107 169.26H191.197L191.122 165.6V160.065H192.502V171H190.777L183.487 161.835H183.382L183.442 165.36V171H182.047ZM194.484 171V160.065H195.879V171H194.484ZM197.853 171V160.065H203.868C204.628 160.065 205.258 160.18 205.758 160.41C206.258 160.64 206.633 160.965 206.883 161.385C207.133 161.795 207.258 162.29 207.258 162.87C207.258 163.27 207.188 163.64 207.048 163.98C206.918 164.31 206.713 164.595 206.433 164.835C206.163 165.065 205.818 165.225 205.398 165.315V165.375C205.878 165.465 206.273 165.63 206.583 165.87C206.903 166.11 207.143 166.41 207.303 166.77C207.473 167.13 207.558 167.53 207.558 167.97C207.558 168.61 207.408 169.155 207.108 169.605C206.808 170.055 206.378 170.4 205.818 170.64C205.258 170.88 204.588 171 203.808 171H197.853ZM199.233 169.95H203.628C204.488 169.95 205.123 169.755 205.533 169.365C205.943 168.975 206.148 168.475 206.148 167.865C206.148 167.245 205.948 166.765 205.548 166.425C205.148 166.085 204.573 165.915 203.823 165.915H199.233V169.95ZM199.233 164.895H203.763C204.243 164.895 204.638 164.82 204.948 164.67C205.258 164.51 205.493 164.29 205.653 164.01C205.813 163.73 205.893 163.405 205.893 163.035C205.893 162.415 205.678 161.94 205.248 161.61C204.828 161.28 204.273 161.115 203.583 161.115H199.233V164.895ZM208.898 171V160.065H210.293V170.145L209.903 169.8H216.518V171H208.898ZM217.789 171V160.065H226.594V161.22H218.719L219.184 160.755V165.225L218.824 164.88H225.859V165.96H218.824L219.184 165.6V170.295L218.719 169.83H226.609V171H217.789ZM232.513 171.135C231.363 171.135 230.423 170.985 229.693 170.685C228.973 170.375 228.438 169.955 228.088 169.425C227.738 168.895 227.543 168.28 227.503 167.58H228.973C229.003 168.14 229.158 168.61 229.438 168.99C229.718 169.36 230.118 169.64 230.638 169.83C231.168 170.01 231.808 170.1 232.558 170.1C233.658 170.1 234.473 169.92 235.003 169.56C235.543 169.19 235.813 168.69 235.813 168.06C235.813 167.66 235.733 167.34 235.573 167.1C235.413 166.85 235.178 166.655 234.868 166.515C234.558 166.375 234.183 166.265 233.743 166.185C233.313 166.105 232.828 166.03 232.288 165.96C231.628 165.87 231.023 165.77 230.473 165.66C229.933 165.54 229.463 165.375 229.063 165.165C228.673 164.955 228.368 164.675 228.148 164.325C227.928 163.965 227.818 163.515 227.818 162.975C227.818 162.325 228.003 161.775 228.373 161.325C228.753 160.875 229.278 160.535 229.948 160.305C230.628 160.065 231.423 159.945 232.333 159.945C233.273 159.945 234.073 160.075 234.733 160.335C235.393 160.585 235.898 160.95 236.248 161.43C236.608 161.9 236.803 162.465 236.833 163.125H235.408C235.388 162.635 235.248 162.23 234.988 161.91C234.728 161.59 234.368 161.355 233.908 161.205C233.448 161.045 232.903 160.965 232.273 160.965C231.633 160.965 231.088 161.04 230.638 161.19C230.188 161.34 229.843 161.555 229.603 161.835C229.363 162.115 229.243 162.445 229.243 162.825C229.243 163.315 229.373 163.68 229.633 163.92C229.893 164.16 230.278 164.335 230.788 164.445C231.298 164.555 231.923 164.66 232.663 164.76C233.333 164.84 233.948 164.94 234.508 165.06C235.068 165.18 235.553 165.355 235.963 165.585C236.373 165.805 236.688 166.105 236.908 166.485C237.138 166.865 237.253 167.36 237.253 167.97C237.253 168.62 237.073 169.185 236.713 169.665C236.353 170.135 235.823 170.5 235.123 170.76C234.423 171.01 233.553 171.135 232.513 171.135ZM238.198 173.325V172.605L238.423 172.59C238.663 172.58 238.828 172.495 238.918 172.335C239.008 172.185 239.053 171.99 239.053 171.75V171H238.408V169.65H239.803V171.825C239.803 172.305 239.698 172.665 239.488 172.905C239.278 173.155 238.978 173.29 238.588 173.31L238.198 173.325ZM249.344 171.135C248.194 171.135 247.254 170.985 246.524 170.685C245.804 170.375 245.269 169.955 244.919 169.425C244.569 168.895 244.374 168.28 244.334 167.58H245.804C245.834 168.14 245.989 168.61 246.269 168.99C246.549 169.36 246.949 169.64 247.469 169.83C247.999 170.01 248.639 170.1 249.389 170.1C250.489 170.1 251.304 169.92 251.834 169.56C252.374 169.19 252.644 168.69 252.644 168.06C252.644 167.66 252.564 167.34 252.404 167.1C252.244 166.85 252.009 166.655 251.699 166.515C251.389 166.375 251.014 166.265 250.574 166.185C250.144 166.105 249.659 166.03 249.119 165.96C248.459 165.87 247.854 165.77 247.304 165.66C246.764 165.54 246.294 165.375 245.894 165.165C245.504 164.955 245.199 164.675 244.979 164.325C244.759 163.965 244.649 163.515 244.649 162.975C244.649 162.325 244.834 161.775 245.204 161.325C245.584 160.875 246.109 160.535 246.779 160.305C247.459 160.065 248.254 159.945 249.164 159.945C250.104 159.945 250.904 160.075 251.564 160.335C252.224 160.585 252.729 160.95 253.079 161.43C253.439 161.9 253.634 162.465 253.664 163.125H252.239C252.219 162.635 252.079 162.23 251.819 161.91C251.559 161.59 251.199 161.355 250.739 161.205C250.279 161.045 249.734 160.965 249.104 160.965C248.464 160.965 247.919 161.04 247.469 161.19C247.019 161.34 246.674 161.555 246.434 161.835C246.194 162.115 246.074 162.445 246.074 162.825C246.074 163.315 246.204 163.68 246.464 163.92C246.724 164.16 247.109 164.335 247.619 164.445C248.129 164.555 248.754 164.66 249.494 164.76C250.164 164.84 250.779 164.94 251.339 165.06C251.899 165.18 252.384 165.355 252.794 165.585C253.204 165.805 253.519 166.105 253.739 166.485C253.969 166.865 254.084 167.36 254.084 167.97C254.084 168.62 253.904 169.185 253.544 169.665C253.184 170.135 252.654 170.5 251.954 170.76C251.254 171.01 250.384 171.135 249.344 171.135ZM255.524 171V160.065H264.329V161.22H256.454L256.919 160.755V165.225L256.559 164.88H263.594V165.96H256.559L256.919 165.6V170.295L256.454 169.83H264.344V171H255.524ZM269.205 171V160.065H278.01V161.22H270.135L270.6 160.755V165.225L270.24 164.88H277.275V165.96H270.24L270.6 165.6V170.295L270.135 169.83H278.025V171H269.205ZM283.929 171.135C282.779 171.135 281.839 170.985 281.109 170.685C280.389 170.375 279.854 169.955 279.504 169.425C279.154 168.895 278.959 168.28 278.919 167.58H280.389C280.419 168.14 280.574 168.61 280.854 168.99C281.134 169.36 281.534 169.64 282.054 169.83C282.584 170.01 283.224 170.1 283.974 170.1C285.074 170.1 285.889 169.92 286.419 169.56C286.959 169.19 287.229 168.69 287.229 168.06C287.229 167.66 287.149 167.34 286.989 167.1C286.829 166.85 286.594 166.655 286.284 166.515C285.974 166.375 285.599 166.265 285.159 166.185C284.729 166.105 284.244 166.03 283.704 165.96C283.044 165.87 282.439 165.77 281.889 165.66C281.349 165.54 280.879 165.375 280.479 165.165C280.089 164.955 279.784 164.675 279.564 164.325C279.344 163.965 279.234 163.515 279.234 162.975C279.234 162.325 279.419 161.775 279.789 161.325C280.169 160.875 280.694 160.535 281.364 160.305C282.044 160.065 282.839 159.945 283.749 159.945C284.689 159.945 285.489 160.075 286.149 160.335C286.809 160.585 287.314 160.95 287.664 161.43C288.024 161.9 288.219 162.465 288.249 163.125H286.824C286.804 162.635 286.664 162.23 286.404 161.91C286.144 161.59 285.784 161.355 285.324 161.205C284.864 161.045 284.319 160.965 283.689 160.965C283.049 160.965 282.504 161.04 282.054 161.19C281.604 161.34 281.259 161.555 281.019 161.835C280.779 162.115 280.659 162.445 280.659 162.825C280.659 163.315 280.789 163.68 281.049 163.92C281.309 164.16 281.694 164.335 282.204 164.445C282.714 164.555 283.339 164.66 284.079 164.76C284.749 164.84 285.364 164.94 285.924 165.06C286.484 165.18 286.969 165.355 287.379 165.585C287.789 165.805 288.104 166.105 288.324 166.485C288.554 166.865 288.669 167.36 288.669 167.97C288.669 168.62 288.489 169.185 288.129 169.665C287.769 170.135 287.239 170.5 286.539 170.76C285.839 171.01 284.969 171.135 283.929 171.135ZM293.265 171V161.22H289.185V160.065H298.755V161.22H294.66V171H293.265ZM296.856 171L301.986 160.065H303.771L308.916 171H307.401L306.156 168.33H299.601L298.356 171H296.856ZM300.051 167.25H305.721L303.516 162.6L302.916 161.265H302.856L302.256 162.63L300.051 167.25ZM310.06 171V160.065H316.195C316.745 160.065 317.245 160.125 317.695 160.245C318.145 160.365 318.525 160.55 318.835 160.8C319.155 161.05 319.4 161.365 319.57 161.745C319.75 162.115 319.84 162.55 319.84 163.05C319.84 163.71 319.67 164.28 319.33 164.76C319 165.23 318.51 165.555 317.86 165.735V165.84C318.48 165.94 318.92 166.175 319.18 166.545C319.45 166.905 319.585 167.4 319.585 168.03V169.83C319.585 170.01 319.59 170.2 319.6 170.4C319.62 170.59 319.67 170.79 319.75 171H318.355C318.285 170.84 318.24 170.665 318.22 170.475C318.2 170.285 318.19 170.06 318.19 169.8V168.225C318.19 167.825 318.13 167.495 318.01 167.235C317.9 166.965 317.695 166.76 317.395 166.62C317.095 166.48 316.665 166.41 316.105 166.41H311.455V171H310.06ZM311.455 165.345H315.955C316.855 165.345 317.49 165.15 317.86 164.76C318.23 164.36 318.415 163.84 318.415 163.2C318.415 162.72 318.315 162.335 318.115 162.045C317.915 161.745 317.625 161.53 317.245 161.4C316.875 161.26 316.445 161.19 315.955 161.19H311.455V165.345ZM320.352 171L325.482 160.065H327.267L332.412 171H330.897L329.652 168.33H323.097L321.852 171H320.352ZM323.547 167.25H329.217L327.012 162.6L326.412 161.265H326.352L325.752 162.63L323.547 167.25ZM325.902 159.03L326.817 156.93H328.077L326.817 159.03H325.902ZM336.129 171L341.259 160.065H343.044L348.189 171H346.674L345.429 168.33H338.874L337.629 171H336.129ZM339.324 167.25H344.994L342.789 162.6L342.189 161.265H342.129L341.529 162.63L339.324 167.25ZM354.132 171.135C353.232 171.135 352.422 171.005 351.702 170.745C350.982 170.475 350.362 170.095 349.842 169.605C349.332 169.105 348.942 168.515 348.672 167.835C348.402 167.145 348.267 166.38 348.267 165.54C348.267 164.69 348.402 163.925 348.672 163.245C348.952 162.565 349.347 161.98 349.857 161.49C350.377 160.99 351.002 160.61 351.732 160.35C352.462 160.08 353.272 159.945 354.162 159.945C355.152 159.945 356.032 160.1 356.802 160.41C357.582 160.72 358.212 161.155 358.692 161.715C359.182 162.275 359.487 162.935 359.607 163.695H358.197C358.087 163.155 357.842 162.695 357.462 162.315C357.092 161.925 356.622 161.63 356.052 161.43C355.492 161.22 354.862 161.115 354.162 161.115C353.242 161.115 352.442 161.295 351.762 161.655C351.082 162.015 350.557 162.525 350.187 163.185C349.827 163.845 349.647 164.625 349.647 165.525C349.647 166.215 349.752 166.835 349.962 167.385C350.172 167.925 350.472 168.39 350.862 168.78C351.262 169.17 351.737 169.47 352.287 169.68C352.837 169.88 353.452 169.98 354.132 169.98C355.022 169.98 355.787 169.83 356.427 169.53C357.067 169.22 357.562 168.78 357.912 168.21C358.272 167.64 358.452 166.97 358.452 166.2V165.84L359.022 166.335H353.937V165.345H359.862V165.945C359.862 166.765 359.722 167.5 359.442 168.15C359.162 168.79 358.762 169.33 358.242 169.77C357.722 170.21 357.112 170.55 356.412 170.79C355.722 171.02 354.962 171.135 354.132 171.135ZM361.388 171V160.065H367.523C368.073 160.065 368.573 160.125 369.023 160.245C369.473 160.365 369.853 160.55 370.163 160.8C370.483 161.05 370.728 161.365 370.898 161.745C371.078 162.115 371.168 162.55 371.168 163.05C371.168 163.71 370.998 164.28 370.658 164.76C370.328 165.23 369.838 165.555 369.188 165.735V165.84C369.808 165.94 370.248 166.175 370.508 166.545C370.778 166.905 370.913 167.4 370.913 168.03V169.83C370.913 170.01 370.918 170.2 370.928 170.4C370.948 170.59 370.998 170.79 371.078 171H369.683C369.613 170.84 369.568 170.665 369.548 170.475C369.528 170.285 369.518 170.06 369.518 169.8V168.225C369.518 167.825 369.458 167.495 369.338 167.235C369.228 166.965 369.023 166.76 368.723 166.62C368.423 166.48 367.993 166.41 367.433 166.41H362.783V171H361.388ZM362.783 165.345H367.283C368.183 165.345 368.818 165.15 369.188 164.76C369.558 164.36 369.743 163.84 369.743 163.2C369.743 162.72 369.643 162.335 369.443 162.045C369.243 161.745 368.953 161.53 368.573 161.4C368.203 161.26 367.773 161.19 367.283 161.19H362.783V165.345ZM372.535 171V160.065H381.34V161.22H373.465L373.93 160.755V165.225L373.57 164.88H380.605V165.96H373.57L373.93 165.6V170.295L373.465 169.83H381.355V171H372.535ZM388.204 171.135C387.304 171.135 386.494 171.005 385.774 170.745C385.054 170.475 384.434 170.095 383.914 169.605C383.404 169.105 383.014 168.515 382.744 167.835C382.474 167.145 382.339 166.38 382.339 165.54C382.339 164.69 382.474 163.925 382.744 163.245C383.024 162.565 383.419 161.98 383.929 161.49C384.449 160.99 385.074 160.61 385.804 160.35C386.534 160.08 387.344 159.945 388.234 159.945C389.224 159.945 390.104 160.1 390.874 160.41C391.654 160.72 392.284 161.155 392.764 161.715C393.254 162.275 393.559 162.935 393.679 163.695H392.269C392.159 163.155 391.914 162.695 391.534 162.315C391.164 161.925 390.694 161.63 390.124 161.43C389.564 161.22 388.934 161.115 388.234 161.115C387.314 161.115 386.514 161.295 385.834 161.655C385.154 162.015 384.629 162.525 384.259 163.185C383.899 163.845 383.719 164.625 383.719 165.525C383.719 166.215 383.824 166.835 384.034 167.385C384.244 167.925 384.544 168.39 384.934 168.78C385.334 169.17 385.809 169.47 386.359 169.68C386.909 169.88 387.524 169.98 388.204 169.98C389.094 169.98 389.859 169.83 390.499 169.53C391.139 169.22 391.634 168.78 391.984 168.21C392.344 167.64 392.524 166.97 392.524 166.2V165.84L393.094 166.335H388.009V165.345H393.934V165.945C393.934 166.765 393.794 167.5 393.514 168.15C393.234 168.79 392.834 169.33 392.314 169.77C391.794 170.21 391.184 170.55 390.484 170.79C389.794 171.02 389.034 171.135 388.204 171.135ZM394.034 171L399.164 160.065H400.949L406.094 171H404.579L403.334 168.33H396.779L395.534 171H394.034ZM397.229 167.25H402.899L400.694 162.6L400.094 161.265H400.034L399.434 162.63L397.229 167.25ZM407.238 171V160.065H408.978L416.298 169.26H416.388L416.313 165.6V160.065H417.693V171H415.968L408.678 161.835H408.573L408.633 165.36V171H407.238ZM419.674 171V160.065H424.549C425.739 160.065 426.754 160.29 427.594 160.74C428.434 161.19 429.074 161.825 429.514 162.645C429.954 163.465 430.174 164.43 430.174 165.54C430.174 166.39 430.044 167.155 429.784 167.835C429.524 168.505 429.149 169.075 428.659 169.545C428.169 170.015 427.579 170.375 426.889 170.625C426.199 170.875 425.424 171 424.564 171H419.674ZM421.054 169.86H424.354C425.074 169.86 425.709 169.76 426.259 169.56C426.809 169.36 427.269 169.07 427.639 168.69C428.009 168.3 428.289 167.84 428.479 167.31C428.669 166.77 428.764 166.17 428.764 165.51C428.764 164.57 428.579 163.785 428.209 163.155C427.849 162.515 427.339 162.03 426.679 161.7C426.019 161.37 425.244 161.205 424.354 161.205H421.054V169.86ZM437.116 171.135C436.216 171.135 435.401 171.005 434.671 170.745C433.951 170.475 433.331 170.095 432.811 169.605C432.301 169.105 431.911 168.51 431.641 167.82C431.371 167.13 431.236 166.37 431.236 165.54C431.236 164.69 431.371 163.925 431.641 163.245C431.911 162.555 432.301 161.965 432.811 161.475C433.331 160.985 433.951 160.61 434.671 160.35C435.401 160.08 436.216 159.945 437.116 159.945C438.026 159.945 438.841 160.08 439.561 160.35C440.281 160.61 440.896 160.99 441.406 161.49C441.926 161.98 442.321 162.565 442.591 163.245C442.861 163.925 442.996 164.69 442.996 165.54C442.996 166.38 442.861 167.145 442.591 167.835C442.321 168.515 441.926 169.105 441.406 169.605C440.886 170.095 440.266 170.475 439.546 170.745C438.826 171.005 438.016 171.135 437.116 171.135ZM437.131 169.965C438.051 169.965 438.841 169.785 439.501 169.425C440.171 169.065 440.686 168.555 441.046 167.895C441.406 167.225 441.586 166.44 441.586 165.54C441.586 164.85 441.481 164.235 441.271 163.695C441.071 163.145 440.776 162.68 440.386 162.3C439.996 161.91 439.521 161.615 438.961 161.415C438.411 161.205 437.796 161.1 437.116 161.1C436.196 161.1 435.401 161.28 434.731 161.64C434.061 162 433.546 162.51 433.186 163.17C432.826 163.83 432.646 164.62 432.646 165.54C432.646 166.22 432.751 166.835 432.961 167.385C433.171 167.925 433.471 168.39 433.861 168.78C434.251 169.17 434.721 169.465 435.271 169.665C435.821 169.865 436.441 169.965 437.131 169.965ZM133.224 191V180.065H138.564C139.224 180.065 139.799 180.145 140.289 180.305C140.789 180.455 141.209 180.68 141.549 180.98C141.889 181.27 142.144 181.625 142.314 182.045C142.484 182.465 142.569 182.94 142.569 183.47C142.569 184.2 142.404 184.82 142.074 185.33C141.754 185.84 141.294 186.225 140.694 186.485C140.094 186.745 139.379 186.875 138.549 186.875H134.454V185.81H138.414C139.034 185.81 139.544 185.715 139.944 185.525C140.344 185.335 140.644 185.07 140.844 184.73C141.044 184.38 141.144 183.97 141.144 183.5C141.144 183.01 141.039 182.595 140.829 182.255C140.619 181.915 140.309 181.655 139.899 181.475C139.499 181.295 139.004 181.205 138.414 181.205H134.229L134.619 180.83V191H133.224ZM143.947 191V180.065H150.082C150.632 180.065 151.132 180.125 151.582 180.245C152.032 180.365 152.412 180.55 152.722 180.8C153.042 181.05 153.287 181.365 153.457 181.745C153.637 182.115 153.727 182.55 153.727 183.05C153.727 183.71 153.557 184.28 153.217 184.76C152.887 185.23 152.397 185.555 151.747 185.735V185.84C152.367 185.94 152.807 186.175 153.067 186.545C153.337 186.905 153.472 187.4 153.472 188.03V189.83C153.472 190.01 153.477 190.2 153.487 190.4C153.507 190.59 153.557 190.79 153.637 191H152.242C152.172 190.84 152.127 190.665 152.107 190.475C152.087 190.285 152.077 190.06 152.077 189.8V188.225C152.077 187.825 152.017 187.495 151.897 187.235C151.787 186.965 151.582 186.76 151.282 186.62C150.982 186.48 150.552 186.41 149.992 186.41H145.342V191H143.947ZM145.342 185.345H149.842C150.742 185.345 151.377 185.15 151.747 184.76C152.117 184.36 152.302 183.84 152.302 183.2C152.302 182.72 152.202 182.335 152.002 182.045C151.802 181.745 151.512 181.53 151.132 181.4C150.762 181.26 150.332 181.19 149.842 181.19H145.342V185.345ZM160.509 191.135C159.609 191.135 158.794 191.005 158.064 190.745C157.344 190.475 156.724 190.095 156.204 189.605C155.694 189.105 155.304 188.51 155.034 187.82C154.764 187.13 154.629 186.37 154.629 185.54C154.629 184.69 154.764 183.925 155.034 183.245C155.304 182.555 155.694 181.965 156.204 181.475C156.724 180.985 157.344 180.61 158.064 180.35C158.794 180.08 159.609 179.945 160.509 179.945C161.419 179.945 162.234 180.08 162.954 180.35C163.674 180.61 164.289 180.99 164.799 181.49C165.319 181.98 165.714 182.565 165.984 183.245C166.254 183.925 166.389 184.69 166.389 185.54C166.389 186.38 166.254 187.145 165.984 187.835C165.714 188.515 165.319 189.105 164.799 189.605C164.279 190.095 163.659 190.475 162.939 190.745C162.219 191.005 161.409 191.135 160.509 191.135ZM160.524 189.965C161.444 189.965 162.234 189.785 162.894 189.425C163.564 189.065 164.079 188.555 164.439 187.895C164.799 187.225 164.979 186.44 164.979 185.54C164.979 184.85 164.874 184.235 164.664 183.695C164.464 183.145 164.169 182.68 163.779 182.3C163.389 181.91 162.914 181.615 162.354 181.415C161.804 181.205 161.189 181.1 160.509 181.1C159.589 181.1 158.794 181.28 158.124 181.64C157.454 182 156.939 182.51 156.579 183.17C156.219 183.83 156.039 184.62 156.039 185.54C156.039 186.22 156.144 186.835 156.354 187.385C156.564 187.925 156.864 188.39 157.254 188.78C157.644 189.17 158.114 189.465 158.664 189.665C159.214 189.865 159.834 189.965 160.524 189.965ZM170.74 191V186.65L166.06 180.065H167.665L171.415 185.45H171.49L175.255 180.065H176.845L172.135 186.65V191H170.74ZM177.975 191V180.065H186.78V181.22H178.905L179.37 180.755V185.225L179.01 184.88H186.045V185.96H179.01L179.37 185.6V190.295L178.905 189.83H186.795V191H177.975ZM193.674 191.135C192.774 191.135 191.959 191.005 191.229 190.745C190.499 190.475 189.874 190.09 189.354 189.59C188.844 189.09 188.454 188.5 188.184 187.82C187.914 187.14 187.779 186.38 187.779 185.54C187.779 184.69 187.914 183.925 188.184 183.245C188.454 182.555 188.844 181.965 189.354 181.475C189.874 180.985 190.499 180.61 191.229 180.35C191.959 180.08 192.774 179.945 193.674 179.945C194.674 179.945 195.559 180.1 196.329 180.41C197.099 180.72 197.724 181.155 198.204 181.715C198.694 182.265 199.004 182.925 199.134 183.695H197.724C197.614 183.165 197.369 182.705 196.989 182.315C196.619 181.925 196.149 181.625 195.579 181.415C195.019 181.205 194.384 181.1 193.674 181.1C192.754 181.1 191.954 181.28 191.274 181.64C190.604 182 190.089 182.51 189.729 183.17C189.369 183.83 189.189 184.62 189.189 185.54C189.189 186.23 189.294 186.845 189.504 187.385C189.714 187.925 190.009 188.39 190.389 188.78C190.779 189.17 191.249 189.465 191.799 189.665C192.359 189.865 192.984 189.965 193.674 189.965C194.404 189.965 195.054 189.86 195.624 189.65C196.194 189.43 196.659 189.125 197.019 188.735C197.389 188.335 197.629 187.87 197.739 187.34L199.134 187.355C199.024 188.115 198.724 188.78 198.234 189.35C197.744 189.92 197.104 190.36 196.314 190.67C195.534 190.98 194.654 191.135 193.674 191.135ZM203.074 191V181.22H198.994V180.065H208.564V181.22H204.469V191H203.074ZM214.328 191.135C213.428 191.135 212.613 191.005 211.883 190.745C211.163 190.475 210.543 190.095 210.023 189.605C209.513 189.105 209.123 188.51 208.853 187.82C208.583 187.13 208.448 186.37 208.448 185.54C208.448 184.69 208.583 183.925 208.853 183.245C209.123 182.555 209.513 181.965 210.023 181.475C210.543 180.985 211.163 180.61 211.883 180.35C212.613 180.08 213.428 179.945 214.328 179.945C215.238 179.945 216.053 180.08 216.773 180.35C217.493 180.61 218.108 180.99 218.618 181.49C219.138 181.98 219.533 182.565 219.803 183.245C220.073 183.925 220.208 184.69 220.208 185.54C220.208 186.38 220.073 187.145 219.803 187.835C219.533 188.515 219.138 189.105 218.618 189.605C218.098 190.095 217.478 190.475 216.758 190.745C216.038 191.005 215.228 191.135 214.328 191.135ZM214.343 189.965C215.263 189.965 216.053 189.785 216.713 189.425C217.383 189.065 217.898 188.555 218.258 187.895C218.618 187.225 218.798 186.44 218.798 185.54C218.798 184.85 218.693 184.235 218.483 183.695C218.283 183.145 217.988 182.68 217.598 182.3C217.208 181.91 216.733 181.615 216.173 181.415C215.623 181.205 215.008 181.1 214.328 181.1C213.408 181.1 212.613 181.28 211.943 181.64C211.273 182 210.758 182.51 210.398 183.17C210.038 183.83 209.858 184.62 209.858 185.54C209.858 186.22 209.963 186.835 210.173 187.385C210.383 187.925 210.683 188.39 211.073 188.78C211.463 189.17 211.933 189.465 212.483 189.665C213.033 189.865 213.653 189.965 214.343 189.965ZM226.185 191.135C225.035 191.135 224.095 190.985 223.365 190.685C222.645 190.375 222.11 189.955 221.76 189.425C221.41 188.895 221.215 188.28 221.175 187.58H222.645C222.675 188.14 222.83 188.61 223.11 188.99C223.39 189.36 223.79 189.64 224.31 189.83C224.84 190.01 225.48 190.1 226.23 190.1C227.33 190.1 228.145 189.92 228.675 189.56C229.215 189.19 229.485 188.69 229.485 188.06C229.485 187.66 229.405 187.34 229.245 187.1C229.085 186.85 228.85 186.655 228.54 186.515C228.23 186.375 227.855 186.265 227.415 186.185C226.985 186.105 226.5 186.03 225.96 185.96C225.3 185.87 224.695 185.77 224.145 185.66C223.605 185.54 223.135 185.375 222.735 185.165C222.345 184.955 222.04 184.675 221.82 184.325C221.6 183.965 221.49 183.515 221.49 182.975C221.49 182.325 221.675 181.775 222.045 181.325C222.425 180.875 222.95 180.535 223.62 180.305C224.3 180.065 225.095 179.945 226.005 179.945C226.945 179.945 227.745 180.075 228.405 180.335C229.065 180.585 229.57 180.95 229.92 181.43C230.28 181.9 230.475 182.465 230.505 183.125H229.08C229.06 182.635 228.92 182.23 228.66 181.91C228.4 181.59 228.04 181.355 227.58 181.205C227.12 181.045 226.575 180.965 225.945 180.965C225.305 180.965 224.76 181.04 224.31 181.19C223.86 181.34 223.515 181.555 223.275 181.835C223.035 182.115 222.915 182.445 222.915 182.825C222.915 183.315 223.045 183.68 223.305 183.92C223.565 184.16 223.95 184.335 224.46 184.445C224.97 184.555 225.595 184.66 226.335 184.76C227.005 184.84 227.62 184.94 228.18 185.06C228.74 185.18 229.225 185.355 229.635 185.585C230.045 185.805 230.36 186.105 230.58 186.485C230.81 186.865 230.925 187.36 230.925 187.97C230.925 188.62 230.745 189.185 230.385 189.665C230.025 190.135 229.495 190.5 228.795 190.76C228.095 191.01 227.225 191.135 226.185 191.135ZM235.792 191V180.065H237.187V190.145L236.797 189.8H243.412V191H235.792ZM249.132 191.135C248.232 191.135 247.417 191.005 246.687 190.745C245.967 190.475 245.347 190.095 244.827 189.605C244.317 189.105 243.927 188.51 243.657 187.82C243.387 187.13 243.252 186.37 243.252 185.54C243.252 184.69 243.387 183.925 243.657 183.245C243.927 182.555 244.317 181.965 244.827 181.475C245.347 180.985 245.967 180.61 246.687 180.35C247.417 180.08 248.232 179.945 249.132 179.945C250.042 179.945 250.857 180.08 251.577 180.35C252.297 180.61 252.912 180.99 253.422 181.49C253.942 181.98 254.337 182.565 254.607 183.245C254.877 183.925 255.012 184.69 255.012 185.54C255.012 186.38 254.877 187.145 254.607 187.835C254.337 188.515 253.942 189.105 253.422 189.605C252.902 190.095 252.282 190.475 251.562 190.745C250.842 191.005 250.032 191.135 249.132 191.135ZM249.147 189.965C250.067 189.965 250.857 189.785 251.517 189.425C252.187 189.065 252.702 188.555 253.062 187.895C253.422 187.225 253.602 186.44 253.602 185.54C253.602 184.85 253.497 184.235 253.287 183.695C253.087 183.145 252.792 182.68 252.402 182.3C252.012 181.91 251.537 181.615 250.977 181.415C250.427 181.205 249.812 181.1 249.132 181.1C248.212 181.1 247.417 181.28 246.747 181.64C246.077 182 245.562 182.51 245.202 183.17C244.842 183.83 244.662 184.62 244.662 185.54C244.662 186.22 244.767 186.835 244.977 187.385C245.187 187.925 245.487 188.39 245.877 188.78C246.267 189.17 246.737 189.465 247.287 189.665C247.837 189.865 248.457 189.965 249.147 189.965ZM259.977 191V180.065H262.107L266.112 189.275H266.172L270.162 180.065H272.307V191H270.972V185.495L271.017 181.49H270.897L266.757 191H265.542L261.372 181.49H261.267L261.297 185.495V191H259.977ZM273.433 191L278.563 180.065H280.348L285.493 191H283.978L282.733 188.33H276.178L274.933 191H273.433ZM276.628 187.25H282.298L280.093 182.6L279.493 181.265H279.433L278.833 182.63L276.628 187.25ZM291.034 191.135C289.884 191.135 288.944 190.985 288.214 190.685C287.494 190.375 286.959 189.955 286.609 189.425C286.259 188.895 286.064 188.28 286.024 187.58H287.494C287.524 188.14 287.679 188.61 287.959 188.99C288.239 189.36 288.639 189.64 289.159 189.83C289.689 190.01 290.329 190.1 291.079 190.1C292.179 190.1 292.994 189.92 293.524 189.56C294.064 189.19 294.334 188.69 294.334 188.06C294.334 187.66 294.254 187.34 294.094 187.1C293.934 186.85 293.699 186.655 293.389 186.515C293.079 186.375 292.704 186.265 292.264 186.185C291.834 186.105 291.349 186.03 290.809 185.96C290.149 185.87 289.544 185.77 288.994 185.66C288.454 185.54 287.984 185.375 287.584 185.165C287.194 184.955 286.889 184.675 286.669 184.325C286.449 183.965 286.339 183.515 286.339 182.975C286.339 182.325 286.524 181.775 286.894 181.325C287.274 180.875 287.799 180.535 288.469 180.305C289.149 180.065 289.944 179.945 290.854 179.945C291.794 179.945 292.594 180.075 293.254 180.335C293.914 180.585 294.419 180.95 294.769 181.43C295.129 181.9 295.324 182.465 295.354 183.125H293.929C293.909 182.635 293.769 182.23 293.509 181.91C293.249 181.59 292.889 181.355 292.429 181.205C291.969 181.045 291.424 180.965 290.794 180.965C290.154 180.965 289.609 181.04 289.159 181.19C288.709 181.34 288.364 181.555 288.124 181.835C287.884 182.115 287.764 182.445 287.764 182.825C287.764 183.315 287.894 183.68 288.154 183.92C288.414 184.16 288.799 184.335 289.309 184.445C289.819 184.555 290.444 184.66 291.184 184.76C291.854 184.84 292.469 184.94 293.029 185.06C293.589 185.18 294.074 185.355 294.484 185.585C294.894 185.805 295.209 186.105 295.429 186.485C295.659 186.865 295.774 187.36 295.774 187.97C295.774 188.62 295.594 189.185 295.234 189.665C294.874 190.135 294.344 190.5 293.644 190.76C292.944 191.01 292.074 191.135 291.034 191.135ZM300.641 191V180.065H305.981C306.641 180.065 307.216 180.145 307.706 180.305C308.206 180.455 308.626 180.68 308.966 180.98C309.306 181.27 309.561 181.625 309.731 182.045C309.901 182.465 309.986 182.94 309.986 183.47C309.986 184.2 309.821 184.82 309.491 185.33C309.171 185.84 308.711 186.225 308.111 186.485C307.511 186.745 306.796 186.875 305.966 186.875H301.871V185.81H305.831C306.451 185.81 306.961 185.715 307.361 185.525C307.761 185.335 308.061 185.07 308.261 184.73C308.461 184.38 308.561 183.97 308.561 183.5C308.561 183.01 308.456 182.595 308.246 182.255C308.036 181.915 307.726 181.655 307.316 181.475C306.916 181.295 306.421 181.205 305.831 181.205H301.646L302.036 180.83V191H300.641ZM311.364 191V180.065H317.499C318.049 180.065 318.549 180.125 318.999 180.245C319.449 180.365 319.829 180.55 320.139 180.8C320.459 181.05 320.704 181.365 320.874 181.745C321.054 182.115 321.144 182.55 321.144 183.05C321.144 183.71 320.974 184.28 320.634 184.76C320.304 185.23 319.814 185.555 319.164 185.735V185.84C319.784 185.94 320.224 186.175 320.484 186.545C320.754 186.905 320.889 187.4 320.889 188.03V189.83C320.889 190.01 320.894 190.2 320.904 190.4C320.924 190.59 320.974 190.79 321.054 191H319.659C319.589 190.84 319.544 190.665 319.524 190.475C319.504 190.285 319.494 190.06 319.494 189.8V188.225C319.494 187.825 319.434 187.495 319.314 187.235C319.204 186.965 318.999 186.76 318.699 186.62C318.399 186.48 317.969 186.41 317.409 186.41H312.759V191H311.364ZM312.759 185.345H317.259C318.159 185.345 318.794 185.15 319.164 184.76C319.534 184.36 319.719 183.84 319.719 183.2C319.719 182.72 319.619 182.335 319.419 182.045C319.219 181.745 318.929 181.53 318.549 181.4C318.179 181.26 317.749 181.19 317.259 181.19H312.759V185.345ZM327.926 191.135C327.026 191.135 326.211 191.005 325.481 190.745C324.761 190.475 324.141 190.095 323.621 189.605C323.111 189.105 322.721 188.51 322.451 187.82C322.181 187.13 322.046 186.37 322.046 185.54C322.046 184.69 322.181 183.925 322.451 183.245C322.721 182.555 323.111 181.965 323.621 181.475C324.141 180.985 324.761 180.61 325.481 180.35C326.211 180.08 327.026 179.945 327.926 179.945C328.836 179.945 329.651 180.08 330.371 180.35C331.091 180.61 331.706 180.99 332.216 181.49C332.736 181.98 333.131 182.565 333.401 183.245C333.671 183.925 333.806 184.69 333.806 185.54C333.806 186.38 333.671 187.145 333.401 187.835C333.131 188.515 332.736 189.105 332.216 189.605C331.696 190.095 331.076 190.475 330.356 190.745C329.636 191.005 328.826 191.135 327.926 191.135ZM327.941 189.965C328.861 189.965 329.651 189.785 330.311 189.425C330.981 189.065 331.496 188.555 331.856 187.895C332.216 187.225 332.396 186.44 332.396 185.54C332.396 184.85 332.291 184.235 332.081 183.695C331.881 183.145 331.586 182.68 331.196 182.3C330.806 181.91 330.331 181.615 329.771 181.415C329.221 181.205 328.606 181.1 327.926 181.1C327.006 181.1 326.211 181.28 325.541 181.64C324.871 182 324.356 182.51 323.996 183.17C323.636 183.83 323.456 184.62 323.456 185.54C323.456 186.22 323.561 186.835 323.771 187.385C323.981 187.925 324.281 188.39 324.671 188.78C325.061 189.17 325.531 189.465 326.081 189.665C326.631 189.865 327.251 189.965 327.941 189.965ZM335.343 191V180.065H337.083L344.403 189.26H344.493L344.418 185.6V180.065H345.798V191H344.073L336.783 181.835H336.678L336.738 185.36V191H335.343ZM351.185 191V181.22H347.105V180.065H356.675V181.22H352.58V191H351.185ZM362.438 191.135C361.538 191.135 360.723 191.005 359.993 190.745C359.273 190.475 358.653 190.095 358.133 189.605C357.623 189.105 357.233 188.51 356.963 187.82C356.693 187.13 356.558 186.37 356.558 185.54C356.558 184.69 356.693 183.925 356.963 183.245C357.233 182.555 357.623 181.965 358.133 181.475C358.653 180.985 359.273 180.61 359.993 180.35C360.723 180.08 361.538 179.945 362.438 179.945C363.348 179.945 364.163 180.08 364.883 180.35C365.603 180.61 366.218 180.99 366.728 181.49C367.248 181.98 367.643 182.565 367.913 183.245C368.183 183.925 368.318 184.69 368.318 185.54C368.318 186.38 368.183 187.145 367.913 187.835C367.643 188.515 367.248 189.105 366.728 189.605C366.208 190.095 365.588 190.475 364.868 190.745C364.148 191.005 363.338 191.135 362.438 191.135ZM362.453 189.965C363.373 189.965 364.163 189.785 364.823 189.425C365.493 189.065 366.008 188.555 366.368 187.895C366.728 187.225 366.908 186.44 366.908 185.54C366.908 184.85 366.803 184.235 366.593 183.695C366.393 183.145 366.098 182.68 365.708 182.3C365.318 181.91 364.843 181.615 364.283 181.415C363.733 181.205 363.118 181.1 362.438 181.1C361.518 181.1 360.723 181.28 360.053 181.64C359.383 182 358.868 182.51 358.508 183.17C358.148 183.83 357.968 184.62 357.968 185.54C357.968 186.22 358.073 186.835 358.283 187.385C358.493 187.925 358.793 188.39 359.183 188.78C359.573 189.17 360.043 189.465 360.593 189.665C361.143 189.865 361.763 189.965 362.453 189.965ZM373.282 191V180.065H378.622C379.282 180.065 379.857 180.145 380.347 180.305C380.847 180.455 381.267 180.68 381.607 180.98C381.947 181.27 382.202 181.625 382.372 182.045C382.542 182.465 382.627 182.94 382.627 183.47C382.627 184.2 382.462 184.82 382.132 185.33C381.812 185.84 381.352 186.225 380.752 186.485C380.152 186.745 379.437 186.875 378.607 186.875H374.512V185.81H378.472C379.092 185.81 379.602 185.715 380.002 185.525C380.402 185.335 380.702 185.07 380.902 184.73C381.102 184.38 381.202 183.97 381.202 183.5C381.202 183.01 381.097 182.595 380.887 182.255C380.677 181.915 380.367 181.655 379.957 181.475C379.557 181.295 379.062 181.205 378.472 181.205H374.287L374.677 180.83V191H373.282ZM389.435 191.135C388.535 191.135 387.72 191.005 386.99 190.745C386.27 190.475 385.65 190.095 385.13 189.605C384.62 189.105 384.23 188.51 383.96 187.82C383.69 187.13 383.555 186.37 383.555 185.54C383.555 184.69 383.69 183.925 383.96 183.245C384.23 182.555 384.62 181.965 385.13 181.475C385.65 180.985 386.27 180.61 386.99 180.35C387.72 180.08 388.535 179.945 389.435 179.945C390.345 179.945 391.16 180.08 391.88 180.35C392.6 180.61 393.215 180.99 393.725 181.49C394.245 181.98 394.64 182.565 394.91 183.245C395.18 183.925 395.315 184.69 395.315 185.54C395.315 186.38 395.18 187.145 394.91 187.835C394.64 188.515 394.245 189.105 393.725 189.605C393.205 190.095 392.585 190.475 391.865 190.745C391.145 191.005 390.335 191.135 389.435 191.135ZM389.45 189.965C390.37 189.965 391.16 189.785 391.82 189.425C392.49 189.065 393.005 188.555 393.365 187.895C393.725 187.225 393.905 186.44 393.905 185.54C393.905 184.85 393.8 184.235 393.59 183.695C393.39 183.145 393.095 182.68 392.705 182.3C392.315 181.91 391.84 181.615 391.28 181.415C390.73 181.205 390.115 181.1 389.435 181.1C388.515 181.1 387.72 181.28 387.05 181.64C386.38 182 385.865 182.51 385.505 183.17C385.145 183.83 384.965 184.62 384.965 185.54C384.965 186.22 385.07 186.835 385.28 187.385C385.49 187.925 385.79 188.39 386.18 188.78C386.57 189.17 387.04 189.465 387.59 189.665C388.14 189.865 388.76 189.965 389.45 189.965ZM401.293 191.135C400.143 191.135 399.203 190.985 398.473 190.685C397.753 190.375 397.218 189.955 396.868 189.425C396.518 188.895 396.323 188.28 396.283 187.58H397.753C397.783 188.14 397.938 188.61 398.218 188.99C398.498 189.36 398.898 189.64 399.418 189.83C399.948 190.01 400.588 190.1 401.338 190.1C402.438 190.1 403.253 189.92 403.783 189.56C404.323 189.19 404.593 188.69 404.593 188.06C404.593 187.66 404.513 187.34 404.353 187.1C404.193 186.85 403.958 186.655 403.648 186.515C403.338 186.375 402.963 186.265 402.523 186.185C402.093 186.105 401.608 186.03 401.068 185.96C400.408 185.87 399.803 185.77 399.253 185.66C398.713 185.54 398.243 185.375 397.843 185.165C397.453 184.955 397.148 184.675 396.928 184.325C396.708 183.965 396.598 183.515 396.598 182.975C396.598 182.325 396.783 181.775 397.153 181.325C397.533 180.875 398.058 180.535 398.728 180.305C399.408 180.065 400.203 179.945 401.113 179.945C402.053 179.945 402.853 180.075 403.513 180.335C404.173 180.585 404.678 180.95 405.028 181.43C405.388 181.9 405.583 182.465 405.613 183.125H404.188C404.168 182.635 404.028 182.23 403.768 181.91C403.508 181.59 403.148 181.355 402.688 181.205C402.228 181.045 401.683 180.965 401.053 180.965C400.413 180.965 399.868 181.04 399.418 181.19C398.968 181.34 398.623 181.555 398.383 181.835C398.143 182.115 398.023 182.445 398.023 182.825C398.023 183.315 398.153 183.68 398.413 183.92C398.673 184.16 399.058 184.335 399.568 184.445C400.078 184.555 400.703 184.66 401.443 184.76C402.113 184.84 402.728 184.94 403.288 185.06C403.848 185.18 404.333 185.355 404.743 185.585C405.153 185.805 405.468 186.105 405.688 186.485C405.918 186.865 406.033 187.36 406.033 187.97C406.033 188.62 405.853 189.185 405.493 189.665C405.133 190.135 404.603 190.5 403.903 190.76C403.203 191.01 402.333 191.135 401.293 191.135ZM407.472 191V180.065H408.867V191H407.472ZM410.841 191V180.065H416.856C417.616 180.065 418.246 180.18 418.746 180.41C419.246 180.64 419.621 180.965 419.871 181.385C420.121 181.795 420.246 182.29 420.246 182.87C420.246 183.27 420.176 183.64 420.036 183.98C419.906 184.31 419.701 184.595 419.421 184.835C419.151 185.065 418.806 185.225 418.386 185.315V185.375C418.866 185.465 419.261 185.63 419.571 185.87C419.891 186.11 420.131 186.41 420.291 186.77C420.461 187.13 420.546 187.53 420.546 187.97C420.546 188.61 420.396 189.155 420.096 189.605C419.796 190.055 419.366 190.4 418.806 190.64C418.246 190.88 417.576 191 416.796 191H410.841ZM412.221 189.95H416.616C417.476 189.95 418.111 189.755 418.521 189.365C418.931 188.975 419.136 188.475 419.136 187.865C419.136 187.245 418.936 186.765 418.536 186.425C418.136 186.085 417.561 185.915 416.811 185.915H412.221V189.95ZM412.221 184.895H416.751C417.231 184.895 417.626 184.82 417.936 184.67C418.246 184.51 418.481 184.29 418.641 184.01C418.801 183.73 418.881 183.405 418.881 183.035C418.881 182.415 418.666 181.94 418.236 181.61C417.816 181.28 417.261 181.115 416.571 181.115H412.221V184.895ZM421.886 191V180.065H423.281V190.145L422.891 189.8H429.506V191H421.886ZM430.778 191V180.065H439.583V181.22H431.708L432.173 180.755V185.225L431.813 184.88H438.848V185.96H431.813L432.173 185.6V190.295L431.708 189.83H439.598V191H430.778ZM440.717 191V189.65H442.112V191H440.717Z" fill="#303030"/>
<path d="M261.089 499.004L148.125 499.004C148.125 499.004 87.9671 498.352 96.2904 513.963C102.284 525.205 168.772 531.665 164.957 539.31C159.462 550.322 87.339 550.193 114.508 562.831C129.519 569.814 219.524 557.834 286.873 556.311C387.056 554.046 495.963 570.273 504.967 556.311C513.97 542.35 405.867 538.594 417.429 525.597C429.434 512.101 474.83 513.565 491.961 508.844C526.485 499.329 441.985 499.004 406.037 499.004L261.089 499.004Z" fill="url(#paint0_linear_1443_3923)"/>
<path d="M426.5 511C426.5 525.5 367 547 294 547C209.486 547 173.499 527 169.499 510.5C165.726 494.935 227.031 489 298 489C368.968 489 426.5 494.984 426.5 511Z" fill="#0D0D0D"/>
<path d="M405.767 343C405.767 343 303.771 518.941 192.267 476C111.77 445 168.267 343 168.267 343L175 330" stroke="#353535" stroke-width="16" stroke-linecap="round"/>
<path d="M169 291C169 291 180.5 320 297.5 320C414.5 320 426 291 426 291L426.5 511C426.5 511 410 542.5 297.502 545C185.004 547.5 169.5 510.5 169.5 510.5L169 291Z" fill="url(#paint1_linear_1443_3923)"/>
<path d="M179.454 507.896L179.454 473.521C179.486 473.541 179.519 473.561 179.553 473.583C180.11 473.927 180.917 474.423 181.916 475.027C183.913 476.237 186.681 477.883 189.763 479.631C195.911 483.118 203.353 487.035 208.404 488.667C214.334 490.582 222.683 492.448 229.533 493.833C232.962 494.526 236.021 495.1 238.223 495.5C239.324 495.701 240.211 495.858 240.823 495.965C241.034 496.002 241.212 496.033 241.356 496.057L241.356 529.933C241.281 529.923 241.2 529.912 241.112 529.901C240.587 529.831 239.819 529.724 238.844 529.576C236.895 529.282 234.124 528.825 230.837 528.178C224.261 526.883 215.634 524.828 207.407 521.786C193.809 516.759 186.776 513.209 183.151 510.93C181.339 509.791 180.393 508.977 179.906 508.467C179.664 508.213 179.539 508.037 179.479 507.939C179.469 507.922 179.461 507.908 179.454 507.896Z" fill="white" stroke="#3B3B3B"/>
<path d="M183.986 481.074C183.986 481.074 198.357 487.685 208.623 491.001C219.26 494.436 237.269 498.075 237.269 498.075" stroke="#3B3B3B"/>
<path d="M183.905 483.146C183.905 483.146 198.276 489.758 208.542 493.073C219.179 496.509 237.188 500.148 237.188 500.148" stroke="#3B3B3B"/>
<path d="M183.825 485.219C183.825 485.219 198.196 491.83 208.462 495.146C219.098 498.581 237.108 502.22 237.108 502.22" stroke="#3B3B3B"/>
<path d="M183.745 487.291C183.745 487.291 198.116 493.902 208.382 497.218C219.018 500.653 237.028 504.292 237.028 504.292" stroke="#3B3B3B"/>
<path d="M183.665 489.363C183.665 489.363 198.036 495.974 208.302 499.29C218.938 502.725 236.948 506.364 236.948 506.364" stroke="#3B3B3B"/>
<path d="M183.585 491.435C183.585 491.435 197.956 498.047 208.222 501.362C218.858 504.797 236.868 508.437 236.868 508.437" stroke="#3B3B3B"/>
<path d="M183.504 493.507C183.504 493.507 197.875 500.119 208.141 503.434C218.777 506.869 236.787 510.509 236.787 510.509" stroke="#3B3B3B"/>
<path d="M183.424 495.58C183.424 495.58 197.795 502.191 208.061 505.506C218.697 508.942 236.707 512.581 236.707 512.581" stroke="#3B3B3B"/>
<path d="M183.344 497.652C183.344 497.652 197.715 504.263 207.98 507.579C218.617 511.014 236.626 514.653 236.626 514.653" stroke="#3B3B3B"/>
<path d="M183.264 499.724C183.264 499.724 197.635 506.335 207.9 509.651C218.537 513.086 236.546 516.725 236.546 516.725" stroke="#3B3B3B"/>
<path d="M183.184 501.796C183.184 501.796 197.555 508.407 207.82 511.723C218.457 515.158 236.466 518.797 236.466 518.797" stroke="#3B3B3B"/>
<path d="M183.104 503.868C183.104 503.868 197.474 510.48 207.74 513.795C218.377 517.231 236.386 520.87 236.386 520.87" stroke="#3B3B3B"/>
<path d="M183.022 505.94C183.022 505.94 197.393 512.552 207.659 515.867C218.296 519.303 236.305 522.942 236.305 522.942" stroke="#3B3B3B"/>
<path d="M202.251 504.385C202.251 504.385 212.751 508.128 221.251 510.5C229.276 512.739 240.5 514.165 240.5 514.165L240.5 529C240.5 529 229.719 527.793 219.256 524.908C202.018 520.155 202.251 519 202.251 519L202.251 504.385Z" fill="white"/>
<g filter="url(#filter0_d_1443_3923)">
<path d="M310.899 521.488C306.537 534.149 285.181 537.656 264.555 530.551C243.929 523.446 231.845 508.42 236.206 495.758C240.568 483.097 259.929 482.946 280.555 490.051C301.18 497.156 315.26 508.826 310.899 521.488Z" fill="#3C3C3C"/>
<path d="M309.953 521.162C307.942 527.003 301.941 530.908 293.643 532.449C285.378 533.983 275.058 533.111 264.88 529.605C254.704 526.1 246.699 520.661 241.787 514.608C236.874 508.555 235.118 501.988 237.152 496.084C239.15 490.284 244.601 487.203 252.373 486.488C260.143 485.774 269.989 487.469 280.229 490.996C290.47 494.524 298.994 499.157 304.401 504.403C309.794 509.637 311.962 515.332 309.953 521.162Z" stroke="white" stroke-width="2"/>
</g>
<path fill-rule="evenodd" clip-rule="evenodd" d="M285.45 503.621L271.93 498.964L270.722 502.469L280.236 505.746L275.062 520.769L279.067 522.148L285.45 503.621ZM266.714 501.094L280.234 505.751L273.851 524.279L260.331 519.622L266.714 501.094ZM268.137 509.969L268.136 509.969L265.554 517.465L268.248 518.393C270.345 519.115 272.209 519.041 273.83 518.157C275.451 517.273 276.671 515.62 277.474 513.288L277.505 513.2L277.505 513.2L277.537 513.109C278.34 510.776 278.397 508.723 277.664 507.029C276.931 505.333 275.508 504.127 273.411 503.405L270.718 502.477L268.137 509.969Z" fill="white"/>
<path d="M288.5 424.25V319.779C288.5 319.779 248.5 319 222 314.5C190.96 309.229 181.5 302.5 181.5 302.5L181.111 427.284C181.04 450.224 188.895 473.595 208.041 486.232C211.21 488.323 214.413 490.155 217.5 491.5C221.298 493.154 225.782 494.447 230.404 495.455C246.934 499.064 261 485.081 261 468.161V451.75C261 444.156 267.156 438 274.75 438C282.344 438 288.5 431.844 288.5 424.25Z" fill="url(#paint2_linear_1443_3923)"/>
<ellipse cx="297.5" cy="291" rx="128.5" ry="29" fill="url(#paint3_radial_1443_3923)"/>
<circle cx="337" cy="479.5" r="9.5" fill="#303030"/>
<circle cx="400" cy="460.5" r="9.5" fill="#303030"/>
<path d="M389.999 488.5C385.448 483.9 381.173 481.792 374.692 482.935C365.996 485.265 360.43 490.1 358.044 498.785" stroke="#303030" stroke-width="7" stroke-linecap="round"/>
<path d="M405.767 343C405.767 343 303.771 518.941 192.267 476C158.153 462.862 148.643 436.973 149.01 411.5" stroke="#353535" stroke-width="16" stroke-linecap="round"/>
<defs>
<filter id="filter0_d_1443_3923" x="234.319" y="484.327" width="78.374" height="50.8481" filterUnits="userSpaceOnUse" color-interpolation-filters="sRGB">
<feFlood flood-opacity="0" result="BackgroundImageFix"/>
<feColorMatrix in="SourceAlpha" type="matrix" values="0 0 0 0 0 0 0 0 0 0 0 0 0 0 0 0 0 0 127 0" result="hardAlpha"/>
<feOffset/>
<feGaussianBlur stdDeviation="0.5"/>
<feComposite in2="hardAlpha" operator="out"/>
<feColorMatrix type="matrix" values="0 0 0 0 0 0 0 0 0 0 0 0 0 0 0 0 0 0 0.25 0"/>
<feBlend mode="normal" in2="BackgroundImageFix" result="effect1_dropShadow_1443_3923"/>
<feBlend mode="normal" in="SourceGraphic" in2="effect1_dropShadow_1443_3923" result="shape"/>
</filter>
<linearGradient id="paint0_linear_1443_3923" x1="302.88" y1="497.857" x2="304.967" y2="558.072" gradientUnits="userSpaceOnUse">
<stop stop-color="#FF8D07"/>
<stop offset="1" stop-color="#FFDC61"/>
</linearGradient>
<linearGradient id="paint1_linear_1443_3923" x1="169.5" y1="377.5" x2="426.5" y2="383" gradientUnits="userSpaceOnUse">
<stop stop-color="#FFD683"/>
<stop offset="0.19" stop-color="#FFFAC8"/>
<stop offset="0.635" stop-color="#FFF9B8"/>
<stop offset="1" stop-color="#FFCF6C"/>
</linearGradient>
<linearGradient id="paint2_linear_1443_3923" x1="234.75" y1="303" x2="289" y2="448" gradientUnits="userSpaceOnUse">
<stop stop-color="#FF8D07"/>
<stop offset="1" stop-color="#FFDC61"/>
</linearGradient>
<radialGradient id="paint3_radial_1443_3923" cx="0" cy="0" r="1" gradientUnits="userSpaceOnUse" gradientTransform="translate(298 311.5) rotate(90) scale(36.5 122.997)">
<stop stop-color="#F3A700"/>
<stop offset="0.49" stop-color="#FFAD35"/>
<stop offset="0.695" stop-color="#FFB726"/>
<stop offset="0.9999" stop-color="#FFD335"/>
<stop offset="1" stop-color="#FFDD85"/>
</radialGradient>
</defs>
</svg>
