<svg width="308" height="495" viewBox="0 0 308 495" fill="none" xmlns="http://www.w3.org/2000/svg">
<path d="M217 213.5V221.875V259C217 267.284 210.284 274 202 274C193.716 274 187 267.284 187 259V233C187 224.716 180.284 218 172 218C163.716 218 157 224.716 157 233V257.25V269.375V293.625V305.75V330V450.5V479.5C157 487.784 150.284 494.5 142 494.5C133.716 494.5 127 487.784 127 479.5V453.5C127 445.216 120.284 438.5 112 438.5H71H31.5H16C7.71573 438.5 1 431.784 1 423.5L1.5 233M217 168.5V161.688V154.75V109M217 32.1723V0.5L16.5 1C8.21573 1 1.5 7.71573 1.5 16V233M183 0.584788V20M1.5 233H29.5M1.5 254H20M236 94H262" stroke="#9D9D9D" stroke-linecap="round" stroke-linejoin="round"/>
<path d="M1.5 271H26.5" stroke="#9D9D9D" stroke-linecap="round" stroke-linejoin="round"/>
<circle cx="172" cy="233" r="9.5" stroke="#9D9D9D"/>
<circle cx="172" cy="233" r="4.5" fill="#9D9D9D" stroke="#9D9D9D"/>
<circle cx="202" cy="259" r="9.5" stroke="#9D9D9D"/>
<circle cx="202" cy="259" r="4.5" fill="#9D9D9D" stroke="#9D9D9D"/>
<circle cx="142" cy="479" r="9.5" stroke="#9D9D9D"/>
<circle cx="142" cy="479" r="4.5" fill="#9D9D9D" stroke="#9D9D9D"/>
<circle cx="16" cy="423" r="9.5" stroke="#9D9D9D"/>
<circle cx="16" cy="423" r="4.5" fill="#9D9D9D" stroke="#9D9D9D"/>
<circle cx="16" cy="15" r="9.5" stroke="#9D9D9D"/>
<circle cx="16" cy="15" r="4.5" fill="#9D9D9D" stroke="#9D9D9D"/>
<circle cx="112" cy="453" r="9.5" stroke="#9D9D9D"/>
<circle cx="112" cy="453" r="4.5" fill="#9D9D9D" stroke="#9D9D9D"/>
<path d="M292.5 94C292.5 99.2467 288.247 103.5 283 103.5C277.753 103.5 273.5 99.2467 273.5 94C273.5 88.7533 277.753 84.5 283 84.5C288.247 84.5 292.5 88.7533 292.5 94Z" fill="#FFE900" stroke="#9D9D9D"/>
<path d="M166.5 443C166.5 448.247 162.247 452.5 157 452.5C151.753 452.5 147.5 448.247 147.5 443C147.5 437.753 151.753 433.5 157 433.5C162.247 433.5 166.5 437.753 166.5 443Z" fill="#FDBD39" stroke="#9D9D9D"/>
<path d="M222.382 38C222.382 40.9726 219.973 43.3824 217 43.3824C214.027 43.3824 211.618 40.9726 211.618 38C211.618 35.0274 214.027 32.6176 217 32.6176C219.973 32.6176 222.382 35.0274 222.382 38Z" fill="#9D9D9D" stroke="#9D9D9D"/>
<path d="M188.382 26C188.382 28.9726 185.973 31.3824 183 31.3824C180.027 31.3824 177.618 28.9726 177.618 26C177.618 23.0274 180.027 20.6176 183 20.6176C185.973 20.6176 188.382 23.0274 188.382 26Z" fill="#FDBD39" stroke="#9D9D9D"/>
<path d="M40.3824 233C40.3824 235.973 37.9726 238.382 35 238.382C32.0274 238.382 29.6176 235.973 29.6176 233C29.6176 230.027 32.0274 227.618 35 227.618C37.9726 227.618 40.3824 230.027 40.3824 233Z" fill="#FFE900" stroke="#9D9D9D"/>
<path d="M69.5882 128.5C69.5882 131.31 67.3102 133.588 64.5 133.588C61.6898 133.588 59.4118 131.31 59.4118 128.5C59.4118 125.69 61.6898 123.412 64.5 123.412C67.3102 123.412 69.5882 125.69 69.5882 128.5Z" fill="#FFE900" stroke="#9D9D9D"/>
<path d="M204 192H200M217 179V175M230 192H234M217 205V209" stroke="#9D9D9D" stroke-linecap="round" stroke-linejoin="round"/>
<path d="M226.5 192C226.5 197.247 222.247 201.5 217 201.5C211.753 201.5 207.5 197.247 207.5 192C207.5 186.753 211.753 182.5 217 182.5C222.247 182.5 226.5 186.753 226.5 192Z" fill="#FFE900" stroke="#9D9D9D"/>
<path d="M214 192.5L216.5 196L220.5 188" stroke="black" stroke-linecap="round" stroke-linejoin="round"/>
<path d="M207.889 182.728L205.086 179.875M226.273 182.888L229.126 180.084M226.113 201.272L228.917 204.125M207.729 201.112L204.876 203.915" stroke="#9D9D9D" stroke-linecap="round" stroke-linejoin="round"/>
<path d="M273.929 84.7685L271.126 81.9155M292.313 84.9289L295.166 82.1253M292.153 103.313L294.957 106.166M273.769 103.153L270.916 105.956" stroke="#9D9D9D" stroke-linecap="round" stroke-linejoin="round"/>
<path d="M270.041 94.0407H266.041M283.041 81.0407V77.0407M296.041 94.0407H300.041M283.041 107.041V111.041" stroke="#9D9D9D" stroke-linecap="round" stroke-linejoin="round"/>
<path d="M64.5 109H22C13.7157 109 7 102.284 7 94V94C7 85.7157 13.7157 79 22 79L221 79C229.284 79 236 85.7157 236 94V94C236 102.284 229.284 109 221 109L80.5 109M64.5 109V123M64.5 109H80.5M80.5 109V140" stroke="#9D9D9D"/>
<path d="M30.5288 92.7644C30.5288 95.0803 29.6637 96.8409 28.2642 98.2452C26.8584 99.6559 24.9133 100.529 22.7644 100.529C18.4763 100.529 15 97.0526 15 92.7644C15 88.4763 18.4763 85 22.7644 85C27.0526 85 30.5288 88.4763 30.5288 92.7644Z" fill="white"/>
<path d="M28.2642 98.2452C29.6637 96.8409 30.5288 95.0803 30.5288 92.7644C30.5288 88.4763 27.0526 85 22.7644 85C18.4763 85 15 88.4763 15 92.7644C15 97.0526 18.4763 100.529 22.7644 100.529C24.9133 100.529 26.8584 99.6559 28.2642 98.2452ZM28.2642 98.2452C28.2642 98.2452 29.25 100.529 34 102.173" stroke="#9D9D9D" stroke-linecap="round"/>
<rect x="20.5" y="250.5" width="7" height="7" fill="#FDBD39" stroke="#9D9D9D"/>
<rect x="27.0499" y="271" width="7" height="7" transform="rotate(-45 27.0499 271)" fill="#9D9D9D" stroke="#9D9D9D"/>
<rect x="74.7071" y="145.364" width="8" height="8" transform="rotate(-45 74.7071 145.364)" fill="#FDBD39" stroke="#9D9D9D"/>
<rect x="19.7071" y="438.364" width="8" height="8" transform="rotate(-45 19.7071 438.364)" fill="#FDBD39" stroke="#D9D9D9"/>
<rect x="150.707" y="275.364" width="9" height="9" transform="rotate(-45 150.707 275.364)" fill="#FFE900" stroke="#9D9D9D"/>
<path d="M154.171 440.172L159.828 445.828M154.171 445.828L159.828 440.172" stroke="black" stroke-linecap="round" stroke-linejoin="round"/>
<rect x="199.5" y="225.5" width="34" height="10" rx="1.5" fill="#FFE900" stroke="#D9D9D9"/>
<path d="M277 92.8579C278.415 91.1143 280.575 90 282.995 90C285.421 90 287.586 91.1198 289 92.8707" stroke="black" stroke-linecap="round"/>
<path d="M279.058 94.7798C279.953 93.5815 281.383 92.8057 282.994 92.8057C284.604 92.8057 286.034 93.5815 286.929 94.7798" stroke="black" stroke-linecap="round"/>
<path d="M281.169 96.6686C281.532 96.0369 282.214 95.6114 282.995 95.6114C283.776 95.6114 284.457 96.0369 284.82 96.6686" stroke="black" stroke-linecap="round"/>
<path d="M283.695 97.7157C283.695 98.1031 283.381 98.4172 282.993 98.4172C282.606 98.4172 282.292 98.1031 282.292 97.7157C282.292 97.3283 282.606 97.0143 282.993 97.0143C283.381 97.0143 283.695 97.3283 283.695 97.7157Z" fill="black"/>
<rect x="163" y="337" width="35" height="12" rx="6" transform="rotate(90 163 337)" fill="#FFE900"/>
<path d="M157.003 363V348M157.003 348C157.003 348 156.575 348.951 155.614 349.978C154.652 351.004 154.043 351.237 154.043 351.237M157.003 348C157.003 348 157.773 349.334 158.411 349.978C159.04 350.612 160 351.237 160 351.237" stroke="black" stroke-width="0.5" stroke-linecap="square"/>
<path d="M96.6562 378.955L137.944 369.043L140.5 377.5L150 375.5L161.25 421.347L109.799 433.7L96.6562 378.955Z" fill="#FFE900"/>
<path d="M104.103 387.581L123.794 382.853M126.97 382.091L133.004 380.642M104.789 390.439L110.823 388.99M113.999 388.228L119.716 386.855M124.48 385.712L144.171 380.984M105.475 393.298L119.926 389.828L134.377 386.359M140.093 384.986L144.857 383.843M106.314 396.791L112.348 395.342M115.524 394.58L121.241 393.207M126.005 392.064L145.696 387.336M107.152 400.285L113.187 398.836M116.363 398.074L146.535 390.83M108.067 404.096L127.759 399.369M130.935 398.606L147.45 394.641M109.059 408.225L148.441 398.77M110.126 412.671L129.817 407.944M132.993 407.181L149.509 403.216M111.194 417.118L117.228 415.669M120.404 414.906L150.576 407.663M112.185 421.246L121.395 419.035M127.112 417.663L131.876 416.519" stroke="black"/>
<path d="M137.944 369.043L150.001 375.5L140.079 377.936L137.944 369.043Z" fill="#BCAC05"/>
<path d="M99.8835 365.856C101.901 366.301 97.6711 377.282 97.6711 377.282C97.6711 377.282 105.677 367.836 107.02 369.685C108.363 371.533 97.9142 377.572 97.9142 377.572C97.9142 377.572 110.019 375.611 109.959 377.761C109.9 379.911 97.9142 377.95 97.9142 377.95C97.9142 377.95 108.586 384.072 107.02 385.838C105.454 387.603 97.6711 378.24 97.6711 378.24C97.6711 378.24 101.581 389.539 99.5766 390.135C97.5721 390.731 97.2987 378.306 97.2987 378.306C97.2987 378.306 93.5375 389.841 91.1124 388.642C88.6873 387.444 96.9712 378.116 96.9712 378.116C96.9712 378.116 86.683 383.993 85.5878 382.058C84.4926 380.124 96.8419 377.761 96.8419 377.761C96.8419 377.761 84.8208 375.65 85.5878 373.464C86.3548 371.278 96.9712 377.406 96.9712 377.406C96.9712 377.406 89.2831 368.11 91.1124 366.88C92.9417 365.65 97.2987 377.217 97.2987 377.217C97.2987 377.217 97.8657 365.411 99.8835 365.856Z" fill="#303030"/>
</svg>
