<svg width="258" height="323" viewBox="0 0 258 323" fill="none" xmlns="http://www.w3.org/2000/svg">
<g clip-path="url(#clip0_461_1199)">
<path d="M4.46484 -46.597C4.46484 -57.3666 13.1953 -66.097 23.9648 -66.097H285.965C296.734 -66.097 305.465 -57.3666 305.465 -46.597V153.575C305.465 164.345 296.734 173.075 285.965 173.075H23.9648C13.1953 173.075 4.46484 164.345 4.46484 153.575V-46.597Z" fill="#EFEFEF" stroke="#9D9D9D"/>
<rect x="10.1992" y="-63.144" width="290.737" height="230.326" rx="14.5" fill="white" stroke="#9D9D9D"/>
<rect x="15.3799" y="70.6362" width="280" height="91" rx="10" fill="#FFF503"/>
<path d="M78.3799 82.1362H239.88M78.3799 92.1362H163.38M185.88 92.1362H253.88M78.3799 103.136H115.88M132.88 103.136H146.88M157.38 103.136H211.88M78.3799 119.636H93.8799M103.38 119.636H115.88M123.38 119.636H144.38" stroke="black" stroke-linecap="round" stroke-linejoin="round"/>
<rect x="21.3799" y="76.6362" width="45" height="45" rx="12" fill="white"/>
<rect x="189.88" y="133.136" width="96" height="21" rx="10.5" fill="#FDBD39" stroke="#9D9D9D"/>
<path d="M199.88 143.636H257.88" stroke="black" stroke-linecap="round" stroke-linejoin="round"/>
<path d="M26.5 135L27.7348 138.8H31.7308L28.498 141.149L29.7328 144.95L26.5 142.601L23.2672 144.95L24.502 141.149L21.2692 138.8H25.2652L26.5 135Z" fill="#FDBD39" stroke="#9D9D9D"/>
<path d="M41.5 135L42.7348 138.8H46.7308L43.498 141.149L44.7328 144.95L41.5 142.601L38.2672 144.95L39.502 141.149L36.2692 138.8H40.2652L41.5 135Z" fill="#FDBD39" stroke="#9D9D9D"/>
<path d="M56.5 135L57.7348 138.8H61.7308L58.498 141.149L59.7328 144.95L56.5 142.601L53.2672 144.95L54.502 141.149L51.2692 138.8H55.2652L56.5 135Z" fill="#FDBD39" stroke="#9D9D9D"/>
<path d="M71.5 135L72.7348 138.8H76.7308L73.498 141.149L74.7328 144.95L71.5 142.601L68.2672 144.95L69.502 141.149L66.2692 138.8H70.2652L71.5 135Z" fill="#FDBD39" stroke="#9D9D9D"/>
<path d="M86.5 135L87.7348 138.8H91.7308L88.498 141.149L89.7328 144.95L86.5 142.601L83.2672 144.95L84.502 141.149L81.2692 138.8H85.2652L86.5 135Z" fill="white" stroke="#9D9D9D"/>
<rect x="15.8799" y="-24.5" width="279" height="90" rx="9.5" fill="white" stroke="#9D9D9D"/>
<path d="M78.3799 -13.5H239.88M78.3799 -3.5H163.38M185.88 -3.5H253.88M78.3799 7.5H115.88M132.88 7.5H146.88M157.38 7.5H211.88M78.3799 24H93.8799M103.38 24H115.88M123.38 24H144.38" stroke="#9D9D9D" stroke-linecap="round" stroke-linejoin="round"/>
<rect x="21.8799" y="-18.5" width="44" height="44" rx="11.5" fill="white" stroke="#9D9D9D"/>
<rect x="189.88" y="37.5" width="96" height="21" rx="10.5" fill="white" stroke="#9D9D9D"/>
<path d="M199.88 48H257.88" stroke="#9D9D9D" stroke-linecap="round" stroke-linejoin="round"/>
<path d="M26.5 39.3638L27.7348 43.1642H31.7308L28.498 45.513L29.7328 49.3134L26.5 46.9646L23.2672 49.3134L24.502 45.513L21.2692 43.1642H25.2652L26.5 39.3638Z" fill="#D9D9D9"/>
<path d="M38.5 39.3638L39.7348 43.1642H43.7308L40.498 45.513L41.7328 49.3134L38.5 46.9646L35.2672 49.3134L36.502 45.513L33.2692 43.1642H37.2652L38.5 39.3638Z" fill="#D9D9D9"/>
<path d="M50.5 39.3638L51.7348 43.1642H55.7308L52.498 45.513L53.7328 49.3134L50.5 46.9646L47.2672 49.3134L48.502 45.513L45.2692 43.1642H49.2652L50.5 39.3638Z" fill="#D9D9D9"/>
<path d="M62.5 39.3638L63.7348 43.1642H67.7308L64.498 45.513L65.7328 49.3134L62.5 46.9646L59.2672 49.3134L60.502 45.513L57.2692 43.1642H61.2652L62.5 39.3638Z" fill="#D9D9D9"/>
<path d="M74.5 40.9818L75.2593 43.3187L75.3716 43.6642H75.7348H78.192L76.2041 45.1084L75.9102 45.322L76.0225 45.6675L76.7818 48.0043L74.7939 46.5601L74.5 46.3465L74.2061 46.5601L72.2182 48.0043L72.9775 45.6675L73.0898 45.322L72.7959 45.1084L70.808 43.6642H73.2652H73.6284L73.7407 43.3187L74.5 40.9818Z" stroke="#D9D9D9"/>
<circle cx="42" cy="237" r="9.5" stroke="#9D9D9D"/>
<circle cx="42" cy="237" r="4.5" fill="#9D9D9D" stroke="#9D9D9D"/>
<circle cx="242" cy="268" r="9.5" stroke="#9D9D9D"/>
<circle cx="242" cy="268" r="4.5" fill="#9D9D9D" stroke="#9D9D9D"/>
<path d="M27 148.5V237.75C27 246.034 33.7157 253 42 253H145.5H242.5C250.784 253 257.5 259.716 257.5 268V308.5H232M257.5 294.5H248" stroke="#9D9D9D" stroke-linecap="round" stroke-linejoin="round"/>
<path d="M129.898 253C129.898 258.467 125.466 262.899 119.999 262.899C114.532 262.899 110.1 258.467 110.1 253C110.1 247.533 114.532 243.101 119.999 243.101C125.466 243.101 129.898 247.533 129.898 253Z" fill="#FFE900" stroke="#9D9D9D"/>
<path d="M116.879 253.52L119.479 257.16L123.638 248.84" stroke="black" stroke-linecap="round" stroke-linejoin="round"/>
<path d="M110.524 243.358L107.609 240.391M129.642 243.525L132.609 240.609M129.475 262.642L132.391 265.609M110.357 262.475L107.391 265.391" stroke="#9D9D9D" stroke-linecap="round" stroke-linejoin="round"/>
<path d="M106.481 253H102.321M120 239.481V235.322M133.518 253H137.678M120 266.519V270.678" stroke="#9D9D9D" stroke-linecap="round" stroke-linejoin="round"/>
<path d="M232.588 308.5C232.588 311.31 230.31 313.588 227.5 313.588C224.69 313.588 222.412 311.31 222.412 308.5C222.412 305.69 224.69 303.412 227.5 303.412C230.31 303.412 232.588 305.69 232.588 308.5Z" fill="#FDBD39" stroke="#9D9D9D"/>
<path d="M247.588 294.5C247.588 297.31 245.31 299.588 242.5 299.588C239.69 299.588 237.412 297.31 237.412 294.5C237.412 291.69 239.69 289.412 242.5 289.412C245.31 289.412 247.588 291.69 247.588 294.5Z" fill="#FFE900" stroke="#9D9D9D"/>
<rect x="163" y="247" width="35" height="12" rx="6" fill="#FFE900"/>
<path d="M189 252.997H174M174 252.997C174 252.997 174.951 253.425 175.978 254.386C177.004 255.348 177.237 255.957 177.237 255.957M174 252.997C174 252.997 175.334 252.227 175.978 251.589C176.612 250.96 177.237 250 177.237 250" stroke="black" stroke-width="0.5" stroke-linecap="square"/>
<path d="M47.6475 93.4534L46.2783 92.152C48.5174 90.2438 52.7149 89.2556 54.5338 89C54.1915 90.5303 54.0707 92.423 52.4532 98.0212L47.6475 93.4534Z" fill="white"/>
<path d="M54.5338 89C54.5338 89 48.7429 91.1366 47.6475 93.4534M54.5338 89C52.7149 89.2556 48.5174 90.2438 46.2783 92.152L47.6475 93.4534M54.5338 89C54.1915 90.5303 54.0707 92.423 52.4532 98.0212L47.6475 93.4534" stroke="black" stroke-width="0.5"/>
<path d="M47.6475 93.4534L46.2783 92.152C48.5174 90.2438 52.7149 89.2556 54.5338 89C54.5338 89 48.7429 91.1366 47.6475 93.4534Z" fill="#636363" stroke="black" stroke-width="0.5"/>
<path d="M38.0748 93.2946L39.4707 92.0513C37.188 90.2285 32.9086 89.2844 31.0542 89.0403C31.4032 90.5021 31.7207 92.6525 33.3697 98.0005L38.0748 93.2946Z" fill="white"/>
<path d="M31.0542 89.0403C31.0542 89.0403 36.9581 91.0814 38.0748 93.2946M31.0542 89.0403C32.9086 89.2844 37.188 90.2285 39.4707 92.0513L38.0748 93.2946M31.0542 89.0403C31.4032 90.5021 31.7207 92.6525 33.3697 98.0005L38.0748 93.2946" stroke="black" stroke-width="0.5"/>
<path d="M38.0748 93.2745L39.4707 92.0312C37.188 90.2084 32.9086 89.2644 31.0542 89.0202C31.0542 89.0202 36.9581 91.0613 38.0748 93.2745Z" fill="#636363" stroke="black" stroke-width="0.5"/>
<path d="M54.9536 99.9535C54.9536 104.859 48.4435 109.155 42.8256 109.155C37.2078 109.155 30.0951 105.883 30.288 99.9535C30.3279 98.728 32.221 101.423 33.0062 98.3628C34.0226 95.4304 35.6245 93.1324 38.6979 91.9087C39.9738 91.4007 41.3668 91.1212 42.8256 91.1212C47.8516 91.1212 51.1938 93.9785 52.5575 98.3628C53.5346 101.504 54.9536 98.8602 54.9536 99.9535Z" fill="white" stroke="black" stroke-width="0.5"/>
<path d="M47.1913 99.6514C47.1913 100.476 46.6805 101.032 46.1728 101.032C45.6651 101.032 45.1543 100.476 45.1543 99.6514C45.1543 98.8266 45.6651 98.2705 46.1728 98.2705C46.6805 98.2705 47.1913 98.8266 47.1913 99.6514Z" fill="black" stroke="black" stroke-width="0.5"/>
<path d="M40.1484 99.6516C40.1484 100.476 39.6375 101.033 39.1298 101.033C38.6222 101.033 38.1113 100.476 38.1113 99.6516C38.1113 98.8268 38.6222 98.2707 39.1298 98.2707C39.6375 98.2707 40.1484 98.8268 40.1484 99.6516Z" fill="black" stroke="black" stroke-width="0.5"/>
<path d="M34.9144 104.266C32.8168 104.038 27.4974 104.137 23 106.358M36.1282 105.452C33.5515 105.379 28.0916 105.65 26.865 107.323" stroke="black" stroke-width="0.5"/>
<path d="M49.7686 104.186C51.7696 103.955 56.8443 104.056 61.1348 106.305M48.6107 105.388C51.0688 105.313 56.2775 105.588 57.4476 107.283" stroke="black" stroke-width="0.5"/>
<path d="M42.6241 102.179C42.5257 102.178 42.4042 102.22 42.2808 102.28C41.985 102.424 42.0931 102.802 42.316 103.044C42.4973 103.187 42.7529 103.19 42.9369 103.05L42.945 103.044C43.1598 102.836 43.278 102.491 43.023 102.336C42.8785 102.248 42.7332 102.181 42.6241 102.179Z" fill="black" stroke="black" stroke-width="0.5" stroke-linecap="round"/>
<path d="M33.3008 97.5776C34.1554 95.4508 35.6197 93.5484 37.6188 92.3827" stroke="black" stroke-width="0.5" stroke-linecap="round"/>
<path d="M52.4795 98.0003C51.3433 95.8735 50.3451 93.3469 47.6873 92.1813" stroke="black" stroke-width="0.5" stroke-linecap="round"/>
<path d="M41.4261 104.524C41.2155 104.922 41.5661 105.406 42.01 105.33C42.3929 105.264 42.5939 104.726 42.5939 104.726M42.5939 104.726C42.5939 104.726 42.9564 105.33 43.3792 105.33C43.7771 105.33 44.0425 104.868 43.8423 104.524M42.5939 104.726V104.283" stroke="black" stroke-width="0.5" stroke-linecap="round"/>
</g>
<defs>
<clipPath id="clip0_461_1199">
<rect width="258" height="323" fill="white"/>
</clipPath>
</defs>
</svg>
