<svg width="218" height="312" viewBox="0 0 218 312" fill="none" xmlns="http://www.w3.org/2000/svg">
<g filter="url(#filter0_d_815_550)">
<rect x="9" y="9" width="200" height="294" rx="10" fill="white" shape-rendering="crispEdges"/>
<g opacity="0.5" filter="url(#filter1_b_815_550)">
<path d="M9 19C9 13.4772 13.4772 9 19 9H199C204.523 9 209 13.4772 209 19V227H9V19Z" fill="white"/>
<path d="M9 19C9 13.4772 13.4772 9 19 9H199C204.523 9 209 13.4772 209 19V227H9V19Z" fill="url(#paint0_radial_815_550)"/>
<path d="M9 19C9 13.4772 13.4772 9 19 9H199C204.523 9 209 13.4772 209 19V227H9V19Z" fill="url(#paint1_angular_815_550)" style="mix-blend-mode:difference"/>
<path d="M9 19C9 13.4772 13.4772 9 19 9H199C204.523 9 209 13.4772 209 19V227H9V19Z" fill="url(#paint2_angular_815_550)" style="mix-blend-mode:screen"/>
</g>
<g filter="url(#filter2_b_815_550)">
<rect x="9" y="9" width="200" height="294" rx="10" fill="black" fill-opacity="0.03"/>
</g>
<path d="M9 227H209V293C209 298.523 204.523 303 199 303H19C13.4772 303 9 298.523 9 293V227Z" fill="white"/>
<g style="mix-blend-mode:overlay">
<rect x="79" y="89" width="59" height="59" rx="10" fill="white"/>
<path d="M129.15 89H87.85C82.9633 89.0049 79.0049 92.9633 79 97.85V139.15C79.0049 144.037 82.9633 147.995 87.85 148H129.15C134.037 147.995 137.995 144.037 138 139.15V97.85C137.995 92.9634 134.037 89.0049 129.15 89ZM123.25 106.7C118.353 106.7 114.825 113.122 111.084 119.922C106.683 127.925 102.131 136.2 93.75 136.2C92.9676 136.2 92.2173 135.889 91.664 135.336C91.1108 134.783 90.8 134.032 90.8 133.25C90.8 132.468 91.1108 131.717 91.664 131.164C92.2173 130.611 92.9676 130.3 93.75 130.3C98.647 130.3 102.175 123.878 105.916 117.078C110.317 109.075 114.869 100.8 123.25 100.8C124.032 100.8 124.783 101.111 125.336 101.664C125.889 102.217 126.2 102.968 126.2 103.75C126.2 104.532 125.889 105.283 125.336 105.836C124.783 106.389 124.032 106.7 123.25 106.7Z" fill="#070707"/>
</g>
<path d="M22.4 65V51H26.4V61.6H33V65H22.4ZM39.207 65.3C35.287 65.3 33.607 63.56 33.607 59.54C33.607 55.48 35.287 53.76 39.207 53.76C43.127 53.76 44.807 55.48 44.807 59.54C44.807 63.56 43.127 65.3 39.207 65.3ZM39.207 62.42C40.607 62.42 41.207 61.54 41.207 59.54C41.207 57.52 40.607 56.64 39.207 56.64C37.807 56.64 37.207 57.52 37.207 59.54C37.207 61.54 37.807 62.42 39.207 62.42ZM46.3702 61.86V54.82H44.4102V54.08H46.3702V50.56H50.0102V54.08H52.3702V54.82H50.0102V61.5C50.0102 61.94 50.2302 62.18 50.7502 62.18C50.9702 62.18 51.3502 62.1 51.5102 62.06L52.0702 64.82C51.7302 64.92 51.0702 65.1 50.1702 65.16C47.4702 65.3 46.3302 64.14 46.3702 61.86ZM53.9678 61.86V54.82H52.0078V54.08H53.9678V50.56H57.6078V54.08H59.9678V54.82H57.6078V61.5C57.6078 61.94 57.8278 62.18 58.3478 62.18C58.5678 62.18 58.9478 62.1 59.1078 62.06L59.6678 64.82C59.3278 64.92 58.6678 65.1 57.7678 65.16C55.0678 65.3 53.9278 64.14 53.9678 61.86ZM61.0517 51.02C61.0517 49.78 62.1317 48.78 63.4717 48.78C64.7917 48.78 65.8917 49.78 65.8917 51.02C65.8917 52.26 64.7917 53.26 63.4717 53.26C62.1317 53.26 61.0517 52.26 61.0517 51.02ZM65.3517 65H61.4717V54.08H65.3517V65ZM74.0302 61.56H77.6502C77.2102 64.24 75.1902 65.3 72.2702 65.3C68.7302 65.3 66.7502 63.62 66.7502 59.56C66.7502 55.52 68.3902 53.78 72.2102 53.78C76.0302 53.78 77.6902 55.52 77.6902 59.56V60.7H70.3902C70.3902 62.24 71.0102 62.92 72.2702 62.92C73.2502 62.92 73.8502 62.5 74.0302 61.56ZM70.4102 58.66H74.0502C74.0502 57.1 73.5102 56.22 72.2302 56.22C70.9502 56.22 70.4102 57.1 70.4102 58.66ZM93.6678 51.02C93.6678 49.78 94.7478 48.78 96.0878 48.78C97.4078 48.78 98.5078 49.78 98.5078 51.02C98.5078 52.26 97.4078 53.26 96.0878 53.26C94.7478 53.26 93.6678 52.26 93.6678 51.02ZM86.3078 65V54.82H84.5078V54.08H86.3078V53.76C86.3078 51.06 87.8478 49.76 90.2278 49.76C91.2278 49.76 92.2678 49.96 92.7278 50.06L92.1678 52.88C91.8678 52.8 91.4478 52.74 91.1678 52.74C90.4278 52.74 90.2278 53.08 90.2278 53.58V54.08H92.6678V54.82H90.2278V65H86.3078ZM98.0278 65H94.1478V54.08H98.0278V65ZM100.047 65V50.6H103.907V65H100.047ZM112.546 61.56H116.166C115.726 64.24 113.706 65.3 110.786 65.3C107.246 65.3 105.266 63.62 105.266 59.56C105.266 55.52 106.906 53.78 110.726 53.78C114.546 53.78 116.206 55.52 116.206 59.56V60.7H108.906C108.906 62.24 109.526 62.92 110.786 62.92C111.766 62.92 112.366 62.5 112.546 61.56ZM108.926 58.66H112.566C112.566 57.1 112.026 56.22 110.746 56.22C109.466 56.22 108.926 57.1 108.926 58.66Z" fill="black"/>
<path d="M21.33 42L24.02 34.7H25.38L28.16 42H27.38L24.79 35.18L25.2 35.39H24.15L24.58 35.18L22.09 42H21.33ZM22.77 39.68L23.02 38.99H26.41L26.67 39.68H22.77ZM29.4602 42V36.71H30.0602V38.93H29.9402C29.9402 38.4367 30.0136 38.0133 30.1602 37.66C30.3069 37.3067 30.5269 37.0333 30.8202 36.84C31.1136 36.6467 31.4836 36.55 31.9302 36.55H31.9602C32.6269 36.55 33.1236 36.76 33.4502 37.18C33.7769 37.5933 33.9402 38.1767 33.9402 38.93V42H33.2002V38.77C33.2002 38.31 33.0736 37.94 32.8202 37.66C32.5669 37.38 32.2136 37.24 31.7602 37.24C31.2936 37.24 30.9169 37.3867 30.6302 37.68C30.3502 37.9667 30.2102 38.3467 30.2102 38.82V42H29.4602ZM36.0879 42V36.71H36.8279V42H36.0879ZM35.2379 37.31V36.71H36.8279V37.31H35.2379ZM36.2479 35.73C36.0679 35.73 35.9312 35.6833 35.8379 35.59C35.7512 35.49 35.7079 35.3667 35.7079 35.22C35.7079 35.0733 35.7512 34.9533 35.8379 34.86C35.9312 34.76 36.0679 34.71 36.2479 34.71C36.4279 34.71 36.5612 34.76 36.6479 34.86C36.7346 34.9533 36.7779 35.0733 36.7779 35.22C36.7779 35.3667 36.7346 35.49 36.6479 35.59C36.5612 35.6833 36.4279 35.73 36.2479 35.73ZM38.7962 42V36.7H39.3962V38.93H39.2762C39.2762 38.4433 39.3428 38.0233 39.4762 37.67C39.6162 37.3167 39.8228 37.0433 40.0962 36.85C40.3695 36.65 40.7162 36.55 41.1362 36.55H41.1662C41.5862 36.55 41.9328 36.6467 42.2062 36.84C42.4795 37.0333 42.6828 37.3067 42.8162 37.66C42.9495 38.0133 43.0162 38.4367 43.0162 38.93H42.7762C42.7762 38.4433 42.8428 38.0233 42.9762 37.67C43.1162 37.3167 43.3228 37.0433 43.5962 36.85C43.8762 36.65 44.2262 36.55 44.6462 36.55H44.6762C45.0962 36.55 45.4428 36.6467 45.7162 36.84C45.9962 37.0333 46.2028 37.3067 46.3362 37.66C46.4762 38.0133 46.5462 38.4367 46.5462 38.93V42H45.7962V38.76C45.7962 38.2933 45.6828 37.9233 45.4562 37.65C45.2295 37.3767 44.9028 37.24 44.4762 37.24C44.0362 37.24 43.6862 37.3833 43.4262 37.67C43.1728 37.95 43.0462 38.33 43.0462 38.81V42H42.2962V38.76C42.2962 38.2933 42.1828 37.9233 41.9562 37.65C41.7295 37.3767 41.4028 37.24 40.9762 37.24C40.5362 37.24 40.1862 37.3833 39.9262 37.67C39.6728 37.95 39.5462 38.33 39.5462 38.81V42H38.7962ZM51.6353 42V40.41H51.5153V38.53C51.5153 38.1367 51.412 37.8367 51.2053 37.63C50.9986 37.4167 50.6786 37.31 50.2453 37.31C50.0453 37.31 49.842 37.3133 49.6353 37.32C49.4353 37.3267 49.242 37.3367 49.0553 37.35C48.8753 37.3567 48.7153 37.3667 48.5753 37.38V36.72C48.722 36.7067 48.872 36.6933 49.0253 36.68C49.1786 36.6667 49.3353 36.66 49.4953 36.66C49.662 36.6533 49.822 36.65 49.9753 36.65C50.5153 36.65 50.9486 36.7167 51.2753 36.85C51.6086 36.9833 51.852 37.1933 52.0053 37.48C52.1586 37.76 52.2353 38.1333 52.2353 38.6V42H51.6353ZM49.8453 42.14C49.472 42.14 49.142 42.0733 48.8553 41.94C48.5686 41.8067 48.3453 41.6133 48.1853 41.36C48.032 41.1067 47.9553 40.8 47.9553 40.44C47.9553 40.0867 48.0353 39.7867 48.1953 39.54C48.362 39.2933 48.5986 39.1067 48.9053 38.98C49.2186 38.8467 49.5953 38.78 50.0353 38.78H51.5853V39.35H49.9853C49.5653 39.35 49.242 39.4533 49.0153 39.66C48.7953 39.86 48.6853 40.1233 48.6853 40.45C48.6853 40.7833 48.802 41.05 49.0353 41.25C49.2686 41.4433 49.5853 41.54 49.9853 41.54C50.232 41.54 50.4686 41.4967 50.6953 41.41C50.922 41.3167 51.112 41.1633 51.2653 40.95C51.4186 40.73 51.502 40.43 51.5153 40.05L51.7353 40.36C51.7086 40.7533 51.6153 41.0833 51.4553 41.35C51.2953 41.61 51.0786 41.8067 50.8053 41.94C50.532 42.0733 50.212 42.14 49.8453 42.14ZM56.3387 42.17C55.892 42.17 55.502 42.0933 55.1687 41.94C54.842 41.78 54.5687 41.5667 54.3487 41.3C54.1287 41.0267 53.962 40.7267 53.8487 40.4C53.742 40.0733 53.6887 39.7433 53.6887 39.41V39.27C53.6887 38.93 53.742 38.6 53.8487 38.28C53.962 37.9533 54.1287 37.66 54.3487 37.4C54.5687 37.1333 54.842 36.9233 55.1687 36.77C55.502 36.61 55.8853 36.53 56.3187 36.53C56.7587 36.53 57.1487 36.61 57.4887 36.77C57.8353 36.93 58.1153 37.1567 58.3287 37.45C58.542 37.7433 58.6687 38.09 58.7087 38.49H57.9887C57.9287 38.1233 57.7553 37.82 57.4687 37.58C57.1887 37.3333 56.8053 37.21 56.3187 37.21C55.8987 37.21 55.5487 37.3067 55.2687 37.5C54.9953 37.6867 54.7887 37.9433 54.6487 38.27C54.5087 38.59 54.4387 38.9467 54.4387 39.34C54.4387 39.7267 54.5087 40.0867 54.6487 40.42C54.7887 40.7467 54.9987 41.01 55.2787 41.21C55.5587 41.4033 55.912 41.5 56.3387 41.5C56.6653 41.5 56.9487 41.4433 57.1887 41.33C57.4353 41.21 57.632 41.05 57.7787 40.85C57.932 40.65 58.022 40.43 58.0487 40.19H58.7687C58.742 40.59 58.6153 40.94 58.3887 41.24C58.1687 41.5333 57.882 41.7633 57.5287 41.93C57.1753 42.09 56.7787 42.17 56.3387 42.17ZM60.4238 42V36.71H61.1638V42H60.4238ZM59.5738 37.31V36.71H61.1638V37.31H59.5738ZM60.5838 35.73C60.4038 35.73 60.2672 35.6833 60.1738 35.59C60.0872 35.49 60.0438 35.3667 60.0438 35.22C60.0438 35.0733 60.0872 34.9533 60.1738 34.86C60.2672 34.76 60.4038 34.71 60.5838 34.71C60.7638 34.71 60.8972 34.76 60.9838 34.86C61.0705 34.9533 61.1138 35.0733 61.1138 35.22C61.1138 35.3667 61.0705 35.49 60.9838 35.59C60.8972 35.6833 60.7638 35.73 60.5838 35.73ZM65.5021 42.17C65.0488 42.17 64.6488 42.0933 64.3021 41.94C63.9621 41.78 63.6721 41.57 63.4321 41.31C63.1988 41.0433 63.0188 40.7467 62.8921 40.42C62.7721 40.0933 62.7121 39.76 62.7121 39.42V39.28C62.7121 38.94 62.7754 38.6067 62.9021 38.28C63.0288 37.9467 63.2121 37.65 63.4521 37.39C63.6921 37.13 63.9821 36.9233 64.3221 36.77C64.6688 36.61 65.0621 36.53 65.5021 36.53C65.9488 36.53 66.3421 36.61 66.6821 36.77C67.0288 36.9233 67.3221 37.13 67.5621 37.39C67.8021 37.65 67.9821 37.9467 68.1021 38.28C68.2288 38.6067 68.2921 38.94 68.2921 39.28V39.42C68.2921 39.76 68.2321 40.0933 68.1121 40.42C67.9921 40.7467 67.8121 41.0433 67.5721 41.31C67.3388 41.57 67.0488 41.78 66.7021 41.94C66.3554 42.0933 65.9554 42.17 65.5021 42.17ZM65.5021 41.5C65.9421 41.5 66.3121 41.4033 66.6121 41.21C66.9188 41.01 67.1521 40.75 67.3121 40.43C67.4721 40.1033 67.5521 39.7433 67.5521 39.35C67.5521 38.95 67.4688 38.59 67.3021 38.27C67.1421 37.9433 66.9088 37.6867 66.6021 37.5C66.2954 37.3067 65.9288 37.21 65.5021 37.21C65.0821 37.21 64.7188 37.3067 64.4121 37.5C64.1054 37.6867 63.8688 37.9433 63.7021 38.27C63.5421 38.59 63.4621 38.95 63.4621 39.35C63.4621 39.7433 63.5421 40.1033 63.7021 40.43C63.8621 40.75 64.0921 41.01 64.3921 41.21C64.6988 41.4033 65.0688 41.5 65.5021 41.5ZM69.8216 42V36.71H70.4216V38.93H70.3016C70.3016 38.4367 70.3749 38.0133 70.5216 37.66C70.6682 37.3067 70.8882 37.0333 71.1816 36.84C71.4749 36.6467 71.8449 36.55 72.2916 36.55H72.3216C72.9882 36.55 73.4849 36.76 73.8116 37.18C74.1382 37.5933 74.3016 38.1767 74.3016 38.93V42H73.5616V38.77C73.5616 38.31 73.4349 37.94 73.1816 37.66C72.9282 37.38 72.5749 37.24 72.1216 37.24C71.6549 37.24 71.2782 37.3867 70.9916 37.68C70.7116 37.9667 70.5716 38.3467 70.5716 38.82V42H69.8216ZM78.3792 42.17C77.9259 42.17 77.5326 42.0933 77.1992 41.94C76.8659 41.78 76.5926 41.57 76.3792 41.31C76.1659 41.0433 76.0059 40.7467 75.8992 40.42C75.7992 40.0933 75.7492 39.7567 75.7492 39.41V39.27C75.7492 38.93 75.7992 38.5967 75.8992 38.27C76.0059 37.9433 76.1659 37.65 76.3792 37.39C76.5926 37.13 76.8592 36.9233 77.1792 36.77C77.5059 36.61 77.8859 36.53 78.3192 36.53C78.8726 36.53 79.3326 36.6533 79.6992 36.9C80.0726 37.1467 80.3526 37.4633 80.5392 37.85C80.7259 38.23 80.8192 38.64 80.8192 39.08V39.47H76.0892V38.89H80.2992L80.1092 39.18C80.1092 38.7867 80.0392 38.4433 79.8992 38.15C79.7659 37.85 79.5659 37.6167 79.2992 37.45C79.0392 37.2767 78.7126 37.19 78.3192 37.19C77.9059 37.19 77.5626 37.2867 77.2892 37.48C77.0159 37.6733 76.8092 37.93 76.6692 38.25C76.5359 38.57 76.4692 38.9333 76.4692 39.34C76.4692 39.74 76.5359 40.1067 76.6692 40.44C76.8092 40.7667 77.0192 41.0267 77.2992 41.22C77.5859 41.4133 77.9459 41.51 78.3792 41.51C78.8392 41.51 79.2126 41.4067 79.4992 41.2C79.7859 40.9867 79.9626 40.7367 80.0292 40.45H80.7292C80.6626 40.8033 80.5226 41.11 80.3092 41.37C80.0959 41.6233 79.8259 41.82 79.4992 41.96C79.1726 42.1 78.7992 42.17 78.3792 42.17ZM83.933 42.15C83.253 42.15 82.7296 42.0033 82.363 41.71C81.9963 41.41 81.8096 41.01 81.803 40.51H82.503C82.5163 40.7633 82.6296 40.9933 82.843 41.2C83.063 41.4067 83.4263 41.51 83.933 41.51C84.4063 41.51 84.7596 41.4133 84.993 41.22C85.233 41.02 85.353 40.78 85.353 40.5C85.353 40.24 85.253 40.04 85.053 39.9C84.8596 39.7533 84.5763 39.66 84.203 39.62L83.603 39.56C83.123 39.5067 82.733 39.36 82.433 39.12C82.1396 38.8733 81.993 38.5367 81.993 38.11C81.993 37.7967 82.073 37.5233 82.233 37.29C82.393 37.0567 82.6163 36.8767 82.903 36.75C83.1963 36.6167 83.5396 36.55 83.933 36.55C84.4996 36.55 84.9596 36.6833 85.313 36.95C85.673 37.2167 85.8563 37.5967 85.863 38.09H85.163C85.1563 37.8367 85.0496 37.6233 84.843 37.45C84.6363 37.2767 84.333 37.19 83.933 37.19C83.5196 37.19 83.2096 37.28 83.003 37.46C82.803 37.64 82.703 37.86 82.703 38.12C82.703 38.34 82.7796 38.5233 82.933 38.67C83.0863 38.81 83.3263 38.8967 83.653 38.93L84.253 38.99C84.7863 39.05 85.2196 39.2033 85.553 39.45C85.893 39.6967 86.063 40.05 86.063 40.51C86.063 40.8233 85.973 41.1067 85.793 41.36C85.6196 41.6067 85.373 41.8 85.053 41.94C84.733 42.08 84.3596 42.15 83.933 42.15ZM92.1199 42.17C91.6733 42.17 91.2833 42.0933 90.9499 41.94C90.6233 41.78 90.3499 41.5667 90.1299 41.3C89.9099 41.0267 89.7433 40.7267 89.6299 40.4C89.5233 40.0733 89.4699 39.7433 89.4699 39.41V39.27C89.4699 38.93 89.5233 38.6 89.6299 38.28C89.7433 37.9533 89.9099 37.66 90.1299 37.4C90.3499 37.1333 90.6233 36.9233 90.9499 36.77C91.2833 36.61 91.6666 36.53 92.0999 36.53C92.5399 36.53 92.9299 36.61 93.2699 36.77C93.6166 36.93 93.8966 37.1567 94.1099 37.45C94.3233 37.7433 94.4499 38.09 94.4899 38.49H93.7699C93.7099 38.1233 93.5366 37.82 93.2499 37.58C92.9699 37.3333 92.5866 37.21 92.0999 37.21C91.6799 37.21 91.3299 37.3067 91.0499 37.5C90.7766 37.6867 90.5699 37.9433 90.4299 38.27C90.2899 38.59 90.2199 38.9467 90.2199 39.34C90.2199 39.7267 90.2899 40.0867 90.4299 40.42C90.5699 40.7467 90.7799 41.01 91.0599 41.21C91.3399 41.4033 91.6933 41.5 92.1199 41.5C92.4466 41.5 92.7299 41.4433 92.9699 41.33C93.2166 41.21 93.4133 41.05 93.5599 40.85C93.7133 40.65 93.8033 40.43 93.8299 40.19H94.5499C94.5233 40.59 94.3966 40.94 94.1699 41.24C93.9499 41.5333 93.6633 41.7633 93.3099 41.93C92.9566 42.09 92.5599 42.17 92.1199 42.17ZM98.2951 42.17C97.8417 42.17 97.4417 42.0933 97.0951 41.94C96.7551 41.78 96.4651 41.57 96.2251 41.31C95.9917 41.0433 95.8117 40.7467 95.6851 40.42C95.5651 40.0933 95.5051 39.76 95.5051 39.42V39.28C95.5051 38.94 95.5684 38.6067 95.6951 38.28C95.8217 37.9467 96.0051 37.65 96.2451 37.39C96.4851 37.13 96.7751 36.9233 97.1151 36.77C97.4617 36.61 97.8551 36.53 98.2951 36.53C98.7417 36.53 99.1351 36.61 99.4751 36.77C99.8217 36.9233 100.115 37.13 100.355 37.39C100.595 37.65 100.775 37.9467 100.895 38.28C101.022 38.6067 101.085 38.94 101.085 39.28V39.42C101.085 39.76 101.025 40.0933 100.905 40.42C100.785 40.7467 100.605 41.0433 100.365 41.31C100.132 41.57 99.8417 41.78 99.4951 41.94C99.1484 42.0933 98.7484 42.17 98.2951 42.17ZM98.2951 41.5C98.7351 41.5 99.1051 41.4033 99.4051 41.21C99.7117 41.01 99.9451 40.75 100.105 40.43C100.265 40.1033 100.345 39.7433 100.345 39.35C100.345 38.95 100.262 38.59 100.095 38.27C99.9351 37.9433 99.7017 37.6867 99.3951 37.5C99.0884 37.3067 98.7217 37.21 98.2951 37.21C97.8751 37.21 97.5117 37.3067 97.2051 37.5C96.8984 37.6867 96.6617 37.9433 96.4951 38.27C96.3351 38.59 96.2551 38.95 96.2551 39.35C96.2551 39.7433 96.3351 40.1033 96.4951 40.43C96.6551 40.75 96.8851 41.01 97.1851 41.21C97.4917 41.4033 97.8617 41.5 98.2951 41.5ZM102.615 42V36.71H103.215V38.93H103.095C103.095 38.4367 103.168 38.0133 103.315 37.66C103.461 37.3067 103.681 37.0333 103.975 36.84C104.268 36.6467 104.638 36.55 105.085 36.55H105.115C105.781 36.55 106.278 36.76 106.605 37.18C106.931 37.5933 107.095 38.1767 107.095 38.93V42H106.355V38.77C106.355 38.31 106.228 37.94 105.975 37.66C105.721 37.38 105.368 37.24 104.915 37.24C104.448 37.24 104.071 37.3867 103.785 37.68C103.505 37.9667 103.365 38.3467 103.365 38.82V42H102.615Z" fill="black"/>
<path d="M28.118 259L30.018 252H33.678L35.378 259H33.318L33.038 257.7H30.518L30.218 259H28.118ZM30.798 256.4H32.788L31.848 252.55H31.788L30.798 256.4ZM36.2078 259V252H38.2078V257.3H41.5078V259H36.2078ZM42.8129 259V253.6H40.7129V252H46.9129V253.6H44.8129V259H42.8129ZM47.1652 255.49C47.1652 252.98 48.2752 251.91 50.8652 251.91C53.4552 251.91 54.5652 252.98 54.5652 255.49C54.5652 258 53.4552 259.07 50.8652 259.07C48.2752 259.07 47.1652 258 47.1652 255.49ZM49.1652 255.49C49.1652 256.98 49.7452 257.62 50.8652 257.62C51.9852 257.62 52.5652 256.98 52.5652 255.49C52.5652 254 51.9852 253.36 50.8652 253.36C49.7452 253.36 49.1652 254 49.1652 255.49Z" fill="black"/>
<path d="M32.5146 263.962C32.64 263.455 33.36 263.455 33.4854 263.962L34.3754 267.559C34.4338 267.795 34.6538 267.955 34.8965 267.938L38.5927 267.672C39.1132 267.635 39.3357 268.32 38.8927 268.596L35.7466 270.554C35.54 270.682 35.4559 270.941 35.5475 271.166L36.9419 274.6C37.1382 275.083 36.5557 275.506 36.1565 275.17L33.3221 272.783C33.136 272.627 32.864 272.627 32.6779 272.783L29.8435 275.17C29.4443 275.506 28.8618 275.083 29.0581 274.6L30.4525 271.166C30.5441 270.941 30.46 270.682 30.2534 270.554L27.1073 268.596C26.6643 268.32 26.8868 267.635 27.4073 267.672L31.1035 267.938C31.3462 267.955 31.5662 267.795 31.6246 267.559L32.5146 263.962Z" fill="black"/>
<path d="M50.5146 263.962C50.64 263.455 51.36 263.455 51.4854 263.962L52.3754 267.559C52.4338 267.795 52.6538 267.955 52.8965 267.938L56.5927 267.672C57.1132 267.635 57.3357 268.32 56.8927 268.596L53.7466 270.554C53.54 270.682 53.4559 270.941 53.5475 271.166L54.9419 274.6C55.1382 275.083 54.5557 275.506 54.1565 275.17L51.3221 272.783C51.136 272.627 50.864 272.627 50.6779 272.783L47.8435 275.17C47.4443 275.506 46.8618 275.083 47.0581 274.6L48.4525 271.166C48.5441 270.941 48.46 270.682 48.2534 270.554L45.1073 268.596C44.6643 268.32 44.8868 267.635 45.4073 267.672L49.1035 267.938C49.3462 267.955 49.5662 267.795 49.6246 267.559L50.5146 263.962Z" fill="black"/>
<path d="M68.5146 263.962C68.64 263.455 69.36 263.455 69.4854 263.962L70.3754 267.559C70.4338 267.795 70.6538 267.955 70.8965 267.938L74.5927 267.672C75.1132 267.635 75.3357 268.32 74.8927 268.596L71.7466 270.554C71.54 270.682 71.4559 270.941 71.5475 271.166L72.9419 274.6C73.1382 275.083 72.5557 275.506 72.1565 275.17L69.3221 272.783C69.136 272.627 68.864 272.627 68.6779 272.783L65.8435 275.17C65.4443 275.506 64.8618 275.083 65.0581 274.6L66.4525 271.166C66.5441 270.941 66.46 270.682 66.2534 270.554L63.1073 268.596C62.6643 268.32 62.8868 267.635 63.4073 267.672L67.1035 267.938C67.3462 267.955 67.5662 267.795 67.6246 267.559L68.5146 263.962Z" fill="black"/>
<path d="M86.5146 263.962C86.64 263.455 87.36 263.455 87.4854 263.962L88.3754 267.559C88.4338 267.795 88.6538 267.955 88.8965 267.938L92.5927 267.672C93.1132 267.635 93.3357 268.32 92.8927 268.596L89.7466 270.554C89.54 270.682 89.4559 270.941 89.5475 271.166L90.9419 274.6C91.1382 275.083 90.5557 275.506 90.1565 275.17L87.3221 272.783C87.136 272.627 86.864 272.627 86.6779 272.783L83.8435 275.17C83.4443 275.506 82.8618 275.083 83.0581 274.6L84.4525 271.166C84.5441 270.941 84.46 270.682 84.2534 270.554L81.1073 268.596C80.6643 268.32 80.8868 267.635 81.4073 267.672L85.1035 267.938C85.3462 267.955 85.5662 267.795 85.6246 267.559L86.5146 263.962Z" fill="black"/>
<path d="M104.515 263.962C104.64 263.455 105.36 263.455 105.485 263.962L106.375 267.559C106.434 267.795 106.654 267.955 106.897 267.938L110.593 267.672C111.113 267.635 111.336 268.32 110.893 268.596L107.747 270.554C107.54 270.682 107.456 270.941 107.547 271.166L108.942 274.6C109.138 275.083 108.556 275.506 108.157 275.17L105.322 272.783C105.136 272.627 104.864 272.627 104.678 272.783L101.843 275.17C101.444 275.506 100.862 275.083 101.058 274.6L102.453 271.166C102.544 270.941 102.46 270.682 102.253 270.554L99.1073 268.596C98.6643 268.32 98.8868 267.635 99.4073 267.672L103.103 267.938C103.346 267.955 103.566 267.795 103.625 267.559L104.515 263.962Z" fill="#E3E3E3"/>
</g>
<defs>
<filter id="filter0_d_815_550" x="0" y="0" width="218" height="312" filterUnits="userSpaceOnUse" color-interpolation-filters="sRGB">
<feFlood flood-opacity="0" result="BackgroundImageFix"/>
<feColorMatrix in="SourceAlpha" type="matrix" values="0 0 0 0 0 0 0 0 0 0 0 0 0 0 0 0 0 0 127 0" result="hardAlpha"/>
<feOffset/>
<feGaussianBlur stdDeviation="4.5"/>
<feComposite in2="hardAlpha" operator="out"/>
<feColorMatrix type="matrix" values="0 0 0 0 0 0 0 0 0 0 0 0 0 0 0 0 0 0 0.25 0"/>
<feBlend mode="normal" in2="BackgroundImageFix" result="effect1_dropShadow_815_550"/>
<feBlend mode="normal" in="SourceGraphic" in2="effect1_dropShadow_815_550" result="shape"/>
</filter>
<filter id="filter1_b_815_550" x="-191" y="-191" width="600" height="618" filterUnits="userSpaceOnUse" color-interpolation-filters="sRGB">
<feFlood flood-opacity="0" result="BackgroundImageFix"/>
<feGaussianBlur in="BackgroundImageFix" stdDeviation="100"/>
<feComposite in2="SourceAlpha" operator="in" result="effect1_backgroundBlur_815_550"/>
<feBlend mode="normal" in="SourceGraphic" in2="effect1_backgroundBlur_815_550" result="shape"/>
</filter>
<filter id="filter2_b_815_550" x="8" y="8" width="202" height="296" filterUnits="userSpaceOnUse" color-interpolation-filters="sRGB">
<feFlood flood-opacity="0" result="BackgroundImageFix"/>
<feGaussianBlur in="BackgroundImageFix" stdDeviation="0.5"/>
<feComposite in2="SourceAlpha" operator="in" result="effect1_backgroundBlur_815_550"/>
<feBlend mode="normal" in="SourceGraphic" in2="effect1_backgroundBlur_815_550" result="shape"/>
</filter>
<radialGradient id="paint0_radial_815_550" cx="0" cy="0" r="1" gradientUnits="userSpaceOnUse" gradientTransform="translate(109 9) rotate(90) scale(218 200)">
<stop stop-color="#2AD0CA"/>
<stop offset="0.214671" stop-color="#E1F664"/>
<stop offset="0.430651" stop-color="#FEB0FE"/>
<stop offset="0.612883" stop-color="#ABB3FC"/>
<stop offset="0.795116" stop-color="#5DF7A4"/>
<stop offset="1" stop-color="#58C4F6"/>
</radialGradient>
<radialGradient id="paint1_angular_815_550" cx="0" cy="0" r="1" gradientUnits="userSpaceOnUse" gradientTransform="translate(109 118) rotate(90) scale(109 100)">
<stop stop-color="white"/>
<stop offset="0.107961"/>
<stop offset="0.234375" stop-color="white"/>
<stop offset="0.380208"/>
<stop offset="0.473958" stop-color="white"/>
<stop offset="0.579153"/>
<stop offset="0.712449" stop-color="white"/>
<stop offset="0.85414"/>
<stop offset="1" stop-color="white"/>
</radialGradient>
<radialGradient id="paint2_angular_815_550" cx="0" cy="0" r="1" gradientUnits="userSpaceOnUse" gradientTransform="translate(109 118) rotate(90) scale(109 100)">
<stop stop-color="white"/>
<stop offset="0.107961"/>
<stop offset="0.234375" stop-color="white"/>
<stop offset="0.380208"/>
<stop offset="0.473958" stop-color="white"/>
<stop offset="0.579153"/>
<stop offset="0.712449" stop-color="white"/>
<stop offset="0.85414"/>
<stop offset="1" stop-color="white"/>
</radialGradient>
</defs>
</svg>
