<svg width="204" height="180" viewBox="0 0 204 180" fill="none" xmlns="http://www.w3.org/2000/svg">
<path d="M91 180V154.5M91 0V135.5M91 135.5C90.8333 127.333 85.2 110.6 64 109C42.8 107.4 36.5 91.6667 36 84M91 135.5V154.5M91 154.5C99.5 149.833 116.5 135.8 116.5 117C116.5 98.2 127.167 87.1667 132.5 84" stroke="black"/>
<circle cx="140" cy="76" r="16" fill="#5B40FF"/>
<circle cx="33" cy="69" r="16" fill="#FDBD39"/>
<circle cx="62" cy="109" r="2" fill="#FDBD39"/>
<circle cx="91" cy="132" r="2" fill="#FDBD39"/>
<circle cx="122" cy="96" r="2" fill="#5B40FF"/>
<circle cx="91" cy="154" r="2" fill="#5B40FF"/>
<path d="M26.64 75.3C25.3733 75.3 24.4133 74.8933 23.76 74.08C23.1067 73.2667 22.78 72.1667 22.78 70.78V64.5H23.86V71.02C23.86 71.9933 24.1133 72.7867 24.62 73.4C25.14 74 25.8867 74.3 26.86 74.3C27.8467 74.3 28.6267 73.9867 29.2 73.36C29.7867 72.7333 30.08 71.9133 30.08 70.9V64.5H31.14V75H30.3V70.76H30.54C30.54 71.6533 30.3933 72.4467 30.1 73.14C29.82 73.82 29.4 74.3533 28.84 74.74C28.28 75.1133 27.5667 75.3 26.7 75.3H26.64ZM33.9661 75L37.9861 69.46L38.0661 69.88L34.2461 64.5H35.4261L38.4661 68.8H38.7061L41.6061 64.5H42.7261L39.1861 69.68L39.0861 69.28L43.3461 75H42.1661L38.7061 70.32H38.4461L35.0861 75H33.9661Z" fill="black"/>
<path d="M136.64 82.3C135.373 82.3 134.413 81.8933 133.76 81.08C133.107 80.2667 132.78 79.1667 132.78 77.78V71.5H133.86V78.02C133.86 78.9933 134.113 79.7867 134.62 80.4C135.14 81 135.887 81.3 136.86 81.3C137.847 81.3 138.627 80.9867 139.2 80.36C139.787 79.7333 140.08 78.9133 140.08 77.9V71.5H141.14V82H140.3V77.76H140.54C140.54 78.6533 140.393 79.4467 140.1 80.14C139.82 80.82 139.4 81.3533 138.84 81.74C138.28 82.1133 137.567 82.3 136.7 82.3H136.64ZM145.866 82V71.5H146.946V82H145.866ZM144.126 72.42V71.5H146.946V72.42H144.126ZM145.966 69.3C145.686 69.3 145.473 69.2267 145.326 69.08C145.179 68.92 145.106 68.72 145.106 68.48C145.106 68.2267 145.179 68.02 145.326 67.86C145.473 67.7 145.693 67.62 145.986 67.62C146.266 67.62 146.479 67.7 146.626 67.86C146.773 68.02 146.846 68.2267 146.846 68.48C146.846 68.72 146.773 68.92 146.626 69.08C146.493 69.2267 146.273 69.3 145.966 69.3Z" fill="white"/>
<path d="M176.651 1.62641L183.023 9.32507L183.319 9.68286L183.697 9.4139L191.844 3.62665L191.777 13.6197L191.774 14.0842L192.237 14.1215L202.198 14.925L195.722 22.5367L195.421 22.8904L195.752 23.2166L202.866 30.2349L193.013 31.9035L192.555 31.9811L192.599 32.4434L193.537 42.3926L184.917 37.3374L184.516 37.1025L184.252 37.4847L178.576 45.7094L175.222 36.2958L175.066 35.8584L174.618 35.9816L164.983 38.6334L168.464 29.2661L168.626 28.8308L168.204 28.6373L159.118 24.4754L167.807 19.5375L168.21 19.308L168.011 18.8884L163.727 9.86023L173.556 11.6622L174.013 11.7459L174.13 11.2965L176.651 1.62641Z" fill="#5B40FF" stroke="black"/>
<path d="M179 27.19C178.473 27.19 178.01 27.0867 177.61 26.88C177.21 26.6733 176.9 26.37 176.68 25.97C176.46 25.57 176.35 25.08 176.35 24.5L176.35 24.18L177.76 24.18L177.76 24.62C177.76 25.0067 177.873 25.3133 178.1 25.54C178.327 25.76 178.623 25.87 178.99 25.87C179.363 25.87 179.66 25.76 179.88 25.54C180.107 25.3133 180.22 25.0067 180.22 24.62L180.22 20.75L181.64 20.75L181.64 24.5C181.64 25.08 181.53 25.57 181.31 25.97C181.09 26.37 180.783 26.6733 180.39 26.88C179.997 27.0867 179.533 27.19 179 27.19ZM177.24 20.95L177.24 19.7L181.64 19.7L181.64 20.95L177.24 20.95ZM183.206 27L183.206 21.57L184.306 21.57L184.306 23.87L184.276 23.87C184.276 23.09 184.443 22.5 184.776 22.1C185.109 21.7 185.599 21.5 186.246 21.5L186.446 21.5L186.446 22.71L186.066 22.71C185.599 22.71 185.236 22.8367 184.976 23.09C184.723 23.3367 184.596 23.6967 184.596 24.17L184.596 27L183.206 27Z" fill="white"/>
</svg>
