<svg width="204" height="180" viewBox="0 0 204 180" fill="none" xmlns="http://www.w3.org/2000/svg">
<rect x="91" width="91" height="100" fill="#F24E1E"/>
<rect width="89" height="84" transform="matrix(1 0 0 -1 93 180)" fill="#5B40FF"/>
<circle cx="91" cy="65" r="30.5" fill="url(#paint0_linear_1044_2932)" stroke="black"/>
<g clip-path="url(#clip0_1044_2932)">
<rect width="145" height="105" rx="52.5" transform="matrix(1 0 0 -1 37 201)" fill="#5B40FF"/>
<circle cx="91" cy="148" r="48" fill="url(#paint1_linear_1044_2932)"/>
</g>
<path d="M142 103.5L115 84.5" stroke="black"/>
<path d="M176.651 1.62641L183.023 9.32507L183.319 9.68286L183.697 9.4139L191.844 3.62665L191.777 13.6197L191.774 14.0842L192.237 14.1215L202.198 14.925L195.722 22.5367L195.421 22.8904L195.752 23.2166L202.866 30.2349L193.013 31.9035L192.555 31.9811L192.599 32.4434L193.537 42.3926L184.917 37.3374L184.516 37.1025L184.252 37.4847L178.576 45.7094L175.222 36.2958L175.066 35.8584L174.618 35.9816L164.983 38.6334L168.464 29.2661L168.626 28.8308L168.204 28.6373L159.118 24.4754L167.807 19.5375L168.21 19.308L168.011 18.8884L163.727 9.86023L173.556 11.6622L174.013 11.7459L174.13 11.2965L176.651 1.62641Z" fill="#5B40FF" stroke="black"/>
<path d="M179 27.2964C178.473 27.2964 178.01 27.1931 177.61 26.9864C177.21 26.7798 176.9 26.4764 176.68 26.0764C176.46 25.6764 176.35 25.1864 176.35 24.6064L176.35 24.2864L177.76 24.2864L177.76 24.7264C177.76 25.1131 177.873 25.4198 178.1 25.6464C178.327 25.8664 178.623 25.9764 178.99 25.9764C179.363 25.9764 179.66 25.8664 179.88 25.6464C180.107 25.4198 180.22 25.1131 180.22 24.7264L180.22 20.8564L181.64 20.8564L181.64 24.6064C181.64 25.1864 181.53 25.6764 181.31 26.0764C181.09 26.4764 180.783 26.7798 180.39 26.9864C179.997 27.1931 179.533 27.2964 179 27.2964ZM177.24 21.0564L177.24 19.8064L181.64 19.8064L181.64 21.0564L177.24 21.0564ZM183.206 27.1064L183.206 21.6764L184.306 21.6764L184.306 23.9764L184.276 23.9764C184.276 23.1964 184.443 22.6064 184.776 22.2064C185.109 21.8064 185.599 21.6064 186.246 21.6064L186.446 21.6064L186.446 22.8164L186.066 22.8164C185.599 22.8164 185.236 22.9431 184.976 23.1964C184.723 23.4431 184.596 23.8031 184.596 24.2764L184.596 27.1064L183.206 27.1064Z" fill="white"/>
<defs>
<linearGradient id="paint0_linear_1044_2932" x1="60" y1="65" x2="122" y2="65" gradientUnits="userSpaceOnUse">
<stop stop-color="#FDBD39"/>
<stop offset="0.500127" stop-color="#FDBD39" stop-opacity="0.901042"/>
<stop offset="0.500608" stop-color="white"/>
<stop offset="1" stop-color="white"/>
</linearGradient>
<linearGradient id="paint1_linear_1044_2932" x1="43" y1="148" x2="139" y2="148" gradientUnits="userSpaceOnUse">
<stop stop-color="white"/>
<stop offset="0.499973" stop-color="white"/>
<stop offset="0.499973"/>
<stop offset="1"/>
</linearGradient>
<clipPath id="clip0_1044_2932">
<rect width="145" height="84" fill="white" transform="translate(37 96)"/>
</clipPath>
</defs>
</svg>
