<svg width="205" height="180" viewBox="0 0 205 180" fill="none" xmlns="http://www.w3.org/2000/svg">
<path d="M177.651 1.62641L184.023 9.32507L184.319 9.68286L184.697 9.4139L192.844 3.62665L192.777 13.6197L192.774 14.0842L193.237 14.1215L203.198 14.925L196.722 22.5367L196.421 22.8904L196.752 23.2166L203.866 30.2349L194.013 31.9035L193.555 31.9811L193.599 32.4434L194.537 42.3926L185.917 37.3374L185.516 37.1025L185.252 37.4847L179.576 45.7094L176.222 36.2958L176.066 35.8584L175.618 35.9816L165.983 38.6334L169.464 29.2661L169.626 28.8308L169.204 28.6373L160.118 24.4754L168.807 19.5375L169.21 19.308L169.011 18.8884L164.727 9.86023L174.556 11.6622L175.013 11.7459L175.13 11.2965L177.651 1.62641Z" fill="#5B40FF" stroke="black"/>
<path d="M180 27.2964C179.473 27.2964 179.01 27.1931 178.61 26.9864C178.21 26.7798 177.9 26.4764 177.68 26.0764C177.46 25.6764 177.35 25.1864 177.35 24.6064L177.35 24.2864L178.76 24.2864L178.76 24.7264C178.76 25.1131 178.873 25.4198 179.1 25.6464C179.327 25.8664 179.623 25.9764 179.99 25.9764C180.363 25.9764 180.66 25.8664 180.88 25.6464C181.107 25.4198 181.22 25.1131 181.22 24.7264L181.22 20.8564L182.64 20.8564L182.64 24.6064C182.64 25.1864 182.53 25.6764 182.31 26.0764C182.09 26.4764 181.783 26.7798 181.39 26.9864C180.997 27.1931 180.533 27.2964 180 27.2964ZM178.24 21.0564L178.24 19.8064L182.64 19.8064L182.64 21.0564L178.24 21.0564ZM184.206 27.1064L184.206 21.6764L185.306 21.6764L185.306 23.9764L185.276 23.9764C185.276 23.1964 185.443 22.6064 185.776 22.2064C186.109 21.8064 186.599 21.6064 187.246 21.6064L187.446 21.6064L187.446 22.8164L187.066 22.8164C186.599 22.8164 186.236 22.9431 185.976 23.1964C185.723 23.4431 185.596 23.8031 185.596 24.2764L185.596 27.1064L184.206 27.1064Z" fill="white"/>
<path d="M99.5 132.427V132.927H100H102.229C108.134 132.927 112.893 131.51 116.455 128.624C120.059 125.704 121.812 121.105 121.812 114.949V101.306C121.812 99.5691 122.339 98.3675 123.316 97.5963C124.322 96.8026 125.856 96.3662 128 96.3662H128.5V95.8662V83.2038V82.7038H128C125.856 82.7038 124.322 82.2675 123.316 81.4738C122.339 80.7025 121.812 79.501 121.812 77.7643V64.3885C121.812 58.2346 120.06 53.663 116.453 50.801C112.892 47.916 108.133 46.5 102.229 46.5H100H99.5V47V58.8599V59.3599H100H102.229C104.126 59.3599 105.349 59.8212 106.044 60.6159L106.05 60.6223L106.056 60.6286C106.83 61.4548 107.258 62.7092 107.258 64.4777V78.2102C107.258 81.7775 108.042 84.5121 109.71 86.3084C111.283 88.0021 113.548 89.0024 116.443 89.3586V89.7029C113.55 90.0051 111.284 90.9776 109.71 92.6725C108.042 94.4688 107.258 97.2034 107.258 100.771V114.949C107.258 116.653 106.833 117.88 106.056 118.709L106.045 118.721L106.034 118.733C105.337 119.58 104.118 120.067 102.229 120.067H100H99.5V120.567V132.427Z" stroke="black"/>
<path d="M110.5 132.427V132.927H111H113.229C119.134 132.927 123.893 131.51 127.455 128.624C131.059 125.704 132.812 121.105 132.812 114.949V101.306C132.812 99.5691 133.339 98.3675 134.316 97.5963C135.322 96.8026 136.856 96.3662 139 96.3662H139.5V95.8662V83.2038V82.7038H139C136.856 82.7038 135.322 82.2675 134.316 81.4738C133.339 80.7025 132.812 79.501 132.812 77.7643V64.3885C132.812 58.2346 131.06 53.663 127.453 50.801C123.892 47.916 119.133 46.5 113.229 46.5H111H110.5V47V58.8599V59.3599H111H113.229C115.126 59.3599 116.349 59.8212 117.044 60.6159L117.05 60.6223L117.056 60.6286C117.83 61.4548 118.258 62.7092 118.258 64.4777V78.2102C118.258 81.7775 119.042 84.5121 120.71 86.3084C122.283 88.0021 124.548 89.0024 127.443 89.3586V89.7029C124.55 90.0051 122.284 90.9776 120.71 92.6725C119.042 94.4688 118.258 97.2034 118.258 100.771V114.949C118.258 116.653 117.833 117.88 117.056 118.709L117.045 118.721L117.034 118.733C116.337 119.58 115.118 120.067 113.229 120.067H111H110.5V120.567V132.427Z" fill="#FDBD39" stroke="black"/>
<path d="M121.5 132.427V132.927H122H124.229C130.134 132.927 134.893 131.51 138.455 128.624C142.059 125.704 143.812 121.105 143.812 114.949V101.306C143.812 99.5691 144.339 98.3675 145.316 97.5963C146.322 96.8026 147.856 96.3662 150 96.3662H150.5V95.8662V83.2038V82.7038H150C147.856 82.7038 146.322 82.2675 145.316 81.4738C144.339 80.7025 143.812 79.501 143.812 77.7643V64.3885C143.812 58.2346 142.06 53.663 138.453 50.801C134.892 47.916 130.133 46.5 124.229 46.5H122H121.5V47V58.8599V59.3599H122H124.229C126.126 59.3599 127.349 59.8212 128.044 60.6159L128.05 60.6223L128.056 60.6286C128.83 61.4548 129.258 62.7092 129.258 64.4777V78.2102C129.258 81.7775 130.042 84.5121 131.71 86.3084C133.283 88.0021 135.548 89.0024 138.443 89.3586V89.7029C135.55 90.0051 133.284 90.9776 131.71 92.6725C130.042 94.4688 129.258 97.2034 129.258 100.771V114.949C129.258 116.653 128.833 117.88 128.056 118.709L128.045 118.721L128.034 118.733C127.337 119.58 126.118 120.067 124.229 120.067H122H121.5V120.567V132.427Z" fill="#F24E1E" stroke="black"/>
<path d="M132.5 132.427V132.927H133H135.229C141.134 132.927 145.893 131.51 149.455 128.624C153.059 125.704 154.812 121.105 154.812 114.949V101.306C154.812 99.5691 155.339 98.3675 156.316 97.5963C157.322 96.8026 158.856 96.3662 161 96.3662H161.5V95.8662V83.2038V82.7038H161C158.856 82.7038 157.322 82.2675 156.316 81.4738C155.339 80.7025 154.812 79.501 154.812 77.7643V64.3885C154.812 58.2346 153.06 53.663 149.453 50.801C145.892 47.916 141.133 46.5 135.229 46.5H133H132.5V47V58.8599V59.3599H133H135.229C137.126 59.3599 138.349 59.8212 139.044 60.6159L139.05 60.6223L139.056 60.6286C139.83 61.4548 140.258 62.7092 140.258 64.4777V78.2102C140.258 81.7775 141.042 84.5121 142.71 86.3084C144.283 88.0021 146.548 89.0024 149.443 89.3586V89.7029C146.55 90.0051 144.284 90.9776 142.71 92.6725C141.042 94.4688 140.258 97.2034 140.258 100.771V114.949C140.258 116.653 139.833 117.88 139.056 118.709L139.045 118.721L139.034 118.733C138.337 119.58 137.118 120.067 135.229 120.067H133H132.5V120.567V132.427Z" fill="#5B40FF" stroke="black"/>
<path d="M143.5 132.427V132.927H144H146.229C152.134 132.927 156.893 131.51 160.455 128.624C164.059 125.704 165.812 121.105 165.812 114.949V101.306C165.812 99.5691 166.339 98.3675 167.316 97.5963C168.322 96.8026 169.856 96.3662 172 96.3662H172.5V95.8662V83.2038V82.7038H172C169.856 82.7038 168.322 82.2675 167.316 81.4738C166.339 80.7025 165.812 79.501 165.812 77.7643V64.3885C165.812 58.2346 164.06 53.663 160.453 50.801C156.892 47.916 152.133 46.5 146.229 46.5H144H143.5V47V58.8599V59.3599H144H146.229C148.126 59.3599 149.349 59.8212 150.044 60.6159L150.05 60.6223L150.056 60.6286C150.83 61.4548 151.258 62.7092 151.258 64.4777V78.2102C151.258 81.7775 152.042 84.5121 153.71 86.3084C155.283 88.0021 157.548 89.0024 160.443 89.3586V89.7029C157.55 90.0051 155.284 90.9776 153.71 92.6725C152.042 94.4688 151.258 97.2034 151.258 100.771V114.949C151.258 116.653 150.833 117.88 150.056 118.709L150.045 118.721L150.034 118.733C149.337 119.58 148.118 120.067 146.229 120.067H144H143.5V120.567V132.427Z" fill="#3596F5" stroke="black"/>
<path d="M154.5 132.427V132.927H155H157.229C163.134 132.927 167.893 131.51 171.455 128.624C175.059 125.704 176.812 121.105 176.812 114.949V101.306C176.812 99.5691 177.339 98.3675 178.316 97.5963C179.322 96.8026 180.856 96.3662 183 96.3662H183.5V95.8662V83.2038V82.7038H183C180.856 82.7038 179.322 82.2675 178.316 81.4738C177.339 80.7025 176.812 79.501 176.812 77.7643V64.3885C176.812 58.2346 175.06 53.663 171.453 50.801C167.892 47.916 163.133 46.5 157.229 46.5H155H154.5V47V58.8599V59.3599H155H157.229C159.126 59.3599 160.349 59.8212 161.044 60.6159L161.05 60.6223L161.056 60.6286C161.83 61.4548 162.258 62.7092 162.258 64.4777V78.2102C162.258 81.7775 163.042 84.5121 164.71 86.3084C166.283 88.0021 168.548 89.0024 171.443 89.3586V89.7029C168.55 90.0051 166.284 90.9776 164.71 92.6725C163.042 94.4688 162.258 97.2034 162.258 100.771V114.949C162.258 116.653 161.833 117.88 161.056 118.709L161.045 118.721L161.034 118.733C160.337 119.58 159.118 120.067 157.229 120.067H155H154.5V120.567V132.427Z" fill="#0ACF83" stroke="black"/>
<path d="M84.5 132.427V132.927H84H81.7707C75.8663 132.927 71.1066 131.51 67.5451 128.624C63.941 125.704 62.1879 121.105 62.1879 114.949V101.306C62.1879 99.5691 61.6607 98.3675 60.6838 97.5963C59.6784 96.8026 58.1435 96.3662 56 96.3662H55.5V95.8662V83.2038V82.7038H56C58.1435 82.7038 59.6784 82.2675 60.6838 81.4738C61.6607 80.7025 62.1879 79.501 62.1879 77.7643V64.3885C62.1879 58.2346 63.94 53.663 67.5471 50.801C71.1084 47.916 75.8674 46.5 81.7707 46.5H84H84.5V47V58.8599V59.3599H84H81.7707C79.8738 59.3599 78.6512 59.8212 77.9559 60.6159L77.9503 60.6223L77.9444 60.6286C77.1699 61.4548 76.742 62.7092 76.742 64.4777V78.2102C76.742 81.7775 75.9579 84.5121 74.29 86.3084C72.7172 88.0021 70.4521 89.0024 67.5573 89.3586V89.7029C70.4501 90.0051 72.7161 90.9776 74.29 92.6725C75.9579 94.4688 76.742 97.2034 76.742 100.771V114.949C76.742 116.653 77.1673 117.88 77.9444 118.709L77.9554 118.721L77.9656 118.733C78.6633 119.58 79.8823 120.067 81.7707 120.067H84H84.5V120.567V132.427Z" stroke="black"/>
<path d="M73.5 132.427V132.927H73H70.7707C64.8663 132.927 60.1066 131.51 56.5451 128.624C52.941 125.704 51.1879 121.105 51.1879 114.949V101.306C51.1879 99.5691 50.6607 98.3675 49.6838 97.5963C48.6784 96.8026 47.1435 96.3662 45 96.3662H44.5V95.8662V83.2038V82.7038H45C47.1435 82.7038 48.6784 82.2675 49.6838 81.4738C50.6607 80.7025 51.1879 79.501 51.1879 77.7643V64.3885C51.1879 58.2346 52.94 53.663 56.5471 50.801C60.1084 47.916 64.8674 46.5 70.7707 46.5H73H73.5V47V58.8599V59.3599H73H70.7707C68.8738 59.3599 67.6512 59.8212 66.9559 60.6159L66.9503 60.6223L66.9444 60.6286C66.1699 61.4548 65.742 62.7092 65.742 64.4777V78.2102C65.742 81.7775 64.9579 84.5121 63.29 86.3084C61.7172 88.0021 59.4521 89.0024 56.5573 89.3586V89.7029C59.4501 90.0051 61.7161 90.9776 63.29 92.6725C64.9579 94.4688 65.742 97.2034 65.742 100.771V114.949C65.742 116.653 66.1673 117.88 66.9444 118.709L66.9554 118.721L66.9656 118.733C67.6633 119.58 68.8823 120.067 70.7707 120.067H73H73.5V120.567V132.427Z" fill="#FDBD39" stroke="black"/>
<path d="M62.5 132.427V132.927H62H59.7707C53.8663 132.927 49.1066 131.51 45.5451 128.624C41.941 125.704 40.1879 121.105 40.1879 114.949V101.306C40.1879 99.5691 39.6607 98.3675 38.6838 97.5963C37.6784 96.8026 36.1435 96.3662 34 96.3662H33.5V95.8662V83.2038V82.7038H34C36.1435 82.7038 37.6784 82.2675 38.6838 81.4738C39.6607 80.7025 40.1879 79.501 40.1879 77.7643V64.3885C40.1879 58.2346 41.94 53.663 45.5471 50.801C49.1084 47.916 53.8674 46.5 59.7707 46.5H62H62.5V47V58.8599V59.3599H62H59.7707C57.8738 59.3599 56.6512 59.8212 55.9559 60.6159L55.9503 60.6223L55.9444 60.6286C55.1699 61.4548 54.742 62.7092 54.742 64.4777V78.2102C54.742 81.7775 53.9579 84.5121 52.29 86.3084C50.7172 88.0021 48.4521 89.0024 45.5573 89.3586V89.7029C48.4501 90.0051 50.7161 90.9776 52.29 92.6725C53.9579 94.4688 54.742 97.2034 54.742 100.771V114.949C54.742 116.653 55.1673 117.88 55.9444 118.709L55.9554 118.721L55.9656 118.733C56.6633 119.58 57.8823 120.067 59.7707 120.067H62H62.5V120.567V132.427Z" fill="#F24E1E" stroke="black"/>
<path d="M51.5 132.427V132.927H51H48.7707C42.8663 132.927 38.1066 131.51 34.5451 128.624C30.941 125.704 29.1879 121.105 29.1879 114.949V101.306C29.1879 99.5691 28.6607 98.3675 27.6838 97.5963C26.6784 96.8026 25.1435 96.3662 23 96.3662H22.5V95.8662V83.2038V82.7038H23C25.1435 82.7038 26.6784 82.2675 27.6838 81.4738C28.6607 80.7025 29.1879 79.501 29.1879 77.7643V64.3885C29.1879 58.2346 30.94 53.663 34.5471 50.801C38.1084 47.916 42.8674 46.5 48.7707 46.5H51H51.5V47V58.8599V59.3599H51H48.7707C46.8738 59.3599 45.6512 59.8212 44.9559 60.6159L44.9503 60.6223L44.9444 60.6286C44.1699 61.4548 43.742 62.7092 43.742 64.4777V78.2102C43.742 81.7775 42.9579 84.5121 41.29 86.3084C39.7172 88.0021 37.4521 89.0024 34.5573 89.3586V89.7029C37.4501 90.0051 39.7161 90.9776 41.29 92.6725C42.9579 94.4688 43.742 97.2034 43.742 100.771V114.949C43.742 116.653 44.1673 117.88 44.9444 118.709L44.9554 118.721L44.9656 118.733C45.6633 119.58 46.8823 120.067 48.7707 120.067H51H51.5V120.567V132.427Z" fill="#5B40FF" stroke="black"/>
<path d="M40.5 132.427V132.927H40H37.7707C31.8663 132.927 27.1066 131.51 23.5451 128.624C19.941 125.704 18.1879 121.105 18.1879 114.949V101.306C18.1879 99.5691 17.6607 98.3675 16.6838 97.5963C15.6784 96.8026 14.1435 96.3662 12 96.3662H11.5V95.8662V83.2038V82.7038H12C14.1435 82.7038 15.6784 82.2675 16.6838 81.4738C17.6607 80.7025 18.1879 79.501 18.1879 77.7643V64.3885C18.1879 58.2346 19.94 53.663 23.5471 50.801C27.1084 47.916 31.8674 46.5 37.7707 46.5H40H40.5V47V58.8599V59.3599H40H37.7707C35.8738 59.3599 34.6512 59.8212 33.9559 60.6159L33.9503 60.6223L33.9444 60.6286C33.1699 61.4548 32.742 62.7092 32.742 64.4777V78.2102C32.742 81.7775 31.9579 84.5121 30.29 86.3084C28.7172 88.0021 26.4521 89.0024 23.5573 89.3586V89.7029C26.4501 90.0051 28.7161 90.9776 30.29 92.6725C31.9579 94.4688 32.742 97.2034 32.742 100.771V114.949C32.742 116.653 33.1673 117.88 33.9444 118.709L33.9554 118.721L33.9656 118.733C34.6633 119.58 35.8823 120.067 37.7707 120.067H40H40.5V120.567V132.427Z" fill="#3596F5" stroke="black"/>
<path d="M29.5 132.427V132.927H29H26.7707C20.8663 132.927 16.1066 131.51 12.5451 128.624C8.94097 125.704 7.1879 121.105 7.1879 114.949V101.306C7.1879 99.5691 6.66074 98.3675 5.68381 97.5963C4.67844 96.8026 3.14355 96.3662 1 96.3662H0.5V95.8662V83.2038V82.7038H1C3.14355 82.7038 4.67844 82.2675 5.68381 81.4738C6.66074 80.7025 7.1879 79.501 7.1879 77.7643V64.3885C7.1879 58.2346 8.94004 53.663 12.5471 50.801C16.1084 47.916 20.8674 46.5 26.7707 46.5H29H29.5V47V58.8599V59.3599H29H26.7707C24.8738 59.3599 23.6512 59.8212 22.9559 60.6159L22.9503 60.6223L22.9444 60.6286C22.1699 61.4548 21.742 62.7092 21.742 64.4777V78.2102C21.742 81.7775 20.9579 84.5121 19.29 86.3084C17.7172 88.0021 15.4521 89.0024 12.5573 89.3586V89.7029C15.4501 90.0051 17.7161 90.9776 19.29 92.6725C20.9579 94.4688 21.742 97.2034 21.742 100.771V114.949C21.742 116.653 22.1673 117.88 22.9444 118.709L22.9554 118.721L22.9656 118.733C23.6633 119.58 24.8823 120.067 26.7707 120.067H29H29.5V120.567V132.427Z" fill="#0ACF83" stroke="black"/>
<path d="M83 62H102L101.641 63.4733C101.423 64.3694 100.62 65 99.6979 65H85.3021C84.3798 65 83.5772 64.3694 83.3589 63.4733L83 62Z" stroke="black"/>
<circle cx="92" cy="118" r="2" fill="black"/>
</svg>
