<svg width="204" height="181" viewBox="0 0 204 181" fill="none" xmlns="http://www.w3.org/2000/svg">
<path d="M23 181V132.5M23 0.5V132.5M23 132.5C27.5 130.833 36.4 122.2 36 101C35.5 74.5 31.5 53 53.5 53.5C65.5 53.7727 63.5 69 83.5 69" stroke="black"/>
<circle cx="23" cy="132" r="2" fill="#0ACF83"/>
<circle cx="37" cy="64" r="2" fill="#0ACF83"/>
<path d="M129.881 98.2616C129.663 97.4052 130.18 96.5344 131.037 96.3166L148.482 91.8802C149.338 91.6624 150.209 92.1801 150.427 93.0365L151.806 98.4591L154.702 109.849C154.843 110.402 154.204 110.821 153.752 110.47L151.684 108.862C149.881 107.461 147.532 106.97 145.318 107.533L143.306 108.045L134.584 110.263C133.727 110.481 132.856 109.963 132.639 109.107L129.881 98.2616Z" fill="#0ACF83" stroke="black" stroke-width="0.8"/>
<path d="M135 100L146.5 97M136 104L147.5 101" stroke="white"/>
<path d="M137.316 129.076L137.288 129.288L137.449 129.429L139.646 131.349L134.98 130.672L134.98 130.672L134.966 130.67L132.315 130.376L129.001 130.009C128.123 129.912 127.49 129.121 127.587 128.243L127.958 124.897C128.055 124.019 128.846 123.386 129.724 123.483L136.31 124.213C137.202 124.311 137.838 125.123 137.72 126.012L137.316 129.076Z" fill="#0ACF83" stroke="black" stroke-width="0.8"/>
<path d="M129.894 125.511L135.626 126.111M129.666 127.498L135.398 128.097" stroke="white" stroke-width="0.7"/>
<path d="M146.369 125.943L146.33 126.138L146.153 126.214L143.764 127.243L147.737 128.24L147.744 128.242L147.751 128.244L150.003 128.902L152.585 129.656C153.434 129.903 154.276 129.405 154.467 128.542L155.184 125.308C155.375 124.446 154.842 123.545 153.994 123.298L148.864 121.8C148.005 121.549 147.154 122.064 146.976 122.943L146.369 125.943Z" fill="#6677F8" stroke="black" stroke-width="0.8"/>
<path d="M153.466 125.202L148.609 123.747M153.044 127.142L148.186 125.687" stroke="white" stroke-width="0.7"/>
<rect x="79.1123" y="59.6124" width="4.70453" height="18.6242" transform="rotate(28.1706 79.1123 59.6124)" fill="#5B40FF" stroke="black"/>
<rect width="1.85113" height="12.4362" transform="matrix(-0.881546 -0.472098 -0.472098 0.881546 77.3583 61.8281)" fill="black"/>
<path d="M82.4287 79.4007L81.0553 106.611L70.6659 101.94L76.0381 77.5609L82.4287 79.4007Z" fill="black"/>
<path d="M86.7457 62.4345L86.7627 62.4389L86.78 62.4421L146.78 73.6321L116.68 127.76L76.6627 80.5169L76.6439 80.4946L76.6226 80.4747L75.0759 79.029L84.2234 61.7783L86.7457 62.4345Z" fill="#FDBD39" stroke="black"/>
<path d="M115.518 126.737L146.52 73.1205L148.235 73.3875L116.737 128.138L115.518 126.737Z" fill="#5B40FF" stroke="black"/>
<path d="M176.651 2.62641L183.023 10.3251L183.319 10.6829L183.697 10.4139L191.844 4.62665L191.777 14.6197L191.774 15.0842L192.237 15.1215L202.198 15.925L195.722 23.5367L195.421 23.8904L195.752 24.2166L202.866 31.2349L193.013 32.9035L192.555 32.9811L192.599 33.4434L193.537 43.3926L184.917 38.3374L184.516 38.1025L184.252 38.4847L178.576 46.7094L175.222 37.2958L175.066 36.8584L174.618 36.9816L164.983 39.6334L168.464 30.2661L168.626 29.8308L168.204 29.6373L159.118 25.4754L167.807 20.5375L168.21 20.308L168.011 19.8884L163.727 10.8602L173.556 12.6622L174.013 12.7459L174.13 12.2965L176.651 2.62641Z" fill="#5B40FF" stroke="black"/>
<path d="M179 28.2964C178.473 28.2964 178.01 28.1931 177.61 27.9864C177.21 27.7798 176.9 27.4764 176.68 27.0764C176.46 26.6764 176.35 26.1864 176.35 25.6064L176.35 25.2864L177.76 25.2864L177.76 25.7264C177.76 26.1131 177.873 26.4198 178.1 26.6464C178.327 26.8664 178.623 26.9764 178.99 26.9764C179.363 26.9764 179.66 26.8664 179.88 26.6464C180.107 26.4198 180.22 26.1131 180.22 25.7264L180.22 21.8564L181.64 21.8564L181.64 25.6064C181.64 26.1864 181.53 26.6764 181.31 27.0764C181.09 27.4764 180.783 27.7798 180.39 27.9864C179.997 28.1931 179.533 28.2964 179 28.2964ZM177.24 22.0564L177.24 20.8064L181.64 20.8064L181.64 22.0564L177.24 22.0564ZM183.206 28.1064L183.206 22.6764L184.306 22.6764L184.306 24.9764L184.276 24.9764C184.276 24.1964 184.443 23.6064 184.776 23.2064C185.109 22.8064 185.599 22.6064 186.246 22.6064L186.446 22.6064L186.446 23.8164L186.066 23.8164C185.599 23.8164 185.236 23.9431 184.976 24.1964C184.723 24.4431 184.596 24.8031 184.596 25.2764L184.596 28.1064L183.206 28.1064Z" fill="white"/>
</svg>
