<svg width="204" height="180" viewBox="0 0 204 180" fill="none" xmlns="http://www.w3.org/2000/svg">
<path d="M91 180V154.5M91 0V135.5M91 135.5C90.8333 127.333 85.2 110.6 64 109C42.8 107.4 36.5 91.6667 36 84M91 135.5V154.5M91 154.5C99.5 149.833 116.5 135.8 116.5 117C116.5 98.2 127.167 87.1667 132.5 84" stroke="black"/>
<circle cx="140" cy="76" r="16" fill="#5B40FF"/>
<circle cx="33" cy="69" r="16" fill="#FDBD39"/>
<circle cx="62" cy="109" r="2" fill="#FDBD39"/>
<circle cx="91" cy="132" r="2" fill="#FDBD39"/>
<circle cx="122" cy="96" r="2" fill="#5B40FF"/>
<circle cx="91" cy="154" r="2" fill="#5B40FF"/>
<path d="M26.64 75.3C25.3733 75.3 24.4133 74.8933 23.76 74.08C23.1067 73.2667 22.78 72.1667 22.78 70.78V64.5H23.86V71.02C23.86 71.9933 24.1133 72.7867 24.62 73.4C25.14 74 25.8867 74.3 26.86 74.3C27.8467 74.3 28.6267 73.9867 29.2 73.36C29.7867 72.7333 30.08 71.9133 30.08 70.9V64.5H31.14V75H30.3V70.76H30.54C30.54 71.6533 30.3933 72.4467 30.1 73.14C29.82 73.82 29.4 74.3533 28.84 74.74C28.28 75.1133 27.5667 75.3 26.7 75.3H26.64ZM33.9661 75L37.9861 69.46L38.0661 69.88L34.2461 64.5H35.4261L38.4661 68.8H38.7061L41.6061 64.5H42.7261L39.1861 69.68L39.0861 69.28L43.3461 75H42.1661L38.7061 70.32H38.4461L35.0861 75H33.9661Z" fill="black"/>
<path d="M136.64 82.3C135.373 82.3 134.413 81.8933 133.76 81.08C133.107 80.2667 132.78 79.1667 132.78 77.78V71.5H133.86V78.02C133.86 78.9933 134.113 79.7867 134.62 80.4C135.14 81 135.887 81.3 136.86 81.3C137.847 81.3 138.627 80.9867 139.2 80.36C139.787 79.7333 140.08 78.9133 140.08 77.9V71.5H141.14V82H140.3V77.76H140.54C140.54 78.6533 140.393 79.4467 140.1 80.14C139.82 80.82 139.4 81.3533 138.84 81.74C138.28 82.1133 137.567 82.3 136.7 82.3H136.64ZM145.866 82V71.5H146.946V82H145.866ZM144.126 72.42V71.5H146.946V72.42H144.126ZM145.966 69.3C145.686 69.3 145.473 69.2267 145.326 69.08C145.179 68.92 145.106 68.72 145.106 68.48C145.106 68.2267 145.179 68.02 145.326 67.86C145.473 67.7 145.693 67.62 145.986 67.62C146.266 67.62 146.479 67.7 146.626 67.86C146.773 68.02 146.846 68.2267 146.846 68.48C146.846 68.72 146.773 68.92 146.626 69.08C146.493 69.2267 146.273 69.3 145.966 69.3Z" fill="white"/>
<path d="M176.651 1.62641L183.023 9.32507L183.319 9.68286L183.697 9.4139L191.844 3.62665L191.777 13.6197L191.774 14.0842L192.237 14.1215L202.198 14.925L195.722 22.5367L195.421 22.8904L195.752 23.2166L202.866 30.2349L193.013 31.9035L192.555 31.9811L192.599 32.4434L193.537 42.3926L184.917 37.3374L184.516 37.1025L184.252 37.4847L178.576 45.7094L175.222 36.2958L175.066 35.8584L174.618 35.9816L164.983 38.6334L168.464 29.2661L168.626 28.8308L168.204 28.6373L159.118 24.4754L167.807 19.5375L168.21 19.308L168.011 18.8884L163.727 9.86023L173.556 11.6622L174.013 11.7459L174.13 11.2965L176.651 1.62641Z" fill="#5B40FF" stroke="black"/>
<path d="M171.912 27.1064L171.912 19.8064L173.852 19.8064L175.682 24.1664L175.862 24.1664L177.682 19.8064L179.652 19.8064L179.652 27.1064L178.242 27.1064L178.242 20.8764L178.422 20.8964L176.452 25.6164L175.002 25.6164L173.022 20.8964L173.212 20.8764L173.212 27.1064L171.912 27.1064ZM181.603 27.1064L181.603 21.6764L182.993 21.6764L182.993 27.1064L181.603 27.1064ZM180.843 22.7164L180.843 21.6764L182.993 21.6764L182.993 22.7164L180.843 22.7164ZM182.113 21.0264C181.84 21.0264 181.636 20.9564 181.503 20.8164C181.376 20.6698 181.313 20.4898 181.313 20.2764C181.313 20.0498 181.376 19.8664 181.503 19.7264C181.636 19.5864 181.84 19.5164 182.113 19.5164C182.386 19.5164 182.586 19.5864 182.713 19.7264C182.84 19.8664 182.903 20.0498 182.903 20.2764C182.903 20.4898 182.84 20.6698 182.713 20.8164C182.586 20.9564 182.386 21.0264 182.113 21.0264ZM186.845 27.2864C186.465 27.2864 186.115 27.2164 185.795 27.0764C185.475 26.9364 185.198 26.7398 184.965 26.4864C184.731 26.2331 184.551 25.9398 184.425 25.6064C184.298 25.2664 184.235 24.8998 184.235 24.5064L184.235 24.2964C184.235 23.9098 184.295 23.5464 184.415 23.2064C184.541 22.8664 184.715 22.5698 184.935 22.3164C185.161 22.0631 185.431 21.8664 185.745 21.7264C186.065 21.5798 186.418 21.5064 186.805 21.5064C187.231 21.5064 187.605 21.5998 187.925 21.7864C188.251 21.9664 188.511 22.2398 188.705 22.6064C188.898 22.9731 189.005 23.4331 189.025 23.9864L188.615 23.5064L188.615 19.8064L190.005 19.8064L190.005 27.1064L188.905 27.1064L188.905 24.7964L189.145 24.7964C189.125 25.3498 189.011 25.8131 188.805 26.1864C188.598 26.5531 188.325 26.8298 187.985 27.0164C187.651 27.1964 187.271 27.2864 186.845 27.2864ZM187.155 26.1164C187.428 26.1164 187.678 26.0564 187.905 25.9364C188.131 25.8098 188.311 25.6298 188.445 25.3964C188.585 25.1564 188.655 24.8764 188.655 24.5564L188.655 24.1564C188.655 23.8364 188.585 23.5698 188.445 23.3564C188.305 23.1364 188.121 22.9698 187.895 22.8564C187.668 22.7364 187.421 22.6764 187.155 22.6764C186.855 22.6764 186.588 22.7498 186.355 22.8964C186.128 23.0364 185.948 23.2364 185.815 23.4964C185.688 23.7564 185.625 24.0598 185.625 24.4064C185.625 24.7531 185.691 25.0564 185.825 25.3164C185.958 25.5698 186.138 25.7664 186.365 25.9064C186.598 26.0464 186.861 26.1164 187.155 26.1164Z" fill="white"/>
</svg>
