<svg width="137" height="60" viewBox="0 0 137 60" fill="none" xmlns="http://www.w3.org/2000/svg">
<circle cx="30" cy="30" r="29.5" fill="#EE6723" stroke="black"/>
<path d="M24.4312 35.8832C23.4698 35.8832 22.6532 35.7059 21.9812 35.3512C21.3185 34.9872 20.8145 34.4739 20.4692 33.8112C20.1238 33.1485 19.9512 32.3645 19.9512 31.4592V25.3972H22.2472V31.5432C22.2472 31.9912 22.3312 32.3832 22.4992 32.7192C22.6765 33.0459 22.9238 33.2979 23.2412 33.4752C23.5678 33.6525 23.9645 33.7412 24.4312 33.7412C24.9072 33.7412 25.3038 33.6525 25.6212 33.4752C25.9478 33.2979 26.1952 33.0459 26.3632 32.7192C26.5312 32.3925 26.6152 32.0005 26.6152 31.5432V25.3972H28.9112V31.4592C28.9112 32.3645 28.7385 33.1485 28.3932 33.8112C28.0478 34.4739 27.5438 34.9872 26.8812 35.3512C26.2185 35.7059 25.4018 35.8832 24.4312 35.8832ZM29.8713 35.6172L33.3573 30.1712L33.3853 30.4092L30.1653 25.3972H32.6853L34.6733 28.5892H34.9953L36.9553 25.3972H39.4053L36.1713 30.4372L36.1293 30.2132L39.7273 35.6172H37.1933L34.8693 32.0052H34.5333L32.3213 35.6172H29.8713Z" fill="white"/>
<circle cx="75.5" cy="30" r="25" fill="#FDBD39" stroke="black"/>
<path d="M73.1732 35.4389C72.2118 35.4389 71.3952 35.2615 70.7232 34.9069C70.0605 34.5429 69.5565 34.0295 69.2112 33.3669C68.8658 32.7042 68.6932 31.9202 68.6932 31.0149V24.9529H70.9892V31.0989C70.9892 31.5469 71.0732 31.9389 71.2412 32.2749C71.4185 32.6015 71.6658 32.8535 71.9832 33.0309C72.3098 33.2082 72.7065 33.2969 73.1732 33.2969C73.6492 33.2969 74.0458 33.2082 74.3632 33.0309C74.6898 32.8535 74.9372 32.6015 75.1052 32.2749C75.2732 31.9482 75.3572 31.5562 75.3572 31.0989V24.9529H77.6532V31.0149C77.6532 31.9202 77.4805 32.7042 77.1352 33.3669C76.7898 34.0295 76.2858 34.5429 75.6232 34.9069C74.9605 35.2615 74.1438 35.4389 73.1732 35.4389ZM79.7863 35.1729V24.9529H82.0823V35.1729H79.7863Z" fill="white"/>
<rect x="91.5" y="7.26465" width="45" height="45.4706" rx="22.5" fill="#0ACF83"/>
<path d="M99 30.0792L129 30.0792M129 30.0792C129 30.0792 125.801 31.981 122.35 36.2542C118.899 40.5275 118.114 43.2353 118.114 43.2353M129 30.0792C129 30.0792 124.513 26.6579 122.35 23.8235C120.218 21.0292 118.114 16.7646 118.114 16.7646" stroke="black" stroke-linecap="square"/>
<rect x="91.5" y="7.26465" width="45" height="45.4706" rx="22.5" stroke="black"/>
</svg>
