<svg width="75" height="86" viewBox="0 0 75 86" fill="none" xmlns="http://www.w3.org/2000/svg">
<g id="imgplusdos">
<g id="Group 4534629">
<path id="Rectangle 175" d="M20.1025 42.7499V58.3499C20.1025 67.6835 27.6689 75.2499 37.0025 75.2499V75.2499C46.3362 75.2499 53.9025 67.6835 53.9025 58.3499V27.1499C53.9025 17.8163 46.3362 10.2499 37.0025 10.2499H36.3525C27.3779 10.2499 20.1025 17.5253 20.1025 26.4999V26.4999V34.6249" stroke="black"/>
<path id="Rectangle 176" d="M37.0001 59.65H52.6001C61.9337 59.65 69.5001 52.0836 69.5001 42.75V42.75C69.5001 33.4164 61.9337 25.85 52.6001 25.85H21.4001C12.0665 25.85 4.50012 33.4164 4.50012 42.75V43.4C4.50012 52.3747 11.7755 59.65 20.7501 59.65V59.65H28.8751" stroke="black"/>
</g>
</g>
</svg>
