<svg width="75" height="87" viewBox="0 0 75 87" fill="none" xmlns="http://www.w3.org/2000/svg">
<g id="imgplustres">
<path id="Star 8" d="M40.3846 25.8059L40.634 26.9852L41.2925 25.9757L48.9094 14.2992L46.6719 28.0596L46.4784 29.2494L47.4572 28.5459L58.7777 20.4095L51.7205 32.4324L51.1103 33.4719L52.2772 33.1695L65.7724 29.6719L54.8486 38.3336L53.9041 39.0825L55.1014 39.2221L68.9488 40.8357L55.6337 44.9664L54.4824 45.3235L55.5484 45.8861L67.8779 52.3931L53.9697 51.4348L52.7672 51.352L53.558 52.2617L62.7042 62.7831L50.0814 56.8654L48.99 56.3537L49.3988 57.4876L54.1266 70.6026L44.494 60.5246L43.6611 59.6532L43.6327 60.8583L43.3036 74.7955L37.962 61.9183L37.5001 60.8049L37.0383 61.9183L31.6967 74.7955L31.3676 60.8583L31.3391 59.6532L30.5063 60.5246L20.8736 70.6026L25.6014 57.4876L26.0102 56.3537L24.9188 56.8654L12.296 62.7831L21.4423 52.2617L22.2331 51.352L21.0306 51.4348L7.12239 52.3931L19.4518 45.8861L20.5178 45.3235L19.3666 44.9664L6.05145 40.8357L19.8989 39.2221L21.0961 39.0825L20.1517 38.3336L9.22782 29.6719L22.7231 33.1695L23.8899 33.4719L23.2797 32.4324L16.2225 20.4095L27.543 28.5459L28.5218 29.2494L28.3283 28.0596L26.0909 14.2992L33.7077 25.9757L34.3663 26.9852L34.6157 25.8059L37.5001 12.1665L40.3846 25.8059Z" stroke="black"/>
</g>
</svg>
