<svg width="71" height="87" viewBox="0 0 71 87" fill="none" xmlns="http://www.w3.org/2000/svg">
<g id="Group 4534629">
<path id="Polygon 4" d="M31.603 32.4999C33.3351 29.4999 37.6652 29.4999 39.3973 32.4999L66.244 78.9999C67.9761 81.9999 65.811 85.7499 62.3469 85.7499H8.65335C5.18925 85.7499 3.02419 81.9999 4.75624 78.9999L31.603 32.4999Z" stroke="black"/>
<path id="Polygon 5" d="M31.603 21.4999C33.3351 18.4999 37.6652 18.4999 39.3973 21.4999L66.244 67.9999C67.9761 70.9999 65.811 74.7499 62.3469 74.7499H8.65335C5.18925 74.7499 3.02419 70.9999 4.75624 67.9999L31.603 21.4999Z" stroke="black"/>
<path id="Polygon 6" d="M31.603 8.49987C33.3351 5.49987 37.6652 5.49988 39.3973 8.49988L66.244 54.9999C67.9761 57.9999 65.811 61.7499 62.3469 61.7499H8.65335C5.18925 61.7499 3.02419 57.9999 4.75624 54.9999L31.603 8.49987Z" stroke="black"/>
</g>
</svg>
