<svg width="33" height="22" viewBox="0 0 33 22" fill="none" xmlns="http://www.w3.org/2000/svg">
<path d="M5.01459 12.9818L32.0146 12.9082M32.0146 12.9082C32.0146 12.9082 30.1506 14.0165 28.1392 16.5068C26.1278 18.9971 25.6703 20.5751 25.6703 20.5751M32.0146 12.9082C32.0146 12.9082 29.3997 10.9144 28.1392 9.26257C26.8966 7.63416 25.6703 5.14893 25.6703 5.14893" stroke="black" stroke-linecap="square" stroke-linejoin="round"/>
<path d="M22.6373 6.16777H20.8862V0.251465H22.6373V6.16777ZM20.5109 7.90638C20.5109 7.23095 21.0738 6.6806 21.7617 6.6806C22.4121 6.6806 23 7.23095 23 7.90638C23 8.59433 22.4121 9.14468 21.7617 9.14468C21.0738 9.14468 20.5109 8.59433 20.5109 7.90638Z" fill="black"/>
<path d="M10.007 4.61704C10.007 1.47752 11.3954 0.13916 14.6349 0.13916C17.8745 0.13916 19.2629 1.47752 19.2629 4.61704C19.2629 7.75656 17.8745 9.09492 14.6349 9.09492C11.3954 9.09492 10.007 7.75656 10.007 4.61704ZM12.5086 4.61704C12.5086 6.48074 13.234 7.28125 14.6349 7.28125C16.0358 7.28125 16.7613 6.48074 16.7613 4.61704C16.7613 2.75334 16.0358 1.95283 14.6349 1.95283C13.234 1.95283 12.5086 2.75334 12.5086 4.61704Z" fill="black"/>
<path d="M3.50225 4.00257H8.96826V9.00578H7.01701L7.02952 7.19212H6.86691C6.80437 8.33035 5.87878 9.20591 4.56543 9.25595C1.32585 9.38103 0 7.86755 0 4.62797C0 1.38839 1.38839 0 4.62797 0C7.17961 0 8.45543 0.900579 8.88071 3.00193H6.50418C6.30405 2.21392 5.74119 1.8762 4.62797 1.8762C3.22707 1.8762 2.62669 2.70174 2.62669 4.62797C2.62669 6.55421 3.41469 7.37974 4.81559 7.37974C6.96698 7.37974 6.87942 5.81624 6.87942 4.50289H3.50225V4.00257Z" fill="black"/>
</svg>
