<svg width="30" height="31" viewBox="0 0 30 31" fill="none" xmlns="http://www.w3.org/2000/svg">
<g clip-path="url(#clip0_811_3345)">
<path d="M28.6715 20.8568C28.5858 20.7711 23.0572 15.4568 23.0572 15.4568C23.0572 15.4568 27.2572 10.9997 28.3715 9.88539C28.7144 9.54253 29.0144 9.19967 29.2287 8.7711C30.7715 6.15682 29.8715 2.81396 27.2572 1.2711C25.3287 0.156818 22.9287 0.328246 21.2144 1.61396C20.9144 1.82825 20.6572 2.04253 20.4001 2.29967C20.2715 2.4711 14.443 7.78539 9.38582 12.414L18.8572 18.414L8.91439 29.5997C8.31439 30.0282 7.71439 30.2854 7.07153 30.414C7.2001 30.414 7.28582 30.414 7.41439 30.3711C9.38582 30.0711 26.2287 27.2425 27.043 27.0711C28.0287 26.8997 28.9287 26.2997 29.4858 25.3997C30.4287 23.8568 30.0001 21.9282 28.6715 20.8568Z" fill="url(#paint0_linear_811_3345)"/>
<path d="M19.6715 13.5718C19.5001 12.4147 18.9001 11.4718 18.043 10.7861C17.143 10.1004 10.2001 2.9004 9.42867 2.08611C8.22867 0.92897 6.51438 0.286113 4.75724 0.586113C1.75724 1.01468 -0.342758 3.84326 0.12867 6.84326C0.342956 8.34326 1.2001 9.62897 2.31438 10.4433C3.42867 11.3004 12.1715 17.3004 12.7287 17.729C13.6287 18.4147 14.8287 18.8004 16.0287 18.5861C18.3858 18.1575 20.0572 15.929 19.6715 13.5718Z" fill="url(#paint1_linear_811_3345)"/>
<path d="M9.85717 29.5569C9.90003 29.5569 19.8429 18.3712 19.8429 18.3712L9.81431 12.0283C6.25717 15.2855 2.95717 18.2426 2.18574 18.9712C1.71431 19.3997 1.24288 19.9569 0.900026 20.5569C-0.942831 23.7283 0.128598 27.7569 3.30003 29.5997C4.58574 30.3283 7.50003 31.2283 9.85717 29.5569Z" fill="url(#paint2_linear_811_3345)"/>
<path d="M5.74292 6.24219H24.2572V24.7565H5.74292V6.24219Z" fill="black"/>
<path d="M7.45728 21.2852H14.4001V22.4423H7.45728V21.2852Z" fill="white"/>
<path d="M10.2001 13.3141L7.28577 8.68555H9.2572L11.0572 11.7284L12.9429 8.68555H14.8715L11.9143 13.2713V16.357H10.2001V13.3141Z" fill="white"/>
<path d="M17.8287 10.2284H15.4716V8.68555H21.8573V10.2284H19.5001V16.357H17.8287V10.2284Z" fill="white"/>
</g>
<defs>
<linearGradient id="paint0_linear_811_3345" x1="3.03567" y1="23.9652" x2="27.4741" y2="12.825" gradientUnits="userSpaceOnUse">
<stop stop-color="#905CFB"/>
<stop offset="0.165" stop-color="#6677F8"/>
<stop offset="0.378" stop-color="#3596F5"/>
<stop offset="0.54" stop-color="#17A9F3"/>
<stop offset="0.632" stop-color="#0CB0F2"/>
</linearGradient>
<linearGradient id="paint1_linear_811_3345" x1="12.9901" y1="12.5565" x2="0.457811" y2="1.4874" gradientUnits="userSpaceOnUse">
<stop stop-color="#905CFB"/>
<stop offset="0.072" stop-color="#A554E6"/>
<stop offset="0.252" stop-color="#D641B5"/>
<stop offset="0.39" stop-color="#F43597"/>
<stop offset="0.468" stop-color="#FF318C"/>
</linearGradient>
<linearGradient id="paint2_linear_811_3345" x1="2.1356" y1="25.6505" x2="31.7242" y2="7.00675" gradientUnits="userSpaceOnUse">
<stop stop-color="#905CFB"/>
<stop offset="0.165" stop-color="#6677F8"/>
<stop offset="0.378" stop-color="#3596F5"/>
<stop offset="0.54" stop-color="#17A9F3"/>
<stop offset="0.632" stop-color="#0CB0F2"/>
</linearGradient>
<clipPath id="clip0_811_3345">
<rect width="30" height="30" fill="white" transform="translate(0 0.5)"/>
</clipPath>
</defs>
</svg>
