<svg width="89" height="17" viewBox="0 0 89 17" fill="none" xmlns="http://www.w3.org/2000/svg">
<path d="M8.18126 2.46174C8.30659 1.95519 9.02666 1.95519 9.15199 2.46174L10.042 6.05899C10.1004 6.29519 10.3204 6.45503 10.5632 6.43762L14.2594 6.17246C14.7799 6.13513 15.0024 6.81996 14.5593 7.09568L11.4132 9.05375C11.2066 9.18232 11.1226 9.44095 11.2141 9.66639L12.6085 13.0998C12.8048 13.5832 12.2223 14.0065 11.8232 13.6703L8.98871 11.2832C8.80259 11.1265 8.53066 11.1265 8.34454 11.2832L5.51009 13.6703C5.11096 14.0065 4.52841 13.5832 4.72476 13.0998L6.11913 9.66639C6.21068 9.44095 6.12665 9.18232 5.92007 9.05375L2.77391 7.09568C2.33088 6.81996 2.55339 6.13513 3.07388 6.17246L6.7701 6.43762C7.0128 6.45503 7.2328 6.29519 7.29124 6.05899L8.18126 2.46174Z" fill="black"/>
<path d="M26.1813 2.46174C26.3066 1.95519 27.0267 1.95519 27.152 2.46174L28.042 6.05899C28.1004 6.29519 28.3204 6.45503 28.5632 6.43762L32.2594 6.17246C32.7799 6.13513 33.0024 6.81996 32.5593 7.09568L29.4132 9.05375C29.2066 9.18232 29.1226 9.44095 29.2141 9.66639L30.6085 13.0998C30.8048 13.5832 30.2223 14.0065 29.8232 13.6703L26.9887 11.2832C26.8026 11.1265 26.5307 11.1265 26.3445 11.2832L23.5101 13.6703C23.111 14.0065 22.5284 13.5832 22.7248 13.0998L24.1191 9.66639C24.2107 9.44095 24.1267 9.18232 23.9201 9.05375L20.7739 7.09568C20.3309 6.81996 20.5534 6.13513 21.0739 6.17246L24.7701 6.43762C25.0128 6.45503 25.2328 6.29519 25.2912 6.05899L26.1813 2.46174Z" fill="black"/>
<path d="M44.1813 2.46174C44.3066 1.95519 45.0267 1.95519 45.152 2.46174L46.042 6.05899C46.1004 6.29519 46.3204 6.45503 46.5632 6.43762L50.2594 6.17246C50.7799 6.13513 51.0024 6.81996 50.5593 7.09568L47.4132 9.05375C47.2066 9.18232 47.1226 9.44095 47.2141 9.66639L48.6085 13.0998C48.8048 13.5832 48.2223 14.0065 47.8232 13.6703L44.9887 11.2832C44.8026 11.1265 44.5307 11.1265 44.3445 11.2832L41.5101 13.6703C41.111 14.0065 40.5284 13.5832 40.7248 13.0998L42.1191 9.66639C42.2107 9.44095 42.1267 9.18232 41.9201 9.05375L38.7739 7.09568C38.3309 6.81996 38.5534 6.13513 39.0739 6.17246L42.7701 6.43762C43.0128 6.45503 43.2328 6.29519 43.2912 6.05899L44.1813 2.46174Z" fill="black"/>
<path d="M62.1813 2.46174C62.3066 1.95519 63.0267 1.95519 63.152 2.46174L64.042 6.05899C64.1004 6.29519 64.3204 6.45503 64.5632 6.43762L68.2594 6.17246C68.7799 6.13513 69.0024 6.81996 68.5593 7.09568L65.4132 9.05375C65.2066 9.18232 65.1226 9.44095 65.2141 9.66639L66.6085 13.0998C66.8048 13.5832 66.2223 14.0065 65.8232 13.6703L62.9887 11.2832C62.8026 11.1265 62.5307 11.1265 62.3445 11.2832L59.5101 13.6703C59.111 14.0065 58.5284 13.5832 58.7248 13.0998L60.1191 9.66639C60.2107 9.44095 60.1267 9.18232 59.9201 9.05375L56.7739 7.09568C56.3309 6.81996 56.5534 6.13513 57.0739 6.17246L60.7701 6.43762C61.0128 6.45503 61.2328 6.29519 61.2912 6.05899L62.1813 2.46174Z" fill="black"/>
<path d="M80.1813 2.46174C80.3066 1.95519 81.0267 1.95519 81.152 2.46174L82.042 6.05899C82.1004 6.29519 82.3204 6.45503 82.5632 6.43762L86.2594 6.17246C86.7799 6.13513 87.0024 6.81996 86.5593 7.09568L83.4132 9.05375C83.2066 9.18232 83.1226 9.44095 83.2141 9.66639L84.6085 13.0998C84.8048 13.5832 84.2223 14.0065 83.8232 13.6703L80.9887 11.2832C80.8026 11.1265 80.5307 11.1265 80.3445 11.2832L77.5101 13.6703C77.111 14.0065 76.5284 13.5832 76.7248 13.0998L78.1191 9.66639C78.2107 9.44095 78.1267 9.18232 77.9201 9.05375L74.7739 7.09568C74.3309 6.81996 74.5534 6.13513 75.0739 6.17246L78.7701 6.43762C79.0128 6.45503 79.2328 6.29519 79.2912 6.05899L80.1813 2.46174Z" fill="black"/>
</svg>
