<svg width="37" height="38" viewBox="0 0 37 38" fill="none" xmlns="http://www.w3.org/2000/svg">
<path d="M0.671289 37L8.47129 0.549998H11.9713L19.7713 37H17.1213L15.1713 27.35H5.27129L3.27129 37H0.671289ZM5.72129 25.25H14.7213L11.7713 10.15L10.3713 3.25H10.1213L8.77129 10.2L5.72129 25.25ZM29.5338 37.5C28.6338 37.5 27.8171 37.2667 27.0838 36.8C26.3505 36.3333 25.7338 35.5833 25.2338 34.55C24.7338 33.5167 24.3338 32.15 24.0338 30.45C23.7671 28.7167 23.6338 26.5833 23.6338 24.05C23.6338 20.6167 23.8671 17.9167 24.3338 15.95C24.8338 13.95 25.5338 12.55 26.4338 11.75C27.3338 10.9167 28.3671 10.5 29.5338 10.5C30.4005 10.5 31.1338 10.6833 31.7338 11.05C32.3338 11.4167 32.8338 11.9167 33.2338 12.55C33.6671 13.1833 34.0171 13.9333 34.2838 14.8H34.4338L34.4838 11H36.9338V37H34.4338V33.25H34.2838C33.8838 34.55 33.3005 35.5833 32.5338 36.35C31.8005 37.1167 30.8005 37.5 29.5338 37.5ZM30.3838 35.4C31.2171 35.4 31.9338 35.0833 32.5338 34.45C33.1338 33.7833 33.6005 32.7833 33.9338 31.45C34.2671 30.0833 34.4338 28.3833 34.4338 26.35V21.7C34.4338 19.6333 34.2671 17.9333 33.9338 16.6C33.6005 15.2667 33.1338 14.2667 32.5338 13.6C31.9338 12.9333 31.2171 12.6 30.3838 12.6C29.2505 12.6 28.3838 13.05 27.7838 13.95C27.2171 14.8167 26.8005 16.1 26.5338 17.8C26.3005 19.5 26.1838 21.5833 26.1838 24.05C26.1838 26.4833 26.3005 28.55 26.5338 30.25C26.7671 31.95 27.1838 33.2333 27.7838 34.1C28.4171 34.9667 29.2838 35.4 30.3838 35.4Z" fill="black"/>
</svg>
