<svg width="72" height="38" viewBox="0 0 72 38" fill="none" xmlns="http://www.w3.org/2000/svg">
<path d="M0.405664 37L18.0057 0.549998H22.1557L39.7557 37H36.2557L31.6557 27.55H8.50566L3.95566 37H0.405664ZM9.70566 24.9H30.5557L22.3057 8.05L20.2057 3.5H20.0557L17.8557 8.15L9.70566 24.9ZM56.3947 37.45C54.4281 37.45 52.6281 37.1333 50.9947 36.5C49.3947 35.8667 48.0114 34.9667 46.8447 33.8C45.6781 32.6 44.7781 31.1833 44.1447 29.55C43.5447 27.8833 43.2447 26.0167 43.2447 23.95C43.2447 21.1833 43.7947 18.8 44.8947 16.8C45.9947 14.8 47.5281 13.25 49.4947 12.15C51.4947 11.05 53.7781 10.5 56.3447 10.5C58.2781 10.5 59.9947 10.7667 61.4947 11.3C63.0281 11.8 64.3281 12.5 65.3947 13.4C66.4947 14.3 67.3114 15.35 67.8447 16.55H68.0447L68.1947 10.95H71.1947V37H67.9947V30.95H67.7947C66.9947 32.8833 65.5447 34.45 63.4447 35.65C61.3781 36.85 59.0281 37.45 56.3947 37.45ZM57.0947 34.8C59.3947 34.8 61.3447 34.35 62.9447 33.45C64.5781 32.5167 65.8281 31.3167 66.6947 29.85C67.5614 28.35 67.9947 26.7667 67.9947 25.1V22.4C67.9947 20.8 67.5614 19.3 66.6947 17.9C65.8281 16.4667 64.5781 15.3167 62.9447 14.45C61.3114 13.5833 59.3447 13.15 57.0447 13.15C54.9447 13.15 53.0947 13.5833 51.4947 14.45C49.9281 15.2833 48.6947 16.5 47.7947 18.1C46.9281 19.7 46.4947 21.65 46.4947 23.95C46.4947 26.15 46.9281 28.0667 47.7947 29.7C48.6614 31.3333 49.8781 32.6 51.4447 33.5C53.0447 34.3667 54.9281 34.8 57.0947 34.8Z" fill="black"/>
</svg>
