<svg width="252" height="253" viewBox="0 0 252 253" fill="none" xmlns="http://www.w3.org/2000/svg">
<path d="M118.795 -131.001L-139 145.451" stroke="#F32400" stroke-width="5"/>
<path d="M126.109 -124.18L-131.686 152.271" stroke="#F32400" stroke-width="5"/>
<path d="M133.423 -117.36L-124.373 159.092" stroke="#F32400" stroke-width="5"/>
<path d="M140.736 -110.54L-117.059 165.912" stroke="#F32400" stroke-width="5"/>
<path d="M148.05 -103.721L-109.746 172.73" stroke="#F32400" stroke-width="5"/>
<path d="M155.363 -96.9009L-102.432 179.551" stroke="#F32400" stroke-width="5"/>
<path d="M162.677 -90.0806L-95.1183 186.371" stroke="#F32400" stroke-width="5"/>
<path d="M169.991 -83.2603L-87.8047 193.191" stroke="#F32400" stroke-width="5"/>
<path d="M177.304 -76.44L-80.4911 200.012" stroke="#F32400" stroke-width="5"/>
<path d="M184.618 -69.6197L-73.1775 206.832" stroke="#F32400" stroke-width="5"/>
<path d="M191.931 -62.7993L-65.8639 213.652" stroke="#F32400" stroke-width="5"/>
<path d="M199.245 -55.979L-58.5503 220.473" stroke="#F32400" stroke-width="5"/>
<path d="M206.559 -49.1607L-51.2367 227.291" stroke="#F32400" stroke-width="5"/>
<path d="M213.872 -42.3404L-43.9231 234.111" stroke="#F32400" stroke-width="5"/>
<path d="M221.186 -35.5201L-36.6095 240.932" stroke="#F32400" stroke-width="5"/>
<path d="M228.5 -28.6997L-29.2958 247.752" stroke="#F32400" stroke-width="5"/>
<path d="M235.813 -21.8794L-21.9822 254.572" stroke="#F32400" stroke-width="5"/>
<path d="M243.127 -15.0591L-14.6686 261.393" stroke="#F32400" stroke-width="5"/>
<path d="M250.44 -8.2388L-7.35499 268.213" stroke="#F32400" stroke-width="5"/>
<path d="M257.754 -1.42044L-0.0413685 275.031" stroke="#F32400" stroke-width="5"/>
<path d="M265.068 5.39987L7.27224 281.852" stroke="#F32400" stroke-width="5"/>
<path d="M272.381 12.2202L14.5858 288.672" stroke="#F32400" stroke-width="5"/>
<path d="M279.695 19.0405L21.8995 295.492" stroke="#F32400" stroke-width="5"/>
<path d="M287.008 25.8608L29.2131 302.312" stroke="#F32400" stroke-width="5"/>
<path d="M294.322 32.6811L36.5267 309.133" stroke="#F32400" stroke-width="5"/>
<path d="M301.636 39.5014L43.8403 315.953" stroke="#F32400" stroke-width="5"/>
<path d="M308.949 46.3217L51.1539 322.773" stroke="#F32400" stroke-width="5"/>
<path d="M316.263 53.1401L58.4675 329.592" stroke="#F32400" stroke-width="5"/>
<path d="M323.576 59.9604L65.7811 336.412" stroke="#F32400" stroke-width="5"/>
<path d="M330.89 66.7807L73.0947 343.232" stroke="#F32400" stroke-width="5"/>
<path d="M338.204 73.601L80.4083 350.053" stroke="#F32400" stroke-width="5"/>
<path d="M345.517 80.4214L87.7219 356.873" stroke="#F32400" stroke-width="5"/>
<path d="M352.831 87.2417L95.0356 363.693" stroke="#F32400" stroke-width="5"/>
<path d="M360.145 94.062L102.349 370.514" stroke="#F32400" stroke-width="5"/>
<path d="M367.458 100.88L109.663 377.332" stroke="#F32400" stroke-width="5"/>
<path d="M374.772 107.701L116.976 384.152" stroke="#F32400" stroke-width="5"/>
<path d="M382.085 114.521L124.29 390.973" stroke="#F32400" stroke-width="5"/>
<path d="M389.399 121.341L131.604 397.793" stroke="#F32400" stroke-width="5"/>
<path d="M396.713 128.162L138.917 404.613" stroke="#F32400" stroke-width="5"/>
<path d="M404.026 134.982L146.231 411.434" stroke="#F32400" stroke-width="5"/>
</svg>
