<svg width="85" height="85" viewBox="0 0 85 85" fill="none" xmlns="http://www.w3.org/2000/svg">
<circle cx="42.5" cy="42.5" r="42.5" fill="black"/>
<path d="M41.2423 23.8796C41.6413 23.4164 42.3587 23.4164 42.7577 23.8796L44.9133 26.3821C45.2067 26.7226 45.6912 26.8256 46.0977 26.6338L49.0848 25.2244C49.6377 24.9636 50.2931 25.2554 50.4691 25.8408L51.4206 29.0037C51.55 29.4341 51.9508 29.7253 52.4001 29.7154L55.7023 29.6429C56.3134 29.6295 56.7935 30.1626 56.7162 30.769L56.2989 34.0454C56.2421 34.4913 56.4898 34.9203 56.9043 35.094L59.9505 36.3709C60.5142 36.6072 60.7359 37.2895 60.4187 37.812L58.7049 40.6355C58.4716 41.0197 58.5234 41.5124 58.8314 41.8397L61.0949 44.2451C61.5138 44.6903 61.4388 45.4038 60.9365 45.7521L58.2224 47.6344C57.853 47.8905 57.7 48.3616 57.8482 48.786L58.9376 51.9041C59.1392 52.4811 58.7805 53.1024 58.18 53.2164L54.9349 53.832C54.4933 53.9157 54.1619 54.2839 54.1247 54.7318L53.8517 58.0234C53.8011 58.6326 53.2207 59.0543 52.6257 58.9141L49.4109 58.1566C48.9734 58.0535 48.5208 58.255 48.3047 58.6491L46.7165 61.5451C46.4225 62.081 45.7208 62.2302 45.2343 61.8601L42.6054 59.8605C42.2477 59.5884 41.7523 59.5884 41.3946 59.8605L38.7657 61.8601C38.2792 62.2302 37.5775 62.081 37.2835 61.5451L35.6953 58.6491C35.4792 58.255 35.0266 58.0535 34.5891 58.1566L31.3743 58.9141C30.7793 59.0543 30.1989 58.6326 30.1483 58.0234L29.8753 54.7318C29.8381 54.2839 29.5067 53.9157 29.0651 53.832L25.8201 53.2164C25.2195 53.1024 24.8608 52.4811 25.0624 51.9041L26.1518 48.786C26.3 48.3616 26.147 47.8905 25.7776 47.6344L23.0635 45.7521C22.5612 45.4038 22.4862 44.6903 22.9051 44.2451L25.1686 41.8397C25.4766 41.5124 25.5284 41.0197 25.2951 40.6355L23.5813 37.812C23.2641 37.2895 23.4858 36.6072 24.0495 36.3709L27.0957 35.094C27.5102 34.9203 27.7579 34.4913 27.7011 34.0454L27.2838 30.769C27.2065 30.1626 27.6866 29.6295 28.2977 29.6429L31.5999 29.7154C32.0492 29.7253 32.45 29.4341 32.5794 29.0037L33.5309 25.8408C33.7069 25.2554 34.3623 24.9636 34.9152 25.2244L37.9023 26.6338C38.3088 26.8256 38.7933 26.7226 39.0867 26.3821L41.2423 23.8796Z" fill="#DFDFDF"/>
<rect x="29" y="30" width="26" height="26" rx="13" fill="white"/>
<path d="M36.9451 44.8109L39.6237 48.0315L45.998 37.5042" stroke="black" stroke-width="2" stroke-linecap="round" stroke-linejoin="round"/>
<path d="M39.385 76.6625C39.9173 76.6955 40.3668 76.8141 40.7336 77.0185C41.0947 77.2279 41.3831 77.4889 41.5989 77.8015C41.809 78.119 41.9592 78.4543 42.0496 78.8072C42.1343 79.1651 42.1666 79.5065 42.1465 79.8312L42.1357 80.0068C42.1136 80.3635 42.0358 80.714 41.9023 81.0584C41.7687 81.4028 41.5786 81.7117 41.332 81.985C41.0799 82.2579 40.7649 82.4709 40.3867 82.6238C40.0032 82.7764 39.5586 82.8371 39.0529 82.8058C38.5259 82.7732 38.0766 82.6518 37.7048 82.4418C37.3331 82.2318 37.0458 81.9522 36.843 81.603C36.6345 81.2588 36.523 80.8591 36.5084 80.404L37.4745 80.4638C37.4987 80.7645 37.5845 81.0183 37.732 81.2252C37.8739 81.437 38.0641 81.6011 38.3027 81.7173C38.536 81.8333 38.8043 81.9007 39.1078 81.9195C39.4218 81.9389 39.7047 81.9003 39.9565 81.8037C40.203 81.7067 40.4122 81.5647 40.584 81.3776C40.7559 81.1905 40.8927 80.9666 40.9943 80.7057C41.0903 80.4498 41.148 80.1648 41.1675 79.8507C41.1859 79.5526 41.1634 79.268 41.1001 78.9969C41.031 78.7308 40.9203 78.4915 40.7678 78.279C40.6153 78.0665 40.4201 77.8968 40.1821 77.7699C39.9388 77.6426 39.6548 77.5689 39.3301 77.5488C38.8617 77.5199 38.4607 77.6099 38.1271 77.8191C37.7933 78.0335 37.5784 78.3542 37.4825 78.7811L36.5084 78.7208C36.587 78.3142 36.7486 77.9475 36.9932 77.6206C37.2376 77.2991 37.5603 77.0492 37.9614 76.871C38.3622 76.6981 38.8367 76.6286 39.385 76.6625Z" fill="white"/>
<path d="M34.2106 75.7494C34.5739 75.8352 34.8758 75.9723 35.1163 76.1606C35.3568 76.349 35.5387 76.5646 35.6622 76.8075C35.7844 77.0556 35.8596 77.3172 35.8878 77.5924C35.9095 77.8715 35.8885 78.1461 35.8247 78.416L35.7898 78.5639C35.7248 78.839 35.6207 79.0939 35.4776 79.3286C35.328 79.5673 35.1437 79.7676 34.9246 79.9295C34.7042 80.0967 34.4502 80.2093 34.1625 80.2673C33.8683 80.3294 33.5474 80.3193 33.1996 80.2371C32.748 80.1304 32.395 79.9429 32.1406 79.6745C31.8861 79.4062 31.7211 79.0959 31.6453 78.7437C31.5684 78.3967 31.5729 78.0416 31.6587 77.6783L31.7452 77.3123L35.4667 78.1916L35.3214 78.8067L32.2149 78.0727L32.5376 77.8202C32.4714 78.1004 32.4585 78.3522 32.4989 78.5755C32.5381 78.804 32.6304 78.9929 32.776 79.1424C32.9203 79.2971 33.1222 79.405 33.3817 79.4664C33.6516 79.5301 33.8921 79.5212 34.1032 79.4395C34.3143 79.3579 34.4897 79.2185 34.6295 79.0213C34.7692 78.8242 34.874 78.5777 34.9439 78.2818C35.0102 78.0016 35.0255 77.7394 34.99 77.4954C34.9533 77.2565 34.8568 77.0501 34.7006 76.8762C34.5432 76.7075 34.3192 76.5888 34.0285 76.5201C33.7378 76.4515 33.4844 76.4573 33.2681 76.5378C33.0506 76.6234 32.9008 76.7469 32.8188 76.9084L31.9702 76.7079C32.0947 76.4359 32.2704 76.2143 32.4971 76.0432C32.7187 75.8709 32.9753 75.7589 33.267 75.7073C33.5587 75.6556 33.8732 75.6696 34.2106 75.7494Z" fill="white"/>
<path d="M30.8331 74.8308L29.2512 78.8421L28.559 78.5692L29.2194 76.8947L29.2492 76.9064C29.0222 77.482 28.7264 77.8612 28.3619 78.0443C27.9954 78.2322 27.564 78.2284 27.0679 78.0327L26.9265 77.977L27.2288 77.2104L27.4967 77.3161C27.8738 77.4648 28.2041 77.4775 28.4878 77.3543C28.7645 77.2341 28.9762 76.988 29.123 76.6159L29.9623 74.4874L30.8331 74.8308Z" fill="white"/>
<path d="M25.4083 72.198C25.7213 72.3704 25.9622 72.5578 26.1308 72.7602C26.2994 72.9626 26.3832 73.1975 26.3821 73.4648C26.3764 73.7295 26.277 74.0371 26.0841 74.3875L24.1433 77.9125L23.3654 77.4842L25.3448 73.8891C25.4529 73.6929 25.4851 73.5127 25.4414 73.3487C25.3906 73.1867 25.2694 73.053 25.0778 72.9476L24.4471 72.6003L24.8407 71.8855L25.4083 72.198ZM25.7085 76.5459L25.3728 77.1556L22.7378 75.7048L23.0735 75.0951L25.7085 76.5459Z" fill="white"/>
<path d="M23.0957 70.7274L20.5892 74.2361L19.8276 73.692L22.3341 70.1833L23.0957 70.7274ZM21.522 74.0176L21.1034 74.6034L19.8276 73.692L20.2461 73.1061L21.522 74.0176ZM19.993 74.5476C20.1493 74.6592 20.237 74.7841 20.2562 74.9224C20.2711 75.0575 20.232 75.1902 20.139 75.3204C20.0491 75.4462 19.9378 75.524 19.8051 75.5538C19.665 75.5848 19.5168 75.5445 19.3606 75.4329C19.2 75.3182 19.1139 75.1911 19.1021 75.0516C19.0829 74.9133 19.1182 74.7812 19.2081 74.6554C19.3011 74.5252 19.4161 74.4468 19.5532 74.4201C19.6858 74.3904 19.8325 74.4329 19.993 74.5476Z" fill="white"/>
<path d="M20.3989 68.5962L17.4152 71.9166C17.0909 72.2777 16.7548 72.4561 16.4072 72.452C16.052 72.4483 15.6859 72.2772 15.3091 71.9385L14.9044 71.575L15.4017 71.0215L15.8837 71.4546C16.0146 71.5723 16.1516 71.6273 16.2947 71.6196C16.4338 71.6084 16.5622 71.5374 16.6799 71.4064L19.7383 68.0027L20.3989 68.5962ZM18.4473 71.6179L17.9821 72.1356L15.947 70.307L16.4122 69.7892L18.4473 71.6179Z" fill="white"/>
<path d="M17.5368 65.7631L14.3152 68.6292L13.6931 67.9299L16.9147 65.0638L17.5368 65.7631ZM15.2732 68.6228L14.7353 69.1014L13.6931 67.9299L14.231 67.4513L15.2732 68.6228ZM13.6649 68.8009C13.7925 68.9443 13.8504 69.0856 13.8385 69.2247C13.823 69.3598 13.7555 69.4805 13.636 69.5869C13.5204 69.6897 13.3947 69.7409 13.2587 69.7405C13.1152 69.7397 12.9796 69.6675 12.852 69.5241C12.7208 69.3766 12.665 69.2336 12.6844 69.095C12.6963 68.9559 12.76 68.835 12.8756 68.7321C12.9951 68.6258 13.1247 68.5748 13.2642 68.5792C13.4001 68.5796 13.5337 68.6535 13.6649 68.8009Z" fill="white"/>
<path d="M14.5294 61.5914C14.7354 61.8964 14.8652 62.1981 14.9188 62.4966C14.965 62.7936 14.9505 63.077 14.8752 63.3467C14.7925 63.6149 14.6683 63.8597 14.5025 64.0811C14.3292 64.3011 14.1299 64.4872 13.9046 64.6395L13.7852 64.7201C13.551 64.8783 13.3002 64.993 13.0329 65.0642C12.7612 65.1383 12.4862 65.16 12.2079 65.1291C11.9296 65.0983 11.665 65.0067 11.4141 64.8544C11.1558 64.7006 10.9251 64.4735 10.7221 64.173C10.5161 63.868 10.39 63.5574 10.3437 63.2411C10.2944 62.9204 10.3265 62.6155 10.4402 62.3264C10.5494 62.0402 10.7372 61.7943 11.0037 61.5885L11.5097 62.3376C11.3287 62.4985 11.222 62.7025 11.1895 62.9498C11.154 63.1926 11.2258 63.4466 11.4049 63.7117C11.5602 63.9415 11.7416 64.0957 11.9491 64.1744C12.1567 64.253 12.3787 64.2672 12.615 64.2169C12.847 64.1696 13.0823 64.0654 13.321 63.9042C13.5508 63.7489 13.7346 63.5733 13.8725 63.3772C14.0073 63.1767 14.077 62.9654 14.0816 62.7435C14.0832 62.5172 14.0049 62.2869 13.8466 62.0527C13.7242 61.8715 13.5888 61.7377 13.4404 61.6513C13.2845 61.5635 13.1267 61.5157 12.9669 61.5078C12.8026 61.5029 12.6453 61.5415 12.495 61.6238L11.9845 60.8681C12.2807 60.6873 12.5856 60.6004 12.8992 60.6073C13.2085 60.6173 13.5063 60.7057 13.7928 60.8726C14.0749 61.0425 14.3205 61.2821 14.5294 61.5914Z" fill="white"/>
<path d="M11.5533 56.3051L10.3878 56.8535L10.4526 56.9911L9.13515 57.611C8.89387 57.7246 8.74001 57.8736 8.67359 58.0581C8.60716 58.2426 8.63186 58.4579 8.74768 58.704C8.81126 58.8392 8.88407 58.9876 8.96611 59.1494C9.04815 59.3112 9.13146 59.4695 9.21605 59.6242C9.29355 59.7763 9.36551 59.9105 9.43193 60.0266L8.70084 60.3706C8.64123 60.269 8.57949 60.1566 8.51562 60.0334C8.44465 59.9076 8.37496 59.7783 8.30655 59.6455C8.23587 59.5078 8.171 59.3762 8.11196 59.2508C7.92575 58.8551 7.82199 58.5031 7.8007 58.1948C7.77941 57.8865 7.85024 57.6174 8.01318 57.3875C8.16902 57.155 8.43032 56.9525 8.79707 56.7799L11.2365 55.6319L11.5533 56.3051ZM12.2507 57.5242C12.3847 57.8089 12.4534 58.0801 12.4568 58.3379C12.4554 58.5979 12.3878 58.8301 12.2541 59.0345C12.1156 59.2411 11.9136 59.4069 11.6482 59.5318C11.3683 59.6635 11.106 59.7074 10.8613 59.6634C10.6144 59.6145 10.3871 59.4886 10.1796 59.2857C9.97213 59.0827 9.78776 58.8099 9.62652 58.4673L9.16666 57.4901L9.72403 57.2278L10.1941 58.2267C10.3145 58.4825 10.4692 58.6484 10.6582 58.7245C10.8425 58.8028 11.0335 58.7955 11.2314 58.7023C11.4292 58.6092 11.5567 58.4667 11.6137 58.2748C11.6659 58.0852 11.6319 57.8625 11.5115 57.6068C11.4411 57.4572 11.3476 57.3273 11.2309 57.2172C11.1094 57.1093 10.9631 57.0426 10.7919 57.017C10.6185 56.9867 10.4113 57.0223 10.1703 57.1239L10.3504 56.7739C10.6368 56.6686 10.9002 56.6272 11.1407 56.6496C11.374 56.6694 11.5868 56.7521 11.7789 56.8974C11.964 57.0402 12.1213 57.2491 12.2507 57.5242Z" fill="white"/>
<path d="M10.3746 52.3621C10.4602 52.6593 10.4845 52.9465 10.4477 53.2235C10.4094 53.4953 10.3195 53.7515 10.1778 53.9921C10.0347 54.2276 9.84902 54.4309 9.62078 54.602C9.39255 54.7731 9.12724 54.9022 8.82485 54.9893L8.67878 55.0313C8.38152 55.1169 8.09148 55.1504 7.80866 55.1319C7.51925 55.1098 7.25208 55.0396 7.00716 54.9214C6.76224 54.8032 6.5513 54.6392 6.37433 54.4293C6.19077 54.2157 6.0562 53.9603 5.97063 53.663C5.87917 53.3453 5.86648 53.0409 5.93257 52.7499C5.99207 52.4553 6.14063 52.1906 6.37826 51.9557C6.60929 51.7171 6.93785 51.5282 7.36394 51.3889L7.02963 51.8181L4.22356 52.6258L3.96465 51.7263L9.57678 50.1109L9.78258 50.8259L7.98362 51.3437L7.92609 51.1438C8.37641 51.0309 8.76942 51.0176 9.10512 51.1042C9.43934 51.1855 9.71326 51.337 9.92688 51.5586C10.1354 51.7816 10.2846 52.0494 10.3746 52.3621ZM9.54945 52.4164C9.48306 52.1858 9.37206 51.993 9.21645 51.838C9.05936 51.6779 8.86721 51.5695 8.63999 51.5128C8.40618 51.4524 8.15601 51.4606 7.8895 51.5373L7.55892 51.6325C7.29754 51.7077 7.09155 51.8308 6.94098 52.0018C6.7904 52.1728 6.69371 52.3671 6.65092 52.5848C6.60813 52.8025 6.61918 53.024 6.6841 53.2495C6.75638 53.5007 6.88206 53.7059 7.06113 53.8653C7.23359 54.021 7.44294 54.1217 7.68919 54.1673C7.93543 54.213 8.20205 54.1945 8.48907 54.1119C8.7812 54.0278 9.01941 53.901 9.20369 53.7314C9.3865 53.5567 9.50881 53.355 9.57063 53.1263C9.62732 52.8991 9.62026 52.6625 9.54945 52.4164Z" fill="white"/>
<path d="M9.30883 46.5369C9.35042 46.9133 9.32607 47.2513 9.23577 47.551C9.14018 47.8514 8.99985 48.111 8.81478 48.33C8.62971 48.549 8.41287 48.7232 8.16424 48.8526C7.91032 48.9826 7.64288 49.0631 7.36192 49.0942L7.20289 49.1118C6.92193 49.1428 6.64336 49.1226 6.36718 49.0512C6.09041 48.9745 5.83782 48.8494 5.60941 48.6761C5.3751 48.4981 5.18117 48.2727 5.02762 48C4.87406 47.7272 4.77707 47.4079 4.73666 47.0421C4.69624 46.6763 4.72147 46.3462 4.81235 46.0518C4.90264 45.7521 5.04268 45.4898 5.23246 45.2649C5.41694 45.0406 5.63614 44.8635 5.89007 44.7335C6.14341 44.5982 6.41055 44.515 6.69151 44.4839L6.85054 44.4664C7.1315 44.4353 7.41007 44.4555 7.68625 44.5269C7.95713 44.599 8.20678 44.7216 8.4352 44.8949C8.66361 45.0682 8.85725 45.2909 9.01611 45.5631C9.16966 45.8359 9.26724 46.1605 9.30883 46.5369ZM8.49776 46.6265C8.46555 46.3349 8.3744 46.0928 8.22433 45.9001C8.06896 45.708 7.87409 45.5713 7.63973 45.4899C7.40479 45.4031 7.14949 45.375 6.87383 45.4055C6.59287 45.4365 6.34722 45.52 6.13688 45.6559C5.92654 45.7919 5.76917 45.9702 5.66479 46.191C5.55511 46.4124 5.51609 46.6662 5.54772 46.9525C5.57935 47.2387 5.67285 47.4779 5.82822 47.67C5.9783 47.8627 6.1708 48.0024 6.40575 48.0891C6.6407 48.1758 6.89865 48.2037 7.1796 48.1726C7.45526 48.1422 7.69855 48.0616 7.90948 47.931C8.11982 47.7951 8.27984 47.6164 8.38952 47.395C8.4939 47.1742 8.52998 46.9181 8.49776 46.6265Z" fill="white"/>
<path d="M9.21621 41.3806C9.19052 41.9613 9.04795 42.4088 8.78848 42.723C8.52924 43.0318 8.18348 43.1847 7.7512 43.1816L7.78938 42.3185C7.94969 42.3149 8.09987 42.2388 8.2399 42.0901C8.37994 41.9415 8.45774 41.6914 8.47329 41.3397C8.48649 41.0413 8.43825 40.8043 8.32857 40.6286C8.21889 40.4529 8.07614 40.3612 7.90031 40.3534C7.74047 40.3464 7.61243 40.4048 7.51619 40.5286C7.41487 40.6469 7.34162 40.8546 7.29646 41.1515L7.23776 41.5734C7.17025 42.0135 7.02416 42.3593 6.79948 42.611C6.57505 42.8573 6.28167 42.9725 5.91936 42.9564C5.63164 42.9437 5.39239 42.8611 5.20161 42.7085C5.01084 42.5559 4.8677 42.3521 4.77222 42.0969C4.67697 41.8365 4.63665 41.5411 4.65126 41.2107C4.67388 40.6992 4.8067 40.2913 5.04971 39.9871C5.2874 39.6827 5.62493 39.5348 6.06231 39.5434L6.02448 40.3986C5.85884 40.4019 5.71689 40.4731 5.59864 40.612C5.48039 40.7509 5.41501 40.9615 5.40252 41.2439C5.39074 41.5103 5.43495 41.7178 5.53515 41.8664C5.63558 42.0096 5.76839 42.0849 5.93356 42.0922C6.08275 42.0988 6.20232 42.0507 6.29229 41.9479C6.38225 41.8451 6.44585 41.6745 6.4831 41.4359L6.54179 41.0141C6.61652 40.5315 6.76936 40.1539 7.0003 39.8812C7.22615 39.6029 7.53089 39.4723 7.91451 39.4892C8.19157 39.5015 8.43059 39.5895 8.63155 39.7532C8.83251 39.9169 8.98548 40.1398 9.09044 40.4221C9.19031 40.6988 9.23224 41.0183 9.21621 41.3806Z" fill="white"/>
<path d="M12.8924 27.8668L6.82403 26.8527L7.28338 25.9825L12.6592 26.9205L12.3392 27.1496L12.765 26.3431L12.7414 26.7648L8.8743 22.9686L9.32244 22.1196L13.6431 26.4448L12.8924 27.8668Z" fill="white"/>
<path d="M16.3641 22.7718C16.138 23.0689 15.89 23.289 15.6202 23.4321C15.3504 23.5753 15.0794 23.6539 14.8073 23.668C14.531 23.6788 14.2614 23.6412 13.9985 23.5551C13.7346 23.4615 13.4923 23.3307 13.2717 23.1627L13.1507 23.0706C12.9258 22.8994 12.7352 22.7008 12.5789 22.4746C12.4216 22.2409 12.3135 21.9911 12.2546 21.7251C12.1915 21.4558 12.1918 21.1779 12.2557 20.8915C12.3186 20.5975 12.4583 20.3083 12.6747 20.024C12.9557 19.6548 13.2705 19.4085 13.6191 19.2851C13.9678 19.1617 14.3183 19.137 14.6709 19.2109C15.0192 19.2817 15.3419 19.4301 15.639 19.6562L15.9382 19.8839L13.6221 22.9268L13.1192 22.544L15.0525 20.004L15.1521 20.4016C14.9229 20.2271 14.6981 20.113 14.4777 20.0592C14.253 20.0021 14.0428 20.0097 13.8471 20.0819C13.6471 20.1509 13.4664 20.2915 13.3049 20.5037C13.1369 20.7244 13.0473 20.9477 13.0361 21.1738C13.0249 21.3998 13.081 21.6168 13.2043 21.8246C13.3277 22.0324 13.5103 22.2284 13.7522 22.4125C13.9814 22.5869 14.2146 22.7075 14.452 22.7743C14.6852 22.8378 14.913 22.8335 15.1354 22.7615C15.3535 22.6862 15.553 22.5298 15.7339 22.2921C15.9148 22.0545 16.0124 21.8205 16.0269 21.5902C16.0371 21.3566 15.985 21.1696 15.8708 21.0291L16.399 20.3352C16.5969 20.5595 16.7279 20.8101 16.7921 21.0868C16.8595 21.3593 16.8575 21.6393 16.7861 21.9268C16.7147 22.2143 16.5741 22.4959 16.3641 22.7718Z" fill="white"/>
<path d="M18.5638 20.0738L15.5417 16.9981L16.0724 16.4766L17.3339 17.7606L17.3111 17.783C16.8775 17.3417 16.6512 16.9173 16.6321 16.5099C16.6094 16.0986 16.7882 15.706 17.1686 15.3323L17.277 15.2257L17.8545 15.8135L17.6491 16.0153C17.36 16.2994 17.2141 16.5961 17.2113 16.9053C17.2087 17.207 17.3475 17.5005 17.6279 17.7858L19.2314 19.4178L18.5638 20.0738Z" fill="white"/>
<path d="M25.9791 14.5382C25.6629 14.7265 25.3543 14.839 25.0533 14.8755C24.7541 14.9047 24.472 14.8741 24.2071 14.7836C23.944 14.6858 23.7066 14.5479 23.4949 14.3698C23.2852 14.1843 23.1107 13.9748 22.9715 13.7411L22.8978 13.6174C22.7531 13.3745 22.6529 13.1176 22.597 12.8467C22.5384 12.5712 22.5325 12.2954 22.5791 12.0193C22.6257 11.7433 22.7322 11.4843 22.8985 11.2424C23.0667 10.9933 23.3065 10.7759 23.6181 10.5903C23.9343 10.402 24.2515 10.2937 24.5699 10.2654C24.8929 10.2344 25.1955 10.2839 25.4777 10.4137C25.7572 10.539 25.9921 10.7405 26.1824 11.0183L25.4057 11.4809C25.2554 11.2911 25.0578 11.1729 24.8128 11.1264C24.5724 11.0772 24.3147 11.1345 24.0398 11.2982C23.8015 11.4401 23.6373 11.6125 23.547 11.8153C23.4567 12.018 23.4299 12.2388 23.4667 12.4777C23.5007 12.7119 23.5914 12.9528 23.7388 13.2002C23.8807 13.4385 24.0456 13.632 24.2336 13.7808C24.4261 13.9268 24.633 14.0084 24.8543 14.0256C25.0802 14.04 25.3146 13.9749 25.5574 13.8303C25.7453 13.7184 25.8865 13.5908 25.9812 13.4475C26.0777 13.2968 26.1345 13.142 26.1514 12.9829C26.1657 12.8192 26.136 12.66 26.0624 12.5052L26.8459 12.0384C27.0096 12.3444 27.079 12.6538 27.0543 12.9666C27.0267 13.2747 26.9215 13.5671 26.7386 13.8436C26.553 14.1156 26.2998 14.3471 25.9791 14.5382Z" fill="white"/>
<path d="M30.7953 12.2579C30.4482 12.3956 30.1222 12.4561 29.8172 12.4393C29.5122 12.4226 29.2396 12.3501 28.9993 12.2216C28.757 12.0882 28.5456 11.9168 28.3649 11.7073C28.1873 11.4909 28.0473 11.2538 27.9451 10.996L27.889 10.8547C27.7848 10.592 27.7241 10.3234 27.7071 10.049C27.693 9.76769 27.7295 9.49792 27.8164 9.23968C27.9013 8.97648 28.0451 8.7387 28.2477 8.52635C28.4534 8.30707 28.7223 8.13155 29.0544 7.99978C29.4857 7.82868 29.8825 7.78029 30.2448 7.85461C30.607 7.92893 30.92 8.08878 31.1838 8.33415C31.4455 8.57457 31.6452 8.86829 31.7829 9.21532L31.9216 9.56482L28.367 10.9749L28.134 10.3874L31.101 9.2104L30.9811 9.60225C30.8749 9.33455 30.7413 9.12074 30.5803 8.96083C30.4174 8.79596 30.2335 8.69393 30.0286 8.65472C29.8217 8.61055 29.5943 8.63764 29.3465 8.73597C29.0887 8.83823 28.8966 8.98327 28.7703 9.17109C28.644 9.3589 28.58 9.57363 28.5783 9.81528C28.5766 10.0569 28.6318 10.319 28.7439 10.6016C28.8501 10.8693 28.9877 11.093 29.1565 11.2728C29.3234 11.4476 29.5206 11.5615 29.7483 11.6147C29.9739 11.6628 30.2256 11.6319 30.5032 11.5217C30.7808 11.4116 30.9853 11.2616 31.1165 11.0719C31.2458 10.8771 31.2979 10.6901 31.2726 10.5108L32.0832 10.1892C32.1368 10.4835 32.1197 10.7657 32.0318 11.0358C31.9488 11.304 31.8025 11.5428 31.593 11.7521C31.3834 11.9615 31.1175 12.1301 30.7953 12.2579Z" fill="white"/>
<path d="M34.0853 11.0637L33.0853 6.8693L33.809 6.69676L34.2265 8.44769L34.1954 8.45511C34.0519 7.85331 34.0772 7.37301 34.2713 7.01422C34.4641 6.65024 34.8199 6.40641 35.3387 6.28272L35.4866 6.24747L35.6777 7.04901L35.3975 7.1158C35.0032 7.2098 34.7251 7.38851 34.5631 7.65192C34.4051 7.90892 34.3724 8.23196 34.4652 8.62105L34.9958 10.8467L34.0853 11.0637Z" fill="white"/>
<path d="M40.0398 10.1167C39.6845 10.1547 39.3798 10.1389 39.1257 10.0695C38.8715 10.0001 38.6683 9.85554 38.5162 9.63579C38.3693 9.41547 38.2746 9.10645 38.2321 8.70871L37.8048 4.70746L38.6878 4.61317L39.1236 8.69396C39.1474 8.9167 39.2241 9.08282 39.3538 9.19234C39.4882 9.29598 39.6642 9.33619 39.8816 9.31298L40.5975 9.23652L40.6842 10.0479L40.0398 10.1167ZM37.3041 6.72402L37.2302 6.03196L40.2212 5.71256L40.2951 6.40463L37.3041 6.72402Z" fill="white"/>
<path d="M42.7775 10.0091L42.8234 5.69732L43.7593 5.70728L43.7135 10.019L42.7775 10.0091ZM42.1838 6.41056L42.1914 5.6906L43.7593 5.70728L43.7517 6.42724L42.1838 6.41056ZM43.1338 5.10059C42.9418 5.09855 42.7983 5.04635 42.7034 4.944C42.6138 4.84171 42.5699 4.71057 42.5716 4.55058C42.5732 4.39592 42.6199 4.26841 42.7117 4.16805C42.8088 4.06241 42.9533 4.01061 43.1453 4.01265C43.3427 4.01475 43.4861 4.06961 43.5756 4.17724C43.6705 4.27959 43.7172 4.40809 43.7155 4.56275C43.7138 4.72274 43.6644 4.85289 43.5673 4.9532C43.4756 5.05356 43.3311 5.10269 43.1338 5.10059Z" fill="white"/>
<path d="M46.2114 10.2273L46.7562 5.79665C46.8154 5.31495 46.9887 4.97623 47.2761 4.7805C47.5694 4.58013 47.9675 4.51086 48.4704 4.57269L49.0103 4.63908L48.9195 5.37752L48.2763 5.29844C48.1017 5.27696 47.9578 5.31033 47.8449 5.39854C47.7372 5.4874 47.6727 5.61917 47.6512 5.79386L47.0928 10.3357L46.2114 10.2273ZM46.0811 6.63252L46.1661 5.94172L48.8816 6.27561L48.7967 6.96641L46.0811 6.63252Z" fill="white"/>
<path d="M50.1842 10.9155L51.1843 6.72103L52.0947 6.9381L51.0947 11.1325L50.1842 10.9155ZM50.4025 7.27483L50.5695 6.57446L52.0947 6.9381L51.9278 7.63847L50.4025 7.27483ZM51.6191 6.20789C51.4323 6.16336 51.304 6.08068 51.2341 5.95984C51.1694 5.84025 51.1556 5.70263 51.1928 5.54699C51.2286 5.39654 51.3024 5.28254 51.4141 5.205C51.5322 5.12351 51.6847 5.10502 51.8714 5.14955C52.0634 5.19531 52.1911 5.28059 52.2545 5.40537C52.3244 5.52621 52.3414 5.66185 52.3056 5.8123C52.2685 5.96794 52.1915 6.08391 52.0746 6.16022C51.9629 6.23776 51.8111 6.25365 51.6191 6.20789Z" fill="white"/>
<path d="M55.0338 12.5847C54.6903 12.4526 54.4111 12.2796 54.1963 12.0656C53.9883 11.8485 53.838 11.6079 53.7453 11.3437C53.6595 11.0764 53.6212 10.8046 53.6303 10.5281C53.6463 10.2486 53.7032 9.98186 53.8008 9.72798L53.8524 9.59357C53.9539 9.32973 54.0938 9.09211 54.2722 8.88071C54.4525 8.66434 54.6656 8.48913 54.9114 8.35507C55.1572 8.22101 55.4266 8.14458 55.7195 8.12578C56.0193 8.1039 56.3385 8.15804 56.677 8.28817C57.0205 8.42023 57.3017 8.60264 57.5208 8.83542C57.7448 9.07011 57.8931 9.33851 57.9655 9.64061C58.0398 9.93774 58.0266 10.2469 57.926 10.5682L57.0822 10.2438C57.1384 10.0083 57.1091 9.77993 56.9942 9.55863C56.8843 9.33923 56.68 9.17212 56.3813 9.0573C56.1224 8.95778 55.8854 8.93522 55.6702 8.98963C55.455 9.04404 55.2649 9.15951 55.0999 9.33606C54.9368 9.50763 54.8036 9.72782 54.7003 9.99664C54.6007 10.2555 54.5506 10.5048 54.5499 10.7445C54.5541 10.9861 54.6179 11.1992 54.7413 11.3837C54.8696 11.5702 55.0656 11.7141 55.3295 11.8156C55.5336 11.894 55.7212 11.9262 55.8924 11.912C56.0704 11.8947 56.2272 11.8436 56.3627 11.7585C56.5002 11.6685 56.607 11.5468 56.6832 11.3932L57.5344 11.7205C57.3951 12.0383 57.1949 12.2842 56.9338 12.458C56.6746 12.6269 56.3797 12.725 56.0493 12.7522C55.7208 12.7745 55.3823 12.7187 55.0338 12.5847Z" fill="white"/>
<path d="M60.4997 15.2331L61.1411 14.1161L61.0093 14.0404L61.7344 12.7778C61.8672 12.5466 61.908 12.3363 61.8568 12.147C61.8056 11.9577 61.6621 11.7953 61.4262 11.6598C61.2967 11.5855 61.152 11.5055 60.9921 11.4198C60.8322 11.3341 60.6733 11.2521 60.5153 11.1737C60.3647 11.0933 60.2289 11.0246 60.1079 10.9674L60.5103 10.2667C60.6174 10.3159 60.7324 10.3727 60.8553 10.4371C60.9854 10.4996 61.1166 10.5657 61.2488 10.6354C61.3855 10.7078 61.5141 10.7786 61.6343 10.8476C62.0136 11.0654 62.3002 11.2946 62.4941 11.5351C62.6881 11.7757 62.7841 12.0368 62.7822 12.3186C62.7876 12.5985 62.6893 12.9141 62.4875 13.2656L61.1449 15.6036L60.4997 15.2331ZM59.2299 14.633C58.957 14.4763 58.7454 14.2933 58.595 14.0839C58.4473 13.8699 58.3697 13.6409 58.3623 13.3968C58.3575 13.148 58.4282 12.8965 58.5743 12.6421C58.7283 12.3738 58.9182 12.1877 59.144 12.0837C59.3745 11.9823 59.6328 11.9554 59.9192 12.0029C60.2055 12.0505 60.5129 12.1686 60.8412 12.3572L61.7778 12.895L61.471 13.4292L60.5137 12.8794C60.2685 12.7386 60.0467 12.6912 59.8482 12.7371C59.6523 12.7783 59.4999 12.8938 59.391 13.0834C59.2821 13.273 59.2592 13.4628 59.3223 13.6528C59.388 13.8382 59.5435 14.0013 59.7886 14.142C59.932 14.2244 60.083 14.2773 60.2417 14.3008C60.4031 14.3196 60.5613 14.2905 60.7162 14.2135C60.8758 14.139 61.0253 13.9912 61.1647 13.7699L61.2174 14.1599C61.0429 14.4103 60.8507 14.5951 60.6407 14.7144C60.4381 14.8317 60.2163 14.8858 59.9756 14.8767C59.7421 14.8656 59.4935 14.7844 59.2299 14.633Z" fill="white"/>
<path d="M63.7418 17.7896C63.5015 17.5949 63.3171 17.3735 63.1886 17.1253C63.0644 16.8805 62.9914 16.6189 62.9698 16.3406C62.9523 16.0656 62.9881 15.7926 63.0772 15.5216C63.1664 15.2506 63.3099 14.9929 63.508 14.7484L63.6037 14.6303C63.7984 14.3899 64.017 14.1963 64.2594 14.0495C64.5094 13.902 64.7686 13.8065 65.0371 13.7632C65.3055 13.7198 65.5724 13.7336 65.8377 13.8043C66.1105 13.8743 66.367 14.0066 66.6074 14.2013C66.8643 14.4095 67.049 14.6517 67.1615 14.9281C67.2814 15.2037 67.3112 15.5059 67.2509 15.8345C67.1981 16.1624 67.0369 16.5054 66.7673 16.8636L66.7956 16.3202L68.6336 14.0513L69.3609 14.6405L65.6849 19.1784L65.1068 18.71L66.2851 17.2554L66.4468 17.3864C66.1423 17.7368 65.8276 17.9727 65.5029 18.094C65.1823 18.2187 64.871 18.2513 64.569 18.192C64.2703 18.1285 63.9946 17.9944 63.7418 17.7896ZM64.3872 17.2726C64.5737 17.4236 64.7751 17.5182 64.9914 17.5561C65.2119 17.5975 65.4315 17.5763 65.6502 17.4927C65.8765 17.4083 66.0769 17.2583 66.2515 17.0428L66.468 16.7755C66.6392 16.5642 66.7376 16.3453 66.7631 16.1189C66.7886 15.8925 66.7566 15.6778 66.6671 15.4748C66.5775 15.2719 66.4416 15.0966 66.2592 14.9489C66.0562 14.7844 65.8356 14.6881 65.5976 14.6599C65.367 14.631 65.1377 14.6684 64.9097 14.7719C64.6817 14.8755 64.4737 15.0433 64.2857 15.2754C64.0943 15.5116 63.9717 15.752 63.9177 15.9965C63.8679 16.2445 63.8831 16.4799 63.9634 16.7027C64.047 16.9215 64.1883 17.1114 64.3872 17.2726Z" fill="white"/>
<path d="M67.9343 21.938C67.6847 21.6533 67.5111 21.3622 67.4135 21.0648C67.3199 20.7638 67.2863 20.4706 67.3126 20.1851C67.3389 19.8996 67.417 19.6326 67.5467 19.3841C67.6804 19.1322 67.8536 18.913 68.0661 18.7267L68.1864 18.6212C68.399 18.4349 68.6389 18.2919 68.9063 18.1923C69.1771 18.0968 69.4558 18.0546 69.7423 18.0659C70.0363 18.0777 70.3243 18.1514 70.6064 18.2871C70.8885 18.4228 71.1509 18.6291 71.3934 18.9058C71.636 19.1825 71.8043 19.4676 71.8984 19.761C71.996 20.0585 72.0314 20.3537 72.0046 20.6467C71.9818 20.9362 71.9035 21.207 71.7698 21.4589C71.6396 21.7149 71.4682 21.9361 71.2556 22.1224L71.1353 22.2279C70.9227 22.4142 70.6828 22.5572 70.4155 22.6568C70.1521 22.7528 69.8772 22.7952 69.5907 22.7839C69.3043 22.7727 69.018 22.7009 68.7319 22.5687C68.4498 22.433 68.1839 22.2228 67.9343 21.938ZM68.5479 21.4001C68.7413 21.6207 68.9547 21.767 69.188 21.8391C69.4254 21.9076 69.6635 21.9081 69.9022 21.8407C70.1445 21.7773 70.3699 21.6541 70.5785 21.4713C70.791 21.285 70.9446 21.0759 71.0392 20.844C71.1338 20.6121 71.1607 20.3758 71.1199 20.135C71.083 19.8907 70.9697 19.6603 70.7798 19.4437C70.59 19.2271 70.3764 19.0846 70.139 19.0161C69.9056 18.944 69.6678 18.9397 69.4255 19.0031C69.1833 19.0666 68.9558 19.1915 68.7433 19.3778C68.5347 19.5606 68.3814 19.7659 68.2833 19.9938C68.1886 20.2257 68.1598 20.4638 68.1966 20.7081C68.2375 20.9489 68.3546 21.1796 68.5479 21.4001Z" fill="white"/>
<path d="M70.9748 26.1436C70.6633 25.6527 70.524 25.2042 70.5568 24.7981C70.5925 24.3965 70.7884 24.0731 71.1446 23.8282L71.6076 24.5577C71.4782 24.6524 71.3987 24.8008 71.3689 25.0028C71.3392 25.2049 71.4187 25.4545 71.6073 25.7517C71.7673 26.0039 71.9426 26.1706 72.1331 26.2518C72.3236 26.333 72.4932 26.3265 72.6418 26.2322C72.7769 26.1464 72.8484 26.0253 72.8564 25.8686C72.8717 25.7136 72.8129 25.5014 72.6799 25.2321L72.4865 24.8527C72.2898 24.4532 72.2115 24.086 72.2516 23.751C72.2946 23.4206 72.4691 23.1582 72.7754 22.9638C73.0185 22.8095 73.262 22.7403 73.5058 22.7561C73.7495 22.772 73.9836 22.8572 74.208 23.0117C74.4352 23.1707 74.6374 23.3897 74.8146 23.6689C75.0889 24.1012 75.2136 24.5117 75.1886 24.9002C75.168 25.2859 74.976 25.6005 74.6125 25.8438L74.1538 25.121C74.2877 25.0235 74.3633 24.8839 74.3807 24.7023C74.3981 24.5207 74.3311 24.3105 74.1797 24.0719C74.0368 23.8467 73.8817 23.7019 73.7145 23.6375C73.5501 23.5776 73.3982 23.5919 73.2586 23.6805C73.1325 23.7605 73.062 23.8684 73.0471 24.0042C73.0322 24.14 73.0778 24.3163 73.1839 24.5333L73.3773 24.9127C73.5923 25.351 73.6832 25.7481 73.6501 26.104C73.6243 26.4615 73.4492 26.7431 73.125 26.9488C72.8908 27.0974 72.6445 27.1622 72.386 27.143C72.1275 27.1239 71.8744 27.0287 71.6268 26.8574C71.3865 26.6877 71.1692 26.4498 70.9748 26.1436Z" fill="white"/>
<path d="M75.7007 40.5565C75.6375 40.0269 75.6736 39.5634 75.8088 39.1659C75.95 38.7731 76.1549 38.4426 76.4237 38.1742C76.6984 37.9105 77.0013 37.7025 77.3322 37.5502C77.6691 37.4026 77.9991 37.3096 78.3222 37.2711L78.4969 37.2502C78.8517 37.2079 79.2105 37.2215 79.5733 37.2911C79.9361 37.3606 80.2741 37.4922 80.5872 37.6858C80.9009 37.8847 81.167 38.1565 81.3853 38.5011C81.6043 38.8509 81.7438 39.2774 81.8037 39.7805C81.8662 40.3048 81.8276 40.7687 81.6877 41.1721C81.5478 41.5755 81.3243 41.9083 81.0172 42.1705C80.716 42.4373 80.3428 42.6188 79.8977 42.7148L79.7831 41.7536C80.0746 41.6759 80.3089 41.5459 80.4859 41.3637C80.6688 41.1861 80.7961 40.9695 80.8677 40.7139C80.9399 40.4636 80.958 40.1875 80.922 39.8857C80.8847 39.5732 80.796 39.3018 80.6557 39.0715C80.5161 38.8464 80.3388 38.6661 80.1239 38.5306C79.9091 38.3951 79.6642 38.3008 79.3893 38.2476C79.1203 38.1991 78.8296 38.1935 78.5171 38.2307C78.2206 38.2661 77.9446 38.3393 77.6893 38.4503C77.4399 38.566 77.2244 38.7179 77.0427 38.906C76.8611 39.0942 76.7291 39.3167 76.647 39.5736C76.5654 39.8358 76.5439 40.1284 76.5824 40.4514C76.638 40.9174 76.7986 41.2957 77.0642 41.5863C77.3351 41.8763 77.6891 42.0301 78.1263 42.0478L78.2419 43.017C77.8278 43.0126 77.438 42.9195 77.0725 42.7375C76.7124 42.5548 76.4086 42.2822 76.1613 41.9196C75.9193 41.5564 75.7657 41.102 75.7007 40.5565Z" fill="white"/>
<path d="M75.7345 45.8374C75.7537 45.4645 75.8344 45.1429 75.9765 44.8726C76.1187 44.6022 76.2981 44.3845 76.5149 44.2194C76.737 44.0547 76.9809 43.9337 77.2466 43.8567C77.5173 43.7852 77.7911 43.7566 78.0681 43.7709L78.2199 43.7787C78.5022 43.7933 78.7716 43.8499 79.0282 43.9486C79.2898 44.0529 79.52 44.1982 79.7186 44.3847C79.9226 44.5715 80.079 44.8012 80.1878 45.0738C80.3016 45.352 80.3493 45.6696 80.3309 46.0264C80.307 46.4898 80.1858 46.8708 79.9675 47.1692C79.7492 47.4677 79.4736 47.6858 79.1407 47.8235C78.8132 47.9615 78.463 48.0209 78.0901 48.0016L77.7146 47.9823L77.9117 44.1633L78.5428 44.1959L78.3784 47.3837L78.072 47.1115C78.3596 47.1263 78.6096 47.0938 78.822 47.014C79.0397 46.9345 79.209 46.8097 79.3299 46.6397C79.4562 46.47 79.5262 46.252 79.5399 45.9856C79.5542 45.7087 79.5023 45.4737 79.384 45.2807C79.2658 45.0877 79.0972 44.9401 78.8782 44.838C78.6591 44.7359 78.3978 44.6771 78.0942 44.6614C77.8066 44.6466 77.546 44.6785 77.3123 44.7572C77.0839 44.8362 76.8982 44.9682 76.7551 45.1531C76.6174 45.3382 76.5408 45.5799 76.5255 45.8782C76.5101 46.1765 76.5613 46.4248 76.6793 46.6231C76.8025 46.8217 76.951 46.9469 77.1245 46.9985L77.0796 47.8694C76.7897 47.7957 76.5402 47.6627 76.3312 47.4703C76.1219 47.2833 75.9656 47.0509 75.8625 46.7732C75.7593 46.4955 75.7166 46.1836 75.7345 45.8374Z" fill="white"/>
<path d="M75.4481 49.313L79.6783 50.1492L79.534 50.8791L77.7682 50.53L77.7744 50.4986C78.3813 50.6186 78.8075 50.8415 79.053 51.1673C79.3037 51.4941 79.3773 51.9191 79.2739 52.4423L79.2444 52.5914L78.4361 52.4316L78.4919 52.1491C78.5705 51.7515 78.5238 51.4242 78.3517 51.1673C78.1838 50.9166 77.9036 50.7525 77.5112 50.6749L75.2666 50.2312L75.4481 49.313Z" fill="white"/>
<path d="M73.8313 55.1314C73.9446 54.7926 74.0857 54.522 74.2546 54.3198C74.4235 54.1176 74.6395 53.993 74.9026 53.9461C75.1641 53.9042 75.4845 53.9467 75.8638 54.0736L79.68 55.3502L79.3983 56.1923L75.5063 54.8904C75.2938 54.8193 75.1108 54.8199 74.9573 54.8923C74.8071 54.9714 74.6973 55.1147 74.6279 55.322L74.3995 56.0048L73.6257 55.746L73.8313 55.1314ZM78.0547 54.0557L78.7147 54.2765L77.7605 57.1291L77.1004 56.9083L78.0547 54.0557Z" fill="white"/>
<path d="M72.8 57.6446L76.7016 59.4806L76.303 60.3275L72.4014 58.4915L72.8 57.6446ZM76.3192 58.6022L76.9707 58.9088L76.303 60.3275L75.6515 60.021L76.3192 58.6022ZM77.115 60.0112C77.1968 59.8374 77.3039 59.7287 77.4365 59.685C77.5668 59.6461 77.7043 59.6607 77.8491 59.7289C77.989 59.7947 78.0855 59.8902 78.1386 60.0154C78.1943 60.1477 78.1812 60.3007 78.0995 60.4744C78.0154 60.653 77.9059 60.7606 77.7707 60.7972C77.6382 60.8409 77.5019 60.8298 77.362 60.764C77.2172 60.6958 77.1194 60.5968 77.0686 60.4668C77.0155 60.3416 77.031 60.1897 77.115 60.0112Z" fill="white"/>
<path d="M71.1852 60.6896L74.9873 63.0287C75.4006 63.283 75.6365 63.5816 75.6949 63.9243C75.755 64.2744 75.6523 64.6652 75.3869 65.0968L75.1018 65.5601L74.4681 65.1702L74.8077 64.6183C74.8999 64.4684 74.9294 64.3238 74.8962 64.1844C74.8602 64.0495 74.7672 63.936 74.6173 63.8437L70.7199 61.4459L71.1852 60.6896ZM74.5081 62.0671L75.1009 62.4318L73.6673 64.7621L73.0745 64.3973L74.5081 62.0671Z" fill="white"/>
<path d="M68.9038 64.0326L72.3016 66.6874L71.7253 67.4249L68.3275 64.7701L68.9038 64.0326ZM72.1234 65.7461L72.6907 66.1894L71.7253 67.4249L71.158 66.9817L72.1234 65.7461ZM72.5872 67.2963C72.7055 67.145 72.834 67.0628 72.973 67.0495C73.1087 67.0404 73.2395 67.0852 73.3656 67.1837C73.4875 67.2789 73.5605 67.3934 73.5845 67.5273C73.6094 67.6686 73.5628 67.8149 73.4446 67.9662C73.3231 68.1217 73.1924 68.2023 73.0525 68.2081C72.9136 68.2214 72.7832 68.1804 72.6613 68.0852C72.5352 67.9866 72.4618 67.8684 72.4411 67.7303C72.417 67.5965 72.4658 67.4518 72.5872 67.2963Z" fill="white"/>
<path d="M65.3461 67.7198C65.6092 67.4624 65.8827 67.2806 66.1667 67.1743C66.4506 67.0755 66.732 67.039 67.0108 67.0646C67.2895 67.0978 67.5527 67.1761 67.8003 67.2995C68.0478 67.4304 68.2666 67.593 68.4569 67.7874L68.5576 67.8903C68.7553 68.0924 68.9131 68.3185 69.0311 68.5687C69.1528 68.8227 69.2235 69.0893 69.2431 69.3686C69.2627 69.6479 69.2201 69.9247 69.1153 70.1989C69.0104 70.4806 68.8284 70.7483 68.5692 71.0019C68.3061 71.2593 68.0232 71.4392 67.7204 71.5415C67.4138 71.6475 67.108 71.6706 66.8032 71.6108C66.5021 71.5547 66.2264 71.414 65.9761 71.1888L66.6222 70.5566C66.813 70.7057 67.0329 70.7741 67.2819 70.7617C67.5272 70.753 67.7641 70.6368 67.9928 70.413C68.1911 70.219 68.3102 70.0129 68.3503 69.7946C68.3904 69.5763 68.3645 69.3554 68.2726 69.1318C68.1845 68.9121 68.0397 68.6994 67.8382 68.4935C67.6443 68.2953 67.4385 68.146 67.2208 68.0456C66.9993 67.9489 66.779 67.9182 66.5599 67.9536C66.337 67.9926 66.1245 68.111 65.9225 68.3087C65.7662 68.4617 65.6589 68.6189 65.6006 68.7805C65.5421 68.9495 65.5234 69.1134 65.5443 69.272C65.569 69.4345 65.6352 69.5823 65.7432 69.7154L65.0913 70.3533C64.8603 70.0943 64.7201 69.81 64.6706 69.5002C64.6249 69.1942 64.6584 68.8853 64.7712 68.5735C64.8877 68.2655 65.0793 67.9809 65.3461 67.7198Z" fill="white"/>
<path d="M60.6828 71.6049L61.4315 72.6529L61.5552 72.5645L62.4015 73.7493C62.5565 73.9663 62.7308 74.0909 62.9242 74.1231C63.1176 74.1553 63.325 74.0924 63.5463 73.9343C63.6679 73.8475 63.8008 73.7492 63.9453 73.6394C64.0897 73.5297 64.2305 73.4193 64.3675 73.3083C64.5032 73.2048 64.6223 73.1099 64.7246 73.0237L65.1943 73.6812C65.105 73.7581 65.0055 73.839 64.8957 73.9239C64.7848 74.0163 64.6701 74.1081 64.5517 74.1992C64.4289 74.2935 64.3111 74.3809 64.1983 74.4615C63.8424 74.7157 63.5148 74.881 63.2153 74.9573C62.9159 75.0335 62.6384 75.0122 62.383 74.8932C62.1263 74.7816 61.8802 74.5609 61.6446 74.2311L60.0774 72.0373L60.6828 71.6049ZM61.7568 70.6999C62.0129 70.517 62.2674 70.4007 62.5203 70.3511C62.7764 70.3058 63.0169 70.3306 63.242 70.4255C63.4702 70.5247 63.6695 70.6936 63.84 70.9323C64.0198 71.184 64.1101 71.4341 64.1107 71.6827C64.107 71.9345 64.0239 72.1806 63.8615 72.4212C63.6991 72.6617 63.4638 72.8921 63.1557 73.1122L62.2769 73.74L61.9188 73.2388L62.8172 72.597C63.0472 72.4327 63.1826 72.2507 63.2235 72.0511C63.2675 71.8558 63.226 71.6692 63.0989 71.4912C62.9718 71.3133 62.8087 71.2135 62.6097 71.1918C62.4138 71.1745 62.2008 71.248 61.9708 71.4123C61.8363 71.5084 61.7253 71.6237 61.6379 71.7582C61.5536 71.8971 61.5142 72.0531 61.5198 72.226C61.5211 72.4021 61.5933 72.5996 61.7365 72.8184L61.3599 72.704C61.2049 72.4412 61.1168 72.1895 61.0957 71.9489C61.0734 71.7158 61.1165 71.4917 61.2249 71.2765C61.3322 71.0688 61.5095 70.8766 61.7568 70.6999Z" fill="white"/>
<path d="M56.9885 73.4885C57.2656 73.351 57.5437 73.2755 57.8228 73.262C58.0971 73.2509 58.3653 73.2934 58.6274 73.3895C58.8847 73.4881 59.118 73.6343 59.3273 73.8281C59.5367 74.0219 59.7113 74.2597 59.8512 74.5415L59.9188 74.6777C60.0563 74.9548 60.1414 75.2341 60.1739 75.5156C60.2041 75.8043 60.183 76.0797 60.1107 76.3419C60.0384 76.6041 59.9149 76.841 59.7401 77.0528C59.563 77.2717 59.3359 77.4499 59.0588 77.5875C58.7626 77.7345 58.4655 77.8016 58.1674 77.7888C57.8669 77.7832 57.5797 77.6845 57.306 77.4929C57.0299 77.3085 56.785 77.0192 56.5715 76.625L57.0538 76.8768L58.352 79.4923L57.5137 79.9085L54.9171 74.6775L55.5835 74.3467L56.4158 76.0235L56.2295 76.116C56.0376 75.6932 55.954 75.309 55.9789 74.9632C55.9989 74.6198 56.0988 74.3231 56.2784 74.0732C56.4604 73.8281 56.6971 73.6332 56.9885 73.4885ZM57.1901 74.2905C56.9751 74.3972 56.8054 74.541 56.6808 74.722C56.5515 74.9052 56.4793 75.1137 56.4643 75.3474C56.4469 75.5883 56.4999 75.8329 56.6232 76.0813L56.7761 76.3895C56.8971 76.6331 57.0552 76.8136 57.2504 76.9311C57.4456 77.0485 57.6542 77.1087 57.876 77.1118C58.0978 77.1148 58.3138 77.0641 58.524 76.9598C58.7581 76.8436 58.9374 76.6831 59.062 76.4784C59.1843 76.2808 59.2457 76.0567 59.2465 75.8063C59.2472 75.5559 59.1812 75.2969 59.0484 75.0294C58.9132 74.7571 58.7457 74.5455 58.5457 74.3946C58.3411 74.2462 58.1207 74.1621 57.8846 74.1423C57.6509 74.1273 57.4194 74.1767 57.1901 74.2905Z" fill="white"/>
<path d="M51.4745 75.5738C51.8373 75.4653 52.1742 75.4286 52.4853 75.4636C52.7979 75.5037 53.0785 75.5952 53.3272 75.7379C53.5758 75.8807 53.7861 76.0628 53.9581 76.2841C54.1315 76.5106 54.2588 76.7592 54.3397 77.03L54.3856 77.1833C54.4665 77.4542 54.4967 77.7318 54.476 78.0163C54.4502 78.3024 54.3725 78.5733 54.243 78.8291C54.11 79.0916 53.9231 79.3228 53.6823 79.5228C53.4415 79.7229 53.1448 79.8756 52.7922 79.981C52.4396 80.0864 52.1104 80.1209 51.8044 80.0843C51.4933 80.0493 51.2102 79.9586 50.9549 79.8123C50.7011 79.671 50.4875 79.4872 50.314 79.2607C50.1354 79.0358 50.0057 78.7879 49.9247 78.5171L49.8788 78.3638C49.7979 78.093 49.7677 77.8153 49.7884 77.5308C49.8107 77.2514 49.8865 76.9838 50.016 76.7279C50.1455 76.4721 50.3298 76.2417 50.5691 76.0365C50.8099 75.8365 51.1117 75.6823 51.4745 75.5738ZM51.7082 76.3556C51.4272 76.4396 51.2054 76.5727 51.0428 76.755C50.8817 76.9423 50.7821 77.1585 50.7441 77.4037C50.7009 77.6504 50.7191 77.9066 50.7985 78.1723C50.8795 78.4431 51.0057 78.6698 51.1772 78.8523C51.3487 79.0349 51.5524 79.1577 51.7883 79.2207C52.0258 79.2889 52.2825 79.2817 52.5585 79.1992C52.8344 79.1167 53.0529 78.9818 53.214 78.7945C53.3766 78.6122 53.4795 78.3978 53.5226 78.1511C53.5658 77.9044 53.5468 77.6456 53.4659 77.3748C53.3864 77.1091 53.2635 76.8842 53.0972 76.7002C52.9257 76.5176 52.7212 76.3923 52.4837 76.3241C52.2478 76.2611 51.9893 76.2716 51.7082 76.3556Z" fill="white"/>
<path d="M46.3962 76.5691C46.9722 76.4902 47.438 76.5501 47.7936 76.749C48.144 76.9486 48.3564 77.2613 48.431 77.6871L47.575 77.8045C47.5427 77.6474 47.4408 77.5133 47.2695 77.4022C47.0981 77.2911 46.8381 77.2595 46.4894 77.3073C46.1935 77.3479 45.9689 77.4379 45.8158 77.5773C45.6627 77.7168 45.598 77.8737 45.622 78.048C45.6437 78.2066 45.7241 78.322 45.8633 78.3945C45.9978 78.4729 46.2152 78.5077 46.5155 78.4988L46.941 78.4809C47.3861 78.4683 47.7526 78.5499 48.0404 78.7258C48.3231 78.9023 48.489 79.1703 48.5383 79.5296C48.5774 79.8149 48.539 80.0651 48.4232 80.2802C48.3073 80.4952 48.1325 80.6726 47.8986 80.8124C47.6595 80.9528 47.3761 81.0455 47.0485 81.0904C46.5412 81.16 46.1162 81.1025 45.7733 80.9181C45.4311 80.7389 45.225 80.4334 45.155 80.0016L46.0031 79.8853C46.0361 80.0476 46.1316 80.1745 46.2894 80.2659C46.4473 80.3573 46.6663 80.3838 46.9463 80.3454C47.2105 80.3092 47.4067 80.2285 47.5349 80.1032C47.6578 79.9787 47.708 79.8345 47.6855 79.6707C47.6652 79.5228 47.5965 79.4138 47.4792 79.3437C47.3619 79.2737 47.1826 79.2418 46.9412 79.2479L46.5157 79.2659C46.0276 79.279 45.6287 79.1964 45.3189 79.0182C45.0046 78.846 44.8214 78.5696 44.7692 78.1892C44.7315 77.9144 44.7752 77.6635 44.9002 77.4364C45.0251 77.2093 45.217 77.0188 45.4759 76.8649C45.7301 76.717 46.0369 76.6184 46.3962 76.5691Z" fill="white"/>
</svg>
