<svg width="132" height="44" viewBox="0 0 132 44" fill="none" xmlns="http://www.w3.org/2000/svg">
<path d="M8 0H35V37H27V7H8V0Z" fill="black"/>
<path fill-rule="evenodd" clip-rule="evenodd" d="M26.7119 21.9643H26.7114V21.7866C26.7114 17.129 25.5498 13.4279 23.2001 10.8539C20.8598 8.29033 17.5967 7.01163 13.4362 7H27V44H0V7H7.99982V21.9692H8.00031V36.9336H13.3793C17.5672 36.9336 20.8495 35.655 23.2006 33.0796C25.5503 30.5056 26.7119 26.8045 26.7119 22.1469V21.9643Z" fill="black"/>
<path d="M53.4635 39.2002C50.2002 39.2002 47.6554 38.5116 45.8292 37.1344C44.0329 35.7572 43.0898 33.8561 43 31.4311H47.85C47.9099 32.3293 48.374 33.1526 49.2422 33.9011C50.1104 34.6495 51.5325 35.0237 53.5084 35.0237C55.185 35.0237 56.5023 34.6944 57.4603 34.0358C58.4184 33.3771 58.8974 32.5538 58.8974 31.5658C58.8974 30.6677 58.5381 29.9641 57.8196 29.4552C57.131 28.9163 55.9484 28.557 54.2719 28.3774L51.8918 28.1529C49.4069 27.8834 47.4309 27.1499 45.9639 25.9524C44.5269 24.7548 43.8083 23.1381 43.8083 21.1023C43.8083 19.4856 44.2125 18.1234 45.0209 17.0157C45.8292 15.908 46.9369 15.0547 48.344 14.456C49.7811 13.8572 51.4277 13.5578 53.2839 13.5578C56.158 13.5578 58.4782 14.2015 60.2446 15.4888C62.011 16.7463 62.9241 18.6025 62.984 21.0574H58.1788C58.119 20.1293 57.6849 19.3509 56.8765 18.7222C56.0682 18.0935 54.8706 17.7791 53.2839 17.7791C51.787 17.7791 50.6343 18.0785 49.826 18.6773C49.0476 19.2761 48.6584 20.0395 48.6584 20.9676C48.6584 21.8059 48.9578 22.4645 49.5565 22.9435C50.1553 23.4226 51.1283 23.7369 52.4756 23.8866L54.8557 24.1111C57.5801 24.4105 59.7357 25.174 61.3224 26.4014C62.9391 27.599 63.7474 29.2755 63.7474 31.4311C63.7474 32.9879 63.3133 34.3501 62.4451 35.5177C61.5769 36.6853 60.3644 37.5985 58.8076 38.2571C57.2807 38.8858 55.4993 39.2002 53.4635 39.2002Z" fill="black"/>
<path d="M84.0893 38.4817V31.2515H83.236V23.0783C83.236 21.5813 82.8468 20.4437 82.0684 19.6653C81.29 18.8869 80.1374 18.4977 78.6105 18.4977C77.7722 18.4977 76.8441 18.5126 75.8262 18.5426C74.8083 18.5725 73.8054 18.6174 72.8174 18.6773C71.8594 18.7072 71.0061 18.7521 70.2576 18.812V14.2763C70.9163 14.2165 71.6348 14.1715 72.4132 14.1416C73.2216 14.0817 74.0449 14.0368 74.8832 14.0069C75.7514 13.9769 76.5747 13.962 77.3531 13.962C79.808 13.962 81.8439 14.2763 83.4605 14.905C85.0772 15.5338 86.2748 16.5367 87.0532 17.9139C87.8615 19.2611 88.2657 21.0724 88.2657 23.3477V38.4817H84.0893ZM76.2304 39.1104C74.464 39.1104 72.9222 38.811 71.6049 38.2122C70.2876 37.5835 69.2697 36.6853 68.5511 35.5177C67.8326 34.3202 67.4734 32.8981 67.4734 31.2515C67.4734 29.5151 67.8775 28.078 68.6859 26.9403C69.5242 25.8027 70.7067 24.9494 72.2336 24.3806C73.7605 23.8118 75.5867 23.5273 77.7123 23.5273H83.7749V26.9852H77.5776C75.9909 26.9852 74.7784 27.3744 73.9401 28.1529C73.1018 28.9013 72.6827 29.8893 72.6827 31.1168C72.6827 32.3442 73.1018 33.3322 73.9401 34.0807C74.7784 34.7992 75.9909 35.1585 77.5776 35.1585C78.5057 35.1585 79.3889 34.9938 80.2272 34.6645C81.0655 34.3052 81.754 33.7214 82.2929 32.9131C82.8618 32.1047 83.1761 30.9671 83.236 29.5001L84.5832 31.2515C84.4335 32.958 84.0144 34.395 83.3258 35.5626C82.6672 36.7003 81.7391 37.5835 80.5415 38.2122C79.3739 38.811 77.9369 39.1104 76.2304 39.1104Z" fill="black"/>
<path d="M96.7557 38.4817V14.2763H102.01V38.4817H96.7557ZM93.208 18.318V14.2763H102.01V18.318H93.208ZM98.4622 10.9082C97.3844 10.9082 96.5761 10.6238 96.0372 10.055C95.5282 9.48617 95.2738 8.75267 95.2738 7.85451C95.2738 6.9863 95.5282 6.26777 96.0372 5.69894C96.5761 5.10017 97.3844 4.80078 98.4622 4.80078C99.5699 4.80078 100.378 5.10017 100.887 5.69894C101.426 6.26777 101.696 6.9863 101.696 7.85451C101.696 8.75267 101.426 9.48617 100.887 10.055C100.378 10.6238 99.5699 10.9082 98.4622 10.9082Z" fill="black"/>
<path d="M109.841 38.4817V14.2763H114.018V24.65H113.524C113.524 22.255 113.838 20.2341 114.467 18.5875C115.125 16.9409 116.113 15.6984 117.431 14.8601C118.748 13.9919 120.379 13.5578 122.325 13.5578H122.55C125.544 13.5578 127.774 14.5009 129.241 16.387C130.708 18.2731 131.442 21.0275 131.442 24.65V38.4817H126.188V23.9315C126.188 22.255 125.709 20.9077 124.75 19.8898C123.792 18.842 122.475 18.318 120.799 18.318C119.092 18.318 117.715 18.8569 116.667 19.9347C115.619 20.9826 115.095 22.3897 115.095 24.1561V38.4817H109.841Z" fill="black"/>
</svg>
