<svg width="46" height="50" viewBox="0 0 46 50" fill="none" xmlns="http://www.w3.org/2000/svg">
<path d="M19.5623 0L0 49.7207H22.8226H45.6453L26.083 0H19.5623Z" fill="white"/>
<path d="M19.5623 0L0 49.7207C7.60754 50.5358 22.8226 50.0468 22.8226 41.5698C22.8226 50.0468 38.0377 50.5358 45.6453 49.7207L26.083 0H19.5623Z" fill="black"/>
<path d="M21.1927 40.7561H24.4531L28.5286 33.4202C28.5286 33.4202 30.7824 34.0438 31.789 35.0504C32.7956 36.057 33.4191 38.3108 33.4191 38.3108C33.4191 38.3108 35.7897 31.1063 33.4191 27.7146C32.2515 26.044 29.3437 24.4542 29.3437 24.4542C29.3437 24.4542 27.7135 5.70703 22.823 5.70703C17.9324 5.70703 16.3021 24.4542 16.3021 24.4542C16.3021 24.4542 13.9896 26.1835 13.0418 27.7146C10.8637 31.233 13.0418 38.3108 13.0418 38.3108C13.0418 38.3108 13.6999 36.0903 14.672 35.0504C15.4558 34.212 17.1172 33.4202 17.1172 33.4202L21.1927 40.7561Z" fill="white" stroke="black"/>
<ellipse cx="22.823" cy="21.1862" rx="3.26037" ry="3.26038" fill="black"/>
</svg>
