<svg width="46" height="50" viewBox="0 0 46 50" fill="none" xmlns="http://www.w3.org/2000/svg">
<path d="M22.0494 16.9551V47.4603C22.0494 50.7523 16.5654 50.7523 16.5654 47.4603V16.9551H12.5081C9.58273 16.9551 9.65447 12.3957 12.5798 12.3957H16.5654V10.7537C16.5654 1.18045 27.9799 -3.01231 34.9705 2.37611C37.6009 4.61597 34.1415 8.13119 31.8937 6.18626C28.8168 3.34857 22.0494 5.06234 22.0494 10.8254V12.3957H29.2632C31.9654 12.3957 31.9654 16.9551 29.2632 16.9551H22.0494Z" fill="black"/>
<path d="M22.0643 16.8711H16.5961V32.4945H22.0643V16.8711Z" fill="black"/>
<path d="M20.0642 50H18.5959C17.4914 50 16.5959 49.1046 16.5959 48V32.4236H22.0642V48C22.0642 49.1046 21.1687 50 20.0642 50Z" fill="black"/>
</svg>
