<svg width="34" height="30" viewBox="0 0 34 30" fill="none" xmlns="http://www.w3.org/2000/svg">
<path d="M26.5305 2H6.93047C6.22629 2.00065 4.73319 2.00048 3.73053 2.00026C3.17797 2.00015 2.73064 2.44755 2.73077 3.00011C2.731 3.92932 2.73116 5.26265 2.73047 5.9V24.1C2.73116 24.7373 2.731 26.0707 2.73077 26.9999C2.73064 27.5525 3.17796 27.9999 3.73053 27.9997C4.73319 27.9995 6.22629 27.9993 6.93047 28H26.5305C27.2346 27.9993 28.7277 27.9995 29.7304 27.9997C30.283 27.9999 30.7303 27.5525 30.7302 26.9999C30.7299 26.0707 30.7298 24.7373 30.7305 24.1V5.9C30.7298 5.26265 30.7299 3.92934 30.7302 3.00016C30.7303 2.4476 30.283 2.0002 29.7304 2.00031C28.7278 2.00051 27.2347 2.00065 26.5305 2ZM23.7305 9.8C21.4065 9.8 19.7321 12.6301 17.9569 15.6266C15.8681 19.1535 13.7079 22.8 9.73047 22.8C9.35917 22.8 9.00307 22.663 8.74052 22.4192C8.47797 22.1754 8.33047 21.8448 8.33047 21.5C8.33047 21.1552 8.47797 20.8246 8.74052 20.5808C9.00307 20.337 9.35917 20.2 9.73047 20.2C12.0545 20.2 13.7289 17.3699 15.5041 14.3734C17.5929 10.8465 19.7531 7.2 23.7305 7.2C24.1018 7.2 24.4579 7.33696 24.7204 7.58076C24.983 7.82456 25.1305 8.15522 25.1305 8.5C25.1305 8.84478 24.983 9.17544 24.7204 9.41924C24.4579 9.66304 24.1018 9.8 23.7305 9.8Z" fill="black"/>
</svg>
