<svg width="74" height="38" viewBox="0 0 74 38" fill="none" xmlns="http://www.w3.org/2000/svg">
<path d="M0.180859 37L16.7809 0.549998H24.5309L41.1809 37H34.6809L30.8809 28.65H10.4309L6.68086 37H0.180859ZM12.2309 24.05H29.1309L22.6809 9.95L20.7809 5.55H20.5809L18.6809 10L12.2309 24.05ZM57.1965 37.45C55.2298 37.45 53.4298 37.1333 51.7965 36.5C50.1965 35.8667 48.8132 34.95 47.6465 33.75C46.4798 32.55 45.5798 31.1167 44.9465 29.45C44.3465 27.75 44.0465 25.8667 44.0465 23.8C44.0465 21 44.5965 18.5833 45.6965 16.55C46.7965 14.4833 48.3298 12.9 50.2965 11.8C52.2965 10.7 54.5798 10.15 57.1465 10.15C58.9798 10.15 60.5965 10.3833 61.9965 10.85C63.4298 11.2833 64.6465 11.9 65.6465 12.7C66.6465 13.5 67.4132 14.4333 67.9465 15.5H68.1965L68.3965 10.55H73.8965V37H68.0965V31.8H67.8465C67.0132 33.5 65.6298 34.8667 63.6965 35.9C61.7632 36.9333 59.5965 37.45 57.1965 37.45ZM58.8465 32.95C60.7798 32.95 62.4298 32.5667 63.7965 31.8C65.1965 31.0333 66.2632 30.0167 66.9965 28.75C67.7298 27.4833 68.0965 26.1167 68.0965 24.65V22.65C68.0965 21.2167 67.7298 19.9 66.9965 18.7C66.2632 17.4667 65.1965 16.4833 63.7965 15.75C62.4298 15.0167 60.7632 14.65 58.7965 14.65C57.0298 14.65 55.4798 15.0167 54.1465 15.75C52.8132 16.45 51.7632 17.4833 50.9965 18.85C50.2632 20.1833 49.8965 21.8333 49.8965 23.8C49.8965 25.6667 50.2632 27.3 50.9965 28.7C51.7298 30.0667 52.7632 31.1167 54.0965 31.85C55.4298 32.5833 57.0132 32.95 58.8465 32.95Z" fill="black"/>
</svg>
