<svg width="41" height="38" viewBox="0 0 41 38" fill="none" xmlns="http://www.w3.org/2000/svg">
<path d="M0.516992 37L7.56699 0.549998H14.067L21.167 37H16.517L14.967 28.55H6.71699L5.16699 37H0.516992ZM7.26699 24.85H14.417L12.167 12.2L10.967 5.1H10.717L9.56699 12.25L7.26699 24.85ZM30.9932 37.5C29.9265 37.5 28.9932 37.2333 28.1932 36.7C27.3932 36.1667 26.7432 35.3667 26.2432 34.3C25.7432 33.2 25.3598 31.7833 25.0932 30.05C24.8265 28.3167 24.6932 26.25 24.6932 23.85C24.6932 20.3167 24.9598 17.5667 25.4932 15.6C26.0265 13.6 26.7598 12.2 27.6932 11.4C28.6598 10.5667 29.7598 10.15 30.9932 10.15C31.8598 10.15 32.5932 10.3167 33.1932 10.65C33.8265 10.9833 34.3598 11.45 34.7932 12.05C35.2265 12.65 35.5932 13.3833 35.8932 14.25H36.0932L36.1932 10.65H40.6932V37H36.0932V33.45H35.8932C35.4598 34.7167 34.8265 35.7167 33.9932 36.45C33.1932 37.15 32.1932 37.5 30.9932 37.5ZM32.7932 33.8C33.4932 33.8 34.0932 33.5 34.5932 32.9C35.0932 32.3 35.4598 31.4 35.6932 30.2C35.9598 28.9667 36.0932 27.45 36.0932 25.65V22.05C36.0932 20.1167 35.9598 18.55 35.6932 17.35C35.4265 16.15 35.0432 15.2667 34.5432 14.7C34.0765 14.1 33.4932 13.8 32.7932 13.8C31.8598 13.8 31.1432 14.2 30.6432 15C30.1765 15.7667 29.8432 16.9 29.6432 18.4C29.4765 19.8667 29.3932 21.6833 29.3932 23.85C29.3932 26.0833 29.4765 27.95 29.6432 29.45C29.8432 30.9167 30.1932 32.0167 30.6932 32.75C31.2265 33.45 31.9265 33.8 32.7932 33.8Z" fill="black"/>
</svg>
