<svg width="288" height="38" viewBox="0 0 288 38" fill="none" xmlns="http://www.w3.org/2000/svg">
<path d="M0.25 37V0.549998H3.15L9.75 33.25H9.8L16.45 0.549998H19.4V37H17.8V16.3L17.95 2.35H17.6L10.55 37H9.1L2 2.35H1.7L1.85 16.3V37H0.25ZM32.2348 37.5C30.5681 37.5 29.2848 36.9333 28.3848 35.8C27.4848 34.6667 26.8681 33.1 26.5348 31.1C26.2014 29.0667 26.0348 26.7333 26.0348 24.1C26.0348 21.4667 26.2014 19.15 26.5348 17.15C26.8681 15.1167 27.4848 13.5333 28.3848 12.4C29.2848 11.2667 30.5681 10.7 32.2348 10.7C33.9348 10.7 35.2181 11.2667 36.0848 12.4C36.9848 13.5 37.6014 15.0667 37.9348 17.1C38.2681 19.1 38.4348 21.4333 38.4348 24.1C38.4348 26.7333 38.2681 29.0667 37.9348 31.1C37.6348 33.1 37.0348 34.6667 36.1348 35.8C35.2348 36.9333 33.9348 37.5 32.2348 37.5ZM32.2348 36.15C33.2014 36.15 34.0348 35.8167 34.7348 35.15C35.4348 34.4833 35.9848 33.2833 36.3848 31.55C36.7848 29.7833 36.9848 27.3 36.9848 24.1C36.9848 20.9 36.7848 18.4333 36.3848 16.7C35.9848 14.9667 35.4348 13.7667 34.7348 13.1C34.0348 12.4 33.2014 12.05 32.2348 12.05C31.3014 12.05 30.4681 12.3833 29.7348 13.05C29.0348 13.7167 28.4848 14.9167 28.0848 16.65C27.6848 18.3833 27.4848 20.8667 27.4848 24.1C27.4848 27.3333 27.6848 29.8167 28.0848 31.55C28.4848 33.2833 29.0348 34.4833 29.7348 35.15C30.4681 35.8167 31.3014 36.15 32.2348 36.15ZM44.8457 37V11.2H46.2457L46.2957 15.05H46.3957C46.7957 13.6167 47.4624 12.5333 48.3957 11.8C49.329 11.0667 50.4457 10.7 51.7457 10.7C55.0457 10.7 56.6957 13.1667 56.6957 18.1V37H55.2457V18.45C55.2457 15.8833 54.8957 14.1667 54.1957 13.3C53.529 12.4333 52.5624 12 51.2957 12C49.4624 12 48.1624 12.9 47.3957 14.7C46.6624 16.4667 46.2957 18.7833 46.2957 21.65V37H44.8457ZM68.8168 37.5C67.6835 37.5 66.6835 37.1167 65.8168 36.35C64.9835 35.55 64.3168 34.1833 63.8168 32.25C63.3501 30.2833 63.1168 27.5833 63.1168 24.15C63.1168 20.75 63.3501 18.0667 63.8168 16.1C64.2835 14.1333 64.9501 12.75 65.8168 11.95C66.6835 11.1167 67.6835 10.7 68.8168 10.7C70.1168 10.7 71.1168 11.1 71.8168 11.9C72.5501 12.7 73.1168 13.75 73.5168 15.05H73.6168L73.6668 11.2H75.0668V37H73.6168V33.15H73.5168C73.1168 34.45 72.5501 35.5 71.8168 36.3C71.1168 37.1 70.1168 37.5 68.8168 37.5ZM69.2168 36.2C70.5168 36.2 71.5668 35.4333 72.3668 33.9C73.2001 32.3333 73.6168 29.9333 73.6168 26.7V21.55C73.6168 18.3833 73.2168 16 72.4168 14.4C71.6168 12.8 70.5501 12 69.2168 12C67.3835 12 66.1501 13.0333 65.5168 15.1C64.9168 17.1667 64.6168 20.1833 64.6168 24.15C64.6168 27.9833 64.9168 30.95 65.5168 33.05C66.1501 35.15 67.3835 36.2 69.2168 36.2ZM102.975 37.4C100.942 37.4 99.3254 36.9167 98.1254 35.95C96.9254 34.9833 96.0587 33.6333 95.5254 31.9C95.0254 30.1333 94.7421 28.0833 94.6754 25.75H96.3754C96.3754 28.2833 96.6421 30.3 97.1754 31.8C97.7421 33.2667 98.5087 34.3167 99.4754 34.95C100.442 35.5833 101.575 35.9 102.875 35.9C105.009 35.9 106.525 35.2167 107.425 33.85C108.325 32.45 108.775 30.6333 108.775 28.4C108.775 26.6 108.492 25.15 107.925 24.05C107.359 22.95 106.592 22.05 105.625 21.35C104.692 20.6167 103.625 19.9333 102.425 19.3C101.292 18.7 100.192 18.0167 99.1254 17.25C98.0587 16.4833 97.1754 15.45 96.4754 14.15C95.8087 12.8167 95.4754 10.9833 95.4754 8.65C95.4754 5.78333 96.1087 3.65 97.3754 2.25C98.6754 0.849998 100.375 0.149998 102.475 0.149998C104.375 0.149998 105.859 0.583331 106.925 1.45C108.025 2.31666 108.809 3.53333 109.275 5.1C109.742 6.63333 109.975 8.43333 109.975 10.5H108.325C108.325 8.13333 108.059 6.31667 107.525 5.05C107.025 3.78333 106.325 2.91666 105.425 2.45C104.525 1.95 103.492 1.7 102.325 1.7C100.425 1.7 99.0754 2.35 98.2754 3.65C97.4754 4.91667 97.0754 6.6 97.0754 8.7C97.0754 10.6333 97.3921 12.1833 98.0254 13.35C98.6587 14.4833 99.4754 15.4 100.475 16.1C101.475 16.8 102.509 17.45 103.575 18.05C104.775 18.6833 105.892 19.4 106.925 20.2C107.992 20.9667 108.842 22 109.475 23.3C110.109 24.5667 110.425 26.3 110.425 28.5C110.425 31.5 109.742 33.7333 108.375 35.2C107.009 36.6667 105.209 37.4 102.975 37.4ZM120.924 37.5C119.791 37.5 118.791 37.1167 117.924 36.35C117.091 35.55 116.424 34.1833 115.924 32.25C115.458 30.2833 115.224 27.5833 115.224 24.15C115.224 20.75 115.458 18.0667 115.924 16.1C116.391 14.1333 117.058 12.75 117.924 11.95C118.791 11.1167 119.791 10.7 120.924 10.7C122.224 10.7 123.224 11.1 123.924 11.9C124.658 12.7 125.224 13.75 125.624 15.05H125.724L125.774 11.2H127.174V37H125.724V33.15H125.624C125.224 34.45 124.658 35.5 123.924 36.3C123.224 37.1 122.224 37.5 120.924 37.5ZM121.324 36.2C122.624 36.2 123.674 35.4333 124.474 33.9C125.308 32.3333 125.724 29.9333 125.724 26.7V21.55C125.724 18.3833 125.324 16 124.524 14.4C123.724 12.8 122.658 12 121.324 12C119.491 12 118.258 13.0333 117.624 15.1C117.024 17.1667 116.724 20.1833 116.724 24.15C116.724 27.9833 117.024 30.95 117.624 33.05C118.258 35.15 119.491 36.2 121.324 36.2ZM134.67 37V11.2H136.07L136.12 15.05H136.22C136.62 13.6167 137.287 12.5333 138.22 11.8C139.153 11.0667 140.27 10.7 141.57 10.7C144.87 10.7 146.52 13.1667 146.52 18.1V37H145.07V18.45C145.07 15.8833 144.72 14.1667 144.02 13.3C143.353 12.4333 142.387 12 141.12 12C139.287 12 137.987 12.9 137.22 14.7C136.487 16.4667 136.12 18.7833 136.12 21.65V37H134.67ZM158.441 37.5C156.708 37.5 155.291 36.85 154.191 35.55C153.091 34.2167 152.541 32.0333 152.541 29H153.941C153.941 31.0667 154.258 32.7667 154.891 34.1C155.558 35.4 156.741 36.05 158.441 36.05C159.808 36.05 160.808 35.6 161.441 34.7C162.074 33.7667 162.391 32.5667 162.391 31.1C162.391 29.8667 162.174 28.85 161.741 28.05C161.308 27.2167 160.741 26.5 160.041 25.9C159.374 25.3 158.624 24.7167 157.791 24.15C156.491 23.25 155.408 22.2667 154.541 21.2C153.674 20.1 153.241 18.5333 153.241 16.5C153.241 14.4333 153.708 12.9667 154.641 12.1C155.574 11.2 156.758 10.75 158.191 10.75C159.258 10.75 160.191 11 160.991 11.5C161.791 11.9667 162.424 12.7833 162.891 13.95C163.358 15.0833 163.574 16.6667 163.541 18.7H162.141C162.108 16.6333 161.791 15.0333 161.191 13.9C160.624 12.7667 159.608 12.2 158.141 12.2C156.841 12.2 155.941 12.6 155.441 13.4C154.941 14.2 154.691 15.25 154.691 16.55C154.691 18.2833 155.124 19.6167 155.991 20.55C156.858 21.45 157.858 22.2833 158.991 23.05C159.891 23.65 160.708 24.3 161.441 25C162.174 25.6667 162.758 26.4833 163.191 27.45C163.624 28.4167 163.841 29.65 163.841 31.15C163.841 33.1833 163.341 34.75 162.341 35.85C161.341 36.95 160.041 37.5 158.441 37.5ZM183.463 37V0.549998H185.813L197.513 34.2H197.763L197.563 20.9V0.549998H199.163V37H196.763L185.163 3.4H184.863L185.063 16.2V37H183.463ZM211.53 37.5C210.396 37.5 209.396 37.1167 208.53 36.35C207.696 35.55 207.03 34.1833 206.53 32.25C206.063 30.2833 205.83 27.5833 205.83 24.15C205.83 20.75 206.063 18.0667 206.53 16.1C206.996 14.1333 207.663 12.75 208.53 11.95C209.396 11.1167 210.396 10.7 211.53 10.7C212.83 10.7 213.83 11.1 214.53 11.9C215.263 12.7 215.83 13.75 216.23 15.05H216.33L216.38 11.2H217.78V37H216.33V33.15H216.23C215.83 34.45 215.263 35.5 214.53 36.3C213.83 37.1 212.83 37.5 211.53 37.5ZM211.93 36.2C213.23 36.2 214.28 35.4333 215.08 33.9C215.913 32.3333 216.33 29.9333 216.33 26.7V21.55C216.33 18.3833 215.93 16 215.13 14.4C214.33 12.8 213.263 12 211.93 12C210.096 12 208.863 13.0333 208.23 15.1C207.63 17.1667 207.33 20.1833 207.33 24.15C207.33 27.9833 207.63 30.95 208.23 33.05C208.863 35.15 210.096 36.2 211.93 36.2ZM225.275 37V11.2H226.675L226.775 15.5H226.825C227.292 13.7333 227.975 12.5 228.875 11.8C229.775 11.0667 230.775 10.7 231.875 10.7C232.242 10.7 232.575 10.75 232.875 10.85V12.55C232.742 12.5167 232.592 12.5 232.425 12.5C232.259 12.4667 232.075 12.45 231.875 12.45C230.042 12.45 228.725 13.2333 227.925 14.8C227.125 16.3667 226.725 18.4333 226.725 21V37H225.275ZM238.543 37V11.2H239.943L240.043 15.5H240.093C240.56 13.7333 241.243 12.5 242.143 11.8C243.043 11.0667 244.043 10.7 245.143 10.7C245.51 10.7 245.843 10.75 246.143 10.85V12.55C246.01 12.5167 245.86 12.5 245.693 12.5C245.526 12.4667 245.343 12.45 245.143 12.45C243.31 12.45 241.993 13.2333 241.193 14.8C240.393 16.3667 239.993 18.4333 239.993 21V37H238.543ZM255.153 37.5C253.486 37.5 252.203 36.9333 251.303 35.8C250.403 34.6667 249.786 33.1 249.453 31.1C249.119 29.0667 248.953 26.7333 248.953 24.1C248.953 21.4667 249.119 19.15 249.453 17.15C249.786 15.1167 250.403 13.5333 251.303 12.4C252.203 11.2667 253.486 10.7 255.153 10.7C256.853 10.7 258.136 11.2667 259.003 12.4C259.903 13.5 260.519 15.0667 260.853 17.1C261.186 19.1 261.353 21.4333 261.353 24.1C261.353 26.7333 261.186 29.0667 260.853 31.1C260.553 33.1 259.953 34.6667 259.053 35.8C258.153 36.9333 256.853 37.5 255.153 37.5ZM255.153 36.15C256.119 36.15 256.953 35.8167 257.653 35.15C258.353 34.4833 258.903 33.2833 259.303 31.55C259.703 29.7833 259.903 27.3 259.903 24.1C259.903 20.9 259.703 18.4333 259.303 16.7C258.903 14.9667 258.353 13.7667 257.653 13.1C256.953 12.4 256.119 12.05 255.153 12.05C254.219 12.05 253.386 12.3833 252.653 13.05C251.953 13.7167 251.403 14.9167 251.003 16.65C250.603 18.3833 250.403 20.8667 250.403 24.1C250.403 27.3333 250.603 29.8167 251.003 31.55C251.403 33.2833 251.953 34.4833 252.653 35.15C253.386 35.8167 254.219 36.15 255.153 36.15ZM269.964 37L265.464 11.2H266.814L270.964 35.5H271.064L275.464 11.2H277.264L281.914 35.45H281.964L285.964 11.2H287.314L282.864 37H280.914L276.364 13.55H276.214L272.064 37H269.964Z" fill="black"/>
</svg>
