<svg width="287" height="38" viewBox="0 0 287 38" fill="none" xmlns="http://www.w3.org/2000/svg">
<path d="M0.596875 37V0.549998H3.69688L19.9469 34.5H20.0469L36.3469 0.549998H39.4969V37H37.5469V16L37.6969 2.7H37.3469L20.8969 37H19.1969L2.69688 2.7H2.39688L2.49688 16V37H0.596875ZM60.893 37.5C58.7596 37.5 56.8096 37.1833 55.043 36.55C53.3096 35.9167 51.8096 35.0167 50.543 33.85C49.2763 32.65 48.293 31.2333 47.593 29.6C46.9263 27.9667 46.593 26.15 46.593 24.15C46.593 21.45 47.193 19.1 48.393 17.1C49.593 15.1 51.2596 13.55 53.393 12.45C55.5596 11.3167 58.0596 10.75 60.893 10.75C63.0263 10.75 64.9596 11.0667 66.693 11.7C68.4596 12.3333 69.9763 13.25 71.243 14.45C72.5096 15.6167 73.4763 17.0333 74.143 18.7C74.843 20.3333 75.193 22.15 75.193 24.15C75.193 26.7833 74.593 29.1167 73.393 31.15C72.193 33.15 70.5263 34.7167 68.393 35.85C66.2596 36.95 63.7596 37.5 60.893 37.5ZM60.893 35.75C63.393 35.75 65.5596 35.2833 67.393 34.35C69.2596 33.3833 70.7096 32.0333 71.743 30.3C72.7763 28.5333 73.293 26.4833 73.293 24.15C73.293 22.3833 72.993 20.7833 72.393 19.35C71.8263 17.9167 70.993 16.7 69.893 15.7C68.8263 14.6667 67.5263 13.8833 65.993 13.35C64.4596 12.7833 62.7596 12.5 60.893 12.5C58.393 12.5 56.2096 12.9833 54.343 13.95C52.5096 14.8833 51.0763 16.2333 50.043 18C49.0096 19.7333 48.493 21.7833 48.493 24.15C48.493 25.8833 48.7763 27.4667 49.343 28.9C49.943 30.3333 50.7763 31.5667 51.843 32.6C52.943 33.6 54.2596 34.3833 55.793 34.95C57.3263 35.4833 59.0263 35.75 60.893 35.75ZM82.0578 37V11.15H83.9078V17.65H84.1578C85.2245 15.4167 86.8245 13.7167 88.9578 12.55C91.0911 11.35 93.4411 10.75 96.0078 10.75C97.6745 10.75 99.1911 10.9667 100.558 11.4C101.958 11.8333 103.158 12.5167 104.158 13.45C105.158 14.3833 105.941 15.6333 106.508 17.2C107.074 18.7333 107.358 20.6167 107.358 22.85V37H105.508V23.15C105.508 20.5833 105.124 18.5167 104.358 16.95C103.624 15.3833 102.541 14.25 101.108 13.55C99.6745 12.8167 97.9078 12.45 95.8078 12.45C93.4745 12.45 91.4078 12.95 89.6078 13.95C87.8411 14.9167 86.4411 16.2833 85.4078 18.05C84.4078 19.7833 83.9078 21.8333 83.9078 24.2V37H82.0578ZM126.755 37.45C124.789 37.45 123.005 37.1333 121.405 36.5C119.805 35.8667 118.422 34.9667 117.255 33.8C116.089 32.6 115.189 31.1833 114.555 29.55C113.955 27.9167 113.655 26.0833 113.655 24.05C113.655 21.2833 114.205 18.9167 115.305 16.95C116.405 14.95 117.939 13.4167 119.905 12.35C121.872 11.25 124.155 10.7 126.755 10.7C128.722 10.7 130.489 10.9667 132.055 11.5C133.622 12.0333 134.955 12.7833 136.055 13.75C137.189 14.7167 138.022 15.8333 138.555 17.1H138.755L138.855 11.15H140.605V37H138.755V30.5H138.555C137.755 32.5667 136.272 34.25 134.105 35.55C131.972 36.8167 129.522 37.45 126.755 37.45ZM126.955 35.75C129.455 35.75 131.572 35.25 133.305 34.25C135.072 33.25 136.422 31.9667 137.355 30.4C138.289 28.8 138.755 27.1 138.755 25.3V22.3C138.755 20.6 138.289 19 137.355 17.5C136.422 15.9667 135.072 14.7333 133.305 13.8C131.572 12.8667 129.455 12.4 126.955 12.4C124.689 12.4 122.689 12.8667 120.955 13.8C119.255 14.7 117.922 16.0167 116.955 17.75C116.022 19.4833 115.555 21.5833 115.555 24.05C115.555 26.3833 116.022 28.4333 116.955 30.2C117.922 31.9667 119.255 33.3333 120.955 34.3C122.655 35.2667 124.655 35.75 126.955 35.75ZM176.743 37.4C173.043 37.4 170.043 36.9167 167.743 35.95C165.443 34.95 163.726 33.5833 162.593 31.85C161.493 30.0833 160.859 28.05 160.693 25.75H162.793C162.926 28.0167 163.543 29.8833 164.643 31.35C165.743 32.8167 167.309 33.9167 169.343 34.65C171.409 35.35 173.876 35.7 176.743 35.7C181.143 35.7 184.393 34.9667 186.493 33.5C188.593 32 189.643 29.9833 189.643 27.45C189.643 25.8167 189.309 24.5 188.643 23.5C187.976 22.5 187.026 21.7167 185.793 21.15C184.593 20.5833 183.159 20.15 181.493 19.85C179.859 19.5167 178.076 19.2167 176.143 18.95C174.209 18.6833 172.376 18.3833 170.643 18.05C168.909 17.7167 167.376 17.2333 166.043 16.6C164.743 15.9667 163.709 15.0833 162.943 13.95C162.176 12.8167 161.793 11.3333 161.793 9.5C161.793 7.5 162.376 5.81667 163.543 4.45C164.743 3.05 166.393 1.98333 168.493 1.25C170.626 0.516665 173.093 0.149998 175.893 0.149998C178.993 0.149998 181.593 0.583331 183.693 1.45C185.793 2.31666 187.376 3.53333 188.443 5.1C189.543 6.63333 190.126 8.45 190.193 10.55H188.193C188.126 8.58333 187.576 6.96667 186.543 5.7C185.543 4.4 184.126 3.43333 182.293 2.8C180.493 2.16667 178.326 1.85 175.793 1.85C173.259 1.85 171.093 2.16667 169.293 2.8C167.493 3.4 166.109 4.26667 165.143 5.4C164.209 6.5 163.743 7.83333 163.743 9.4C163.743 11.3667 164.276 12.8333 165.343 13.8C166.409 14.7667 167.909 15.4667 169.843 15.9C171.776 16.3333 174.043 16.7333 176.643 17.1C178.609 17.3667 180.493 17.6833 182.293 18.05C184.093 18.3833 185.693 18.9 187.093 19.6C188.493 20.2667 189.593 21.2167 190.393 22.45C191.226 23.6833 191.643 25.3333 191.643 27.4C191.643 29.4333 191.076 31.2 189.943 32.7C188.843 34.2 187.193 35.3667 184.993 36.2C182.793 37 180.043 37.4 176.743 37.4ZM210.113 37.45C208.146 37.45 206.363 37.1333 204.763 36.5C203.163 35.8667 201.78 34.9667 200.613 33.8C199.446 32.6 198.546 31.1833 197.913 29.55C197.313 27.9167 197.013 26.0833 197.013 24.05C197.013 21.2833 197.563 18.9167 198.663 16.95C199.763 14.95 201.296 13.4167 203.263 12.35C205.23 11.25 207.513 10.7 210.113 10.7C212.08 10.7 213.846 10.9667 215.413 11.5C216.98 12.0333 218.313 12.7833 219.413 13.75C220.546 14.7167 221.38 15.8333 221.913 17.1H222.113L222.213 11.15H223.963V37H222.113V30.5H221.913C221.113 32.5667 219.63 34.25 217.463 35.55C215.33 36.8167 212.88 37.45 210.113 37.45ZM210.313 35.75C212.813 35.75 214.93 35.25 216.663 34.25C218.43 33.25 219.78 31.9667 220.713 30.4C221.646 28.8 222.113 27.1 222.113 25.3V22.3C222.113 20.6 221.646 19 220.713 17.5C219.78 15.9667 218.43 14.7333 216.663 13.8C214.93 12.8667 212.813 12.4 210.313 12.4C208.046 12.4 206.046 12.8667 204.313 13.8C202.613 14.7 201.28 16.0167 200.313 17.75C199.38 19.4833 198.913 21.5833 198.913 24.05C198.913 26.3833 199.38 28.4333 200.313 30.2C201.28 31.9667 202.613 33.3333 204.313 34.3C206.013 35.2667 208.013 35.75 210.313 35.75ZM232.087 37V11.15H233.937V17.65H234.187C235.254 15.4167 236.854 13.7167 238.987 12.55C241.12 11.35 243.47 10.75 246.037 10.75C247.704 10.75 249.22 10.9667 250.587 11.4C251.987 11.8333 253.187 12.5167 254.187 13.45C255.187 14.3833 255.97 15.6333 256.537 17.2C257.104 18.7333 257.387 20.6167 257.387 22.85V37H255.537V23.15C255.537 20.5833 255.154 18.5167 254.387 16.95C253.654 15.3833 252.57 14.25 251.137 13.55C249.704 12.8167 247.937 12.45 245.837 12.45C243.504 12.45 241.437 12.95 239.637 13.95C237.87 14.9167 236.47 16.2833 235.437 18.05C234.437 19.7833 233.937 21.8333 233.937 24.2V37H232.087ZM274.939 37.5C272.406 37.5 270.223 37.15 268.389 36.45C266.556 35.7167 265.139 34.7167 264.139 33.45C263.173 32.1833 262.689 30.7 262.689 29H264.539C264.539 31.1 265.473 32.7667 267.339 34C269.206 35.2333 271.739 35.85 274.939 35.85C277.839 35.85 280.189 35.4333 281.989 34.6C283.789 33.7333 284.689 32.3333 284.689 30.4C284.689 29.0333 284.373 27.9833 283.739 27.25C283.139 26.4833 282.106 25.9167 280.639 25.55C279.206 25.1833 277.239 24.8667 274.739 24.6C272.239 24.3333 270.156 23.9667 268.489 23.5C266.856 23 265.639 22.3 264.839 21.4C264.039 20.4667 263.639 19.2333 263.639 17.7C263.639 16.2 264.106 14.9333 265.039 13.9C265.973 12.8333 267.273 12.0333 268.939 11.5C270.606 10.9333 272.539 10.65 274.739 10.65C277.173 10.65 279.189 10.9833 280.789 11.65C282.389 12.3167 283.623 13.25 284.489 14.45C285.356 15.6167 285.839 17.0167 285.939 18.65H284.089C283.989 17.15 283.523 15.9333 282.689 15C281.856 14.0667 280.756 13.3833 279.389 12.95C278.023 12.5167 276.473 12.3 274.739 12.3C272.106 12.3 269.906 12.7333 268.139 13.6C266.373 14.4333 265.489 15.7833 265.489 17.65C265.489 18.8167 265.823 19.7333 266.489 20.4C267.156 21.0667 268.189 21.5833 269.589 21.95C270.989 22.3167 272.773 22.6167 274.939 22.85C276.906 23.05 278.623 23.3 280.089 23.6C281.556 23.9 282.773 24.3167 283.739 24.85C284.706 25.35 285.423 26.0333 285.889 26.9C286.356 27.7667 286.589 28.8833 286.589 30.25C286.589 32.4167 285.623 34.1667 283.689 35.5C281.756 36.8333 278.839 37.5 274.939 37.5Z" fill="black"/>
</svg>
