<svg width="178" height="178" viewBox="0 0 178 178" fill="none" xmlns="http://www.w3.org/2000/svg">
<path d="M30.3704 31.4331L29.9101 31.427L29.9326 28.8734L28.1339 30.6255L27.8095 30.2925L29.6414 28.5079L27.1319 28.464L27.1379 28.0038L29.6913 28.0481L27.9391 26.2495L28.2833 25.9142L29.9597 27.6351L29.9913 25.2241L30.4516 25.2301L30.4186 27.7508L32.2505 25.9662L32.575 26.2992L30.7764 28.0514L33.3408 28.085L33.3345 28.5672L30.825 28.5234L32.6096 30.3553L32.2654 30.6906L30.4051 28.7809L30.3704 31.4331Z" fill="white"/>
<path d="M45.6288 26.2142L40.987 19.2634L38.2839 21.0685L36.9086 19.009L44.8892 13.6795L46.2645 15.7391L43.5614 17.5442L48.2032 24.495L45.6288 26.2142Z" fill="white"/>
<path d="M52.0568 22.0531L47.408 12.2495L52.4499 9.85869C55.2509 8.53046 57.1018 9.53974 57.8988 11.2204C58.4898 12.4668 58.4365 13.6929 57.4572 14.7749L61.3069 17.684L58.3658 19.0786L55.0882 16.327L53.1975 17.2236L54.8578 20.7249L52.0568 22.0531ZM51.1388 12.882L52.3342 15.4029L54.435 14.4068C55.2753 14.0083 55.4298 13.2488 55.0977 12.5486C54.7657 11.8483 54.0799 11.4874 53.2396 11.8858L51.1388 12.882Z" fill="white"/>
<path d="M61.9158 17.4105L61.6501 6.17103L67.0884 4.55601L72.7032 14.2069L69.6423 15.1159L68.6526 13.3078L64.9082 14.4198L65.0361 16.4838L61.9158 17.4105ZM64.7506 12.3646L67.7075 11.4865L64.6119 6.18074L64.5228 6.20722L64.7506 12.3646Z" fill="white"/>
<path d="M73.5099 14.1241L72.0207 3.407L77.6855 2.61981C80.4719 2.23261 81.7576 2.725 82.015 4.57753C82.3129 6.72096 80.5373 7.42026 78.3748 7.58032L78.4131 7.8559C81.1936 7.31346 82.8637 7.31547 83.2062 9.78041C83.4913 11.832 82.3286 12.8987 79.3278 13.3157L73.5099 14.1241ZM75.6678 7.1918L77.8112 6.89395C78.6686 6.7748 78.985 6.3563 78.8637 5.48362C78.7573 4.71811 78.3452 4.44765 77.4878 4.56679L75.3444 4.86465L75.6678 7.1918ZM76.2912 11.6777L78.5877 11.3586C79.6594 11.2096 80.0676 10.7784 79.9464 9.90568C79.8123 8.94114 79.2935 8.57628 78.2217 8.7252L75.9252 9.04433L76.2912 11.6777Z" fill="white"/>
<path d="M84.7341 12.5713L87.8454 1.76777L93.5177 1.8549L95.9858 12.7441L92.7931 12.695L92.3901 10.6736L88.4846 10.6136L87.9887 12.6213L84.7341 12.5713ZM88.9495 8.60554L92.0336 8.65291L90.6685 2.66374L90.5755 2.66231L88.9495 8.60554Z" fill="white"/>
<path d="M97.2317 9.04914L100.141 9.50477L100.021 10.2704C99.8871 11.128 100.105 11.5387 100.748 11.6394C101.392 11.7401 101.725 11.4157 101.859 10.5582L103.058 2.90151L106.121 3.38111L104.922 11.0378C104.552 13.3961 103.2 14.2197 100.413 13.7833C97.7328 13.3636 96.7426 12.1731 97.1118 9.81481L97.2317 9.04914Z" fill="white"/>
<path d="M106.23 14.4495L109.203 4.01463L117.252 6.30766L116.658 8.39464L111.59 6.95088L111.037 8.88879L115.51 10.1627L114.915 12.2497L110.443 10.9758L109.806 13.2118L114.874 14.6556L114.28 16.7426L106.23 14.4495Z" fill="white"/>
<path d="M115.899 17.0403L120.611 7.19153L125.676 9.6145L122.582 19.0443L122.667 19.0847L128.011 10.7318L133.076 13.1547L128.365 23.0035L125.776 21.765L129.976 12.9856L129.892 12.9452L124.425 21.1189L119.839 18.9248L122.759 9.56775L122.674 9.52736L118.488 18.2787L115.899 17.0403Z" fill="white"/>
<path d="M132.43 19.3243C134.707 16.17 137.073 15.8325 140.328 18.1825C143.583 20.5325 144.007 22.8843 141.729 26.0386C139.452 29.1928 137.086 29.5303 133.831 27.1803C130.577 24.8303 130.153 22.4785 132.43 19.3243ZM134.943 21.1389C133.591 23.0114 133.74 24.3419 135.147 25.3581C136.555 26.3744 137.864 26.0963 139.216 24.2239C140.568 22.3515 140.42 21.0209 139.012 20.0047C137.605 18.9885 136.295 19.2665 134.943 21.1389Z" fill="white"/>
<path d="M141.792 28.666L143.812 30.6449C143.152 31.3184 143.359 32.2998 144.066 32.9919C144.695 33.6083 145.474 33.9171 145.993 33.3872C147.464 31.8857 142.351 28.8678 144.605 26.014C146.105 24.1079 148.43 24.9143 150.229 26.677C152.139 28.5478 152.717 30.498 151.009 32.2861L149.022 30.3396C149.767 29.5341 149.167 28.5786 148.759 28.1785C148.152 27.5837 147.428 27.329 146.919 27.8479C145.546 29.25 151.044 32.4715 148.2 35.3752C146.513 37.0975 144.463 36.5395 142.476 34.593C140.157 32.3221 140.169 30.322 141.792 28.666Z" fill="white"/>
<path d="M152.525 39.5097L154.21 41.9248L153.574 42.3683C152.863 42.865 152.717 43.3067 153.09 43.8406C153.462 44.3744 153.927 44.3903 154.639 43.8936L160.994 39.4583L162.768 42.0005L156.413 46.4357C154.456 47.8018 152.925 47.3958 151.31 45.0824C149.758 42.858 149.932 41.3193 151.889 39.9532L152.525 39.5097Z" fill="white"/>
<path d="M161.616 53.9457L167.684 50.8326L169.099 53.5907L163.031 56.7039C160.328 58.0907 158.512 57.4025 156.976 54.4098C155.441 51.4172 155.941 49.5403 158.644 48.1536L164.712 45.0404L166.127 47.7986L160.059 50.9117C158.804 51.5556 158.5 52.2866 159.045 53.3485C159.59 54.4104 160.361 54.5896 161.616 53.9457Z" fill="white"/>
<path d="M160.357 60.5626L170.7 57.2873L172.385 62.607L163.669 68.4559L163.697 68.5446L173.302 65.5033L174.163 68.2222L163.819 71.4975L162.135 66.1778L170.851 60.3289L170.823 60.2402L161.218 63.2815L160.357 60.5626Z" fill="white"/>
<path d="M164.522 75.9319L172.798 74.6759L172.309 71.4578L174.761 71.0856L176.203 80.5868L173.751 80.959L173.263 77.7408L164.988 78.9968L164.522 75.9319Z" fill="white"/>
<path d="M171.082 82.7167C174.973 82.7119 176.634 84.4304 176.638 88.4449C176.643 92.4594 174.987 94.1819 171.096 94.1867C167.206 94.1914 165.545 92.4729 165.54 88.4584C165.536 84.4439 167.192 82.7214 171.082 82.7167ZM171.086 85.8167C168.777 85.8195 167.786 86.7197 167.788 88.4557C167.79 90.1917 168.783 91.0895 171.093 91.0867C173.402 91.0838 174.393 90.1836 174.391 88.4476C174.389 86.7116 173.396 85.8138 171.086 85.8167Z" fill="white"/>
<path d="M169.123 95.7772L168.729 98.5862C167.792 98.4549 167.124 99.2064 166.986 100.189C166.863 101.064 167.078 101.876 167.815 101.98C169.902 102.272 169.293 96.3489 172.938 96.4686C175.37 96.5434 176.104 98.9001 175.753 101.402C175.381 104.058 174.151 105.685 171.69 105.372L172.078 102.609C173.172 102.731 173.586 101.677 173.665 101.109C173.784 100.265 173.558 99.5293 172.837 99.4281C170.887 99.1549 171.561 105.51 167.524 104.944C165.13 104.608 164.36 102.622 164.747 99.8593C165.199 96.6358 166.82 95.4544 169.123 95.7772Z" fill="white"/>
<path d="M167.644 114.217L168.058 114.016L169.187 116.306L170.004 113.932L170.444 114.083L169.611 116.501L171.872 115.411L172.074 115.825L169.774 116.934L172.148 117.752L171.992 118.206L169.72 117.424L170.777 119.591L170.363 119.793L169.258 117.527L168.426 119.945L167.986 119.794L168.803 117.42L166.498 118.544L166.287 118.111L168.547 117.02L166.129 116.188L166.286 115.733L168.807 116.601L167.644 114.217Z" fill="white"/>
<path d="M158.313 136.357L159.879 133.694C160.995 134.081 161.75 133.773 162.4 132.668C163.276 131.176 162.8 130.036 160.803 128.862C158.819 127.696 157.591 127.834 156.715 129.325C156.065 130.43 156.162 131.239 157.043 132.026L155.477 134.689C153.426 132.784 153.213 130.831 154.771 128.182C156.799 124.733 159.027 124.234 162.369 126.199C165.724 128.172 166.371 130.362 164.343 133.811C162.684 136.633 160.873 137.396 158.313 136.357Z" fill="white"/>
<path d="M155.761 137.458C158.762 139.974 158.929 142.374 156.333 145.471C153.737 148.567 151.346 148.822 148.344 146.306C145.343 143.791 145.176 141.391 147.772 138.294C150.368 135.197 152.76 134.943 155.761 137.458ZM153.757 139.85C151.975 138.356 150.629 138.408 149.506 139.747C148.384 141.087 148.567 142.422 150.349 143.915C152.131 145.408 153.477 145.356 154.6 144.017C155.722 142.678 155.538 141.343 153.757 139.85Z" fill="white"/>
<path d="M142.863 143.81L149.844 152.044L145.609 155.633L136.892 149.882L136.822 149.942L143.304 157.588L141.139 159.423L134.159 151.189L138.394 147.599L147.11 153.35L147.181 153.29L140.699 145.645L142.863 143.81Z" fill="white"/>
<path d="M130.347 153.657L134.741 160.78L137.511 159.071L138.813 161.181L130.635 166.226L129.333 164.116L132.103 162.407L127.709 155.284L130.347 153.657Z" fill="white"/>
<path d="M125.382 156.78L127.103 167.89L121.92 170.197L115.101 161.355L118.018 160.057L119.234 161.722L122.803 160.134L122.408 158.104L125.382 156.78ZM123.225 162.151L120.407 163.405L124.165 168.265L124.25 168.227L123.225 162.151Z" fill="white"/>
<path d="M105.888 171.254L108.879 170.439C109.409 171.499 110.167 171.807 111.409 171.468C113.083 171.012 113.54 169.859 112.929 167.616C112.321 165.388 111.343 164.626 109.668 165.083C108.427 165.421 107.929 166.071 108.01 167.254L105.02 168.069C104.881 165.263 106.097 163.711 109.072 162.9C112.946 161.844 114.896 163.047 115.92 166.8C116.947 170.569 115.877 172.596 112.004 173.652C108.834 174.516 106.998 173.795 105.888 171.254Z" fill="white"/>
<path d="M100.486 164.833L101.536 173.137L104.766 172.728L105.077 175.189L95.5428 176.395L95.2316 173.934L98.4609 173.526L97.4104 165.222L100.486 164.833Z" fill="white"/>
<path d="M94.6971 165.659L91.7446 176.507L86.0716 176.503L83.4441 165.651L86.6371 165.653L87.0697 167.668L90.9757 167.671L91.4421 165.656L94.6971 165.659ZM90.5403 169.686L87.4558 169.684L88.9087 175.652L89.0017 175.652L90.5403 169.686Z" fill="white"/>
<path d="M82.0177 165.621L80.0703 176.295L74.5809 175.294L75.086 165.444L74.9945 165.427L72.0497 174.832L66.5603 173.83L68.5078 163.156L71.3134 163.668L69.5774 173.183L69.6689 173.2L72.7773 163.935L77.7482 164.842L77.3901 174.577L77.4816 174.594L79.212 165.109L82.0177 165.621Z" fill="white"/>
<path d="M66.9605 162.496L63.2709 172.699L55.3997 169.853L56.1376 167.812L61.0935 169.604L61.7788 167.709L57.4059 166.128L58.1438 164.087L62.5167 165.668L63.3073 163.482L58.3513 161.69L59.0892 159.649L66.9605 162.496Z" fill="white"/>
<path d="M48.9665 160.997L49.0817 161.441L46.6213 162.091L48.7781 163.359L48.5433 163.759L46.3465 162.467L46.9639 164.89L46.52 165.006L45.8915 162.54L44.6233 164.697L44.2106 164.454L45.424 162.39L43.0983 162.994L42.9832 162.55L45.4146 161.919L43.2178 160.627L43.4527 160.228L45.6095 161.496L44.9678 159.022L45.4329 158.902L46.0503 161.325L47.3421 159.128L47.7548 159.371L46.4082 161.661L48.9665 160.997Z" fill="white"/>
<path d="M39.8714 147.69L34.3417 153.974L36.7851 156.124L35.1467 157.986L27.9326 151.637L29.571 149.775L32.0145 151.926L37.5442 145.642L39.8714 147.69Z" fill="white"/>
<path d="M34.1631 142.589L25.931 149.678L22.2854 145.444C20.26 143.092 20.7435 141.037 22.1547 139.822C23.2014 138.921 24.3993 138.647 25.7036 139.306L27.4912 134.817L29.6178 137.287L27.8306 141.181L29.1977 142.769L32.1377 140.237L34.1631 142.589ZM25.5521 145.908L27.6689 144.085L26.1499 142.321C25.5423 141.616 24.7681 141.668 24.1801 142.174C23.5921 142.681 23.4255 143.438 24.0331 144.144L25.5521 145.908Z" fill="white"/>
<path d="M27.105 134.261L16.3261 137.451L13.3482 132.623L21.198 124.685L22.8741 127.403L21.3872 128.83L23.4376 132.153L25.3964 131.491L27.105 134.261ZM21.495 132.842L19.8759 130.217L15.5626 134.589L15.6114 134.669L21.495 132.842Z" fill="white"/>
<path d="M20.835 123.991L10.8638 128.269L8.60275 122.998C7.49053 120.406 7.62638 119.032 9.34996 118.293C11.3442 117.437 12.4906 118.969 13.218 121.019L13.4744 120.909C12.2136 118.363 11.7734 116.747 14.0667 115.763C15.9755 114.944 17.315 115.786 18.5128 118.578L20.835 123.991ZM13.5589 123.74L12.7033 121.745C12.3611 120.948 11.8726 120.752 11.0606 121.101C10.3484 121.406 10.1959 121.876 10.5381 122.674L11.3937 124.668L13.5589 123.74ZM17.7325 121.949L16.8158 119.812C16.388 118.815 15.8628 118.535 15.0509 118.883C14.1535 119.268 13.938 119.866 14.3658 120.863L15.2824 123L17.7325 121.949Z" fill="white"/>
<path d="M16.4063 113.555L5.16508 113.379L3.76481 107.881L13.6287 102.65L14.4168 105.744L12.5713 106.662L13.5354 110.447L15.6028 110.4L16.4063 113.555ZM11.4756 110.524L10.7143 107.535L5.29107 110.42L5.31402 110.51L11.4756 110.524Z" fill="white"/>
<path d="M9.65628 102.395L9.33987 99.4555L10.1135 99.3722C10.98 99.279 11.3214 98.9605 11.2515 98.3106C11.1815 97.6607 10.7802 97.4222 9.9137 97.5155L2.17706 98.3481L1.844 95.2534L9.58064 94.4208C11.9635 94.1643 13.1147 95.2613 13.4177 98.0775C13.7092 100.785 12.8128 102.056 10.4299 102.312L9.65628 102.395Z" fill="white"/>
<path d="M12.6033 92.2932L1.75399 92.1682L1.8504 83.7987L4.02026 83.8237L3.95955 89.0934L5.97442 89.1166L6.02798 84.4669L8.19784 84.4919L8.14427 89.1416L10.4691 89.1684L10.5298 83.8987L12.6997 83.9237L12.6033 92.2932Z" fill="white"/>
<path d="M12.6453 82.3494L1.96308 80.4486L2.94067 74.9549L12.7926 75.417L12.8089 75.3255L3.39144 72.4217L4.36903 66.928L15.0512 68.8288L14.5516 71.6367L5.02915 69.9422L5.01286 70.0338L14.2909 73.1017L13.4056 78.0766L3.66933 77.7609L3.65304 77.8525L13.1449 79.5415L12.6453 82.3494Z" fill="white"/>
<path d="M10.386 65.751C6.74335 64.3848 5.79471 62.1914 7.20456 58.4326C8.6144 54.6738 10.7715 53.6453 14.4142 55.0116C18.0569 56.3779 19.0055 58.5713 17.5957 62.3301C16.1858 66.0889 14.0287 67.1173 10.386 65.751ZM11.4747 62.8485C13.6371 63.6596 14.8817 63.1662 15.4913 61.5408C16.101 59.9154 15.4879 58.7252 13.3255 57.9142C11.1631 57.1031 9.91856 57.5965 9.3089 59.2219C8.69924 60.8473 9.31233 62.0374 11.4747 62.8485Z" fill="white"/>
<path d="M16.8872 54.2221L18.2692 51.7451C19.0949 52.2058 19.99 51.7468 20.4734 50.8805C20.9039 50.109 20.9972 49.2736 20.3475 48.9111C18.5067 47.8839 16.9349 53.6275 13.5788 52.1987C11.3388 51.2506 11.506 48.7879 12.737 46.5816C14.0436 44.24 15.7784 43.1667 17.9592 44.348L16.5997 46.7844C15.6236 46.2753 14.8573 47.1079 14.5778 47.6087C14.1625 48.3532 14.1069 49.1209 14.743 49.4759C16.462 50.435 18.1294 44.2655 21.6893 46.2518C23.8008 47.43 23.8014 49.5603 22.442 51.9967C20.856 54.8391 18.9175 55.355 16.8872 54.2221Z" fill="white"/>
</svg>
