<svg width="34" height="30" viewBox="0 0 34 30" fill="none" xmlns="http://www.w3.org/2000/svg">
<path d="M4.01529 2.40039C3.2791 2.40039 2.67676 2.94039 2.67676 3.60039V26.4004C2.67676 27.0604 3.2791 27.6004 4.01529 27.6004H29.4474C30.1836 27.6004 30.786 27.0604 30.786 26.4004V3.60039C30.786 2.94039 30.1836 2.40039 29.4474 2.40039H4.01529ZM12.4347 8.40039C13.7666 8.40039 14.898 8.68858 15.6543 9.34258C16.3369 9.95458 16.6974 10.8969 16.6974 12.0309C16.6974 13.2189 16.3771 14.023 15.8216 14.6769C15.0519 15.6369 13.7001 16.116 12.4151 16.116C12.1407 16.116 11.9267 16.1164 11.6857 16.0984V21.6004H10.0387V8.65234C10.7013 8.49634 11.471 8.40039 12.4347 8.40039ZM12.7027 9.38476C12.3145 9.38476 11.9927 9.42086 11.7785 9.48086V14.6465C11.9726 14.6645 12.1669 14.6828 12.4413 14.6828C14.0475 14.6828 15.1379 13.7224 15.1379 11.8984C15.1379 10.5724 14.5432 9.38476 12.7027 9.38476ZM21.2228 12.0004C22.0727 12.0004 22.688 12.2349 23.1365 12.4809L22.6881 13.6023C22.2665 13.3503 21.8245 13.177 21.2489 13.177C20.3387 13.177 19.8699 13.7519 19.8699 14.3699C19.8699 14.9879 20.1377 15.3539 21.2019 15.9719C22.4467 16.6679 23.424 17.5319 23.424 18.8219C23.424 20.6939 21.9586 21.6004 20.1784 21.6004C19.402 21.6004 18.5384 21.3902 18.0699 21.0602L18.4921 19.9445C18.8736 20.1545 19.5361 20.4238 20.2254 20.4238C21.1825 20.4238 21.8045 19.9018 21.8045 19.0738C21.8045 18.3598 21.5163 17.8625 20.4254 17.2445C19.0266 16.4525 18.2712 15.6427 18.2712 14.5867C18.2712 13.0627 19.5563 12.0004 21.2228 12.0004Z" fill="black"/>
</svg>
