<svg width="34" height="30" viewBox="0 0 34 30" fill="none" xmlns="http://www.w3.org/2000/svg">
<path d="M2.73047 2V28H30.7305V2H2.73047ZM13.9305 15.7109H12.1148V20.0375H10.0148V8.15469H14.0617C16.118 8.13437 17.8023 9.65781 17.8242 11.5672V12.0344C17.8242 14.0453 16.0742 15.6906 13.9305 15.7109ZM24.0148 12.8266C24.0148 12.8266 22.4836 12.8266 21.8055 13.0906V20.0375H19.5961V11.9328C19.5961 11.9328 21.8273 10.8969 24.0148 11.1609V12.8266Z" fill="black"/>
<path d="M13.734 9.82031H12.1152V14.025H13.734C14.8277 14.025 15.7246 13.1922 15.7246 12.1766V11.6891C15.7246 10.6531 14.8277 9.82031 13.734 9.82031Z" fill="black"/>
</svg>
