<svg width="39" height="38" viewBox="0 0 39 38" fill="none" xmlns="http://www.w3.org/2000/svg">
<path d="M0.594141 37L7.99414 0.549998H12.9941L20.4441 37H16.8441L15.0941 27.95H5.99414L4.24414 37H0.594141ZM6.49414 25.05H14.5941L11.9441 11.2L10.6441 4.15H10.4441L9.14414 11.25L6.49414 25.05ZM30.2391 37.5C29.2391 37.5 28.3557 37.25 27.5891 36.75C26.8224 36.25 26.1891 35.4833 25.6891 34.45C25.1891 33.3833 24.8057 31.9833 24.5391 30.25C24.2724 28.5167 24.1391 26.4167 24.1391 23.95C24.1391 20.45 24.3891 17.7167 24.8891 15.75C25.4224 13.7833 26.1391 12.4 27.0391 11.6C27.9724 10.7667 29.0391 10.35 30.2391 10.35C31.1057 10.35 31.8391 10.5167 32.4391 10.85C33.0724 11.1833 33.5891 11.6667 33.9891 12.3C34.4224 12.9 34.7891 13.6333 35.0891 14.5H35.2391L35.3391 10.85H38.7891V37H35.2391V33.35H35.0891C34.6557 34.6167 34.0391 35.6333 33.2391 36.4C32.4724 37.1333 31.4724 37.5 30.2391 37.5ZM31.5891 34.6C32.3224 34.6 32.9724 34.2833 33.5391 33.65C34.1057 33.0167 34.5224 32.0667 34.7891 30.8C35.0891 29.5 35.2391 27.9 35.2391 26V21.9C35.2391 19.9 35.0891 18.2667 34.7891 17C34.4891 15.7333 34.0724 14.7833 33.5391 14.15C33.0057 13.5167 32.3557 13.2 31.5891 13.2C30.5557 13.2 29.7557 13.6167 29.1891 14.45C28.6557 15.2833 28.2891 16.5 28.0891 18.1C27.8891 19.6667 27.7891 21.6167 27.7891 23.95C27.7891 26.2833 27.8891 28.25 28.0891 29.85C28.2891 31.4167 28.6724 32.6 29.2391 33.4C29.8057 34.2 30.5891 34.6 31.5891 34.6Z" fill="black"/>
</svg>
