<svg width="73" height="38" viewBox="0 0 73 38" fill="none" xmlns="http://www.w3.org/2000/svg">
<path d="M0.256641 37L17.3566 0.549998H23.3066L40.4566 37H35.4066L31.2566 28.1H9.40664L5.25664 37H0.256641ZM10.9066 24.5H29.8066L22.4566 9L20.4566 4.55H20.2566L18.2566 9.1L10.9066 24.5ZM56.7828 37.45C54.8161 37.45 53.0328 37.1333 51.4328 36.5C49.8328 35.8667 48.4495 34.95 47.2828 33.75C46.1161 32.55 45.2161 31.1333 44.5828 29.5C43.9828 27.8333 43.6828 25.9667 43.6828 23.9C43.6828 21.1 44.2328 18.6833 45.3328 16.65C46.4328 14.6167 47.9661 13.0667 49.9328 12C51.8995 10.9 54.1828 10.35 56.7828 10.35C58.6495 10.35 60.3161 10.5833 61.7828 11.05C63.2495 11.5167 64.4995 12.1833 65.5328 13.05C66.5661 13.9167 67.3495 14.9167 67.8828 16.05H68.1328L68.2828 10.75H72.5328V37H68.0828V31.35H67.8328C66.9995 33.1833 65.5828 34.6667 63.5828 35.8C61.5828 36.9 59.3161 37.45 56.7828 37.45ZM57.9828 33.9C60.0828 33.9 61.8828 33.4833 63.3828 32.65C64.9161 31.7833 66.0828 30.6667 66.8828 29.3C67.6828 27.9333 68.0828 26.45 68.0828 24.85V22.55C68.0828 21.0167 67.6828 19.6 66.8828 18.3C66.0828 16.9667 64.9161 15.9 63.3828 15.1C61.8828 14.3 60.0661 13.9 57.9328 13.9C55.9995 13.9 54.2995 14.3 52.8328 15.1C51.3661 15.8667 50.2161 17 49.3828 18.5C48.5828 19.9667 48.1828 21.7667 48.1828 23.9C48.1828 25.9 48.5828 27.6667 49.3828 29.2C50.2161 30.7 51.3495 31.8667 52.7828 32.7C54.2495 33.5 55.9828 33.9 57.9828 33.9Z" fill="black"/>
</svg>
