<svg width="514" height="80" viewBox="0 0 514 80" fill="none" xmlns="http://www.w3.org/2000/svg">
<path d="M19 43.6826V32.6826H24V43.6826C24 48.5826 21.675 50.6826 16.25 50.6826C10.825 50.6826 8.5 48.5826 8.5 43.6826V32.6826H13.5V43.6826C13.5 45.9576 14.325 46.9326 16.25 46.9326C18.175 46.9326 19 45.9576 19 43.6826ZM26.1809 50.1826L29.8309 41.1076L26.4809 32.6826H32.2809L34.8809 40.5076H35.9809L38.2809 32.6826H44.1059L41.0309 41.1076L44.4059 50.1826H38.5809L35.9809 41.6076H34.8559L31.9809 50.1826H26.1809ZM54.6357 41.9576H64.2857V42.8076H54.6357V41.9576ZM75.5166 50.1826V32.6826H84.5166C89.5166 32.6826 91.5166 35.4326 91.5166 38.4326C91.5166 40.6576 90.5916 42.4076 88.4166 43.3076L92.0166 50.2076H86.7666L83.8916 43.9326H80.5166V50.1826H75.5166ZM80.5166 36.1826V40.6826H84.2666C85.7666 40.6826 86.5166 39.6826 86.5166 38.4326C86.5166 37.1826 85.7666 36.1826 84.2666 36.1826H80.5166ZM93.5225 50.1826V32.6826H107.022V36.1826H98.5225V39.4326H106.022V42.9326H98.5225V46.6826H107.022V50.1826H93.5225ZM108.335 44.3576H112.91C112.91 45.8826 114.26 46.7826 115.86 46.7826C117.285 46.7826 118.535 46.2576 118.535 45.0576C118.535 41.6576 109.21 43.9576 108.585 38.1076C108.16 34.2076 111.76 32.5076 115.835 32.5076C120.16 32.5076 123.035 34.1076 123.085 38.1076H118.585C118.535 36.3326 116.76 35.9076 115.835 35.9076C114.46 35.9076 113.335 36.4326 113.335 37.6076C113.335 40.7826 123.335 38.2826 123.335 44.8576C123.335 48.7576 120.335 50.4326 115.835 50.4326C110.585 50.4326 108.335 48.1076 108.335 44.3576ZM125.017 50.1826V32.6826H138.517V36.1826H130.017V39.4326H137.517V42.9326H130.017V46.6826H138.517V50.1826H125.017ZM139.404 50.1826L144.154 32.6826H153.304L157.554 50.1826H152.404L151.704 46.9326H145.404L144.654 50.1826H139.404ZM146.104 43.6826H151.079L148.729 34.0576H148.579L146.104 43.6826ZM159.379 50.1826V32.6826H168.379C173.379 32.6826 175.379 35.4326 175.379 38.4326C175.379 40.6576 174.454 42.4076 172.279 43.3076L175.879 50.2076H170.629L167.754 43.9326H164.379V50.1826H159.379ZM164.379 36.1826V40.6826H168.129C169.629 40.6826 170.379 39.6826 170.379 38.4326C170.379 37.1826 169.629 36.1826 168.129 36.1826H164.379ZM194.641 38.7326H189.641C189.266 36.8576 188.216 36.0576 186.141 36.0576C183.341 36.0576 182.141 37.6576 182.141 41.4076C182.141 45.1326 183.341 46.7326 186.141 46.7326C188.216 46.7326 189.266 45.9326 189.641 44.0576H194.641C193.666 48.4826 191.116 50.3826 186.141 50.3826C179.666 50.3826 177.141 47.6826 177.141 41.4076C177.141 35.1076 179.666 32.4076 186.141 32.4076C191.441 32.4076 193.991 34.3076 194.641 38.7326ZM196.854 50.1826V32.6826H201.854V38.9326H208.604V32.6826H213.604V50.1826H208.604V42.6826H201.854V50.1826H196.854Z" fill="black"/>
<path d="M228.261 47.7181L248.301 32.7706M248.301 32.7706C248.301 32.7706 247.526 34.623 247.403 37.5844C247.281 40.5459 247.811 41.9718 247.811 41.9718M248.301 32.7706C248.301 32.7706 245.256 32.7301 243.408 32.1969C241.585 31.6713 239.302 30.4994 239.302 30.4994" stroke="black" stroke-width="1.5" stroke-linecap="square" stroke-linejoin="round"/>
<path d="M273.47 43.6826V32.6826H278.47V43.6826C278.47 48.5826 276.145 50.6826 270.72 50.6826C265.295 50.6826 262.97 48.5826 262.97 43.6826V32.6826H267.97V43.6826C267.97 45.9576 268.795 46.9326 270.72 46.9326C272.645 46.9326 273.47 45.9576 273.47 43.6826ZM280.651 50.1826L284.301 41.1076L280.951 32.6826H286.751L289.351 40.5076H290.451L292.751 32.6826H298.576L295.501 41.1076L298.876 50.1826H293.051L290.451 41.6076H289.326L286.451 50.1826H280.651ZM309.106 41.9576H318.756V42.8076H309.106V41.9576ZM329.987 50.1826V32.6826H338.987C343.987 32.6826 345.987 35.4326 345.987 38.4326C345.987 40.6576 345.062 42.4076 342.887 43.3076L346.487 50.2076H341.237L338.362 43.9326H334.987V50.1826H329.987ZM334.987 36.1826V40.6826H338.737C340.237 40.6826 340.987 39.6826 340.987 38.4326C340.987 37.1826 340.237 36.1826 338.737 36.1826H334.987ZM347.993 50.1826V32.6826H361.493V36.1826H352.993V39.4326H360.493V42.9326H352.993V46.6826H361.493V50.1826H347.993ZM362.806 44.3576H367.381C367.381 45.8826 368.731 46.7826 370.331 46.7826C371.756 46.7826 373.006 46.2576 373.006 45.0576C373.006 41.6576 363.681 43.9576 363.056 38.1076C362.631 34.2076 366.231 32.5076 370.306 32.5076C374.631 32.5076 377.506 34.1076 377.556 38.1076H373.056C373.006 36.3326 371.231 35.9076 370.306 35.9076C368.931 35.9076 367.806 36.4326 367.806 37.6076C367.806 40.7826 377.806 38.2826 377.806 44.8576C377.806 48.7576 374.806 50.4326 370.306 50.4326C365.056 50.4326 362.806 48.1076 362.806 44.3576ZM379.487 50.1826V32.6826H392.987V36.1826H384.487V39.4326H391.987V42.9326H384.487V46.6826H392.987V50.1826H379.487ZM393.875 50.1826L398.625 32.6826H407.775L412.025 50.1826H406.875L406.175 46.9326H399.875L399.125 50.1826H393.875ZM400.575 43.6826H405.55L403.2 34.0576H403.05L400.575 43.6826ZM413.849 50.1826V32.6826H422.849C427.849 32.6826 429.849 35.4326 429.849 38.4326C429.849 40.6576 428.924 42.4076 426.749 43.3076L430.349 50.2076H425.099L422.224 43.9326H418.849V50.1826H413.849ZM418.849 36.1826V40.6826H422.599C424.099 40.6826 424.849 39.6826 424.849 38.4326C424.849 37.1826 424.099 36.1826 422.599 36.1826H418.849ZM449.111 38.7326H444.111C443.736 36.8576 442.686 36.0576 440.611 36.0576C437.811 36.0576 436.611 37.6576 436.611 41.4076C436.611 45.1326 437.811 46.7326 440.611 46.7326C442.686 46.7326 443.736 45.9326 444.111 44.0576H449.111C448.136 48.4826 445.586 50.3826 440.611 50.3826C434.136 50.3826 431.611 47.6826 431.611 41.4076C431.611 35.1076 434.136 32.4076 440.611 32.4076C445.911 32.4076 448.461 34.3076 449.111 38.7326ZM451.324 50.1826V32.6826H456.324V38.9326H463.074V32.6826H468.074V50.1826H463.074V42.6826H456.324V50.1826H451.324Z" fill="black"/>
<path d="M482.732 47.7181L502.771 32.7706M502.771 32.7706C502.771 32.7706 501.996 34.623 501.874 37.5844C501.752 40.5459 502.282 41.9718 502.282 41.9718M502.771 32.7706C502.771 32.7706 499.727 32.7301 497.878 32.1969C496.056 31.6713 493.773 30.4994 493.773 30.4994" stroke="black" stroke-width="1.5" stroke-linecap="square" stroke-linejoin="round"/>
</svg>
