<svg width="71" height="72" viewBox="0 0 71 72" fill="none" xmlns="http://www.w3.org/2000/svg">
<circle cx="35.5" cy="36" r="35" stroke="black"/>
<path d="M46.6047 36.1438C47.8149 36.1555 48.8319 32.4369 48.8763 27.838C48.9206 23.2391 47.9755 19.5015 46.7652 19.4899C45.555 19.4782 44.538 23.1969 44.4937 27.7957C44.4493 32.3946 45.3945 36.1322 46.6047 36.1438Z" fill="black"/>
<path d="M50.5295 43.2114C50.3436 57.6719 19.0325 58.0663 19.1513 42.7145M21.4269 39.2848C22.7671 40.5974 16.091 45.3414 14.7173 43.5831M48.7498 39.7253C47.5791 41.3478 53.6677 46.4227 54.9132 44.1912" stroke="black" stroke-width="2"/>
<path d="M23.6847 35.8001C24.8949 35.8118 25.912 32.0931 25.9563 27.4942C26.0006 22.8954 25.0555 19.1578 23.8452 19.1461C22.635 19.1345 21.618 22.8531 21.5737 27.452C21.5293 32.0509 22.4745 35.7884 23.6847 35.8001Z" fill="black"/>
</svg>
