<svg width="113" height="113" viewBox="0 0 113 113" fill="none" xmlns="http://www.w3.org/2000/svg">
<path d="M46.4409 103.108L44.5148 110.202L43.1467 109.821L45.0728 102.728L46.4409 103.108ZM42.1438 101.914L43.4687 105.583L41.9368 105.157L40.5445 101.469L42.1438 101.914ZM44.838 105.195L44.5367 106.305L42.7446 105.807C42.4941 105.737 42.265 105.729 42.0572 105.782C41.8429 105.833 41.6591 105.938 41.5057 106.096C41.3523 106.254 41.2432 106.452 41.1786 106.69C41.1122 106.934 41.1051 107.164 41.1572 107.379C41.2093 107.594 41.3145 107.779 41.4728 107.934C41.6247 108.087 41.8259 108.198 42.0764 108.268L43.8684 108.766L43.5514 109.934L41.9038 109.476C41.3386 109.319 40.8731 109.099 40.5075 108.818C40.1354 108.534 39.8833 108.191 39.751 107.787C39.6188 107.384 39.6226 106.925 39.7624 106.41L39.8043 106.256C39.9458 105.735 40.1776 105.339 40.4997 105.069C40.8153 104.797 41.2014 104.634 41.6579 104.581C42.1144 104.528 42.6253 104.58 43.1905 104.737L44.838 105.195Z" fill="white"/>
<path d="M38.632 100.567L35.6137 107.214L34.3533 106.628L37.3716 99.9812L38.632 100.567ZM37.553 100.066L37.0568 101.158L34.0553 99.7628L34.5514 98.6701L37.553 100.066ZM36.2671 102.897L35.7709 103.99L33.0052 102.704L33.5013 101.611L36.2671 102.897ZM35.0308 105.62L34.5346 106.712L31.6057 105.351L32.1018 104.258L35.0308 105.62Z" fill="white"/>
<path d="M30.2096 98.5847L29.5365 99.6141L28.3565 98.8242C28.1182 98.6648 27.8878 98.5787 27.6651 98.566C27.4369 98.5496 27.2265 98.5973 27.0339 98.7091C26.8359 98.8171 26.6657 98.9799 26.5234 99.1976C26.3811 99.4152 26.2995 99.6373 26.2787 99.8641C26.2524 100.087 26.2931 100.299 26.4009 100.499C26.4996 100.702 26.668 100.883 26.9062 101.042L28.0862 101.832L27.4131 102.862L26.3328 102.138C25.8231 101.797 25.4457 101.424 25.2006 101.02C24.95 100.611 24.8326 100.188 24.8486 99.749C24.8609 99.3161 25.0057 98.8875 25.2829 98.4635L25.3705 98.3296C25.6478 97.9055 25.9828 97.6003 26.3754 97.4139C26.7645 97.2331 27.1956 97.1768 27.6688 97.2448C28.1328 97.3148 28.6196 97.5203 29.1293 97.8615L30.2096 98.5847ZM32.4493 97.3885L28.4269 103.54L27.2469 102.75L31.2693 96.5986L32.4493 97.3885Z" fill="white"/>
<path d="M26.4923 93.0631L21.506 98.4631L20.4741 97.4876L25.4604 92.0876L26.4923 93.0631ZM23.2512 89.9993L22.7217 93.8744L21.5662 92.7821L22.0449 88.859L23.2512 89.9993ZM24.1103 94.1688L23.3301 95.0137L21.9785 93.736C21.7895 93.5574 21.591 93.4431 21.383 93.3933C21.1702 93.3388 20.9594 93.346 20.7507 93.4148C20.5421 93.4835 20.3541 93.6085 20.1867 93.7897C20.0149 93.9759 19.9021 94.1766 19.8485 94.3919C19.7948 94.6072 19.8021 94.8205 19.8702 95.0316C19.9335 95.2382 20.0596 95.4308 20.2485 95.6094L21.6002 96.8872L20.7793 97.7762L19.5367 96.6015C19.1103 96.1985 18.8009 95.7867 18.6085 95.3663C18.4112 94.9413 18.3476 94.5188 18.4177 94.0989C18.4879 93.679 18.7038 93.2732 19.0656 92.8813L19.1742 92.7638C19.5405 92.3671 19.9285 92.1238 20.3381 92.0339C20.7428 91.9395 21.159 91.9752 21.5867 92.141C22.0143 92.3067 22.4413 92.5911 22.8676 92.9941L24.1103 94.1688Z" fill="white"/>
<path d="M18.894 84.3356C19.28 84.8709 19.5216 85.4052 19.6186 85.9385C19.7117 86.4664 19.7016 86.971 19.5885 87.4523C19.4661 87.9322 19.2774 88.3657 19.0224 88.7528C18.7581 89.1386 18.4624 89.4522 18.1353 89.6938L17.9583 89.8245C17.599 90.0898 17.1955 90.2882 16.748 90.4198C16.295 90.5554 15.8302 90.6003 15.3534 90.5546C14.8727 90.5035 14.4061 90.3467 13.9537 90.0841C13.4959 89.8255 13.0779 89.4339 12.6996 88.9095C12.3252 88.3904 12.0861 87.8709 11.9823 87.3509C11.8732 86.8349 11.8698 86.3402 11.9722 85.8668C12.0707 85.388 12.2528 84.9511 12.5186 84.556C12.7789 84.1648 13.0888 83.8366 13.4481 83.5713L13.6251 83.4406C13.9522 83.199 14.3396 83.0125 14.7871 82.8809C15.2254 82.7478 15.691 82.6982 16.1839 82.732C16.6675 82.7644 17.1455 82.9086 17.6179 83.1647C18.0864 83.4154 18.5118 83.8057 18.894 84.3356ZM17.8321 85.1197C17.6137 84.8169 17.3651 84.5862 17.0862 84.4274C16.8035 84.2633 16.5078 84.1668 16.1992 84.1378C15.8813 84.1073 15.5705 84.1379 15.2668 84.2296C14.9538 84.3198 14.6605 84.4659 14.387 84.6679C14.092 84.8857 13.8543 85.1317 13.6739 85.4057C13.4896 85.6744 13.3687 85.9626 13.3112 86.2702C13.2497 86.5725 13.2558 86.8829 13.3294 87.2015C13.403 87.52 13.547 87.828 13.7615 88.1254C13.9799 88.4282 14.2278 88.6636 14.5052 88.8317C14.7826 88.9997 15.0749 89.103 15.382 89.1414C15.6852 89.1743 15.9933 89.1457 16.3063 89.0555C16.6154 88.9598 16.9175 88.8031 17.2124 88.5853C17.486 88.3833 17.7149 88.148 17.8992 87.8793C18.0742 87.6092 18.1978 87.319 18.27 87.0089C18.3329 86.6972 18.3302 86.3802 18.262 86.0577C18.1938 85.7351 18.0505 85.4225 17.8321 85.1197Z" fill="white"/>
<path d="M15.0512 78.1884L13.8578 78.7526L13.2247 77.3817C13.0654 77.0367 12.873 76.7553 12.6476 76.5374C12.4133 76.3163 12.1565 76.1576 11.8769 76.0611C11.5974 75.9647 11.3057 75.9293 11.0018 75.955C10.6891 75.9775 10.3731 76.0642 10.0536 76.2152C9.72215 76.372 9.45058 76.563 9.23894 76.7884C9.01847 77.0107 8.85814 77.2597 8.75795 77.5357C8.65775 77.8117 8.62233 78.1086 8.65168 78.4266C8.67822 78.7385 8.77116 79.0669 8.93048 79.4119L9.56356 80.7828L8.3702 81.347L7.77486 80.0578C7.49815 79.4586 7.34377 78.8938 7.31172 78.3632C7.27967 77.8327 7.34885 77.3465 7.51927 76.9046C7.68367 76.4656 7.9282 76.0808 8.25288 75.7504C8.56873 75.4167 8.93459 75.1515 9.35046 74.9549L9.54935 74.8609C9.94714 74.6728 10.3738 74.5633 10.8294 74.5322C11.2823 74.4951 11.7338 74.5508 12.1842 74.6992C12.6346 74.8476 13.0566 75.1015 13.4503 75.4611C13.8439 75.8206 14.1791 76.3 14.4558 76.8992L15.0512 78.1884ZM15.5627 79.296L8.8817 82.4546L8.28635 81.1654L14.9673 78.0068L15.5627 79.296Z" fill="white"/>
<path d="M11.6449 68.3564C11.813 69.0153 11.8289 69.6037 11.6927 70.1216C11.5565 70.6394 11.2931 71.0768 10.9025 71.4338C10.5039 71.7859 9.99815 72.042 9.38536 72.202L5.1765 73.3011L4.82553 71.9252L9.1118 70.8059C9.44721 70.7183 9.72745 70.5762 9.95251 70.3796C10.1711 70.1847 10.3201 69.946 10.3994 69.6635C10.4706 69.3762 10.46 69.0517 10.3677 68.6899C10.2771 68.3346 10.1328 68.0519 9.9347 67.8418C9.72853 67.6269 9.484 67.491 9.20113 67.4339C8.91661 67.3704 8.60342 67.3833 8.26155 67.4726L3.97529 68.5919L3.62431 67.216L7.83317 66.1169C8.44596 65.9568 9.011 65.9333 9.52829 66.0463C10.0375 66.1545 10.4755 66.4018 10.8424 66.7883C11.2094 67.1748 11.4768 67.6975 11.6449 68.3564Z" fill="white"/>
<path d="M10.3521 59.555C10.3964 60.2135 10.3181 60.7869 10.1171 61.2753C9.91616 61.7636 9.63953 62.1702 9.28724 62.4952C8.9345 62.8136 8.54336 63.0577 8.11381 63.2277C7.68426 63.3976 7.26664 63.4966 6.86093 63.5246L6.64145 63.5397C6.18919 63.5709 5.73888 63.5318 5.29052 63.4224C4.8417 63.3063 4.42764 63.111 4.04833 62.8364C3.66903 62.5619 3.3575 62.2024 3.11376 61.7582C2.86292 61.3077 2.71622 60.7665 2.67366 60.1346C2.62931 59.4761 2.71049 58.8958 2.91722 58.3937C3.11685 57.8854 3.42296 57.4701 3.83555 57.1476C4.2415 56.8256 4.72844 56.6149 5.29638 56.5156L5.39248 57.9424C5.06352 58.0185 4.79225 58.1575 4.57867 58.3593C4.35798 58.555 4.20051 58.7964 4.10627 59.0836C4.00537 59.3712 3.96679 59.6913 3.99053 60.0438C4.01473 60.403 4.09941 60.7179 4.2446 60.9886C4.38313 61.2597 4.57173 61.4805 4.81041 61.6512C5.04908 61.8219 5.32475 61.9465 5.63741 62.0252C5.94962 62.0972 6.29195 62.1204 6.6644 62.0947C7.02355 62.0699 7.35295 62.0005 7.65262 61.8862C7.95184 61.7654 8.21135 61.6005 8.43114 61.3915C8.64427 61.183 8.80462 60.9347 8.91217 60.6467C9.01927 60.3519 9.06028 60.0183 9.03519 59.6458C8.99845 59.1004 8.83452 58.6506 8.5434 58.2965C8.24517 57.9361 7.85062 57.7328 7.35973 57.6864L7.26363 56.2597C7.78688 56.2904 8.27429 56.4339 8.72586 56.6901C9.17743 56.9463 9.54971 57.3149 9.84269 57.7959C10.1357 58.2769 10.3055 58.8633 10.3521 59.555Z" fill="white"/>
<path d="M10.1939 54.0733L2.91602 53.5055L3.02391 52.0896L10.3018 52.6574L10.1939 54.0733Z" fill="white"/>
<path d="M10.6873 49.2496L3.51452 47.6454L3.8176 46.2581L10.9904 47.8624L10.6873 49.2496ZM11.6392 44.8924L8.0578 46.3867L8.39716 44.8334L11.9935 43.2706L11.6392 44.8924ZM8.51958 47.7401L7.3973 47.4891L7.79428 45.672C7.84977 45.418 7.84539 45.1881 7.78114 44.9825C7.71831 44.7703 7.60394 44.591 7.43803 44.4446C7.27212 44.2982 7.06881 44.1981 6.82809 44.1443C6.58087 44.089 6.35153 44.0923 6.1401 44.1544C5.92866 44.2164 5.75026 44.3302 5.6049 44.4958C5.46097 44.6549 5.36125 44.8614 5.30576 45.1154L4.90878 46.9326L3.72795 46.6685L4.09292 44.9979C4.21813 44.4247 4.41085 43.9486 4.67106 43.5696C4.93271 43.1841 5.26083 42.9159 5.65545 42.7651C6.05006 42.6143 6.50761 42.597 7.02808 42.7135L7.18423 42.7484C7.71121 42.8662 8.11824 43.0802 8.40533 43.3904C8.69383 43.694 8.87713 44.0731 8.95522 44.5278C9.03332 44.9825 9.00975 45.4964 8.88454 46.0695L8.51958 47.7401Z" fill="white"/>
<path d="M15.0244 35.9664L7.50124 34.6273L8.17531 33.3209L14.6485 34.5578L14.2791 34.8376L14.7743 33.8779L14.754 34.3534L9.98201 29.8196L10.6332 28.5577L16.0974 33.8869L15.0244 35.9664Z" fill="white"/>
<path d="M18.4138 30.1865L12.5038 25.9015L13.3245 24.7426L19.2345 29.0276L18.4138 30.1865Z" fill="white"/>
<path d="M22.1582 25.4522L21.213 24.5308L22.2542 23.4372C22.5163 23.162 22.7078 22.8787 22.8289 22.5871C22.9499 22.2861 23.0052 21.9863 22.995 21.6877C22.9847 21.3891 22.9137 21.1012 22.782 20.8238C22.6501 20.537 22.4577 20.2702 22.2046 20.0236C21.9421 19.7677 21.6691 19.5807 21.3856 19.4627C21.102 19.3352 20.815 19.2741 20.5245 19.2796C20.234 19.285 19.9471 19.3591 19.6639 19.5019C19.3852 19.6399 19.1149 19.8465 18.8528 20.1217L17.8116 21.2153L16.8663 20.2939L17.8455 19.2655C18.3006 18.7875 18.7675 18.4373 19.2461 18.215C19.7248 17.9927 20.1984 17.8819 20.6672 17.8826C21.1311 17.8787 21.5734 17.9701 21.9941 18.1567C22.4145 18.3338 22.7894 18.5829 23.1188 18.904L23.2764 19.0575C23.5915 19.3646 23.8443 19.7275 24.0349 20.146C24.2301 20.5597 24.3392 21.0058 24.3622 21.4844C24.3852 21.9629 24.3005 22.453 24.1084 22.9545C23.9162 23.4561 23.5925 23.9458 23.1374 24.4238L22.1582 25.4522ZM21.3169 26.3358L16.0251 21.1774L17.0043 20.149L22.2961 25.3074L21.3169 26.3358Z" fill="white"/>
<path d="M27.5145 20.2763L23.205 14.384L24.3176 13.5509L28.6271 19.4431L27.5145 20.2763ZM28.467 19.563L27.7586 18.5944L30.4082 16.6105L31.1166 17.5791L28.467 19.563ZM26.6311 17.0528L25.9227 16.0842L28.3641 14.2561L29.0725 15.2247L26.6311 17.0528ZM24.8659 14.6394L24.1575 13.6708L26.7431 11.7348L27.4515 12.7034L24.8659 14.6394Z" fill="white"/>
<path d="M36.3089 14.9032C35.7193 15.1998 35.1557 15.3527 34.618 15.362C34.0863 15.3682 33.5952 15.2757 33.1447 15.0844C32.6972 14.8842 32.3065 14.6255 31.9725 14.3085C31.6415 13.9825 31.3863 13.637 31.207 13.272L31.1099 13.0745C30.913 12.6736 30.789 12.2398 30.7379 11.773C30.6838 11.3002 30.7204 10.8304 30.8475 10.3635C30.9806 9.89356 31.2145 9.45503 31.5493 9.04787C31.8811 8.63473 32.3358 8.28288 32.9135 7.9923C33.4853 7.70472 34.034 7.55182 34.5599 7.53359C35.0828 7.50937 35.5665 7.58692 36.0111 7.76624C36.4617 7.94257 36.857 8.19523 37.1969 8.52423C37.5338 8.84724 37.8008 9.2092 37.9977 9.61009L38.0948 9.80755C38.2741 10.1725 38.3893 10.5884 38.4404 11.0552C38.4945 11.5131 38.4624 11.9844 38.3441 12.4693C38.2288 12.9451 38.0052 13.3971 37.6733 13.8252C37.3474 14.2503 36.8926 14.6097 36.3089 14.9032ZM35.7269 13.7185C36.0604 13.5508 36.3288 13.3411 36.532 13.0897C36.7412 12.8352 36.8867 12.5568 36.9685 12.2545C37.0532 11.9433 37.0771 11.629 37.0401 11.3118C37.0061 10.9857 36.9142 10.67 36.7642 10.3648C36.6025 10.0358 36.4035 9.75905 36.167 9.53474C35.9365 9.30743 35.6759 9.13998 35.3854 9.0324C35.1008 8.92183 34.7966 8.8771 34.4727 8.89822C34.1489 8.91933 33.8232 9.01227 33.4956 9.17703C33.1621 9.34479 32.8892 9.55291 32.6771 9.8014C32.4649 10.0499 32.3135 10.3238 32.2229 10.6231C32.1382 10.9194 32.1129 11.2306 32.1469 11.5568C32.1868 11.88 32.2876 12.2061 32.4493 12.5352C32.5992 12.8403 32.7895 13.1066 33.02 13.3339C33.2535 13.5522 33.5155 13.7227 33.806 13.8452C34.0994 13.9588 34.4096 14.008 34.7364 13.9928C35.0632 13.9777 35.3933 13.8863 35.7269 13.7185Z" fill="white"/>
<path d="M41.5619 12.4994L41.0761 10.975L42.5591 10.4911L43.045 12.0155L41.5619 12.4994Z" fill="white"/>
<path d="M70.366 12.075L72.8705 5.16485L74.2018 5.65883L71.6973 12.569L70.366 12.075ZM74.5474 13.6265L73.5309 9.85757L75.0216 10.4107L76.1037 14.204L74.5474 13.6265ZM72.1349 10.1289L72.5268 9.0477L74.2706 9.69475C74.5144 9.7852 74.7419 9.81275 74.9533 9.7774C75.1709 9.74438 75.3626 9.65553 75.5285 9.51088C75.6944 9.36622 75.8194 9.17794 75.9034 8.94604C75.9898 8.70786 76.0158 8.47934 75.9817 8.26047C75.9476 8.0416 75.8581 7.8484 75.7132 7.68086C75.5745 7.51564 75.3833 7.38781 75.1395 7.29736L73.3957 6.65031L73.808 5.51272L75.4112 6.10759C75.9612 6.31168 76.4067 6.56942 76.7477 6.8808C77.0949 7.19451 77.3177 7.55804 77.416 7.9714C77.5144 8.38476 77.4727 8.84215 77.291 9.34356L77.2364 9.49399C77.0524 10.0017 76.7889 10.3767 76.4457 10.6192C76.1088 10.8639 75.7109 10.9935 75.2518 11.0081C74.7927 11.0226 74.2881 10.9278 73.7381 10.7237L72.1349 10.1289Z" fill="white"/>
<path d="M77.9363 15.2674L81.4939 8.89302L82.7008 9.5826L79.1432 15.957L77.9363 15.2674ZM78.9695 15.8578L79.5543 14.8099L82.4283 16.452L81.8435 17.4999L78.9695 15.8578ZM80.4852 13.1421L81.07 12.0943L83.7182 13.6074L83.1334 14.6552L80.4852 13.1421ZM81.9423 10.5312L82.5272 9.48338L85.3317 11.0858L84.7468 12.1336L81.9423 10.5312Z" fill="white"/>
<path d="M86.1654 17.9503L86.9216 16.9803L88.0315 17.866C88.2556 18.0448 88.478 18.1498 88.6988 18.1811C88.9248 18.2164 89.1384 18.1864 89.3395 18.0911C89.5458 17.9999 89.7289 17.8517 89.8888 17.6467C90.0486 17.4416 90.1483 17.227 90.1879 17.0027C90.2327 16.7826 90.2097 16.5681 90.119 16.3592C90.0376 16.1492 89.8848 15.9548 89.6608 15.776L88.5509 14.8903L89.3071 13.9202L90.3232 14.7311C90.8026 15.1137 91.1475 15.5169 91.358 15.9408C91.5738 16.3688 91.6555 16.8007 91.6031 17.2366C91.5548 17.6671 91.375 18.0822 91.0635 18.4818L90.9651 18.608C90.6536 19.0076 90.2945 19.2839 89.8878 19.437C89.4852 19.5848 89.051 19.605 88.5853 19.4977C88.1288 19.3893 87.6609 19.1438 87.1815 18.7612L86.1654 17.9503ZM83.8347 18.956L88.3535 13.1592L89.4634 14.045L84.9446 19.8417L83.8347 18.956Z" fill="white"/>
<path d="M89.4126 23.7669L94.8312 18.8009L95.7783 19.8589L90.3597 24.8249L89.4126 23.7669ZM92.3874 27.0899L93.2377 23.2724L94.2982 24.457L93.4946 28.3267L92.3874 27.0899ZM91.8784 22.8634L92.7262 22.0864L93.9668 23.4722C94.1403 23.6659 94.3285 23.7963 94.5317 23.8633C94.7393 23.9353 94.9499 23.9457 95.1636 23.8945C95.3773 23.8434 95.575 23.7345 95.7569 23.5678C95.9436 23.3966 96.0727 23.206 96.1441 22.9959C96.2155 22.7858 96.226 22.5727 96.1757 22.3566C96.1298 22.1454 96.0202 21.943 95.8468 21.7493L94.6062 20.3635L95.4982 19.5459L96.6388 20.82C97.0301 21.2571 97.3041 21.6932 97.4609 22.1282C97.6221 22.5681 97.6503 22.9944 97.5455 23.407C97.4406 23.8196 97.1916 24.206 96.7984 24.5664L96.6805 24.6745C96.2824 25.0393 95.8755 25.2495 95.4598 25.3049C95.0486 25.3652 94.6369 25.295 94.2245 25.0943C93.8121 24.8935 93.4103 24.5745 93.019 24.1374L91.8784 22.8634Z" fill="white"/>
<path d="M96.2642 33.0998C95.9239 32.5343 95.7275 31.9819 95.6751 31.4426C95.6262 30.9089 95.6782 30.4071 95.831 29.937C95.9929 29.4692 96.217 29.0531 96.5034 28.6887C96.7989 28.3265 97.1197 28.0387 97.4659 27.8253L97.6532 27.7099C98.0335 27.4756 98.4522 27.3115 98.9093 27.2178C99.372 27.1205 99.8392 27.1145 100.311 27.1998C100.786 27.2908 101.238 27.4859 101.667 27.7853C102.102 28.0811 102.486 28.506 102.819 29.06C103.149 29.6083 103.345 30.1458 103.405 30.6725C103.471 31.1957 103.433 31.6887 103.292 32.1518C103.154 32.6205 102.936 33.0406 102.638 33.412C102.346 33.7799 102.01 34.0811 101.63 34.3154L101.442 34.4308C101.096 34.6442 100.694 34.7978 100.237 34.8915C99.7894 34.9875 99.3211 34.9981 98.8326 34.9233C98.3531 34.8507 97.8886 34.6672 97.439 34.3726C96.9928 34.0838 96.6012 33.6595 96.2642 33.0998ZM97.388 32.4073C97.5805 32.7271 97.8092 32.9777 98.074 33.1591C98.3422 33.3462 98.629 33.467 98.9342 33.5217C99.2485 33.5785 99.5609 33.5739 99.8713 33.5079C100.191 33.4441 100.495 33.323 100.785 33.1447C101.097 32.9523 101.354 32.7271 101.557 32.4691C101.763 32.2169 101.907 31.9399 101.99 31.6382C102.077 31.3422 102.097 31.0325 102.05 30.709C102.003 30.3855 101.885 30.0667 101.696 29.7526C101.503 29.4327 101.276 29.1775 101.013 28.9869C100.75 28.7964 100.468 28.6691 100.165 28.6053C99.8652 28.5472 99.5556 28.55 99.2361 28.6138C98.92 28.6833 98.6059 28.8142 98.2937 29.0066C98.0043 29.185 97.7565 29.4003 97.5505 29.6526C97.3535 29.9071 97.2062 30.1858 97.1085 30.4888C97.0198 30.794 96.9961 31.11 97.0374 31.437C97.0786 31.764 97.1954 32.0874 97.388 32.4073Z" fill="white"/>
<path d="M99.5905 39.5495L100.827 39.0875L101.345 40.506C101.475 40.863 101.643 41.1594 101.85 41.3953C102.065 41.6351 102.308 41.8147 102.579 41.9342C102.85 42.0537 103.138 42.1134 103.443 42.1132C103.756 42.117 104.079 42.0571 104.41 41.9334C104.753 41.8051 105.04 41.6375 105.27 41.4307C105.508 41.2278 105.688 40.9932 105.811 40.7267C105.934 40.4602 105.994 40.1674 105.991 39.8482C105.99 39.5354 105.925 39.2004 105.794 38.8435L105.277 37.425L106.513 36.963L107 38.2969C107.226 38.9169 107.333 39.4925 107.321 40.0236C107.309 40.5547 107.2 41.0331 106.994 41.459C106.793 41.8825 106.518 42.2453 106.167 42.5473C105.824 42.8532 105.437 43.0866 105.007 43.2476L104.8 43.3246C104.388 43.4786 103.954 43.552 103.497 43.5448C103.042 43.5438 102.597 43.4506 102.16 43.2651C101.723 43.0795 101.324 42.7912 100.961 42.4001C100.598 42.009 100.304 41.5035 100.077 40.8835L99.5905 39.5495ZM99.1722 38.4035L106.095 35.8169L106.582 37.1509L99.659 39.7374L99.1722 38.4035Z" fill="white"/>
<path d="M102.178 49.6322C102.065 48.9617 102.098 48.3742 102.276 47.8698C102.455 47.3653 102.753 46.9518 103.172 46.629C103.599 46.3118 104.124 46.0992 104.748 45.9913L109.034 45.2503L109.271 46.6505L104.906 47.4051C104.564 47.4642 104.273 47.5821 104.032 47.759C103.798 47.9348 103.63 48.1601 103.528 48.4348C103.433 48.7151 103.417 49.0392 103.479 49.4073C103.54 49.7689 103.661 50.0626 103.841 50.2886C104.029 50.52 104.261 50.676 104.538 50.7566C104.817 50.8438 105.13 50.8573 105.478 50.7971L109.844 50.0425L110.08 51.4427L105.794 52.1836C105.169 52.2915 104.604 52.2675 104.098 52.1114C103.599 51.9608 103.183 51.6776 102.849 51.2618C102.515 50.8459 102.292 50.3027 102.178 49.6322Z" fill="white"/>
<path d="M102.748 58.513C102.758 57.8531 102.883 57.2883 103.123 56.8186C103.364 56.349 103.673 55.9671 104.051 55.6729C104.429 55.3854 104.839 55.175 105.281 55.0419C105.723 54.9087 106.147 54.8453 106.554 54.8516L106.774 54.855C107.227 54.862 107.672 54.9389 108.11 55.0857C108.548 55.2392 108.945 55.4687 109.3 55.7743C109.655 56.0798 109.936 56.4642 110.143 56.9275C110.356 57.3975 110.457 57.9491 110.448 58.5824C110.438 59.2423 110.309 59.8137 110.062 60.2966C109.821 60.7863 109.482 61.1744 109.044 61.461C108.613 61.7477 108.11 61.9165 107.536 61.9677L107.558 60.5378C107.892 60.4897 108.174 60.374 108.403 60.1909C108.639 60.0145 108.816 59.7872 108.933 59.509C109.058 59.2309 109.122 58.9152 109.128 58.5619C109.133 58.202 109.075 57.881 108.952 57.5991C108.837 57.3173 108.667 57.0813 108.443 56.8911C108.219 56.7009 107.955 56.5535 107.65 56.4488C107.344 56.3507 107.005 56.2987 106.632 56.293C106.272 56.2874 105.938 56.3289 105.63 56.4174C105.322 56.5127 105.05 56.6551 104.813 56.8448C104.584 57.0346 104.403 57.2685 104.273 57.5465C104.142 57.8312 104.073 58.1602 104.068 58.5335C104.059 59.0801 104.186 59.5421 104.447 59.9195C104.714 60.3037 105.091 60.5396 105.576 60.6271L105.554 62.057C105.036 61.9822 104.562 61.7982 104.133 61.5048C103.704 61.2115 103.363 60.8128 103.111 60.3089C102.858 59.8049 102.737 59.2063 102.748 58.513Z" fill="white"/>
<path d="M102.456 63.9892L109.66 65.1678L109.436 66.57L102.232 65.3914L102.456 63.9892Z" fill="white"/>
<path d="M101.568 68.7563L108.581 70.9582L108.164 72.3157L101.152 70.1139L101.568 68.7563ZM100.261 73.0202L103.951 71.8314L103.485 73.3515L99.7739 74.6073L100.261 73.0202ZM103.603 70.4433L104.7 70.7878L104.155 72.566C104.079 72.8146 104.064 73.0441 104.111 73.2545C104.156 73.4713 104.255 73.6597 104.408 73.8196C104.562 73.9795 104.756 74.0963 104.991 74.1702C105.233 74.2461 105.462 74.262 105.677 74.218C105.893 74.1739 106.08 74.0755 106.239 73.9226C106.395 73.7761 106.512 73.5785 106.588 73.33L107.133 71.5517L108.288 71.9142L107.786 73.549C107.614 74.1099 107.383 74.5684 107.092 74.9243C106.8 75.2867 106.451 75.5265 106.045 75.6437C105.64 75.7609 105.183 75.7397 104.674 75.5799L104.521 75.532C104.006 75.3702 103.618 75.1227 103.358 74.7894C103.096 74.4624 102.944 74.069 102.904 73.6092C102.864 73.1494 102.93 72.639 103.102 72.0781L103.603 70.4433Z" fill="white"/>
<path d="M96.1554 81.632L103.538 83.5954L102.758 84.8414L96.4129 83.0678L96.8041 82.8196L96.2312 83.7351L96.2909 83.2627L100.668 88.1812L99.9145 89.3849L94.914 83.6156L96.1554 81.632Z" fill="white"/>
<path d="M92.3029 87.1074L97.8345 91.8709L96.9204 92.9576L91.3888 88.1941L92.3029 87.1074Z" fill="white"/>
<path d="M88.1806 91.5117L89.0459 92.5086L87.9172 93.5116C87.6331 93.764 87.4186 94.0305 87.2736 94.3109C87.128 94.6008 87.0479 94.8949 87.0333 95.1933C87.0186 95.4917 87.0654 95.7846 87.1736 96.0719C87.2812 96.3687 87.4507 96.6505 87.6824 96.9174C87.9227 97.1943 88.1792 97.4033 88.4518 97.5445C88.7239 97.6952 89.0048 97.7799 89.2948 97.7987C89.5848 97.8175 89.8768 97.7675 90.171 97.6488C90.4602 97.5345 90.7468 97.3512 91.0309 97.0987L92.1596 96.0957L93.0249 97.0925L91.9634 98.0358C91.4701 98.4742 90.9756 98.7843 90.4801 98.966C89.9846 99.1477 89.5034 99.2186 89.0363 99.1789C88.5736 99.1441 88.1404 99.0163 87.7368 98.7953C87.3325 98.5838 86.9796 98.3044 86.6781 97.957L86.5339 97.7908C86.2454 97.4586 86.0237 97.076 85.8686 96.643C85.7085 96.2145 85.6369 95.7609 85.6538 95.2821C85.6708 94.8033 85.7959 94.322 86.0292 93.8383C86.2625 93.3545 86.6258 92.8934 87.1192 92.455L88.1806 91.5117ZM89.0926 90.7013L93.9368 96.2821L92.8754 97.2254L88.0311 91.6446L89.0926 90.7013Z" fill="white"/>
<path d="M82.4156 96.2176L86.2218 102.447L85.0434 103.184L81.2372 96.9547L82.4156 96.2176ZM81.4068 96.8487L82.0324 97.8726L79.2262 99.628L78.6006 98.604L81.4068 96.8487ZM83.0283 99.5025L83.654 100.526L81.0682 102.144L80.4425 101.12L83.0283 99.5025ZM84.5873 102.054L85.2129 103.078L82.4745 104.791L81.8489 103.767L84.5873 102.054Z" fill="white"/>
<path d="M73.2059 100.831C73.8184 100.585 74.393 100.479 74.9298 100.515C75.4604 100.553 75.9424 100.687 76.3757 100.915C76.8053 101.152 77.1735 101.442 77.4802 101.786C77.7832 102.138 78.009 102.504 78.1576 102.882L78.238 103.087C78.4011 103.503 78.4888 103.946 78.5011 104.415C78.5158 104.89 78.4405 105.355 78.275 105.81C78.1034 106.266 77.8339 106.684 77.4664 107.061C77.1014 107.445 76.6189 107.757 76.0188 107.998C75.4249 108.237 74.8651 108.343 74.3394 108.318C73.816 108.298 73.3401 108.18 72.9117 107.964C72.4771 107.751 72.1039 107.466 71.7923 107.11C71.4831 106.76 71.2469 106.377 71.0837 105.961L71.0034 105.757C70.8548 105.378 70.7744 104.954 70.7621 104.485C70.7461 104.024 70.8171 103.558 70.9753 103.085C71.1296 102.62 71.39 102.189 71.7563 101.79C72.1165 101.394 72.5997 101.074 73.2059 100.831ZM73.6881 102.059C73.3417 102.199 73.0568 102.385 72.8333 102.618C72.6036 102.854 72.4355 103.119 72.329 103.414C72.2187 103.717 72.1689 104.028 72.1795 104.347C72.1863 104.674 72.2519 104.996 72.3761 105.313C72.51 105.654 72.6856 105.947 72.9028 106.19C73.1138 106.435 73.3597 106.624 73.6404 106.756C73.915 106.889 74.2146 106.96 74.5393 106.966C74.8639 106.972 75.1964 106.906 75.5366 106.77C75.883 106.63 76.1723 106.446 76.4044 106.216C76.6365 105.987 76.8101 105.726 76.9253 105.436C77.0342 105.148 77.0853 104.84 77.0784 104.512C77.0654 104.187 76.9919 103.854 76.8579 103.512C76.7337 103.196 76.5661 102.915 76.3551 102.669C76.1403 102.432 75.8932 102.24 75.6138 102.094C75.3306 101.956 75.0255 101.881 74.6984 101.869C74.3713 101.857 74.0346 101.92 73.6881 102.059Z" fill="white"/>
<path d="M67.7746 102.78L68.1331 104.34L66.6146 104.697L66.2561 103.138L67.7746 102.78Z" fill="white"/>
</svg>
