<svg width="20" height="21" viewBox="0 0 20 21" fill="none" xmlns="http://www.w3.org/2000/svg">
<path d="M13 6.51367C13 8.17053 11.6569 9.51367 10 9.51367C8.34318 9.51367 7.00003 8.17053 7.00003 6.51367C7.00003 4.85682 8.34318 3.51367 10 3.51367C11.6569 3.51367 13 4.85682 13 6.51367Z" fill="#BBBBBB"/>
<path d="M18 8.51367C18 9.61824 17.1046 10.5137 16 10.5137C14.8955 10.5137 14 9.61824 14 8.51367C14 7.4091 14.8955 6.51367 16 6.51367C17.1046 6.51367 18 7.4091 18 8.51367Z" fill="#BBBBBB"/>
<path d="M14 15.5137C14 13.3045 12.2092 11.5137 10 11.5137C7.79089 11.5137 6.00003 13.3045 6.00003 15.5137V18.5137H14V15.5137Z" fill="#BBBBBB"/>
<path d="M6.00003 8.51367C6.00003 9.61824 5.1046 10.5137 4.00003 10.5137C2.89546 10.5137 2.00003 9.61824 2.00003 8.51367C2.00003 7.4091 2.89546 6.51367 4.00003 6.51367C5.1046 6.51367 6.00003 7.4091 6.00003 8.51367Z" fill="#BBBBBB"/>
<path d="M16 18.5137V15.5137C16 14.4595 15.7282 13.4689 15.2508 12.608C15.4903 12.5464 15.7413 12.5137 16 12.5137C17.6569 12.5137 19 13.8568 19 15.5137V18.5137H16Z" fill="#BBBBBB"/>
<path d="M4.74929 12.608C4.27188 13.4689 4.00003 14.4595 4.00003 15.5137V18.5137H1.00003V15.5137C1.00003 13.8568 2.34318 12.5137 4.00003 12.5137C4.25874 12.5137 4.5098 12.5464 4.74929 12.608Z" fill="#BBBBBB"/>
</svg>
