<svg width="514" height="80" viewBox="0 0 514 80" fill="none" xmlns="http://www.w3.org/2000/svg">
<path d="M109.927 50.3826V29.3826H115.927V50.3826H109.927Z" fill="black"/>
<path d="M100.02 42.5826V29.3826H106.02V42.5826C106.02 48.4626 103.23 50.9826 96.7199 50.9826C90.2099 50.9826 87.4199 48.4626 87.4199 42.5826V29.3826H93.4199V42.5826C93.4199 45.3126 94.4099 46.4826 96.7199 46.4826C99.0299 46.4826 100.02 45.3126 100.02 42.5826Z" fill="black"/>
<path d="M62.3629 40.5125H73.9429V41.5325H62.3629V40.5125Z" fill="black"/>
<path d="M28.217 50.3826L32.597 39.4926L28.577 29.3826H35.537L38.657 38.7726H39.977L42.737 29.3826H49.727L46.037 39.4926L50.087 50.3826H43.097L39.977 40.0926H38.627L35.177 50.3826H28.217Z" fill="black"/>
<path d="M19.6 42.5826V29.3826H25.6V42.5826C25.6 48.4626 22.81 50.9826 16.3 50.9826C9.79 50.9826 7 48.4626 7 42.5826V29.3826H13V42.5826C13 45.3126 13.99 46.4826 16.3 46.4826C18.61 46.4826 19.6 45.3126 19.6 42.5826Z" fill="black"/>
<path d="M139.247 47.7181L159.287 32.7706M159.287 32.7706C159.287 32.7706 158.512 34.623 158.39 37.5844C158.267 40.5459 158.798 41.9718 158.798 41.9718M159.287 32.7706C159.287 32.7706 156.242 32.7301 154.394 32.1969C152.571 31.6713 150.289 30.4994 150.289 30.4994" stroke="black" stroke-width="1.5" stroke-linecap="square" stroke-linejoin="round"/>
<path d="M281.443 50.3826V29.3826H287.443V50.3826H281.443Z" fill="black"/>
<path d="M271.536 42.5826V29.3826H277.536V42.5826C277.536 48.4626 274.746 50.9826 268.236 50.9826C261.726 50.9826 258.936 48.4626 258.936 42.5826V29.3826H264.936V42.5826C264.936 45.3126 265.926 46.4826 268.236 46.4826C270.546 46.4826 271.536 45.3126 271.536 42.5826Z" fill="black"/>
<path d="M233.879 40.5125H245.459V41.5325H233.879V40.5125Z" fill="black"/>
<path d="M199.733 50.3826L204.113 39.4926L200.093 29.3826H207.053L210.173 38.7726H211.493L214.253 29.3826H221.243L217.553 39.4926L221.603 50.3826H214.613L211.493 40.0926H210.143L206.693 50.3826H199.733Z" fill="black"/>
<path d="M191.116 42.5826V29.3826H197.116V42.5826C197.116 48.4626 194.326 50.9826 187.816 50.9826C181.306 50.9826 178.516 48.4626 178.516 42.5826V29.3826H184.516V42.5826C184.516 45.3126 185.506 46.4826 187.816 46.4826C190.126 46.4826 191.116 45.3126 191.116 42.5826Z" fill="black"/>
<path d="M310.763 47.7181L330.803 32.7706M330.803 32.7706C330.803 32.7706 330.028 34.623 329.905 37.5844C329.783 40.5459 330.313 41.9718 330.313 41.9718M330.803 32.7706C330.803 32.7706 327.758 32.7301 325.91 32.1969C324.087 31.6713 321.804 30.4994 321.804 30.4994" stroke="black" stroke-width="1.5" stroke-linecap="square" stroke-linejoin="round"/>
<path d="M452.958 50.3826V29.3826H458.958V50.3826H452.958Z" fill="black"/>
<path d="M443.051 42.5826V29.3826H449.051V42.5826C449.051 48.4626 446.261 50.9826 439.751 50.9826C433.241 50.9826 430.451 48.4626 430.451 42.5826V29.3826H436.451V42.5826C436.451 45.3126 437.441 46.4826 439.751 46.4826C442.061 46.4826 443.051 45.3126 443.051 42.5826Z" fill="black"/>
<path d="M405.394 40.5125H416.974V41.5325H405.394V40.5125Z" fill="black"/>
<path d="M371.249 50.3826L375.629 39.4926L371.609 29.3826H378.569L381.689 38.7726H383.009L385.769 29.3826H392.759L389.069 39.4926L393.119 50.3826H386.129L383.009 40.0926H381.659L378.209 50.3826H371.249Z" fill="black"/>
<path d="M362.631 42.5826V29.3826H368.631V42.5826C368.631 48.4626 365.841 50.9826 359.331 50.9826C352.821 50.9826 350.031 48.4626 350.031 42.5826V29.3826H356.031V42.5826C356.031 45.3126 357.021 46.4826 359.331 46.4826C361.641 46.4826 362.631 45.3126 362.631 42.5826Z" fill="black"/>
<path d="M482.279 47.7181L502.318 32.7706M502.318 32.7706C502.318 32.7706 501.543 34.623 501.421 37.5844C501.299 40.5459 501.829 41.9718 501.829 41.9718M502.318 32.7706C502.318 32.7706 499.274 32.7301 497.425 32.1969C495.603 31.6713 493.32 30.4994 493.32 30.4994" stroke="black" stroke-width="1.5" stroke-linecap="square" stroke-linejoin="round"/>
</svg>
