<svg width="81" height="39" viewBox="0 0 81 39" fill="none" xmlns="http://www.w3.org/2000/svg">
<path d="M39.7474 13L39.8155 38M39.8155 38C39.8155 38 38.7893 36.274 36.4835 34.4117C34.1776 32.5493 32.7165 32.1257 32.7165 32.1257M39.8155 38C39.8155 38 41.6616 35.5788 43.1911 34.4117C44.6989 33.2611 47 32.1257 47 32.1257" stroke="black" stroke-linecap="square" stroke-linejoin="round"/>
<path d="M4.34 5.4H10.458V11H8.274L8.288 8.97H8.106C8.036 10.244 7 11.224 5.53 11.28C1.904 11.42 0.42 9.726 0.42 6.1C0.42 2.474 1.974 0.92 5.6 0.92C8.456 0.92 9.884 1.928 10.36 4.28H7.7C7.476 3.398 6.846 3.02 5.6 3.02C4.032 3.02 3.36 3.944 3.36 6.1C3.36 8.256 4.242 9.18 5.81 9.18C8.218 9.18 8.12 7.43 8.12 5.96H4.34V5.4ZM11.6205 6.086C11.6205 2.572 13.1745 1.074 16.8005 1.074C20.4265 1.074 21.9805 2.572 21.9805 6.086C21.9805 9.6 20.4265 11.098 16.8005 11.098C13.1745 11.098 11.6205 9.6 11.6205 6.086ZM14.4205 6.086C14.4205 8.172 15.2325 9.068 16.8005 9.068C18.3685 9.068 19.1805 8.172 19.1805 6.086C19.1805 4 18.3685 3.104 16.8005 3.104C15.2325 3.104 14.4205 4 14.4205 6.086ZM27.8551 11V1.2H31.9151C35.4431 1.2 36.9551 2.67 36.9551 6.1C36.9551 9.53 35.4431 11 31.9151 11H27.8551ZM30.6551 8.9H32.0551C33.6231 8.9 34.1551 8.158 34.1551 6.1C34.1551 4.042 33.6231 3.3 32.0551 3.3H30.6551V8.9ZM38.0718 6.086C38.0718 2.572 39.6258 1.074 43.2518 1.074C46.8778 1.074 48.4318 2.572 48.4318 6.086C48.4318 9.6 46.8778 11.098 43.2518 11.098C39.6258 11.098 38.0718 9.6 38.0718 6.086ZM40.8718 6.086C40.8718 8.172 41.6838 9.068 43.2518 9.068C44.8198 9.068 45.6318 8.172 45.6318 6.086C45.6318 4 44.8198 3.104 43.2518 3.104C41.6838 3.104 40.8718 4 40.8718 6.086ZM50.7498 11L49.4898 1.2H52.2478L53.2838 10.202H53.3678L54.1518 1.2H58.8278L59.6398 10.202H59.7238L60.7318 1.2H63.4898L62.2298 11H57.2318L56.4618 2.656H56.3778L55.7478 11H50.7498ZM64.9567 11V1.2H69.9967L72.6567 10.3H72.7407V1.2H75.3167V11H70.2767L67.6167 1.9H67.5327V11H64.9567ZM79.6551 7.822H77.6951V1.2H79.6551V7.822ZM77.2751 9.768C77.2751 9.012 77.9051 8.396 78.6751 8.396C79.4031 8.396 80.0611 9.012 80.0611 9.768C80.0611 10.538 79.4031 11.154 78.6751 11.154C77.9051 11.154 77.2751 10.538 77.2751 9.768Z" fill="black"/>
</svg>
