<svg width="514" height="80" viewBox="0 0 514 80" fill="none" xmlns="http://www.w3.org/2000/svg">
<path d="M19 43.6826V32.6826H24V43.6826C24 48.5826 21.675 50.6826 16.25 50.6826C10.825 50.6826 8.5 48.5826 8.5 43.6826V32.6826H13.5V43.6826C13.5 45.9576 14.325 46.9326 16.25 46.9326C18.175 46.9326 19 45.9576 19 43.6826ZM26.1809 50.1826L29.8309 41.1076L26.4809 32.6826H32.2809L34.8809 40.5076H35.9809L38.2809 32.6826H44.1059L41.0309 41.1076L44.4059 50.1826H38.5809L35.9809 41.6076H34.8559L31.9809 50.1826H26.1809ZM54.6357 41.9576H64.2857V42.8076H54.6357V41.9576ZM76.9166 50.1826L74.6666 32.6826H79.5916L81.4416 48.7576H81.5916L82.9916 32.6826H91.3416L92.7916 48.7576H92.9416L94.7416 32.6826H99.6666L97.4166 50.1826H88.4916L87.1166 35.2826H86.9666L85.8416 50.1826H76.9166ZM101.786 50.1826V32.6826H110.786C115.786 32.6826 117.786 35.4326 117.786 38.4326C117.786 40.6576 116.861 42.4076 114.686 43.3076L118.286 50.2076H113.036L110.161 43.9326H106.786V50.1826H101.786ZM106.786 36.1826V40.6826H110.536C112.036 40.6826 112.786 39.6826 112.786 38.4326C112.786 37.1826 112.036 36.1826 110.536 36.1826H106.786ZM120.542 50.1826V32.6826H125.542V50.1826H120.542ZM132.538 50.1826V36.6826H127.288V32.6826H142.788V36.6826H137.538V50.1826H132.538ZM144.907 50.1826V32.6826H149.907V50.1826H144.907ZM153.403 50.1826V32.6826H162.403L167.153 48.9326H167.303V32.6826H171.903V50.1826H162.903L158.153 33.9326H158.003V50.1826H153.403ZM181.4 40.1826H192.325V50.1826H188.425L188.45 46.5576H188.125C188 48.8326 186.15 50.5826 183.525 50.6826C177.05 50.9326 174.4 47.9076 174.4 41.4326C174.4 34.9576 177.175 32.1826 183.65 32.1826C188.75 32.1826 191.3 33.9826 192.15 38.1826H187.4C187 36.6076 185.875 35.9326 183.65 35.9326C180.85 35.9326 179.65 37.5826 179.65 41.4326C179.65 45.2826 181.225 46.9326 184.025 46.9326C188.325 46.9326 188.15 43.8076 188.15 41.1826H181.4V40.1826Z" fill="black"/>
<path d="M221.261 47.7181L241.301 32.7706M241.301 32.7706C241.301 32.7706 240.526 34.623 240.403 37.5844C240.281 40.5459 240.811 41.9718 240.811 41.9718M241.301 32.7706C241.301 32.7706 238.256 32.7301 236.408 32.1969C234.585 31.6713 232.302 30.4994 232.302 30.4994" stroke="black" stroke-width="1.5" stroke-linecap="square" stroke-linejoin="round"/>
<path d="M280.47 43.6826V32.6826H285.47V43.6826C285.47 48.5826 283.145 50.6826 277.72 50.6826C272.295 50.6826 269.97 48.5826 269.97 43.6826V32.6826H274.97V43.6826C274.97 45.9576 275.795 46.9326 277.72 46.9326C279.645 46.9326 280.47 45.9576 280.47 43.6826ZM287.651 50.1826L291.301 41.1076L287.951 32.6826H293.751L296.351 40.5076H297.451L299.751 32.6826H305.576L302.501 41.1076L305.876 50.1826H300.051L297.451 41.6076H296.326L293.451 50.1826H287.651ZM316.106 41.9576H325.756V42.8076H316.106V41.9576ZM338.387 50.1826L336.137 32.6826H341.062L342.912 48.7576H343.062L344.462 32.6826H352.812L354.262 48.7576H354.412L356.212 32.6826H361.137L358.887 50.1826H349.962L348.587 35.2826H348.437L347.312 50.1826H338.387ZM363.257 50.1826V32.6826H372.257C377.257 32.6826 379.257 35.4326 379.257 38.4326C379.257 40.6576 378.332 42.4076 376.157 43.3076L379.757 50.2076H374.507L371.632 43.9326H368.257V50.1826H363.257ZM368.257 36.1826V40.6826H372.007C373.507 40.6826 374.257 39.6826 374.257 38.4326C374.257 37.1826 373.507 36.1826 372.007 36.1826H368.257ZM382.012 50.1826V32.6826H387.012V50.1826H382.012ZM394.009 50.1826V36.6826H388.759V32.6826H404.259V36.6826H399.009V50.1826H394.009ZM406.378 50.1826V32.6826H411.378V50.1826H406.378ZM414.874 50.1826V32.6826H423.874L428.624 48.9326H428.774V32.6826H433.374V50.1826H424.374L419.624 33.9326H419.474V50.1826H414.874ZM442.871 40.1826H453.796V50.1826H449.896L449.921 46.5576H449.596C449.471 48.8326 447.621 50.5826 444.996 50.6826C438.521 50.9326 435.871 47.9076 435.871 41.4326C435.871 34.9576 438.646 32.1826 445.121 32.1826C450.221 32.1826 452.771 33.9826 453.621 38.1826H448.871C448.471 36.6076 447.346 35.9326 445.121 35.9326C442.321 35.9326 441.121 37.5826 441.121 41.4326C441.121 45.2826 442.696 46.9326 445.496 46.9326C449.796 46.9326 449.621 43.8076 449.621 41.1826H442.871V40.1826Z" fill="black"/>
<path d="M482.732 47.7181L502.771 32.7706M502.771 32.7706C502.771 32.7706 501.996 34.623 501.874 37.5844C501.752 40.5459 502.282 41.9718 502.282 41.9718M502.771 32.7706C502.771 32.7706 499.727 32.7301 497.878 32.1969C496.056 31.6713 493.773 30.4994 493.773 30.4994" stroke="black" stroke-width="1.5" stroke-linecap="square" stroke-linejoin="round"/>
</svg>
