<svg width="30" height="31" viewBox="0 0 30 31" fill="none" xmlns="http://www.w3.org/2000/svg">
<path fill-rule="evenodd" clip-rule="evenodd" d="M5.92108 19.4082L4.54785 19.9013L4.47412 23.9169L9.22778 22.2099C7.59733 21.6716 6.40668 20.7244 5.92108 19.4082" fill="#FDBD39"/>
<path fill-rule="evenodd" clip-rule="evenodd" d="M6.63965 15.1611L1.875 16.872L4.54778 19.9014L5.92101 19.4083C5.43683 18.0959 5.73542 16.6124 6.63965 15.1611" fill="#F69833"/>
<path fill-rule="evenodd" clip-rule="evenodd" d="M14.6577 9.36604C8.59039 11.5447 4.67882 16.0404 5.92101 19.4075L27.8928 11.5178C26.6506 8.15071 20.7251 7.18735 14.6577 9.36604Z" fill="#FECF33"/>
<path fill-rule="evenodd" clip-rule="evenodd" d="M19.1561 21.559C25.2234 19.3803 29.1424 14.9046 27.8928 11.5176L5.92102 19.4073C7.17055 22.7943 13.0888 23.7377 19.1561 21.559Z" fill="#EE6723"/>
<path fill-rule="evenodd" clip-rule="evenodd" d="M27.8928 11.5176L5.92102 19.4073C6.35126 20.5735 7.99193 21.148 10.294 21.148C12.5383 21.148 15.4112 20.6023 18.4064 19.5268C24.4737 17.3481 28.7425 13.8207 27.8928 11.5176" fill="#F69833"/>
<path fill-rule="evenodd" clip-rule="evenodd" d="M23.5198 9.77734C21.2755 9.77734 18.4026 10.323 15.4074 11.3985C9.3401 13.5772 5.07131 17.1046 5.921 19.4078L27.8928 11.5181C27.4626 10.3519 25.8219 9.77734 23.5198 9.77734" fill="#FDBD39"/>
<path fill-rule="evenodd" clip-rule="evenodd" d="M22.3064 24.1294H22.3063C21.6598 24.1294 20.7061 23.5554 19.4716 22.4235C18.0111 21.0842 16.3381 19.1227 14.7607 16.9002C13.1834 14.6779 11.8873 12.456 11.1112 10.6439C10.2656 8.6692 10.145 7.45502 10.7528 7.03507C10.8861 6.94308 11.0468 6.89648 11.2303 6.89648C11.7247 6.89648 12.688 7.2583 14.4694 8.98211L14.5084 9.01978L14.5031 9.07336C14.4909 9.1972 14.4797 9.32214 14.4697 9.44478L14.4499 9.68829L14.2751 9.51522C12.3557 7.6145 11.5108 7.4093 11.2366 7.4093C11.1584 7.4093 11.0961 7.42493 11.0515 7.45578C10.7878 7.63787 10.7709 8.52972 11.5907 10.444C12.353 12.2238 13.6302 14.412 15.1872 16.6056C16.7442 18.7995 18.3916 20.732 19.8259 22.0473C21.3727 23.4655 22.0697 23.6187 22.2976 23.6187C22.3763 23.6187 22.4402 23.6021 22.4877 23.5693C22.7658 23.3772 22.7661 22.4218 21.8519 20.3614L21.8099 20.2668L21.9018 20.2174C21.9937 20.1679 22.0825 20.1192 22.1659 20.0727L22.2759 20.0112L22.3267 20.1255C22.9749 21.5854 23.5809 23.441 22.7863 23.99C22.6523 24.0825 22.4909 24.1294 22.3064 24.1294V24.1294ZM22.3063 23.9042H22.3064L22.3063 24.0168L22.3063 23.9042Z" fill="#EE6723"/>
<path fill-rule="evenodd" clip-rule="evenodd" d="M19.3034 21.4981L19.2942 21.6103C19.1408 23.476 18.7369 25.7189 17.6838 25.8097C17.6626 25.8115 17.6407 25.8125 17.6187 25.8125C16.9033 25.8125 16.2265 24.805 15.6071 22.818C15.0211 20.9381 14.5663 18.4141 14.3266 15.7109C14.0869 13.0083 14.0905 10.4447 14.3367 8.49252C14.6051 6.36522 15.1161 5.25427 15.8554 5.1905C15.8772 5.18852 15.8999 5.1875 15.9223 5.1875C16.4412 5.1875 17.2234 5.76511 18.0241 8.4555L17.5012 8.55469C17.2339 7.65563 16.9426 6.92441 16.6533 6.42195C16.3858 5.95719 16.1256 5.70125 15.9208 5.70125C15.9141 5.70125 15.9073 5.70152 15.9006 5.70208C15.5802 5.72975 15.1135 6.49377 14.8533 8.55595C14.6115 10.4731 14.6086 12.9983 14.8451 15.6662C15.0818 18.3345 15.5291 20.8208 16.1047 22.667C16.3624 23.4939 16.6451 24.1753 16.9222 24.6377C17.1778 25.0641 17.4251 25.299 17.6185 25.299C17.6252 25.299 17.6318 25.2987 17.6384 25.2981C17.945 25.2717 18.5228 24.4766 18.766 21.6794L19.3034 21.4981" fill="#EE6723"/>
</svg>
